<svg width="32" height="32" xmlns="http://www.w3.org/2000/svg"><g paint-order="stroke markers fill"><path d="M9.629.024C8.396-.02 7.574 1.326 7.763 2.549v3.575c-1.415.026-2.837-.048-4.248.045-1.116.204-1.635 1.47-1.492 2.573.021 1.615-.05 3.237.033 4.848.188 1.195 1.37 1.749 2.399 1.593l3.308-.004c.04 1.55-.088 3.118.075 4.656.288 1.424.62 2.048 2.027 2.672.722 2.348 1.71 4.597 2.375 6.96.877 2.344 3.838 3.296 5.77 1.843.921-.324 1.122-2.676 1.625-.813 1.426 2.122 4.768 1.927 6.11-.218.763-1.123.819-2.575 1.43-3.785 1.506-4.29 3.365-8.8 2.677-13.49-.462-3.797-3.75-6.985-7.369-6.8l-2.973-.086-3.226.003c-.044-1.561.096-3.142-.083-4.69C15.903.246 14.69-.094 13.68.029z" color="#000" fill="#f2f2f2" style="font-feature-settings:normal;font-variant-alternates:normal;font-variant-caps:normal;font-variant-east-asian:normal;font-variant-ligatures:normal;font-variant-numeric:normal;font-variant-position:normal;font-variation-settings:normal;inline-size:0;isolation:auto;mix-blend-mode:normal;shape-margin:0;shape-padding:0;text-decoration-color:#000;text-decoration-line:none;text-decoration-style:solid;text-indent:0;text-orientation:mixed;text-transform:none;white-space:normal"/><path d="M22.36 8.928c-1.53.09-3.059.86-4.603.326-1.569-.544-3.617-.52-4.81.844-1.646 1.882-2.178 4.498-1.771 6.928.658 3.934 2.356 7.564 3.462 11.37.3 1.03 1.875 1.174 2.377.082.57-1.24.484-2.593.796-3.865.198-.808.989-2.187 1.958-1.55.954.627.94 2.028 1.101 3.083.147.959.066 2.163.866 2.83 1.071.895 2.074-.313 2.312-1.437.33-1.563 1-3.03 1.464-4.56.87-2.87 2.044-5.778 1.873-8.824-.111-1.994-1.16-4.188-3.18-4.882-.641-.22-1.297-.377-1.845-.345z" fill="#fff" stroke="#000" stroke-width="2" style="font-feature-settings:normal;font-variant-alternates:normal;font-variant-caps:normal;font-variant-east-asian:normal;font-variant-ligatures:normal;font-variant-numeric:normal;font-variant-position:normal;font-variation-settings:normal;inline-size:0;isolation:auto;mix-blend-mode:normal;shape-margin:0;shape-padding:0;text-decoration-color:#000;text-decoration-line:none;text-decoration-style:solid;text-indent:0;text-orientation:mixed;text-transform:none;white-space:normal"/><path d="M9.629 2.021v6.1l-5.74.004-.004 5.059 5.744-.004v6.092h4.79v-6.098l5.74-.004.005-5.059-5.746.004V2.021H9.629z" color="#000" fill="red" style="font-feature-settings:normal;font-variant-alternates:normal;font-variant-caps:normal;font-variant-east-asian:normal;font-variant-ligatures:normal;font-variant-numeric:normal;font-variant-position:normal;font-variation-settings:normal;inline-size:0;isolation:auto;mix-blend-mode:normal;shape-margin:0;shape-padding:0;text-decoration-color:#000;text-decoration-line:none;text-decoration-style:solid;text-indent:0;text-orientation:mixed;text-transform:none;white-space:normal"/></g></svg>