<?xml version="1.0" encoding="UTF-8" standalone="no"?>
<!-- Created with Inkscape (http://www.inkscape.org/) -->

<svg
   width="32.0px"
   height="32.0px"
   viewBox="0 0 32.0 32.0"
   version="1.1"
   id="SVGRoot"
   xmlns="http://www.w3.org/2000/svg"
   xmlns:svg="http://www.w3.org/2000/svg">
  <defs
     id="defs17335" />
  <g
     id="layer1"
     style="stroke:none">
    <path
       fill-rule="evenodd"
       clip-rule="evenodd"
       d="m 8.0379913,10.365877 -0.9165016,-3e-6 c -1.0031612,-3e-6 -6.0216307,3.078364 -6.021061,5.432492 l 0.00299,12.131383 c 3.6e-4,1.467457 -0.26063944,1.227598 1.4027894,1.224769 l 27.4726649,-0.04671 c 1.663401,-0.0029 1.327417,0.241685 1.332018,-1.22576 l 0.03832,-12.224824 c 0.0067,-2.121087 -4.608204,-5.197893 -5.776404,-5.197895 l -1.072744,-2e-6 -0.04127,-3.9389411 C 24.435693,4.3193064 21.858295,1.880609 19.363159,1.8806089 l -6.229574,-3e-7 c -2.495137,-1e-7 -5.0955932,2.4385425 -5.0955934,4.6397665 z M 11.091164,6.4269326 c 0.0078,-0.7336897 0.798014,-1.3285555 1.62975,-1.3285555 h 7.137447 c 0.831737,0 1.62975,0.5948141 1.62975,1.3285555 V 10.365877 H 11.049897 Z"
       fill="#ffffff"
       id="path16484-4"
       style="fill:#ffffff;stroke:none;stroke-width:0.874206;stroke-dasharray:none" />
    <path
       fill-rule="evenodd"
       clip-rule="evenodd"
       d="m 8.6877787,10.960847 -0.844669,-2e-6 c -0.9245366,-3e-6 -5.5496748,2.814945 -5.5491489,4.967629 l 0.00271,11.093292 c 3.31e-4,1.341884 -0.2402112,1.122551 1.2928427,1.119964 L 28.908959,28.09901 c 1.533029,-0.0026 1.223378,0.221005 1.227618,-1.12087 l 0.03532,-11.178737 c 0.0062,-1.939584 -4.247027,-4.753105 -5.323667,-4.753107 l -0.988666,-2e-6 -0.03803,-3.6018833 C 23.800282,5.4316858 21.424891,3.2016695 19.125316,3.2016694 l -5.74132,-3e-7 C 11.08442,3.201669 8.6877792,5.4315437 8.687779,7.4444073 Z M 11.501654,7.3589607 c 0.0071,-0.6709072 0.735468,-1.21487 1.502016,-1.21487 h 6.578035 c 0.766548,0 1.502016,0.5439155 1.502016,1.21487 v 3.6018863 h -9.6201 z"
       fill="#ffffff"
       id="path16484"
       style="fill:#ff0000;stroke:none;stroke-width:0.802538;stroke-dasharray:none" />
    <path
       d="m 14.651045,14.254392 v 3.509919 h -3.433287 v 3.50992 h 3.433287 v 3.509918 h 3.433288 v -3.509918 h 3.433285 v -3.50992 h -3.433285 v -3.509919 z"
       fill="#ffffff"
       id="path16482"
       style="stroke:none;stroke-width:0.869601;stroke-dasharray:none" />
  </g>
  <g
     id="layer1-3"
     transform="translate(-2.7634364,-1.7589168)"
     style="stroke:none" />
</svg>
