<?xml version="1.0" encoding="UTF-8" standalone="no"?>
<!-- Created with Inkscape (http://www.inkscape.org/) -->

<svg
   width="32.0px"
   height="32.0px"
   viewBox="0 0 32.0 32.0"
   version="1.1"
   id="SVGRoot"
   xmlns="http://www.w3.org/2000/svg"
   xmlns:svg="http://www.w3.org/2000/svg">
  <defs
     id="defs6485" />
  <g
     id="layer1">
    <path
       id="path6358-5"
       style="fill:#ffffff;fill-opacity:1;stroke-width:0.99999"
       d="m 13.750825,1.1185079 c -1.242445,0.7002994 -2.484876,1.4006257 -3.726887,2.1017852 0.825324,1.6808521 1.651594,3.3611845 2.477563,5.0416829 -3.9120409,7.71394 -7.8233609,15.42829 -11.73591683,23.141938 10.13809383,0 20.27618783,0 30.41428083,0 C 27.219474,23.767533 23.257431,16.132109 19.29635,8.4961272 20.161026,6.7376066 21.026307,4.979418 21.889885,3.2202931 20.118989,2.2217677 18.347397,1.224628 16.576302,0.22650347 16.315499,0.49184984 16.048285,1.8796444 15.793416,1.1061118 15.566858,0.48084559 15.308465,-0.03592763 14.719773,0.57301956 14.396791,0.75484906 14.073808,0.93667844 13.750825,1.1185079 Z" />
    <path
       opacity="0.5"
       d="M 15.983531,5.9518603 14.563856,3.1691665 12.310654,4.3926118 14.544816,8.7719029 Z"
       fill="white"
       id="path6358"
       style="fill:#d98700;fill-opacity:1;stroke-width:0.99999" />
    <path
       fill-rule="evenodd"
       clip-rule="evenodd"
       d="M 3.2521665,30.049405 H 28.714884 L 17.341712,8.9297824 19.656396,4.3926118 17.403196,3.1691665 Z M 21.076071,27.42255 c -3.81941,-3.940276 -5.09254,-10.507407 -5.09254,-10.507407 0,0 -1.273141,6.567131 -5.092554,10.507407 z"
       fill="white"
       id="path6360"
       style="fill:#d98700;fill-opacity:1;stroke-width:0.99999" />
  </g>
</svg>
