<svg width="32" height="24" xmlns="http://www.w3.org/2000/svg" xmlns:xlink="http://www.w3.org/1999/xlink"><g color="#000" paint-order="stroke markers fill"><path d="M3 0a2 2 0 0 0-2 2v2a2 2 0 0 0 1 1.73v12.54C1 18.275.001 19.287 0 20v2a2 2 0 0 0 2 2h28a2 2 0 0 0 2-2v-2c0-.714-1-1.688-2-1.73V5.73A2 2 0 0 0 31 4V2a2 2 0 0 0-2-2H5z" fill="#f2f2f2" style="font-feature-settings:normal;font-variant-alternates:normal;font-variant-caps:normal;font-variant-east-asian:normal;font-variant-ligatures:normal;font-variant-numeric:normal;font-variant-position:normal;font-variation-settings:normal;inline-size:0;isolation:auto;mix-blend-mode:normal;shape-margin:0;shape-padding:0;text-decoration-color:#000;text-decoration-line:none;text-decoration-style:solid;text-indent:0;text-orientation:mixed;text-transform:none;white-space:normal"/><path d="M28 4h1V2H3v2h1v16H2v2h28v-2h-2zM5 20V4h22v16z" style="font-feature-settings:normal;font-variant-alternates:normal;font-variant-caps:normal;font-variant-east-asian:normal;font-variant-ligatures:normal;font-variant-numeric:normal;font-variant-position:normal;font-variation-settings:normal;inline-size:0;isolation:auto;mix-blend-mode:normal;shape-margin:0;shape-padding:0;text-decoration-color:#000;text-decoration-line:none;text-decoration-style:solid;text-indent:0;text-orientation:mixed;text-transform:none;white-space:normal"/></g><path fill="#dd9824" paint-order="stroke markers fill" d="M5 4h22v16H5z"/><path id="a" d="M6 14h2v4H6z"/><use transform="translate(4)" width="100%" height="100%" xlink:href="#a"/><use transform="translate(14)" width="100%" height="100%" xlink:href="#a"/><use transform="translate(18)" width="100%" height="100%" xlink:href="#a"/><path id="b" d="M6 6h2v6H6z"/><use transform="translate(4)" width="100%" height="100%" xlink:href="#b"/><use transform="translate(14)" width="100%" height="100%" xlink:href="#b"/><use transform="translate(18)" width="100%" height="100%" xlink:href="#b"/><path paint-order="stroke markers fill" d="M14 14h4v6h-4z"/></svg>