<svg width="32" height="34" xmlns="http://www.w3.org/2000/svg" xmlns:xlink="http://www.w3.org/1999/xlink"><g paint-order="stroke markers fill"><path d="M15 0a2 2 0 0 0-2 2v4H5a2 2 0 0 0-2 2v2H2a2 2 0 0 0-2 2v20a2 2 0 0 0 2 2h28a2 2 0 0 0 2-2V12a2 2 0 0 0-2-2h-1V8a2 2 0 0 0-2-2h-2.002a2 2 0 0 0-.889-1.664L18.16.371C17.712.109 17.54 0 17.07.001z" color="#000" fill="#f2f2f2" style="font-feature-settings:normal;font-variant-alternates:normal;font-variant-caps:normal;font-variant-east-asian:normal;font-variant-ligatures:normal;font-variant-numeric:normal;font-variant-position:normal;font-variation-settings:normal;inline-size:0;isolation:auto;mix-blend-mode:normal;shape-margin:0;shape-padding:0;text-decoration-color:#000;text-decoration-line:none;text-decoration-style:solid;text-indent:0;text-orientation:mixed;text-transform:none;white-space:normal"/><path d="M2 12h28v20H2z"/><path d="M4 14h4v-4h16v4h4v16H4z" fill="#afbdc3"/></g><path id="a" d="M6 24h2v4H6z"/><use transform="translate(4)" width="100%" height="100%" xlink:href="#a"/><use transform="translate(14)" width="100%" height="100%" xlink:href="#a"/><use transform="translate(18)" width="100%" height="100%" xlink:href="#a"/><path id="b" d="M6 16h2v6H6z"/><use transform="translate(4)" width="100%" height="100%" xlink:href="#b"/><use transform="translate(14)" width="100%" height="100%" xlink:href="#b"/><use transform="translate(18)" width="100%" height="100%" xlink:href="#b"/><path paint-order="stroke markers fill" d="M14 24h4v6h-4zM14 16h4v6h-4z"/><g color="#000"><path d="M15 2h2v6h-2z" fill="#050103" style="font-feature-settings:normal;font-variant-alternates:normal;font-variant-caps:normal;font-variant-east-asian:normal;font-variant-ligatures:normal;font-variant-numeric:normal;font-variant-position:normal;font-variation-settings:normal;inline-size:0;isolation:auto;mix-blend-mode:normal;shape-margin:0;shape-padding:0;text-decoration-color:#000;text-decoration-line:none;text-decoration-style:solid;text-indent:0;text-orientation:mixed;text-transform:none;white-space:normal" paint-order="stroke markers fill"/><path d="M17 6h6l-6-4z" fill="#c32727" style="font-feature-settings:normal;font-variant-alternates:normal;font-variant-caps:normal;font-variant-east-asian:normal;font-variant-ligatures:normal;font-variant-numeric:normal;font-variant-position:normal;font-variation-settings:normal;inline-size:0;isolation:auto;mix-blend-mode:normal;shape-margin:0;shape-padding:0;text-decoration-color:#000;text-decoration-line:none;text-decoration-style:solid;text-indent:0;text-orientation:mixed;text-transform:none;white-space:normal"/><path d="M26 10h1V8H5v2h1v2H5v2h22v-2h-1zM8 12v-2h16v2z" style="font-feature-settings:normal;font-variant-alternates:normal;font-variant-caps:normal;font-variant-east-asian:normal;font-variant-ligatures:normal;font-variant-numeric:normal;font-variant-position:normal;font-variation-settings:normal;inline-size:0;isolation:auto;mix-blend-mode:normal;shape-margin:0;shape-padding:0;text-decoration-color:#000;text-decoration-line:none;text-decoration-style:solid;text-indent:0;text-orientation:mixed;text-transform:none;white-space:normal" paint-order="stroke markers fill"/></g></svg>