<svg xmlns="http://www.w3.org/2000/svg" version="1.0" width="32" height="32"><g stroke-width="1.146" color="#000" font-weight="400" font-family="sans-serif" paint-order="stroke markers fill"><path style="line-height:normal;font-variant-ligatures:normal;font-variant-position:normal;font-variant-caps:normal;font-variant-numeric:normal;font-variant-alternates:normal;font-variant-east-asian:normal;font-feature-settings:normal;font-variation-settings:normal;text-indent:0;text-align:start;text-decoration-line:none;text-decoration-style:solid;text-decoration-color:#000;text-transform:none;text-orientation:mixed;white-space:normal;shape-padding:0;shape-margin:0;inline-size:0;isolation:auto;mix-blend-mode:normal;solid-color:#000;solid-opacity:1" d="M16 0C7.22 0 0 7.22 0 16c0 8.78 7.22 16 16 16 8.78 0 16-7.22 16-16 0-8.78-7.22-16-16-16z" overflow="visible" fill="#f2f2f2"/><path style="line-height:normal;font-variant-ligatures:normal;font-variant-position:normal;font-variant-caps:normal;font-variant-numeric:normal;font-variant-alternates:normal;font-variant-east-asian:normal;font-feature-settings:normal;font-variation-settings:normal;text-indent:0;text-align:start;text-decoration-line:none;text-decoration-style:solid;text-decoration-color:#000;text-transform:none;text-orientation:mixed;white-space:normal;shape-padding:0;shape-margin:0;inline-size:0;isolation:auto;mix-blend-mode:normal;solid-color:#000;solid-opacity:1" d="M16 2C8.313 2 2 8.313 2 16s6.313 14 14 14 14-6.313 14-14S23.687 2 16 2z" overflow="visible" fill="red"/></g><path style="line-height:normal;font-variant-ligatures:normal;font-variant-position:normal;font-variant-caps:normal;font-variant-numeric:normal;font-variant-alternates:normal;font-variant-east-asian:normal;font-feature-settings:normal;font-variation-settings:normal;text-indent:0;text-align:start;text-decoration-line:none;text-decoration-style:solid;text-decoration-color:#000;text-transform:none;text-orientation:mixed;white-space:normal;shape-padding:0;shape-margin:0;inline-size:0;isolation:auto;mix-blend-mode:normal;solid-color:#000;solid-opacity:1" d="M26.5 16c0 5.799-4.701 10.5-10.5 10.5S5.5 21.799 5.5 16 10.201 5.5 16 5.5 26.5 10.201 26.5 16z" color="#000" font-weight="400" font-family="sans-serif" overflow="visible" fill="#fff" paint-order="stroke markers fill"/><path paint-order="stroke markers fill" d="M7 15h18v2H7z"/><g style="line-height:1.25;-inkscape-font-specification:'sans-serif Bold';text-align:center"><path style="-inkscape-font-specification:'sans-serif Bold';text-align:center" d="M12.036 22.275H8.873c.032-.248-.065-.54.05-.757l1.826-2.236H8.964v-.717h2.971c-.03.252.063.546-.05.77l-1.824 2.222h1.975v.718zm4.334-1.854c.061.89-.578 1.801-1.511 1.898-.883.174-1.95-.197-2.241-1.102-.342-.941-.048-2.242 1-2.6.957-.349 2.277-.037 2.623 1.004.094.255.13.529.13.8zm-1.287.94c.407-.577.41-1.53-.144-2.018-.53-.393-1.34-.008-1.397.637-.147.624.005 1.591.796 1.667.276.029.57-.068.745-.287zm4.744.914h-2.716v-3.71h.971v2.992h1.745v.718zm3.3 0h-2.716v-3.71h.971v2.992h1.745v.718z" aria-label="ZOLL" font-weight="700" font-size="5.14" font-family="sans-serif" text-anchor="middle"/></g><g style="line-height:1.25;-inkscape-font-specification:'sans-serif Bold';text-align:center"><path style="-inkscape-font-specification:'sans-serif Bold';text-align:center" d="M13.291 9.75l-1.373 3.71h-1.087L9.458 9.75h1.019l.91 2.606.91-2.606h.994zm4.021 3.71h-1.004l-.26-.75h-1.396l-.26.75h-.98l1.391-3.71h1.118l1.39 3.71zm-1.5-1.43l-.463-1.331-.462 1.33h.925zm.405-3.676c-.123.247-.4.432-.58.656-.167.177-.31.407-.592.323-.392.079-.33-.09-.126-.335l.41-.644h.888zM21.8 13.46h-.966v-2.485l-.698 1.612c-.22-.044-.562.092-.701-.073l-.667-1.539v2.484h-.915V9.75h1.128l.847 1.862.844-1.861H21.8v3.71z" aria-label="VÁM" font-weight="700" font-size="5.14" font-family="sans-serif" text-anchor="middle"/></g></svg>