<svg xmlns="http://www.w3.org/2000/svg" width="32" height="24"><g stroke-width="4" stroke-linejoin="round" paint-order="stroke markers fill" color="#000" font-weight="400" font-family="sans-serif"><path style="line-height:normal;font-variant-ligatures:normal;font-variant-position:normal;font-variant-caps:normal;font-variant-numeric:normal;font-variant-alternates:normal;font-variant-east-asian:normal;font-feature-settings:normal;font-variation-settings:normal;text-indent:0;text-align:start;text-decoration-line:none;text-decoration-style:solid;text-decoration-color:#000;text-transform:none;text-orientation:mixed;white-space:normal;shape-padding:0;shape-margin:0;inline-size:0;isolation:auto;mix-blend-mode:normal;solid-color:#000;solid-opacity:1" d="M8 2a2 2 0 0 0-2 2v6a2 2 0 0 0 2 2h22a2 2 0 0 0 2-2V4a2 2 0 0 0-2-2z" overflow="visible" fill="#f2f2f2"/><path style="line-height:normal;font-variant-ligatures:normal;font-variant-position:normal;font-variant-caps:normal;font-variant-numeric:normal;font-variant-alternates:normal;font-variant-east-asian:normal;font-feature-settings:normal;font-variation-settings:normal;text-indent:0;text-align:start;text-decoration-line:none;text-decoration-style:solid;text-decoration-color:#000;text-transform:none;text-orientation:mixed;white-space:normal;shape-padding:0;shape-margin:0;inline-size:0;isolation:auto;mix-blend-mode:normal;solid-color:#000;solid-opacity:1" d="M8 4v6h22V4zm2 2h18v2H10z" overflow="visible" fill="#7b0000"/></g><path style="line-height:normal;font-variant-ligatures:normal;font-variant-position:normal;font-variant-caps:normal;font-variant-numeric:normal;font-variant-alternates:normal;font-variant-east-asian:normal;font-feature-settings:normal;font-variation-settings:normal;text-indent:0;text-align:start;text-decoration-line:none;text-decoration-style:solid;text-decoration-color:#000;text-transform:none;text-orientation:mixed;white-space:normal;shape-padding:0;shape-margin:0;inline-size:0;isolation:auto;mix-blend-mode:normal;solid-color:#000;solid-opacity:1" d="M2.033 18.037a2 2 0 0 0-2 2v2a2 2 0 0 0 2 2h11a2 2 0 0 0 2-2v-2a2 2 0 0 0-2-2z" color="#000" font-weight="400" font-family="sans-serif" overflow="visible" fill="#f2f2f2" paint-order="stroke markers fill"/><path style="line-height:normal;font-variant-ligatures:normal;font-variant-position:normal;font-variant-caps:normal;font-variant-numeric:normal;font-variant-alternates:normal;font-variant-east-asian:normal;font-feature-settings:normal;font-variation-settings:normal;text-indent:0;text-align:start;text-decoration-line:none;text-decoration-style:solid;text-decoration-color:#000;text-transform:none;text-orientation:mixed;white-space:normal;shape-padding:0;shape-margin:0;inline-size:0;isolation:auto;mix-blend-mode:normal;solid-color:#000;solid-opacity:1" d="M5.967 0c-2.115 0-3.88 1.764-3.88 3.879V20.12c0 2.115 1.765 3.879 3.88 3.879h3.24c2.115 0 3.88-1.764 3.88-3.879V3.88C13.088 1.764 11.323 0 9.208 0zm.12 4h3v16h-3z" color="#000" font-weight="400" font-family="sans-serif" overflow="visible" fill="#f2f2f2" paint-order="stroke markers fill"/><path style="line-height:normal;font-variant-ligatures:normal;font-variant-position:normal;font-variant-caps:normal;font-variant-numeric:normal;font-variant-alternates:normal;font-variant-east-asian:normal;font-feature-settings:normal;font-variation-settings:normal;text-indent:0;text-align:start;text-decoration-line:none;text-decoration-style:solid;text-decoration-color:#000;text-transform:none;text-orientation:mixed;white-space:normal;shape-padding:0;shape-margin:0;inline-size:0;isolation:auto;mix-blend-mode:normal;solid-color:#000;solid-opacity:1" d="M5.967 2h3.24c1.042 0 1.88.838 1.88 1.88v16.24c0 1.042-.838 1.88-1.88 1.88h-3.24a1.876 1.876 0 0 1-1.88-1.88V3.88c0-1.042.839-1.88 1.88-1.88z" color="#000" font-weight="400" font-family="sans-serif" overflow="visible" fill="#363636" paint-order="stroke markers fill"/><path style="line-height:normal;font-variant-ligatures:normal;font-variant-position:normal;font-variant-caps:normal;font-variant-numeric:normal;font-variant-alternates:normal;font-variant-east-asian:normal;font-feature-settings:normal;font-variation-settings:normal;text-indent:0;text-align:start;text-decoration-line:none;text-decoration-style:solid;text-decoration-color:#000;text-transform:none;text-orientation:mixed;white-space:normal;shape-padding:0;shape-margin:0;inline-size:0;isolation:auto;mix-blend-mode:normal;solid-color:#000;solid-opacity:1" d="M2.033 20.037h11v2h-11z" color="#000" font-weight="400" font-family="sans-serif" overflow="visible" paint-order="stroke markers fill"/><path style="line-height:normal;font-variant-ligatures:normal;font-variant-position:normal;font-variant-caps:normal;font-variant-numeric:normal;font-variant-alternates:normal;font-variant-east-asian:normal;font-feature-settings:normal;font-variation-settings:normal;text-indent:0;text-align:start;text-decoration-line:none;text-decoration-style:solid;text-decoration-color:#000;text-transform:none;text-orientation:mixed;white-space:normal;shape-padding:0;shape-margin:0;inline-size:0;isolation:auto;mix-blend-mode:normal;solid-color:#000;solid-opacity:1" d="M7 5h22v4H7z" color="#000" font-weight="400" font-family="sans-serif" overflow="visible" stroke-linecap="square" stroke="#7a0018" stroke-width="2" paint-order="markers fill stroke" fill="#fff"/><rect width="1.975" height="1.998" x="12.025" y="6.002" ry="0" fill="#bd0000" paint-order="markers fill stroke"/><rect width="1.975" height="1.998" x="16.025" y="6.002" ry="0" fill="#bd0000" paint-order="markers fill stroke"/><rect width="1.975" height="1.998" x="20.005" y="6.002" ry="0" fill="#bd0000" paint-order="markers fill stroke"/><rect width="1.975" height="1.998" x="23.962" y="6.002" ry="0" fill="#bd0000" paint-order="markers fill stroke"/><rect width="1.975" height="1.998" x="8.025" y="6.002" ry="0" fill="#bd0000" paint-order="markers fill stroke"/></svg>