<svg class="icon" width="32" height="32" xmlns="http://www.w3.org/2000/svg"><defs><linearGradient id="a" x1="11.21" x2="12.32" y1="30.06" y2="23.58" gradientUnits="userSpaceOnUse"><stop stop-color="#a04e00" offset="0"/><stop stop-color="#f0c238" offset="1"/></linearGradient></defs><g color="#000"><path d="M10.17.002C6.015-.041 1.583 2.476.495 6.681c-.47 1.837-.64 3.795-.396 5.675.36 1.373 2.138 2.054 3.325 1.277-.084 1.843.409 3.697 1.332 5.289-1.363-.071-3.095-.851-4.21.305-.888.969-.437 2.366-.548 3.547C.02 25.3-.043 27.83.03 30.353c.173 1.172 1.41 1.814 2.511 1.645 9.231-.005 18.46.02 27.69-.013 1.226-.106 1.946-1.386 1.763-2.529-.035-2.115.072-4.24-.056-6.348-.295-1.545-2.512-2.07-3.47-.822-.498 1.058-2.338 1.05-2.841.003a2.007 2.007 0 0 0-2.21-.588c.736-.82.51-2.678.898-3.084.673.94 1.639 2.013 2.93 1.73 1.588-.32 2.209-2.087 2.717-3.424.4-1.301.523-2.69.345-4.04 1.28-.29 1.899-1.706 1.668-2.92-.271-4.614-4.24-8.961-9.004-8.901-2.067.012-4.142.86-5.498 2.445C15.637 1.422 12.968.047 10.166 0z" fill="#f2f2f2" style="font-feature-settings:normal;font-variant-alternates:normal;font-variant-caps:normal;font-variant-east-asian:normal;font-variant-ligatures:normal;font-variant-numeric:normal;font-variant-position:normal;font-variation-settings:normal;inline-size:0;isolation:auto;mix-blend-mode:normal;shape-margin:0;shape-padding:0;text-decoration-color:#000;text-decoration-line:none;text-decoration-style:solid;text-indent:0;text-orientation:mixed;text-transform:none;white-space:normal" paint-order="stroke markers fill"/><g stroke="#000" stroke-linejoin="round"><path d="M3.9 24.76c10.25-2.493 12.37-17.1 12.37-17.1l1.446.284s-1.676 16.19-10.65 20.27z" fill="#795548" stroke-width=".6" style="font-feature-settings:normal;font-variant-alternates:normal;font-variant-caps:normal;font-variant-east-asian:normal;font-variant-ligatures:normal;font-variant-numeric:normal;font-variant-position:normal;font-variation-settings:normal;inline-size:0;isolation:auto;mix-blend-mode:normal;shape-margin:0;shape-padding:0;text-decoration-color:#000;text-decoration-line:none;text-decoration-style:solid;text-indent:0;text-orientation:mixed;text-transform:none;white-space:normal"/><path d="M2.836 11.71c-.02-1.913.266-4.932 1.374-6.439 1.11-1.5 3.201-2.567 5.076-2.902 1.874-.354 3.765.133 5.252 1.071a8.986 8.986 0 0 1 3.445 3.983c-1.678-.275-3.112-.26-4.451-.455-1.336-.206-2.523-.227-3.631-.027-1.108.201-2.095.935-3.253 1.64-1.163.7-2.446 2.035-3.812 3.13zm27.45-1l-3.303-1.871c-.971-.533-1.848-.931-2.684-1.183a8.828 8.828 0 0 0-2.689-.39c-1.025-.013-2.187.167-3.632.273a6.183 6.183 0 0 1 2.809-3.468c1.309-.76 3.007-.978 4.515-.49 1.518.464 2.776 1.516 3.632 2.762.845 1.263 1.394 2.736 1.352 4.367z" fill="#0c8211" stroke-width=".5" style="font-feature-settings:normal;font-variant-alternates:normal;font-variant-caps:normal;font-variant-east-asian:normal;font-variant-ligatures:normal;font-variant-numeric:normal;font-variant-position:normal;font-variation-settings:normal;inline-size:0;isolation:auto;mix-blend-mode:normal;shape-margin:0;shape-padding:0;text-decoration-color:#000;text-decoration-line:none;text-decoration-style:solid;text-indent:0;text-orientation:mixed;text-transform:none;white-space:normal"/><path d="M17.64 7.041c-1.559.959-2.7 1.782-3.589 2.592-.888.809-1.477 1.562-2.047 2.417-.564.854-1.098 1.853-1.671 3.027-.59 1.173-1.162 2.491-2.125 3.989-1.209-1.307-1.795-2.828-1.949-4.457a7.801 7.801 0 0 1 1.278-4.978c1.026-1.588 2.805-2.856 4.702-3.325 1.89-.464 3.87-.288 5.401.735zm9.766 11.09c-1.131-1.245-1.924-2.312-2.665-3.311a119.921 119.921 0 0 0-2.001-2.697c-.634-.813-1.231-1.558-2.011-2.355-.774-.814-1.764-1.626-3.09-2.727 1.539-.887 3.389-1.026 5.122-.569a8.026 8.026 0 0 1 4.278 2.863 7.93 7.93 0 0 1 1.635 4.366c.064 1.511-.233 3.05-1.269 4.43z" fill="#2cb831" stroke-width=".5" style="font-feature-settings:normal;font-variant-alternates:normal;font-variant-caps:normal;font-variant-east-asian:normal;font-variant-ligatures:normal;font-variant-numeric:normal;font-variant-position:normal;font-variation-settings:normal;inline-size:0;isolation:auto;mix-blend-mode:normal;shape-margin:0;shape-padding:0;text-decoration-color:#000;text-decoration-line:none;text-decoration-style:solid;text-indent:0;text-orientation:mixed;text-transform:none;white-space:normal"/></g><path d="M30 23.58s-.737 1.474-2.947 1.474c-2.211 0-2.947-1.474-2.947-1.474s-.737 1.474-2.947 1.474c-2.211 0-2.947-1.474-2.947-1.474s-.737 1.474-2.947 1.474l3.792 4.947h10.94z" fill="#00a2f5" style="font-feature-settings:normal;font-variant-alternates:normal;font-variant-caps:normal;font-variant-east-asian:normal;font-variant-ligatures:normal;font-variant-numeric:normal;font-variant-position:normal;font-variation-settings:normal;inline-size:0;isolation:auto;mix-blend-mode:normal;shape-margin:0;shape-padding:0;text-decoration-color:#000;text-decoration-line:none;text-decoration-style:solid;text-indent:0;text-orientation:mixed;text-transform:none;white-space:normal" paint-order="stroke markers fill"/><path d="M2 30l19.89.001S15.258 21.647 2 20.603z" fill="url(#a)" style="font-feature-settings:normal;font-variant-alternates:normal;font-variant-caps:normal;font-variant-east-asian:normal;font-variant-ligatures:normal;font-variant-numeric:normal;font-variant-position:normal;font-variation-settings:normal;inline-size:0;isolation:auto;mix-blend-mode:normal;shape-margin:0;shape-padding:0;text-decoration-color:#000;text-decoration-line:none;text-decoration-style:solid;text-indent:0;text-orientation:mixed;text-transform:none;white-space:normal" paint-order="stroke markers fill"/><path d="M17.64 7.041c-.49 5.782 4.554 13.29 4.554 13.29M17.64 7.041c1.078 1.082 1.83 1.896 2.486 2.802a13 13 0 0 1 1.559 2.839c.417 1.05.689 2.174.81 3.349.117 1.244.113 2.58-.302 4.297-1.68-.221-2.832-.905-3.79-1.725a7.817 7.817 0 0 1-2.098-3.037c-.476-1.209-.662-2.559-.547-3.967.15-1.446.6-3.086 1.882-4.557z" fill="#7ec925" stroke="#000" stroke-linejoin="round" stroke-width=".5" style="font-feature-settings:normal;font-variant-alternates:normal;font-variant-caps:normal;font-variant-east-asian:normal;font-variant-ligatures:normal;font-variant-numeric:normal;font-variant-position:normal;font-variation-settings:normal;inline-size:0;isolation:auto;mix-blend-mode:normal;shape-margin:0;shape-padding:0;text-decoration-color:#000;text-decoration-line:none;text-decoration-style:solid;text-indent:0;text-orientation:mixed;text-transform:none;white-space:normal"/></g></svg>