<svg width="32" height="26" xmlns="http://www.w3.org/2000/svg"><g clip-rule="evenodd" fill-rule="evenodd" paint-order="stroke markers fill"><path d="M10.45.01C7.977.115 5.8 2.205 5.366 4.59c-.844.71-2.109 1.619-2.333 3.035-.87 2.49-1.873 4.937-2.644 7.459-.873 2.925-.316 6.36 1.926 8.536 2.385 2.512 6.478 3.16 9.462 1.338 1.95-.908 2.303-2.892 4.254-2.733.774.063 1.166-.057 1.652.5 2.165 3.05 6.607 4.235 9.918 2.41 3.035-1.5 4.827-5.033 4.306-8.373-.165-2.018-.848-3.93-1.715-5.74-.874-2.657-1.619-5.14-3.214-6.42-.483-.837-.655-1.827-1.529-2.604-1.983-2.648-6.378-2.62-8.465-.139-.645.4-.869 2.545-.992 2.13-.298-2.704-3.053-4.13-5.542-3.98z" color="#000" fill="#f3f3f3" style="font-feature-settings:normal;font-variant-alternates:normal;font-variant-caps:normal;font-variant-east-asian:normal;font-variant-ligatures:normal;font-variant-numeric:normal;font-variant-position:normal;font-variation-settings:normal;inline-size:0;isolation:auto;mix-blend-mode:normal;shape-margin:0;shape-padding:0;text-decoration-color:#000;text-decoration-line:none;text-decoration-style:solid;text-indent:0;text-orientation:mixed;text-transform:none;white-space:normal"/><path d="M14.02 5.957c-2.241-1.58-4.458-1.928-6.749-1.325.501-1.213 1.255-2.009 2.141-2.382 1.255-.53 3.31-.154 4.118.98.415.577.622 1.434.49 2.728zm1.944 11c.638 0 1.155.507 1.155 1.13 0 .624-.517 1.13-1.155 1.13a1.143 1.143 0 0 1-1.155-1.13c0-.624.517-1.13 1.155-1.13zm-7.89-3.013c2.278 0 4.125 1.807 4.125 4.038 0 2.229-1.847 4.038-4.125 4.038s-4.125-1.807-4.125-4.038c0-2.231 1.845-4.038 4.125-4.038zm15.94 0c2.278 0 4.125 1.807 4.125 4.038 0 2.229-1.847 4.038-4.125 4.038s-4.125-1.807-4.125-4.038c0-2.231 1.845-4.038 4.125-4.038zm-5.942-7.99c2.241-1.58 4.458-1.928 6.747-1.325-.501-1.213-1.255-2.009-2.141-2.382-1.255-.53-3.31-.154-4.116.98-.415.577-.622 1.434-.49 2.728zm8.431 1.052c-.779-.807-2.041-1.172-3.788-1.094-1.979.099-4.071.93-4.742 2.818-.563-1.243-3.392-1.243-3.952 0-.672-1.887-2.763-2.722-4.742-2.818-1.747-.078-3.007.289-3.788 1.094-1.098 1.481-3.271 8.353-3.453 10.24-.743 7.677 10.2 9.603 11.95 1.676.995 1.777 3.023 1.777 4.018 0 1.754 7.929 12.69 6.001 11.95-1.676-.182-1.892-2.355-8.763-3.451-10.24z" color="#000" style="font-feature-settings:normal;font-variant-alternates:normal;font-variant-caps:normal;font-variant-east-asian:normal;font-variant-ligatures:normal;font-variant-numeric:normal;font-variant-position:normal;font-variation-settings:normal;inline-size:0;isolation:auto;mix-blend-mode:normal;shape-margin:0;shape-padding:0;text-decoration-color:#000;text-decoration-line:none;text-decoration-style:solid;text-indent:0;text-orientation:mixed;text-transform:none;white-space:normal"/><path d="M5.236 18.41a.475.475 0 1 1 .925-.22c.123.52.335.924.617 1.215.29.296.66.486 1.102.573.258.05.424.3.374.56a.473.473 0 0 1-.556.376c-.629-.126-1.17-.404-1.594-.842-.408-.417-.704-.967-.868-1.662zM21.18 18.41c-.106-.346.3-.712.632-.558.192.074.304.273.326.47.164.636.572 1.247 1.196 1.506.205.092.43.128.64.205.294.16.314.649.015.816-.17.109-.382.077-.563.017a2.986 2.986 0 0 1-1.973-1.66 4.045 4.045 0 0 1-.273-.795z" fill="#0f66c0"/></g></svg>