<svg width="32" height="32" viewBox="0 0 8.467 8.467" xmlns="http://www.w3.org/2000/svg"><path d="M2.144 0C1.44.014 1.043.683.813 1.262a13.364 13.364 0 0 0-.768 3.411c-.11.944.49 1.907 1.39 2.217-.351.013-.707-.027-1.054.023-.292.079-.412.398-.374.674-.003.285-.044.644.248.81.269.146.589.055.881.08 2.29-.002 4.581.005 6.871-.003.325-.028.515-.367.467-.67 0-.29.052-.662-.248-.833-.338-.095.337-.255.248-.54.051-.37-.228-.66-.369-.978-.128-.188-.204-.334.078-.415.283-.235.24-.651.043-.927-.061-.162-.29-.345-.033-.453.25-.286.107-.668-.101-.927-.544-.816-1.073-1.668-1.625-2.477-.334-.397-1.02-.288-1.24.17L3.864 2.522c-.206-.778-.408-1.583-.97-2.19-.198-.196-.465-.334-.749-.33z" color="#000" fill="#f2f2f2" style="font-feature-settings:normal;font-variant-alternates:normal;font-variant-caps:normal;font-variant-east-asian:normal;font-variant-ligatures:normal;font-variant-numeric:normal;font-variant-position:normal;font-variation-settings:normal;inline-size:0;isolation:auto;mix-blend-mode:normal;shape-margin:0;shape-padding:0;text-decoration-color:#000;text-decoration-line:none;text-decoration-style:solid;text-indent:0;text-orientation:mixed;text-transform:none;white-space:normal" paint-order="stroke markers fill"/><path class="st2" d="M3.558 4.906a1.415 1.415 0 1 1-2.83 0c0-.783.633-4.239 1.415-4.239s1.415 3.456 1.415 4.239z" fill="#2b7e08"/><path class="st1" d="M2.144.667c-.252 0-.543.65-.746 1.165.096-.117.194-.183.294-.183.686 0 1.162 2.741 1.162 3.43 0 .621-.323 1.135-.916 1.226a1.415 1.415 0 0 0 1.62-1.403c0-.78-.632-4.236-1.414-4.236z" fill="#73f73b"/><path d="M2.144 6.486a1.58 1.58 0 0 1-1.578-1.58c0-.423.168-1.51.42-2.455C1.334 1.139 1.715.53 2.144.53s.81.61 1.158 1.921c.252.945.42 2.032.42 2.455a1.58 1.58 0 0 1-1.578 1.58zm0-5.629c-.04 0-.19.006-.404.437-.15.294-.3.724-.439 1.24-.24.905-.408 1.977-.408 2.372a1.252 1.252 0 1 0 2.502 0c0-.396-.168-1.466-.409-2.371-.137-.517-.29-.947-.438-1.242-.215-.43-.365-.436-.404-.436z" color="#000" fill="#463218" style="font-feature-settings:normal;font-variant-alternates:normal;font-variant-caps:normal;font-variant-east-asian:normal;font-variant-ligatures:normal;font-variant-numeric:normal;font-variant-position:normal;font-variation-settings:normal;inline-size:0;isolation:auto;mix-blend-mode:normal;shape-margin:0;shape-padding:0;text-decoration-color:#000;text-decoration-line:none;text-decoration-style:solid;text-indent:0;text-orientation:mixed;text-transform:none;white-space:normal" paint-order="stroke markers fill"/><path d="M2.144 7.714a.163.163 0 0 1-.163-.164V4.686c0-.09.072-.163.163-.163.091 0 .163.072.163.163V7.55a.163.163 0 0 1-.163.164z" color="#000" fill="#463218" style="font-feature-settings:normal;font-variant-alternates:normal;font-variant-caps:normal;font-variant-east-asian:normal;font-variant-ligatures:normal;font-variant-numeric:normal;font-variant-position:normal;font-variation-settings:normal;inline-size:0;isolation:auto;mix-blend-mode:normal;shape-margin:0;shape-padding:0;text-decoration-color:#000;text-decoration-line:none;text-decoration-style:solid;text-indent:0;text-orientation:mixed;text-transform:none;white-space:normal" paint-order="stroke markers fill"/><path class="st2" fill="#278a00" d="M4.204 3.273h.631l-.695 1.3h.842l-.936 1.744H7.77l-.936-1.744h.841l-.694-1.3h.63L5.909.692z"/><path class="st1" fill="#6fee3a" d="M6.834 4.573h.841l-.694-1.3h.63L5.909.692v5.625H7.77z"/><g color="#000" paint-order="stroke markers fill"><path d="M7.769 6.469H4.045a.163.163 0 0 1-.14-.072.14.14 0 0 1-.006-.147l.817-1.525H4.14A.163.163 0 0 1 4 4.653a.14.14 0 0 1-.007-.148l.579-1.08h-.366c-.06 0-.116-.03-.144-.078s-.029-.107.002-.154L5.765.613c.03-.045.083-.073.142-.073s.11.028.142.074l1.703 2.58a.14.14 0 0 1 .002.155.172.172 0 0 1-.144.078h-.366l.579 1.08a.144.144 0 0 1-.008.148.166.166 0 0 1-.139.072H7.1l.817 1.525a.144.144 0 0 1-.007.147.184.184 0 0 1-.142.07zm-3.457-.304h3.19L6.685 4.64a.144.144 0 0 1 .007-.148.166.166 0 0 1 .139-.072h.576L6.83 3.34a.144.144 0 0 1 .007-.147.166.166 0 0 1 .14-.072h.337L5.907.985 4.496 3.121h.338c.057 0 .11.026.14.072.03.045.032.1.006.147l-.579 1.08h.577c.057 0 .111.026.14.072.03.046.032.1.006.148z" fill="#463218" style="font-feature-settings:normal;font-variant-alternates:normal;font-variant-caps:normal;font-variant-east-asian:normal;font-variant-ligatures:normal;font-variant-numeric:normal;font-variant-position:normal;font-variation-settings:normal;inline-size:0;isolation:auto;mix-blend-mode:normal;shape-margin:0;shape-padding:0;text-decoration-color:#000;text-decoration-line:none;text-decoration-style:solid;text-indent:0;text-orientation:mixed;text-transform:none;white-space:normal"/><path d="M5.907 7.683c-.092 0-.165-.067-.165-.152V5.636c0-.085.073-.152.165-.152.092 0 .165.067.165.152V7.53c0 .085-.073.152-.165.152z" fill="#463218" style="font-feature-settings:normal;font-variant-alternates:normal;font-variant-caps:normal;font-variant-east-asian:normal;font-variant-ligatures:normal;font-variant-numeric:normal;font-variant-position:normal;font-variation-settings:normal;inline-size:0;isolation:auto;mix-blend-mode:normal;shape-margin:0;shape-padding:0;text-decoration-color:#000;text-decoration-line:none;text-decoration-style:solid;text-indent:0;text-orientation:mixed;text-transform:none;white-space:normal"/><path d="M.536 7.419h7.408v.53H.536z" style="font-feature-settings:normal;font-variant-alternates:normal;font-variant-caps:normal;font-variant-east-asian:normal;font-variant-ligatures:normal;font-variant-numeric:normal;font-variant-position:normal;font-variation-settings:normal;inline-size:0;isolation:auto;mix-blend-mode:normal;shape-margin:0;shape-padding:0;text-decoration-color:#000;text-decoration-line:none;text-decoration-style:solid;text-indent:0;text-orientation:mixed;text-transform:none;white-space:normal"/></g></svg>