<svg width="32" height="32" xmlns="http://www.w3.org/2000/svg"><g color="#000" paint-order="stroke markers fill"><path d="M22.89.021c-1.768-.007-3.105 1.524-3.448 3.156l-.736 1.9c-.48-2.03-2.178-3.85-4.36-3.869-2.35-.127-4.675 1.695-4.854 4.091-.311 1.016 1.918 3.494-.264 3.001-.972-1.203-1.291-3.147-3.07-3.508C4.066 4.157 1.613 6.08 2.052 8.31c.492 1.872 1.744 3.42 2.526 5.174.615 1.333 1.97 2.467 3.498 2.25 1.078-.505 2.647-.958 2.793.753.665 1.546-.674 2.714-1.456 3.86-1.41 2.178-2.147 4.689-3.294 6.997-.847 1.662-.004 3.842 1.75 4.468 1.706.782 3.72-.326 4.333-2.024.678-1.635 1.397-3.254 2.097-4.88 1.044-1.255 2.01.132 1.602 1.31.2 1.769-.65 4.102.835 5.435 1.287.66 3.56.732 4.2-.844.449-1.605.07-3.297.195-4.941-.146-1.344.623 1.09 1.445 1.063 1.659.937 4.148.24 4.674-1.707.482-1.805-.33-3.602-.46-5.401-.245-1.745-.483-3.495-.903-5.207-.066-1.687 1.818-2.523 2.264-4.072 1.47-2.828 2.038-6.147 1.68-9.296-.543-1.3-2.108-1.3-3.296-1.215l-3.646-.01z" fill="#f2f2f2" style="font-feature-settings:normal;font-variant-alternates:normal;font-variant-caps:normal;font-variant-east-asian:normal;font-variant-ligatures:normal;font-variant-numeric:normal;font-variant-position:normal;font-variation-settings:normal;inline-size:0;isolation:auto;mix-blend-mode:normal;shape-margin:0;shape-padding:0;text-decoration-color:#000;text-decoration-line:none;text-decoration-style:solid;text-indent:0;text-orientation:mixed;text-transform:none;white-space:normal"/><path d="M11.6 12.59c-1.257.376-2.562.818-3.819 1.092-.455 0-.91-.252-1.122-.644L4.143 8.362c-.333-.588-.06-1.288.546-1.568.636-.28 1.394-.056 1.698.532l2.03 3.752c1.003-.34 1.714-.63 2.499-.927zM17.62 7.608a252.68 252.68 0 0 0 2.653-1.014l1.485-3.836c.242-.588.94-.896 1.607-.7.667.224 1 .896.758 1.512l-1.637 4.2c-.091.224-.273.448-.516.588l-3.547 2.1z" fill="#684d07" style="font-feature-settings:normal;font-variant-alternates:normal;font-variant-caps:normal;font-variant-east-asian:normal;font-variant-ligatures:normal;font-variant-numeric:normal;font-variant-position:normal;font-variation-settings:normal;inline-size:0;isolation:auto;mix-blend-mode:normal;shape-margin:0;shape-padding:0;text-decoration-color:#000;text-decoration-line:none;text-decoration-style:solid;text-indent:0;text-orientation:mixed;text-transform:none;white-space:normal"/><path d="M10.92 10.15l.685 2.439 1.485 4.34c3.668 0 5.94-1.512 5.94-1.512l-.606-4.955-.803-2.85M19.15 20.01a23.163 23.163 0 0 0 2.88-1.652c.332 2.058.635 4.122.984 6.175.28.922 1.715 1.075 2.15.194.246-.388.34-.824.205-1.265-.41-2.589-.794-5.183-1.22-7.769-.264-.9-1.48-1.106-2.144-.52-.988.595-1.919 1.302-3.033 1.655-1.66.663-3.424 1.04-5.2 1.213-.735.164-.97.948-1.385 1.481-.666 1.038-1.386 2.046-2.017 3.105l-2.498 5.781c-.189.903.634 1.783 1.542 1.545.847-.223.978-1.156 1.321-1.828l2.048-4.729c1.715-.762 3.42-1.583 4.95-2.674l1.416-.714z" fill="#1c6446" style="font-feature-settings:normal;font-variant-alternates:normal;font-variant-caps:normal;font-variant-east-asian:normal;font-variant-ligatures:normal;font-variant-numeric:normal;font-variant-position:normal;font-variation-settings:normal;inline-size:0;isolation:auto;mix-blend-mode:normal;shape-margin:0;shape-padding:0;text-decoration-color:#000;text-decoration-line:none;text-decoration-style:solid;text-indent:0;text-orientation:mixed;text-transform:none;white-space:normal"/><path d="M17.91 20.62v9.379h1.243v-9.995M20.42 12.5v1.176c.303 0 7.578-.14 7.578-11.67h-1.273c0 10.39-6.063 10.5-6.305 10.5z" fill="#da0f0f" style="font-feature-settings:normal;font-variant-alternates:normal;font-variant-caps:normal;font-variant-east-asian:normal;font-variant-ligatures:normal;font-variant-numeric:normal;font-variant-position:normal;font-variation-settings:normal;inline-size:0;isolation:auto;mix-blend-mode:normal;shape-margin:0;shape-padding:0;text-decoration-color:#000;text-decoration-line:none;text-decoration-style:solid;text-indent:0;text-orientation:mixed;text-transform:none;white-space:normal"/><path d="M11.57 5.503c0-1.288 1.122-2.324 2.516-2.324s2.546 1.036 2.546 2.324c0 1.288-1.152 2.324-2.546 2.324S11.57 6.791 11.57 5.503z" fill="#684d07" style="font-feature-settings:normal;font-variant-alternates:normal;font-variant-caps:normal;font-variant-east-asian:normal;font-variant-ligatures:normal;font-variant-numeric:normal;font-variant-position:normal;font-variation-settings:normal;inline-size:0;isolation:auto;mix-blend-mode:normal;shape-margin:0;shape-padding:0;text-decoration-color:#000;text-decoration-line:none;text-decoration-style:solid;text-indent:0;text-orientation:mixed;text-transform:none;white-space:normal"/></g></svg>