<svg width="32" height="32" xmlns="http://www.w3.org/2000/svg"><g paint-order="stroke markers fill"><path d="M13.17-.008c-2.033-.169-4.283 1.693-3.795 3.844.707 1.75-2.039 1.953-3 2.797-1.751.564-3.159 2.476-2.137 4.267.999 1.396.868 3.446 2.574 4.246 1.125.996.282 2.841.32 4.19-1.266 1.062-2.521 2.285-4 3.172-1.537.605-.575 2.896-2.248 3.351-1.768 1.964-.658 5.858 2.132 6.094 7.708.054 15.42.036 23.13.01 1.715.001 3.096-1.502 3.184-3.174.266-2.137-.014-4.9-2.211-5.932l1.146-5.525c1.136-1.142 1.733-2.695 2.85-3.863 1-.942 1.317-2.79-.055-3.566-1.334-.592-2.894-.435-4.327-.67-1.53-.255-2.32 1.304-3.269 2.186-.755.304-3.877.645-2.329-.444 1.434-1.188 1.327-3.477-.265-4.463-1.425-1.257-3.423.157-4.233 1.042-1.027-1.158.64-2.576.154-4.046.007-2.282-1.794-3.412-3.621-3.516z" color="#000" fill="#f3f3f3" style="font-feature-settings:normal;font-variant-alternates:normal;font-variant-caps:normal;font-variant-east-asian:normal;font-variant-ligatures:normal;font-variant-numeric:normal;font-variant-position:normal;font-variation-settings:normal;inline-size:0;isolation:auto;mix-blend-mode:normal;shape-margin:0;shape-padding:0;text-decoration-color:#000;text-decoration-line:none;text-decoration-style:solid;text-indent:0;text-orientation:mixed;text-transform:none;white-space:normal"/><path d="M26.4 11.2l-2.291 2.454-5.304.365.082.6 2.334.714h3.663l-2.44 11.77h1.744l2.442-11.77h.561l2.81-3.74z" color="#000" style="font-feature-settings:normal;font-variant-alternates:normal;font-variant-caps:normal;font-variant-east-asian:normal;font-variant-ligatures:normal;font-variant-numeric:normal;font-variant-position:normal;font-variation-settings:normal;inline-size:0;isolation:auto;mix-blend-mode:normal;shape-margin:0;shape-padding:0;text-decoration-color:#000;text-decoration-line:none;text-decoration-style:solid;text-indent:0;text-orientation:mixed;text-transform:none;white-space:normal"/><path d="M18.51 24.88a9.819 9.819 0 0 0 2.243-.686c.28-.126.582-.308.624-.6a.157.157 0 0 0-.055-.165.206.206 0 0 0-.15-.005l-1.27.276c-.368.074-.732.168-1.09.282-.247.083-.789.223-.92.462-.218.402.35.485.618.436z" color="#000" fill="#fff" style="font-feature-settings:normal;font-variant-alternates:normal;font-variant-caps:normal;font-variant-east-asian:normal;font-variant-ligatures:normal;font-variant-numeric:normal;font-variant-position:normal;font-variation-settings:normal;inline-size:0;isolation:auto;mix-blend-mode:normal;shape-margin:0;shape-padding:0;text-decoration-color:#000;text-decoration-line:none;text-decoration-style:solid;text-indent:0;text-orientation:mixed;text-transform:none;white-space:normal"/><path d="M14.77 10.83c-.153.625-.605 1.148-.693 1.793-.147.679-.25 1.489-.217 2.173l-3.443-.594c-.341-.336-.224-.827-.086-1.221.254-.88.129-1.81-.145-2.67-.259-.884-.551-1.852-.22-2.755.34-.966 1.533-1.532 2.546-1.236 1.185.335 2.031 1.4 2.228 2.545.12.647.135 1.316.03 1.966z" color="#000" fill="#002cc1" style="font-feature-settings:normal;font-variant-alternates:normal;font-variant-caps:normal;font-variant-east-asian:normal;font-variant-ligatures:normal;font-variant-numeric:normal;font-variant-position:normal;font-variation-settings:normal;inline-size:0;isolation:auto;mix-blend-mode:normal;shape-margin:0;shape-padding:0;text-decoration-color:#000;text-decoration-line:none;text-decoration-style:solid;text-indent:0;text-orientation:mixed;text-transform:none;white-space:normal"/><path d="M13.47 2.639c-.984-.096-1.238 1.078-1.725 1.582.211.51.35.767.032 1.187-.496.64-.24 1.313.563 1.379.683.604 1.133-.048 1.16-.654.68.072 1.336-.216 1.236-.968.231-.753.126-1.967-.656-2.416a1.526 1.526 0 0 0-.611-.11zm-2.787 3.828c-1.004-.03-1.521.967-2.34 1.303-.82.43-1.841.665-2.438 1.382-.354.923.427 1.763.835 2.524.567.67.204 2.224 1.54 1.945 1.26-.283.412-1.587-.187-2.087.056-.61-.917-1.656.213-1.712.967-.652 2.209-.39 3.24-.83 1.152-.7.296-2.475-.863-2.526zm8.715 1.396c-1.118.009-.797 1.3-1.488 1.764-.572.628-1.107.94-1.598.078-.657-.513-1.154-1.46-1.878-1.777-.081.66.376 1.49.217 2.234-.394.996.838 1.217 1.394 1.71.633.485 1.5.705 1.972-.1.599-.627.976-1.422 1.528-2.085 1.104-.566.836-1.677-.146-1.824zm-4.178 8.541c-.632.369-1.8 1.325-.957 2.037.64.343 1.723.106 1.466 1.1.315 1.232 1.271 2.181 1.561 3.427.09.688 1.223 1.057 1.497.346-.527-1.599-.427-3.36-1.061-4.932-.515-.974-1.621-1.432-2.505-1.978zm-4.451 1.701c-1.065-.248-1.614.792-1.539 1.701-.055.857-1.135.828-1.595 1.408-.927.778-1.626 1.789-2.605 2.507-.614.897.87.977 1.3.444 1.548-.686 3.072-1.46 4.45-2.445.59-.892.718-2.004 1.025-2.996-.155-.417-.63-.579-1.035-.62z" fill="#9a5136" style="font-feature-settings:normal;font-variant-alternates:normal;font-variant-caps:normal;font-variant-east-asian:normal;font-variant-ligatures:normal;font-variant-numeric:normal;font-variant-position:normal;font-variation-settings:normal;inline-size:0;isolation:auto;mix-blend-mode:normal;shape-margin:0;shape-padding:0;text-decoration-color:#000;text-decoration-line:none;text-decoration-style:solid;text-indent:0;text-orientation:mixed;text-transform:none;white-space:normal"/><path d="M14.78 2.534c-1.173-.81-2.309-.545-3.256.135-.4.806.02 1.747.154 2.516.087.218.44.184.521-.022.165-1.323.647-2.333 1.895-2.085.572.13.694-.311.686-.545zM18.37 22.94c-.134.467-1.237.186-.515 1.096.078.819 1.011.325 1.495.23a9.77 9.77 0 0 0 1.937-.79c-.075-.606-.932-.588-1.404-.439-.765.116-.644-.295-1.513-.097zM5.63 24.293c-.493-.07-.771-.912-1.252-.24-.779.222-.106 1.007.098 1.434.342.592.744 1.15 1.21 1.65.78-.306.197-1.277.006-1.826-.168-.338.236-.757-.061-1.02z" style="font-feature-settings:normal;font-variant-alternates:normal;font-variant-caps:normal;font-variant-east-asian:normal;font-variant-ligatures:normal;font-variant-numeric:normal;font-variant-position:normal;font-variation-settings:normal;inline-size:0;isolation:auto;mix-blend-mode:normal;shape-margin:0;shape-padding:0;text-decoration-color:#000;text-decoration-line:none;text-decoration-style:solid;text-indent:0;text-orientation:mixed;text-transform:none;white-space:normal"/><path d="M3.479 26.68l22.14-2.168c1.961-.01 1.86 3.112 1.738 3.91.122.911-.784 1.702-1.718 1.564-7.437-.005-14.87.01-22.31-.007-.895-.058-1.434-.937-1.312-1.734.225-1.11.814-1.286 1.462-1.565z" color="#000" fill="#3f3d56" style="font-feature-settings:normal;font-variant-alternates:normal;font-variant-caps:normal;font-variant-east-asian:normal;font-variant-ligatures:normal;font-variant-numeric:normal;font-variant-position:normal;font-variation-settings:normal;inline-size:0;isolation:auto;mix-blend-mode:normal;shape-margin:0;shape-padding:0;text-decoration-color:#000;text-decoration-line:none;text-decoration-style:solid;text-indent:0;text-orientation:mixed;text-transform:none;white-space:normal"/><path d="M10.14 13.81l-.786 2.136-.111 2.552 2.801.859.485-.985 1.291.354 1.648-2.49-1.613-1.806z" color="#000" fill="#020096" style="font-feature-settings:normal;font-variant-alternates:normal;font-variant-caps:normal;font-variant-east-asian:normal;font-variant-ligatures:normal;font-variant-numeric:normal;font-variant-position:normal;font-variation-settings:normal;inline-size:0;isolation:auto;mix-blend-mode:normal;shape-margin:0;shape-padding:0;text-decoration-color:#000;text-decoration-line:none;text-decoration-style:solid;text-indent:0;text-orientation:mixed;text-transform:none;white-space:normal"/></g></svg>