<svg width="32" height="32" fill="none" xmlns="http://www.w3.org/2000/svg"><g color="#000"><path d="M2.109 0C.512-.055-.169 1.752.114 3.09.148 4.932.01 6.79.201 8.621c.437 1.423 2.355 1.536 3.587 1.35L4 18.999c.202 1.494 2 1 3.072 1.459a231.202 231.202 0 0 0-2.452 8.051c-.396 2.175 2.111 4.233 4.152 3.261 1.885-.777 2.011-3.012 2.617-4.7l1.576-5.16c1.1 2.895 2.026 5.866 3.238 8.712 1.128 1.823 4.23 1.8 5.198-.176.975-1.79-.284-3.648-.812-5.38l-1.621-4.47 2.318-.958c.914 1.554 1.3 3.545 2.769 4.698 1.697 1.123 4.335.078 4.624-1.995.562-1.84-1.774-3.59-1.392-5.037 2.045-.03 3.913-1.465 4.473-3.435 1.039-2.813-1.16-6.118-4.123-6.34-.912-.437-2.845 1.108-2.197-.578.097-1.72.9-3.554.219-5.224-.85-1.798-3.537-2.362-4.904-.818-1.21 1.415-.974 3.403-1.323 5.13l-.384 2.785c-2.647 1.21-5.631 2.184-8.186 3.555-1.12 1.028-.678-.904-.752-1.563-.404-1.447 1.619-.565 2.433-.851 1.703-.131 1.943-2.087 1.758-3.43-.076-1.778.193-3.594-.153-5.347-.581-1.377-2.227-1.22-3.46-1.191z" fill="#f2f2f2" style="font-feature-settings:normal;font-variant-alternates:normal;font-variant-caps:normal;font-variant-east-asian:normal;font-variant-ligatures:normal;font-variant-numeric:normal;font-variant-position:normal;font-variation-settings:normal;inline-size:0;isolation:auto;mix-blend-mode:normal;shape-margin:0;shape-padding:0;text-decoration-color:#000;text-decoration-line:none;text-decoration-style:solid;text-indent:0;text-orientation:mixed;text-transform:none;white-space:normal" paint-order="stroke markers fill"/><path d="M27.17 9.506c1.569 0 2.832 1.323 2.832 2.904s-1.263 2.904-2.832 2.904-2.832-1.323-2.832-2.904 1.263-2.904 2.832-2.904z" fill="#141b34" style="font-feature-settings:normal;font-variant-alternates:normal;font-variant-caps:normal;font-variant-east-asian:normal;font-variant-ligatures:normal;font-variant-numeric:normal;font-variant-position:normal;font-variation-settings:normal;inline-size:0;isolation:auto;mix-blend-mode:normal;shape-margin:0;shape-padding:0;text-decoration-color:#000;text-decoration-line:none;text-decoration-style:solid;text-indent:0;text-orientation:mixed;text-transform:none;white-space:normal" paint-order="stroke markers fill"/><path d="M23.06 2.012c.98.143.956 1.225.78 1.968-.35 2.732-.814 5.452-1.067 8.194-.009 1.688 1.037 3.113 1.685 4.613.74 1.562 1.53 3.103 2.238 4.679.413 1.363-1.765 1.883-2.056.51l-2.37-4.903-5.832 2.408c1.107 3.094 2.268 6.17 3.34 9.275.271 1.403-1.95 1.678-2.096.285l-3.472-9.575-1.961-2.043c-1.238 4.005-2.422 8.03-3.693 12.02-.66 1.283-2.535.055-1.822-1.113 1.28-4.154 2.516-8.324 3.826-12.47.477-1.327 1.748-2.035 2.995-2.499l7.327-3.15c.351-2.5.66-5.01 1.053-7.505.15-.46.644-.781 1.127-.7z" fill="#141b34" style="font-feature-settings:normal;font-variant-alternates:normal;font-variant-caps:normal;font-variant-east-asian:normal;font-variant-ligatures:normal;font-variant-numeric:normal;font-variant-position:normal;font-variation-settings:normal;inline-size:0;isolation:auto;mix-blend-mode:normal;shape-margin:0;shape-padding:0;text-decoration-color:#000;text-decoration-line:none;text-decoration-style:solid;text-indent:0;text-orientation:mixed;text-transform:none;white-space:normal" paint-order="stroke markers fill"/><path d="M11.81 2.5h-9v5h9z" fill="#14eb54" stroke="#000" stroke-linecap="round" stroke-linejoin="round" style="font-feature-settings:normal;font-variant-alternates:normal;font-variant-caps:normal;font-variant-east-asian:normal;font-variant-ligatures:normal;font-variant-numeric:normal;font-variant-position:normal;font-variation-settings:normal;inline-size:0;isolation:auto;mix-blend-mode:normal;shape-margin:0;shape-padding:0;text-decoration-color:#000;text-decoration-line:none;text-decoration-style:solid;text-indent:0;text-orientation:mixed;text-transform:none;white-space:normal"/></g><path d="M20.61 11.89c-.313.032-.586.217-.879.324-2.188.943-4.381 1.877-6.567 2.826-.342.181-.343.689-.044.91.599.62 1.192 1.248 1.795 1.865.252.23.578.078.84-.04 1.922-.796 3.847-1.583 5.766-2.384.41-.214.267-.714.083-1.032-.27-.642-.467-1.321-.483-2.022a.536.536 0 0 0-.511-.447z" fill="#4576b4"/><path d="M8.009 8h-2v10h2z" color="#000" fill="#000" style="font-feature-settings:normal;font-variant-alternates:normal;font-variant-caps:normal;font-variant-east-asian:normal;font-variant-ligatures:normal;font-variant-numeric:normal;font-variant-position:normal;font-variation-settings:normal;inline-size:0;isolation:auto;mix-blend-mode:normal;shape-margin:0;shape-padding:0;text-decoration-color:#000;text-decoration-line:none;text-decoration-style:solid;text-indent:0;text-orientation:mixed;text-transform:none;white-space:normal" paint-order="stroke markers fill"/><path d="M25.09 12.41c0 1.189.932 2.154 2.082 2.154s2.082-.964 2.082-2.154-.932-2.154-2.082-2.154-2.082.964-2.082 2.154z" color="#000" fill="#9c7d3c" style="font-feature-settings:normal;font-variant-alternates:normal;font-variant-caps:normal;font-variant-east-asian:normal;font-variant-ligatures:normal;font-variant-numeric:normal;font-variant-position:normal;font-variation-settings:normal;inline-size:0;isolation:auto;mix-blend-mode:normal;shape-margin:0;shape-padding:0;text-decoration-color:#000;text-decoration-line:none;text-decoration-style:solid;text-indent:0;text-orientation:mixed;text-transform:none;white-space:normal"/></svg>