<svg width="32" height="32" xmlns="http://www.w3.org/2000/svg"><g color="#000"><path d="M16.76.021c2.673-.213 4.797 2.867 3.729 5.31-.702 1.074.604 2.161.265 3.16v4.187c1.77-.314 3.384.735 5.129.225 2.89-1.111 6.169 1.556 6.078 4.548-.11 2.068-.604 4.368-2.3 5.728-.894.301-2.918-.458-1.786 1.244.416 2.006.583 4.217.073 6.196-.91 1.964-3.695 1.65-4.493-.197-.688 1.527-2.962 2.248-4.203.737-1.166-1.52-.434-3.57-.313-5.28.31-1.865-2.602-2.198-2.17-.06-.56 1.857-.121 4.302-1.669 5.696-1.682 1.271-4.182-.185-3.944-2.267-.168-1.749.152-3.486-.477-5.168-.604-1.284-1.59-2.154-2.242-3.416l-1.707-2.82c-1.668.683-3.054 2.14-4.97 1.323-2.115-1.076-2.306-4.24-.764-5.896 1.277-1.496 3.045-2.905 3.187-5.02.963-2.169 3.768-1.393 4.903.179 1.298 1.167 2.631 2.298 3.938 3.456-.218-2.453.354-5.894.021-5.825-.416-.149-1.442.293-1.297-.4l.02-4.618 2.564.025c.66-.61 1.514-1.034 2.426-1.047z" fill="#f2f2f2" style="font-feature-settings:normal;font-variant-alternates:normal;font-variant-caps:normal;font-variant-east-asian:normal;font-variant-ligatures:normal;font-variant-numeric:normal;font-variant-position:normal;font-variation-settings:normal;inline-size:0;isolation:auto;mix-blend-mode:normal;shape-margin:0;shape-padding:0;text-decoration-color:#000;text-decoration-line:none;text-decoration-style:solid;text-indent:0;text-orientation:mixed;text-transform:none;white-space:normal"/><path d="M15.02 7.948a.89.89 0 0 1 .932-.959h1.865a.897.897 0 0 1 .933.959v6.711h-3.73zM18.74 4.109c.007-.065.006-.132.009-.188 0-1.708-2.01-2.564-3.183-1.356-.153.157-.272.33-.36.51l-1.806.027-.01.97 1.701.032" style="font-feature-settings:normal;font-variant-alternates:normal;font-variant-caps:normal;font-variant-east-asian:normal;font-variant-ligatures:normal;font-variant-numeric:normal;font-variant-position:normal;font-variation-settings:normal;inline-size:0;isolation:auto;mix-blend-mode:normal;shape-margin:0;shape-padding:0;text-decoration-color:#000;text-decoration-line:none;text-decoration-style:solid;text-indent:0;text-orientation:mixed;text-transform:none;white-space:normal"/><path d="M15.09 4.105c.006 1.017.583 1.734 1.793 1.734.968 0 1.764-.759 1.856-1.729" fill="#8f7331" style="font-feature-settings:normal;font-variant-alternates:normal;font-variant-caps:normal;font-variant-east-asian:normal;font-variant-ligatures:normal;font-variant-numeric:normal;font-variant-position:normal;font-variation-settings:normal;inline-size:0;isolation:auto;mix-blend-mode:normal;shape-margin:0;shape-padding:0;text-decoration-color:#000;text-decoration-line:none;text-decoration-style:solid;text-indent:0;text-orientation:mixed;text-transform:none;white-space:normal"/><path d="M5.226 12.79c.011.468.425.908.888.908s.888-.412.888-.908-.508-.808-.888-.808-.9.34-.888.808zm9.796 1.869l-1.865 1.918v2.876c0 1.278 1.865 1.278 1.865 0v-1.918l3.73-2.876zm3.73 0h3.73c.93 0 1.666-.024 2.318.867.627-.773 1.327-.847 2.227-.867h.117c1.495-.055 2.749 1.148 2.798 2.685v.165a7.405 7.405 0 0 1-1.042 3.67c-.522.36-.55-.065-.823-.288v-2.397s.037-1.772-1.404-1.918c-.932-.092-1.393.485-1.393.96v4.793l.932 3.835v3.356c0 .265-.208.48-.466.48a.48.48 0 0 1-.466-.45v-3.385l-2.797-3.835v1.918l-.932 5.369a.479.479 0 0 1-.46.383.472.472 0 0 1-.473-.471l.27-4.706-1.202-2.493h-4.662v1.918l-.948 5.394a.482.482 0 0 1-.451.358.473.473 0 0 1-.466-.48v-5.272l-.685-1.918c-1.96-1.944-3.19-4.767-4.67-7.223a1.59 1.59 0 0 1-1.908.767l-1.8 1.185a1.085 1.085 0 0 1-.653.259c-1.666-.021-1.996-1.202-1.194-2.382l3.823-4.495-.159-.976a.948.948 0 0 1-.015-.121c0-.265.209-.48.466-.48.106.01.207.048.295.108l6.5 5.687h1.864" fill="#47391b" style="font-feature-settings:normal;font-variant-alternates:normal;font-variant-caps:normal;font-variant-east-asian:normal;font-variant-ligatures:normal;font-variant-numeric:normal;font-variant-position:normal;font-variation-settings:normal;inline-size:0;isolation:auto;mix-blend-mode:normal;shape-margin:0;shape-padding:0;text-decoration-color:#000;text-decoration-line:none;text-decoration-style:solid;text-indent:0;text-orientation:mixed;text-transform:none;white-space:normal" paint-order="stroke markers fill"/></g></svg>