<svg width="32" height="30" viewBox="0 0 8.467 7.937" xmlns="http://www.w3.org/2000/svg"><defs><radialGradient id="a" cx="364" cy="349.5" r="234.4" gradientTransform="matrix(-.00042 -.01757 .02105 -.00052 -.468 12.04)" gradientUnits="userSpaceOnUse"><stop stop-color="#414895" offset="0"/><stop stop-color="#e4f9fd" offset="1"/></radialGradient></defs><path d="M4.246 0c-.571-.018-.995.593-.885 1.13 0 .54-.007 1.082-.097 1.616-.615.723-1.54 1.028-2.382 1.396-.572.273-.87.922-.818 1.537.12.43-.183.846-.008 1.27.24.612.926.833 1.523.903 1.415.183 2.844.02 4.263-.013.737-.034 1.476-.083 2.202-.219.503-.24.523-.989.244-1.399-.348-.104-.735-.257-.451-.674.229-.995-.1-1.996-.342-2.955-.125-.404-.039-.83-.109-1.238C7.257.805 6.647.658 6.184.502 5.572.355 4.986.097 4.361.005L4.304.002z" color="#000" fill="#f2f2f2" style="font-feature-settings:normal;font-variant-alternates:normal;font-variant-caps:normal;font-variant-east-asian:normal;font-variant-ligatures:normal;font-variant-numeric:normal;font-variant-position:normal;font-variation-settings:normal;inline-size:0;isolation:auto;mix-blend-mode:normal;shape-margin:0;shape-padding:0;text-decoration-color:#000;text-decoration-line:none;text-decoration-style:solid;text-indent:0;text-orientation:mixed;text-transform:none;white-space:normal" paint-order="stroke markers fill"/><path d="M.715 6.123c.138.06.308.103.509.135-.056.156-.048.319.165.4.14.052.553.08 1.08.094.112-.032.213-.083.213-.166v-.25h.493l.017-.001v.143c0 .102.103.221.284.282 1.11-.007 2.285-.055 2.523-.103.209-.042.277-.28.291-.519h.542c0 .026.011.254.011.276 0 .345.103.172 1.04.172.059.063.055.375.004.5-.05.126-2.228.246-3.555.287-1.534.047-3.849.16-3.81-.787.006-.15.09-.315.193-.463z" color="#000" style="font-feature-settings:normal;font-variant-alternates:normal;font-variant-caps:normal;font-variant-east-asian:normal;font-variant-ligatures:normal;font-variant-numeric:normal;font-variant-position:normal;font-variation-settings:normal;inline-size:0;isolation:auto;mix-blend-mode:normal;shape-margin:0;shape-padding:0;text-decoration-color:#000;text-decoration-line:none;text-decoration-style:solid;text-indent:0;text-orientation:mixed;text-transform:none;white-space:normal" paint-order="stroke markers fill"/><path d="M4.335.567c-.458-.055-.42.492-.402.798-.019.537.009 1.09-.143 1.61-.243.453-.717.716-1.138.98-.488.293-1.017.508-1.547.708-.39.205-.5.676-.472 1.083.17.215.52.23.786.279.653.065 1.313.064 1.968.038.775-.09 1.401-.635 2.163-.765.189-.092.204.072.185.198v.384H7.14c.29-.754.193-1.595.005-2.362a5.743 5.743 0 0 1-.307-2.013c-.12-.292-.495-.328-.758-.43C5.499.904 4.922.71 4.334.567zm.294 1.06c.449.002.232.757-.147.5-.21-.138-.11-.505.147-.5zm-.15 1.02c.448.003.232.758-.147.5-.21-.137-.11-.505.147-.5zm-.656.92c.448.003.232.757-.147.5-.21-.138-.11-.505.147-.5zm-.78.587c.45.002.233.757-.146.5-.21-.139-.11-.506.147-.5zm-.819.373c.448.003.232.758-.147.5-.21-.138-.11-.505.147-.5z" fill="url(#a)" stroke="#111264" stroke-width=".265"/></svg>