<svg xmlns="http://www.w3.org/2000/svg" viewBox="0 0 32 32"><g color="#000" font-weight="400" font-family="sans-serif" paint-order="stroke markers fill"><path style="line-height:normal;font-variant-ligatures:normal;font-variant-position:normal;font-variant-caps:normal;font-variant-numeric:normal;font-variant-alternates:normal;font-variant-east-asian:normal;font-feature-settings:normal;font-variation-settings:normal;text-indent:0;text-align:start;text-decoration-line:none;text-decoration-style:solid;text-decoration-color:#000;text-transform:none;text-orientation:mixed;white-space:normal;shape-padding:0;shape-margin:0;inline-size:0;isolation:auto;mix-blend-mode:normal;solid-color:#000;solid-opacity:1" d="M4 0a2 2 0 0 0-2 2v28a2 2 0 0 0 2 2h2.182a2 2 0 0 0 2-2v-9.366H28a2 2 0 0 0 2-2V2a2 2 0 0 0-2-2z" overflow="visible" fill="#f2f2f2"/><path style="line-height:normal;font-variant-ligatures:normal;font-variant-position:normal;font-variant-caps:normal;font-variant-numeric:normal;font-variant-alternates:normal;font-variant-east-asian:normal;font-feature-settings:normal;font-variation-settings:normal;text-indent:0;text-align:start;text-decoration-line:none;text-decoration-style:solid;text-decoration-color:#000;text-transform:none;text-orientation:mixed;white-space:normal;shape-padding:0;shape-margin:0;inline-size:0;isolation:auto;mix-blend-mode:normal;solid-color:#000;solid-opacity:1" d="M4 2v28h2.046l.015-11.38L28 18.56V2H4zm2.156 1.973l3.088.03.036 2.864h3.185l.031-2.858 3.533-.032.087 2.89h3.187l.031-2.858 3.531-.032.088 2.89 2.964.03.033 3.41-2.997.086v3.073l2.964.031.033 3.004-3.194.054-.036-2.862h-3.185l-.031 2.858-3.533.032-.087-2.89h-3.187l-.031 2.858-3.531.032-.087-2.89-2.965-.031-.033-3.41 2.998-.085V7.093l-2.965-.03-.033-3.005.106-.085zm6.541 3.12v3.074h3.187V7.093zm6.838 0v3.074h3.185V7.093zm-10.255 3.3v3.073h3.185v-3.073zm6.836 0v3.073h3.187v-3.073z" overflow="visible"/></g></svg>