<svg width="32" height="32" xmlns="http://www.w3.org/2000/svg"><path d="M25.58-.021c-3.578.021-5.393 4.068-3.134 6.836.863 1.569-.95 1.73-2.014 1.292-2.092-.054-3.665 2.458-2.51 4.266.653 1.364 2.268 1.534 3.523 1.63-2.431.522-4.884.961-7.324 1.449.047-1.181-.518-2.92-1.326-3.34-.81-.42-1.865-.517-2.793-.413.558-1.7 1-2.7.593-4.545-.34-2.357-1.594-3.722-5.314-2.935-1.658.77-2.675 3.819-2.09 5.588-1.857 1.169-1.39 3.598-1.432 5.458.157 1.45.084 2.935-1.185 3.739-1.189 1.633-.316 4.359 1.79 4.65-.361 1.346-.361 1.804-1.147 2.5-1.337.53-1.282 2.133-1.229 3.323-.218 1.408.926 2.707 2.37 2.54 9.291-.052 18.59.016 27.88-.03 1.548-.133 1.972-1.89 1.773-3.174.243-1.37-.62-2.922-2.155-2.822-1.397.023-2.793.007-4.19.01l-.183-1.703c1.504-1.278.997-3.421 1.066-5.156 1.436-.344 2.945-.456 4.318-1.004 1.992-1.007 2.077-4.162.13-5.252-1.37-1.16.139-3.78-.764-5.42-1.471-1.24-.44-4.21-1.41-5.607-.662-1.126-1.928-1.891-3.243-1.88z" color="#000" fill="#f2f2f2" style="font-feature-settings:normal;font-variant-alternates:normal;font-variant-caps:normal;font-variant-east-asian:normal;font-variant-ligatures:normal;font-variant-numeric:normal;font-variant-position:normal;font-variation-settings:normal;inline-size:0;isolation:auto;mix-blend-mode:normal;shape-margin:0;shape-padding:0;text-decoration-color:#000;text-decoration-line:none;text-decoration-style:solid;text-indent:0;text-orientation:mixed;text-transform:none;white-space:normal" paint-order="stroke markers fill"/><path d="M27.751 3.791a2.1 2.1 0 1 1-4.2 0 2.1 2.1 0 0 1 4.2 0zM8.988 7.779a2.1 2.1 0 1 1-4.2 0 2.1 2.1 0 0 1 4.2 0z" color="#000" style="font-feature-settings:normal;font-variant-alternates:normal;font-variant-caps:normal;font-variant-east-asian:normal;font-variant-ligatures:normal;font-variant-numeric:normal;font-variant-position:normal;font-variation-settings:normal;inline-size:0;isolation:auto;mix-blend-mode:normal;shape-margin:0;shape-padding:0;text-decoration-color:#000;text-decoration-line:none;text-decoration-style:solid;text-indent:0;text-orientation:mixed;text-transform:none;white-space:normal" stroke="none" fill="#8d6c1e" stroke-linejoin="round" stroke-width="71.18" paint-order="stroke markers fill"/><g paint-order="stroke markers fill" color="#000"><g stroke-linejoin="round" stroke-width="71.18"><path d="M27.648 15.48l-1.89 1.76 3.9-.78c.536-.106.886-.638.781-1.186s-.625-.906-1.161-.799l-.253.024" fill="#452605" style="font-feature-settings:normal;font-variant-alternates:normal;font-variant-caps:normal;font-variant-east-asian:normal;font-variant-ligatures:normal;font-variant-numeric:normal;font-variant-position:normal;font-variation-settings:normal;inline-size:0;isolation:auto;mix-blend-mode:normal;shape-margin:0;shape-padding:0;text-decoration-color:#000;text-decoration-line:none;text-decoration-style:solid;text-indent:0;text-orientation:mixed;text-transform:none;white-space:normal"/><path d="M25.113 14.218l-2.23 2.296c-.184.19-.288.446-.288.713v4.75c0 .558.443 1.01.99 1.01s.99-.452.99-1.01v-4.334l1.942-2 1.378-.98c.386-.272.597-.71.598-1.157l.013-4.788c.002-.788-.628-1.42-1.391-1.415l-1.27.01c-.767.005-1.383.65-1.371 1.433.078.623-.155 1.178-.327 1.769l-3.711-.367a.83.83 0 0 0-.9.758.838.838 0 0 0 .74.92l4.128.408a.816.816 0 0 0 .695-.278c.073.756.047 1.507.014 2.263z" fill="#bc01c4" style="font-feature-settings:normal;font-variant-alternates:normal;font-variant-caps:normal;font-variant-east-asian:normal;font-variant-ligatures:normal;font-variant-numeric:normal;font-variant-position:normal;font-variation-settings:normal;inline-size:0;isolation:auto;mix-blend-mode:normal;shape-margin:0;shape-padding:0;text-decoration-color:#000;text-decoration-line:none;text-decoration-style:solid;text-indent:0;text-orientation:mixed;text-transform:none;white-space:normal"/><path d="M22.69 15.843l-10.74 2.09c.089.785-.335 1.24-.558 1.528l-.594.762 4.6-.918-3.048 7.067H9.51c-.456 0-.825.896-.825 1.362S9.055 29 9.51 29h13.425c.455 0 .825-.799.825-1.265s-.37-1.362-.825-1.362h-2.84l-3.049-7.397 4.974-.993v-.703c0-.19-.026-.49.097-.776" fill="#452605" style="font-feature-settings:normal;font-variant-alternates:normal;font-variant-caps:normal;font-variant-east-asian:normal;font-variant-ligatures:normal;font-variant-numeric:normal;font-variant-position:normal;font-variation-settings:normal;inline-size:0;isolation:auto;mix-blend-mode:normal;shape-margin:0;shape-padding:0;text-decoration-color:#000;text-decoration-line:none;text-decoration-style:solid;text-indent:0;text-orientation:mixed;text-transform:none;white-space:normal"/></g><g stroke-linejoin="round" stroke-width="71.18"><path d="M7.92 19.018L4.63 23.96c-.34.438-.291 1.084.133 1.436a.975.975 0 0 0 1.399-.155l4.589-6.612c.508-.653.066-1.642-.774-1.642h-.003l-2.928.01.092-2.187c.171.196.422.3.68.28l3.572-.287a.837.837 0 0 0 .758-.906.83.83 0 0 0-.887-.775l-3.165.254c-.306-.181-.365-.52-.533-.775.012-.784-.404-1.229-1.172-1.234-1.4-.01-1.369-.02-1.562.021-.49.065-1.1.608-1.099 1.384l.013 4.788c.002.75.593 1.415 1.496 1.401" fill="#2211c7" style="font-feature-settings:normal;font-variant-alternates:normal;font-variant-caps:normal;font-variant-east-asian:normal;font-variant-ligatures:normal;font-variant-numeric:normal;font-variant-position:normal;font-variation-settings:normal;inline-size:0;isolation:auto;mix-blend-mode:normal;shape-margin:0;shape-padding:0;text-decoration-color:#000;text-decoration-line:none;text-decoration-style:solid;text-indent:0;text-orientation:mixed;text-transform:none;white-space:normal"/><path d="M4.06 19.564l-1.235.192c-.52.103-.888.598-.816 1.134a.992.992 0 0 0 1.17.856l2.119-.423.165-1.501-.819.027" fill="#452605" style="font-feature-settings:normal;font-variant-alternates:normal;font-variant-caps:normal;font-variant-east-asian:normal;font-variant-ligatures:normal;font-variant-numeric:normal;font-variant-position:normal;font-variation-settings:normal;inline-size:0;isolation:auto;mix-blend-mode:normal;shape-margin:0;shape-padding:0;text-decoration-color:#000;text-decoration-line:none;text-decoration-style:solid;text-indent:0;text-orientation:mixed;text-transform:none;white-space:normal"/></g><path d="M2 28h28v2H2z" style="font-feature-settings:normal;font-variant-alternates:normal;font-variant-caps:normal;font-variant-east-asian:normal;font-variant-ligatures:normal;font-variant-numeric:normal;font-variant-position:normal;font-variation-settings:normal;inline-size:0;isolation:auto;mix-blend-mode:normal;shape-margin:0;shape-padding:0;text-decoration-color:#000;text-decoration-line:none;text-decoration-style:solid;text-indent:0;text-orientation:mixed;text-transform:none;white-space:normal"/></g></svg>