<?xml version="1.0" encoding="UTF-8" standalone="no"?>
<svg
   width="32"
   height="32"
   version="1.1"
   id="svg5"
   xmlns="http://www.w3.org/2000/svg"
   xmlns:svg="http://www.w3.org/2000/svg">
  <defs
     id="defs5" />
  <g
     color="#000"
     paint-order="stroke markers fill"
     id="g4">
    <path
       d="M16 0c-2.962 0-5.506 2.35-5.506 5.326a5.13 5.13 0 0 0 .908 2.91c-3.136.057-5.416 3.045-5.416 6.744v5.654H2.03a2 2 0 0 0-2 2v7.365a2 2 0 0 0 2 2h27.92a2 2 0 0 0 2-2v-7.365a2 2 0 0 0-2-2h-3.936V14.98c0-3.699-2.279-6.687-5.416-6.744a5.13 5.13 0 0 0 .908-2.91C21.505 2.35 18.961 0 16 0z"
       fill="#f2f2f2"
       style="font-feature-settings:normal;font-variant-alternates:normal;font-variant-caps:normal;font-variant-east-asian:normal;font-variant-ligatures:normal;font-variant-numeric:normal;font-variant-position:normal;font-variation-settings:normal;inline-size:0;isolation:auto;mix-blend-mode:normal;shape-margin:0;shape-padding:0;text-decoration-color:#000;text-decoration-line:none;text-decoration-style:solid;text-indent:0;text-orientation:mixed;text-transform:none;white-space:normal"
       id="path1" />
    <path
       d="M2 22.63h28v7.366H2z"
       fill="#00d4f9"
       style="font-feature-settings:normal;font-variant-alternates:normal;font-variant-caps:normal;font-variant-east-asian:normal;font-variant-ligatures:normal;font-variant-numeric:normal;font-variant-position:normal;font-variation-settings:normal;inline-size:0;isolation:auto;mix-blend-mode:normal;shape-margin:0;shape-padding:0;text-decoration-color:#000;text-decoration-line:none;text-decoration-style:solid;text-indent:0;text-orientation:mixed;text-transform:none;white-space:normal;fill:#f9b900;fill-opacity:1"
       id="path2" />
    <path
       d="M16 2c-1.936 0-3.506 1.489-3.506 3.326S14.064 8.652 16 8.652c1.936 0 3.506-1.489 3.506-3.326S17.936 2 16 2z"
       fill="#390000"
       style="font-feature-settings:normal;font-variant-alternates:normal;font-variant-caps:normal;font-variant-east-asian:normal;font-variant-ligatures:normal;font-variant-numeric:normal;font-variant-position:normal;font-variation-settings:normal;inline-size:0;isolation:auto;mix-blend-mode:normal;shape-margin:0;shape-padding:0;text-decoration-color:#000;text-decoration-line:none;text-decoration-style:solid;text-indent:0;text-orientation:mixed;text-transform:none;white-space:normal"
       id="path3" />
    <path
       d="M11.49 10.23c-1.616 0-3.506 1.9-3.506 4.75v5.651h2.382v-5.239c0-1.145 1.205-1.33 1.676-1.33v6.57h7.912v-6.57c.476 0 1.6.192 1.676 1.33v5.239h2.382V14.98c0-2.85-1.89-4.751-3.506-4.751z"
       fill="#482d19"
       style="font-feature-settings:normal;font-variant-alternates:normal;font-variant-caps:normal;font-variant-east-asian:normal;font-variant-ligatures:normal;font-variant-numeric:normal;font-variant-position:normal;font-variation-settings:normal;inline-size:0;isolation:auto;mix-blend-mode:normal;shape-margin:0;shape-padding:0;text-decoration-color:#000;text-decoration-line:none;text-decoration-style:solid;text-indent:0;text-orientation:mixed;text-transform:none;white-space:normal"
       id="path4" />
  </g>
  <path
     d="M5.502 24.12c-.837 0-2.075.773-3.217 1.388l-.032 2.32c1.198-.623 2.481-1.445 3.248-1.445 1.313 0 3.82 2.133 5.21 2.133 1.24 0 3.887-2.133 5.21-2.133 1.313 0 3.964 2.133 5.21 2.133 1.313 0 3.973-2.133 5.21-2.133.774 0 2.105.835 3.315 1.46l.09-2.313c-1.177-.64-2.547-1.462-3.405-1.41-1.246 0-3.817 2.132-5.21 2.132-1.16 0-3.896-2.132-5.21-2.132-1.313 0-4.048 2.132-5.21 2.132-1.24 0-3.82-2.132-5.21-2.132z"
     fill="#00f"
     stroke="#00d4f9"
     stroke-width=".496"
     id="path5"
     style="fill:#ff1c00;fill-opacity:1;stroke:none;stroke-opacity:1" />
</svg>
