<svg width="32" height="32" xmlns="http://www.w3.org/2000/svg"><g color="#000" paint-order="stroke markers fill"><path d="M16 0c-.794 0-1.616.256-2.291.856-.675.6-1.109 1.578-1.109 2.545v.04A12.978 12.978 0 0 0 3.442 12.6h-.041c-.967 0-1.945.434-2.545 1.109-.6.674-.856 1.497-.856 2.29s.256 1.617.856 2.292c.6.674 1.578 1.109 2.545 1.109h.041a12.978 12.978 0 0 0 9.158 9.158v.04c0 .967.434 1.946 1.109 2.546.675.6 1.497.855 2.291.855s1.616-.256 2.291-.855c.675-.6 1.109-1.578 1.109-2.545v-.041a12.978 12.978 0 0 0 9.158-9.158h.041c.967 0 1.945-.435 2.545-1.11.6-.674.856-1.496.856-2.29s-.256-1.616-.856-2.291c-.6-.675-1.578-1.11-2.545-1.11h-.041A12.978 12.978 0 0 0 19.4 3.443V3.4c0-.967-.434-1.945-1.109-2.545A3.413 3.413 0 0 0 16 0z" fill="#f2f2f2" style="font-feature-settings:normal;font-variant-alternates:normal;font-variant-caps:normal;font-variant-east-asian:normal;font-variant-ligatures:normal;font-variant-numeric:normal;font-variant-position:normal;font-variation-settings:normal;inline-size:0;isolation:auto;mix-blend-mode:normal;shape-margin:0;shape-padding:0;text-decoration-color:#000;text-decoration-line:none;text-decoration-style:solid;text-indent:0;text-orientation:mixed;text-transform:none;white-space:normal"/><path d="M16 13.2c-2.495 0-3.744 3.016-1.98 4.78 1.764 1.764 4.78.515 4.78-1.98a2.8 2.8 0 0 0-2.8-2.8z" fill="#ce0606" style="font-feature-settings:normal;font-variant-alternates:normal;font-variant-caps:normal;font-variant-east-asian:normal;font-variant-ligatures:normal;font-variant-numeric:normal;font-variant-position:normal;font-variation-settings:normal;inline-size:0;isolation:auto;mix-blend-mode:normal;shape-margin:0;shape-padding:0;text-decoration-color:#000;text-decoration-line:none;text-decoration-style:solid;text-indent:0;text-orientation:mixed;text-transform:none;white-space:normal"/><path d="M16 2.217c-1.146-.047-1.261 1.185-1.184 2.041.058.468.053 1.09-.652.924-4.676.72-8.548 4.783-9.06 9.483-.245.33-.784.067-1.141.151-1.06-.252-2.23.732-1.58 1.825.599.917 1.795.357 2.659.597.866 4.92 5.095 9.074 9.659 9.672.267.337.04.873.115 1.283-.34 1.241 1.329 2.206 2.15 1.133.435-.714.07-1.609.272-2.368 4.919-.866 9.074-5.39 9.672-9.659.337-.267.872-.04 1.283-.115 1.24.34 2.206-1.329 1.133-2.151-.714-.434-1.61-.07-2.368-.27-.866-4.92-5.391-9.075-9.66-9.673-.267-.337-.04-.872-.115-1.283.094-.778-.266-1.624-1.184-1.59zM14.602 7.51c.427.13.124.746.215 1.074-.345 1.244 1.324 2.219 2.15 1.142.426-.64.076-1.458.27-2.143 3.94.19 6.832 4.272 7.24 7.095-.26.308-.78.058-1.138.138-1.351-.371-2.154 1.673-.865 2.266.62.236 1.326-.015 1.944.155-.19 3.644-4.272 6.83-7.095 7.24-.307-.261-.057-.78-.138-1.14.372-1.35-1.673-2.153-2.266-.863-.235.62.016 1.326-.154 1.944-3.644-.19-6.831-4.272-7.24-7.095.26-.308.78-.058 1.139-.139 1.35.372 2.154-1.673.864-2.266-.62-.235-1.326.016-1.944-.154.186-3.987 4.207-6.762 7.019-7.253z" fill="#100372" style="font-feature-settings:normal;font-variant-alternates:normal;font-variant-caps:normal;font-variant-east-asian:normal;font-variant-ligatures:normal;font-variant-numeric:normal;font-variant-position:normal;font-variation-settings:normal;inline-size:0;isolation:auto;mix-blend-mode:normal;shape-margin:0;shape-padding:0;text-decoration-color:#000;text-decoration-line:none;text-decoration-style:solid;text-indent:0;text-orientation:mixed;text-transform:none;white-space:normal"/></g></svg>