<svg width="32" height="32" xmlns="http://www.w3.org/2000/svg"><g color="#000" paint-order="stroke markers fill"><path d="M5.771 0C2.583-.092-.347 2.869.035 6.093c.25 3.347 3.833 5.936 7.088 5.036-1.401.601-3.024 1.229-3.535 2.825-.914 2.172.764 4.768 3.059 5.026 1.573.307 2.95-.664 4.331-1.238-1.27 1.29-1.286 3.341-.352 4.82l.84 1.75-3.74 1.715c-1.128-1.149-3.216-1.151-4.14.26-1.344 1.685-.204 4.077 1.496 5.003 1.666 1.084 3.78.802 5.435-.124l19.77-9.067c1.806-.741 2.331-3.548.725-4.82-1.127-1.068-2.783-.803-4.012-.09l-8.447 3.873c-.218-.506.586-.893.806-1.348 1.056-1.338 2.217-2.6 3.194-3.995.589-.984 2.056-3.345 3.614-2.959 1.64-.226 2.342-1.954 2.454-3.316 1.374-1.427.737-4.079-1.187-4.652-1.761-.096-3.583-1.927-5.331-.409-1.322.623-2.771 4.611-4.59 3.517-1.314-.89-2.441-2.156-3.957-2.69-.95-.434-2.399.559-2.21-1C10.728 1.732 8.298-.028 5.77.002z" fill="#f3f3f3" style="font-feature-settings:normal;font-variant-alternates:normal;font-variant-caps:normal;font-variant-east-asian:normal;font-variant-ligatures:normal;font-variant-numeric:normal;font-variant-position:normal;font-variation-settings:normal;inline-size:0;isolation:auto;mix-blend-mode:normal;shape-margin:0;shape-padding:0;text-decoration-color:#000;text-decoration-line:none;text-decoration-style:solid;text-indent:0;text-orientation:mixed;text-transform:none;white-space:normal"/><path d="M5.777 9.293c1.774.038 3.492-1.342 3.731-3.12.228-1.464-.555-3.016-1.872-3.699-1.425-.788-3.35-.576-4.517.58-1.012.968-1.423 2.55-.883 3.861.548 1.42 2.017 2.414 3.542 2.378z" fill="#d19961" style="font-feature-settings:normal;font-variant-alternates:normal;font-variant-caps:normal;font-variant-east-asian:normal;font-variant-ligatures:normal;font-variant-numeric:normal;font-variant-position:normal;font-variation-settings:normal;inline-size:0;isolation:auto;mix-blend-mode:normal;shape-margin:0;shape-padding:0;text-decoration-color:#000;text-decoration-line:none;text-decoration-style:solid;text-indent:0;text-orientation:mixed;text-transform:none;white-space:normal"/><path d="M19.33 11.81c.063.047.474.333.94.69.402.308.654.747.71 1.235.055.476-.085.943-.393 1.313l-4.518 5.516 1.537 3.185-3.418 1.552-2.03-4.223a1.755 1.755 0 0 1 .23-1.892l2.83-3.447-.12-.094-1.604-1.239" fill="#b72133" style="font-feature-settings:normal;font-variant-alternates:normal;font-variant-caps:normal;font-variant-east-asian:normal;font-variant-ligatures:normal;font-variant-numeric:normal;font-variant-position:normal;font-variation-settings:normal;inline-size:0;isolation:auto;mix-blend-mode:normal;shape-margin:0;shape-padding:0;text-decoration-color:#000;text-decoration-line:none;text-decoration-style:solid;text-indent:0;text-orientation:mixed;text-transform:none;white-space:normal"/><path d="M13.49 14.41c-.06.047-5.436 2.489-5.436 2.489-.95.428-2.071.018-2.505-.881-.439-.91-.029-1.997.912-2.421l2.7-1.217 1.559-4.14c.35-.932 1.433-1.443 2.426-1.094.302.113 2.92 2.15 4.53 3.4l.966.75.684.516" fill="#611d73" style="font-feature-settings:normal;font-variant-alternates:normal;font-variant-caps:normal;font-variant-east-asian:normal;font-variant-ligatures:normal;font-variant-numeric:normal;font-variant-position:normal;font-variation-settings:normal;inline-size:0;isolation:auto;mix-blend-mode:normal;shape-margin:0;shape-padding:0;text-decoration-color:#000;text-decoration-line:none;text-decoration-style:solid;text-indent:0;text-orientation:mixed;text-transform:none;white-space:normal"/></g><path d="M18.16 11.38l.332-.12 7.814-3.56" fill="none" stroke="#000" stroke-linecap="round" stroke-width="1.8"/><path d="M12.41 14.36l.64-1.7 4.636-2.089 1.732 1.228c-6.265 2.818-7.85 3.517-7.912 3.528.395-.205.728-.547.903-.967z" color="#000" fill="#fff" style="font-feature-settings:normal;font-variant-alternates:normal;font-variant-caps:normal;font-variant-east-asian:normal;font-variant-ligatures:normal;font-variant-numeric:normal;font-variant-position:normal;font-variation-settings:normal;inline-size:0;isolation:auto;mix-blend-mode:normal;shape-margin:0;shape-padding:0;text-decoration-color:#000;text-decoration-line:none;text-decoration-style:solid;text-indent:0;text-orientation:mixed;text-transform:none;white-space:normal" paint-order="stroke markers fill"/><path d="M7 9c1.328-.408 2.433-1.562 2.622-2.962.228-1.464-.555-3.016-1.872-3.699-1.425-.788-3.35-.575-4.517.58-.409.391-.72.882-.91 1.415l3.678.667z" color="#000" style="font-feature-settings:normal;font-variant-alternates:normal;font-variant-caps:normal;font-variant-east-asian:normal;font-variant-ligatures:normal;font-variant-numeric:normal;font-variant-position:normal;font-variation-settings:normal;inline-size:0;isolation:auto;mix-blend-mode:normal;shape-margin:0;shape-padding:0;text-decoration-color:#000;text-decoration-line:none;text-decoration-style:solid;text-indent:0;text-orientation:mixed;text-transform:none;white-space:normal" paint-order="stroke markers fill"/><path d="M28.98 19.54L8.86 28.847c-.828.383-2.253.09-2.856-.85" fill="none" stroke="#000" stroke-linecap="round" stroke-linejoin="round" stroke-width="2"/><path d="M24.03 6.777l1.539 3.168" fill="none" stroke="#000" stroke-linecap="round" stroke-width="1.8"/></svg>