<svg width="32" height="32" overflow="inherit" version="1.2" xmlns="http://www.w3.org/2000/svg"><g color="#000" paint-order="stroke markers fill"><path d="M25.7 0c-1.306.122-2.517.73-3.781 1.063L12.954 3.92c-.538.011-2.282 1.251-2.454 2.453-.656 1.915.633 3.628 1.318 5.321l.773 1.694C9.23 15.429 5.82 17.4 2.491 19.485c-.762.35-.32 1.609-1.146 1.628-1.103.342-1.472 1.571-1.338 2.611.021 2.21-.042 4.424.032 6.631.173 1.172 1.41 1.814 2.511 1.645 9.231-.01 18.46.019 27.69-.014 1.226-.107 1.947-1.386 1.763-2.53-.021-2.27.042-4.544-.032-6.811-.173-1.172-1.41-1.814-2.51-1.645h-4.51c-.062-.952-.662-1.757-.985-2.635 2.794 1.62 6.695.054 7.713-2.976 1.217-3.01-.885-6.7-4.061-7.267-.884-.292-2.945.215-1.17-.366 2.164-.474 3.795-2.844 3.037-5.013C28.989 1.133 27.39-.044 25.7 0z" fill="#f2f2f2" style="font-feature-settings:normal;font-variant-alternates:normal;font-variant-caps:normal;font-variant-east-asian:normal;font-variant-ligatures:normal;font-variant-numeric:normal;font-variant-position:normal;font-variation-settings:normal;inline-size:0;isolation:auto;mix-blend-mode:normal;shape-margin:0;shape-padding:0;text-decoration-color:#000;text-decoration-line:none;text-decoration-style:solid;text-indent:0;text-orientation:mixed;text-transform:none;white-space:normal"/><path d="M3.8 20.99l19.15.004-5.386-12.03 8.463-3.181c.949-.181 1.637-.927 1.637-1.882a1.899 1.899 0 0 0-1.903-1.897l-.216.006-11.98 3.82c-.7.16-1.629 1.187-1.1 2.447l.085.203 2.605 5.708z" fill="#684d05" style="font-feature-settings:normal;font-variant-alternates:normal;font-variant-caps:normal;font-variant-east-asian:normal;font-variant-ligatures:normal;font-variant-numeric:normal;font-variant-position:normal;font-variation-settings:normal;inline-size:0;isolation:auto;mix-blend-mode:normal;shape-margin:0;shape-padding:0;text-decoration-color:#000;text-decoration-line:none;text-decoration-style:solid;text-indent:0;text-orientation:mixed;text-transform:none;white-space:normal"/><path d="M26.51 17.01a3.504 3.504 0 0 0 3.499-3.503 3.499 3.499 0 0 0-3.499-3.497 3.498 3.498 0 0 0-3.501 3.497c0 1.93 1.427 3.503 3.501 3.503z" style="font-feature-settings:normal;font-variant-alternates:normal;font-variant-caps:normal;font-variant-east-asian:normal;font-variant-ligatures:normal;font-variant-numeric:normal;font-variant-position:normal;font-variation-settings:normal;inline-size:0;isolation:auto;mix-blend-mode:normal;shape-margin:0;shape-padding:0;text-decoration-color:#000;text-decoration-line:none;text-decoration-style:solid;text-indent:0;text-orientation:mixed;text-transform:none;white-space:normal"/><path d="M2 23h28v7H2z" fill="#00d4f9" style="font-feature-settings:normal;font-variant-alternates:normal;font-variant-caps:normal;font-variant-east-asian:normal;font-variant-ligatures:normal;font-variant-numeric:normal;font-variant-position:normal;font-variation-settings:normal;inline-size:0;isolation:auto;mix-blend-mode:normal;shape-margin:0;shape-padding:0;text-decoration-color:#000;text-decoration-line:none;text-decoration-style:solid;text-indent:0;text-orientation:mixed;text-transform:none;white-space:normal"/></g><path d="M5.502 24.41c-.837 0-2.075.735-3.217 1.319l-.032 2.205c1.198-.592 2.481-1.374 3.248-1.374 1.313 0 3.82 2.027 5.21 2.027 1.24 0 3.887-2.027 5.21-2.027 1.313 0 3.964 2.027 5.21 2.027 1.313 0 3.973-2.027 5.21-2.027.774 0 2.105.794 3.315 1.388l.09-2.198c-1.177-.607-2.547-1.39-3.405-1.34-1.246 0-3.817 2.027-5.21 2.027-1.16 0-3.896-2.027-5.21-2.027-1.313 0-4.048 2.027-5.21 2.027-1.24 0-3.82-2.027-5.21-2.027z" fill="#00f" stroke="#00d4f9" stroke-width=".483"/></svg>