<svg width="32" height="32" xmlns="http://www.w3.org/2000/svg"><g color="#000" paint-order="stroke markers fill"><path d="M22.21-.008c-7.244.14-13.56 6.878-13.32 14.1-.867 4.95-3.356 6.73-6.638 10.01-1.723.447-3.083 2.964-1.484 4.293 1.452 1.064 2.607 3.694 4.776 2.832 3.167-2.715 5.569-6.675 8.579-7.93 1.14-.315 3.596-1.253 4.093-.225-.466 2.139-.199 4.51 1.236 6.24 2.298 3.078 7.217 3.613 10.09 1.05 3.237-2.555 3.289-8.095.033-10.64-.979-.743-2.735-1.376-1.074-2.432 2.845-3.487 4.116-8.716 1.84-12.82-1.628-2.816-4.87-4.66-8.135-4.482z" fill="#f2f2f2" style="font-feature-settings:normal;font-variant-alternates:normal;font-variant-caps:normal;font-variant-east-asian:normal;font-variant-ligatures:normal;font-variant-numeric:normal;font-variant-position:normal;font-variation-settings:normal;inline-size:0;isolation:auto;mix-blend-mode:normal;shape-margin:0;shape-padding:0;text-decoration-color:#000;text-decoration-line:none;text-decoration-style:solid;text-indent:0;text-orientation:mixed;text-transform:none;white-space:normal"/><path d="M30 25c.094 2.952-2.845 5.478-5.749 4.944-2.933-.35-4.99-3.634-4.026-6.425.785-2.847 4.341-4.389 6.956-3.018 1.701.804 2.837 2.618 2.819 4.499z" fill="#14eb54" style="font-feature-settings:normal;font-variant-alternates:normal;font-variant-caps:normal;font-variant-east-asian:normal;font-variant-ligatures:normal;font-variant-numeric:normal;font-variant-position:normal;font-variation-settings:normal;inline-size:0;isolation:auto;mix-blend-mode:normal;shape-margin:0;shape-padding:0;text-decoration-color:#000;text-decoration-line:none;text-decoration-style:solid;text-indent:0;text-orientation:mixed;text-transform:none;white-space:normal"/><path d="M27.49 4.022c-2.61-2.633-6.915-2.464-9.99-.782-3.955 2.048-6.763 6.333-6.6 10.85-.229 2.344-.786 4.58-2.298 6.486-1.92 1.863-3.789 3.777-5.671 5.678-.199-.464-1.163.532-.742.72l2.482 2.484c.536-.376.629-.75.721-1.126l5.414-5.551c1.116-.747 2.175-1.113 2.983-1.443 2.178-.682 4.288-.6 6.505-1.008 5.356-1.255 9.784-6.64 9.145-12.25-.196-1.513-.86-2.975-1.949-4.054zm.552 5.213c-.5-.394-.882-.788-.159-1.182.098.353.14.79.159 1.182zm-.368-1.946c-.39.305-.782 1.166-1.174.406-.292-.387-.957-.775-1.033-1.161.426-.23.89-1.323 1.288-.901a5.72 5.72 0 0 1 .92 1.657zm-13.63 6.729l1.858-1.859 1.483 1.482-1.859 1.858zm.997 1.969l-1.177 1.176c-.644-.762-1.592-1.925-.391-2.572.391-.01.783.728 1.174 1.003zm6.049-9.014l1.857-1.858 1.482 1.483-1.86 1.859zm2.962 3.938l-1.86 1.863-1.484-1.481 1.862-1.862zm-1.968-1.968l-1.862 1.862-1.482-1.482 1.862-1.862zm-2.35 2.35l-1.861 1.862-1.483-1.483 1.862-1.862zm-1.481-2.457l-1.478-1.478 1.862-1.862 1.477 1.478zm-.487.488l-1.863 1.86-1.477-1.477 1.86-1.862zm.107 4.806l1.48 1.48-1.857 1.86-1.481-1.483zm.488-.488l1.861-1.862 1.482 1.482-1.863 1.862zm3.831.107l1.476 1.479-1.862 1.862-1.479-1.478zm.486-.488L24.54 11.4l1.48 1.478-1.863 1.862zm.38-4.317l1.86-1.859 1.48 1.481-1.857 1.86zm3.035-4.009l-1.176 1.176-1.483-1.483c.563-.994 1.457-.758 2.23-.036l.218.166zm-2.625-1.314c-.387.703-.773.399-1.16-.12.24-.049.811.048 1.16.12zm-2.142-.128c.313.4.973.8 1.071 1.199l-1.794 1.795-1.479-1.478 1.41-1.41c.262-.048.527-.084.793-.106zm-2.127.466c-.482.874-1.385.328 0 0zm-1.449.65c.766.389-.044.778-.369 1.167-.386.291-.772.957-1.158 1.03-1.538-.908.89-1.584 1.527-2.198zm-2.642 2.057c.493.402.916.804.18 1.205l-1.35 1.35c-1.074-.642.88-1.905 1.17-2.555zm-1.896 2.802c.624.344-.917 1.273-.089.2zm-.684 2.135l1.41-1.409 1.478 1.478-1.858 1.858c-.335-.457-1.042-.782-1.117-1.333.022-.199.051-.397.088-.594zm.542 2.415c-.657 1.44-1.006-1.375-.285-.285l.285.285zm-1.995 6.422c-.508-.986.306-3.329.738-3.423.378 1.287 2.41 2.35 2.698 2.896-1.068.3-2.342 1.037-3.435.527zm3.276-2.788l1.176-1.176 1.482 1.482c-.564.993-1.457.76-2.23.037l-.217-.166zm2.624 1.312c.387-.702.774-.399 1.16.12-.236.05-.812-.046-1.16-.12zm2.144.13c-.313-.401-.973-.801-1.073-1.202l1.794-1.794 1.48 1.478-1.41 1.411a8.133 8.133 0 0 1-.791.106zm2.124-.467c.483-.873 1.387-.328 0 0zm1.452-.65c-.765-.39.044-.78.369-1.17.386-.29.771-.955 1.157-1.029 1.54.907-.89 1.584-1.526 2.197zm2.641-2.058c-.493-.401-.916-.802-.18-1.204l1.349-1.35c1.075.64-.88 1.904-1.17 2.554zm1.896-2.802c-.625-.341.916-1.272.089-.199zm.683-2.136l-1.41 1.41-1.477-1.479 1.858-1.858c.335.458 1.041.783 1.116 1.334-.021.2-.05.397-.087.594z" style="font-feature-settings:normal;font-variant-alternates:normal;font-variant-caps:normal;font-variant-east-asian:normal;font-variant-ligatures:normal;font-variant-numeric:normal;font-variant-position:normal;font-variation-settings:normal;inline-size:0;isolation:auto;mix-blend-mode:normal;shape-margin:0;shape-padding:0;text-decoration-color:#000;text-decoration-line:none;text-decoration-style:solid;text-indent:0;text-orientation:mixed;text-transform:none;white-space:normal"/></g><path d="M25 30a4.971 4.971 0 0 1-3.536-1.464A4.967 4.967 0 0 1 20 25c0-1.335.52-2.591 1.465-3.535A4.968 4.968 0 0 1 25 20c1.335 0 2.59.52 3.535 1.465A4.967 4.967 0 0 1 30 25c0 1.335-.52 2.592-1.465 3.536A4.968 4.968 0 0 1 25 30m-2.946-7.946a4.136 4.136 0 0 0-1.215 2.824 4.218 4.218 0 0 0 2.805-1.234 4.214 4.214 0 0 0 1.234-2.805 4.135 4.135 0 0 0-2.823 1.215m5.892 0a4.13 4.13 0 0 0-2.559-1.201 4.725 4.725 0 0 1-4.536 4.535 4.13 4.13 0 0 0 1.202 2.559 4.131 4.131 0 0 0 2.559 1.2 4.726 4.726 0 0 1 4.535-4.534 4.13 4.13 0 0 0-1.201-2.56m-1.59 4.302a4.222 4.222 0 0 0-1.234 2.805 4.137 4.137 0 0 0 2.824-1.214 4.132 4.132 0 0 0 1.214-2.824 4.222 4.222 0 0 0-2.805 1.233"/></svg>