<svg width="32" height="32" overflow="inherit" version="1.2" xmlns="http://www.w3.org/2000/svg"><g color="#000"><path d="M4.322 0C1.429-.155-1.117 3.439.482 6.001c.63 1.258-.165 2.647.423 3.915.51 1.992.882 4.035 1.556 5.976.68 1.53 2.227 1.834 3.032 2.415.9.68 2.55.813 2.638 2.161.247.763.633 1.657-.662 1.384-2.33.267-5.11.038-6.887 1.843-1.088 1.715-.388 3.913-.576 5.839-.314 1.523 1.183 2.768 2.627 2.467 9.201-.01 18.4.019 27.6-.014 1.682-.155 1.974-2.108 1.755-3.453.018-1.922.266-3.972-.824-5.597 1.506-1.472.866-4.507-1.291-4.987-1.585-.612-2.68 1.038-4.062 1.252a694.53 694.53 0 0 1-10.41 1.574c-.57-1.957-.882-4.002-1.645-5.895-.74-1.718-3.432-1.477-3.803-3.291.114-1.171 2.49-.178 3.442-.496 1.59.114 3.085-.57 4.68-.337 4.015-.078 8.443.095 12.45-.089 1.494-.423 1.63-2.237 1.374-3.508-.36-1.807-2.414-1.589-3.81-1.566-3.872.003-8.143.003-12.01.006-1.711-.648-3.575-.244-5.362-.35H8.544C9.238 2.674 6.967-.08 4.327 0z" fill="#f2f2f2" style="font-feature-settings:normal;font-variant-alternates:normal;font-variant-caps:normal;font-variant-east-asian:normal;font-variant-ligatures:normal;font-variant-numeric:normal;font-variant-position:normal;font-variation-settings:normal;inline-size:0;isolation:auto;mix-blend-mode:normal;shape-margin:0;shape-padding:0;text-decoration-color:#000;text-decoration-line:none;text-decoration-style:solid;text-indent:0;text-orientation:mixed;text-transform:none;white-space:normal"/><path d="M16.18 7.596h13.78v1.149H16.18z" style="font-feature-settings:normal;font-variant-alternates:normal;font-variant-caps:normal;font-variant-east-asian:normal;font-variant-ligatures:normal;font-variant-numeric:normal;font-variant-position:normal;font-variation-settings:normal;inline-size:0;isolation:auto;mix-blend-mode:normal;shape-margin:0;shape-padding:0;text-decoration-color:#000;text-decoration-line:none;text-decoration-style:solid;text-indent:0;text-orientation:mixed;text-transform:none;white-space:normal"/><path d="M8.467 13.75l2.608 1.422c.474.175.935.593 1.087 1.036l1.772 6.903-2.844.642L9.6 18.24l-4.361-2.323-.034-.003c-.565-.257-.983-.727-1.1-1.306z" fill="#0426af" style="font-feature-settings:normal;font-variant-alternates:normal;font-variant-caps:normal;font-variant-east-asian:normal;font-variant-ligatures:normal;font-variant-numeric:normal;font-variant-position:normal;font-variation-settings:normal;inline-size:0;isolation:auto;mix-blend-mode:normal;shape-margin:0;shape-padding:0;text-decoration-color:#000;text-decoration-line:none;text-decoration-style:solid;text-indent:0;text-orientation:mixed;text-transform:none;white-space:normal"/><path d="M8.467 13.75L7.278 9.098l7.328-.012c.599 0 1.08-.37 1.08-.913 0-.542-.482-.92-1.08-.92H4.026c-1.057 0-1.546.62-1.422 1.219l1.498 6.134z" fill="#e905e7" style="font-feature-settings:normal;font-variant-alternates:normal;font-variant-caps:normal;font-variant-east-asian:normal;font-variant-ligatures:normal;font-variant-numeric:normal;font-variant-position:normal;font-variation-settings:normal;inline-size:0;isolation:auto;mix-blend-mode:normal;shape-margin:0;shape-padding:0;text-decoration-color:#000;text-decoration-line:none;text-decoration-style:solid;text-indent:0;text-orientation:mixed;text-transform:none;white-space:normal"/><path d="M4.323 6.632c1.285 0 2.33-1.04 2.33-2.32A2.32 2.32 0 0 0 4.323 2a2.315 2.315 0 1 0 0 4.632z" fill="#834d03" style="font-feature-settings:normal;font-variant-alternates:normal;font-variant-caps:normal;font-variant-east-asian:normal;font-variant-ligatures:normal;font-variant-numeric:normal;font-variant-position:normal;font-variation-settings:normal;inline-size:0;isolation:auto;mix-blend-mode:normal;shape-margin:0;shape-padding:0;text-decoration-color:#000;text-decoration-line:none;text-decoration-style:solid;text-indent:0;text-orientation:mixed;text-transform:none;white-space:normal"/><path d="M2 25h28v5H2z" fill="#00d4f9" style="font-feature-settings:normal;font-variant-alternates:normal;font-variant-caps:normal;font-variant-east-asian:normal;font-variant-ligatures:normal;font-variant-numeric:normal;font-variant-position:normal;font-variation-settings:normal;inline-size:0;isolation:auto;mix-blend-mode:normal;shape-margin:0;shape-padding:0;text-decoration-color:#000;text-decoration-line:none;text-decoration-style:solid;text-indent:0;text-orientation:mixed;text-transform:none;white-space:normal" paint-order="stroke markers fill"/><path d="M29.12 19.86c-.925.099-.876.966-2.414 1.227a598.745 598.745 0 0 1-21.5 3.072c-.503.232-.198.852-.199 1.27-.006.348.117.852.562.783 7.39-1.092 14.79-2.159 22.17-3.266 1.103-.2 2.366-1.072 2.255-2.345a.944.944 0 0 0-.874-.74z" style="font-feature-settings:normal;font-variant-alternates:normal;font-variant-caps:normal;font-variant-east-asian:normal;font-variant-ligatures:normal;font-variant-numeric:normal;font-variant-position:normal;font-variation-settings:normal;inline-size:0;isolation:auto;mix-blend-mode:normal;shape-margin:0;shape-padding:0;text-decoration-color:#000;text-decoration-line:none;text-decoration-style:solid;text-indent:0;text-orientation:mixed;text-transform:none;white-space:normal"/></g><path d="M5.502 25.61c-.837 0-2.075.735-3.217 1.319l-.032 2.205c1.198-.592 2.481-1.374 3.248-1.374 1.313 0 3.82 2.027 5.21 2.027 1.24 0 3.887-2.027 5.21-2.027 1.313 0 3.964 2.027 5.21 2.027 1.313 0 3.973-2.027 5.21-2.027.774 0 2.105.794 3.315 1.388l.09-2.198c-1.177-.607-2.547-1.39-3.405-1.34-1.246 0-3.817 2.027-5.21 2.027-1.16 0-3.896-2.027-5.21-2.027-1.313 0-4.048 2.027-5.21 2.027-1.24 0-3.82-2.027-5.21-2.027z" fill="#00f" stroke="#00d4f9" stroke-width=".483"/></svg>