<svg width="32" height="32" xmlns="http://www.w3.org/2000/svg"><defs><linearGradient id="a" x1="27.39" x2="6.621" y1="12.54" y2="14" gradientTransform="translate(1.143 1.143) scale(.9285)" gradientUnits="userSpaceOnUse"><stop offset="0"/><stop stop-color="#bababa" offset="1"/></linearGradient></defs><path d="M10.34 0C4.693 0 .01 4.566 0 10.2v13.03a2 2 0 0 0 0 .006c.012 4.834 4.032 8.75 8.869 8.75h1a2 2 0 0 0 2-2l1-5.187c0-.746-.416-1.43-1.078-1.773l3.883.3v6.66a2 2 0 0 0 1.996 2l12.33.02a2 2 0 0 0 2.004-2.007l-.076-24.84a2 2 0 0 0-1.8-1.984l-7.02-.709L18.854.23a2 2 0 0 0-.93-.228z" color="#000" fill="#f2f2f2" fill-rule="evenodd" style="font-feature-settings:normal;font-variant-alternates:normal;font-variant-caps:normal;font-variant-east-asian:normal;font-variant-ligatures:normal;font-variant-numeric:normal;font-variant-position:normal;font-variation-settings:normal;inline-size:0;isolation:auto;mix-blend-mode:normal;shape-margin:0;shape-padding:0;text-decoration-color:#000;text-decoration-line:none;text-decoration-style:solid;text-indent:0;text-orientation:mixed;text-transform:none;white-space:normal" paint-order="stroke markers fill"/><path d="M10.34 2.758c-4.175 0-7.572 3.332-7.58 7.445v13.02c.008 3.316 2.747 6 6.111 6a.242.242 0 0 0 .236-.185l.754-3.169a.242.242 0 0 0-.236-.298c-.917 0-1.57-.343-2.01-.85-.44-.507-.664-1.193-.658-1.875.005-.682.239-1.353.685-1.836s1.102-.791 2.018-.746l6.07.299a.242.242 0 0 0 .176-.063l2.379-2.178.092 10.66a.242.242 0 0 0 .242.24l10.38.018a.242.242 0 0 0 .242-.242l-.068-22.93a.242.242 0 0 0-.219-.24L22.3 5.154l-4.51-2.37a.242.242 0 0 0-.113-.026zM9.305 8.817c.674 0 1.149.241 1.471.598.322.356.488.84.488 1.326 0 .486-.166.968-.488 1.324-.322.356-.797.597-1.471.597s-1.149-.241-1.471-.597a1.977 1.977 0 0 1-.488-1.324c0-.487.166-.97.488-1.326.322-.357.797-.598 1.471-.598z" color="#000" fill="url(#a)" fill-rule="evenodd" stroke="#000" stroke-linejoin="round" stroke-width="1.5" style="font-feature-settings:normal;font-variant-alternates:normal;font-variant-caps:normal;font-variant-east-asian:normal;font-variant-ligatures:normal;font-variant-numeric:normal;font-variant-position:normal;font-variation-settings:normal;inline-size:0;isolation:auto;mix-blend-mode:normal;shape-margin:0;shape-padding:0;text-decoration-color:#000;text-decoration-line:none;text-decoration-style:solid;text-indent:0;text-orientation:mixed;text-transform:none;white-space:normal"/></svg>