<?xml version="1.0" encoding="UTF-8" standalone="no"?>
<!-- Created with Inkscape (http://www.inkscape.org/) -->

<svg
   width="32.0px"
   height="32.0px"
   viewBox="0 0 32.0 32.0"
   version="1.1"
   id="SVGRoot"
   xmlns="http://www.w3.org/2000/svg"
   xmlns:svg="http://www.w3.org/2000/svg">
  <defs
     id="defs26795" />
  <g
     id="layer1">
    <path
       d="m 20.225749,4.7111772 -2.797936,2.340172 3.782552,3.5660528 c -1.409999,1.460143 -2.829766,2.913799 -4.251981,4.36498 0.324526,0.288846 0.648558,0.577658 0.97275,0.866852 1.386541,-1.488431 2.77663,-2.974737 4.174029,-4.452313 0.291476,-0.19813 1.94735,1.318854 2.147175,1.60432 l 4.587532,2.307825 C 28.587379,15.136844 26.520263,10.340527 26.194456,10.069152 25.691173,9.6481257 25.103044,9.1477103 24.489595,8.618471 L 25.460654,7.7160398 24.713296,7.1128049 23.771045,7.9958259 C 22.447208,6.8381867 21.095014,5.6083777 20.225749,4.7111772 Z m -7.32785,14.4146198 c -0.229862,0.235157 -0.460152,0.469762 -0.689739,0.705123 l -6.6838666,6.82321 1.2896612,1.122378 6.5059224,-6.978466 c 0.214617,-0.229242 0.427907,-0.459491 0.642289,-0.688952 -0.354807,-0.327718 -0.709121,-0.655909 -1.064267,-0.983293 z"
       id="path3604"
       fill="#ffffff"
       stroke="#ffffff"
       stroke-linejoin="round"
       stroke-linecap="round"
       stroke-width="1.05953"
       style="fill:#280b0b;stroke:#280b0b" />
    <path
       d="M 5.7467746,8.6826216 C 4.2037604,10.176384 3.1673657,12.081048 1.8722601,13.773373 l 2.8646131,1.993924 3.100124,-4.263819 c 0.3725071,-0.186929 0.6148504,0.273173 0.8399876,0.478497 3.1227602,2.955047 6.2092162,5.952032 9.3179022,8.923536 l 6.900864,6.623674 1.222613,-1.18891 -7.069418,-6.459768 C 15.877237,16.970296 12.679239,14.081774 9.5245051,11.157821 9.3051491,10.94687 8.8185453,10.724297 9.0073814,10.365356 L 13.416236,7.3271922 11.273319,4.631466 C 9.3623285,5.9101445 7.4194692,7.1187387 5.7467746,8.6826216 Z"
       id="path3621"
       fill="#ffffff"
       stroke="#ffffff"
       stroke-linejoin="round"
       stroke-linecap="round"
       stroke-width="1.09162"
       style="fill:#280b0b;stroke:#2b1100;stroke-width:1.05991;stroke-dasharray:none" />
  </g>
</svg>
