<?xml version="1.0" encoding="UTF-8" standalone="no"?>
<svg
   width="19"
   height="36"
   version="1.1"
   id="svg8"
   xmlns="http://www.w3.org/2000/svg"
   xmlns:svg="http://www.w3.org/2000/svg">
  <defs
     id="defs8" />
  <g
     color="#000000"
     paint-order="stroke markers fill"
     id="g3"
     transform="translate(-7.495)">
    <path
       d="m 22.7,0.004 c -0.999,0.064 -1.906,0.546 -2.699,1 A 2.555,2.555 0 0 0 18.692,1.068 C 17.116,1.555 16.278,2.71 15.751,3.734 14.799,4.45 13.829,5.236 13.28,6.13 L 13.276,6.136 12.003,8 v 20 a 2,2 0 0 0 -2,2 H 9.995 a 2,2 0 0 0 -2,2 v 2 a 2,2 0 0 0 2,2 h 13.01 a 2,2 0 0 0 2,-2 v -2 a 2,2 0 0 0 -2,-2 H 22.98 V 29.975 A 2,2 0 0 0 21.003,28 L 20.991,8.39 c 0.892,-0.095 1.842,-0.285 2.82,-0.863 L 23.825,7.519 23.837,7.511 A 3.426,3.426 0 0 0 25.249,5.855 C 25.383,5.069 25.751,4.315 25.981,3.667 26.027,3.194 26.041,2.672 25.831,2.04 24.967,0.438 24.29,0.092 22.7,-0.002 Z"
       fill="#f3f3f3"
       style="font-variant-ligatures:normal;font-variant-position:normal;font-variant-caps:normal;font-variant-numeric:normal;font-variant-alternates:normal;font-variant-east-asian:normal;font-feature-settings:normal;font-variation-settings:normal;text-indent:0;text-decoration-line:none;text-decoration-style:solid;text-decoration-color:#000000;text-transform:none;text-orientation:mixed;white-space:normal;shape-padding:0;shape-margin:0;inline-size:0;isolation:auto;mix-blend-mode:normal"
       id="path1" />
    <path
       d="m 16.37,5.636 c 0.4,-0.111 0.921,-0.216 0.961,-0.72 0.408,-0.865 1.042,-1.746 2.015,-2.003 0.43,-0.283 0.645,0.624 0.984,0.216 0.703,-0.465 1.45,-0.92 2.285,-1.09 0.413,-0.075 0.93,-0.052 1.172,0.348 0.26,0.415 0.284,0.954 0.16,1.416 -0.043,0.279 -0.464,0.34 -0.532,0.443 0.267,0.683 -0.232,1.434 -0.866,1.695 -0.965,0.48 -2.062,0.552 -3.121,0.592 0.157,0.409 -0.235,0.752 -0.574,0.899 C 18.207,7.746 17.446,7.685 16.776,7.478 16.373,7.9 15.8,8.184 15.226,8.296 15.35,7.881 14.91,7.569 14.997,7.176 15.27,6.523 15.835,6.07 16.37,5.636 Z"
       fill="#666666"
       style="font-variant-ligatures:normal;font-variant-position:normal;font-variant-caps:normal;font-variant-numeric:normal;font-variant-alternates:normal;font-variant-east-asian:normal;font-feature-settings:normal;font-variation-settings:normal;text-indent:0;text-decoration-line:none;text-decoration-style:solid;text-decoration-color:#000000;text-transform:none;text-orientation:mixed;white-space:normal;shape-padding:0;shape-margin:0;inline-size:0;isolation:auto;mix-blend-mode:normal"
       id="path2" />
    <path
       d="m 14,8 v 24 h 5 L 18.986,8 Z"
       fill="#652200"
       style="font-variant-ligatures:normal;font-variant-position:normal;font-variant-caps:normal;font-variant-numeric:normal;font-variant-alternates:normal;font-variant-east-asian:normal;font-feature-settings:normal;font-variation-settings:normal;text-indent:0;text-decoration-line:none;text-decoration-style:solid;text-decoration-color:#000000;text-transform:none;text-orientation:mixed;white-space:normal;shape-padding:0;shape-margin:0;inline-size:0;isolation:auto;mix-blend-mode:normal"
       id="path3" />
  </g>
  <path
     paint-order="markers fill stroke"
     d="m 6.505,8 h 4.986 v 2 H 6.505 Z"
     id="path4" />
  <path
     d="m 2.498,32 h 13.01 v 2 H 2.498 Z"
     color="#000000"
     style="font-variant-ligatures:normal;font-variant-position:normal;font-variant-caps:normal;font-variant-numeric:normal;font-variant-alternates:normal;font-variant-east-asian:normal;font-feature-settings:normal;font-variation-settings:normal;text-indent:0;text-decoration-line:none;text-decoration-style:solid;text-decoration-color:#000000;text-transform:none;text-orientation:mixed;white-space:normal;shape-padding:0;shape-margin:0;inline-size:0;isolation:auto;mix-blend-mode:normal"
     paint-order="stroke markers fill"
     id="path5" />
  <path
     fill="#c2c2c2"
     paint-order="markers fill stroke"
     d="m 6.515,10 h 4.986 v 2 H 6.515 Z"
     id="path6" />
  <path
     fill="#f2c2c2"
     paint-order="markers fill stroke"
     d="m 6.515,14 h 4.986 v 2 H 6.515 Z m 0,4 h 4.986 v 2 H 6.515 Z"
     id="path7" />
  <path
     d="m 4.505,30 v 2 h 9 L 13.48,30 Z"
     color="#000000"
     fill="#5d1f00"
     style="font-variant-ligatures:normal;font-variant-position:normal;font-variant-caps:normal;font-variant-numeric:normal;font-variant-alternates:normal;font-variant-east-asian:normal;font-feature-settings:normal;font-variation-settings:normal;text-indent:0;text-decoration-line:none;text-decoration-style:solid;text-decoration-color:#000000;text-transform:none;text-orientation:mixed;white-space:normal;shape-padding:0;shape-margin:0;inline-size:0;isolation:auto;mix-blend-mode:normal"
     paint-order="stroke markers fill"
     id="path8" />
</svg>
