<svg width="32" height="32" viewBox="0 0 19.6 19.6" xmlns="http://www.w3.org/2000/svg"><defs><linearGradient id="a" x1="5.084" x2="12.25" y1="11.64" y2="11.64" gradientTransform="translate(2.116 1.67) scale(.9091)" gradientUnits="userSpaceOnUse"><stop stop-color="#ccc" offset="0"/><stop stop-color="#666" offset="1"/></linearGradient></defs><g fill="#f3f3f3" color="#000" paint-order="stroke markers fill"><path d="M4.884.005C3.785-.121 3.127.952 2.192 1.11.799 1.24-.337 2.697.101 4.073.569 5.763 2.693 6.398 4.214 5.8c.43-.246 1.337.142 1.551.258.052.83.397 1.775.337 2.698.142 2.07-.266 4.135-1.043 6.05-.313 1.041-1.086 1.911-1.29 2.975-.042 1.02.938 1.853 1.931 1.708 3.731-.01 7.463.021 11.19-.015 1.261-.159 1.748-1.768 1.033-2.732-.795-1.766-1.69-3.548-1.963-5.485-.094-1.531-.064-3.082.225-4.591.032-1-.928-1.808-1.904-1.654-.752.1.51-.733.345-1.184.416-1.67-1.316-3.226-2.933-3.008-.717-.359-1.514-.893-2.41-.744-.86.242-1.715.34-2.53.36C6.201.067 5.53-.028 4.88.006z" style="font-feature-settings:normal;font-variant-alternates:normal;font-variant-caps:normal;font-variant-east-asian:normal;font-variant-ligatures:normal;font-variant-numeric:normal;font-variant-position:normal;font-variation-settings:normal;inline-size:0;isolation:auto;mix-blend-mode:normal;shape-margin:0;shape-padding:0;text-decoration-color:#000;text-decoration-line:none;text-decoration-style:solid;text-indent:0;text-orientation:mixed;text-transform:none;white-space:normal"/><path d="M5.623 1.195c-.855-.148-1.938.073-2.344.927-.733-.087-1.585.115-1.978.795-.392.658.08 1.485.734 1.75.793.38 1.79.336 2.518-.179.745.645 1.893.588 2.682.057.696.529 1.707.56 2.467.157 1.356.02 1.859.328 3.029-.229.61-.256 1.026-1.01.694-1.634-.423-.815-1.472-1.067-2.32-.931-.395-.463-.979-.767-1.597-.71-.722-.084-1.23.68-1.899.312-.45-.113-.915.447-1.25.006a1.802 1.802 0 0 0-.736-.32z" style="font-feature-settings:normal;font-variant-alternates:normal;font-variant-caps:normal;font-variant-east-asian:normal;font-variant-ligatures:normal;font-variant-numeric:normal;font-variant-position:normal;font-variation-settings:normal;inline-size:0;isolation:auto;mix-blend-mode:normal;shape-margin:0;shape-padding:0;text-decoration-color:#000;text-decoration-line:none;text-decoration-style:solid;text-indent:0;text-orientation:mixed;text-transform:none;white-space:normal"/></g><path d="M9.87 1.842c-.591-.08-1.259-.01-1.715.411-.493-.315-1.144-.124-1.604-.032-.646-.546-1.617-.554-2.364-.225-.413.168-.42.77-.938.565-.55 0-1.234.165-1.46.724-.086.56.536.876 1.003.959.62.138 1.323.066 1.83-.343.615.502 1.525.559 2.239.257.42-.378 2.035.162 2.484.156.442-.278.464 1.871.921 1.871.667 0 1.7 1.037 2.458.402.542-.455-.388-2.556.016-2.87.386-.397.065-.98-.399-1.12-.428-.201-.918-.235-1.382-.17-.235-.368-.682-.516-1.09-.586z" color="#000" fill="#fff" stroke="#1c1c1c" stroke-linecap="round" stroke-linejoin="round" stroke-width="1.105" style="font-feature-settings:normal;font-variant-alternates:normal;font-variant-caps:normal;font-variant-east-asian:normal;font-variant-ligatures:normal;font-variant-numeric:normal;font-variant-position:normal;font-variation-settings:normal;inline-size:0;isolation:auto;mix-blend-mode:normal;shape-margin:0;shape-padding:0;text-decoration-color:#000;text-decoration-line:none;text-decoration-style:solid;text-indent:0;text-orientation:mixed;text-transform:none;white-space:normal" paint-order="stroke markers fill"/><path d="M17.11 17.63a.61.61 0 0 1-.044.506.458.458 0 0 1-.391.24h-11.3a.458.458 0 0 1-.391-.24c-.088-.15-.128-.354-.045-.506 1.107-2.01 1.794-3.895 2.161-6.026.279-1.614-.122-4.937-.122-4.937 0-.299.21-.54.47-.54h7.15c.26 0 .47.242.47.54 0 0-.436 3.572-.158 5.187.367 2.131 2.14 5.62 2.198 5.777z" color="#000" fill="#333" style="font-feature-settings:normal;font-variant-alternates:normal;font-variant-caps:normal;font-variant-east-asian:normal;font-variant-ligatures:normal;font-variant-numeric:normal;font-variant-position:normal;font-variation-settings:normal;inline-size:0;isolation:auto;mix-blend-mode:normal;shape-margin:0;shape-padding:0;text-decoration-color:#000;text-decoration-line:none;text-decoration-style:solid;text-indent:0;text-orientation:mixed;text-transform:none;white-space:normal"/><path d="M8.132 7.239c.115 1.843.337 3.726-.126 5.532-.364 1.56-.957 3.059-1.671 4.491h9.379c-.776-1.714-1.578-3.452-1.91-5.318-.208-1.56-.06-2.757.121-4.705z" fill="url(#a)"/></svg>