<svg width="32" height="32" version="1" viewBox="0 0 1.92 1.92" xmlns="http://www.w3.org/2000/svg"><g color="#000" paint-order="stroke markers fill"><path d="M.84-.002a.12.12 0 0 0-.12.12V.6H.372C.24.6.123.731.12.84v.96c0 .059.057.12.132.12l1.417.001c.08 0 .15-.078.127-.155L1.39.276C1.354.096 1.2-.003.946-.003z" fill="#f2f2f2" style="font-feature-settings:normal;font-variant-alternates:normal;font-variant-caps:normal;font-variant-east-asian:normal;font-variant-ligatures:normal;font-variant-numeric:normal;font-variant-position:normal;font-variation-settings:normal;inline-size:0;isolation:auto;mix-blend-mode:normal;shape-margin:0;shape-padding:0;text-decoration-color:#000;text-decoration-line:none;text-decoration-style:solid;text-indent:0;text-orientation:mixed;text-transform:none;white-space:normal"/><path d="M1.276.3l.405 1.5H.84V.118h.196c.116 0 .22.08.239.182z" fill="#262626" style="font-feature-settings:normal;font-variant-alternates:normal;font-variant-caps:normal;font-variant-east-asian:normal;font-variant-ligatures:normal;font-variant-numeric:normal;font-variant-position:normal;font-variation-settings:normal;inline-size:0;isolation:auto;mix-blend-mode:normal;shape-margin:0;shape-padding:0;text-decoration-color:#000;text-decoration-line:none;text-decoration-style:solid;text-indent:0;text-orientation:mixed;text-transform:none;white-space:normal"/><path d="M.24.84h.6v.96h-.6z" fill="#81d4fa" style="font-feature-settings:normal;font-variant-alternates:normal;font-variant-caps:normal;font-variant-east-asian:normal;font-variant-ligatures:normal;font-variant-numeric:normal;font-variant-position:normal;font-variation-settings:normal;inline-size:0;isolation:auto;mix-blend-mode:normal;shape-margin:0;shape-padding:0;text-decoration-color:#000;text-decoration-line:none;text-decoration-style:solid;text-indent:0;text-orientation:mixed;text-transform:none;white-space:normal"/></g><g fill="#1976d2" stroke-width=".05"><path d="M.74.713h-.1c0 .054-.045.099-.1.099s-.1-.045-.1-.1h-.1a.1.1 0 0 1-.1.1V.91C.3.91.355.886.39.84c.035.04.09.07.15.07S.655.886.69.84c.035.04.09.07.15.07v-.1a.1.1 0 0 1-.1-.098zM.74 1.009h-.1c0 .054-.045.099-.1.099s-.1-.045-.1-.099h-.1a.1.1 0 0 1-.1.099v.099c.06 0 .115-.025.15-.07.035.04.09.07.15.07s.115-.025.15-.07c.035.04.09.07.15.07v-.1a.1.1 0 0 1-.1-.098zM.74 1.306h-.1c0 .054-.045.099-.1.099s-.1-.045-.1-.099h-.1a.1.1 0 0 1-.1.099v.099c.06 0 .115-.025.15-.07.035.04.09.07.15.07s.115-.025.15-.07c.035.04.09.07.15.07v-.1a.1.1 0 0 1-.1-.098zM.74 1.602h-.1c0 .054-.045.099-.1.099s-.1-.045-.1-.099h-.1a.1.1 0 0 1-.1.099V1.8c.06 0 .115-.025.15-.07.035.04.09.07.15.07s.115-.025.15-.07c.035.04.09.07.15.07v-.1a.1.1 0 0 1-.1-.098z"/></g></svg>