<svg width="32" height="30" xmlns="http://www.w3.org/2000/svg"><g color="#000" paint-order="stroke markers fill"><path d="M12.7.004c-.999.064-1.906.546-2.699 1a2.555 2.555 0 0 0-1.309.064c-1.576.487-2.414 1.642-2.941 2.666h-.002l-.006.01c-.01.003-.004.002-.013.006-1.534.516-2.09 1.761-2.377 2.262l-.002.004L2.003 8v16a2 2 0 0 0-2 2v2a2 2 0 0 0 2 2h28a2 2 0 0 0 2-2v-2a2 2 0 0 0-2-2V13.22c-.001-1.792-2.176-2.68-3.43-1.398L23.2 15.265V13.22c-.001-1.792-2.176-2.68-3.43-1.398l-3.475 3.547V13.22c-.001-1.792-2.176-2.68-3.43-1.398L9.99 14.759v-4.486l.574-1.592c.93-.62 2.385-.65 3.244-1.145l.013-.008.012-.008a3.426 3.426 0 0 0 1.412-1.656c.134-.786.502-1.54.733-2.188.046-.473.06-.995-.15-1.627C15.234 1.012 14.725.447 13.787.1a4.02 4.02 0 0 0-1.09-.092z" fill="#f3f3f3" style="font-feature-settings:normal;font-variant-alternates:normal;font-variant-caps:normal;font-variant-east-asian:normal;font-variant-ligatures:normal;font-variant-numeric:normal;font-variant-position:normal;font-variation-settings:normal;inline-size:0;isolation:auto;mix-blend-mode:normal;shape-margin:0;shape-padding:0;text-decoration-color:#000;text-decoration-line:none;text-decoration-style:solid;text-indent:0;text-orientation:mixed;text-transform:none;white-space:normal"/><path d="M5.082 7.011c.313-.543.647-1.165 1.288-1.375.381-.158.87-.127.922-.635.409-.89 1.046-1.823 2.054-2.088.376-.164.567.227.774.363.37-.265.75-.516 1.162-.724.627-.331 1.352-.662 2.075-.503.603.227.706.952.643 1.508-.01.349-.279.629-.61.633.281.589-.072 1.295-.602 1.62-1.008.596-2.215.68-3.36.722.192.537-.446.883-.875 1.018-.58.173-1.207.103-1.778-.073-.158.553-.792.72-1.294.815-.718.387-.382-.962-.4-1.281z" fill="#666" style="font-feature-settings:normal;font-variant-alternates:normal;font-variant-caps:normal;font-variant-east-asian:normal;font-variant-ligatures:normal;font-variant-numeric:normal;font-variant-position:normal;font-variation-settings:normal;inline-size:0;isolation:auto;mix-blend-mode:normal;shape-margin:0;shape-padding:0;text-decoration-color:#000;text-decoration-line:none;text-decoration-style:solid;text-indent:0;text-orientation:mixed;text-transform:none;white-space:normal"/><path d="M4 10.27V26h24V13.22l-5.778 5.9h-1.026v-5.9l-5.778 5.9h-1.126v-5.9l-5.778 5.9h-.526v-8.85z" fill="#782800" style="font-feature-settings:normal;font-variant-alternates:normal;font-variant-caps:normal;font-variant-east-asian:normal;font-variant-ligatures:normal;font-variant-numeric:normal;font-variant-position:normal;font-variation-settings:normal;inline-size:0;isolation:auto;mix-blend-mode:normal;shape-margin:0;shape-padding:0;text-decoration-color:#000;text-decoration-line:none;text-decoration-style:solid;text-indent:0;text-orientation:mixed;text-transform:none;white-space:normal"/></g><path paint-order="markers fill stroke" d="M4 8h3.989v2.267H4z"/><g stroke-linejoin="round" stroke-width="2" paint-order="markers fill stroke"><path d="M9 25.08v-5" stroke="#bed8db"/><path d="M9 26.12v-2.116" stroke="#0065ff"/><path d="M13 25v-5" stroke="#bed8db"/><path d="M13 26.12v-2.116" stroke="#0065ff"/><path d="M17 25v-5" stroke="#bed8db"/><path d="M17 26.12v-2.116" stroke="#0065ff"/><path d="M21 25.08v-5" stroke="#bed8db"/><path d="M21 26.19v-2.116" stroke="#0065ff"/><path d="M25 25v-5" stroke="#bed8db"/><path d="M25 26.12v-2.116" stroke="#0065ff"/></g><path d="M2 26h28v2H2z" color="#000" style="font-feature-settings:normal;font-variant-alternates:normal;font-variant-caps:normal;font-variant-east-asian:normal;font-variant-ligatures:normal;font-variant-numeric:normal;font-variant-position:normal;font-variation-settings:normal;inline-size:0;isolation:auto;mix-blend-mode:normal;shape-margin:0;shape-padding:0;text-decoration-color:#000;text-decoration-line:none;text-decoration-style:solid;text-indent:0;text-orientation:mixed;text-transform:none;white-space:normal" paint-order="stroke markers fill"/></svg>