<?xml version="1.0" encoding="UTF-8" standalone="no"?>
<svg
   width="27"
   height="32"
   fill="none"
   version="1.1"
   id="svg6"
   xmlns="http://www.w3.org/2000/svg"
   xmlns:svg="http://www.w3.org/2000/svg">
  <defs
     id="defs6" />
  <path
     d="m 13.480459,0 c -1.906,-0.01 -3.448,1.319 -4.77,2.539 -0.925,-1.086 -2.4390002,-1.104 -3.7120002,-1.491 -2.092,-0.502 -4.284,1.889 -3.267,3.883 0.61,0.777 0.928,1.231 0.085,1.971 -1.122,1.84 0.733,4.276 2.775,4.093 1.098,-0.191 2.218,-0.423 3.2510002,-0.847 l -1.4620002,15.85 c -1.448,0.035 -2.907,-0.07 -4.348,0.057 -1.134,0.235 -1.683,1.452 -1.529,2.52 0.012,1.059 -0.2,2.377 0.84,3.052 0.953,0.632 2.15,0.28 3.222,0.371 6.7250002,-0.01 13.4500002,0.02 20.1800002,-0.014 1.202,-0.105 1.94,-1.35 1.763,-2.48 -0.022,-1.083 0.226,-2.438 -0.839,-3.135 -0.953,-0.632 -2.15,-0.28 -3.223,-0.371 h -1.532 c -0.6,-5.277 -1.202,-10.55 -1.803,-15.83 1.03,0.401 2.134,0.641 3.222,0.827 2.042,0.183 3.897,-2.252 2.775,-4.093 -1.4,-0.991 0.503,-1.743 0.34,-3.046 0.01,-1.967 -2.228,-3.381 -4.03,-2.686 -1.106,0.324 -2.4,0.385 -3.186,1.344 -1.315,-1.2 -2.86,-2.535 -4.748,-2.514 z"
     color="#000000"
     fill="#f3f3f3"
     style="font-variant-ligatures:normal;font-variant-position:normal;font-variant-caps:normal;font-variant-numeric:normal;font-variant-alternates:normal;font-variant-east-asian:normal;font-feature-settings:normal;font-variation-settings:normal;text-indent:0;text-decoration-line:none;text-decoration-style:solid;text-decoration-color:#000000;text-transform:none;text-orientation:mixed;white-space:normal;shape-padding:0;shape-margin:0;inline-size:0;isolation:auto;mix-blend-mode:normal"
     id="path1" />
  <g
     stroke-linecap="round"
     stroke-linejoin="round"
     id="g3"
     transform="translate(-2.4995412)">
    <path
       d="M 14.04,8.5 C 13.346,7.567 12.163,6.262 12.624,4.976 12.931,4.121 15.027,2.5 16.02,2.5 c 0.993,0 3.089,1.621 3.396,2.476 C 19.877,6.262 18.694,7.567 18,8.5"
       fill="#ffeb0a"
       stroke="#000000"
       id="path2" />
    <path
       d="M 23,4.5 25,4 M 23,7.5 25,8 M 9,4.5 7,4 M 9,7.5 7,8"
       stroke="#ffc002"
       stroke-width="2"
       id="path3" />
  </g>
  <path
     d="M 2.5004588,28 H 24.500459 v 2 H 2.5004588 Z"
     color="#000000"
     fill="#000000"
     style="font-variant-ligatures:normal;font-variant-position:normal;font-variant-caps:normal;font-variant-numeric:normal;font-variant-alternates:normal;font-variant-east-asian:normal;font-feature-settings:normal;font-variation-settings:normal;text-indent:0;text-decoration-line:none;text-decoration-style:solid;text-decoration-color:#000000;text-transform:none;text-orientation:mixed;white-space:normal;shape-padding:0;shape-margin:0;inline-size:0;isolation:auto;mix-blend-mode:normal"
     paint-order="stroke markers fill"
     id="path4" />
  <path
     d="M 8.710459,28.42 10.501459,9 h 6 l 2.209,19.42 z"
     fill="#f81111"
     stroke="#000000"
     stroke-linejoin="round"
     id="path5" />
  <path
     d="m 9.630459,24 0.311,-4 h 7.295 l 0.457,3.979 z m 0.73,-7.96 0.332,-4 h 5.639 l 0.436,3.958 z"
     fill="#ffffff"
     id="path6" />
</svg>
