<svg width="32" height="34" viewBox="0 0 1.92 2.04" xmlns="http://www.w3.org/2000/svg"><path d="M.146.6h.15L.3.72h.9l.3-.6.3.48v1.32H.12V.611z" fill="#f2f2f2" stroke="#f2f2f2" stroke-linecap="round" stroke-linejoin="round" stroke-width=".24" paint-order="stroke markers fill"/><path fill="#5fecff" paint-order="stroke markers fill" d="M.3 1.56h1.32v.36H.3z"/><path fill="#b5b5b5" fill-rule="evenodd" stroke="#000" stroke-linecap="round" stroke-linejoin="round" stroke-width=".09" d="M1.5 1.29l-.16.408H.58l-.16-.409.54-.191z"/><path d="M1.332.888v.327L.96 1.098l-.366.117V.888z" fill="#a2caff" stroke="#000" stroke-linejoin="round" stroke-width=".09"/><g><path d="M.959.717C.882.716.819.737.819.762v.113c-.004.026.06.048.14.047.077 0 .138-.021.135-.047V.762c0-.025-.06-.045-.135-.045z" color="#000" fill-rule="evenodd" style="font-feature-settings:normal;font-variant-alternates:normal;font-variant-caps:normal;font-variant-east-asian:normal;font-variant-ligatures:normal;font-variant-numeric:normal;font-variant-position:normal;font-variation-settings:normal;inline-size:0;isolation:auto;mix-blend-mode:normal;shape-margin:0;shape-padding:0;text-decoration-color:#000;text-decoration-line:none;text-decoration-style:solid;text-indent:0;text-orientation:mixed;text-transform:none;white-space:normal"/><path paint-order="stroke markers fill" d="M.12.6H.3v1.32H.12zM1.62.6h.18v1.32h-.18z"/></g><path d="M1.5.12l.18.36h-.36zM1.44.48h.12v.24h-.12z" fill="#f14000" paint-order="stroke markers fill"/></svg>