<svg width="32" height="32" xmlns="http://www.w3.org/2000/svg"><defs><radialGradient id="a" cx="16" cy="21.52" r="11.18" gradientTransform="matrix(.8943 0 0 1.073 1.69 -5.093)" gradientUnits="userSpaceOnUse"><stop stop-color="#2d96ce" offset="0"/><stop stop-color="#99cce7" offset="1"/></radialGradient><radialGradient id="b" cx="18" cy="15.12" r="5.094" gradientTransform="translate(-13.8 -10.72) scale(1.767)" gradientUnits="userSpaceOnUse"><stop stop-color="#145586" offset="0"/><stop stop-color="#218cde" offset="1"/></radialGradient></defs><g color="#000" paint-order="stroke markers fill"><path d="M16.02 0C7.254 0 0 6.854 0 15.36a2 2 0 0 0 2 2h.842v8.643H2a2 2 0 0 0-2 2v2a2 2 0 0 0 2 2h28a2 2 0 0 0 2-2v-2a2 2 0 0 0-2-2h-.795v-10.64c0-1.756-.375-3.425-1.05-4.941a2.077 2.077 0 0 0 1.02-.53l2.273-2.163c.8-.762.8-1.998 0-2.76L26.901.637a2.102 2.102 0 0 0-1.447-.57c-.544-.001-1.066.204-1.45.57L21.73 2.803c-.268.256-.456.579-.543.931a13.5 13.5 0 0 0-3.164-.86v-.868a2 2 0 0 0-2-2z" fill="#f2f2f2" style="font-feature-settings:normal;font-variant-alternates:normal;font-variant-caps:normal;font-variant-east-asian:normal;font-variant-ligatures:normal;font-variant-numeric:normal;font-variant-position:normal;font-variation-settings:normal;inline-size:0;isolation:auto;mix-blend-mode:normal;shape-margin:0;shape-padding:0;text-decoration-color:#000;text-decoration-line:none;text-decoration-style:solid;text-indent:0;text-orientation:mixed;text-transform:none;white-space:normal"/><path d="M4.889 15.36H2C2 7.995 8.291 2 16.02 2v2.751z" fill="#2a4253" style="font-feature-settings:normal;font-variant-alternates:normal;font-variant-caps:normal;font-variant-east-asian:normal;font-variant-ligatures:normal;font-variant-numeric:normal;font-variant-position:normal;font-variation-settings:normal;inline-size:0;isolation:auto;mix-blend-mode:normal;shape-margin:0;shape-padding:0;text-decoration-color:#000;text-decoration-line:none;text-decoration-style:solid;text-indent:0;text-orientation:mixed;text-transform:none;white-space:normal"/><path d="M27.73 8.507l2.273-2.165-4.546-4.33-2.273 2.165 1.137 1.083-4.587 4.369 2.273 2.165 4.587-4.369z" fill="#1e2e3b" style="font-feature-settings:normal;font-variant-alternates:normal;font-variant-caps:normal;font-variant-east-asian:normal;font-variant-ligatures:normal;font-variant-numeric:normal;font-variant-position:normal;font-variation-settings:normal;inline-size:0;isolation:auto;mix-blend-mode:normal;shape-margin:0;shape-padding:0;text-decoration-color:#000;text-decoration-line:none;text-decoration-style:solid;text-indent:0;text-orientation:mixed;text-transform:none;white-space:normal"/><path d="M4.842 18.46V30h22.36V18.46z" fill="#305673" style="font-feature-settings:normal;font-variant-alternates:normal;font-variant-caps:normal;font-variant-east-asian:normal;font-variant-ligatures:normal;font-variant-numeric:normal;font-variant-position:normal;font-variation-settings:normal;inline-size:0;isolation:auto;mix-blend-mode:normal;shape-margin:0;shape-padding:0;text-decoration-color:#000;text-decoration-line:none;text-decoration-style:solid;text-indent:0;text-orientation:mixed;text-transform:none;white-space:normal"/></g><path d="M16.02 18.95V30H27.2V18.95z" fill="#46647b"/><path fill="#ecc800" d="M12 22h8v6h-8z"/><path d="M27.2 18.95v-3.594c0-5.872-5.016-10.65-11.18-10.65-6.165 0-11.18 4.777-11.18 10.65v3.594z" color="#000" fill="url(#a)" style="font-feature-settings:normal;font-variant-alternates:normal;font-variant-caps:normal;font-variant-east-asian:normal;font-variant-ligatures:normal;font-variant-numeric:normal;font-variant-position:normal;font-variation-settings:normal;inline-size:0;isolation:auto;mix-blend-mode:normal;shape-margin:0;shape-padding:0;text-decoration-color:#000;text-decoration-line:none;text-decoration-style:solid;text-indent:0;text-orientation:mixed;text-transform:none;white-space:normal" paint-order="stroke markers fill"/><path d="M17.02 4.748c6.081.179 10.19 5.603 10.19 10.61v1.694H17.02z" fill="url(#b)"/><path d="M2 28h28v2H2z" color="#000" fill="#50412e" style="font-feature-settings:normal;font-variant-alternates:normal;font-variant-caps:normal;font-variant-east-asian:normal;font-variant-ligatures:normal;font-variant-numeric:normal;font-variant-position:normal;font-variation-settings:normal;inline-size:0;isolation:auto;mix-blend-mode:normal;shape-margin:0;shape-padding:0;text-decoration-color:#000;text-decoration-line:none;text-decoration-style:solid;text-indent:0;text-orientation:mixed;text-transform:none;white-space:normal" paint-order="stroke markers fill"/><path fill="#2a2718" d="M16 28h14v2H16z"/><path d="M16.02 4.751l-.023 13.25h11.22" fill="none" stroke="#c7c7c7" stroke-width="2"/></svg>