<svg width="32" height="32" xmlns="http://www.w3.org/2000/svg"><defs><style></style></defs><path d="M24 0a2 2 0 0 0-1.953 2.428l.477 2.172C12.7 6.305 7.094 7.249 4.564 7.721c-1.412.264-2.031.363-2.738.664-.354.15-.832.48-1.104.846-.265.356-.277.451-.24.394v.004c-.711 1.168-.578 2.646.115 3.635.339.484.83.878 1.398 1.13V22a2 2 0 0 0-1.988 2v6a2 2 0 0 0 2 2l20.44-.02c1.319-.131 2.673-.491 2.53-2.968-.021-2.18-.427-3.012-2.365-2.963l-1.104-13.53a2.744 2.744 0 0 0-.246-.922l2.689-.47 1.016 4.634a2 2 0 0 0 3.055 1.24l2.02-1.332a2 2 0 0 0 .733-.873c2.603-5.984.265-11.02-.629-13.48A2 2 0 0 0 28.267 0zM10.71 13.45l-.877 9.76a2 2 0 0 0-1.785-1.209v-8.084z" color="#000" fill="#f2f2f2" style="font-feature-settings:normal;font-variant-alternates:normal;font-variant-caps:normal;font-variant-east-asian:normal;font-variant-ligatures:normal;font-variant-numeric:normal;font-variant-position:normal;font-variation-settings:normal;inline-size:0;isolation:auto;mix-blend-mode:normal;shape-margin:0;shape-padding:0;text-decoration-color:#000;text-decoration-line:none;text-decoration-style:solid;text-indent:0;text-orientation:mixed;text-transform:none;white-space:normal" paint-order="stroke markers fill"/><path d="M6.052 11.82v15.04H4V12.51z" color="#000" fill="#292438" style="font-feature-settings:normal;font-variant-alternates:normal;font-variant-caps:normal;font-variant-east-asian:normal;font-variant-ligatures:normal;font-variant-numeric:normal;font-variant-position:normal;font-variation-settings:normal;inline-size:0;isolation:auto;mix-blend-mode:normal;shape-margin:0;shape-padding:0;text-decoration-color:#000;text-decoration-line:none;text-decoration-style:solid;text-indent:0;text-orientation:mixed;text-transform:none;white-space:normal" paint-order="stroke markers fill"/><g fill="#102aa4"><path d="M18.17 10.1v2.567h-4.04v-1.86z" fill="#dad7e5"/><path d="M19.52 29.31L18.234 13.5h-4.161l-1.286 15.81c-.082.998-1.428.864-1.347-.135l1.347-16.49c.031-.387.324-.684.673-.682h5.386c.35-.002.642.295.674.682l1.347 16.49c.08 1-1.266 1.134-1.347.135z" color="#000" style="font-feature-settings:normal;font-variant-alternates:normal;font-variant-caps:normal;font-variant-east-asian:normal;font-variant-ligatures:normal;font-variant-numeric:normal;font-variant-position:normal;font-variation-settings:normal;inline-size:0;isolation:auto;mix-blend-mode:normal;shape-margin:0;shape-padding:0;text-decoration-color:#000;text-decoration-line:none;text-decoration-style:solid;text-indent:0;text-orientation:mixed;text-transform:none;white-space:normal" paint-order="stroke markers fill"/><path d="M11.75 28.6l6.491-4.55-5.696-2.354a.673.75 0 0 1-.08-1.364l5.446-3.208-4.84-3.748a.673.75 0 0 1 .767-1.229c6.107 4.737 6.06 4.535 6.06 5.127s-.108.465-5.454 3.613c6.06 2.504 5.939 2.294 5.992 2.931.054.637.209.345-7.952 6.072a.685.763 0 0 1-.734-1.289z" fill="#425b72"/></g><g color="#000" paint-order="stroke markers fill"><path d="M26.14 8.713L3.6 12.666c-1.143.212-2.002-1.014-1.4-2 .465-.773-1.03-.307 23.63-4.607.195 1.613.121 1.007.317 2.653z" fill="#374f68" style="font-feature-settings:normal;font-variant-alternates:normal;font-variant-caps:normal;font-variant-east-asian:normal;font-variant-ligatures:normal;font-variant-numeric:normal;font-variant-position:normal;font-variation-settings:normal;inline-size:0;isolation:auto;mix-blend-mode:normal;shape-margin:0;shape-padding:0;text-decoration-color:#000;text-decoration-line:none;text-decoration-style:solid;text-indent:0;text-orientation:mixed;text-transform:none;white-space:normal"/><path d="M28.94 14l-2.02 1.333-2.925-13.33h4.271c.97 2.667 2.956 6.753.673 12z" fill="#d40221" style="font-feature-settings:normal;font-variant-alternates:normal;font-variant-caps:normal;font-variant-east-asian:normal;font-variant-ligatures:normal;font-variant-numeric:normal;font-variant-position:normal;font-variation-settings:normal;inline-size:0;isolation:auto;mix-blend-mode:normal;shape-margin:0;shape-padding:0;text-decoration-color:#000;text-decoration-line:none;text-decoration-style:solid;text-indent:0;text-orientation:mixed;text-transform:none;white-space:normal"/><path d="M2.012 24H8v6H2.012z" fill="#8a3f18" style="font-feature-settings:normal;font-variant-alternates:normal;font-variant-caps:normal;font-variant-east-asian:normal;font-variant-ligatures:normal;font-variant-numeric:normal;font-variant-position:normal;font-variation-settings:normal;inline-size:0;isolation:auto;mix-blend-mode:normal;shape-margin:0;shape-padding:0;text-decoration-color:#000;text-decoration-line:none;text-decoration-style:solid;text-indent:0;text-orientation:mixed;text-transform:none;white-space:normal"/></g><path paint-order="stroke markers fill" d="M10 28h13v2H10z"/></svg>