<svg width="32" height="34" xmlns="http://www.w3.org/2000/svg"><defs><radialGradient id="a" cx="12" cy="9" r="9" gradientUnits="userSpaceOnUse"><stop stop-color="#fff" offset="0"/><stop stop-color="#a0a0a0" offset="1"/></radialGradient><radialGradient id="b" cx="16" cy="19" r="11" gradientTransform="matrix(1 0 0 .9091 0 .727)" gradientUnits="userSpaceOnUse"><stop stop-color="#a60101" offset="0"/><stop stop-color="#f46430" offset="1"/></radialGradient></defs><path d="M16 0C9.955 0 5 4.955 5 11c0 .683.072.35.193 1H4a2 2 0 0 0-2 2v6a2 2 0 0 0 2 2h2v10a2 2 0 0 0 2 2h2c.807 0 1.9-.961 1.934-1.986L12.001 30l4-2 4 2-.027 1.937C19.959 32.98 21.174 34 22 34h2a2 2 0 0 0 2-2V22h2a2 2 0 0 0 2-2v-6a2 2 0 0 0-2-2h-1.193c.12-.65.193-.317.193-1 0-6.045-4.955-11-11-11z" color="#000" fill="#f2f2f2" style="font-feature-settings:normal;font-variant-alternates:normal;font-variant-caps:normal;font-variant-east-asian:normal;font-variant-ligatures:normal;font-variant-numeric:normal;font-variant-position:normal;font-variation-settings:normal;inline-size:0;isolation:auto;mix-blend-mode:normal;shape-margin:0;shape-padding:0;text-decoration-color:#000;text-decoration-line:none;text-decoration-style:solid;text-indent:0;text-orientation:mixed;text-transform:none;white-space:normal" paint-order="stroke markers fill"/><path d="M24 11a8 8 0 1 1-16 0 8 8 0 0 1 16 0z" color="#000" fill="url(#a)" stroke-linecap="round" style="font-feature-settings:normal;font-variant-alternates:normal;font-variant-caps:normal;font-variant-east-asian:normal;font-variant-ligatures:normal;font-variant-numeric:normal;font-variant-position:normal;font-variation-settings:normal;inline-size:0;isolation:auto;mix-blend-mode:normal;shape-margin:0;shape-padding:0;text-decoration-color:#000;text-decoration-line:none;text-decoration-style:solid;text-indent:0;text-orientation:mixed;text-transform:none;white-space:normal" transform="matrix(1.028 0 0 1.025 -.452 -.28)" stroke="#000" stroke-linejoin="round" stroke-width="1.461"/><g fill="none"><path d="M9 32V20" stroke="#a80302" stroke-width="2"/><path d="M5 18h22" stroke="url(#b)" stroke-width="4"/><path d="M5 20v-6" stroke="#5c4e4e" stroke-width="2"/><g stroke="#a80302"><path d="M23 21L9 29M23 29L9 21"/><path d="M23 32V20" stroke-width="2"/></g><path d="M27 20v-6" stroke="#5c4e4e" stroke-width="2"/></g></svg>