<svg width="32" height="32" xmlns="http://www.w3.org/2000/svg"><defs><radialGradient id="a" cx="211.2" cy="236.5" r="65.39" gradientTransform="matrix(.1129 -.08589 .2518 .3355 -63.39 -41.19)" gradientUnits="userSpaceOnUse"><stop stop-color="#535353" offset="0"/><stop stop-color="#dcdcdc" offset="1"/></radialGradient></defs><path d="M6.841.004C4.224-.055 2.053 2.932 3.207 5.303c.582 1.482 2.13 2.343 3.593 2.512L7.634 12l-5.318 3.767c-1.085.528-1.777 1.859-.988 2.957 1.496 1.698 3.15 3.35 5.262 4.315 1.448.805 3.13 1.066 4.687 1.496.662.913-.922 1.568-1.594 1.86-1.126.872-.51 2.634-.6 3.9.01 1.423 1.67 1.867 2.85 1.68 5.858-.025 11.72.052 17.57-.04 1.362-.276 1.609-1.813 1.462-2.955.17-1.237-.112-3.011-1.714-3.06-.923-.251-2.152.361-2.917-.288-.546-2.213-1.007-4.463-1.481-6.695.479-1.045 1.292-1.983 1.617-3.124 1.506-3.999.85-8.723-1.778-12.13-.372-1.319-2.172-2.042-3.253-1.057l-5.524 3.348-4.922-1.295s.473-1.68-.364-2.712C9.392.657 8.992-.003 6.834.001z" color="#000" fill="#f2f2f2" style="font-feature-settings:normal;font-variant-alternates:normal;font-variant-caps:normal;font-variant-east-asian:normal;font-variant-ligatures:normal;font-variant-numeric:normal;font-variant-position:normal;font-variation-settings:normal;inline-size:0;isolation:auto;mix-blend-mode:normal;shape-margin:0;shape-padding:0;text-decoration-color:#000;text-decoration-line:none;text-decoration-style:solid;text-indent:0;text-orientation:mixed;text-transform:none;white-space:normal"/><path d="M21.63 18.76c3.174-3.061 4.069-8.247 1.934-12.14-.42-.473-.764-2.106-1.513-1.286l-18.2 12.4c2.927 3.838 8.414 5.425 12.96 3.886 3.191-1.422 3.367-1.623 4.819-2.866z" color="#000" fill="url(#a)" stroke="#000" stroke-linejoin="round" stroke-width="1.3" style="font-feature-settings:normal;font-variant-alternates:normal;font-variant-caps:normal;font-variant-east-asian:normal;font-variant-ligatures:normal;font-variant-numeric:normal;font-variant-position:normal;font-variation-settings:normal;inline-size:0;isolation:auto;mix-blend-mode:normal;shape-margin:0;shape-padding:0;text-decoration-color:#000;text-decoration-line:none;text-decoration-style:solid;text-indent:0;text-orientation:mixed;text-transform:none;white-space:normal"/><g fill="none"><path d="M20.4 28.1v-6.451" stroke="#0257c1" stroke-width="6"/><path d="M20.2 22.7v-4" stroke="#00cbfb" stroke-width="4"/><path d="M18 28l1-5.489" stroke="#137bfd" stroke-width="2"/></g><path d="M20.213 17.625c-1.472-.034-2.929 1.079-3.114 2.57a7.26 7.26 0 0 1-.21 1.766c-.391 2.091-.799 4.182-1.177 6.274.004.518.551.763 1.004.68 2.448.006 4.895.005 7.343.002.458-.024.78-.526.608-.951-.441-2.378-.896-4.75-1.345-7.126.2-1.388-.861-2.726-2.176-3.08a3.32 3.32 0 0 0-.933-.134zm0 1.36c.959-.043 1.904.9 1.646 1.874-.167 1.022-1.411 1.564-2.323 1.157-.846-.303-1.294-1.424-.811-2.2.299-.52.892-.836 1.487-.831zm-2.014 3.832c1.115.888 2.814.921 3.95.053.16-.095.109.322.174.458l.8 4.232h-5.82l.896-4.743z" paint-order="stroke markers fill"/><path d="M10.47 11.53l4.157-2.74" fill="none" stroke="#00cbfb" stroke-width="2"/><path d="M7.023 1.79c-.642.022-1.29.27-1.705.766-.428.421-.536 1.387-.258 2.123.21.42.577.73.998.927.593.246 1.07.17 1.63.117l2.836 3.112c-.951 1.063-1.174 2.662-.48 3.899.186.335.435.773.902.761a.764.764 0 0 0 .334-.078c1.611-1.076 3.204-2.177 4.808-3.265.355-.178.68-.547.524-.945-.388-.66-1.073-1.142-1.815-1.413-1.028-.385-2.218-.286-3.184.205l-2.96-3.055c.287-.484.326-.839.337-1.333.018-.86-.745-1.861-1.967-1.821zm6.413 7.128c.493 0 .986.14 1.384.42l-3.622 2.468c-.32-.88.043-1.935.856-2.469.397-.28.89-.42 1.383-.42z" paint-order="stroke markers fill"/><path d="M10.93 27.74h18.15v2.379H10.93z" color="#000" style="font-feature-settings:normal;font-variant-alternates:normal;font-variant-caps:normal;font-variant-east-asian:normal;font-variant-ligatures:normal;font-variant-numeric:normal;font-variant-position:normal;font-variation-settings:normal;inline-size:0;isolation:auto;mix-blend-mode:normal;shape-margin:0;shape-padding:0;text-decoration-color:#000;text-decoration-line:none;text-decoration-style:solid;text-indent:0;text-orientation:mixed;text-transform:none;white-space:normal" paint-order="stroke markers fill"/><circle cx="6.984" cy="3.747" r="1.011" fill="#e4e4e4" paint-order="stroke markers fill"/><path d="M10 29h20" fill="none"/></svg>