<svg width="32" height="32" viewBox="-0.5 -0.5 32 32" xmlns="http://www.w3.org/2000/svg"><defs><linearGradient id="a" x1="27.5" x2="27.5" y1="23.5" y2="-2.5" gradientTransform="translate(-12 1)" gradientUnits="userSpaceOnUse"><stop stop-color="#512314" offset="0"/><stop stop-color="#97472e" offset="1"/></linearGradient></defs><path d="M15.5-.487c-2-.013-2.888 3.087-4 4.988L9.617 23.14c-2.414 1.424-4.589 3.22-6.665 5.09-1.187 1.296.091 3.55 1.799 3.27h3.93c1.7-.534 2.912-1.951 4.515-2.691 1.511-.872 3.506-.77 5.042-.014 1.757.827 3.264 2.22 5.164 2.706 1.481-.017 2.965.034 4.443-.028 2.162-.334 2.061-3.387.18-4.081-2.227-1.67-4.471-3.342-6.931-4.66L19.5 4.504c-.87-1.716-2-5-4-4.987z" color="#000" fill="#f2f2f2" style="font-feature-settings:normal;font-variant-alternates:normal;font-variant-caps:normal;font-variant-east-asian:normal;font-variant-ligatures:normal;font-variant-numeric:normal;font-variant-position:normal;font-variation-settings:normal;inline-size:0;isolation:auto;mix-blend-mode:normal;shape-margin:0;shape-padding:0;text-decoration-color:#000;text-decoration-line:none;text-decoration-style:solid;text-indent:0;text-orientation:mixed;text-transform:none;white-space:normal" paint-order="stroke markers fill"/><path d="M19.25 24.5l-1.75-20-2-3-2 3-2 20h2l2-16 2 16z" color="#000" fill="url(#a)" style="font-feature-settings:normal;font-variant-alternates:normal;font-variant-caps:normal;font-variant-east-asian:normal;font-variant-ligatures:normal;font-variant-numeric:normal;font-variant-position:normal;font-variation-settings:normal;inline-size:0;isolation:auto;mix-blend-mode:normal;shape-margin:0;shape-padding:0;text-decoration-color:#000;text-decoration-line:none;text-decoration-style:solid;text-indent:0;text-orientation:mixed;text-transform:none;white-space:normal" paint-order="stroke markers fill"/><path d="M0 0h15v15H0z" fill="none"/><path d="M4.5 29.5h4.182c4.818-5 8.818-5 14.64 0h4.182c-9-9-15-9-23 0z" color="#000" style="font-feature-settings:normal;font-variant-alternates:normal;font-variant-caps:normal;font-variant-east-asian:normal;font-variant-ligatures:normal;font-variant-numeric:normal;font-variant-position:normal;font-variation-settings:normal;inline-size:0;isolation:auto;mix-blend-mode:normal;shape-margin:0;shape-padding:0;text-decoration-color:#000;text-decoration-line:none;text-decoration-style:solid;text-indent:0;text-orientation:mixed;text-transform:none;white-space:normal" paint-order="stroke markers fill"/></svg>