<svg width="32" height="26" viewBox="0 0 8.467 6.879" xmlns="http://www.w3.org/2000/svg"><defs><linearGradient id="a" x1="1.587" x2="6.615" y1="4.233" y2="4.233" gradientTransform="matrix(1.038 0 0 1.109 -.163 -.227)" gradientUnits="userSpaceOnUse"><stop stop-color="#636363" offset="0"/><stop stop-color="#a3a3a3" offset="1"/></linearGradient><linearGradient id="b" x1=".921" x2="7.546" y1="2.381" y2="2.381" gradientTransform="matrix(1.038 0 0 1.109 -.162 -.227)" gradientUnits="userSpaceOnUse"><stop stop-color="#47b289" offset="0"/><stop stop-color="#43a852" offset="1"/></linearGradient></defs><g color="#000" paint-order="stroke markers fill"><path d="M4.229.015C3 .026 1.697.259.718 1.052c-.482.407-.777 1.043-.693 1.677.008.605-.023 1.212.012 1.816.118.903.905 1.545 1.709 1.857 1.298.511 2.753.56 4.11.272.965-.227 2.018-.688 2.442-1.65.228-.516.124-1.087.146-1.632-.01-.374.013-.748-.004-1.12C8.327 1.363 7.506.736 6.7.438 5.915.137 5.07.016 4.23.016z" fill="#f2f2f2" style="font-feature-settings:normal;font-variant-alternates:normal;font-variant-caps:normal;font-variant-east-asian:normal;font-variant-ligatures:normal;font-variant-numeric:normal;font-variant-position:normal;font-variation-settings:normal;inline-size:0;isolation:auto;mix-blend-mode:normal;shape-margin:0;shape-padding:0;text-decoration-color:#000;text-decoration-line:none;text-decoration-style:solid;text-indent:0;text-orientation:mixed;text-transform:none;white-space:normal"/><path d="M.8 2.413L.793 4.466c0 .894 1.54 1.619 3.44 1.619s3.44-.725 3.44-1.619l-.006-2.053c-.653.375-2.404 1.619-3.434 1.619-1.03 0-2.78-1.244-3.434-1.619z" fill="url(#a)" stroke="#000" stroke-linecap="round" stroke-linejoin="round" stroke-width=".529" style="font-feature-settings:normal;font-variant-alternates:normal;font-variant-caps:normal;font-variant-east-asian:normal;font-variant-ligatures:normal;font-variant-numeric:normal;font-variant-position:normal;font-variation-settings:normal;inline-size:0;isolation:auto;mix-blend-mode:normal;shape-margin:0;shape-padding:0;text-decoration-color:#000;text-decoration-line:none;text-decoration-style:solid;text-indent:0;text-orientation:mixed;text-transform:none;white-space:normal"/><path d="M7.673 2.413c0 .894-1.54 1.619-3.44 1.619S.793 3.307.793 2.413 2.333.794 4.233.794s3.44.725 3.44 1.619z" fill="url(#b)" stroke="#000" stroke-linecap="round" stroke-linejoin="round" stroke-width=".529" style="font-feature-settings:normal;font-variant-alternates:normal;font-variant-caps:normal;font-variant-east-asian:normal;font-variant-ligatures:normal;font-variant-numeric:normal;font-variant-position:normal;font-variation-settings:normal;inline-size:0;isolation:auto;mix-blend-mode:normal;shape-margin:0;shape-padding:0;text-decoration-color:#000;text-decoration-line:none;text-decoration-style:solid;text-indent:0;text-orientation:mixed;text-transform:none;white-space:normal"/></g><g fill="none"><path d="M7.673 2.511H3.706" stroke="#000" stroke-width=".265"/><g stroke="#e8f900" stroke-width=".529"><path d="M6.615 2.381v-.53M5.027 3.175v-.53M4.498 2.381v-.53M3.44 2.646v-.53"/></g><g stroke="#fff" stroke-width=".529"><path d="M5.556 2.381v-.53M6.085 3.175v-.53M3.969 3.175v-.53"/></g></g></svg>