<svg width="32" height="34" xmlns="http://www.w3.org/2000/svg"><defs><linearGradient id="a" x1="21.5" x2="30.5" y1="8" y2="8" gradientTransform="translate(0 -.7)" gradientUnits="userSpaceOnUse"><stop stop-color="#b59d2e" offset="0"/><stop stop-color="#d0da35" offset="1"/></linearGradient></defs><g color="#000" paint-order="stroke markers fill"><path d="M29.93 3.301a2 2 0 0 0-.178.016l-8 1A2 2 0 0 0 20 6.3v2a2 2 0 0 0 1.752 1.984l8 1A2 2 0 0 0 32 9.3v-4a2 2 0 0 0-2.07-2z" fill="#f2f2f2" style="font-feature-settings:normal;font-variant-alternates:normal;font-variant-caps:normal;font-variant-east-asian:normal;font-variant-ligatures:normal;font-variant-numeric:normal;font-variant-position:normal;font-variation-settings:normal;inline-size:0;isolation:auto;mix-blend-mode:normal;shape-margin:0;shape-padding:0;text-decoration-color:#000;text-decoration-line:none;text-decoration-style:solid;text-indent:0;text-orientation:mixed;text-transform:none;white-space:normal"/><path d="M22 6.3l8-1v4l-8-1z" fill="url(#a)" style="font-feature-settings:normal;font-variant-alternates:normal;font-variant-caps:normal;font-variant-east-asian:normal;font-variant-ligatures:normal;font-variant-numeric:normal;font-variant-position:normal;font-variation-settings:normal;inline-size:0;isolation:auto;mix-blend-mode:normal;shape-margin:0;shape-padding:0;text-decoration-color:#000;text-decoration-line:none;text-decoration-style:solid;text-indent:0;text-orientation:mixed;text-transform:none;white-space:normal"/><path d="M14.97 0a2 2 0 0 0-.857.209L7.769 3.354c-1.666.828-1.398 3.284.408 3.732v.709c-1.176-.072-2.084 1.042-2.113 2v3.275a2 2 0 0 0 1.809 1.992l-1.86 16.58a2 2 0 0 0 1.77 2.211l1.183.13a2 2 0 0 0 2.207-1.765l.043-.381h7.574l.043.38a2 2 0 0 0 2.207 1.767l1.182-.131a2 2 0 0 0 1.77-2.211l-1.86-16.59a2.001 2.001 0 0 0 1.81-1.99V9.787c-.454-1.22-1.021-1.971-2.113-2v-.709c1.806-.448 2.075-2.904.408-3.732L15.893.201a2 2 0 0 0-.92-.209z" fill="#f2f2f2" style="font-feature-settings:normal;font-variant-alternates:normal;font-variant-caps:normal;font-variant-east-asian:normal;font-variant-ligatures:normal;font-variant-numeric:normal;font-variant-position:normal;font-variation-settings:normal;inline-size:0;isolation:auto;mix-blend-mode:normal;shape-margin:0;shape-padding:0;text-decoration-color:#000;text-decoration-line:none;text-decoration-style:solid;text-indent:0;text-orientation:mixed;text-transform:none;white-space:normal"/><path d="M15 2L8.657 5.145h1.52v4.651H8.063v3.276h2.045l-1.757 15.67-.35 3.125 1.182.13.242-2.158h11.15l.241 2.158 1.182-.13-.341-3.047-1.765-15.75h2.045V9.794h-2.114V5.143h1.52zm-5.749 8.975h.925v.917h-.925zm2.114 0h.925v.917h-.925zm2.114 0h.925v.917h-.925zm2.114 0h.925v.917h-.925zm2.114 0h.925v.917h-.925zm2.114 0h.925v.917h-.925zm-7.488 2.096h5.329l-2.665 2.348zm-1.1.608l2.729 2.405h-2.999l.27-2.405zm7.53 0l.27 2.405h-3zm-7.931 3.585h2.074l-2.301 2.028.227-2.028zm3.864 0h.605l3.419 3.013h-7.444zm2.395 0h2.074l.227 2.028-2.3-2.028zm-5.55 4.193h6.914l-3.457 2.493zm-1.242.563l3.399 2.45h-3.674l.275-2.45zm9.399 0l.275 2.45h-3.674l3.399-2.45zm-9.805 3.63h2.749l-2.991 2.156zm4.771 0h.67l4.18 3.013h-9.03zm2.693 0h2.749l.242 2.156-2.991-2.156z" style="font-feature-settings:normal;font-variant-alternates:normal;font-variant-caps:normal;font-variant-east-asian:normal;font-variant-ligatures:normal;font-variant-numeric:normal;font-variant-position:normal;font-variation-settings:normal;inline-size:0;isolation:auto;mix-blend-mode:normal;shape-margin:0;shape-padding:0;text-decoration-color:#000;text-decoration-line:none;text-decoration-style:solid;text-indent:0;text-orientation:mixed;text-transform:none;white-space:normal"/></g><path d="M10.18 5.145v4.651h9.647V5.145z" fill="#1f4cff"/><path d="M11.83 6.193h2.114v3.145H11.83zm4.229 0h2.114v3.145h-2.114z" fill="#fff"/></svg>