<svg width="32" height="32" xmlns="http://www.w3.org/2000/svg"><defs><radialGradient id="a" cx="16" cy="13.7" r="6.101" gradientTransform="matrix(1.985 .00003 -.00003 2.229 -15.85 -15.58)" gradientUnits="userSpaceOnUse"><stop stop-color="#00effb" offset="0"/><stop stop-color="#0114b8" offset="1"/></radialGradient></defs><g color="#000" paint-order="stroke markers fill"><path d="M15.97 0c-1.989-.013-2.103 2.326-2.987 3.6-1.665 3.09-4.198 5.806-4.942 9.322-2.147.025-4.301-.052-6.444.04C.391 13.168-.155 14.449 0 15.557c-.226 1.928.895 4.019 2.849 4.518 1.031-.083 1.337.495.503 1.17-1.126 1.697-.61 4.055.908 5.333 1.013 1.112 2.091 2.45 3.75 2.432 1.085.057 2.2-.357 2.942-1.16.135.976.354 2.202 1.175 2.96 1.013 1.203 2.637 1.254 4.081 1.192 1.442.118 3.02-.23 3.906-1.475.833-.486.586-2.524 1.076-2.532 1.59 1.572 4.438 1.255 5.73-.54 1.087-1.146 2.426-2.352 2.34-4.085a4.043 4.043 0 0 0-1.2-2.864c.704-.624 2.338-.505 2.965-1.63 1.115-1.23 1.08-3.008.884-4.547-.322-1.2-1.635-1.528-2.725-1.405h-5.348c-.962-4.362-4.526-7.5-6.031-11.64a2.006 2.006 0 0 0-1.836-1.285z" fill="#f2f2f2" style="font-feature-settings:normal;font-variant-alternates:normal;font-variant-caps:normal;font-variant-east-asian:normal;font-variant-ligatures:normal;font-variant-numeric:normal;font-variant-position:normal;font-variation-settings:normal;inline-size:0;isolation:auto;mix-blend-mode:normal;shape-margin:0;shape-padding:0;text-decoration-color:#000;text-decoration-line:none;text-decoration-style:solid;text-indent:0;text-orientation:mixed;text-transform:none;white-space:normal"/><path d="M2 14.92v1.335c0 1.074.818 1.948 1.822 1.948h.897c.306 0 .577.213.673.527.179.586.402 1.161.664 1.711a.787.787 0 0 1-.133.87l-.634.68c-.71.76-.71 1.996 0 2.756l1.623 1.737c.71.76 1.867.76 2.577 0l.636-.68a.666.666 0 0 1 .813-.142c.514.281 1.053.519 1.6.71.294.102.49.393.49.72v.958c0 1.074.818 1.95 1.822 1.95h2.296c1.005 0 1.822-.875 1.822-1.95v-.958c0-.327.198-.618.492-.72a10.715 10.715 0 0 0 1.6-.71.666.666 0 0 1 .814.143l.636.679c.71.76 1.867.76 2.577 0l1.623-1.737c.71-.76.71-1.996 0-2.756l-.636-.68a.787.787 0 0 1-.132-.87c.263-.55.486-1.125.665-1.71.096-.315.367-.528.673-.528h.897c1.005 0 1.82-.873 1.82-1.948V14.92H23.77l.002.064c-.001 4.553-3.486 8.244-7.785 8.244-4.3.001-7.787-3.69-7.787-8.244l.006-.064z" fill="#4d4d4d" style="font-feature-settings:normal;font-variant-alternates:normal;font-variant-caps:normal;font-variant-east-asian:normal;font-variant-ligatures:normal;font-variant-numeric:normal;font-variant-position:normal;font-variation-settings:normal;inline-size:0;isolation:auto;mix-blend-mode:normal;shape-margin:0;shape-padding:0;text-decoration-color:#000;text-decoration-line:none;text-decoration-style:solid;text-indent:0;text-orientation:mixed;text-transform:none;white-space:normal"/><path d="M15.94 2c2.034 5.312 6.101 8.411 6.101 12.84 0 3.245-2.807 6.641-6.101 6.641s-6.101-3.396-6.101-6.641c0-4.427 4.068-7.526 6.101-12.84z" fill="url(#a)" style="font-feature-settings:normal;font-variant-alternates:normal;font-variant-caps:normal;font-variant-east-asian:normal;font-variant-ligatures:normal;font-variant-numeric:normal;font-variant-position:normal;font-variation-settings:normal;inline-size:0;isolation:auto;mix-blend-mode:normal;shape-margin:0;shape-padding:0;text-decoration-color:#000;text-decoration-line:none;text-decoration-style:solid;text-indent:0;text-orientation:mixed;text-transform:none;white-space:normal"/></g></svg>