<svg width="32" height="32" version="1" viewBox="0 0 1.92 1.92" xmlns="http://www.w3.org/2000/svg"><g stroke-linejoin="round" stroke-width="4.998" paint-order="stroke markers fill" color="#000"><path d="M.12 0a.12.12 0 0 0-.117.123v1.676c0 .068.053.12.118.12H1.8a.117.117 0 0 0 .116-.12V1.06c0-.067-.11-.182-.175-.183L1.537.87 1.38.42C1.277.269 1.02.049.84-.002.598 0 .363-.001.12-.001z" fill="#f2f2f2" style="font-feature-settings:normal;font-variant-alternates:normal;font-variant-caps:normal;font-variant-east-asian:normal;font-variant-ligatures:normal;font-variant-numeric:normal;font-variant-position:normal;font-variation-settings:normal;inline-size:0;isolation:auto;mix-blend-mode:normal;shape-margin:0;shape-padding:0;text-decoration-color:#000;text-decoration-line:none;text-decoration-style:solid;text-indent:0;text-orientation:mixed;text-transform:none;white-space:normal"/><path d="M.6.212L.12.219v1.58H1.8V1.12l-.477-.007L1.2.53.84.21z" fill="#81d4fa" style="font-feature-settings:normal;font-variant-alternates:normal;font-variant-caps:normal;font-variant-east-asian:normal;font-variant-ligatures:normal;font-variant-numeric:normal;font-variant-position:normal;font-variation-settings:normal;inline-size:0;isolation:auto;mix-blend-mode:normal;shape-margin:0;shape-padding:0;text-decoration-color:#000;text-decoration-line:none;text-decoration-style:solid;text-indent:0;text-orientation:mixed;text-transform:none;white-space:normal"/></g><g fill="#1976d2" stroke-width=".048"><path d="M.587.12H.493C.493.174.451.219.4.219S.307.174.307.12H.213C.213.174.171.219.12.219v.099a.171.171 0 0 0 .14-.07c.033.04.084.07.14.07S.507.293.54.248c.033.04.084.07.14.07v-.1C.629.219.587.175.587.12zM.587.416H.493c0 .055-.042.1-.093.1S.307.47.307.415H.213c0 .055-.042.1-.093.1v.098a.171.171 0 0 0 .14-.07c.033.04.084.07.14.07S.507.589.54.544c.033.04.084.07.14.07V.515C.629.515.587.471.587.416zM.587.713H.493C.493.767.451.812.4.812S.307.767.307.712H.213c0 .055-.042.1-.093.1V.91A.171.171 0 0 0 .26.84c.033.04.084.07.14.07S.507.886.54.84c.033.04.084.07.14.07v-.1C.629.812.587.768.587.714zM.587 1.009H.493c0 .054-.042.099-.093.099s-.093-.045-.093-.099H.213c0 .054-.042.099-.093.099v.099a.171.171 0 0 0 .14-.07c.033.04.084.07.14.07s.107-.025.14-.07c.033.04.084.07.14.07v-.1c-.051 0-.093-.044-.093-.098zM.587 1.306H.493c0 .054-.042.099-.093.099S.307 1.36.307 1.306H.213c0 .054-.042.099-.093.099v.099a.171.171 0 0 0 .14-.07c.033.04.084.07.14.07s.107-.025.14-.07c.033.04.084.07.14.07v-.1c-.051 0-.093-.044-.093-.098zM.587 1.602H.493c0 .054-.042.099-.093.099s-.093-.045-.093-.099H.213c0 .054-.042.099-.093.099V1.8a.171.171 0 0 0 .14-.07c.033.04.084.07.14.07s.107-.025.14-.07c.033.04.084.07.14.07v-.1c-.051 0-.093-.044-.093-.098zM1.707 1.306h-.093c0 .054-.042.099-.094.099s-.093-.045-.093-.099h-.093c0 .054-.042.099-.094.099s-.093-.045-.093-.099h-.093c0 .054-.042.099-.094.099v.099a.171.171 0 0 0 .14-.07c.033.04.084.07.14.07s.108-.025.14-.07c.033.04.084.07.14.07s.108-.025.14-.07c.033.04.084.07.14.07v-.1c-.051 0-.093-.044-.093-.098zM1.707 1.009h-.093c0 .054-.042.099-.094.099s-.093-.045-.093-.099h-.093c0 .054-.042.099-.094.099s-.093-.045-.093-.099h-.093c0 .054-.042.099-.094.099v.099a.171.171 0 0 0 .14-.07c.033.04.084.07.14.07s.108-.025.14-.07c.033.04.084.07.14.07s.108-.025.14-.07c.033.04.084.07.14.07v-.1c-.051 0-.093-.044-.093-.098z"/><path d="M.94.219C.889.219.847.174.847.12H.753C.753.174.711.219.66.219v.099A.171.171 0 0 0 .8.248c.033.04.084.07.14.07z"/><path d="M1.253.489L1.191.415a.09.09 0 0 1-.132-.007.103.103 0 0 1 .007-.14L1.003.195A.09.09 0 0 1 .871.188L.802.254a.17.17 0 0 0 .142.064.21.21 0 0 0 .045.156.17.17 0 0 0 .143.064.21.21 0 0 0 .045.156l.07-.066a.103.103 0 0 1 .006-.14z"/><path d="M1.431 1.036L1.408.94A.093.093 0 0 1 1.295.87a.1.1 0 0 1 .067-.12L1.339.653a.093.093 0 0 1-.114-.071l-.09.024c.014.057.05.104.098.126a.211.211 0 0 0-.029.161c.014.058.05.104.098.127a.211.211 0 0 0-.029.16l.09-.024a.1.1 0 0 1 .068-.12zM1.707 1.604h-.093c0 .054-.042.099-.094.099s-.093-.045-.093-.099h-.093c0 .054-.042.099-.094.099s-.093-.045-.093-.099h-.093c0 .054-.042.099-.094.099v.099a.171.171 0 0 0 .14-.07c.033.04.084.07.14.07s.108-.025.14-.07c.033.04.084.07.14.07s.108-.025.14-.07c.033.04.084.07.14.07v-.1c-.051 0-.093-.044-.093-.098z"/></g><path d="M.891.54L1.19 1.8H.56V.387h.15C.797.387.876.454.89.54z" fill="#262626"/></svg>