<?xml version="1.0" encoding="UTF-8" standalone="no"?>
<!-- Created with Inkscape (http://www.inkscape.org/) -->

<svg
   width="32.0px"
   height="32.0px"
   viewBox="0 0 32.0 32.0"
   version="1.1"
   id="SVGRoot"
   xmlns="http://www.w3.org/2000/svg"
   xmlns:svg="http://www.w3.org/2000/svg">
  <defs
     id="defs427" />
  <g
     id="layer1">
    <path
       id="rect4292-7-6-2"
       style="fill:#ffffff;fill-opacity:1;stroke:none;stroke-width:1.00157;stroke-linecap:round;stroke-linejoin:round;stroke-dasharray:none;paint-order:fill markers stroke"
       d="M 20.555587,0.33918958 C 18.910788,0.45399548 17.839739,2.1513291 18.042213,3.7031814 18.082649,4.2782411 17.299445,3.4843933 16.943439,3.4073009 16.094588,3.4911337 15.152508,3.2421031 14.447107,3.8381082 10.29554,6.1461241 6.0825126,8.3605376 1.8393991,10.485179 c -0.88534601,0.540783 -1.35602971,1.647438 -1.02786651,2.645206 0.42383571,1.384208 1.93642891,2.147586 3.30404921,2.257251 0,3.378439 0,6.756879 0,10.13532 -1.7471909,0.419174 -2.5151369,2.577655 -1.7554113,4.111464 0.553308,1.246995 2.0143644,1.721143 3.2940732,1.568689 7.3762153,-0.01255 14.7542883,0.02509 22.1293423,-0.01882 1.620436,-0.109811 2.774055,-1.764976 2.490254,-3.322423 -0.113111,-1.093536 -0.946343,-2.05777 -2.011704,-2.338912 0,-3.384721 0,-6.769444 0,-10.154166 1.676241,0.04014 3.530859,-1.402488 3.313342,-3.194379 -0.149146,-1.254285 -1.335549,-1.887317 -2.37033,-2.3538624 -1.852552,-0.955717 -3.700825,-1.919355 -5.54803,-2.885294 C 23.591255,5.419898 23.797188,3.8782946 23.537973,2.3801998 23.193255,1.0836054 21.902591,0.17329138 20.555587,0.33918958 Z" />
    <path
       id="path15803"
       style="fill:#a80012;fill-opacity:1;stroke-width:0.999996"
       d="M 21.015625 1.4492188 C 20.434102 1.4492188 19.871442 1.84521 19.847656 2.2539062 C 19.849609 3.8881825 19.820318 4.883138 19.818359 6.7285156 C 18.407633 5.9839823 16.706574 5.0879634 16.201172 4.8183594 C 16.141982 4.8043194 16.146411 4.7730724 16.09375 4.7636719 C 14.192353 5.8761528 6.2268152 10.194528 2.34375 12.041016 C 1.6990589 12.767363 3.566021 13.529148 3.9804688 13.375 L 3.9824219 13.375 L 5.7402344 12.865234 L 5.7402344 27.78125 L 4.5292969 27.78125 C 4.0378394 27.78125 3.6425781 28.157673 3.6425781 28.623047 L 3.6425781 28.941406 C 3.6425781 29.406779 4.0378394 29.78125 4.5292969 29.78125 L 27.888672 29.78125 C 28.380129 29.78125 28.775391 29.406779 28.775391 28.941406 L 28.775391 28.623047 C 28.775391 28.157673 28.380129 27.78125 27.888672 27.78125 L 26.677734 27.78125 L 26.677734 12.869141 C 27.367144 13.075285 28.052705 13.286905 28.761719 13.431641 C 29.59718 13.254141 30.834196 12.357222 29.617188 11.857422 C 27.559955 10.797036 24.771745 9.3362542 22.251953 8.0117188 L 22.251953 2.2539062 C 22.251953 1.8077428 21.78465 1.4492188 21.203125 1.4492188 L 21.015625 1.4492188 z " />
    <path
       style="fill:none;stroke:#ffc0c6;stroke-width:1;stroke-linecap:round;stroke-linejoin:bevel;stroke-dasharray:none;stroke-opacity:1;paint-order:fill markers stroke"
       d="M 3.7470726,12.899472 15.887588,9.9018137 28.83971,12.999911"
       id="path733" />
    <rect
       style="fill:#ffffff;fill-opacity:1;stroke:none;stroke-width:1.31825;stroke-linecap:square;stroke-dasharray:none;stroke-opacity:1;paint-order:markers fill stroke"
       id="rect30663"
       width="4.9298201"
       height="4.01476"
       x="9.0900393"
       y="15.07132" />
    <rect
       style="fill:#ffffff;fill-opacity:1;stroke:none;stroke-width:1.31825;stroke-linecap:square;stroke-dasharray:none;stroke-opacity:1;paint-order:markers fill stroke"
       id="rect30663-7"
       width="4.8923492"
       height="4.01476"
       x="18.579672"
       y="15.01228" />
  </g>
</svg>
