<?xml version="1.0" encoding="UTF-8" standalone="no"?>
<!-- Created with Inkscape (http://www.inkscape.org/) -->

<svg
   width="32.0px"
   height="32.0px"
   viewBox="0 0 32.0 32.0"
   version="1.1"
   id="SVGRoot"
   sodipodi:docname="archeological.svg"
   inkscape:version="1.2.2 (732a01da63, 2022-12-09)"
   xmlns:inkscape="http://www.inkscape.org/namespaces/inkscape"
   xmlns:sodipodi="http://sodipodi.sourceforge.net/DTD/sodipodi-0.dtd"
   xmlns:xlink="http://www.w3.org/1999/xlink"
   xmlns="http://www.w3.org/2000/svg"
   xmlns:svg="http://www.w3.org/2000/svg">
  <sodipodi:namedview
     id="namedview1239"
     pagecolor="#ffffff"
     bordercolor="#000000"
     borderopacity="0.25"
     inkscape:showpageshadow="2"
     inkscape:pageopacity="0.0"
     inkscape:pagecheckerboard="0"
     inkscape:deskcolor="#d1d1d1"
     inkscape:document-units="px"
     showgrid="true"
     inkscape:zoom="16.423743"
     inkscape:cx="16.774495"
     inkscape:cy="8.0371445"
     inkscape:window-width="1858"
     inkscape:window-height="1057"
     inkscape:window-x="1420"
     inkscape:window-y="-8"
     inkscape:window-maximized="1"
     inkscape:current-layer="layer1">
    <inkscape:grid
       type="xygrid"
       id="grid1362" />
  </sodipodi:namedview>
  <defs
     id="defs1234">
    <linearGradient
       inkscape:collect="always"
       id="linearGradient9154">
      <stop
         style="stop-color:#992700;stop-opacity:0;"
         offset="0"
         id="stop9152" />
      <stop
         style="stop-color:#992700;stop-opacity:1;"
         offset="0.41800642"
         id="stop9150" />
    </linearGradient>
    <radialGradient
       xlink:href="#linearGradient1035"
       id="radialGradient1765"
       cx="16.512676"
       cy="15.951938"
       fx="16.512676"
       fy="15.951938"
       r="12.677008"
       gradientTransform="matrix(0.85994808,0,0,1.1044114,1.4605131,-1.4829668)"
       gradientUnits="userSpaceOnUse" />
    <linearGradient
       id="linearGradient1035">
      <stop
         style="stop-color:#992700;stop-opacity:0;"
         offset="0"
         id="stop1033" />
      <stop
         style="stop-color:#992700;stop-opacity:1;"
         offset="0.4405145"
         id="stop1031" />
    </linearGradient>
    <radialGradient
       inkscape:collect="always"
       xlink:href="#linearGradient9154"
       id="radialGradient9156"
       cx="15.825492"
       cy="16.457106"
       fx="15.825492"
       fy="16.457106"
       r="11.407137"
       gradientTransform="matrix(1,0,0,1.1460686,0,-2.4038668)"
       gradientUnits="userSpaceOnUse" />
  </defs>
  <g
     inkscape:label="Layer 1"
     inkscape:groupmode="layer"
     id="layer1">
    <path
       id="path8938-0"
       style="fill:#ffffff;fill-opacity:1;stroke:none;stroke-width:0;stroke-dasharray:none"
       d="m 13.091202,1.4886406 c -2.159845,0.012428 -4.3172919,0.1174616 -6.474609,0.2148438 -0.4818656,0.62974 -1.0929197,1.2300502 -1.0240428,2.0881794 -0.067594,0.857901 0.1299852,1.8201931 0.1236522,2.60518 -2.0163185,0.4931071 -3.7065595,2.3998106 -3.5312495,4.5429682 -0.0091,1.384847 0.615579,2.721993 0.569438,4.091434 -0.504701,2.571575 0.7227905,5.096536 2.165296,7.152032 0.8323239,1.266368 2.0138987,2.408498 2.9820623,3.467472 -1.0930292,0.976706 -1.2338454,2.762858 -0.2441406,3.863281 1.3774835,1.608078 3.6348534,1.884332 5.6136624,2.104882 2.004362,-0.02332 4.024008,0.106729 6.018254,-0.103704 1.803193,-0.296326 3.973959,-0.732553 4.893475,-2.505084 0.575252,-1.108996 0.210514,-2.538201 -0.705078,-3.353516 1.965729,-1.804875 3.676957,-3.98285 4.631813,-6.49311 0.555659,-1.465035 0.682634,-3.097813 0.297964,-4.616638 0.07182,-1.517197 0.781723,-2.988864 0.546785,-4.53283 -0.235432,-1.7420236 -1.743614,-2.9751779 -3.322266,-3.5292966 0.429647,-1.5524625 0.14736,-3.1712712 0.0332,-4.7460938 -4.188732,-0.2167516 -8.380489,-0.2683539 -12.57422,-0.25 z" />
    <path
       d="m 13.43287,29.516808 c -0.05352,-0.0096 -0.265159,-0.04174 -0.470317,-0.07141 -0.707686,-0.102239 -1.183177,-0.181923 -1.248304,-0.209181 -0.03595,-0.01504 -0.152908,-0.04563 -0.259944,-0.06786 -0.336409,-0.07001 -0.548351,-0.126043 -0.639285,-0.168913 -0.04835,-0.02282 -0.09655,-0.04141 -0.107147,-0.04141 -0.119113,0 -0.7858292,-0.371365 -1.0608773,-0.59093 C 9.4474606,28.207837 9.2644437,27.916857 9.220503,27.689022 9.169716,27.425763 9.3977386,27.04266 9.7531605,26.794065 c 0.1636513,-0.114463 0.5274885,-0.296022 0.6794285,-0.339042 0.04461,-0.01263 0.205154,-0.09359 0.356789,-0.179929 0.151637,-0.08634 0.289512,-0.157128 0.306391,-0.157302 0.01689,-1.9e-4 0.08359,-0.0238 0.14822,-0.0524 0.06464,-0.0286 0.191142,-0.06859 0.281113,-0.08889 0.08997,-0.02025 0.197742,-0.05133 0.239481,-0.06901 0.0759,-0.03224 0.0759,-0.03224 -0.04065,-0.144366 C 11.584048,25.628512 11.294372,25.403776 10.95037,25.16299 10.37695,24.761621 9.851669,24.348689 9.4534058,23.986217 9.4121738,23.948695 9.3336319,23.878705 9.2788738,23.830709 9.175798,23.740355 8.8108103,23.363486 8.8108103,23.347411 c 0,-0.005 -0.039648,-0.04861 -0.088124,-0.09682 -0.098399,-0.09794 -0.1640754,-0.168067 -0.2860459,-0.305424 -0.045562,-0.05133 -0.1350265,-0.149284 -0.1988073,-0.217711 -0.063775,-0.06844 -0.1493496,-0.161722 -0.1901597,-0.207337 -0.04081,-0.04562 -0.1411189,-0.157582 -0.2229131,-0.24881 -0.08179,-0.09123 -0.1488163,-0.174469 -0.1489484,-0.184973 -1.584e-4,-0.0105 -0.021223,-0.03397 -0.046881,-0.05206 -0.04931,-0.0348 -0.6669181,-0.815572 -0.6669181,-0.843077 0,-0.0089 -0.027559,-0.05396 -0.061278,-0.100363 -0.1685455,-0.231851 -0.3279473,-0.462818 -0.3279473,-0.47519 0,-0.0075 -0.028351,-0.0534 -0.062983,-0.101769 C 6.4751725,20.465526 6.3792233,20.314016 6.2966055,20.177171 6.2139925,20.040322 6.1096075,19.867706 6.0646426,19.793585 6.0196626,19.719457 5.9475925,19.593497 5.9044544,19.513671 5.8613221,19.433831 5.8116634,19.349876 5.7941197,19.327064 5.7480827,19.267139 5.5259461,18.80224 5.4276326,18.55991 5.3813837,18.445868 5.3069238,18.263185 5.2621964,18.153937 5.1527276,17.886563 4.9947038,17.266202 4.9527851,16.939271 c -0.018795,-0.146392 -0.050471,-0.382533 -0.070391,-0.524758 -0.055403,-0.395112 -3.643e-4,-0.955102 0.1182328,-1.203162 0.087781,-0.183575 0.035319,-0.911859 -0.1155244,-1.604281 -0.034475,-0.158219 -0.055972,-0.294607 -0.047779,-0.30308 0.00818,-0.0085 -0.00528,-0.08429 -0.029829,-0.168482 -0.024602,-0.08418 -0.061906,-0.269699 -0.082902,-0.412247 -0.021012,-0.142547 -0.044664,-0.2825 -0.05253,-0.311006 C 4.6375355,12.287577 4.5587135,11.94113 4.4952126,11.634728 4.3953096,11.152693 4.3922004,10.288143 4.4894026,10.017471 4.5262526,9.9148352 4.5749296,9.7702132 4.5975622,9.6960922 4.6505462,9.52255 4.9074486,9.1766249 5.158934,8.9401937 5.3582165,8.7528417 5.6933861,8.5243624 5.8009596,8.5025427 c 0.032047,-0.00662 0.058259,-0.020001 0.058259,-0.030085 0,-0.025209 0.3123255,-0.1553749 0.5474183,-0.2281736 0.3709324,-0.1148595 1.1015998,-0.2015105 1.4797965,-0.175492 0.4911978,0.033804 0.9893116,0.1382166 1.3019376,0.2729372 0.086507,0.037275 0.6557629,0.3994339 0.833161,0.530047 0.09167,0.067523 0.09167,0.067523 0.07266,-0.2435221 C 10.319195,8.1828911 9.7931884,8.1179948 9.7178562,7.9902922 9.4732507,7.9760763 8.681265,7.3342834 8.6049877,7.248955 8.2232238,6.7325683 8.5016421,6.8806662 8.0767332,6.3784633 7.9183819,6.1689852 7.7189279,3.588716 7.8721369,3.5597635 10.827947,3.4191959 12.091032,3.371189 15.59986,3.386458 c 3.92573,0.036291 4.367706,-0.00963 8.456961,0.1770324 0.02,0.033308 0.185206,2.0471592 -0.302807,2.6871135 -0.1828,0.2395792 -0.448228,0.801772 -0.751854,1.0754292 -0.07272,0.1112479 -0.58222,0.6006535 -0.773054,0.616134 -0.268391,0.021737 -0.368917,0.049343 -0.40612,0.1114874 -0.07403,0.123604 -0.140026,0.7718405 -0.07851,0.7711796 0.01335,-1.403e-4 0.184885,-0.097924 0.381117,-0.2172799 0.196234,-0.1193639 0.373248,-0.2172141 0.393364,-0.2174455 0.02012,-2.314e-4 0.05644,-0.015704 0.08073,-0.034465 0.0696,-0.05364 0.554698,-0.1910964 0.797341,-0.225975 0.582426,-0.083733 0.857204,-0.080253 1.394586,0.017605 0.355254,0.064716 0.932405,0.3253129 1.417626,0.6401456 0.353679,0.2294797 0.38363,0.255721 0.567941,0.4976143 0.240963,0.3162382 0.375261,0.5766626 0.421392,0.8171334 0.07771,0.405022 0.02169,1.062698 -0.160462,1.884847 -0.02022,0.09123 -0.04176,0.207859 -0.04783,0.259176 -0.0062,0.05133 -0.02555,0.135291 -0.04318,0.186609 -0.03351,0.09741 -0.07411,0.275558 -0.134604,0.59092 -0.01969,0.102635 -0.04968,0.233264 -0.06667,0.290277 -0.125845,0.42265 -0.14973,1.342444 -0.04451,1.713654 0.151499,0.534418 0.1539,0.553395 0.154461,1.220219 5.22e-4,0.613327 -0.03131,0.946698 -0.108889,1.140373 -0.016,0.03992 -0.04541,0.16121 -0.06543,0.269549 -0.07299,0.395366 -0.416875,1.326634 -0.620164,1.679452 -0.03617,0.06273 -0.09308,0.170021 -0.126521,0.238447 -0.109601,0.224206 -0.2612,0.479688 -0.489165,0.824357 -0.051,0.07712 -0.09268,0.150556 -0.09268,0.163285 0,0.02471 -0.0443,0.09248 -0.357253,0.546676 -0.179897,0.26106 -0.912459,1.196352 -1.106526,1.412739 -0.08601,0.09591 -0.431735,0.492069 -0.529637,0.606912 -0.142412,0.167062 -1.336982,1.280637 -1.72787,1.610728 -0.09329,0.07878 -0.260483,0.221099 -0.371562,0.316279 -0.111079,0.09518 -0.251131,0.198965 -0.311238,0.230637 -0.0601,0.03166 -0.177599,0.117075 -0.261099,0.18979 -0.0835,0.07273 -0.24297,0.205131 -0.354376,0.294252 -0.111401,0.08914 -0.202549,0.166254 -0.202549,0.171377 0,0.005 0.142305,0.05347 0.316241,0.107512 0.298362,0.09263 0.588197,0.225438 0.963194,0.441363 0.09016,0.05191 0.247067,0.125893 0.348669,0.164384 0.669848,0.25377 1.048389,0.792007 0.902597,1.283408 -0.119985,0.404433 -0.721803,0.82674 -1.541423,1.081634 -0.649368,0.201957 -1.602775,0.395797 -2.36779,0.481425 -0.238233,0.0267 -5.17672,0.03984 -5.319417,0.01422 z M 25.218669,13.107051 c 0.07796,-0.08446 0.211886,-0.397467 0.283975,-0.663701 0.07076,-0.411761 0.210114,-0.815355 0.324078,-1.150745 0.04488,-0.154043 0.03233,-0.08184 0.03254,-0.479114 2.02e-4,-0.49068 -0.137779,-0.667362 -0.224276,-0.8676408 -0.114287,-0.265101 -0.534928,-0.5316346 -0.753817,-0.6788933 -0.214652,-0.1443996 -1.048822,0.02313 -1.398694,0.040917 -0.613767,0.1993816 -0.779979,0.4321163 -1.228424,1.1139011 -0.254586,0.387055 0.08648,0.979103 0.61943,1.389182 0.201295,0.154889 0.816283,0.544131 1.015529,0.642758 0.252046,0.124761 1.01101,0.565189 1.105802,0.6417 0.126659,0.10223 0.13962,0.102909 0.223858,0.01165 z m -18.6032243,0.0075 c 0.038962,-0.01272 0.136526,-0.06315 0.2168049,-0.112058 0.080279,-0.04893 0.2408368,-0.135723 0.3567941,-0.192941 0.115952,-0.05724 0.2473201,-0.123028 0.2919154,-0.146195 0.044611,-0.02314 0.2041131,-0.105536 0.3544712,-0.183047 C 8.6574577,12.056558 8.9210437,11.873595 9.4722109,11.344159 9.7533452,11.074106 9.7556842,11.069643 9.755188,10.804549 9.6678338,10.258352 9.7423201,10.367561 9.2435038,9.8364312 8.989147,9.5877193 8.7360459,9.4762999 8.2917876,9.3307858 8.0567528,9.2538387 7.9636837,9.1492372 7.5813054,9.1403423 6.9234208,9.2753559 7.0107143,9.2702034 6.5753656,9.4409031 6.2245952,9.5227303 6.1120502,9.8356442 5.9823505,10.087158 c -0.2145663,0.41608 -0.2240203,0.607009 -0.036923,1.350343 0.027294,0.108331 0.070164,0.294939 0.095325,0.414675 0.025183,0.119744 0.06018,0.264367 0.077818,0.321378 0.059864,0.193493 0.1253072,0.43504 0.1460711,0.53909 0.024707,0.123902 0.1329517,0.358943 0.1830376,0.397525 0.043555,0.03355 0.07586,0.03438 0.167775,0.0041 z"
       id="path8938"
       fill="#ffffff"
       stroke="#ffffff"
       stroke-width="0.279013"
       style="fill:url(#radialGradient9156);fill-opacity:1;stroke:none;stroke-width:0;stroke-dasharray:none"
       sodipodi:nodetypes="ccsccsccssscscccsscscccccccscsccccccscccccccccccscscccccccccccccccscscccsscsccscccccccsscsssscccscscscccccccccccsssscccccccsccccccccccscc" />
  </g>
</svg>
