<?xml version="1.0" encoding="UTF-8" standalone="no"?>
<!-- Created with Inkscape (http://www.inkscape.org/) -->

<svg
   width="32.0px"
   height="32.0px"
   viewBox="0 0 32.0 32.0"
   version="1.1"
   id="SVGRoot"
   xmlns="http://www.w3.org/2000/svg"
   xmlns:svg="http://www.w3.org/2000/svg">
  <defs
     id="defs47976" />
  <g
     id="layer1">
    <path
       id="path45313-9"
       style="fill:#f9f9f9;fill-opacity:1;stroke-width:0.0520198"
       d="M 13.37613,7.3530098 C 11.834221,7.4562756 10.144285,7.7250883 8.9515717,8.736984 7.7203354,9.815205 6.5928948,11.199295 6.594819,12.882713 c -0.023872,0.630003 0.092517,1.264237 0.3275416,1.851682 -2.0063472,-0.709726 -4.4716758,0.06179 -5.5170116,1.890289 -0.75961732,1.22288 -0.69715552,2.798388 -0.2894381,4.124521 1.3682445,2.991129 4.0388438,5.344607 7.0862857,6.720859 4.0135234,1.724285 8.5814074,1.868979 12.8554854,1.13652 3.438302,-0.810741 6.872551,-2.544131 8.808719,-5.496743 1.381497,-2.43935 1.227645,-5.464903 -0.03796,-7.916567 C 28.615943,12.837027 26.549973,10.88742 24.132878,9.68334 20.804891,8.172605 17.142968,7.2250651 13.443769,7.3512668 Z m 0.04043,5.5569922 c -0.0028,0.02716 -0.375516,-0.01191 0,0 z m 7.250385,1.148043 c 0.06502,0.226749 -0.166361,-0.02931 0,0 z" />
    <path
       d="M 13.636297,8.92055 C 12.615306,8.92805 11.574202,9.067267 10.430166,9.58776 10.239169,9.63318 9.8360598,10.155041 9.4678687,10.492774 8.278531,11.583821 8.05987,13.130548 8.9085614,14.437567 9.7906405,15.796162 9.6424672,16.733117 8.4991983,17.024842 8.0150409,17.148359 7.8018646,17.115202 6.733213,16.767501 6.0648424,16.550015 5.2773184,16.373749 4.9844526,16.375362 c -0.8275101,0.0044 -1.6253087,0.416755 -2.0595939,1.061156 -0.3259454,0.483618 -0.3821355,0.698222 -0.3857691,1.536715 -0.00463,1.072097 0.1532459,1.448999 1.2065959,2.926228 1.0700669,1.500574 2.6531357,2.847545 4.4791681,3.809896 1.2555198,0.661642 3.5647054,1.361282 4.9399674,1.510098 1.37526,0.148866 3.48366,0.410554 6.99528,-0.09934 2.616918,-0.504766 5.206054,-1.872055 6.598716,-3.194166 1.392721,-1.322111 1.63716,-1.911273 1.984588,-3.330772 C 29.166571,18.865881 28.585794,16.49033 27.298894,14.682451 26.453682,13.495044 24.92836,12.091712 23.784148,11.451023 21.828464,10.355923 18.311712,9.25755 16.021636,9.025265 15.212641,8.988485 14.430426,8.91469 13.636297,8.92055 Z"
       fill="white"
       id="path45313"
       style="fill:#ac8905;fill-opacity:1;stroke-width:0.053674" />
    <path
       style="fill:#00ffff;stroke:none;stroke-width:3.99899;stroke-linecap:round;paint-order:fill markers stroke"
       d="M 8.4764968,23.414215 C 7.9877982,23.299641 7.0091626,23.070202 6.4446235,22.680572 5.8800845,22.290941 5.7305746,21.740302 5.7099879,21.005914 c -0.020587,-0.734387 0.088148,-1.652122 0.571149,-2.203256 0.4830008,-0.551134 1.3392894,-0.734682 2.2704619,-0.843591 0.9311725,-0.10891 1.9369712,-0.143325 2.6368132,0.144068 0.699841,0.287393 1.094006,0.895393 1.100395,1.462731 0.0064,0.567338 -0.374182,1.095035 -0.57806,1.560027 -0.203879,0.464992 -0.231062,0.866502 -0.658916,1.256004 -0.427855,0.389502 -1.2569569,0.768067 -1.6717946,0.957481 -0.4148377,0.189413 -0.414841,0.189411 -0.9035396,0.07484 z"
       id="path48607" />
    <path
       style="fill:#ff0000;stroke:none;stroke-width:3.73023;stroke-linecap:round;paint-order:fill markers stroke"
       d="m 15.912646,25.578259 c -0.154788,-0.02367 -0.465454,-0.07118 -0.788304,-0.245448 -0.322849,-0.174264 -0.657576,-0.475819 -0.865922,-0.813526 -0.208347,-0.337706 -0.289608,-0.711788 -0.281365,-1.056842 0.0082,-0.345055 0.106358,-0.660426 0.167473,-1.016125 0.06112,-0.355699 0.08508,-0.75191 0.193391,-0.961812 0.10831,-0.209902 0.30006,-0.232545 0.551661,-0.283526 0.2516,-0.05098 0.563197,-0.130224 0.742564,-0.310907 0.179367,-0.180683 0.227304,-0.46369 0.527358,-0.662238 0.300054,-0.198547 0.851337,-0.31175 1.330921,-0.30584 0.479585,0.0059 0.887054,0.130434 1.318391,0.436401 0.431337,0.305968 0.886743,0.792739 1.252411,1.217815 0.365667,0.425075 0.64166,0.788318 0.767119,1.159021 0.12546,0.370702 0.101119,0.748812 -0.019,1.132979 -0.120121,0.384168 -0.335868,0.7747 -0.638226,1.08674 -0.302358,0.31204 -0.691825,0.546113 -1.212016,0.668292 -0.520191,0.12218 -1.171344,0.132277 -1.675052,0.11012 -0.503707,-0.02216 -0.859736,-0.07673 -1.038185,-0.104088 -0.178448,-0.02736 -0.178428,-0.02734 -0.333217,-0.05102 z"
       id="path49028" />
    <path
       style="fill:#ffff00;stroke:none;stroke-width:4.30905;stroke-linecap:round;paint-order:fill markers stroke"
       d="m 26.412882,17.47857 c -0.184302,0.409075 -0.552713,1.226799 -1.005937,1.839797 -0.453224,0.612997 -0.991661,1.021852 -1.472925,1.200889 -0.481264,0.179036 -0.906346,0.127929 -1.295976,0.01319 -0.389631,-0.114737 -0.743865,-0.29361 -1.176297,-0.772467 -0.432432,-0.478856 -0.942529,-1.258234 -1.190909,-2.037751 -0.248381,-0.779517 -0.234208,-1.558894 -0.07838,-2.153462 0.155833,-0.594568 0.45339,-1.003422 1.240497,-1.105598 0.787107,-0.102176 2.062349,0.10225 3.004472,0.58827 0.942123,0.486019 1.551404,1.252618 1.855583,1.635337 0.304179,0.382718 0.304168,0.382718 0.119867,0.791792 z"
       id="path49032" />
    <path
       style="fill:#00ff00;stroke:none;stroke-width:3.81451;stroke-linecap:round;paint-order:fill markers stroke"
       d="m 18.837623,12.886932 c -0.457354,0.330946 -1.372331,0.993034 -1.99341,1.611916 -0.621078,0.618883 -0.947849,1.194129 -1.267819,1.568367 -0.31997,0.374239 -0.633672,0.547898 -1.103919,0.624013 -0.470246,0.07612 -1.097646,0.05441 -1.757801,-0.297898 -0.660155,-0.352303 -1.35291,-1.036086 -1.751946,-1.6113 -0.399036,-0.575215 -0.503602,-1.041921 -0.510301,-1.633631 -0.0067,-0.59171 0.0848,-1.308053 0.470807,-1.769817 0.38601,-0.461764 1.065695,-0.667984 1.686823,-0.667653 0.621127,3.31e-4 1.183175,0.206551 1.745184,0.325755 0.562009,0.119203 1.124058,0.151762 1.646766,0.113649 0.522709,-0.03811 1.006331,-0.14665 1.483628,-0.124655 0.477297,0.02199 0.947848,0.173945 1.215389,0.347964 0.267542,0.174018 0.332896,0.369385 0.398242,0.570182 0.06535,0.200796 0.1307,0.407017 0.163205,0.509584 0.0325,0.102566 0.0325,0.102578 -0.424848,0.433524 z"
       id="path49036" />
    <path
       fill-rule="evenodd"
       clip-rule="evenodd"
       d="M 5.7271675,6.2595055 C 4.1946301,5.0982802 4.4474881,3.7567604 4.5899278,2.7058511 5.199713,3.1445636 5.6477354,3.3609264 6.657442,4.1467721 7.3792328,4.7085037 7.0842088,5.1974872 7.245489,5.7531085 Z"
       fill="white"
       id="path45317"
       style="fill:#ff0000;stroke-width:0.0637069" />
    <path
       style="fill:#483737;fill-opacity:1;stroke:none;stroke-width:2;stroke-linecap:square;stroke-dasharray:none;stroke-opacity:1;paint-order:fill markers stroke"
       d="M 14.980453,17.309853 12.892025,17.390177 5.7833385,6.5464177 7.3898212,5.9841488 Z"
       id="path57378" />
    <path
       style="fill:#483737;fill-opacity:1;stroke:none;stroke-width:1.31701;stroke-linecap:square;stroke-dasharray:none;stroke-opacity:1;paint-order:fill markers stroke"
       d="m 23.575135,30.382606 -1.613413,0.76308 -2.563441,-3.882333 1.767841,-0.415008 z"
       id="path57378-8" />
  </g>
</svg>
