<?xml version="1.0" encoding="UTF-8" standalone="no"?>
<!-- Created with Inkscape (http://www.inkscape.org/) -->

<svg
   width="30"
   height="32"
   viewBox="0 0 30 32"
   version="1.1"
   id="svg1"
   xmlns="http://www.w3.org/2000/svg"
   xmlns:svg="http://www.w3.org/2000/svg">
  <defs
     id="defs1" />
  <g
     id="layer1">
    <path
       class="st0"
       d="M 7.6114276,5.999825 4.3265848,30.412406 H 25.759811 L 22.474033,5.999825 Z"
       id="path2-0"
       style="fill:#f9f9f9;fill-opacity:1;stroke:#000000;stroke-width:2.42249;stroke-dasharray:none;stroke-opacity:1" />
    <path
       class="st0"
       d="M 7.6114963,5.9998646 4.3266535,30.412447 H 25.759881 L 22.474103,5.9998646 Z M 9.0424006,9.1124213 C 9.3823356,9.0871385 9.709404,9.0184773 10.013667,8.9161483 10.316117,8.812575 10.595701,8.6753339 10.840608,8.5115788 11.083644,8.3490581 11.292001,8.159951 11.458314,7.9505004 11.621878,7.7445945 11.743395,7.5194231 11.810996,7.283464 h 6.463664 c 0.06853,0.2360357 0.189119,0.4611305 0.352683,0.6682692 0.165377,0.2082958 0.374612,0.3985576 0.618583,0.5610783 0.243971,0.1649879 0.523556,0.3009997 0.826006,0.4033368 0.304262,0.1035733 0.63139,0.1709972 0.971266,0.196273 l 0.449581,4.3684127 c -0.352683,-0.376903 -0.76934,-0.718822 -1.237167,-1.019819 -0.463265,-0.298611 -0.977698,-0.556302 -1.529558,-0.766986 -0.54917,-0.210683 -1.138514,-0.374437 -1.756161,-0.48525 -0.614958,-0.110819 -1.260967,-0.170997 -1.927035,-0.170997 -0.666068,0 -1.312136,0.06018 -1.927971,0.170997 -0.616771,0.110807 -1.206115,0.274567 -1.755285,0.48525 -0.551917,0.210684 -1.065414,0.468375 -1.5295567,0.766986 -0.4668915,0.300997 -0.8844843,0.642993 -1.2371666,1.019819 z M 21.467224,25.038699 c -0.362741,0.168607 -0.688933,0.394937 -0.970389,0.6695 -0.281456,0.27696 -0.517182,0.602075 -0.694429,0.965646 -0.17912,0.367272 -0.299702,0.775461 -0.349058,1.210088 H 10.63225 C 10.582894,27.44923 10.463189,27.041041 10.283192,26.673845 10.105945,26.310197 9.8710963,25.985082 9.5887636,25.708199 9.3082435,25.433636 8.9820516,25.207306 8.6193107,25.038699 8.2583831,24.871325 7.8600288,24.761744 7.4360617,24.719588 L 8.0537671,18.72327 c 0.2978891,0.44911 0.6834944,0.865699 1.1421397,1.240213 0.4642012,0.379294 1.0032532,0.714045 1.6045262,0.992156 0.604899,0.280579 1.270967,0.502129 1.982764,0.656248 0.714548,0.151734 1.47383,0.233571 2.259661,0.233571 0.785831,0 1.545113,-0.08191 2.259659,-0.233571 0.712734,-0.154119 1.377925,-0.375669 1.984636,-0.656248 0.599403,-0.278111 1.138515,-0.612862 1.602657,-0.992156 0.459581,-0.374437 0.844308,-0.791103 1.142138,-1.240213 l 0.616772,5.996318 c -0.423149,0.04215 -0.820626,0.151737 -1.181496,0.319111 z"
       id="path2"
       style="fill:#00ca00;fill-opacity:1;stroke:none;stroke-width:0.193799;stroke-dasharray:none;stroke-opacity:1" />
    <path
       class="st0"
       d="M 27.951004,0 H 2.1401499 C 0.99982346,0.00119913 0.07604171,1.2173273 0.07510658,2.7211648 v 8.1624172 c 9.3224e-4,1.503916 0.92471688,2.721244 2.06504332,2.721244 H 5.0202064 L 5.3866307,10.883582 H 2.1401499 V 2.7211648 H 27.951004 v 8.1624172 h -3.246481 l 0.366426,2.721244 h 2.880055 c 1.140327,0 2.064109,-1.217328 2.065044,-2.721244 V 2.7211648 C 30.015109,1.2173273 29.091331,0.00123274 27.951004,0 Z"
       id="path4"
       style="fill:#1b331c;fill-opacity:1;stroke-width:0.0671296" />
    <ellipse
       style="fill:#00ca00;fill-opacity:1;stroke-width:1.45349"
       id="path1"
       cx="14.923472"
       cy="24.438326"
       rx="2.4700146"
       ry="1.446833" />
    <ellipse
       style="fill:#00ca00;fill-opacity:1;stroke-width:1.22599"
       id="path1-1"
       cx="14.946438"
       cy="9.1367083"
       rx="2.2477133"
       ry="1.1311604" />
  </g>
</svg>
