<?xml version="1.0" encoding="UTF-8" standalone="no"?>
<!-- Created with Inkscape (http://www.inkscape.org/) -->

<svg
   width="32.0px"
   height="32.0px"
   viewBox="0 0 32.0 32.0"
   version="1.1"
   id="SVGRoot"
   xmlns="http://www.w3.org/2000/svg"
   xmlns:svg="http://www.w3.org/2000/svg">
  <defs
     id="defs40982" />
  <g
     id="layer1">
    <path
       id="path42237"
       style="fill:#f4e3d7;fill-opacity:1;stroke:none;stroke-width:1.14068"
       d="m 10.424032,5.4285371 c -1.2096181,0.015659 -2.4230798,0.3171863 -3.5428606,0.9148897 -0.012591,0.00595 -0.023653,0.013589 -0.036198,0.019745 -0.016541,0.00887 -0.033278,0.015079 -0.049772,0.024132 v 0.00219 C 2.0623131,8.7532885 0.70655406,15.002616 2.9061993,19.608226 c 3.0549675,6.724131 10.8710247,9.023115 17.1351367,6.900069 0.358999,-0.10424 0.715264,-0.225191 1.065574,-0.362007 0.175154,-0.06841 0.34782,-0.140973 0.520343,-0.217204 1.552701,-0.686076 2.992665,-1.685051 4.207995,-2.917994 0.270074,-0.273988 0.529322,-0.55937 0.775991,-0.855652 2.220017,-2.666529 3.442735,-6.202009 2.773657,-9.980415 -0.0074,-0.04176 -0.0125,-0.08324 -0.02037,-0.125058 h -0.0023 C 28.69263,7.3821832 24.137653,4.5806523 19.944055,5.6786508 18.436626,6.0734157 17.095765,6.7295993 15.896687,7.5676678 14.366419,6.1401893 12.40147,5.4029478 10.424032,5.4285371 Z" />
    <path
       d="M 10.411052,5.4336862 C 9.2045461,5.449383 7.9954604,5.7511389 6.8785619,6.3501291 c -0.012558,0.00599 -0.024254,0.013238 -0.036761,0.019404 -0.0165,0.00894 -0.033674,0.015626 -0.05013,0.024698 v 0.00203 C 2.0709671,8.7651456 0.71930137,15.027719 2.9132849,19.643254 c 3.0471037,6.73862 10.8429791,9.042474 17.0909651,6.914854 5.729189,-1.67148 10.505571,-7.631333 9.319155,-14.362975 -0.0073,-0.04185 -0.01222,-0.08345 -0.02006,-0.125368 h -0.0031 C 28.63244,7.3919709 24.090318,4.5842873 19.907522,5.6846504 18.403969,6.080268 17.06471,6.7377054 15.86872,7.5775796 14.342388,6.1470236 12.383588,5.4082638 10.41124,5.4339077 Z m 11.578343,1.1883807 c 0.148896,-0.011054 0.289182,0.089364 0.330859,0.2472073 l 0.330858,1.2501835 c 0.0023,0.00731 0.005,0.015493 0.0067,0.022971 0.04183,0.1821127 -0.06494,0.3654507 -0.237282,0.4096612 -0.172339,0.044235 -0.345837,-0.068628 -0.387672,-0.2507428 L 21.702033,7.0511695 c -0.04763,-0.180405 0.05153,-0.3663976 0.222245,-0.4167323 0.02132,-0.0066 0.04391,-0.010789 0.06517,-0.012385 z m -9.297431,0.7893068 c 0.177191,-0.00782 0.326816,0.1376646 0.334199,0.3249089 0.0073,0.1872372 -0.130273,0.3453541 -0.307465,0.3531546 L 11.49386,8.1883306 C 11.31713,8.2025031 11.163016,8.0625386 11.149631,7.875784 11.136237,7.6890303 11.268668,7.5261649 11.445398,7.5120289 l 1.224843,-0.098883 c 0.0072,-6.624e-4 0.01448,-0.00132 0.02174,-0.00203 z m -5.9504242,0.633919 c 0.021321,4.297e-4 0.04189,0.00397 0.063498,0.00884 l 1.1997748,0.2842928 c 0.00715,0.00132 0.013037,0.00336 0.020054,0.00529 0.1715606,0.047476 0.2755199,0.2336656 0.2305972,0.4149575 -0.044905,0.1812836 -0.221124,0.2893765 -0.3926845,0.2419079 L 6.664674,8.714502 C 6.4917948,8.6732541 6.3833273,8.4928207 6.4223793,8.3101381 6.4565508,8.1502871 6.5923061,8.042061 6.7415398,8.0452663 Z M 18.084275,8.4196422 c 0.103081,6.553e-4 0.204193,0.054425 0.265687,0.1518595 0.0984,0.1559192 0.05899,0.365728 -0.08857,0.4697033 L 17.26214,9.7987297 c -0.144034,0.1091323 -0.342877,0.07451 -0.446156,-0.07769 -0.103277,-0.1522039 -0.07051,-0.3640995 0.07353,-0.4732317 l 0.997587,-0.7575257 c 0.0058,-0.00468 0.01068,-0.00813 0.0167,-0.012385 0.05534,-0.039003 0.118621,-0.058662 0.18047,-0.058265 z m 8.832897,0.782249 c 0.177191,-0.00782 0.326815,0.1376635 0.334198,0.3249079 0.0073,0.1872372 -0.130273,0.345354 -0.307465,0.3531545 l -1.224843,0.098893 C 25.542338,9.9929476 25.388223,9.8530546 25.374838,9.6663 25.361448,9.4795393 25.493875,9.316682 25.670605,9.3025449 l 1.224843,-0.098883 c 0.0073,-6.624e-4 0.01443,-0.00132 0.02174,-0.00203 z M 10.49293,9.5780013 c 0.848155,0.00397 1.70078,0.2650384 2.397881,0.7592927 -1.937837,2.27874 -3.5937766,5.510883 -4.6721182,8.05911 -0.2993075,0.674745 -0.2313667,1.46686 0.1787942,2.073041 0.4101658,0.606182 1.0986622,0.932182 1.799666,0.851111 0.701008,-0.08107 1.306051,-0.555774 1.582435,-1.24135 1.003923,-2.372366 2.503765,-5.186326 4.077247,-7.013756 1.447976,1.628359 3.058852,4.278111 3.733031,6.355126 0.218397,0.707242 0.78022,1.234512 1.470477,1.38085 0.690254,0.146337 1.401835,-0.11104 1.861491,-0.674535 0.459655,-0.563494 0.596319,-1.344914 0.357593,-2.044787 -0.834291,-2.570297 -2.653059,-5.627604 -4.356312,-7.601777 0.609674,-0.341487 1.249052,-0.6163178 1.926661,-0.7946096 0.250551,-0.065885 0.505841,-0.1009965 0.761973,-0.1077161 1.792944,-0.046947 3.608164,1.2944667 3.844967,3.1643077 l 0.0084,0.06357 0.01167,0.06357 c 0.791152,4.230062 -2.634381,8.586445 -6.588744,9.740124 l -0.0401,0.01239 -0.0401,0.01239 C 14.301554,24.168835 8.454455,22.334591 6.417362,17.829593 l -0.00836,-0.01767 -0.00836,-0.0194 C 5.151959,15.165612 6.0149569,11.309628 8.5111199,10.09365 l 0.043456,-0.02119 0.043456,-0.0247 C 9.176142,9.728344 9.8332732,9.5751862 10.492944,9.5780663 Z M 4.7513814,11.852344 c 0.098876,0.0047 0.1948022,0.05807 0.2539915,0.15186 0.098393,0.155918 0.058984,0.367496 -0.088563,0.471472 L 3.9192239,13.2332 C 3.7751899,13.342333 3.5746741,13.30594 3.471396,13.15374 3.3681189,13.001536 3.400886,12.789647 3.54492,12.680508 L 4.5425057,11.92475 c 0.00574,-0.0047 0.012339,-0.0099 0.018383,-0.0141 0.046108,-0.03251 0.097152,-0.05158 0.1487185,-0.05648 0.014182,-0.0013 0.027649,-0.0027 0.041777,-0.002 z M 19.504623,12.91359 c 0.136883,0.0013 0.26267,0.09608 0.30412,0.241916 0.05101,0.179483 -0.04571,0.36988 -0.215559,0.42379 l -1.163014,0.414958 c -0.167916,0.05992 -0.351011,-0.03443 -0.407721,-0.211895 -0.05672,-0.177438 0.03426,-0.369152 0.202189,-0.429088 l 1.163018,-0.416725 c 0.0068,-0.0027 0.01308,-0.0047 0.02005,-0.0071 0.03187,-0.01016 0.06533,-0.01622 0.09692,-0.01589 z m -5.913664,0.199533 c 0.177192,-0.0079 0.326821,0.137664 0.334199,0.324908 0.0073,0.187245 -0.130272,0.345354 -0.30746,0.35316 l -1.224843,0.09888 c -0.176729,0.01417 -0.330844,-0.125791 -0.344225,-0.312546 -0.01339,-0.186753 0.119038,-0.349611 0.295768,-0.363755 l 1.224838,-0.09888 c 0.0073,-6.63e-4 0.01448,-0.0013 0.02173,-0.002 z m 13.525059,0.1342 c 0.0618,-0.0013 0.124561,0.01675 0.180469,0.05476 l 1.034348,0.701019 c 0.0062,0.004 0.0124,0.008 0.01838,0.01239 0.145843,0.106615 0.182773,0.317346 0.08188,0.471464 -0.1009,0.154118 -0.301983,0.193143 -0.447828,0.08652 l -1.032676,-0.701017 c -0.149095,-0.101271 -0.19275,-0.31215 -0.09692,-0.469703 0.0599,-0.09847 0.159357,-0.152901 0.262347,-0.155389 z m -6.735793,3.489215 c 0.02132,4.25e-4 0.04187,0.004 0.0635,0.0089 l 1.198103,0.286061 c 0.0072,0.0013 0.01471,0.0013 0.02173,0.0033 0.171561,0.04748 0.273851,0.233672 0.228927,0.414964 -0.0449,0.181292 -0.219452,0.289386 -0.391013,0.241916 l -1.198109,-0.284367 c -0.172878,-0.04124 -0.281346,-0.223449 -0.242294,-0.406131 0.03418,-0.159851 0.169926,-0.268078 0.319161,-0.264872 z m -10.209799,0.298417 c 0.0618,-0.0013 0.124561,0.01497 0.18047,0.05298 l 1.034347,0.701019 c 0.0062,0.004 0.0124,0.008 0.01839,0.01239 0.145845,0.106616 0.181103,0.319114 0.08021,0.473232 -0.100899,0.154118 -0.300312,0.193144 -0.446156,0.08652 l -1.034358,-0.702799 c -0.1490951,-0.101261 -0.1910805,-0.310386 -0.09525,-0.467935 0.059896,-0.09847 0.159357,-0.1529 0.262347,-0.155388 z m -5.390638,0.07769 c 0.1771908,-0.0079 0.326817,0.137663 0.3342,0.324907 0.00738,0.187245 -0.1302733,0.345355 -0.3074637,0.353155 L 3.581683,17.889597 C 3.4049538,17.903697 3.2508387,17.763804 3.237457,17.577051 3.224076,17.390296 3.3564946,17.227438 3.5332237,17.213295 l 1.2248418,-0.09888 c 0.00722,-6.62e-4 0.014463,-0.0013 0.021724,-0.002 z m 22.239315,0.840516 c 0.103077,6.55e-4 0.204193,0.05443 0.265687,0.15186 0.09839,0.155918 0.05732,0.365728 -0.09023,0.469703 l -0.997586,0.757525 c -0.144034,0.109139 -0.344552,0.07451 -0.447828,-0.07769 -0.103275,-0.152203 -0.07051,-0.364099 0.07352,-0.473232 l 0.999261,-0.757525 c 0.0058,-0.0047 0.01068,-0.0081 0.0167,-0.01239 0.05532,-0.039 0.118621,-0.05866 0.180469,-0.05826 z m -20.9526466,2.27788 c 0.1367468,0.004 0.2604098,0.102399 0.2991092,0.248975 L 6.696423,21.7302 c 0.00217,0.0073 0.00497,0.01371 0.00668,0.0212 0.041836,0.18212 -0.064943,0.365457 -0.2372818,0.409668 -0.1723387,0.04423 -0.3458344,-0.06686 -0.3876716,-0.248981 l -0.330858,-1.250193 c -0.047629,-0.180397 0.053199,-0.368159 0.2239142,-0.418487 0.032008,-0.0094 0.06369,-0.01337 0.095247,-0.01239 z m 17.7526846,0.773417 c 0.177061,-0.0082 0.326364,0.137802 0.334199,0.324908 l 0.05514,1.296089 c 4.52e-4,0.0078 0.0014,0.01529 0.0018,0.02297 0.0018,0.187397 -0.141825,0.340634 -0.319161,0.342567 -0.177332,0.002 -0.322343,-0.148105 -0.324173,-0.335502 l -0.05514,-1.296097 c -0.0079,-0.187105 0.130403,-0.346639 0.307463,-0.354923 z M 9.2647457,23.586053 c 0.021321,4.3e-4 0.043542,0.004 0.065168,0.0089 l 1.1981033,0.286061 c 0.0072,0.0013 0.01471,0.0033 0.02174,0.0053 0.171561,0.04748 0.273851,0.231905 0.228927,0.413197 -0.0449,0.181292 -0.221122,0.289385 -0.392682,0.241911 L 9.1878893,24.25705 c -0.172882,-0.04124 -0.2813503,-0.223443 -0.2422981,-0.406132 0.034175,-0.159852 0.1699263,-0.26807 0.3191606,-0.264865 z m 11.2057143,0.57918 c 0.177192,-0.0079 0.326816,0.137663 0.334199,0.324907 0.0073,0.187245 -0.130273,0.345356 -0.307464,0.353155 l -1.224843,0.09889 c -0.176726,0.01417 -0.330845,-0.125793 -0.344222,-0.312546 -0.01339,-0.186755 0.119034,-0.349612 0.295764,-0.363755 l 1.224842,-0.09888 c 0.0073,-6.62e-4 0.01448,-0.0013 0.02174,-0.002 z m -6.450052,0.328437 c 0.0618,-0.0013 0.124556,0.01497 0.180469,0.05297 l 1.034347,0.70102 c 0.0062,0.004 0.0124,0.008 0.01839,0.01239 0.145845,0.106622 0.181108,0.319113 0.08021,0.473231 -0.100896,0.154118 -0.300308,0.193144 -0.446157,0.08652 l -1.034359,-0.702797 c -0.14909,-0.10127 -0.191078,-0.310381 -0.09525,-0.467934 0.0599,-0.09847 0.159358,-0.152899 0.262348,-0.15539 z"
       id="path7165"
       fill="#ffffff"
       fill-rule="evenodd"
       stroke-linecap="round"
       stroke-width="4.52893"
       style="fill:#793a00;fill-opacity:1;stroke:#ffffff;stroke-width:0.192316;stroke-dasharray:none;stroke-opacity:1" />
  </g>
</svg>
