<?xml version="1.0" encoding="UTF-8" standalone="no"?>
<!-- Created with Inkscape (http://www.inkscape.org/) -->

<svg
   width="30"
   height="15"
   viewBox="0 0 30 15"
   version="1.1"
   id="SVGRoot"
   xmlns="http://www.w3.org/2000/svg"
   xmlns:svg="http://www.w3.org/2000/svg">
  <defs
     id="defs4299" />
  <g
     id="layer1">
    <path
       id="path4138-6"
       style="fill:#ffffff;fill-opacity:1;stroke-width:1"
       d="m 2.0358858,0.90158463 c -0.6572392,6.511e-4 -1.31447835,0.0013 -1.97171765,0.00195 C 0.04231614,3.3384264 0.02210283,5.7733324 0,8.2082224 c 1.1524602,0.478938 2.2575557,1.15557 3.4404362,1.507837 0.7493756,-0.175817 0.303087,0.7959046 0.4218808,1.2237856 -0.00528,1.327723 0.00224,2.655483 0.00139,3.983221 2.5751487,-0.02451 5.150308,-0.02075 7.725479,-0.002 -0.03678,-1.703583 -0.13636,-3.406958 -0.09528,-5.1113276 2.435154,0 4.870311,0 7.305465,0 0.0058,1.6992296 -0.0064,3.3984406 -0.01167,5.0976556 2.526191,-7.3e-5 5.052126,0.04999 7.577696,-0.0332 -0.0018,-1.688149 -0.01009,-3.376304 -0.0058,-5.0644526 0.89399,-0.152673 1.686197,-0.759521 2.539984,-1.091749 0.556872,-0.268196 1.30691,-0.413777 1.047609,-1.200048 0,-2.204166 0,-4.408333 0,-6.61249957 -9.303794,-0.029334 -18.607472,-0.02387 -27.9112788,-0.00391 z" />
    <path
       d="M 1.9672142,2.9914962 1.9327442,7.0219605 3.6534511,7.8162518 5.8,7.9 c 0.031935,1.9485055 -0.015502,2.596408 0,5.1 1.2773257,-0.0147 2.1247935,-0.0072 3.7,0 -0.074929,-2.008154 -0.050585,-2.794951 0,-5.1 4.055644,0.00572 7.24435,0.00572 11.3,0 0.01312,2.840659 0,4.639004 0,5.1 1.393402,-0.0099 1.999305,0.05161 3.6,0 0,-1.745901 -0.01312,-2.778289 0,-5.1 h 1.8 L 28,7.0442036 V 2.9914962 c -6.407848,-0.025781 -14.389543,-0.034758 -26.0327858,0 z"
       id="path4138"
       fill="#734a08"
       style="fill:#a80012;fill-opacity:1;stroke-width:0.999999" />
  </g>
</svg>
