<?xml version="1.0" encoding="UTF-8" standalone="no"?>
<!-- Created with Inkscape (http://www.inkscape.org/) -->

<svg
   width="32.0px"
   height="32.0px"
   viewBox="0 0 32.0 32.0"
   version="1.1"
   id="SVGRoot"
   xmlns="http://www.w3.org/2000/svg"
   xmlns:svg="http://www.w3.org/2000/svg">
  <defs
     id="defs4459" />
  <g
     id="layer1">
    <path
       d="m 15.768393,1.6466418 c -0.379899,0.040281 -0.743852,0.2125989 -1.01235,0.4792639 L 2.0146318,14.620954 c -0.3109123,0.304705 -0.4919966,0.733038 -0.4920767,1.164104 -5.72e-5,0.431005 0.1808213,0.859458 0.4916192,1.164222 0.3107979,0.304823 0.7476605,0.482216 1.1871998,0.482097 0.4395393,-5.9e-5 0.8763332,-0.17763 1.1870053,-0.482572 0.6315703,0.0161 0.8550575,0.0357 1.5010748,0.03428 H 25.996448 c 0.808068,-0.02276 1.063354,0.0089 1.50104,-0.03428 0.310649,0.30518 0.747489,0.482988 1.187177,0.483167 0.439688,1.78e-4 0.876711,-0.177275 1.1876,-0.482157 0.310901,-0.304884 0.491848,-0.733454 0.491608,-1.164639 -2.86e-4,-0.431125 -0.181439,-0.859577 -0.492637,-1.164222 L 17.129791,2.1259057 C 16.779221,1.7783025 16.264358,1.5970486 15.768393,1.6466418 Z m 2.757763,6.5385022 1.186869,1.1297071 H 12.172878 L 13.289902,8.219423 c 0.13891,0.017047 0.280005,0.017047 0.418904,0 h 4.468222 c 0.117165,5.982e-4 0.234388,-0.010918 0.349128,-0.03422 z m 4.468223,4.38183 1.186868,1.129707 H 7.7046554 l 1.1170241,-1.095428 c 0.1389102,0.01705 0.2800051,0.01705 0.4189039,0 H 22.645261 c 0.117154,5.99e-4 0.234377,-0.01092 0.349118,-0.03422 z M 4.42329,18.078511 c -0.43875,0.04473 -0.8560297,0.266326 -1.1339989,0.60222 -0.2779577,0.335894 -0.4131847,0.781931 -0.3674761,1.212166 0.045754,0.430294 0.2717694,0.839438 0.6143552,1.111943 0.3425858,0.272506 0.7974756,0.404985 1.2361913,0.360073 h 5.5853145 v 1.095428 H 4.7723615 c -0.058108,-0.003 -0.1164334,-0.003 -0.17453,0 -0.058108,-0.003 -0.1164334,-0.003 -0.1745415,0 -0.43875,0.04474 -0.8560297,0.266327 -1.1339989,0.602221 -0.2779577,0.335894 -0.4131847,0.78193 -0.3674761,1.212224 0.045754,0.430235 0.2717694,0.839378 0.6143552,1.111884 0.3425858,0.272506 0.7974756,0.404985 1.2361913,0.360073 h 5.5853145 v 1.095428 H 4.7723615 c -0.058108,-0.003 -0.1164334,-0.003 -0.17453,0 -0.058108,-0.003 -0.1164334,-0.003 -0.1745415,0 -0.43875,0.04474 -0.8560297,0.266327 -1.1339989,0.602221 -0.2779577,0.335894 -0.4131847,0.781931 -0.3674761,1.212224 0.045754,0.430234 0.2717694,0.839378 0.6143552,1.111884 0.3425858,0.272505 0.7974756,0.404986 1.2361913,0.360073 h 6.1438605 c 0.08213,-0.0055 0.163858,-0.01693 0.244317,-0.03416 0.01167,1.78e-4 0.02322,1.78e-4 0.03477,0 0.09117,0.02287 0.185248,0.03433 0.279273,0.03416 h 8.936501 c 0.03489,0.0016 0.06978,0.0016 0.104663,0 0.01167,1.19e-4 0.02322,1.19e-4 0.03489,0 0.13891,0.01705 0.279937,0.01705 0.418847,0 h 6.14385 c 0.442593,0.0061 0.885003,-0.168184 1.200194,-0.472948 0.315259,-0.304824 0.499237,-0.736127 0.499237,-1.170223 0,-0.434097 -0.183978,-0.865459 -0.499237,-1.170223 -0.315191,-0.304764 -0.757601,-0.479127 -1.200194,-0.473008 H 21.52802 v -1.095428 h 5.585315 c 0.442593,0.0061 0.885003,-0.168185 1.200194,-0.473008 0.315259,-0.304764 0.499237,-0.736067 0.499237,-1.170163 0,-0.434096 -0.183978,-0.865459 -0.499237,-1.170224 -0.315191,-0.304764 -0.757601,-0.479126 -1.200194,-0.473007 H 21.52802 v -1.095428 h 5.585315 c 0.442593,0.0061 0.885003,-0.168185 1.200194,-0.473008 0.315259,-0.304764 0.499237,-0.736068 0.499237,-1.170163 0,-0.434155 -0.183978,-0.865459 -0.499237,-1.170223 -0.315191,-0.304824 -0.757601,-0.479127 -1.200194,-0.473008 h -6.14385 c -0.05811,-0.003 -0.116376,-0.003 -0.17453,0 -0.05811,-0.003 -0.116376,-0.003 -0.17453,0 -0.01167,-1.78e-4 -0.02322,-1.78e-4 -0.03489,0 -0.05811,-0.0044 -0.116502,-0.0044 -0.17453,0 h -4.81735 -4.119162 c -0.03489,-0.0016 -0.06978,-0.0016 -0.104664,0 -0.03489,-0.0016 -0.06989,-0.0016 -0.104663,0 -0.02368,0.01058 -0.0469,0.02198 -0.06989,0.03422 -0.01155,-1.19e-4 -0.02322,-1.19e-4 -0.03489,0 -0.08041,-0.01729 -0.162176,-0.02869 -0.244374,-0.03422 H 4.7722242 c -0.058108,-0.003 -0.1164334,-0.003 -0.17453,0 -0.058108,-0.003 -0.1164334,-0.003 -0.1745529,0 z m 8.168492,2.190915 h 3.002081 3.595514 l 0.03489,7.668232 h -6.632483 v -3.525996 c 0.02734,-0.169788 0.02734,-0.343735 0,-0.513524 0.0023,-0.04563 0.0023,-0.09131 0,-0.136936 z"
       fill="white"
       id="path4334"
       style="fill:#552200;stroke:none;stroke-width:0.059991" />
  </g>
</svg>
