<?xml version="1.0" encoding="UTF-8" standalone="no"?>
<!-- Created with Inkscape (http://www.inkscape.org/) -->

<svg
   width="32.0px"
   height="32.0px"
   viewBox="0 0 32.0 32.0"
   version="1.1"
   id="SVGRoot"
   xmlns="http://www.w3.org/2000/svg"
   xmlns:svg="http://www.w3.org/2000/svg">
  <defs
     id="defs19335" />
  <g
     id="layer1">
    <path
       d="m 23.074941,15.244451 c 0,0 2.897789,-2.362512 5.188858,-2.362512 2.29109,0 3.341736,3.845951 3.293001,6.428235 -0.04873,2.582283 -1.803617,8.900646 -10.334224,9.01053 -8.530597,0.109871 1.901106,-13.076253 1.852365,-13.076253 z"
       id="path3409-0"
       fill="none"
       fill-rule="evenodd"
       stroke="#ffffff"
       stroke-width="1.9795"
       style="fill:#ffffff;stroke:none;stroke-width:3.05348;stroke-dasharray:none;stroke-opacity:1" />
    <path
       d="m 1.7085852,10.919708 c 0,0 -3.1833247,20.059951 10.7696668,20.016274 0.340484,0.01535 0.664245,0.01976 0.97217,0.01553 0.307927,0.0044 0.631684,-1.75e-4 0.972172,-0.01553 13.95299,0.04368 10.769666,-20.016274 10.769666,-20.016274 l -11.741838,0.03971 z"
       id="path3407-6"
       fill="#ffffff"
       fill-rule="evenodd"
       stroke="#ffffff"
       stroke-linejoin="round"
       stroke-linecap="round"
       stroke-width="0.931964"
       style="fill:#ffffff;fill-opacity:1;stroke:none;stroke-width:1.2195;stroke-dasharray:none;stroke-opacity:1" />
    <path
       d="m 23.187637,16.495749 c 0,0 1.789987,-1.608166 3.205198,-1.608166 1.415224,0 2.064216,2.617944 2.034112,4.375709 -0.0301,1.757764 -1.114108,6.058683 -6.38353,6.133482 -5.269415,0.07479 1.174328,-8.901025 1.14422,-8.901025 z"
       id="path3409"
       fill="none"
       fill-rule="evenodd"
       stroke="#ffffff"
       stroke-width="1.9795"
       style="fill:#ffffff;stroke:#00006d;stroke-opacity:1" />
    <path
       d="m 4.5519796,13.469161 c 0,0 -2.4761382,15.062678 8.3771514,15.029882 0.264845,0.01152 0.516681,0.01484 0.7562,0.01166 0.23952,0.0033 0.491354,-1.32e-4 0.756201,-0.01166 10.853289,0.0328 8.37715,-15.029882 8.37715,-15.029882 l -9.133351,0.02982 z"
       id="path3407"
       fill="#ffffff"
       fill-rule="evenodd"
       stroke="#ffffff"
       stroke-linejoin="round"
       stroke-linecap="round"
       stroke-width="0.931964"
       style="fill:#0000c7;fill-opacity:1;stroke:#00006d;stroke-opacity:1" />
    <path
       style="fill:none;fill-opacity:1;stroke:#560000;stroke-width:1.2;stroke-linecap:round;stroke-dasharray:none;stroke-opacity:1;paint-order:fill markers stroke"
       d="M 7.244728,11.92878 C 8.0622949,11.396941 8.8798087,10.865136 9.3527174,10.428634 9.8256262,9.9921313 9.9542216,9.6502635 9.9545215,9.2769743 9.9548214,8.9036852 9.8262261,8.4985083 9.362641,7.9791677 8.8990558,7.4598272 8.0999291,6.8267396 7.6265595,6.2508043 7.1531898,5.6748689 7.0062241,5.1557369 7.0013512,4.7123206 6.9964783,4.2689044 7.1342587,3.9017134 7.5844776,3.4392223 8.0346965,2.9767312 8.7970815,2.4196138 9.5594849,1.8624829"
       id="path24457" />
    <path
       style="fill:none;fill-opacity:1;stroke:#560000;stroke-width:1.2;stroke-linecap:round;stroke-dasharray:none;stroke-opacity:1;paint-order:fill markers stroke"
       d="m 12.312615,11.68522 c 0.817566,-0.531839 1.63508,-1.063644 2.107989,-1.500146 C 14.893512,9.7485713 15.022108,9.4067035 15.022408,9.0334144 15.022707,8.6601252 14.894112,8.2549483 14.430527,7.7356081 13.966942,7.2162679 13.167816,6.5831802 12.694446,6.0072447 12.221077,5.4313091 12.074111,4.912177 12.069238,4.4687608 12.064365,4.0253445 12.202145,3.6581533 12.652364,3.1956622 13.102583,2.7331712 13.864968,2.1760537 14.627371,1.618923"
       id="path24457-6" />
    <path
       style="fill:none;fill-opacity:1;stroke:#560000;stroke-width:1.2;stroke-linecap:round;stroke-dasharray:none;stroke-opacity:1;paint-order:fill markers stroke"
       d="m 17.183809,11.797632 c 0.817567,-0.53184 1.63508,-1.063644 2.107989,-1.500146 C 19.764706,9.8609833 19.893302,9.5191155 19.893602,9.1458263 19.893901,8.7725372 19.765306,8.3673603 19.301721,7.8480198 18.838136,7.3286793 18.03901,6.6955921 17.56564,6.1196567 17.092271,5.5437212 16.945305,5.0245891 16.940432,4.581173 16.935559,4.1377568 17.073339,3.7705656 17.523558,3.3080745 17.973777,2.8455835 18.736162,2.288466 19.498565,1.7313353"
       id="path24457-7" />
  </g>
</svg>
