<?xml version="1.0" encoding="UTF-8" standalone="no"?>
<!-- Created with Inkscape (http://www.inkscape.org/) -->

<svg
   width="32.0px"
   height="32.0px"
   viewBox="0 0 32.0 32.0"
   version="1.1"
   id="SVGRoot"
   xmlns="http://www.w3.org/2000/svg"
   xmlns:svg="http://www.w3.org/2000/svg">
  <defs
     id="defs135" />
  <g
     id="layer1">
    <path
       id="path5858-9"
       style="fill:#ffffff;fill-opacity:1;stroke:none;stroke-width:0.463641;stroke-linecap:square;stroke-dasharray:none;paint-order:fill markers stroke"
       d="m 6.0665076,4.0381825 c -2.0491123,3.065928 -4.0987177,6.1315475 -6.14701736,9.1979845 0.99810699,0 1.99621496,0 2.99432296,0 0,2.078631 0,4.157261 0,6.235891 -0.4194577,0.173532 -0.287456,1.005604 -0.4861632,1.442751 -0.1678153,0.482345 -0.016368,1.346238 -0.8051154,1.086515 -0.85258388,-0.267607 -0.5525464,0.579629 -0.5962867,1.094355 0,1.155151 0,2.310301 0,3.465453 10.0571921,0 20.1143861,0 30.1715801,0 0,-1.519936 0,-3.039871 0,-4.559808 -0.538742,-0.06715 -1.42047,0.275583 -1.337005,-0.535158 -0.146649,-0.664584 -0.292195,-1.329396 -0.438228,-1.994108 -0.261064,-0.2993 -0.03083,-1.073792 -0.108649,-1.550335 0,-1.562446 0,-3.124892 0,-4.687337 0.990128,0 1.980255,0 2.970384,0 C 29.734513,9.3743623 27.183258,5.5152286 24.630942,1.6567524 22.184103,5.3144776 19.739266,8.9734532 17.294298,12.632347 c -0.793085,0 -1.586169,1e-6 -2.379254,0 C 12.497721,8.9730655 10.079049,5.3146153 7.6594284,1.6567524 7.1284549,2.4505625 6.5974812,3.2443725 6.0665076,4.0381825 Z" />
    <path
       style="fill:#1a1a1a;stroke:#1a1a1a;stroke-width:0.487146;stroke-linecap:square;stroke-dasharray:none;paint-order:fill markers stroke"
       d="m 14.718572,18.93645 -0.01759,5.067654"
       id="path6036" />
    <path
       style="fill:#1a1a1a;stroke:#1a1a1a;stroke-width:0.487146;stroke-linecap:square;stroke-dasharray:none;paint-order:fill markers stroke"
       d="m 17.394142,18.998151 -0.01759,5.067654"
       id="path6036-46" />
    <path
       id="path5858"
       style="fill:#916f6f;fill-opacity:1;stroke:#1a1a1a;stroke-width:0.487146;stroke-linecap:square;stroke-dasharray:none;paint-order:fill markers stroke"
       d="m 15.140547,14.156091 -0.05323,1.462837 h -1.813643 l -0.07985,-1.462837 h -1.946722 l 0.02091,1.462837 h -0.99427 v 8.777023 h 2.433403 v -0.975225 c 0,-0.974736 7.58e-4,-2.925167 1.136855,-3.900899 1.136096,-0.975731 3.406595,-0.975731 4.541717,0 1.135123,0.975731 1.134955,2.925676 1.134955,4.876124 h 2.433402 v -8.777023 h -1.02469 l 0.05133,-1.462837 h -1.946722 l -0.03802,1.462837 h -1.92391 l 0.01521,-1.462837 z" />
    <path
       id="rect372-5"
       style="fill:#916f6f;stroke:#241c1c;stroke-width:0.487146;stroke-linecap:square;stroke-dasharray:none;paint-order:fill markers stroke"
       d="m 21.95464,10.743007 v 10.727471 h -0.446757 l -0.623559,2.925675 h 8.01692 L 28.277685,21.470478 H 27.794806 V 10.743007 Z" />
    <path
       id="rect372"
       style="fill:#916f6f;stroke:#241c1c;stroke-width:0.487146;stroke-linecap:square;stroke-dasharray:none;paint-order:fill markers stroke"
       d="M 4.4341431,10.743007 V 21.470478 H 3.8885287 L 3.2649693,24.396153 H 11.283791 L 10.660232,21.470478 H 10.274309 V 10.743007 Z" />
    <path
       style="fill:#f9f9f9;stroke:none;stroke-width:0.579078;stroke-linecap:square;paint-order:fill markers stroke"
       d="m 23.650215,17.098228 c -0.0059,-0.476552 -0.01768,-1.430371 0.0058,-1.971408 0.02353,-0.541037 0.08248,-0.668776 0.159352,-0.762681 0.07688,-0.0939 0.171191,-0.153515 0.283379,-0.200332 0.112187,-0.04682 0.241877,-0.08088 0.371633,-0.106391 0.129757,-0.02551 0.259445,-0.04254 0.41282,-0.03387 0.153375,0.0087 0.330223,0.04274 0.48937,0.10256 0.159147,0.05982 0.300625,0.144982 0.394726,0.226053 0.0941,0.08107 0.141256,0.157709 0.170526,0.2258 0.02927,0.06809 0.04106,0.127702 0.04687,0.625833 0.0058,0.49813 0.0058,1.434898 0.0058,1.902941 0,0.468042 0,0.468042 -0.323754,0.472294 -0.323753,0.0043 -0.972195,0.01277 -1.361245,0.01281 -0.389049,4e-5 -0.518738,-0.0085 -0.584092,-0.01277 -0.06535,-0.0043 -0.06535,-0.0043 -0.07125,-0.480842 z"
       id="path642-2" />
    <path
       style="fill:#f9f9f9;stroke:none;stroke-width:0.579078;stroke-linecap:square;paint-order:fill markers stroke"
       d="m 6.1043984,17.041147 c -0.00589,-0.476552 -0.017682,-1.430371 0.00585,-1.971408 0.023528,-0.541037 0.082477,-0.668777 0.1593527,-0.762681 0.076876,-0.0939 0.1711915,-0.153515 0.2833788,-0.200332 0.1121874,-0.04682 0.2418775,-0.08088 0.3716343,-0.10639 0.1297569,-0.02551 0.2594439,-0.04254 0.412819,-0.03387 0.1533751,0.0087 0.3302232,0.04274 0.4893701,0.10256 0.1591468,0.05982 0.3006245,0.144981 0.3947256,0.226052 0.094101,0.08107 0.1412568,0.15771 0.1705275,0.2258 0.029271,0.06809 0.041061,0.127701 0.046871,0.625832 0.00581,0.498131 0.00581,1.4349 0.00581,1.902942 5e-7,0.468042 5e-7,0.468042 -0.3237533,0.472294 -0.3237539,0.0043 -0.9721962,0.01277 -1.3612454,0.01281 -0.3890492,4e-5 -0.5187388,-0.0085 -0.5840921,-0.01277 -0.065353,-0.0043 -0.065354,-0.0043 -0.071245,-0.480843 z"
       id="path642" />
    <rect
       style="fill:#000000;fill-opacity:1;stroke:none;stroke-width:3.7519;stroke-linecap:square;stroke-dasharray:none;paint-order:fill markers stroke"
       id="rect7640"
       width="27.254108"
       height="0.97522473"
       x="2.4868546"
       y="24.17486" />
    <path
       style="fill:#800000;stroke-width:0.7;stroke-linecap:square;paint-order:fill markers stroke"
       id="path532-0"
       d="M 20.782287,11.040591 12.118725,10.96501 16.515961,3.4999352 Z"
       transform="matrix(1.0111109,-0.00824295,0.0056378,0.90961268,8.1788391,1.0278438)" />
    <path
       style="fill:#800000;stroke-width:0.7;stroke-linecap:square;paint-order:fill markers stroke"
       id="path532"
       d="M 20.782287,11.040591 12.118725,10.96501 16.515961,3.4999352 Z"
       transform="matrix(1.0111109,-0.00824295,0.0056378,0.90961268,-9.341659,1.0278438)" />
  </g>
</svg>
