<?xml version="1.0" encoding="UTF-8" standalone="no"?>
<!-- Created with Inkscape (http://www.inkscape.org/) -->

<svg
   width="30"
   height="30"
   viewBox="0 0 30 30"
   version="1.1"
   id="SVGRoot"
   xmlns="http://www.w3.org/2000/svg"
   xmlns:svg="http://www.w3.org/2000/svg">
  <defs
     id="defs7932" />
  <g
     id="layer1">
    <path
       id="rect8119-4-0-2"
       style="fill:#ffffff;fill-opacity:1;stroke:none;stroke-width:0.4;stroke-dasharray:none;paint-order:fill markers stroke"
       d="M 0.448,9.2497313 C 0.4668866,15.891479 0.444733,22.533275 0.449922,29.175046 h 29.35994 V 9.2389323 C 28.108899,6.3783167 26.808193,3.6010643 25.213678,0.52087515 23.595454,3.3817891 22.174505,7.0823199 21.238892,9.0006373 c -6e-5,0.7811034 0.0014,2.8481357 0.002,3.6292377 C 19.542556,11.332235 16.805765,9.3914925 15.107376,8.0939959 13.424146,9.3867146 10.703473,11.224906 9.0208577,12.518359 8.9666577,11.688765 8.9320962,9.7734261 8.8887488,8.8747027 7.1230559,5.4966027 6.0088542,2.786388 4.780121,0.52087515 3.5695775,3.0094252 1.7385077,6.6581171 0.448,9.2497313 Z" />
    <path
       id="rect8119-4-0"
       style="fill:#ffdd4d;fill-opacity:1;stroke:#000000;stroke-width:0.4;stroke-dasharray:none;paint-order:fill markers stroke"
       d="m 4.7467011,2.07055 c -0.96238,2.228878 -2.016827,4.7088742 -2.999111,6.7480472 0.02155,2.0667508 -0.0092,13.2673738 0,19.1810678 h 5.998223 V 8.8185972 C 6.6838062,6.6360562 5.6243521,4.3338186 4.7467011,2.07055 Z" />
    <path
       id="rect1751"
       style="fill:#000000;stroke:#ffffff;stroke-width:0.599999;stroke-linejoin:miter;stroke-dasharray:none;paint-order:fill markers stroke"
       d="M 14.297697,3.580218 V 5.6212336 H 12.13754 V 7.220843 h 2.160157 v 3.214844 h 1.599609 V 7.220843 h 2.185547 V 5.6212336 H 15.897306 V 3.580218 Z" />
    <path
       style="fill:#ffdd4d;fill-opacity:1;stroke:#000000;stroke-width:0.4;stroke-dasharray:none;paint-order:fill markers stroke"
       d="M 7.7009364,28 V 15.108504 L 15.000305,9.2546833 22.39207,15.14509 V 28 Z"
       id="path12192" />
    <path
       id="rect8119-4"
       style="fill:#ffdd4d;fill-opacity:1;stroke:#000000;stroke-width:0.4;stroke-dasharray:none;paint-order:fill markers stroke"
       d="m 25.395022,2.0708845 c -0.96238,2.228878 -2.016827,4.7088738 -2.999111,6.7480469 0.02155,2.0667516 -0.0092,13.2673746 0,19.1810686 h 5.998223 V 8.8189314 C 27.332127,6.6363905 26.272673,4.3341531 25.395022,2.0708845 Z" />
    <ellipse
       style="fill:#ffffff;fill-opacity:1;stroke:#000000;stroke-width:0.44353;stroke-linecap:butt;stroke-linejoin:round;stroke-dasharray:none;paint-order:markers fill stroke"
       id="path8116"
       cx="15.176918"
       cy="14.778467"
       rx="2.092113"
       ry="1.9384255" />
    <path
       style="fill:#c8b7b7;stroke:#502d16;stroke-width:0.4;stroke-dasharray:none;paint-order:fill markers stroke"
       d="m 10.611039,27.613045 v -4.2227 c 0.02394,-1.914335 2.089835,-4.141855 4.5,-4.222701 2.50612,0.0303 4.398579,2.263882 4.5,4.222701 v 4.2227 z"
       id="path15175" />
    <path
       style="fill:#c8b7b7;stroke:#502d16;stroke-width:0.4;stroke-dasharray:none;paint-order:fill markers stroke"
       d="m 12.113646,27.603668 v -3.840563 c 0.01594,-1.606062 1.391435,-2.988904 2.996147,-3.056732 1.668604,0.02543 2.896247,1.446446 2.963774,3.089827 l 0.03238,3.807468 z"
       id="path15175-4" />
    <path
       style="fill:#ffffff;stroke:#4d4d4d;stroke-width:0.3;stroke-dasharray:none;paint-order:fill markers stroke"
       d="m 3.8519637,21.895207 v -3 c 0.004,-0.909558 0.366416,-0.961587 0.7610391,-0.999999 0.410335,0.0144 0.744434,0.06931 0.76104,0.999999 v 3 z"
       id="path15175-4-6-2" />
    <path
       style="fill:#ffffff;stroke:#4d4d4d;stroke-width:0.3;stroke-dasharray:none;paint-order:fill markers stroke"
       d="m 3.950881,13.869819 v -3 c 0.004,-0.9095591 0.3664161,-0.9615881 0.7610391,-1.0000001 0.410335,0.0144 0.744434,0.06931 0.76104,1.0000001 v 3 z"
       id="path15175-4-6-5" />
    <path
       style="fill:#ffffff;fill-opacity:1;stroke:#000000;stroke-width:0.4;stroke-dasharray:none;paint-order:fill markers stroke"
       d="m 1.5781709,8.9520534 h 6.1328985 0.049459 0.049459"
       id="path41941" />
    <path
       style="fill:#ffffff;fill-opacity:1;stroke:#000000;stroke-width:0.4;stroke-dasharray:none;paint-order:fill markers stroke"
       d="m 22.237446,8.9802523 h 6.132898 0.04946 0.04946"
       id="path41941-5" />
    <path
       style="fill:#ffffff;stroke:#4d4d4d;stroke-width:0.3;stroke-dasharray:none;paint-order:fill markers stroke"
       d="m 24.622755,13.872326 v -3 c 0.004,-0.9095591 0.366416,-0.9615881 0.761039,-1.0000001 0.410335,0.0144 0.744434,0.06931 0.76104,1.0000001 v 3 z"
       id="path15175-4-6-5-8" />
    <path
       style="fill:#ffffff;stroke:#4d4d4d;stroke-width:0.3;stroke-dasharray:none;paint-order:fill markers stroke"
       d="m 24.683639,21.817565 v -3 c 0.004,-0.909559 0.366416,-0.961588 0.761039,-1 0.410335,0.0144 0.744434,0.06931 0.76104,1 v 3 z"
       id="path15175-4-6-5-0" />
    <path
       style="fill:#000000;fill-opacity:1;stroke:#000000;stroke-width:1.10674;stroke-linecap:butt;stroke-linejoin:round;stroke-dasharray:none;stroke-opacity:1;paint-order:markers fill stroke"
       d="m 0.9881423,28.371509 c 9.3953487,0 18.7894787,0 28.1823897,0"
       id="path18442" />
  </g>
</svg>
