<?xml version="1.0" encoding="UTF-8" standalone="no"?>
<svg
   width="580"
   height="580"
   viewBox="0 0 580 580"
   fill="none"
   version="1.1"
   id="svg1937"
   xmlns="http://www.w3.org/2000/svg"
   xmlns:svg="http://www.w3.org/2000/svg">
  <defs
     id="defs1941" />
  <path
     style="color:#000000;fill:#7b0000;stroke:#ffffff;stroke-opacity:1;stroke-width:26;stroke-dasharray:none"
     d="m 289.95117,80.214844 c -72.86766,0 -124.10874,39.703086 -150.4375,76.705076 -26.32876,37.00199 -33.91797,74.60742 -33.91797,74.60742 l -0.44531,2.13868 -0.24609,2.17187 c -8.299329,73.34062 7.9381,125.68992 20.69531,169.94727 H 83.960937 v 94 H 237.47852 l -6.36133,-52.63868 c -9.73511,-80.56012 -40.6974,-123.28492 -33.01758,-198.23242 1.09301,-4.23152 5.72827,-20.24413 18.00391,-37.49609 14.19691,-19.95211 32.12743,-37.20313 73.84765,-37.20313 41.15818,0 54.50171,16.18248 66.29883,36.02539 11.79712,19.84291 14.43555,40.08399 14.43555,40.08399 l 0.10156,0.93164 0.13867,0.92773 c 10.52485,70.3507 -12.67285,117.97181 -20.79492,195.71875 l -5.41992,51.88282 h 151.32812 v -94 h -43.4082 c 9.67358,-46.07796 21.33108,-98.09417 11.44141,-166.0625 -0.11917,-1.1699 -4.09887,-38.96011 -27.02344,-77.51954 C 413.76466,123.03885 363.37988,80.214844 289.95117,80.214844 Z"
     id="path1935" />
</svg>
