<?xml version="1.0" encoding="UTF-8" standalone="no"?>
<!-- Created with Inkscape (http://www.inkscape.org/) -->

<svg
   width="32.0px"
   height="32.0px"
   viewBox="0 0 32.0 32.0"
   version="1.1"
   id="SVGRoot"
   xmlns="http://www.w3.org/2000/svg"
   xmlns:svg="http://www.w3.org/2000/svg">
  <defs
     id="defs36127" />
  <g
     id="layer1">
    <path
       style="color:#000000;fill:#7b0000;stroke:#ffffff;stroke-width:2.24573;stroke-dasharray:none;stroke-opacity:1"
       d="m 15.964648,2.9940042 c -4.902531,0 -8.3500295,2.4456533 -10.121424,4.7249187 C 4.0718296,9.9981885 3.5612291,12.314617 3.5612291,12.314617 l -0.029933,0.131745 -0.016558,0.133786 c -0.558382,4.517669 0.5340738,7.742299 1.3923772,10.468488 H 2.1056677 v 5.79025 H 12.434314 l -0.427992,-3.24246 C 11.351347,20.634052 9.2682045,18.002267 9.7849095,13.385615 c 0.073513,-0.260657 0.3853955,-1.247009 1.2113025,-2.309702 0.955159,-1.2290186 2.161529,-2.29165 4.968463,-2.29165 2.769114,0 3.666866,0.9968122 4.460575,2.219104 0.793707,1.222291 0.971226,2.469113 0.971226,2.469113 l 0.0073,0.05738 0.0093,0.05711 c 0.708116,4.333496 -0.852627,7.266882 -1.399082,12.055979 l -0.364653,3.195896 h 10.181342 v -5.79025 h -2.920546 c 0.650836,-2.838331 1.435147,-6.04245 0.769773,-10.229197 -0.0081,-0.07207 -0.275755,-2.399876 -1.81812,-4.775077 C 24.295234,5.631858 20.905344,2.9939687 15.965075,2.9939687 Z"
       id="path1935" />
  </g>
</svg>
