<?xml version="1.0" encoding="UTF-8" standalone="no"?>
<!-- Created with Inkscape (http://www.inkscape.org/) -->

<svg
   width="31"
   height="22"
   viewBox="0 0 31 22"
   version="1.1"
   id="SVGRoot"
   xmlns="http://www.w3.org/2000/svg"
   xmlns:svg="http://www.w3.org/2000/svg">
  <defs
     id="defs11526" />
  <g
     id="layer1">
    <rect
       style="fill:#ffffff;fill-opacity:1;stroke:none;stroke-width:0.9;stroke-linejoin:round;stroke-dasharray:none;paint-order:fill markers stroke"
       id="rect22245"
       width="30.010927"
       height="20.452652"
       x="0.35972005"
       y="0.51388568" />
    <path
       style="fill:#1a1a1a;stroke:#1a1a1a;stroke-width:1.80001;stroke-linecap:square;stroke-dasharray:none;paint-order:fill markers stroke"
       d="m 11.271131,8.7828315 -0.0181,6.4811145"
       id="path6036" />
    <path
       style="fill:#1a1a1a;stroke:#1a1a1a;stroke-width:0.9;stroke-linecap:square;stroke-dasharray:none;paint-order:fill markers stroke"
       d="m 22.928354,14.488501 -15.3832839,0.0062"
       id="path6036-14" />
    <path
       style="fill:#1a1a1a;stroke:#1a1a1a;stroke-width:1.8;stroke-linecap:square;stroke-dasharray:none;paint-order:fill markers stroke"
       d="M 15.22917,7.9309554 V 15.296677"
       id="path6036-1" />
    <path
       style="fill:#1a1a1a;stroke:#1a1a1a;stroke-width:1.79999;stroke-linecap:square;stroke-dasharray:none;paint-order:fill markers stroke"
       d="m 19.279765,7.9621527 -0.0181,7.2519433"
       id="path6036-3" />
    <path
       id="path5858"
       style="fill:#b86400;fill-opacity:1;stroke:#552200;stroke-width:0.733568;stroke-linecap:square;paint-order:fill markers stroke"
       d="M 9.304177,2.2007112 V 4.9907874 H 5.3041771 V 2.2007112 c -1.4987021,7.79e-4 -1.2917552,9.008e-4 -3.0236171,0 -0.1192713,4.3446448 0,12.4603178 0,17.7510978 h 5 v -4.68295 c 0,-2.117708 1.4984157,-4.070278 3.523617,-5.5801515 2.329731,-1.7369139 7.641407,-1.9163666 9.8,0 1.796907,1.5952655 2.633253,3.4176925 2.676383,5.5801515 0.01856,0.930681 0,3.707219 0,4.68295 h 5 V 2.2007112 c -1.919868,-0.016166 -1.090942,0.053031 -2.976383,0 0.101394,1.1344264 0.02937,2.0473294 0,2.7900762 -1.300852,0.040605 -3.09531,0.094382 -4,0 V 2.2007112 h -4 v 2.7900762 h -4 V 2.2007112 Z" />
    <rect
       style="fill:#000000;fill-opacity:1;stroke:none;stroke-width:3.8509;stroke-linecap:square;stroke-dasharray:none;paint-order:fill markers stroke"
       id="rect7640"
       width="28.308395"
       height="1"
       x="1.2544855"
       y="19.365749" />
  </g>
</svg>
