<?xml version="1.0" encoding="UTF-8" standalone="no"?>
<!-- Created with Inkscape (http://www.inkscape.org/) -->

<svg
   width="32"
   height="29"
   viewBox="0 0 32 29"
   version="1.1"
   id="SVGRoot"
   xmlns="http://www.w3.org/2000/svg"
   xmlns:svg="http://www.w3.org/2000/svg">
  <defs
     id="defs132" />
  <g
     id="layer1">
    <path
       id="rect552-3-0"
       style="fill:#ffffff;fill-opacity:1;stroke-width:1.30016;stroke-linecap:round;stroke-linejoin:round;paint-order:fill markers stroke"
       d="M 24.021368,1.2934335 C 22.676317,1.5415659 21.46766,2.2595841 20.18191,2.7086005 17.555369,3.7725963 14.928829,4.8365923 12.302288,5.9005882 12.33056,4.759164 12.429207,3.4016991 11.418703,2.6064625 10.350509,1.7541596 8.6256038,1.7503042 7.5556554,2.604977 6.512738,3.4256782 6.6520107,4.825736 6.6688869,5.9964029 6.6687073,6.7254227 6.6685268,7.4544427 6.6683453,8.1834626 5.2410823,8.8112667 3.7281644,9.2733547 2.3573277,10.011068 c -1.2246008,0.800254 -1.37210477,2.529525 -0.6257674,3.70102 0.6697655,1.317318 2.4552986,1.709722 3.7120298,0.991493 0.3926987,-0.01842 1.3699476,-0.898294 1.2263469,-0.12634 -3.824e-4,2.646718 -7.63e-4,5.293436 -0.00111,7.940155 -0.998826,0.0765 -2.0815068,-0.231507 -2.9711939,0.345449 -0.6717426,0.103058 -0.8242274,0.686309 -1.0052138,1.243203 -0.1963391,0.617407 -0.095223,1.328612 -0.060438,1.961328 0.3427617,0.536655 0.358683,1.419978 1.1278514,1.504356 0.9720689,0.479996 2.088396,0.174244 3.132892,0.259749 2.5015786,-0.02565 5.0255263,0.05137 7.5131933,-0.03815 0.543082,-0.339086 1.436724,-0.353984 1.522563,-1.115915 0.393932,-0.736211 0.273511,-1.605468 0.224515,-2.394828 -0.342761,-0.536653 -0.358683,-1.419979 -1.127851,-1.504357 -0.841725,-0.446324 -1.811446,-0.196224 -2.72339,-0.260484 1.3e-4,-3.53181 2.58e-4,-7.063619 3.87e-4,-10.595431 2.51575,-1.019228 5.031501,-2.0384526 7.547252,-3.057679 0.214077,0.7365038 -0.317098,0.6013705 -0.861036,0.6052771 -1.454621,0.1499528 -2.380391,1.7450669 -1.926836,3.0876889 0.387774,1.61331 0.575526,3.284487 1.098685,4.85902 0.566184,1.242675 1.979034,1.827417 3.298335,1.731318 1.468281,-0.05607 3.18687,0.296035 4.379127,-0.779807 1.186266,-0.99652 1.071919,-2.669533 1.462078,-4.032828 0.18363,-1.284362 0.919892,-2.746491 0.03337,-3.93144 -0.548849,-0.7801731 -1.577627,-1.0761753 -2.498144,-0.9136256 0.0012,-0.8821992 0.0023,-1.764398 0.0033,-2.6465973 1.37342,-0.3391459 2.425556,-1.7557928 2.054191,-3.1609081 -0.259987,-1.3460503 -1.41196,-2.5189093 -2.871041,-2.3892985 z" />
    <rect
       style="fill:#ca5a0d;fill-opacity:1;stroke-width:1.30016;stroke-linecap:round;stroke-linejoin:round;paint-order:fill markers stroke"
       id="rect552-3"
       width="1.331144"
       height="7.8831515"
       x="22.310282"
       y="3.6986969"
       transform="matrix(0.99999992,3.8856068e-4,-0.00123045,0.99999924,0,0)" />
    <path
       id="rect3731"
       style="fill:#5b1803;fill-opacity:1;stroke-width:1.30016;stroke-linecap:round;stroke-linejoin:round;paint-order:fill markers stroke"
       d="M 24.958984 2.1230469 C 24.856756 2.1219879 24.753202 2.140348 24.652344 2.1816406 L 10.230469 8.0859375 L 10.230469 3.609375 C 10.230469 3.2079769 9.9072575 2.8847656 9.5058594 2.8847656 L 8.9296875 2.8847656 C 8.5282894 2.8847656 8.2070312 3.2079769 8.2070312 3.609375 L 8.2070312 8.9160156 L 2.9101562 11.083984 C 2.5067246 11.249155 2.313345 11.705943 2.4785156 12.109375 L 2.6503906 12.525391 C 2.8155613 12.928822 3.2723496 13.122202 3.6757812 12.957031 L 8.2070312 11.101562 L 8.2070312 25.242188 C 8.2070312 25.643586 8.5282894 25.966797 8.9296875 25.966797 L 9.5058594 25.966797 C 9.9072575 25.966797 10.230469 25.643586 10.230469 25.242188 L 10.230469 10.273438 L 25.417969 4.0546875 C 25.8214 3.8895169 26.012827 3.4307754 25.847656 3.0273438 L 25.677734 2.6113281 C 25.553856 2.3087544 25.265668 2.1262238 24.958984 2.1230469 z " />
    <path
       class="st1"
       d="m 19.900554,10.953859 c -0.467645,-0.08633 -0.774134,0.197548 -0.68267,0.646855 0.333002,1.627774 0.666863,3.249267 1.000923,4.865316 0.09236,0.445659 0.551856,0.865041 1.021862,0.916205 1.166125,0.072 2.335676,0.072 3.501808,0 0.469996,-0.05124 0.929532,-0.470546 1.021863,-0.916205 0.334062,-1.615639 0.667912,-3.237542 1.001122,-4.865316 0.09142,-0.449307 -0.215222,-0.733203 -0.682448,-0.646855 -2.054191,0.224851 -4.128689,0.224851 -6.18246,0 z"
       id="path8445"
       style="fill:#774b29;fill-opacity:1;stroke-width:0.176966" />
    <rect
       style="fill:#000000;stroke-width:1.30016;stroke-linecap:round;stroke-linejoin:round;paint-order:fill markers stroke"
       id="rect550"
       width="10.542766"
       height="1.7384753"
       x="3.8465309"
       y="25.062162" />
    <path
       style="fill:#7c7c7c;fill-opacity:1;stroke:#502d16;stroke-width:0.0335443;stroke-linecap:square;stroke-linejoin:round;paint-order:fill markers stroke"
       d="m 16.549319,26.511088 c 0,-0.01431 0,-0.04295 0.0074,-0.7331 0.0074,-0.690155 0.02227,-2.04177 0.08536,-2.73479 0.06308,-0.693017 0.174406,-0.72738 0.946226,-0.675829 0.771816,0.05156 2.204068,0.189004 3.588121,0.243412 1.384053,0.05442 2.719838,0.02577 3.873834,-0.02864 1.153995,-0.05442 2.126147,-0.13459 2.71613,-0.197593 0.589983,-0.06299 0.797769,-0.10882 0.957327,-0.111674 0.159559,-0.0029 0.270876,0.03723 0.32281,0.730255 0.05194,0.693021 0.04452,2.038914 0.02967,2.751955 -0.01485,0.71304 -0.03711,0.793226 -0.08905,0.856223 -0.05195,0.06298 -0.133571,0.108809 -0.597396,0.180404 -0.463822,0.07159 -1.309816,0.168957 -2.374764,0.231959 -1.064948,0.06299 -2.348777,0.09164 -3.621518,0.07446 -1.272743,-0.01717 -2.534312,-0.08019 -3.413723,-0.13459 -0.879412,-0.05442 -1.376617,-0.100226 -1.695727,-0.137453 -0.319108,-0.03723 -0.460109,-0.06585 -0.552876,-0.114532 -0.09276,-0.04867 -0.137298,-0.117403 -0.15957,-0.15178 -0.02227,-0.03437 -0.02228,-0.03437 -0.02228,-0.04869 z"
       id="path10930" />
  </g>
</svg>
