<?xml version="1.0" encoding="UTF-8" standalone="no"?>
<!-- Created with Inkscape (http://www.inkscape.org/) -->

<svg
   width="32.0px"
   height="32.0px"
   viewBox="0 0 32.0 32.0"
   version="1.1"
   id="SVGRoot"
   xmlns="http://www.w3.org/2000/svg"
   xmlns:svg="http://www.w3.org/2000/svg">
  <defs
     id="defs237" />
  <g
     id="layer1">
    <ellipse
       style="fill:#3f8efa;fill-opacity:1;stroke:#ffffff;stroke-width:0.9;stroke-linecap:square;stroke-linejoin:round"
       id="path500"
       cx="15.981263"
       cy="15.999999"
       rx="15.456675"
       ry="15.43794" />
    <path
       d="m 14.289245,8.634112 c 0.02094,0.00341 0.04189,0.00857 0.06093,0.013725 0.182817,0.029192 0.329453,0.1493976 0.380873,0.3091019 0.05142,0.1614192 -0.0018,0.3331391 -0.137114,0.4464764 -0.243758,0.2198042 -0.554168,0.4396086 -1.005504,0.5082985 -0.36754,0.05496 -1.028352,0.04121 -1.84342,0.04121 -0.01903,0.1133362 -0.03047,0.2215212 -0.06094,0.3846572 -0.06475,0.346878 -0.163773,0.838004 -0.289461,1.387515 h 8.394428 l 0.731273,-1.318827 c -0.02856,-0.0017 -0.06284,0 -0.09141,0 -1.268304,0 -1.797714,-0.310816 -1.797714,-0.6181994 0,-0.2644524 0.24947,-0.2644524 0.639862,-0.2198048 h 3.107918 c 0.537029,0 0.639866,0.2232394 0.639866,0.6182002 0,1.011443 -0.666527,0.676585 -1.523489,0.412133 l -0.853155,1.566107 1.142618,2.046928 c 0.537029,-0.185461 1.11405,-0.288494 1.721541,-0.288494 2.687051,0 4.875162,1.973088 4.875162,4.396089 0,2.422999 -2.188111,4.396087 -4.875162,4.396087 -2.523278,0 -4.600934,-1.737828 -4.844692,-3.956479 H 16.68112 c -0.09903,-0.0018 -0.194245,-0.03091 -0.274227,-0.08243 -0.0095,-0.0034 -0.02094,-0.0086 -0.03047,-0.01373 -0.0056,-0.0051 -0.0095,-0.0086 -0.01524,-0.01373 -0.0095,-0.0034 -0.02094,-0.0086 -0.03047,-0.01374 0,-0.0051 0,-0.0086 0,-0.01373 -0.0056,-0.0051 -0.0095,-0.0086 -0.01524,-0.01373 -0.01714,-0.01717 -0.03237,-0.03606 -0.0457,-0.05495 l -5.210329,-5.481372 c -0.09712,0.37092 -0.215191,0.765881 -0.335166,1.181449 1.772959,0.659413 3.031739,2.234105 3.031739,4.066381 0,2.423001 -2.188106,4.396088 -4.8751608,4.396088 -2.6870509,0 -4.8751614,-1.973087 -4.8751614,-4.396088 0,-2.423 2.1881105,-4.396088 4.8751614,-4.396088 0.3142206,0 0.6170134,0.0309 0.9140923,0.08242 0.2018644,-0.712647 0.3808725,-1.380646 0.5179885,-1.950764 0.186627,-0.779619 0.329452,-1.411556 0.411341,-1.8546 0.04189,-0.2215202 0.05713,-0.4018288 0.07617,-0.5220345 0.0095,-0.060106 0.02666,-0.1064677 0.03047,-0.1373778 0.0038,-0.030908 0,-0.078992 0,-0.013738 0,-0.2421279 0.219001,-0.4396074 0.487516,-0.4396074 1.21879,0 1.837708,-0.013725 2.117649,-0.054953 0.27995,-0.04122 0.213298,-0.04122 0.457057,-0.261024 0.100939,-0.097899 0.247574,-0.1476977 0.396113,-0.1373941 z m 5.012274,3.970216 h -7.419384 l 4.692343,4.918122 z m 0.792217,0.54951 -2.6204,4.725794 h 1.18832 c 0.150443,-1.37721 1.005502,-2.562094 2.239527,-3.269589 z m 3.412612,1.648533 c -0.455142,0 -0.889337,0.06354 -1.294964,0.192329 l 1.736775,3.132213 c 0.07428,0.137378 0.06475,0.298797 -0.02666,0.427589 -0.0895,0.127073 -0.245661,0.206066 -0.415149,0.204349 h -3.869659 c 0.239948,1.737829 1.875795,3.077261 3.869659,3.077261 2.159545,0 3.900131,-1.569541 3.900131,-3.51687 0,-1.947329 -1.740586,-3.516871 -3.90013,-3.516871 z m -14.6254849,0 c -2.1595449,0 -3.9001303,1.569542 -3.9001303,3.516871 0,1.947329 1.7405854,3.51687 3.9001303,3.51687 2.1595439,0 3.9001289,-1.569541 3.9001289,-3.51687 0,-1.432164 -0.944564,-2.651391 -2.300465,-3.200902 -0.314222,1.025181 -0.6893793,2.144811 -1.1426182,3.33828 -0.032374,0.171722 -0.173295,0.3091 -0.3580168,0.35203 C 8.793263,18.85158 8.5971134,18.7932 8.47714,18.657535 8.3571657,18.521874 8.3362154,18.336414 8.423825,18.181864 8.8732554,16.996981 9.2446052,15.875636 9.5512066,14.857322 9.3341106,14.822982 9.1093955,14.802372 8.8808717,14.802372 Z m 12.4621309,0.604463 c -0.915998,0.552945 -1.563477,1.437315 -1.706305,2.472798 h 3.077444 z"
       id="path2"
       style="fill:#ffffff;stroke-width:25.8255;stroke-dasharray:none" />
  </g>
</svg>
