<?xml version="1.0" encoding="UTF-8" standalone="no"?>
<!-- Created with Inkscape (http://www.inkscape.org/) -->

<svg
   width="32.0px"
   height="32.0px"
   viewBox="0 0 32.0 32.0"
   version="1.1"
   id="SVGRoot"
   xmlns="http://www.w3.org/2000/svg"
   xmlns:svg="http://www.w3.org/2000/svg">
  <defs
     id="defs246" />
  <g
     id="layer1">
    <path
       id="path3504-9"
       style="fill:#ffffff;stroke:none;stroke-width:0.6;stroke-linecap:round;stroke-linejoin:round;paint-order:fill markers stroke"
       d="M 6.8533361,0.74549975 C 6.5612523,1.4419254 6.2635163,2.1373493 6.3837669,2.9068611 c 0,0.9375019 0,1.8750039 0,2.8125058 C 5.0862232,5.7456679 3.7658783,5.6691993 2.4826194,5.759884 1.9294078,6.1021123 1.0193019,6.1181269 0.93179869,6.8860286 0.43589121,7.8568733 0.75019646,8.9718493 0.66127896,10.015094 c 0.0782565,1.00629 -0.2419163,2.096697 0.35276114,2.993956 0.1055541,0.670621 0.7069406,0.822223 1.2803249,1.003135 0.9136997,0.23122 1.9063178,0.03506 2.8510052,0.09846 0.5310487,0.07051 1.5028989,-0.290863 1.2383967,0.559128 0.027543,1.084871 -0.054306,2.192941 0.039487,3.263763 0.3496677,0.542376 0.3658675,1.434134 1.1512061,1.52005 0.7276489,3.081838 1.9885863,6.00826 2.981391,9.008409 0.334155,2.051376 2.441897,3.722683 4.583889,3.299495 1.103476,-0.182809 2.089873,-0.858596 2.700023,-1.769215 1.121081,1.801365 3.822252,2.429954 5.572967,1.131629 1.16315,-0.740819 1.60947,-2.077264 1.914052,-3.327645 1.393772,-3.906073 3.114097,-7.815465 3.302895,-12.003979 C 28.798543,12.901385 27.831986,9.7279337 25.301164,8.015698 23.89301,6.9834504 22.069671,6.5292607 20.329226,6.7881919 20.230817,6.1216562 19.616905,5.9951394 19.059577,5.8093467 18.145876,5.5779921 17.153258,5.7734285 16.20857,5.709655 15.677522,5.6388854 14.705672,5.9997989 14.970174,5.1499347 14.942613,4.0656755 15.024506,2.9582038 14.930687,1.8879959 14.581002,1.345987 14.565119,0.45407661 13.780054,0.36844785 12.787487,-0.11708937 11.648026,0.19140896 10.581566,0.10529905 9.7665594,0.15875663 8.9044397,-6.3500437e-4 8.118159,0.18260194 7.6965514,0.37023456 7.2749437,0.55786716 6.8533361,0.74549975 Z M 10.634113,19.710762 c -0.208771,-0.315107 -1.4562812,-0.89691 -0.8668206,-1.007071 0.6777636,-0.128197 1.3555266,-0.256394 2.0332906,-0.38459 -0.388824,0.463886 -0.777646,0.927773 -1.16647,1.391661 z" />
    <path
       style="fill:#ffffff;stroke:none;stroke-width:0.6;stroke-linecap:round;stroke-linejoin:round;paint-order:fill markers stroke"
       d="M 14.351288,29.368885 C 14.233847,29.340355 14.04765,29.18512 13.95919,29.041989 13.9148,28.970169 13.829449,28.712668 13.769511,28.469758 13.635918,27.928354 13.509021,27.553477 12.85263,25.761124 12.569605,24.98829 12.096522,23.630913 11.801334,22.744731 c -0.775466,-2.328028 -1.078802,-3.410777 -1.32412,-4.726402 -0.09574,-0.513463 -0.137469,-0.818474 -0.249198,-1.821608 l -0.01982,-0.177986 h 0.413468 0.413469 v -2.186161 -2.186161 l 0.182422,-0.258803 c 0.310848,-0.441005 0.01233,-0.396482 2.567942,-0.382999 l 2.233271,0.01178 -1.4e-5,-0.555218 c -1.4e-5,-0.5112767 0.0052,-0.5536653 0.06556,-0.5355979 0.178211,0.053322 0.924776,0.2099119 1.189696,0.2495359 0.413502,0.06185 1.12741,0.05408 1.562835,-0.017 0.200075,-0.03266 0.646913,-0.12571 0.992974,-0.2067776 1.028293,-0.2408864 1.265996,-0.2782057 1.790795,-0.2811548 0.764411,-0.0043 1.326072,0.1624339 1.971756,0.5853164 1.0322,0.676026 1.647778,1.565316 1.982707,2.864301 0.175783,0.681754 0.236257,1.23491 0.234996,2.149519 -0.0034,2.476001 -0.626415,4.940789 -2.661386,10.529274 -0.697008,1.914137 -0.762273,2.10803 -0.893385,2.6541 -0.109851,0.457523 -0.190055,0.628086 -0.369384,0.785539 -0.455883,0.40027 -1.068588,-0.05573 -1.223219,-0.910365 -0.01864,-0.103045 -0.0684,-0.507728 -0.110575,-0.899298 -0.202965,-1.884548 -0.389912,-2.749055 -0.75249,-3.479775 -0.282291,-0.568913 -0.5768,-0.880516 -1.045531,-1.106216 -0.276712,-0.133241 -0.288227,-0.13532 -0.749414,-0.13532 -0.434444,0 -0.484589,0.0076 -0.692014,0.104713 -0.630711,0.295326 -1.047037,0.83994 -1.34974,1.765651 -0.212928,0.651168 -0.322229,1.269338 -0.487523,2.757271 -0.106521,0.958876 -0.16516,1.27171 -0.280904,1.498586 -0.203354,0.398607 -0.536246,0.609979 -0.843215,0.535404 z"
       id="path3504" />
    <path
       class="st0"
       d="M 24.948155,9.3117744 C 23.819812,8.3925048 22.678872,8.0752805 21.669609,8.0819798 20.897624,8.0830175 20.207321,8.246806 19.596362,8.3914696 18.98493,8.5398489 18.450982,8.664412 18.008223,8.6624014 17.566281,8.6644767 17.032568,8.5398489 16.420906,8.3914696 15.809948,8.2467454 15.119637,8.0830158 14.347889,8.0819798 c -1.009495,-0.0067 -2.150494,0.3100377 -3.278777,1.230282 -0.837793,0.6741023 -1.4460105,1.5578612 -1.8290302,2.5672782 -0.3845357,1.010392 -0.5532563,2.143338 -0.5537286,3.361863 0.00119,1.866314 0.3946315,3.942284 1.0785187,6.146473 0.7061741,2.274171 1.3113571,3.946362 1.7590161,5.162268 0.223221,0.607163 0.406937,1.100543 0.541651,1.490371 0.134889,0.387275 0.218781,0.676722 0.246669,0.837892 0.110033,0.623122 0.385763,1.153046 0.779106,1.520704 0.391943,0.367724 0.894325,0.56288 1.396713,0.561909 0.518954,4.29e-4 1.035401,-0.204966 1.447763,-0.583531 0.414111,-0.3785 0.721226,-0.924935 0.869181,-1.586185 0.04319,-0.19412 0.07059,-0.398113 0.09796,-0.627749 0.04676,-0.399636 0.08827,-0.872427 0.147492,-1.358559 0.08658,-0.726665 0.225202,-1.486778 0.431616,-1.976564 0.09988,-0.245716 0.214057,-0.413035 0.299412,-0.490273 0.09008,-0.07723 0.12135,-0.0896 0.226894,-0.09581 0.08291,0.0026 0.115926,0.01545 0.171701,0.05043 0.09352,0.05671 0.253786,0.259114 0.384474,0.607159 0.201281,0.515554 0.331499,1.28492 0.414872,2.009028 0.04296,0.362546 0.07648,0.715828 0.110035,1.033054 0.03522,0.319782 0.06709,0.59583 0.123041,0.84922 0.148245,0.661251 0.454369,1.207686 0.86872,1.586185 0.412359,0.379597 0.929565,0.584016 1.448284,0.58353 0.502388,8.77e-4 1.004776,-0.194184 1.396718,-0.562393 0.393634,-0.367172 0.668602,-0.897097 0.779156,-1.520219 0.02804,-0.16123 0.111901,-0.45062 0.246614,-0.837892 0.405713,-1.175217 1.242576,-3.244973 2.300613,-6.652644 0.684178,-2.203697 1.077582,-4.280155 1.078048,-6.146469 0,-1.217977 -0.168727,-2.35147 -0.553203,-3.361862 C 26.393706,10.870122 25.78549,9.9859371 24.94816,9.3117741 Z M 24.836954,20.90893 c -0.695733,2.239698 -1.2882,3.876867 -1.73265,5.084548 -0.222461,0.604542 -0.407463,1.10103 -0.552206,1.519182 -0.144344,0.420226 -0.250409,0.757551 -0.309102,1.079467 -0.06213,0.33781 -0.186169,0.532485 -0.310261,0.649371 -0.125786,0.116891 -0.259973,0.164337 -0.403496,0.166411 -0.148245,-0.0013 -0.309331,-0.05513 -0.466911,-0.197778 -0.155895,-0.14369 -0.31219,-0.38319 -0.401283,-0.774546 -0.01994,-0.08753 -0.04585,-0.25546 -0.06983,-0.460912 -0.04241,-0.362546 -0.08507,-0.847155 -0.148187,-1.366237 -0.09843,-0.782828 -0.233137,-1.64289 -0.54089,-2.395754 -0.157122,-0.375943 -0.360619,-0.736474 -0.672573,-1.031038 -0.306822,-0.295052 -0.751799,-0.498499 -1.221393,-0.492344 -0.355422,-0.0021 -0.703142,0.11025 -0.979625,0.299256 -0.487569,0.336838 -0.759153,0.828635 -0.956467,1.332306 -0.290544,0.762182 -0.418019,1.624739 -0.510727,2.398309 -0.04585,0.385753 -0.07993,0.74726 -0.112425,1.050111 -0.03184,0.300775 -0.06535,0.550023 -0.09276,0.666423 -0.0888,0.391415 -0.245449,0.63031 -0.401339,0.77351 -0.158281,0.14369 -0.318611,0.197717 -0.466857,0.197717 -0.143987,-8.77e-4 -0.27771,-0.04939 -0.403494,-0.165313 -0.124038,-0.116886 -0.248131,-0.311557 -0.310263,-0.648821 -0.05866,-0.322463 -0.164757,-0.659731 -0.309041,-1.079953 -0.432142,-1.248374 -1.240359,-3.240833 -2.284856,-6.603733 -0.651916,-2.096557 -1.006758,-4.031943 -1.005586,-5.667526 -6.04e-4,-1.068624 0.149703,-2.006409 0.448184,-2.787716 0.299646,-0.782219 0.738435,-1.412648 1.355992,-1.91212 0.903194,-0.7210032 1.63055,-0.8991675 2.368985,-0.9058684 0.563819,-5.591e-4 1.138493,0.1251118 1.740994,0.2703847 0.602557,0.1421047 1.231484,0.3069307 1.91934,0.3094887 0.688208,-0.0025 1.31708,-0.167384 1.919582,-0.3094887 0.60302,-0.1452123 1.177695,-0.2709326 1.741751,-0.2703847 0.737673,0.0067 1.464793,0.1854131 2.368694,0.9058684 0.617611,0.499472 1.056346,1.129352 1.356047,1.91212 0.29842,0.781245 0.448359,1.719031 0.448359,2.787716 0.0014,1.635948 -0.353846,3.571823 -1.005699,5.667344 z"
       id="path4"
       style="fill:#000000;stroke-width:1.5625" />
    <rect
       style="fill:#ff0000;stroke:none;stroke-width:0.600001;stroke-linecap:round;stroke-linejoin:round;paint-order:fill markers stroke"
       id="rect1173"
       width="5"
       height="17"
       x="8"
       y="1" />
    <rect
       style="fill:#ff0000;stroke:none;stroke-width:0.600001;stroke-linecap:round;stroke-linejoin:round;paint-order:fill markers stroke"
       id="rect1173-7"
       width="4.9854474"
       height="16.995127"
       x="7.0162811"
       y="-19.006874"
       transform="matrix(-9.7886126e-4,0.99999952,-0.99999963,8.5642755e-4,0,0)" />
  </g>
</svg>
