<?xml version="1.0" encoding="UTF-8" standalone="no"?>
<!-- Created with Inkscape (http://www.inkscape.org/) -->

<svg
   width="32.0px"
   height="32.0px"
   viewBox="0 0 32.0 32.0"
   version="1.1"
   id="SVGRoot"
   xmlns="http://www.w3.org/2000/svg"
   xmlns:svg="http://www.w3.org/2000/svg">
  <defs
     id="defs131" />
  <g
     id="layer1">
    <path
       id="path25375-1"
       style="fill:none;stroke:#725d00;stroke-width:3.2;stroke-linecap:square;stroke-dasharray:none;stroke-opacity:1"
       d="m 21.579275,21.712601 2.963332,3.517569 v 0 0 M 7.312664,6.6307634 10.275996,10.148333 v 0 0 m 14.391157,5.828035 h 3.809989 v 0 M 3.5609486,15.910979 h 3.8099886 v 0 m 8.6315928,8.631484 v 3.401274 M 16.06858,3.9436121 v 3.4012711 m 5.63528,2.9144688 2.56001,-2.4650851 M 7.6294836,24.021874 10.189493,21.556789 M 29.709339,15.976368 A 13.706806,13.568425 0 0 1 16.002532,29.544792 13.706806,13.568425 0 0 1 2.2957246,15.976368 13.706806,13.568425 0 0 1 16.002532,2.407943 13.706806,13.568425 0 0 1 29.709339,15.976368 Z" />
  </g>
</svg>
