<?xml version="1.0" encoding="UTF-8" standalone="no"?>
<!-- Created with Inkscape (http://www.inkscape.org/) -->

<svg
   width="32.0px"
   height="32.0px"
   viewBox="0 0 32.0 32.0"
   version="1.1"
   id="SVGRoot"
   xmlns="http://www.w3.org/2000/svg"
   xmlns:svg="http://www.w3.org/2000/svg">
  <defs
     id="defs7689" />
  <g
     id="layer1">
    <path
       id="rect7932-2"
       style="fill:#ffd5d5;fill-opacity:1;stroke:#ffffff;stroke-width:1.63546;stroke-linejoin:round;paint-order:markers fill stroke"
       d="m 2.0742375,8.3284141 v 2.0883839 9.397735 7.309347 h -1.031538 v 1.044193 H 30.957301 V 27.12388 h -1.031538 v -7.309347 -6.265156 l -6.189228,6.265156 h -2.063076 v -6.265156 l -6.189227,6.265156 H 13.421156 V 13.549377 L 7.2319268,19.814533 H 5.1688513 V 10.416798 8.3284141 Z" />
    <path
       id="rect7932"
       style="fill:#782800;fill-opacity:1;stroke:none;stroke-width:1.57582;stroke-linejoin:round;paint-order:markers fill stroke"
       d="m 2.4754098,11 v 9 7 H 29.47541 v -7 -6 l -6,6 h -2 v -6 l -6,6 h -2 v -6 l -6.0000002,6 h -2 v -9 z" />
    <rect
       style="fill:#000000;stroke:none;stroke-width:0.319287;stroke-linejoin:round;paint-order:markers fill stroke"
       id="rect10309-8"
       width="3"
       height="2"
       x="2.4754097"
       y="9" />
    <path
       style="fill:#000000;stroke:#bed8db;stroke-width:2;stroke-linejoin:round;stroke-dasharray:none;stroke-opacity:1;paint-order:markers fill stroke"
       d="M 8.4754098,25 V 21"
       id="path10387" />
    <path
       style="fill:#000000;stroke:#0065ff;stroke-width:2;stroke-linejoin:round;stroke-dasharray:none;stroke-opacity:1;paint-order:markers fill stroke"
       d="M 8.4754098,27 V 25"
       id="path10387-1" />
    <path
       style="fill:#000000;stroke:#bed8db;stroke-width:2;stroke-linejoin:round;stroke-dasharray:none;stroke-opacity:1;paint-order:markers fill stroke"
       d="M 12.47541,25 V 21"
       id="path10387-6" />
    <path
       style="fill:#000000;stroke:#0065ff;stroke-width:2;stroke-linejoin:round;stroke-dasharray:none;stroke-opacity:1;paint-order:markers fill stroke"
       d="M 12.47541,27 V 25"
       id="path10387-1-3" />
    <path
       style="fill:#000000;stroke:#bed8db;stroke-width:2;stroke-linejoin:round;stroke-dasharray:none;stroke-opacity:1;paint-order:markers fill stroke"
       d="M 16.47541,25 V 21"
       id="path10387-8" />
    <path
       style="fill:#000000;stroke:#0065ff;stroke-width:2;stroke-linejoin:round;stroke-dasharray:none;stroke-opacity:1;paint-order:markers fill stroke"
       d="M 16.47541,27 V 25"
       id="path10387-1-35" />
    <path
       style="fill:#000000;stroke:#bed8db;stroke-width:2;stroke-linejoin:round;stroke-dasharray:none;stroke-opacity:1;paint-order:markers fill stroke"
       d="M 20.47541,25 V 21"
       id="path10387-4" />
    <path
       style="fill:#000000;stroke:#0065ff;stroke-width:2;stroke-linejoin:round;stroke-dasharray:none;stroke-opacity:1;paint-order:markers fill stroke"
       d="M 20.47541,27 V 25"
       id="path10387-1-5" />
    <path
       style="fill:#000000;stroke:#bed8db;stroke-width:2;stroke-linejoin:round;stroke-dasharray:none;stroke-opacity:1;paint-order:markers fill stroke"
       d="M 24.47541,25 V 21"
       id="path10387-3" />
    <path
       style="fill:#000000;stroke:#0065ff;stroke-width:2;stroke-linejoin:round;stroke-dasharray:none;stroke-opacity:1;paint-order:markers fill stroke"
       d="M 24.47541,27 V 25"
       id="path10387-1-9" />
    <rect
       style="fill:#000000;stroke:none;stroke-width:0.701948;stroke-linejoin:round;paint-order:markers fill stroke"
       id="rect10309-8-2"
       width="29"
       height="1"
       x="1.4754099"
       y="27" />
    <path
       d="M 4.5180443,7.0468224 C 4.7451227,6.6342994 4.7554035,6.6487703 5.0620371,6.2294227 5.3686675,5.8100721 6.3421383,5.6315689 6.3421383,5.6315689 c 0,0 0.540973,-1.5206544 1.5528729,-2.0518381 1.0118991,-0.5311777 1.0804703,0.1976863 1.0804703,0.1976863 0,0 3.5549875,-2.6624705 3.5703355,-0.0066 -0.0394,0.9420021 -0.569994,0.7201448 -0.569994,0.7201448 0,0 0.998546,2.0219582 -3.5533161,2.1302994 0,0 0.2723963,0.404058 -0.5295436,0.8048878 -0.8019621,0.4008726 -1.8533402,0.035535 -1.8533402,0.035535 0,0 -0.034638,0.5857037 -1.3181566,0.7445518 -0.3080044,0.2389772 -0.8977602,0.2352921 -0.9675063,0.025906 0,0 -0.00984,-0.720025 0.4087407,-0.7416394 0.00685,0.046641 0.2393329,-0.2329251 0.3553434,-0.4436895 z"
       fill="white"
       id="path16830"
       style="fill:#666666;stroke:none;stroke-width:0.615016;stroke-dasharray:none" />
  </g>
</svg>
