<?xml version="1.0" encoding="UTF-8" standalone="no"?>
<!-- Created with Inkscape (http://www.inkscape.org/) -->

<svg
   width="32.0px"
   height="32.0px"
   viewBox="0 0 32.0 32.0"
   version="1.1"
   id="SVGRoot"
   xmlns="http://www.w3.org/2000/svg"
   xmlns:svg="http://www.w3.org/2000/svg">
  <defs
     id="defs5864" />
  <g
     id="layer1">
    <path
       opacity="0.25"
       d="m 16.003125,3.2589944 c -3.016574,4.577e-4 -6.1372479,0.8010801 -8.7315904,2.1622466 -2.5738298,1.351434 -4.637333,3.2557155 -5.534771,5.506514 -0.4672073,0.423403 -0.80911353,0.879314 -0.99706271,1.367574 -0.25164352,0.61005 -0.37982684,1.354784 -0.38026874,2.12627 0,0.717163 0.11239018,1.457237 0.34933506,2.135192 -0.0761634,0.458682 -0.10917168,0.920891 -0.10917168,1.371214 0,0.746287 0.0918152,1.461379 0.23834598,2.077535 0.14742486,0.617539 0.34513729,1.135264 0.57494929,1.497369 l 0.016384,0.02698 c 0.06281,0.108525 0.1312215,0.215301 0.205602,0.320706 0.058794,0.845982 0.1956683,1.77044 0.4985256,2.387522 l 0.060045,0.124315 h 0.00181 c 0.7308627,1.442758 2.4874964,2.642944 4.872488,3.513606 2.4589757,0.893612 5.5995616,1.42709 9.0245076,1.42709 3.425004,0 6.567394,-0.533478 9.026369,-1.42709 2.384974,-0.870662 4.139804,-2.070848 4.870674,-3.513606 h 0.0017 l 0.06182,-0.124315 c 0.180432,-0.364815 0.296062,-0.832325 0.378448,-1.331596 0.07843,-0.478579 0.122325,-0.983223 0.14014,-1.439711 0.220023,-0.360371 0.409188,-0.863171 0.551253,-1.459537 0.146139,-0.616612 0.238362,-1.331261 0.238362,-2.077548 0,-0.449453 -0.03389,-0.910675 -0.109171,-1.367634 0.237839,-0.679221 0.350676,-1.421656 0.351142,-2.140551 -4.66e-4,-0.777667 -0.130478,-1.527593 -0.385729,-2.140689 C 31.050401,11.853944 30.763016,11.4539 30.380434,11.077267 29.57078,8.736916 27.511155,6.7944159 24.903887,5.4283834 22.276127,4.0531126 19.083373,3.2593678 16.003103,3.2589341 Z"
       fill="white"
       id="path5739-8"
       style="fill:#ffffff;fill-opacity:1;stroke:none;stroke-width:0.0579404" />
    <path
       opacity="0.25"
       d="M 15.84145,4.6782855 C 13.142133,4.6786914 10.349663,5.3886869 8.0281708,6.5957751 5.7250334,7.7942327 3.8785507,9.4829579 3.0754973,11.478977 c -0.4180704,0.375474 -0.7240179,0.779778 -0.8922,1.21277 -0.2251787,0.540994 -0.3398803,1.201428 -0.3402761,1.885585 0,0.635983 0.1005701,1.292283 0.3125954,1.893499 -0.06815,0.40676 -0.09769,0.816649 -0.09769,1.215997 0,0.661811 0.08216,1.295957 0.2132795,1.842367 0.1319199,0.547636 0.3088389,1.006757 0.5144806,1.327873 l 0.014657,0.02392 c 0.056201,0.09624 0.1174216,0.19093 0.183979,0.284404 0.052609,0.750221 0.1750899,1.570032 0.4460951,2.117264 l 0.053731,0.110244 h 0.00162 c 0.6539974,1.279444 2.225884,2.343774 4.3600435,3.115882 2.2003627,0.792457 5.0106507,1.265548 8.0753917,1.265548 3.064792,0 5.876695,-0.473091 8.077057,-1.265548 2.134143,-0.772108 3.704416,-1.836438 4.358418,-3.115882 h 0.0016 l 0.05532,-0.110244 c 0.161456,-0.323519 0.264925,-0.738109 0.338646,-1.180865 0.07018,-0.424406 0.10946,-0.871926 0.125402,-1.276742 0.196883,-0.319578 0.366154,-0.765464 0.493276,-1.294323 0.13077,-0.546815 0.213295,-1.180567 0.213295,-1.842378 0,-0.398578 -0.03032,-0.807592 -0.09769,-1.212824 0.212826,-0.602337 0.313794,-1.260731 0.314211,-1.898252 -4.17e-4,-0.689637 -0.116755,-1.354675 -0.345159,-1.898371 -0.149415,-0.37858 -0.406577,-0.733342 -0.748921,-1.06734 C 27.982181,9.53613 26.139169,7.8135127 23.80611,6.6021092 21.454714,5.382513 18.597745,4.6786167 15.841431,4.6782321 Z"
       fill="white"
       id="path5739"
       style="opacity:1;fill:#dd4a01;fill-opacity:1;stroke:none;stroke-width:0.0516138" />
    <path
       d="M 15.912516,4.6782855 C 13.213199,4.6786914 10.420729,5.3886869 8.0992364,6.5957751 5.7960988,7.7942327 3.9496162,9.4829579 3.1465628,11.478977 c -0.4180704,0.375474 -0.7240179,0.779778 -0.8922,1.21277 -0.2251787,0.540994 -0.3398803,1.201428 -0.3402761,1.885585 0,0.635983 0.1005701,1.292283 0.3125954,1.893499 -0.06815,0.40676 -0.09769,0.816649 -0.09769,1.215997 0,0.661811 0.08216,1.295957 0.2132795,1.842367 0.1319199,0.547636 0.3088389,1.006757 0.5144806,1.327873 l 0.014657,0.02392 c 0.056201,0.09624 0.1174216,0.19093 0.183979,0.284404 0.052609,0.750221 0.1750899,1.570032 0.4460951,2.117264 l 0.053731,0.110244 h 0.00162 c 0.6539974,1.279444 2.2258845,2.343774 4.3600437,3.115882 2.200362,0.792457 5.010651,1.265548 8.075392,1.265548 3.064792,0 5.876695,-0.473091 8.077057,-1.265548 2.134143,-0.772108 3.704416,-1.836438 4.358419,-3.115882 h 0.0016 l 0.05538,-0.110244 c 0.161404,-0.323519 0.264873,-0.738109 0.338646,-1.180865 0.07013,-0.424406 0.109408,-0.871926 0.12535,-1.276742 0.196884,-0.319578 0.366154,-0.765464 0.493277,-1.294323 0.130769,-0.546815 0.213295,-1.180567 0.213295,-1.842378 0,-0.398578 -0.03032,-0.807592 -0.09769,-1.212824 0.212825,-0.602337 0.313847,-1.260731 0.314211,-1.898252 -3.51e-4,-0.68963 -0.116743,-1.354668 -0.345093,-1.898364 C 29.377249,12.300326 29.120087,11.945564 28.777743,11.611566 28.053249,9.53613 26.210237,7.8135127 23.877178,6.6021092 21.525782,5.382513 18.668813,4.6786167 15.9125,4.6782321 Z m 0,0.3914856 c 3.069116,-7.797e-4 6.287081,0.9010864 8.721733,2.4144436 1.216727,0.7557012 2.238394,1.6631003 2.95179,2.6812663 0.713343,1.018923 1.120135,2.14574 1.120135,3.354014 -4.17e-4,0.461161 -0.130509,0.871296 -0.37126,1.249579 -0.221161,0.348888 -0.541624,0.668103 -0.939402,0.958745 -0.04303,-0.02777 -0.08122,-0.0361 -0.112326,-0.04315 -0.03705,-0.0075 -0.0681,-0.0075 -0.09279,-0.0075 -0.03032,0 -0.0498,0.0021 -0.05538,0.0032 h -0.0081 l -0.0064,10e-4 c -0.37501,0.06686 -0.646084,0.17524 -0.900327,0.281232 -0.255496,0.106386 -0.494111,0.209036 -0.836872,0.287629 -0.290923,0.06772 -0.658274,0.127932 -0.988219,0.282866 -0.164634,0.07787 -0.322234,0.182076 -0.447741,0.329138 -0.09487,0.110296 -0.17073,0.24421 -0.216524,0.399508 -0.934194,0.237405 -1.926164,0.420303 -2.904536,0.556011 -1.899072,0.264056 -3.74719,0.354763 -5.032479,0.354763 -1.903813,7.69e-4 -5.010545,-0.342692 -7.6700068,-1.072203 C 8.0886846,17.038243 8.047,16.980752 7.9983954,16.932632 7.7899465,16.724525 7.5070994,16.629365 7.2396737,16.552309 6.9718836,16.477646 6.7077398,16.424729 6.555871,16.360556 6.3462745,16.275318 6.0663976,16.090166 5.7678788,15.922756 5.4673864,15.756937 5.144224,15.599546 4.7959045,15.59679 c -0.085287,0 -0.1715525,0.01132 -0.2572403,0.03514 C 4.5223252,15.62125 4.5045302,15.61056 4.4882012,15.59999 4.0533958,15.310538 3.7082643,14.999388 3.4755157,14.671574 3.2423712,14.343045 3.1209905,14.00266 3.1205947,13.636137 3.1209905,12.448627 3.526547,11.324876 4.2407289,10.298123 5.3108013,8.7589698 7.0767126,7.4470005 9.1527129,6.5254698 11.228298,5.6027644 13.612622,5.0693866 15.912597,5.0697818 Z M 4.795829,15.986652 c 0.214013,-0.0032 0.4940052,0.116022 0.7749768,0.274844 0.2829615,0.156824 0.5637659,0.346731 0.8319734,0.458608 0.1442632,0.05906 0.3072297,0.09795 0.4754066,0.14062 0.2514833,0.06259 0.5116667,0.132376 0.6870328,0.234907 0.087682,0.05085 0.1535372,0.10753 0.1953722,0.169344 0.036679,0.0548 0.061161,0.114035 0.066791,0.196559 h -0.00162 c -0.2370996,0.0021 -0.5313562,-0.09378 -0.8270719,-0.127835 -0.2945176,-0.03172 -0.609093,-0.04796 -0.9231475,-0.04796 -0.1247155,0 -0.2496596,0.0021 -0.3728122,0.0075 -0.3630637,0.01528 -0.7045487,0.115766 -1.0289612,0.260467 -0.1729642,0.07819 -0.311189,0.189094 -0.4363315,0.270091 -0.064958,0.04305 -0.1228291,0.07595 -0.1758352,0.09741 -0.022314,-0.06185 -0.046019,-0.116534 -0.066749,-0.167816 -0.039851,-0.09741 -0.070286,-0.179939 -0.083033,-0.282823 -0.00119,-0.01133 -0.00162,-0.02222 -0.00162,-0.03514 -7.97e-4,-0.06772 0.023511,-0.164697 0.056988,-0.263639 0.032679,-0.100192 0.07337,-0.199572 0.09769,-0.30362 0.057387,-0.249176 0.1056605,-0.348375 0.1742045,-0.444252 0.065756,-0.09229 0.1734129,-0.194861 0.327251,-0.38027 l 0.039074,-0.02393 c 0.059782,-0.02264 0.1215371,-0.03354 0.1904856,-0.03354 z m 22.314751,0.09592 c -0.0036,0.08449 -0.01024,0.197885 -0.01625,0.317997 -0.01036,0.192822 -0.0208,0.405328 -0.02115,0.56727 0,0.03471 0.0021,0.06772 0.0032,0.09742 0.0047,0.115765 0.02652,0.259399 0.04721,0.417046 0.02115,0.156462 0.04075,0.32244 0.04075,0.457016 0.0019,0.116951 -0.02063,0.210061 -0.03418,0.226885 -0.02672,0.04423 -0.05518,0.06794 -0.102587,0.08951 -0.04664,0.02029 -0.113733,0.03237 -0.196988,0.03194 -0.187713,0.001 -0.443,-0.06537 -0.677291,-0.151815 -0.23554,-0.08609 -0.450136,-0.188218 -0.581271,-0.247639 -0.305666,-0.138463 -0.620659,-0.32321 -1.001296,-0.397915 -0.08367,-0.01645 -0.161873,-0.02115 -0.23278,-0.02072 -0.102058,4.06e-4 -0.189276,0.0096 -0.247471,0.01282 v -10e-4 c 0.02547,-0.160755 0.08185,-0.274075 0.161195,-0.367538 0.118734,-0.139649 0.302228,-0.237213 0.522608,-0.309975 0.219599,-0.07274 0.469311,-0.118169 0.700058,-0.170989 0.379023,-0.08684 0.649261,-0.203962 0.90038,-0.308384 0.230748,-0.09624 0.445344,-0.18183 0.73585,-0.241293 z m -24.2896376,1.16808 c 0.051013,0.07937 0.1054125,0.156568 0.1628102,0.2301 1.5526995,2.236554 6.7438476,3.878078 12.9092254,3.878078 6.163764,0 11.353686,-1.641118 12.907599,-3.876487 h 0.0016 c 0.057,-0.07391 0.110191,-0.150694 0.161195,-0.2301 -0.870787,2.452074 -4.81762,4.415783 -9.9233,4.996661 0.0084,-0.02542 0.01391,-0.05213 0.01792,-0.0799 l 0.01463,-0.107071 -0.08466,-0.06868 c -0.223974,-0.178753 -0.508071,-0.215776 -0.781489,-0.217314 -0.331195,3.63e-4 -0.666557,0.06217 -0.888918,0.09261 -0.469466,0.06611 -0.978321,0.171405 -1.447422,0.170988 -0.08409,0 -0.168178,-0.0032 -0.249087,-0.01121 -0.540791,-0.04732 -1.074913,-0.194658 -1.665562,-0.274844 -0.109148,-0.01485 -0.218037,-0.02713 -0.328851,-0.02713 -0.178544,-4.06e-4 -0.366102,0.03322 -0.547042,0.129427 -0.06935,0.03718 -0.153069,0.08983 -0.231218,0.161418 -0.03865,0.036 -0.07679,0.07573 -0.109044,0.126202 -0.01792,0.02862 -0.03401,0.0627 -0.04558,0.100725 C 7.6115843,21.655068 3.6869597,19.694928 2.8209392,17.250672 Z m 25.7142416,3.847754 c -0.01553,0.24171 -0.03938,0.492158 -0.07325,0.736624 -0.06095,0.441229 -0.156609,0.863734 -0.284931,1.166498 h -0.0032 l -0.0521,0.115051 c -0.530841,1.168335 -2.042605,2.253836 -4.190762,3.024812 -2.145293,0.7737 -4.915726,1.241568 -7.93863,1.241568 -3.022906,0 -5.792869,-0.467868 -7.9386299,-1.241568 C 5.9055351,25.370821 4.39377,24.284913 3.86292,23.116578 L 3.810818,23.001527 H 3.807588 C 3.6792578,22.698763 3.5832445,22.276258 3.5226684,21.835029 3.5015511,21.682498 3.4841226,21.528183 3.470566,21.37483 c 1.8751211,2.176322 6.729327,3.726316 12.422424,3.726316 5.931818,0 10.951637,-1.682476 12.642206,-4.002741 z m -14.908525,1.019436 c 0.08247,0 0.174741,0.0086 0.275137,0.02243 0.555587,0.07434 1.094033,0.224428 1.683484,0.278016 0.09446,0.0086 0.188443,0.01122 0.283264,0.01122 0.526099,-7.7e-4 1.053239,-0.110393 1.504368,-0.17258 0.235123,-0.03322 0.551417,-0.08984 0.831973,-0.08951 0.152234,-0.001 0.289151,0.01634 0.39236,0.05277 -0.01078,0.01068 -0.02225,0.02104 -0.0358,0.03194 -0.108001,0.08801 -0.305562,0.179683 -0.509582,0.270038 -0.20449,0.09314 -0.417003,0.183667 -0.579658,0.32761 -0.203239,0.185002 -0.392881,0.427621 -0.590963,0.64392 -0.196466,0.216695 -0.400018,0.401088 -0.586116,0.474609 -0.07653,0.03087 -0.152703,0.04433 -0.231217,0.04476 -0.198447,10e-4 -0.427058,-0.09507 -0.643061,-0.242886 -0.216421,-0.146699 -0.417576,-0.338954 -0.568247,-0.498545 -0.19605,-0.207337 -0.441177,-0.434169 -0.726108,-0.618402 -0.284984,-0.183464 -0.611645,-0.324844 -0.968734,-0.34673 l -0.03907,-0.0032 c 0.0099,-0.0096 0.02183,-0.02051 0.03418,-0.03034 0.0383,-0.0298 0.08372,-0.05672 0.115609,-0.07349 0.115555,-0.06024 0.223871,-0.08065 0.358182,-0.0815 z"
       fill="white"
       id="path5737"
       style="fill:#f8d085;fill-opacity:1;stroke:#000000;stroke-width:0.188205;stroke-dasharray:none;stroke-opacity:1" />
  </g>
</svg>
