<?xml version="1.0" encoding="UTF-8" standalone="no"?>
<!-- Created with Inkscape (http://www.inkscape.org/) -->

<svg
   width="32.0px"
   height="32.0px"
   viewBox="0 0 32.0 32.0"
   version="1.1"
   id="SVGRoot"
   xmlns="http://www.w3.org/2000/svg"
   xmlns:svg="http://www.w3.org/2000/svg">
  <defs
     id="defs21313" />
  <g
     id="layer1">
    <path
       id="path20825-7"
       style="fill:#ffffff;fill-opacity:1;stroke:none;stroke-width:1.00157;stroke-dasharray:none;stroke-opacity:1"
       d="M 15.982896,0.76744746 C 12.9653,0.74815827 10.200469,3.4194323 10.17529,6.5295597 c -0.06658,1.8344525 0.496686,3.8334283 1.994078,4.9667313 0,1.815296 0,3.630592 0,5.44589 -1.659159,-1.802507 -3.2082215,-3.719832 -4.939,-5.44798 -1.5355326,-1.169 -3.9866607,-0.466622 -4.6577089,1.380992 -0.5652462,2.279925 -1.0427444,4.597923 -1.5052102,6.903646 -0.32818353,1.496988 0.3176913,3.295824 1.8269377,3.798624 0.5180175,0.181024 1.1062146,0.126666 1.6152419,0.06398 1.4806729,2.782871 3.7863492,5.165526 6.7042595,6.326719 4.431909,1.881126 9.89211,0.966673 13.384446,-2.443036 1.147797,-1.019527 2.018056,-2.37562 2.821064,-3.633009 1.668576,0.519804 3.667012,-0.615965 3.889503,-2.427802 0.08022,-1.816357 -0.630628,-3.549393 -0.929048,-5.320801 -0.416544,-1.376831 -0.3735,-2.96872 -1.277355,-4.139606 -1.198316,-1.490502 -3.679732,-1.419121 -4.789045,0.141897 -1.45119,1.69196 -2.907882,3.379529 -4.355663,5.07421 0,-1.868914 1e-6,-3.737826 0,-5.606741 2.080816,-1.6859154 2.577394,-4.9168819 1.54012,-7.3363891 -0.948802,-2.163835 -3.204532,-3.57451913 -5.515014,-3.50943632 z m 0.177707,5.08450174 c 1.010421,0.055359 0.927984,1.7794621 -0.08416,1.7192053 -0.988136,0.015176 -1.039452,-1.6608297 -0.0527,-1.7192053 h 0.10458 z M 12.169368,22.05175 c -0.665375,-0.202007 0.0077,-1.351973 0,-0.596185 0,0.198728 0,0.397456 0,0.596185 z m 7.884424,-0.749932 c 0.835416,0.221036 -0.39624,1.462011 -0.096,0.398989 0.04225,-0.09369 -0.09678,-0.791047 0.096,-0.398989 z" />
    <path
       fill-rule="evenodd"
       clip-rule="evenodd"
       d="m 17.842734,10.29965 c 1.502582,-0.5129614 2.080479,-1.9589823 2.080479,-3.5858396 0,-2.0635979 -1.732062,-3.7364796 -3.868643,-3.7364796 -2.136583,0 -3.868635,1.6728817 -3.868635,3.7364796 0,1.6268573 0.51557,2.9489305 2.018144,3.4618926 V 25.126052 C 11.646457,24.778935 10.868046,23.730687 9.9130145,22.347135 9.4015805,21.60619 8.8592872,20.725265 8.6387111,20.125314 L 9.9897032,19.775706 C 10.546403,19.631665 10.876715,19.078981 10.72758,18.54136 10.68564,18.390407 10.608041,18.250912 10.50075,18.133898 L 6.0348573,13.264715 C 5.8462217,13.059024 5.5753665,12.941266 5.2908727,12.941266 c -0.485959,0 -0.9006611,0.339394 -0.9804251,0.802405 l -1.3126671,5.90206 c -0.024831,0.144163 -0.094104,0.863973 -0.055017,1.005149 0.1515079,0.546147 0.4163185,0.741484 0.9817563,0.595134 l 1.6556731,-0.22646 c 0.2689236,0.770149 0.9006714,1.793065 1.6125131,2.824401 1.4733093,2.134397 4.470852,4.538978 8.861826,4.538978 4.391032,0 7.326249,-2.528528 8.799494,-4.662924 0.667595,-0.967126 1.287222,-1.988873 1.560283,-2.739661 l 1.614537,0.557881 c 0.565401,0.14634 1.13222,-0.05851 1.283673,-0.604525 0.03917,-0.141243 -0.0301,-0.670392 -0.05503,-0.814681 l -1.459806,-6.382331 c -0.07919,-0.459021 -0.490409,-0.795426 -0.972249,-0.795426 -0.288411,0 -0.562373,0.122052 -0.749677,0.33397 l -4.445072,5.030101 c -0.101618,0.115029 -0.175374,0.250533 -0.215867,0.396569 -0.150358,0.541907 0.182602,1.098897 0.743682,1.244122 l 1.256918,0.325256 c -0.221093,0.573048 -0.481459,1.194647 -0.952208,1.876622 -0.954968,1.383552 -2.062923,2.693002 -4.620545,3.04012 z M 17.344117,6.7138104 c 0,0.6878852 -0.577329,1.245487 -1.289547,1.245487 -0.712155,0 -1.289549,-0.5576018 -1.289549,-1.245487 0,-0.687866 0.577394,-1.2454964 1.289549,-1.2454964 0.712218,0 1.289547,0.5576304 1.289547,1.2454964 z"
       fill="white"
       id="path20825"
       style="fill:#f8e818;fill-opacity:1;stroke:#000000;stroke-width:0.8;stroke-dasharray:none;stroke-opacity:1" />
  </g>
</svg>
