<?xml version="1.0" encoding="UTF-8" standalone="no"?>
<!-- Created with Inkscape (http://www.inkscape.org/) -->

<svg
   width="28"
   height="32"
   viewBox="0 0 28 32"
   version="1.1"
   id="SVGRoot"
   xmlns="http://www.w3.org/2000/svg"
   xmlns:svg="http://www.w3.org/2000/svg">
  <defs
     id="defs8020" />
  <g
     id="layer1">
    <path
       id="XMLID_7_-8"
       style="fill:#ffffff;stroke:none;stroke-width:0.999996;stroke-dasharray:none"
       d="M 8.7590057,0.40604686 C 5.3818529,0.39984461 2.4670802,2.9617583 1.3203037,6.0350594 0.71473179,7.7142058 0.30050844,9.5970444 0.75946411,11.359801 1.2782042,13.039873 3.2822715,14.127492 4.9240769,13.373694 6.3596777,12.798724 7.0532115,11.193075 6.9923066,9.7133595 7.0751629,8.6369115 7.8648793,7.2006302 9.1227935,7.4480176 10.063033,7.7436376 10.63744,8.9072896 10.600682,9.7737888 7.6097971,10.206002 5.6095268,13.25195 5.6171955,16.155181 5.5682445,17.221 5.9797629,18.313937 6.78091,19.027429 c -1.357951,0.05466 -2.7356397,-0.112296 -4.0812442,0.08938 -2.2681889,0.554799 -3.17281762,3.589397 -1.87297371,5.441784 0.51736351,0.830081 1.44222851,1.412285 2.42433921,1.459462 0.8946784,1.840512 2.6181537,3.060463 4.3142964,4.094345 1.2379641,0.667804 2.5445573,1.299199 3.9813013,1.285482 2.122661,0.130513 4.285204,0.144477 6.379007,-0.240288 2.484341,-0.95937 4.861669,-2.456505 6.294351,-4.76871 0.197564,-0.595558 0.942583,-0.325709 1.383153,-0.661788 2.202072,-1.02673 2.543299,-4.388703 0.708241,-5.93177 -1.161655,-1.100314 -2.837605,-0.694853 -4.274499,-0.767896 -0.54503,-0.01958 -1.492636,0.173065 -0.66343,-0.453422 1.216952,-1.627841 0.774204,-3.891107 -0.03942,-5.597111 -0.816009,-1.648108 -2.398766,-2.963626 -4.245808,-3.2107141 0.07118,-1.08711 0.852154,-2.556349 2.125885,-2.3200659 1.314383,0.4432761 1.59144,2.0079403 1.591863,3.229134 0.194835,1.826773 2.066633,3.354119 3.89527,2.846776 1.736517,-0.42138 2.688796,-2.330337 2.455172,-4.0279751 C 27.002658,5.7889807 24.787879,1.9678757 21.157986,0.76833026 18.661288,-0.0943069 15.777765,0.63266037 13.867191,2.4294525 12.482983,1.160791 10.644331,0.3829065 8.7590028,0.40605076 Z" />
    <path
       id="XMLID_7_"
       d="m 21.245643,27.541502 c 1.211816,-1.096821 1.721757,-1.971007 2.387439,-3.187616 h 1.014328 c 0.718972,0 1.301863,-0.713585 1.301863,-1.5938 0,-0.880198 -0.582891,-1.593799 -1.301863,-1.593799 H 22.911592 15.192157 V 16.38489 c 0,-0.878832 0.584021,-1.593799 1.301861,-1.593799 0.717856,0 1.301862,0.714967 1.301862,1.593799 0,0.880198 0.58289,1.593799 1.301861,1.593799 0.718972,0 1.301863,-0.713601 1.301863,-1.593799 0,-2.636459 -1.751952,-4.781397 -3.905586,-4.781397 -0.456428,0 -0.894378,0.09728 -1.301861,0.274125 v -1.867943 c 0,-2.6364578 1.751966,-4.7813962 3.905584,-4.7813962 2.153633,0 3.905586,2.1449384 3.905586,4.7813962 0,0.880218 0.58289,1.593818 1.301862,1.593818 0.718985,0 1.301861,-0.7136 1.301861,-1.593818 0,-4.3941025 -2.920065,-7.9689945 -6.509309,-7.9689945 -2.127059,0 -4.018928,1.2555925 -5.207447,3.193121 -1.188516,-1.9375285 -3.080372,-3.193121 -5.207446,-3.193121 -3.5892429,0 -6.5093077,3.574892 -6.5093077,7.9689945 0,0.880218 0.5828755,1.593818 1.3018618,1.593818 0.7189715,0 1.301861,-0.7136 1.301861,-1.593818 0,-2.6364578 1.7520364,-4.7813962 3.9055849,-4.7813962 2.153534,0 3.905586,2.1449384 3.905586,4.7813962 v 1.867943 c -0.407485,-0.17691 -0.845433,-0.274125 -1.301862,-0.274125 -2.1535489,0 -3.9055856,2.144938 -3.9055856,4.781397 0,0.880198 0.5828895,1.593799 1.3018616,1.593799 0.718972,0 1.3018609,-0.713601 1.3018609,-1.593799 0,-0.878832 0.5840101,-1.593799 1.3018631,-1.593799 0.717839,0 1.301862,0.714967 1.301862,1.593799 v 4.781397 H 4.8690839 3.1332643 c -0.7189722,0 -1.3018618,0.713601 -1.3018618,1.593799 0,0.880215 0.5828896,1.5938 1.3018618,1.5938 H 4.147593 c 0.6656824,1.216609 1.0761717,2.247842 2.2216878,3.030569 1.3426971,1.172583 2.5445791,1.777306 4.0652062,2.359731 2.003772,0.322748 5.429036,0.247113 7.00606,-0.02555 1.211212,-0.493888 2.737061,-1.208125 3.805096,-2.177128 z"
       style="fill:#0000ff;stroke:none;stroke-width:1;stroke-dasharray:none" />
  </g>
</svg>
