<?xml version="1.0" encoding="UTF-8" standalone="no"?>
<!-- Created with Inkscape (http://www.inkscape.org/) -->

<svg
   width="32.0px"
   height="32.0px"
   viewBox="0 0 32.0 32.0"
   version="1.1"
   id="SVGRoot"
   xmlns="http://www.w3.org/2000/svg"
   xmlns:svg="http://www.w3.org/2000/svg">
  <defs
     id="defs450" />
  <g
     id="layer1">
    <rect
       style="fill:#ffffff;fill-opacity:1;stroke:none;stroke-width:0.500832;stroke-linecap:round;stroke-dasharray:none;paint-order:markers fill stroke"
       id="rect4122"
       width="20.046839"
       height="31.213116"
       x="1.5737705"
       y="0.37470725"
       ry="1.1872474" />
    <path
       d="m 18.689888,1.4627416 c 0.764281,0 1.526094,0.4992713 1.526094,1.2979393 l 0.01687,25.6737931 h -1.571144 l -0.01406,2.030891 -14.4246537,-0.0075 -0.01126,-2.023261 -1.3515207,0.01068 V 2.4966603 c 0,-0.5534732 0.3546952,-1.0332672 1.0220904,-1.0332672 z M 16.276864,4.3004018 H 6.8246784 c -0.5233384,0 -0.9348081,0.1926369 -0.9348018,0.8449311 v 6.7492911 c 0,0.457181 0.2703785,0.788947 0.8475115,0.788947 l 9.5141329,-0.02294 c 0.549462,0 1.022091,-0.366919 1.022091,-0.900928 l -0.04786,-6.6373104 c 0,-0.5312864 -0.407238,-0.8220297 -0.948879,-0.8220297 z"
       id="path1897"
       fill="#ffffff"
       fill-rule="evenodd"
       style="fill:#0065ff;fill-opacity:1;stroke:#000000;stroke-width:0.474137;stroke-dasharray:none" />
    <path
       d="m 20.146639,10.287351 1.443566,-0.0075 c 0.0093,5.309288 -0.03347,15.787433 -0.05791,15.966719 -0.05225,0.382713 -0.02062,0.779193 0.08807,1.140403 2.263024,5.152934 9.585697,2.786189 8.545978,-2.227915 -2.283605,-4.973553 -5.485669,-8.338988 -7.079337,-14.205111 l -0.141874,4.360704 c 1.434248,2.522638 3.964551,6.953016 5.926858,10.656332 0.165327,3.419146 -4.334672,4.545644 -5.744025,0.875656 -0.62805,-6.424085 0.02361,-13.426512 0.03545,-20.1397744 C 22.24758,4.2459868 21.237047,4.010438 20.211506,4.1276465"
       id="path1899"
       fill="#ffffff"
       fill-rule="evenodd"
       style="fill:#333333;stroke-width:0.0856608" />
  </g>
</svg>
