<?xml version="1.0" encoding="UTF-8" standalone="no"?>
<!-- Created with Inkscape (http://www.inkscape.org/) -->

<svg
   width="32.0px"
   height="32.0px"
   viewBox="0 0 32.0 32.0"
   version="1.1"
   id="SVGRoot"
   xmlns="http://www.w3.org/2000/svg"
   xmlns:svg="http://www.w3.org/2000/svg">
  <defs
     id="defs30371" />
  <g
     id="layer1">
    <path
       id="path31137-1"
       style="fill:#ffffff;stroke:#ffffff;stroke-width:3.79021;stroke-linecap:round;stroke-dasharray:none;paint-order:fill markers stroke"
       d="M 3.0174423,12.735086 15.542387,3.6650728 27.933379,12.735086 M 6.29938,28.844519 24.24957,10.772174 M 6.4333358,10.839867 24.316549,28.844525" />
    <path
       style="fill:#ff9500;fill-opacity:1;stroke:#de8787;stroke-width:0;stroke-linecap:square;paint-order:fill markers stroke"
       d="m 8.3203224,21.613665 c -0.1991871,0.01254 -0.5958558,0.03752 -0.7306093,-0.338555 -0.1347535,-0.376075 -0.00751,-1.164147 0.420548,-1.895037 0.4280582,-0.730891 1.1582189,-1.409716 1.4007077,-2.055196 0.2424888,-0.64548 -0.0025,-1.25896 -0.063501,-1.917301 -0.061006,-0.658341 0.062654,-1.358201 0.4259111,-1.999448 0.363257,-0.641246 0.964553,-1.220272 1.757979,-1.520653 0.793426,-0.30038 1.775786,-0.321185 2.797866,-0.478233 1.02208,-0.157047 2.07998,-0.449466 3.081208,-0.19317 1.001227,0.256296 1.939683,1.058644 2.350088,1.991815 0.410404,0.933171 0.291158,1.993526 0.764151,2.779134 0.472994,0.785608 1.537776,1.297987 1.899471,1.73769 0.361696,0.439703 0.02134,0.80567 -0.591922,0.798761 -0.613262,-0.0069 -1.497207,-0.386999 -2.002227,-0.336054 -0.505021,0.05095 -0.626711,0.532454 -0.392903,0.938698 0.233807,0.406245 0.8217,0.735816 1.275858,1.250523 0.454159,0.514708 0.775889,1.214975 0.75755,1.72382 -0.01834,0.508845 -0.376141,0.827361 -0.981586,0.59805 -0.605444,-0.229312 -1.458726,-1.006355 -1.933185,-1.160548 -0.474458,-0.154194 -0.565497,0.314546 -0.236837,0.880059 0.32866,0.565514 1.072754,1.222286 0.932349,1.720437 -0.140405,0.498151 -1.166127,0.837881 -2.229369,0.990394 -1.063243,0.152512 -2.162299,0.11754 -3.332096,0.121474 -1.169797,0.0039 -2.399375,0.04679 -3.174786,-0.285051 -0.7754113,-0.331838 -1.0901941,-1.039264 -0.918632,-1.741732 0.171562,-0.702468 0.830422,-1.399098 1.055952,-1.928325 0.225531,-0.529226 0.01592,-0.890806 -0.376865,-0.793281 -0.392788,0.09753 -0.9683697,0.655414 -1.543842,1.213196 -0.070697,-0.03801 -0.1398252,-0.07517 -0.1759584,-0.09459 -0.036133,-0.01942 -0.036133,-0.01942 -0.2353202,-0.0069 z"
       id="path610" />
    <path
       style="fill:#7b0000;fill-opacity:1;stroke:none;stroke-width:0.7;stroke-linecap:round;paint-order:fill markers stroke"
       id="path34458"
       d="M 5.2084309,5.9203748 2.3586862,5.9169637 3.7865127,3.4507179 Z"
       transform="matrix(4.4898903,0,0,1.9214696,-1.4488051,-1.6029706)" />
    <path
       style="fill:#ffd5d5;stroke:#552200;stroke-width:2.02711;stroke-linecap:round;stroke-dasharray:none;paint-order:fill markers stroke"
       d="M 7.9855047,10.923406 24.127459,28.551689"
       id="path31133" />
    <path
       style="fill:#ffd5d5;stroke:#552200;stroke-width:2.04051;stroke-linecap:round;stroke-dasharray:none;paint-order:fill markers stroke"
       d="M 6.5037432,28.544991 22.933726,10.864111"
       id="path31135" />
    <path
       style="fill:none;stroke:#552200;stroke-width:2.10169;stroke-linecap:round;stroke-dasharray:none;paint-order:fill markers stroke"
       d="M 3.3364322,12.808453 15.540673,3.9656102 27.614388,12.808453"
       id="path31137" />
  </g>
</svg>
