<?xml version="1.0" encoding="UTF-8" standalone="no"?>
<!-- Created with Inkscape (http://www.inkscape.org/) -->

<svg
   width="24"
   height="31"
   viewBox="0 0 24 31"
   version="1.1"
   id="SVGRoot"
   xmlns="http://www.w3.org/2000/svg"
   xmlns:svg="http://www.w3.org/2000/svg">
  <defs
     id="defs15801" />
  <g
     id="layer1">
    <path
       id="path15674-4"
       style="fill:#ffffff;fill-opacity:1;stroke-width:0.999999"
       d="M 10.75322,0.51961356 C 9.5753165,0.67975218 9.0734705,1.9769619 8.9277835,3.025223 8.7741825,3.8452317 8.6749745,4.6740752 8.5754865,5.5020355 7.5115495,4.8052019 6.0458542,5.3856993 5.4566702,6.4524457 c -1.191032,2.1873152 -1.437654,4.8802173 -0.691731,7.2566213 -1.794129,-0.201204 -3.53406,1.032473 -4.02539102,2.755859 -0.724171,1.979993 0.0338,4.355262 1.81793102,5.501162 0.113293,0.286871 -0.747047,0.593864 -0.915587,0.965635 -1.25833702,1.273692 -1.38043802,3.444284 -0.214844,4.81836 1.709806,2.028009 4.457402,2.703381 6.9656553,3.127278 3.9177365,0.532487 8.0455695,0.376989 11.7486585,-1.11073 1.803168,-0.72178 3.684036,-2.215002 3.672405,-4.332955 -0.04803,-2.20869 -2.065126,-3.667641 -3.95221,-4.37549 -0.522318,-0.209967 -1.060004,-0.380983 -1.602478,-0.53076 C 18.494664,15.76127 18.391688,10.975525 18.023857,6.2190065 17.822338,4.7319286 17.814567,2.8694062 16.440669,1.9389153 15.473661,1.2545286 14.056487,1.6184389 13.384079,2.5528167 13.223606,1.6529221 12.688711,0.81213998 11.794464,0.51171516 c -0.328133,-0.2985509 -0.669035,-0.039883 -1.041244,0.0079 z" />
    <path
       d="m 12.06203,21.424835 c -5.3018385,0 -9.5997477,1.651298 -9.5997477,3.688824 0,2.037519 4.2979092,3.688817 9.5997477,3.688817 5.301839,0 9.599748,-1.651298 9.599748,-3.688817 0,-2.037526 -4.297909,-3.688824 -9.599748,-3.688824 z m 0,0.07325 c 3.983642,0 7.213536,1.240698 7.213536,2.771665 0,1.530906 -3.229894,2.771605 -7.213536,2.771605 -3.9836375,0 -7.2135357,-1.240699 -7.2135357,-2.771605 0,-1.530967 3.2298982,-2.771665 7.2135357,-2.771665 z"
       fill="white"
       id="path15674"
       style="fill:#863f11;fill-opacity:1;stroke-width:0.999999" />
    <path
       style="fill:#89fbfb;fill-opacity:1;stroke:#008eb8;stroke-width:0.3;stroke-linecap:square;stroke-dasharray:none;stroke-opacity:1;paint-order:fill markers stroke"
       d="m 15.631468,24.306413 c 0.156059,-0.911385 0.468309,-2.734924 0.693189,-5.464018 0.22488,-2.729095 0.362267,-6.363605 0.693202,-9.3676812 0.330935,-3.0040766 0.855502,-5.3771226 0.499682,-6.095756 C 17.161721,2.6603243 15.925237,3.597054 14.975874,4.409004 14.02651,5.2209539 13.364554,5.9078892 12.840267,5.8710077 12.31598,5.8341261 11.928797,5.072252 11.660024,4.1479147 11.391251,3.2235774 11.241374,2.1369684 11.066355,2.1118182 10.891336,2.086668 10.6915,3.1233181 10.48544,4.7908596 10.279381,6.458401 10.067055,8.756518 9.6616156,9.5559933 9.2561762,10.355469 8.6566675,9.6560413 8.2503676,8.7005535 7.8440677,7.7450657 7.6317419,6.5335607 7.1818838,6.9392277 6.7320257,7.3448946 6.04509,9.3682329 6.2204088,11.248345 c 0.1753189,1.880111 1.2119679,3.616186 1.2309559,4.277843 0.018988,0.661656 -0.9802123,0.249486 -1.9482768,-5.18e-4 -0.9680646,-0.250005 -1.9048143,-0.337435 -2.5361978,0.368603 -0.6313836,0.706037 -0.9561168,2.204806 -0.2122494,3.28508 0.7438673,1.080273 2.5548802,1.74223 3.8411655,2.67938 1.2862853,0.93715 2.04816,2.148655 3.0662727,2.760111 1.0181131,0.611455 2.2920671,0.623945 3.3037831,0.623932 1.011716,-1.4e-5 1.761116,-0.0125 2.135332,-0.01874 0.374215,-0.0062 0.374215,-0.0062 0.530274,-0.917623 z"
       id="path21509" />
    <path
       style="fill:#00ffff;fill-opacity:1;stroke:#008eb8;stroke-width:0.6;stroke-linecap:square;stroke-dasharray:none;stroke-opacity:1;paint-order:fill markers stroke"
       d="m 12.96487,7.2318502 c 0.100039,0.9378623 0.199961,1.8746305 0.481115,3.1174738 0.281155,1.242843 0.743285,2.791602 1.205068,4.3392"
       id="path22342" />
    <path
       style="fill:#00ffff;fill-opacity:1;stroke:#008eb8;stroke-width:0.6;stroke-linecap:square;stroke-dasharray:none;stroke-opacity:1;paint-order:fill markers stroke"
       d="m 8.0187354,16.749415 c 0.1876531,0.738102 0.375007,1.475027 0.8185781,2.517985 0.4435711,1.042958 1.1430105,2.391877 1.8418435,3.739626"
       id="path22346" />
    <path
       style="fill:#00ffff;fill-opacity:1;stroke:#008eb8;stroke-width:0.6;stroke-linecap:square;stroke-dasharray:none;stroke-opacity:1;paint-order:fill markers stroke"
       d="m 10.076797,11.051036 c 0.100039,0.937862 0.199961,1.87463 0.481115,3.117474 0.281155,1.242843 0.743285,2.791602 1.205068,4.3392"
       id="path22342-2" />
  </g>
</svg>
