<?xml version="1.0" encoding="UTF-8" standalone="no"?>
<!-- Created with Inkscape (http://www.inkscape.org/) -->

<svg
   width="32.0px"
   height="32.0px"
   viewBox="0 0 32.0 32.0"
   version="1.1"
   id="SVGRoot"
   xmlns="http://www.w3.org/2000/svg"
   xmlns:svg="http://www.w3.org/2000/svg">
  <defs
     id="defs37365" />
  <g
     id="layer1">
    <path
       id="rect38683-3-7"
       style="fill:#ffffff;fill-opacity:1;stroke:none;stroke-width:1.19813;stroke-linecap:round;stroke-opacity:1;paint-order:markers fill stroke"
       d="M 15.997211,2.0000001 A 7.1428577,4.3968315 0 0 0 12.425782,2.5908204 7.1428577,4.3968315 0 0 0 8.8571426,6.4000007 l 7.1428584,-0.00209 h 7.142858 A 7.1428577,4.3968315 0 0 0 19.568641,2.5886725 7.1428577,4.3968315 0 0 0 15.997211,2.0000001 Z M 8.8571426,6.4000007 H 6 V 24 H 26 V 6.4000007 Z" />
    <path
       id="rect38683-3"
       style="fill:#000000;fill-opacity:1;stroke:none;stroke-width:1.07165;stroke-linecap:round;stroke-opacity:1;paint-order:markers fill stroke"
       d="m 15.95163,3.5386254 a 5.7142861,4.3968312 0 0 0 -2.857142,0.5908205 5.7142861,4.3968312 0 0 0 -2.854911,3.8091796 l 5.714286,-0.00215 h 5.714286 A 5.7142861,4.3968312 0 0 0 18.808774,4.1272973 5.7142861,4.3968312 0 0 0 15.95163,3.5386254 Z M 10.239577,7.9386255 H 7.9538625 V 25.538625 H 23.953863 V 7.9386255 Z" />
    <path
       id="rect38683"
       style="fill:#c5c5c5;fill-opacity:1;stroke:none;stroke-width:0.959078;stroke-linecap:round;stroke-opacity:1;paint-order:markers fill stroke"
       d="m 15.95191,4.4002129 a 5,4.0247817 0 0 0 -2.5,0.5408265 5,4.0247817 0 0 0 -2.498047,3.486856 l 5,-0.00197 h 5 a 5,4.0247817 0 0 0 -2.501953,-3.4868561 5,4.0247817 0 0 0 -2.5,-0.5388598 z M 10.953863,8.4278954 H 8.9538625 V 24.538625 H 22.953863 V 8.4278954 Z" />
    <rect
       style="fill:#ffca00;fill-opacity:1;stroke:#000000;stroke-width:1;stroke-linecap:round;stroke-dasharray:none;stroke-opacity:1;paint-order:markers fill stroke"
       id="rect43210"
       width="19.020117"
       height="3.0201154"
       x="6.5"
       y="24.5" />
    <rect
       style="fill:#784421;fill-opacity:1;stroke:none;stroke-width:0.922817;stroke-linecap:round;stroke-dasharray:none;stroke-opacity:1;paint-order:markers fill stroke"
       id="rect44664"
       width="10"
       height="2"
       x="10.953862"
       y="10.538626" />
    <rect
       style="fill:#784421;fill-opacity:1;stroke:none;stroke-width:1.59836;stroke-linecap:round;stroke-dasharray:none;stroke-opacity:1;paint-order:markers fill stroke"
       id="rect44664-9"
       width="10"
       height="6"
       x="10.953862"
       y="14.538626" />
  </g>
</svg>
