<?xml version="1.0" encoding="UTF-8" standalone="no"?>
<svg
   version="1.0"
   width="580"
   height="580"
   id="svg13"
   xmlns="http://www.w3.org/2000/svg"
   xmlns:svg="http://www.w3.org/2000/svg">
  <metadata
     id="metadata2975" />
  <defs
     id="defs4">
    <symbol
       viewBox="244.5 110 489 219.9"
       id="symbol-university">
      <path
         id="path4460"
         d="M79,43l57,119c0,0,21-96,104-96s124,106,124,106l43-133l82-17L0,17L79,43z" />
      <path
         id="path4462"
         d="M94,176l-21,39"
         stroke-width="20"
         stroke="#000000"
         fill="none" />
      <path
         id="path4464"
         d="M300,19c0,10.5-22.6,19-50.5,19S199,29.5,199,19s22.6-19,50.5-19S300,8.5,300,19z" />
      <path
         id="path4466"
         d="M112,216l-16-38L64,88c0,0-9-8-4-35s16-24,16-24"
         stroke-width="20"
         stroke="#000000"
         ill="none" />
    </symbol>
  </defs>
  <path
     id="path2459"
     style="fill:#550000;stroke:#ffffff;stroke-width:5.64655;stroke-dasharray:none;stroke-opacity:1"
     d="M 234.81836,46.011719 235.25,441.95312 h -69.72266 l 1.90235,42.35157 h 67.86719 v 0.33008 h 45.44531 v -0.33008 h 66.88476 V 441.95312 H 280.74219 V 46.011719 Z" />
  <g
     id="path3239"
     style="stroke:#550000;stroke-opacity:1;stroke-width:5;stroke-dasharray:none">
    <path
       style="color:#000000;fill:#ffff00;fill-rule:evenodd;stroke-width:5;stroke-linecap:round;stroke-linejoin:round;stroke:#550000;stroke-opacity:1;stroke-dasharray:none"
       d="m 461.65842,133.79647 -46.24435,33.94253 -271.91668,0.29957 -0.57328,-91.999115 271.38011,0.53045 z"
       id="path3331" />
    <path
       style="color:#000000;fill:#550000;fill-rule:evenodd;stroke-linecap:round;stroke-linejoin:round;stroke:#550000;stroke-opacity:1;stroke-width:5;stroke-dasharray:none"
       d="m 142.9375,69.039062 a 7.0007,7.0007 0 0 0 -7.01367,7.044922 l 0.57422,91.998046 a 7.0007,7.0007 0 0 0 7.00781,6.95703 l 271.91601,-0.30078 a 7.0007,7.0007 0 0 0 4.13477,-1.35547 l 46.24414,-33.94336 a 7.0007,7.0007 0 0 0 1.25,-10.10547 L 419.69727,72.107422 a 7.0007,7.0007 0 0 0 -5.37891,-2.53711 z m 7.0293,14.013672 261.03906,0.509766 40.5293,48.98047 -38.41797,28.19922 -262.66407,0.28906 z"
       id="path3333" />
  </g>
  <rect
     style="fill:#ffffff;stroke:none;stroke-width:8.67167;stroke-linecap:square;stroke-dasharray:none;paint-order:markers fill stroke"
     id="rect1000-2"
     width="53.477066"
     height="37.786625"
     x="347.27985"
     y="105.34309" />
  <rect
     style="fill:#0000ff;stroke:none;stroke-width:5.07732;stroke-linecap:square;stroke-dasharray:none;paint-order:markers fill stroke"
     id="rect1000"
     width="53.477066"
     height="12.95393"
     x="347.34689"
     y="117.77682" />
</svg>
