<?xml version="1.0" encoding="UTF-8" standalone="no"?>
<!-- Created with Inkscape (http://www.inkscape.org/) -->

<svg
   width="32.0px"
   height="32.0px"
   viewBox="0 0 32.0 32.0"
   version="1.1"
   id="SVGRoot"
   xmlns="http://www.w3.org/2000/svg"
   xmlns:svg="http://www.w3.org/2000/svg">
  <defs
     id="defs49735" />
  <g
     id="layer1">
    <path
       id="rect49922-0"
       style="fill:#ffffff;fill-opacity:1;stroke:none;stroke-width:1.38019;stroke-linecap:square;paint-order:fill markers stroke"
       d="m 10.162721,7.9067067 c -2.6077394,0 -5.215479,0 -7.8232185,0 -10e-8,2.8074763 0,5.6149523 0,8.4224283 -0.7591723,-0.133817 -1.1853766,0.05101 -0.9779023,0.842243 -1e-7,0.967019 0,1.934039 0,2.901058 -0.68224155,-0.09139 -1.2236475,-0.04801 -0.9779024,0.748662 0,2.245981 0,4.491962 0,6.737942 10.4309582,1e-6 20.8619162,0 31.2928752,0 0,-2.495534 0,-4.991069 0,-7.486604 -0.759173,0.133818 -1.185377,-0.051 -0.977902,-0.842241 0,-0.96702 0,-1.93404 0,-2.90106 -0.759173,0.133817 -1.185377,-0.051 -0.977903,-0.842243 0,-2.526728 0,-5.053457 0,-7.5801853 -2.60774,0 -5.21548,0 -7.823218,0 0,-0.623884 0,-1.2477679 0,-1.8716509 -3.91161,0 -7.823219,0 -11.734829,0 0,0.623883 0,1.2477669 0,1.8716509 z" />
    <rect
       style="fill:#277d18;fill-opacity:1;stroke:none;stroke-width:1.44276;stroke-linecap:square;paint-order:fill markers stroke"
       id="rect49922"
       width="26"
       height="4"
       x="3"
       y="18" />
    <rect
       style="fill:#277d18;fill-opacity:1;stroke:none;stroke-width:1.05869;stroke-linecap:square;paint-order:fill markers stroke"
       id="rect49922-15"
       width="28"
       height="2"
       x="2"
       y="22" />
    <rect
       style="fill:#390000;fill-opacity:1;stroke:none;stroke-width:1.05869;stroke-linecap:square;paint-order:fill markers stroke"
       id="rect49922-1"
       width="28"
       height="2"
       x="2"
       y="24" />
    <rect
       style="fill:#390000;fill-opacity:1;stroke:none;stroke-width:0.529345;stroke-linecap:square;paint-order:fill markers stroke"
       id="rect49922-1-7"
       width="2"
       height="7"
       x="4"
       y="11" />
    <rect
       style="fill:#ffca00;fill-opacity:1;stroke:none;stroke-width:0.289909;stroke-linecap:square;paint-order:fill markers stroke"
       id="rect49922-1-7-56"
       width="2"
       height="2.0996311"
       x="4"
       y="9" />
    <rect
       style="fill:#ffca00;fill-opacity:1;stroke:none;stroke-width:0.289909;stroke-linecap:square;paint-order:fill markers stroke"
       id="rect49922-1-7-56-9"
       width="2"
       height="2.0996311"
       x="8"
       y="9" />
    <rect
       style="fill:#e6aa55;fill-opacity:1;stroke:none;stroke-width:1.41473;stroke-linecap:square;paint-order:fill markers stroke"
       id="rect49922-3"
       width="20"
       height="5"
       x="6"
       y="13" />
    <rect
       style="fill:#ffdb7e;fill-opacity:1;stroke:none;stroke-width:0.894753;stroke-linecap:square;paint-order:fill markers stroke"
       id="rect49922-3-7"
       width="20"
       height="2"
       x="6"
       y="11" />
    <rect
       style="fill:#390000;fill-opacity:1;stroke:none;stroke-width:0.529345;stroke-linecap:square;paint-order:fill markers stroke"
       id="rect49922-1-7-5"
       width="2"
       height="7"
       x="8"
       y="11" />
    <rect
       style="fill:#390000;fill-opacity:1;stroke:none;stroke-width:0.400147;stroke-linecap:square;paint-order:fill markers stroke"
       id="rect49922-1-1"
       width="4"
       height="2"
       x="14"
       y="11" />
    <rect
       style="fill:#390000;fill-opacity:1;stroke:none;stroke-width:0.600221;stroke-linecap:square;paint-order:fill markers stroke"
       id="rect49922-1-7-8"
       width="2"
       height="9"
       x="12"
       y="9" />
    <rect
       style="fill:#390000;fill-opacity:1;stroke:none;stroke-width:0.529345;stroke-linecap:square;paint-order:fill markers stroke"
       id="rect49922-1-7-86"
       width="2"
       height="7"
       x="22"
       y="11" />
    <rect
       style="fill:#390000;fill-opacity:1;stroke:none;stroke-width:0.600221;stroke-linecap:square;paint-order:fill markers stroke"
       id="rect49922-1-7-86-7"
       width="2"
       height="9"
       x="18"
       y="9" />
    <rect
       style="fill:#390000;fill-opacity:1;stroke:none;stroke-width:0.529345;stroke-linecap:square;paint-order:fill markers stroke"
       id="rect49922-1-7-4"
       width="2"
       height="7"
       x="26"
       y="11" />
    <rect
       style="fill:#ffca00;fill-opacity:1;stroke:none;stroke-width:0.289909;stroke-linecap:square;paint-order:fill markers stroke"
       id="rect49922-1-7-56-0"
       width="2"
       height="2.0996311"
       x="12"
       y="7" />
    <rect
       style="fill:#ffca00;fill-opacity:1;stroke:none;stroke-width:0.289909;stroke-linecap:square;paint-order:fill markers stroke"
       id="rect49922-1-7-56-6"
       width="2"
       height="2.0996311"
       x="18"
       y="7" />
    <rect
       style="fill:#ffca00;fill-opacity:1;stroke:none;stroke-width:0.289909;stroke-linecap:square;paint-order:fill markers stroke"
       id="rect49922-1-7-56-3"
       width="2"
       height="2.0996311"
       x="22"
       y="9" />
    <rect
       style="fill:#ffca00;fill-opacity:1;stroke:none;stroke-width:0.289909;stroke-linecap:square;paint-order:fill markers stroke"
       id="rect49922-1-7-56-66"
       width="2"
       height="2.0996311"
       x="26"
       y="9" />
  </g>
</svg>
