<?xml version="1.0" encoding="UTF-8" standalone="no"?>
<!-- Created with Inkscape (http://www.inkscape.org/) -->

<svg
   width="32.0px"
   height="32.0px"
   viewBox="0 0 32.0 32.0"
   version="1.1"
   id="SVGRoot"
   xmlns="http://www.w3.org/2000/svg"
   xmlns:svg="http://www.w3.org/2000/svg">
  <defs
     id="defs1205" />
  <g
     id="layer1">
    <g
       id="path2"
       style="stroke:#ffffff;stroke-width:32;stroke-dasharray:none;stroke-opacity:1;fill:#d30000;fill-opacity:1"
       transform="matrix(0.05970138,0,0,0.05335257,-4.722295,1.2815056)">
      <path
         style="color:#000000;fill:#d30000;stroke:#ffffff;stroke-width:32;stroke-dasharray:none;stroke-opacity:1;fill-opacity:1"
         d="m 352.27344,39.375 c -35.90997,0 -70.34826,14.266029 -95.74024,39.658203 -25.39297,25.392577 -39.6582,59.830267 -39.6582,95.740237 0,35.90719 14.26304,70.34391 39.65234,95.73633 -17.04864,22.17581 -46.99177,49.38329 -43.57812,83.11328 1.66887,36.97422 10.15932,41.68119 29.30273,58.51562 28.31384,24.89878 115.03593,9.38587 119.58985,38.20703 7.06577,44.71837 -49.52687,51.37824 -111.61133,69.11719 16.25735,-2.11069 103.88302,-0.64984 144.10156,-25.27148 30.67658,-19.41674 42.09737,-30.01409 32.62305,-65.84571 -18.24195,-45.17076 -122.303,-28.85644 -116.75,-67.1914 6.2349,-29.2916 14.56594,-40.74057 21.66015,-52.53711 6.71415,1.02374 13.53306,1.55664 20.40821,1.55664 35.90996,0 70.34921,-14.26623 95.74218,-39.65821 25.39198,-25.39297 39.65821,-59.83222 39.65821,-95.74218 0,-35.90997 -14.26623,-70.34766 -39.65821,-95.740237 C 422.62265,53.641029 388.1834,39.375 352.27344,39.375 Z M 250.23047,519.46289 c -1.67932,0.21803 -2.84976,0.46184 -2.86914,0.78906 0.97052,-0.28219 1.90109,-0.51246 2.86914,-0.78906 z"
         id="path1578" />
    </g>
  </g>
</svg>
