<?xml version="1.0" encoding="UTF-8" standalone="no"?>
<!-- Created with Inkscape (http://www.inkscape.org/) -->

<svg
   width="30"
   height="32"
   viewBox="0 0 30 32"
   version="1.1"
   id="SVGRoot"
   xmlns="http://www.w3.org/2000/svg"
   xmlns:svg="http://www.w3.org/2000/svg">
  <defs
     id="defs144" />
  <g
     id="layer1">
    <path
       style="fill:#5a4e45;fill-opacity:1;stroke:#ffffff;stroke-width:1.2;stroke-dasharray:none"
       d="m 8.4898958,21.058031 c 0.728855,0.619336 1.5553912,1.126863 2.4582532,1.511578 l -0.779464,3.340268 0.41958,0.06285 c 1.254565,0.188296 2.543842,-0.104321 3.629393,-0.82211 0.703975,-0.465482 1.279469,-1.086343 1.67002,-1.800207 1.015071,-0.07827 2.018668,-0.296651 2.982131,-0.648641 l 1.901548,2.714816 0.361717,-0.239174 c 1.818147,-1.202192 2.64816,-3.356334 2.035508,-5.264738 0.707155,-0.734321 1.299662,-1.554113 1.765761,-2.437417 l 3.484496,0.522743 0.09378,-0.402292 c 0.474473,-2.02881 -0.524444,-4.01538 -2.43026,-4.859013 -0.01684,-0.958277 -0.18165,-1.894142 -0.492788,-2.7884747 L 28.605191,7.9542354 28.375627,7.6264898 C 27.214663,5.9689962 24.977506,5.326725 22.911049,6.0449712 22.183438,5.4236054 21.357412,4.9157414 20.454219,4.532452 L 21.231523,1.1911224 20.813886,1.1281931 C 19.557899,0.94083709 18.269011,1.2319911 17.18255,1.9503795 16.478573,2.415861 15.902783,3.0382011 15.513396,3.7518238 14.498781,3.8297913 13.496772,4.0465192 12.531563,4.3989876 L 10.607156,1.6515344 10.245949,1.8903703 C 8.4050988,3.1075751 7.5819816,5.28107 8.2228334,7.2008515 7.5224546,7.9312952 6.9317102,8.7468294 6.4690579,9.6273283 L 2.9838168,9.1044722 2.8894609,9.50594 c -0.4726961,2.029446 0.5246118,4.014668 2.4300956,4.859726 0.017124,0.958691 0.1830645,1.895094 0.4924989,2.788063 l -3.0147696,1.993421 0.2298525,0.328158 c 1.1609275,1.657443 3.396988,2.301118 5.4627575,1.582723 z"
       id="path333-5" />
    <path
       style="fill:#0048d4;fill-opacity:1;stroke-width:1.65759"
       d="m 26.511057,27.830088 c -0.985123,0 -1.88445,0.371511 -2.674644,1.100852 -0.618601,0.573823 -1.230237,0.851819 -1.869874,0.851819 h -0.06534 c -0.840381,-0.05145 -1.446202,-0.653074 -1.61715,-0.842359 -0.129593,-0.127791 -1.311942,-1.249965 -2.854997,-1.249965 l -0.09628,0.0017 c -0.906362,0.03369 -1.722835,0.462624 -2.426658,1.280093 -0.544507,0.631168 -1.112348,0.951229 -1.714075,0.951229 h -0.0018 c -0.990364,-0.01187 -1.747318,-0.939949 -1.748466,-0.941768 l -0.10683,-0.09759 C 10.54421,28.287223 9.2118068,27.647177 7.845587,27.647177 c -1.1403479,0 -2.1032857,0.444284 -2.8660543,1.322739 -0.5620249,0.646597 -1.1794769,0.981357 -1.8354118,0.998531 l 0.00237,0.145548 -0.00761,-0.143729 h -0.048463 c -0.8818075,0 -1.6620945,-0.575569 -1.9573945,-0.824601 l -0.1074075,-0.09111 -0.69276675,0.673741 0.13189067,0.114182 C 0.93515205,30.251832 1.899813,30.9386 3.0903465,30.9386 h 0.058371 c 0.9396039,-0.01951 1.7963544,-0.467355 2.5468457,-1.329799 0.5765997,-0.663117 1.305552,-0.999696 2.1657487,-0.999696 1.3609783,0 2.6314931,0.858951 2.8473851,1.007993 0.519378,0.570838 1.368591,1.253458 2.46105,1.275363 0.880084,0 1.728075,-0.444867 2.454084,-1.28366 0.528137,-0.613412 1.095977,-0.925176 1.732742,-0.951228 l 0.07352,-0.0017 c 0.957123,0 1.81732,0.657804 2.057767,0.858369 l 0.09276,0.0834 c 0.155799,0.177496 0.991513,1.064755 2.242788,1.150557 0.920936,0.0497 1.817319,-0.323553 2.657125,-1.100853 0.608118,-0.56196 1.295571,-0.847671 2.039673,-0.847671 0.911029,0 1.683131,0.433006 2.064229,0.691498 l 0.117889,0.07983 0.616878,-0.742949 -0.138927,-0.101159 c -0.466139,-0.334748 -1.43317,-0.896782 -2.669222,-0.896782 z"
       id="path341" />
    <path
       style="fill:#0048d4;fill-opacity:1;stroke-width:1.65759"
       d="m 23.836413,26.609741 c -0.618601,0.572004 -1.230237,0.848908 -1.869874,0.848908 h -0.06534 c -0.840381,-0.0497 -1.446202,-0.650089 -1.61715,-0.838792 -0.05076,-0.05145 -1.26994,-1.253458 -2.854997,-1.253458 l -0.09628,0.0017 c -0.906362,0.03311 -1.722835,0.464371 -2.426658,1.281913 -0.545655,0.631169 -1.113496,0.951229 -1.715799,0.951229 -0.990364,-0.01302 -1.747318,-0.941768 -1.748466,-0.941768 l -0.10683,-0.09759 c -0.790767,-0.599206 -2.1231703,-1.238671 -3.4893901,-1.238671 -1.1403479,0 -2.1032857,0.446032 -2.8660542,1.324487 -0.5625993,0.646596 -1.1794769,0.981357 -1.8354119,0.998531 l 0.00237,0.159156 -0.011057,-0.157337 h -0.044945 c -0.8497145,0 -1.5897235,-0.515821 -1.9573946,-0.825766 l -0.1074075,-0.08929 -0.69276682,0.673741 0.13189056,0.112363 c 0.47041224,0.4111 1.43507326,1.097286 2.62560686,1.097286 h 0.00172 0.056576 c 0.9407527,-0.02009 1.7969288,-0.467937 2.5468457,-1.329799 0.5760253,-0.664936 1.305552,-0.999696 2.1657489,-0.999696 1.3609782,0 2.6314931,0.857132 2.8473851,1.007993 0.425468,0.466117 1.309645,1.251711 2.46105,1.274781 0.880084,0 1.728075,-0.444285 2.454084,-1.283078 0.528137,-0.613412 1.095977,-0.92401 1.735614,-0.95181 h 0.07065 c 0.958846,0 1.81732,0.656639 2.057768,0.858951 l 0.09276,0.07984 c 0.155799,0.177496 0.988067,1.065993 2.242788,1.150557 0.906362,0.05145 1.815596,-0.321807 2.657125,-1.097286 0.608118,-0.56378 1.293849,-0.849491 2.039674,-0.849491 0.909808,0 1.68313,0.432423 2.064228,0.691498 l 0.117889,0.07809 0.616878,-0.743022 -0.138927,-0.09941 c -0.466319,-0.334833 -1.431554,-0.897375 -2.669402,-0.897375 -0.98498,-7.2e-5 -1.88488,0.371438 -2.6745,1.102598 z"
       id="path337" />
    <path
       style="fill:#ffff00;fill-opacity:1;stroke-width:1;paint-order:fill markers stroke"
       d="m 14.263106,20.432233 c -0.07785,-0.03588 -0.156556,-0.115973 -0.174904,-0.17799 -0.02466,-0.08338 0.297714,-0.820396 1.237078,-2.828175 0.698745,-1.493481 1.259177,-2.724976 1.245408,-2.736656 -0.01377,-0.01167 -0.978224,0.357922 -2.143233,0.821338 -1.165009,0.463415 -2.157249,0.842669 -2.204977,0.842787 -0.143372,3.55e-4 -0.369909,-0.180231 -0.369909,-0.294885 0,-0.129488 3.5671,-7.7645349 3.664729,-7.8440145 0.108319,-0.088177 3.424603,-1.2494246 3.568105,-1.2494246 0.168312,0 0.342806,0.1525398 0.342806,0.2996774 0,0.064557 -0.752122,1.3783287 -1.671381,2.9194917 -0.919259,1.541162 -1.662719,2.808499 -1.652134,2.816303 0.01059,0.0078 0.742998,-0.199757 1.627582,-0.461245 1.05218,-0.311031 1.651115,-0.466326 1.732046,-0.449095 0.06804,0.01448 0.164663,0.07936 0.214715,0.144154 0.07423,0.0961 0.07998,0.1426 0.03117,0.252262 -0.03291,0.07395 -1.152547,1.877496 -2.488096,4.007885 -2.67544,4.267712 -2.564125,4.119584 -2.959013,3.937587 z"
       id="path1272" />
  </g>
</svg>
