<?xml version="1.0" encoding="UTF-8" standalone="no"?>
<!-- Created with Inkscape (http://www.inkscape.org/) -->

<svg
   width="32.0px"
   height="32.0px"
   viewBox="0 0 32.0 32.0"
   version="1.1"
   id="SVGRoot"
   xmlns="http://www.w3.org/2000/svg"
   xmlns:svg="http://www.w3.org/2000/svg">
  <defs
     id="defs26795" />
  <g
     id="layer1">
    <ellipse
       style="fill:#9f8e83;stroke:#28170b;stroke-width:2.30682;stroke-linecap:square;stroke-dasharray:none;paint-order:markers fill stroke;fill-opacity:1"
       id="path34173"
       cx="16.224825"
       cy="16.03747"
       rx="14.385235"
       ry="14.647529" />
    <path
       d="M 8.6754029,9.3983047 C 7.4707239,10.609604 6.6615783,12.154106 5.6504492,13.52642 l 2.2364923,1.616884 2.4203625,-3.457553 c 0.290829,-0.151582 0.480033,0.221518 0.655805,0.388016 2.438035,2.396263 4.847727,4.826533 7.274774,7.236141 l 5.387719,5.371171 0.954532,-0.964093 -5.519313,-5.238259 C 16.584569,16.118822 14.087792,13.776505 11.624795,11.405456 11.453536,11.234395 11.07363,11.053909 11.22106,10.762842 L 14.663188,8.2991803 12.990148,6.1132014 C 11.498178,7.1500888 9.9813276,8.1301439 8.6754029,9.3983047 Z"
       id="path3621"
       fill="#ffffff"
       stroke="#ffffff"
       stroke-linejoin="round"
       stroke-linecap="round"
       stroke-width="1.09162"
       style="fill:#ffffff;stroke:#ffffff;stroke-width:0.843344;stroke-dasharray:none" />
    <path
       d="m 19.979587,6.1778403 -2.184436,1.8976576 2.953155,2.8917301 c -1.100828,1.184037 -2.209285,2.362815 -3.319652,3.539585 0.253367,0.234226 0.506349,0.468425 0.759456,0.702934 1.082516,-1.206976 2.167801,-2.412229 3.258794,-3.610404 0.227565,-0.160664 1.520357,1.069466 1.676366,1.300952 l 3.581628,1.871428 C 26.50777,14.632067 24.893909,10.742708 24.639542,10.522649 24.246613,10.181237 23.787443,9.7754483 23.308503,9.3462844 L 24.066639,8.6144984 23.483154,8.125332 22.74751,8.8413783 C 21.713949,7.9026429 20.658249,6.9053844 19.979587,6.1778403 Z m -5.72108,11.6888887 c -0.17946,0.19069 -0.359254,0.380932 -0.5385,0.571787 l -5.2183021,5.532977 1.0068786,0.910143 5.0793755,-5.658875 c 0.167557,-0.185894 0.33408,-0.372603 0.501455,-0.558675 -0.27701,-0.265748 -0.553633,-0.531879 -0.830907,-0.797357 z"
       id="path3604"
       fill="#ffffff"
       stroke="#ffffff"
       stroke-linejoin="round"
       stroke-linecap="round"
       stroke-width="1.05953"
       style="fill:#ffffff;stroke:#ffffff;stroke-width:0.843415;stroke-dasharray:none" />
  </g>
</svg>
