<?xml version="1.0" encoding="UTF-8" standalone="no"?>
<!-- Created with Inkscape (http://www.inkscape.org/) -->

<svg
   width="34"
   height="33"
   viewBox="0 0 34 33"
   version="1.1"
   id="SVGRoot"
   xmlns="http://www.w3.org/2000/svg"
   xmlns:svg="http://www.w3.org/2000/svg">
  <defs
     id="defs14368" />
  <g
     id="layer1">
    <path
       id="path1578-3"
       style="color:#000000;fill:#ffffff;stroke:#ffccaa;stroke-width:0;stroke-dasharray:none;stroke-opacity:1"
       d="m 25.482966,0.72850428 c -0.16059,0.006303 -0.321104,0.056558 -0.478901,0.1781437 L 24.340389,1.1966053 18.092035,7.0886148 C 18.048443,7.269021 17.964095,7.4497629 17.875209,7.6306266 17.021324,6.3825261 15.869342,5.3408836 14.500269,4.6798841 13.099001,3.9676368 11.512698,3.6350095 9.9450414,3.7000935 6.0773542,3.8072663 2.4500991,6.6382437 1.5058051,10.429758 c -0.65259232,2.439162 -0.1849142,5.142193 1.2349645,7.224298 -1.1856645,1.34431 -2.00321464,3.13947 -1.6912414,4.965282 0.04386,1.511813 0.8461716,2.903447 2.0589021,3.778921 1.2470844,1.132323 3.0020121,1.27948 4.5967069,1.459264 -0.9665789,0.301381 -1.8735823,0.504043 -2.9016943,0.786485 -0.6928761,0.05125 -1.2133435,0.477602 -1.6591886,0.983581 l -3.08081208,2.945057 c 1.70757928,-0.01326 3.41516548,-0.02652 5.12274498,-0.0398 -0.061029,0.02688 0.9247504,-0.04634 1.2934131,-0.05875 2.8547593,-0.165031 5.9544257,-0.395689 8.2601197,-2.296917 1.406922,-0.955163 1.991051,-2.804839 1.529094,-4.425166 -0.360235,-1.972723 -2.355819,-3.020749 -4.140431,-3.416949 -0.621883,-0.163421 -1.254355,-0.28459 -1.876014,-0.449149 0.181661,-0.453812 0.912233,-0.123672 1.325465,-0.303224 3.853013,-0.451337 7.216779,-3.631129 7.781217,-7.508569 0.168297,-0.964638 0.153013,-1.943337 -0.01698,-2.893888 1.570588,1.574991 3.109618,3.201031 4.723032,4.709438 0.646572,0.149694 1.305384,0.788188 1.93635,0.301328 1.093118,-0.38695 1.748316,-1.442167 2.632075,-2.149095 1.426032,-1.382061 2.942211,-2.700928 4.312005,-4.1219432 C 33.082342,9.3061026 33.75251,8.6863706 33.324513,8.0778743 33.001518,6.931136 31.927372,6.2978748 31.186428,5.4360474 29.763995,4.0382697 28.39985,2.5482341 26.940412,1.2079763 26.455463,1.0956546 25.964736,0.70959596 25.482966,0.72850428 Z" />
    <path
       style="color:#000000;fill:#3f64f6;stroke:#ffccaa;stroke-width:0;stroke-dasharray:none;stroke-opacity:1"
       d="m 10.133678,5.2004051 c -1.9769917,0 -3.8729617,0.7652552 -5.2708957,2.127337 -1.397988,1.3621034 -2.183348,3.2094029 -2.183348,5.1356789 0,1.926126 0.78524,3.773373 2.183026,5.135468 -0.938598,1.189551 -2.587091,2.649008 -2.399156,4.458346 0.09188,1.983363 0.559313,2.235854 1.613236,3.138882 1.558794,1.335614 6.3332027,0.503475 6.5839147,2.049494 0.389,2.398773 -2.7266577,2.75602 -6.1446637,3.707569 0.895034,-0.11322 5.7191887,-0.03486 7.9333857,-1.355607 1.688872,-1.04155 2.317634,-1.61001 1.796033,-3.532082 -1.004294,-2.423041 -6.7332847,-1.547912 -6.4275687,-3.604267 0.343257,-1.571254 0.801915,-2.185397 1.19248,-2.818185 0.369642,0.05491 0.7450505,0.0835 1.1235567,0.0835 1.976991,0 3.873014,-0.765266 5.271002,-2.127337 1.397933,-1.362124 2.183348,-3.209508 2.183348,-5.135782 0,-1.926276 -0.785415,-3.7735755 -2.183348,-5.1356789 -1.397988,-1.3620808 -3.294011,-2.127336 -5.271002,-2.127336 z M 4.5157913,30.95318 c -0.09245,0.0117 -0.156891,0.02478 -0.157958,0.04232 0.05343,-0.01514 0.104663,-0.02749 0.157958,-0.04232 z"
       id="path1578" />
    <path
       id="rect23971"
       style="fill:#3f64f6;fill-opacity:1;stroke-width:0;stroke-linecap:round;stroke-linejoin:round;paint-order:fill markers stroke"
       d="m 26.00223,2.0882522 -6.471926,6.0716883 6.140545,6.1632545 6.471926,-6.0716889 z M 25.92661,4.8504883 29.282685,8.2318721 25.74647,11.563117 22.388169,8.1817354 Z" />
  </g>
</svg>
