<?xml version="1.0" encoding="UTF-8" standalone="no"?>
<!-- Created with Inkscape (http://www.inkscape.org/) -->

<svg
   width="26"
   height="30"
   viewBox="0 0 26 30"
   version="1.1"
   id="SVGRoot"
   xmlns="http://www.w3.org/2000/svg"
   xmlns:svg="http://www.w3.org/2000/svg">
  <defs
     id="defs17216" />
  <g
     id="layer1">
    <path
       id="path21452"
       style="fill:#7d7d7c;fill-opacity:1;stroke:#ffffff;stroke-width:1.1;stroke-linecap:round;stroke-linejoin:bevel;stroke-dasharray:none;paint-order:fill markers stroke"
       d="M 19.400589,0.69857662 A 2.0995582,1.9926751 0 0 0 17.373852,2.1920382 1.5488543,1.6006735 0 0 0 16.647414,2.006166 a 1.5488543,1.6006735 0 0 0 -1.309409,0.7478114 2.0995582,1.9926751 0 0 0 -1.5804,-0.6829723 2.0995582,1.9926751 0 0 0 -2.099608,1.992723 2.0995582,1.9926751 0 0 0 0.04554,0.3911961 2.0995582,1.9926751 0 0 0 -0.04554,0 2.0995582,1.9926751 0 0 0 -2.0996079,1.9927229 2.0995582,1.9926751 0 0 0 2.0996079,1.992723 2.0995582,1.9926751 0 0 0 1.999411,-1.3983642 2.0995582,1.9926751 0 0 0 1.475647,0.5813909 2.0995582,1.9926751 0 0 0 1.983469,-1.3508154 2.0995582,1.9926751 0 0 0 1.389112,0.5014227 2.0995582,1.9926751 0 0 0 2.099609,-1.9927229 2.0995582,1.9926751 0 0 0 -0.0091,-0.1815495 2.0995582,1.9926751 0 0 0 1.628222,0.7370048 2.0995582,1.9926751 0 0 0 2.099609,-1.9927229 2.0995582,1.9926751 0 0 0 -2.099609,-1.9927229 2.0995582,1.9926751 0 0 0 -1.049804,0.2744857 2.0995582,1.9926751 0 0 0 -1.773964,-0.92719978 z" />
    <path
       style="fill:#4e4e4d;fill-opacity:1;stroke:#ffffff;stroke-width:1.3;stroke-linecap:round;stroke-linejoin:bevel;paint-order:fill markers stroke"
       d="m 1.1359211,28.765954 c 2.6912605,-4.801411 5.036946,-11.837651 5,-20.0000002 H 18.135921 c 0.02962,7.8731822 2.883384,15.1797922 5,20.0000002 z"
       id="path17405" />
    <path
       id="path17405-8"
       style="fill:#a00808;fill-opacity:1;stroke:none;stroke-width:1.3;stroke-linecap:round;stroke-linejoin:bevel;paint-order:fill markers stroke"
       d="m 6.5458191,13.644183 c -0.12148,1.201294 -0.284093,2.36998 -0.4848879,3.5 H 18.415105 c -0.230965,-1.136767 -0.424311,-2.306847 -0.575586,-3.5 z" />
    <path
       id="path17405-0"
       style="fill:#a00808;fill-opacity:1;stroke:none;stroke-width:1.3;stroke-linecap:round;stroke-linejoin:bevel;paint-order:fill markers stroke"
       d="m 4.8180796,21.644183 c -0.3600126,1.233555 -0.7602283,2.402582 -1.1875188,3.5 H 20.945235 c -0.394017,-1.098627 -0.783552,-2.268937 -1.151425,-3.5 z" />
  </g>
  <ellipse
     style="fill:#ffde5a;stroke:none;stroke-width:0.4;stroke-dasharray:none;paint-order:fill markers stroke;fill-opacity:1"
     id="path3582"
     cx="12.383123"
     cy="20.815279"
     rx="5.6756358"
     ry="5.5779057" />
  <ellipse
     cx="12.435664"
     cy="20.958046"
     stroke="#000000"
     stroke-miterlimit="10"
     stroke-width="13.8889"
     id="ellipse394"
     style="fill:#000000;stroke:#000000;stroke-width:0.3;stroke-dasharray:none;stroke-opacity:1"
     rx="0.94714564"
     ry="1.0365528" />
  <path
     stroke="#000000"
     stroke-miterlimit="10"
     stroke-width="13.9333"
     d="m 8.7204054,23.336972 a 4.2608562,4.663066 0 0 0 1.0092113,1.294349 l 1.6717223,-2.197898 a 1.6549789,1.8112032 0 0 1 -0.62556,-1.185671 l -2.5752803,0.485579 a 4.2608562,4.663066 0 0 0 0.5196158,1.603641 z"
     id="path396"
     style="fill:#000000;stroke:#000000;stroke-width:0.3;stroke-dasharray:none;stroke-opacity:1" />
  <path
     stroke="#000000"
     stroke-miterlimit="10"
     stroke-width="13.9333"
     d="m 16.174018,23.336972 a 4.2608562,4.663066 0 0 0 0.519615,-1.603641 l -2.575278,-0.485579 a 1.6549789,1.8112032 0 0 1 -0.625561,1.185671 l 1.671721,2.197898 a 4.2608562,4.663066 0 0 0 1.009213,-1.294349 z"
     id="path398"
     style="stroke:#000000;stroke-width:0.3;stroke-dasharray:none;stroke-opacity:1" />
  <path
     stroke="#000000"
     stroke-miterlimit="10"
     stroke-width="13.9333"
     d="m 12.447213,16.294983 a 4.2608562,4.663066 0 0 0 -1.52883,0.30942 l 0.903267,2.683474 a 1.6549789,1.8112032 0 0 1 1.250833,0 l 0.903267,-2.683474 a 4.2608562,4.663066 0 0 0 -1.528829,-0.30942 z"
     id="path400"
     style="fill:#000000;stroke:#000000;stroke-width:0.3;stroke-dasharray:none;stroke-opacity:1" />
</svg>
