<?xml version="1.0" encoding="UTF-8" standalone="no"?>
<!-- Created with Inkscape (http://www.inkscape.org/) -->

<svg
   width="32.0px"
   height="32.0px"
   viewBox="0 0 32.0 32.0"
   version="1.1"
   id="SVGRoot"
   xmlns="http://www.w3.org/2000/svg"
   xmlns:svg="http://www.w3.org/2000/svg">
  <defs
     id="defs19913" />
  <g
     id="layer1">
    <path
       style="fill:#ffffff;stroke:#ff0000;stroke-width:2.3577;stroke-linejoin:round;stroke-dasharray:none;paint-order:markers fill stroke"
       d="M 2.1804756,25.772656 29.70711,25.722419 15.99534,5.6277859 Z"
       id="path25961" />
    <path
       style="fill:#000000;stroke-width:1.77166;stroke-linecap:square;paint-order:fill markers stroke"
       d="m 15.255899,18.825203 c -0.256637,-1.090491 -0.486468,-3.120934 -0.603805,-4.328223 -0.117337,-1.207289 -0.122077,-1.591271 -0.02494,-1.938234 0.09714,-0.346963 0.29632,-0.656283 0.547866,-0.896467 0.251547,-0.240184 0.555063,-0.410843 0.873173,-0.389151 0.318111,0.02169 0.650081,0.235016 0.90127,0.480526 0.251188,0.245509 0.421915,0.522823 0.506987,0.837438 0.08507,0.314614 0.08507,0.666598 -0.03828,1.855874 -0.123354,1.189277 -0.369956,3.215807 -0.614129,4.316711 -0.244173,1.100904 -0.486074,1.276872 -0.747586,1.289851 -0.261513,0.01298 -0.543916,-0.137833 -0.800553,-1.228325 z"
       id="path43412" />
    <ellipse
       style="fill:#000000;stroke:none;stroke-width:1.57944;stroke-linecap:square;stroke-linejoin:miter;stroke-dasharray:none;paint-order:fill markers stroke"
       id="path45361"
       cx="16.03747"
       cy="22.707262"
       rx="1.1615926"
       ry="1.1615924" />
  </g>
</svg>
