<?xml version="1.0" encoding="UTF-8" standalone="no"?>
<!-- Created with Inkscape (http://www.inkscape.org/) -->

<svg
   width="32.0px"
   height="32.0px"
   viewBox="0 0 32.0 32.0"
   version="1.1"
   id="SVGRoot"
   xmlns="http://www.w3.org/2000/svg"
   xmlns:svg="http://www.w3.org/2000/svg">
  <defs
     id="defs1331" />
  <g
     id="layer1">
    <g
       id="layer1-6"
       transform="translate(0.01873573,0.03743872)">
      <path
         style="fill:#ffffff;fill-opacity:1;stroke:#ff0000;stroke-width:1.96663685;stroke-linecap:round;stroke-linejoin:round;stroke-dasharray:none;paint-order:fill markers stroke"
         id="path7178"
         d="M 13.564402,9.3676812 C 13.412533,9.630531 -6.5218339,9.6241406 -6.6735342,9.3611934 -6.8252344,9.0982462 3.1474835,-8.1622271 3.4510526,-8.1621298 3.7546216,-8.1620324 13.716271,9.1048313 13.564402,9.3676812 Z"
         transform="matrix(1.3266485,0,0,1.1225825,11.371039,14.902543)" />
      <path
         style="fill:#000000;stroke-width:1.77166;stroke-linecap:square;paint-order:fill markers stroke"
         d="M 15.162222,18.379294 C 14.905585,17.288803 14.675754,15.25836 14.558417,14.051071 14.44108,12.843782 14.43634,12.4598 14.533477,12.112837 c 0.09714,-0.346963 0.29632,-0.656283 0.547866,-0.896467 0.251547,-0.240184 0.555063,-0.410843 0.873173,-0.389151 0.318111,0.02169 0.650081,0.235016 0.90127,0.480526 0.251188,0.245509 0.421915,0.522823 0.506987,0.837438 0.08507,0.314614 0.08507,0.666598 -0.03828,1.855874 -0.123354,1.189277 -0.369956,3.215807 -0.614129,4.316711 -0.244173,1.100904 -0.486074,1.276872 -0.747586,1.289851 -0.261513,0.01298 -0.543916,-0.137833 -0.800553,-1.228325 z"
         id="path43412" />
      <ellipse
         style="fill:#000000;stroke:none;stroke-width:1.57944;stroke-linecap:square;stroke-linejoin:miter;stroke-dasharray:none;paint-order:fill markers stroke"
         id="path45361"
         cx="15.943794"
         cy="22.261354"
         rx="1.1615926"
         ry="1.1615924" />
    </g>
  </g>
</svg>
