<?xml version="1.0" encoding="UTF-8" standalone="no"?>
<!-- Created with Inkscape (http://www.inkscape.org/) -->

<svg
   width="32.0px"
   height="32.0px"
   viewBox="0 0 32.0 32.0"
   version="1.1"
   id="SVGRoot"
   xmlns="http://www.w3.org/2000/svg"
   xmlns:svg="http://www.w3.org/2000/svg">
  <defs
     id="defs3888" />
  <g
     id="layer1">
    <path
       id="path15803-5"
       style="fill:#ffffff;fill-opacity:1;stroke-width:0.999996"
       d="M 14.873216,1.1964469 C 10.401935,2.9797287 5.9338671,4.768485 1.4767318,6.5870719 0.82516557,7.3940297 0.41793357,8.5127386 0.90288447,9.5035328 1.564873,10.886712 3.2666146,11.758242 4.7716536,11.485509 7.0535598,10.720615 9.399442,10.096647 11.816228,9.9944849 c 1.853626,-0.1214656 3.709359,-0.4887228 5.562544,-0.1816576 1.908007,0.1854229 3.829287,0.2635767 5.697504,0.7161617 1.495889,0.189128 2.890841,0.942675 4.370623,1.111357 1.507828,-0.336166 3.163756,-1.474537 3.104568,-3.180437 0.0081,-1.3295866 -1.19869,-2.2219156 -2.370463,-2.5622662 C 24.193981,4.2994479 20.219191,2.670452 16.224778,1.0909782 15.765647,1.0816649 15.291082,0.93304647 14.873216,1.1964469 Z" />
    <path
       id="flowRoot3192-3"
       style="fill:#ffffff;fill-opacity:1;stroke-width:0.680315;stroke-dasharray:none"
       d="m 7.4781772,13.082081 c 0,1.302084 0,2.604167 0,3.90625 0.7994791,0 1.5989583,0 2.3984375,0 -0.2619764,0.502765 -0.2531011,1.402643 -1.0433594,1.13086 -1.6535156,0 -3.3070313,0 -4.9605469,0 0,1.969401 0,3.938802 0,5.908203 1.0872396,0 2.1744792,0 3.2617188,0 -0.7713648,1.994187 -1.5427977,3.988347 -2.3144532,5.982422 2.1822917,0 4.3645834,0 6.546875,0 0.781232,-1.993638 1.55987,-3.988292 2.339844,-5.982422 1.608073,0 3.216145,0 4.824218,0 0.779975,1.99413 1.55861,3.988784 2.339844,5.982422 2.193359,0 4.386719,0 6.580078,0 -0.778454,-1.994216 -1.557158,-3.988334 -2.335937,-5.982422 1.091145,0 2.182291,0 3.273437,0 0,-1.969401 0,-3.938802 0,-5.908203 -1.861328,0 -3.722656,0 -5.583984,0 -0.09088,-0.456658 -0.855035,-1.371792 0.07851,-1.13086 0.633334,0 1.266667,0 1.9,0 0,-1.96875 0,-3.9375 0,-5.906249 -5.768229,0 -11.536458,0 -17.3046868,0 0,0.666666 0,1.333333 0,1.999999 z m 8.5410158,5.03711 c -0.452369,0.181981 -0.02832,-0.673857 0,0 z" />
    <path
       d="M 4.657443,9.3907055 7.100675,8.6246581 C 8.9773286,8.1899703 8.3782268,8.3491812 9.8601949,8.0500914 11.90131,7.8725897 13.942413,7.6670612 16.013983,7.5082456 l 5.97101,0.5418458 c 1.082634,0.2625584 1.387492,0.3002367 2.759534,0.5465455 0.962671,0.2709201 1.888793,0.6352642 2.863646,0.8501297 0.77379,-0.1775017 1.91925,-1.0743434 0.792075,-1.5741452 C 24.318024,6.2377516 16.275442,2.9680168 16.092653,2.9213048 c -0.05482,-0.014043 -0.109627,0 -0.158411,-0.00938 C 15.745358,2.9866629 6.9168059,6.5039655 3.1392309,8.0570916 2.5421287,8.7834402 4.2724975,9.5448188 4.6563522,9.3906711 Z"
       id="path15803"
       isolation="auto"
       white-space="normal"
       mix-blend-mode="normal"
       fill="#734a08"
       color-rendering="auto"
       solid-opacity="1"
       color-interpolation-filters="linearRGB"
       shape-rendering="auto"
       fill-rule="evenodd"
       image-rendering="auto"
       color-interpolation="sRGB"
       color="#000000"
       solid-color="#000000"
       style="fill:#a80012;fill-opacity:1;stroke-width:0.999996" />
    <path
       d="M 13.029632,20.089962 15.04377,14.95931 h 2.064234 l 2.01414,5.130652 z m 6.565312,-5.130652 h 3.356645 V 13.051344 H 9.647177 v 1.907966 h 3.332367 l -2.014147,5.130652 H 6.0416057 v 1.90718 h 4.1777913 l -2.3123954,5.98196 h 2.2630644 l 2.337434,-5.98196 h 7.559481 l 2.33744,5.98196 h 2.288108 l -2.33744,-5.98196 h 4.202837 v -1.90718 h -4.948844 z"
       id="flowRoot3192"
       fill="#ffffff"
       style="fill:#a80012;fill-opacity:1;stroke-width:0.680315;stroke-dasharray:none" />
  </g>
</svg>
