<?xml version="1.0" encoding="UTF-8" standalone="no"?>
<!-- Created with Inkscape (http://www.inkscape.org/) -->

<svg
   width="32.0px"
   height="32.0px"
   viewBox="0 0 32.0 32.0"
   version="1.1"
   id="SVGRoot"
   xmlns="http://www.w3.org/2000/svg"
   xmlns:svg="http://www.w3.org/2000/svg">
  <defs
     id="defs274" />
  <g
     id="layer1">
    <path
       id="flowRoot3192-6"
       style="fill:#ffffff;stroke-width:0.681451"
       d="m 5.8381029,5.8472122 c 0,1.4642474 0,2.9284954 0,4.3927438 1.099219,0 2.1984381,0 3.2976571,0 -0.3720996,1.023881 -0.7441994,2.047762 -1.116299,3.071643 -2.203928,0 -4.4078561,0 -6.611784,0 0,2.084159 0,4.168316 0,6.252473 1.4499687,0 2.8999373,0 4.349906,0 -0.946915,2.642127 -1.8945747,5.28399 -2.8401575,7.926589 2.2508981,0 4.501796,0 6.7526941,0 0.9576804,-2.642204 1.9154004,-5.284392 2.8730984,-7.926589 2.219177,0 4.438356,0 6.657533,0 0.957697,2.642197 1.91542,5.284385 2.873098,7.926589 2.264318,0 4.528636,0 6.792953,0 -0.957581,-2.642021 -1.914261,-5.284363 -2.871267,-7.926589 1.457288,0 2.914578,0 4.371867,0 0,-2.084157 0,-4.168314 0,-6.252473 -2.213079,0 -4.426157,0 -6.639235,0 -0.373318,-1.023881 -0.746639,-2.047762 -1.119959,-3.071643 1.108979,0 2.217958,0 3.326937,0 0,-2.0853712 0,-4.1707412 0,-6.2561114 -6.699014,0 -13.398028,0 -20.0970421,0 0,0.6211224 0,1.2422452 0,1.8633676 z M 16.684502,13.311599 c -0.714307,0 -1.428617,0 -2.142926,0 0.356848,-0.98142 0.713698,-1.962844 1.070549,-2.944264 0.357459,0.98142 0.714919,1.962844 1.072377,2.944264 z" />
    <path
       d="m 12.008733,15.299009 2.37464,-6.4571518 h 2.433703 l 2.374642,6.4571518 z m 7.74041,-6.4571518 H 23.70658 V 6.4405976 H 8.0208662 V 8.8418572 H 11.94968 L 9.575029,15.299009 H 3.7699487 v 2.40027 H 8.6955058 L 5.9692241,25.22784 h 2.6681211 l 2.7558018,-7.528561 h 8.912521 l 2.755809,7.528561 h 2.697646 L 23.003315,17.699279 H 27.9584 v -2.40027 h -5.834617 z"
       id="flowRoot3192"
       fill="#ffffff"
       style="fill:#a80012;fill-opacity:1;stroke-width:0.680315;stroke-dasharray:none" />
  </g>
</svg>
