<?xml version="1.0" encoding="UTF-8" standalone="no"?>
<!-- Created with Inkscape (http://www.inkscape.org/) -->

<svg
   width="32.0px"
   height="32.0px"
   viewBox="0 0 32.0 32.0"
   version="1.1"
   id="SVGRoot"
   xmlns="http://www.w3.org/2000/svg"
   xmlns:svg="http://www.w3.org/2000/svg">
  <defs
     id="defs394" />
  <g
     id="layer1">
    <g
       id="g166"
       transform="matrix(0.05349095,0,0,0.05625219,2.0012619,1.591563)">
	<path
   id="path148-1"
   style="fill:#ffffff;fill-opacity:1;stroke-width:1.18484"
   class="st0"
   d="m 162.20023,0.81931267 c -2.19377,-0.0053 -4.38302,0.24983703 -6.54371,0.60780343 -4.98847,0.8222613 -9.82074,2.5048281 -14.27823,4.8640591 -8.44327,4.4675858 -15.39273,11.4071158 -20.47333,19.3983618 -5.81673,9.078524 -9.35555,19.421341 -11.42489,29.933246 -1.6932,8.000363 -3.3864,16.000726 -5.0796,24.001088 -8.56505,6.957377 -15.650987,15.723578 -20.453577,25.625759 -7.822286,14.61017 -15.795566,29.14062 -23.687651,43.71371 -5.63628,0.0341 -11.274711,-0.074 -16.90951,0.0657 -15.18684,0.55996 -30.408169,4.93336 -42.96122953,13.55592 -9.42794297,6.46638 -17.20251647,15.49824 -21.42371047,26.12138 -4.287418,10.5972 -4.849236,22.62917 -1.510673,33.5612 3.145039,10.54462 9.778122,19.90329 18.2734255,26.90731 -4.381753,8.38019 -6.5679055,17.79393 -6.7902865,27.20775 -0.09755,5.91748 -0.01636,11.83691 -0.04234,17.75516 0.01001,27.28175 -0.01745,54.56365 0.01375,81.84531 0.08937,8.63746 1.2409215,17.3939 4.6484165,25.40297 3.646188,8.75173 9.951561,16.39731 17.9401185,21.60005 0.632329,0.40263 1.264797,0.80681 1.910642,1.18801 0.369296,16.96577 4.897001,34.01352 14.079738,48.41835 6.948914,10.92952 16.770388,20.24101 28.642155,25.7286 10.764951,5.05377 23.115156,6.73971 34.845603,4.64741 11.764119,-2.03525 22.720399,-7.81941 31.385779,-15.91049 11.19012,-10.39887 18.7094,-24.26652 22.65774,-38.8708 1.41609,-5.24709 2.39113,-10.60999 2.92939,-16.01496 73.51707,0 147.03413,0 220.55118,0 1.55052,16.86165 7.47143,33.53837 18.10221,46.90197 7.79978,9.84361 18.30739,17.72264 30.33043,21.71765 11.72121,3.96416 24.71956,4.06656 36.50277,0.28706 12.01949,-3.77881 22.5998,-11.44125 30.51098,-21.1085 10.89664,-13.27118 17.03457,-29.98897 18.7364,-46.92491 0.30032,-2.95341 0.46376,-5.9202 0.49939,-8.88825 8.1716,-4.81045 14.82341,-12.08331 18.87036,-20.60678 3.78656,-7.8409 5.32179,-16.56292 5.58695,-25.20099 0.14949,-6.42159 0.0373,-12.84646 0.0721,-19.26941 -0.007,-27.0059 0.0126,-54.0122 -0.009,-81.01786 -0.0411,-8.94262 -1.71827,-17.93878 -5.47926,-26.09766 -0.38965,-0.8485 -0.79412,-1.69094 -1.22467,-2.51989 8.8255,-7.38555 15.57913,-17.33685 18.51943,-28.45524 3.06669,-11.27741 2.08313,-23.55759 -2.65367,-34.24484 -4.86616,-11.15267 -13.58858,-20.42257 -23.99497,-26.73358 -12.56093,-7.6633 -27.42734,-11.24537 -42.11953,-11.04768 -4.8328,0 -9.66561,0 -14.49841,0 -7.92612,-14.65478 -15.934,-29.26658 -23.78729,-43.95981 -5.24289,-10.800029 -13.24868,-20.203269 -22.88538,-27.41132 -1.16631,-0.880613 -2.36041,-1.724876 -3.57304,-2.541642 -1.82284,-8.216821 -3.56218,-16.4526 -5.44008,-24.656941 C 397.7442,38.929228 392.80765,27.790625 385.03277,18.762505 380.6146,13.618382 375.25248,9.2549668 369.21081,6.1129388 365.65312,4.3042411 361.88865,2.892646 357.99096,1.9986434 354.20011,1.1153087 350.29897,0.75601267 346.40738,0.81926467 c -61.40226,1.2e-5 -122.80521,-1.6e-5 -184.20705,0 z" />
<rect
   style="fill:#ffff00;fill-opacity:1;stroke:#2b1100;stroke-width:0;stroke-linecap:square;paint-order:fill markers stroke"
   id="rect3434"
   width="107.63429"
   height="62.985157"
   x="53.662067"
   y="303.50345" />
<rect
   style="fill:#ffff00;fill-opacity:1;stroke:#2b1100;stroke-width:0;stroke-linecap:square;paint-order:fill markers stroke"
   id="rect3434-6"
   width="107.63429"
   height="62.985157"
   x="355.86606"
   y="302.37869" />
<path
   class="st0"
   d="m 40.226972,230.7818 c 2.313,-5.031 6.688,-13.313 14.422,-27.813 3.547,-6.688 7.516,-14.063 11.578,-21.641 h -35.579 c -13.671,0.001 -24.7339997,11.064 -24.7339997,24.736 0,13.625 11.0629997,24.719 24.7339997,24.719 h 9.579 z"
   id="path148"
   style="fill:#0000d5;fill-opacity:1" />

	<path
   class="st0"
   d="m 493.19497,181.3288 h -35.578 c 4.063,7.578 8.016,14.953 11.563,21.641 7.734,14.5 12.109,22.781 14.422,27.813 h 9.594 c 13.641,0 24.719,-11.094 24.719,-24.719 -0.001,-13.672 -11.079,-24.735 -24.72,-24.735 z"
   id="path150"
   style="fill:#0000d5;fill-opacity:1" />

	<path
   class="st0"
   d="m 45.304972,445.0638 c 0,18.406 14.922,33.313 33.328,33.313 18.406,0 33.312998,-14.906 33.312998,-33.313 v -31.531 H 45.304972 Z"
   id="path152"
   style="fill:#000000" />

	<path
   class="st0"
   d="m 411.85197,445.0638 c 0,18.406 14.938,33.313 33.313,33.313 18.438,0 33.375,-14.906 33.375,-33.313 v -31.531 h -66.688 z"
   id="path154"
   style="fill:#000000" />

	<path
   class="st0"
   d="m 495.78897,259.0318 c -1.469,-1.625 -21.984,-22.078 -21.984,-22.078 0,-2.391 -61.703,-115.859 -64.734,-122.078 -8,-16.703005 -27.813,-26.719005 -47.094,-26.719005 -22.219,0 -84.313,0 -84.313,0 0,0 -93.547,0 -115.859,0 -19.266,0 -39,10.016 -47.078,26.719005 -3.031,6.281 -66.093998,122.078 -64.671998,122.078 h 0.016 c 0,0 -20.531,20.453 -22.078,22.078 -3.422,3.719 -5.438,7.313 -6.516,10.641 -1.719,5.141 -1.484,9.859 -1.484,14.672 0,0 0,3.25 0,8.469 -0.016,1.188 0,2.344 0,3.531 0,22 0,67.609 0,80.563 0,0.969 0,1.938 0,2.688 0,15.594 3.031,24.047 23.391,24.047 H 480.41397 c 20.359,0 23.469,-8.453 23.469,-24.047 0,-0.75 0,-1.719 0,-2.688 0,-12.953 0,-58.563 0,-80.563 0,-1.172 0,-2.344 0,-3.531 0,-5.219 0,-8.469 0,-8.469 0,-4.813 0.234,-9.531 -1.484,-14.672 -1.094,-3.328 -3.11,-6.922 -6.61,-10.641 z m -336.156,98 c -2.75,3.438 -7.063,5.281 -11.469,4.969 l -69.249998,-5.094 c -6.047,-0.438 -11.063,-4.859 -12.234,-10.813 l -4.625,-23.094 c -0.828,-4.188 0.344,-8.5 3.203,-11.688 2.844,-3.156 7.031,-4.781 11.25,-4.406 l 67.421998,6.219 c 5.5,0.516 10.141,4.328 11.703,9.625 l 6.469,22 c 1.25,4.251 0.328,8.829 -2.469,12.282 z m 159.062,17.407 c 0,2.75 -2.219,4.969 -4.938,4.969 h -103.655 c -2.734,0 -4.969,-2.219 -4.969,-4.969 v -45.656 c 0,-2.719 2.234,-4.906 4.969,-4.906 h 103.656 c 2.719,0 4.938,2.188 4.938,4.906 v 45.656 z m 143.078,-51.438 -4.625,23.094 c -1.172,5.953 -6.188,10.375 -12.234,10.813 l -69.25,5.094 c -4.406,0.313 -8.703,-1.531 -11.5,-4.969 -2.766,-3.453 -3.688,-8.031 -2.438,-12.281 l 6.469,-22 c 1.563,-5.297 6.188,-9.109 11.688,-9.625 l 67.438,-6.219 c 4.25,-0.375 8.406,1.25 11.25,4.406 2.859,3.187 4.031,7.5 3.202,11.687 z m 26.579,-39.844 h -120.219 l -106.234,-30.344 -106.141,30.344 H 35.538972 v -0.438 c -0.031,-3.813 0,-6.094 0.719,-8.219 0.469,-1.531 1.563,-3.188 2.969,-4.75 1.219,-1.25 14.016,-14.031 21.813,-21.781 1.859,-1.844 3.156,-4.078 3.891,-6.469 4.016,-8.578 30.531,-57.813 44.983998,-84.688 11.906,-22.141 17.688,-32.875 18.781,-35.156 5.125,-10.594 18.75,-17.969 33.109,-17.969 h 115.859 84.313 c 14.188,0 28.125,7.531 33.125,18 1.094,2.25 6.656,12.563 18.094,33.844 14.922,27.719 42.438,78.844 45.875,86.406 0.781,2.25 2.031,4.313 3.75,6.031 9.5,9.438 20.25,20.203 21.625,21.672 1.625,1.734 2.688,3.359 3.219,4.938 0.688,2.063 0.688,4.328 0.688,8.156 v 0.423 z"
   id="path156"
   style="fill:#0000d5;fill-opacity:1" />

	<path
   class="st0"
   d="m 372.41397,136.4228 c -3.906,-7.5 -15,-12.922 -26.406,-12.922 h -168.188 c -11.406,0 -22.531,5.422 -26.422,12.922 -2.281,4.391 -40.953,71.484 -40.953,71.484 -3.563,6.172 -0.438,17.672 10.125,17.672 h 282.688 c 10.563,0 13.688,-11.5 10.125,-17.672 0,0 -38.656,-67.093 -40.969,-71.484 z"
   id="path158"
   style="fill:#6c5353" />

	<path
   class="st0"
   d="m 142.85663,76.469795 h 51.25512 V 19.002651 h -30.38103 c -8.49062,0 -16.15792,8.581717 -19.47313,21.835522 l -5.97752,23.93518 c -0.65223,2.607192 -0.48113,5.577073 0.4387,7.930498 0.91983,2.353425 2.46999,3.765944 4.13786,3.765944 z"
   id="path160"
   style="fill:#fc0204;fill-opacity:1;stroke-width:0.890531" />

	<path
   class="st0"
   d="m 379.59458,72.703851 c 0.93362,-2.353425 1.09617,-5.323306 0.43416,-7.930498 l -6.07825,-23.93518 C 370.59668,27.584368 362.81443,19.002651 354.19581,19.002651 h -30.84698 v 57.467144 h 52.03404 c 1.69358,0 3.26698,-1.412519 4.21171,-3.765944 z"
   id="path162"
   style="fill:#fc0204;fill-opacity:1;stroke-width:0.897182" />

	<rect
   x="202.2043"
   y="20.127386"
   class="st0"
   width="113.88934"
   height="56.342411"
   id="rect164"
   style="fill:#41b5ff;fill-opacity:1;stroke-width:1.52901" />

</g>
  </g>
</svg>
