<?xml version="1.0" encoding="UTF-8" standalone="no"?>
<!-- Created with Inkscape (http://www.inkscape.org/) -->

<svg
   width="32.0px"
   height="32.0px"
   viewBox="0 0 32.0 32.0"
   version="1.1"
   id="SVGRoot"
   xmlns="http://www.w3.org/2000/svg"
   xmlns:svg="http://www.w3.org/2000/svg">
  <defs
     id="defs10284" />
  <g
     id="layer1">
    <path
       d="m 6.779448,7.176207 6.58611,-0.9781436 7.277954,0.6325344 0.442544,16.6602372 1.022668,1.332518 c 0,0 -3.318382,2.614927 -8.41142,2.667091 -5.0930391,0.05216 -8.0216223,-2.603612 -8.0216223,-2.603612 l 1.2918636,-1.648227 z"
       id="path2381"
       opacity="0.1"
       fill="#ffffff"
       fill-rule="evenodd"
       style="fill:#ff6600;stroke-width:0.0502223;stroke:#d45500;opacity:0.5" />
    <path
       d="m 13.887647,6.3175837 c -4.7006865,0 -7.2972053,0.9988371 -7.2972053,1.2313937 0,0.00987 0.00589,0.019056 0.019402,0.028758 H 6.5904417 L 6.284894,12.543453 H 7.3072882 L 7.1584021,9.0369079 C 11.627605,11.618477 14.565961,8.6857893 20.420619,8.9380559 l 0.0037,3.6053971 h 1.055303 L 21.054861,7.2743481 h -0.01293 c 0.01347,-0.00972 0.02156,-0.018885 0.02156,-0.028758 0,-0.2325566 -2.475113,-0.9280095 -7.175846,-0.9280095 h 4e-6 z"
       id="path2209"
       opacity="0.75"
       fill="#ffffff"
       style="fill:#ffffff;stroke-width:0.0502223;stroke:none;fill-opacity:1" />
    <path
       d="M 13.354639,6.1115168 C 11.1282,6.1523764 8.9373966,6.2811763 6.7935149,6.892035 l 0.2485004,16.239043 -0.017103,1.39e-4 c -0.7912914,0.424705 -1.244029,1.152958 -1.2379927,1.684459 0.016995,1.497154 3.6877814,2.68251 8.1970315,2.646962 4.509255,-0.03556 8.148192,-1.278535 8.131194,-2.775689 -0.0053,-0.469746 -0.371679,-1.136878 -1.009233,-1.517089 L 20.946623,23.07491 21.065213,6.7795247 C 18.448846,6.1832685 15.877939,6.0652124 13.354639,6.1115168 Z"
       id="path3839"
       fill="none"
       stroke="#ffffff"
       stroke-linejoin="round"
       stroke-linecap="round"
       stroke-width="1.75778"
       style="fill:none;stroke:#552200;opacity:1;fill-opacity:1" />
    <path
       id="path3933"
       d="m 6.7307957,22.929839 c 1.557133,1.725624 4.6660053,2.195989 7.2634253,2.125997 2.526412,-0.06807 5.664309,-0.601587 7.07455,-2.11443"
       fill="none"
       stroke="#ffffff"
       stroke-linejoin="round"
       stroke-linecap="round"
       stroke-width="1.50667"
       style="fill:#ffb380;stroke:#552200" />
    <path
       id="path3935"
       d="m 21.867057,8.7037806 3.92267,-0.1992718 c 0.684688,0.1450008 1.037642,0.5906556 1.064048,1.3322772 l -0.950974,8.947216 c -0.02924,0.70926 -0.439687,1.002886 -1.002266,1.130617 l -2.928054,0.398362"
       fill="none"
       stroke="#ffffff"
       stroke-linejoin="round"
       stroke-linecap="round"
       stroke-width="1.42528"
       style="stroke:#552200" />
  </g>
</svg>
