<?xml version="1.0" encoding="UTF-8" standalone="no"?>
<!-- Created with Inkscape (http://www.inkscape.org/) -->

<svg
   width="32.0px"
   height="32.0px"
   viewBox="0 0 32.0 32.0"
   version="1.1"
   id="SVGRoot"
   xmlns="http://www.w3.org/2000/svg"
   xmlns:svg="http://www.w3.org/2000/svg">
  <defs
     id="defs2222" />
  <g
     id="layer1">
    <path
       id="path15803-8"
       style="fill:#ffffff;fill-opacity:1;stroke-width:0.999999"
       d="M 14.948642,9.4123279 C 11.04022,11.343795 7.131581,13.273468 3.241611,15.242406 c -0.623855,0.935681 -0.885819,2.186428 -0.248247,3.187099 0.657481,1.073008 1.904658,1.804654 3.172075,1.76212 0.02684,2.59269 -0.05192,5.193025 0.05744,7.780853 0.230894,1.40175 1.771309,2.131544 3.090994,2.080475 1.329117,0.03847 2.914026,-0.645647 3.190924,-2.057015 0.125445,-2.492818 0.02477,-5.001189 0.05908,-7.500017 0,-0.660677 0,-1.321354 0,-1.982031 1.549155,-0.125157 3.141006,-0.518986 4.721296,-0.20281 0.600714,0.0676 1.201428,0.135207 1.802141,0.20281 0.01547,3.120059 -0.03856,6.248409 0.04492,9.363281 0.188132,1.616058 2.014948,2.372521 3.476968,2.194774 1.434696,-0.03368 2.976222,-1.112553 2.870803,-2.66782 0.0024,-2.410677 0.007,-4.821353 0.0057,-7.232032 0.672405,0.37087 1.36416,-0.159779 1.968988,-0.454708 1.376543,-0.759471 2.168611,-2.711599 1.154059,-4.060917 -0.813175,-1.094607 -2.259654,-1.390943 -3.384791,-2.071537 -2.931624,-1.430725 -5.82487,-2.97574 -8.782936,-4.3303154 -0.508257,-0.04484 -1.051124,-0.1719284 -1.49243,0.1577123 z" />
    <path
       id="path4160-9"
       style="fill:#ffffff;fill-opacity:1;stroke-width:0.999999"
       d="m 20.048948,0.18289703 c -0.685349,0.033782 -1.353092,0.2280406 -1.7768,0.8015816 C 17.461618,1.7526301 16.632572,2.5043729 15.886839,3.3371939 16.009398,1.7293113 14.279183,0.34999893 12.738401,0.88797523 11.877471,1.0173068 11.402669,1.8896526 10.722776,2.3645377 10.274114,2.722652 9.8960615,3.4582075 9.4484425,2.7407553 8.3587705,1.855855 6.6712463,2.2236373 5.8396913,3.2904736 4.4838353,4.5878603 3.0374073,5.8082085 1.7473331,7.1633605 0.92512238,8.2989612 1.3710322,10.057701 2.6192613,10.675084 c -0.7843725,0.686075 -1.6182471,1.565237 -1.4395289,2.697699 0.1568337,1.722015 2.3194409,2.807284 3.7754659,1.853083 1.162119,-0.933493 2.203534,-2.032932 3.3107382,-3.038844 0.417878,-0.301203 0.737497,-1.101652 1.123004,-0.376566 1.0095185,1.054326 2.8391335,0.864981 3.7248775,-0.262872 0.61206,-0.57436 1.222379,-1.151304 1.835521,-1.7240627 0.628685,1.2874267 2.419118,1.8419407 3.619141,1.0078127 0.470821,0.542642 1.151539,0.85286 1.865234,0.890625 0.133372,1.648888 2.137163,2.691958 3.568359,1.863282 0.455232,-0.534076 0.766154,0.35053 1.275207,0.406517 1.099424,0.469241 2.329966,-0.04021 3.056947,-0.922457 1.029976,-1.027152 2.215716,-1.945522 3.115841,-3.0743367 C 32.047537,8.9566712 31.790005,7.5504885 30.888792,6.7727408 32.192354,5.7159953 31.720706,3.3771568 30.197191,2.7527461 29.177,2.2483239 27.961486,2.6765243 27.216204,3.4729604 26.791217,4.0998807 26.531749,3.5954367 26.154342,3.2446087 24.945543,2.4266537 23.306992,2.9358018 22.407071,3.9837228 21.948395,4.3726759 21.500226,4.862236 21.050901,5.2102408 21.843433,4.4634966 22.703753,3.5810567 22.584104,2.3996939 22.50018,1.1210455 21.338461,0.06577663 20.048948,0.18289703 Z" />
    <path
       d="m 19.498506,2.7466114 c -0.84631,0.8030785 -1.957078,1.8069281 -2.644701,2.6100065 -0.211577,0.4517303 0.528937,0.9034606 0.846299,0.4517303 0.846308,-0.8030784 1.692608,-1.555969 2.433123,-2.4092351 0.158686,-0.2509658 0.105794,-0.7026962 -0.317361,-0.7077122 -0.05288,0 -0.158685,0.00476 -0.31736,0.05519 z M 12.833867,3.3489185 C 11.352836,4.6539218 9.7660214,6.1095018 8.5494594,7.3643105 8.2320988,7.8160408 8.9726135,8.3179656 9.3428672,7.9164299 10.718114,6.6114266 12.146243,5.3064233 13.468598,3.9411868 13.627274,3.7002666 13.415714,3.298724 13.098336,3.298724 c -0.105784,0 -0.158685,0.03011 -0.264469,0.050161 z M 7.2800064,4.854693 C 5.904759,6.1596962 4.2650524,7.6152763 3.0379143,8.8198905 2.7311298,9.2716208 3.461059,9.7735455 3.8260334,9.3720098 5.217145,8.0670066 6.6452747,6.7620033 8.0205212,5.4068056 8.1791973,5.1558466 7.9676396,4.754304 7.597367,4.754304 c -0.1057841,0 -0.2115776,0.050161 -0.3173606,0.100389 z M 28.649149,5.1056521 c -1.110768,0.8532729 -2.380221,2.0076993 -3.279422,2.91116 -0.317361,0.4517303 0.423155,0.9536552 0.793407,0.602307 1.004985,-0.9536551 2.062861,-1.9073102 3.067846,-2.8609654 0.158685,-0.250959 -0.05288,-0.7026962 -0.370253,-0.7026962 -0.05288,0 -0.105784,0 -0.211578,0.050161 z m -5.077814,0.7026961 c -0.899201,0.8030784 -2.6447,2.4594297 -3.914154,3.7142385 -0.264469,0.4517298 0.423154,0.9536553 0.793408,0.5521123 1.375246,-1.3050031 2.803386,-2.6099995 4.178623,-3.9651972 0.264468,-0.2007714 0.211576,-0.8030785 -0.26447,-0.7528839 -0.158684,0 -0.476046,0.1003822 -0.793407,0.4517303 z M 14.632259,6.310273 c -1.322346,1.1544265 -3.120737,2.8609655 -4.337299,4.015392 -0.26447,0.45173 0.423154,0.953655 0.793406,0.552112 1.375248,-1.3050024 2.803377,-2.6099991 4.178625,-3.9651969 0.158675,-0.2509658 -0.105794,-0.6525016 -0.423156,-0.6525016 -0.05288,0 -0.158684,0.050229 -0.211576,0.050229 z m 4.072829,0.7026894 c -0.740505,0.5521193 -1.586814,1.3551978 -2.32733,2.0578939 -0.211577,0.5019183 0.528938,0.9034602 0.846309,0.5019183 0.687614,-0.6524951 1.481021,-1.254809 2.115753,-1.9574983 0.105784,-0.2509658 -0.105784,-0.6525016 -0.370252,-0.6525016 -0.105794,0 -0.158686,0 -0.26448,0.05016 z m 10.102747,1.8069281 c -1.110778,0.953655 -2.486015,2.2084645 -3.438108,3.1621255 -0.317361,0.401535 0.423155,0.953655 0.793407,0.552113 1.057877,-1.00385 2.168655,-2.007693 3.173639,-3.0115423 0.158686,-0.2509659 0.05288,-0.7528908 -0.31736,-0.7528908 -0.05288,0 -0.158686,0 -0.211578,0.050161 z m -5.395185,1.5559625 -1.269454,1.254815 c -0.317361,0.501924 0.264469,1.054038 0.740516,0.552112 l 1.269454,-1.35519 c 0.211576,-0.250966 0.05288,-0.702696 -0.26447,-0.702696 -0.158675,0 -0.317361,0.05016 -0.476046,0.250959 z M 6.327913,10.225276 c -1.110768,0.953662 -2.486015,2.158275 -3.4486841,3.162126 -0.3067845,0.451729 0.4231545,0.953655 0.7881191,0.552112 1.0737508,-1.054037 2.237411,-2.057887 3.2952967,-3.111924 0.1586762,-0.250966 -0.052885,-0.652502 -0.4231541,-0.702696 -0.052885,0 -0.1586856,0.05016 -0.2115776,0.100378 z"
       id="path4160"
       isolation="auto"
       white-space="normal"
       mix-blend-mode="normal"
       fill="#734a08"
       color-rendering="auto"
       solid-opacity="1"
       color-interpolation-filters="linearRGB"
       shape-rendering="auto"
       fill-rule="evenodd"
       image-rendering="auto"
       color-interpolation="sRGB"
       color="#000000"
       solid-color="#000000"
       style="stroke-width:0.999999;fill:#a80012;fill-opacity:1" />
    <path
       d="m 6.0052642,18.125561 2.121041,-0.82315 c 0.00482,3.362891 -0.015897,6.775976 0.010598,10.138866 -0.063483,0.803078 2.4331138,0.722767 2.3802218,-0.01509 0.0159,-3.563661 0,-7.177511 0.0048,-10.741172 1.771951,-0.190733 3.543892,-0.411582 5.342283,-0.582236 l 5.183608,0.582236 c 0.0048,3.613849 -0.0159,7.177511 0.0106,10.791366 -0.0106,0.803079 2.380232,0.722774 2.380232,-0.01502 0.0159,-3.413085 0,-6.775975 0.0048,-10.18906 0.835723,0.291115 1.639716,0.682618 2.486015,0.9135 0.67175,-0.190733 1.666157,-1.154427 0.687624,-1.691485 -3.543898,-1.756736 -10.525898,-5.270203 -10.684583,-5.320397 -0.04759,-0.01509 -0.09517,0 -0.137522,-0.01008 -0.163975,0.08031 -7.828299,3.859799 -11.1077221,5.528698 -0.5183618,0.780492 0.9838219,1.598625 1.3170574,1.432987 z"
       id="path15803"
       isolation="auto"
       white-space="normal"
       mix-blend-mode="normal"
       fill="#734a08"
       color-rendering="auto"
       solid-opacity="1"
       color-interpolation-filters="linearRGB"
       shape-rendering="auto"
       fill-rule="evenodd"
       image-rendering="auto"
       color-interpolation="sRGB"
       color="#000000"
       solid-color="#000000"
       style="stroke-width:0.999999;fill:#a80012;fill-opacity:1" />
  </g>
</svg>
