<?xml version="1.0" encoding="UTF-8" standalone="no"?>
<!-- Created with Inkscape (http://www.inkscape.org/) -->

<svg
   width="32.0px"
   height="32.0px"
   viewBox="0 0 32.0 32.0"
   version="1.1"
   id="SVGRoot"
   xmlns="http://www.w3.org/2000/svg"
   xmlns:svg="http://www.w3.org/2000/svg">
  <defs
     id="defs45659" />
  <g
     id="layer1">
    <rect
       style="fill:#f8fc20;fill-opacity:1;stroke:#000000;stroke-width:1.00382;stroke-linecap:square;stroke-dasharray:none;stroke-opacity:1;paint-order:markers fill stroke"
       id="rect48469"
       width="31.057215"
       height="31.326696"
       x="0.59729916"
       y="0.29850262"
       ry="3.2142241" />
    <path
       d="M 29.206292,4.5792661 26.589216,6.1134079 23.235168,20.889606 v 3.130556 H 7.9341489"
       id="path2492"
       fill="none"
       fill-rule="evenodd"
       stroke="#ffffff"
       stroke-linejoin="round"
       stroke-linecap="round"
       stroke-width="1.51765"
       style="stroke:#333333" />
    <path
       d="M 26.044855,8.6152738 H 3.64643 L 6.2771964,19.236509 23.201877,21.677306 Z"
       id="path3264"
       fill="none"
       fill-rule="evenodd"
       stroke="#ffffff"
       stroke-linejoin="round"
       stroke-linecap="round"
       stroke-width="1.51765"
       style="fill:none;fill-opacity:1;stroke:#1a1a1a" />
    <path
       id="path3268"
       d="M 7.4533072,8.6787549 V 18.403823"
       fill="none"
       fill-rule="evenodd"
       stroke="#ffffff"
       stroke-linecap="round"
       stroke-width="1.01188"
       style="stroke:#1a1a1a" />
    <path
       d="M 5.2475374,12.912752 H 24.250472"
       id="path3280"
       fill="none"
       fill-rule="evenodd"
       stroke="#ffffff"
       stroke-linecap="round"
       stroke-width="1.01188"
       style="stroke:#1a1a1a" />
    <path
       d="m 9.6368025,25.934473 a 1.6773809,1.8145835 0 0 1 -1.6777158,1.814135 1.6773809,1.8145835 0 0 1 -1.677046,-1.814859 1.6773809,1.8145835 0 0 1 1.6775568,-1.814308 1.6773809,1.8145835 0 0 1 1.6772051,1.814688"
       id="path3284"
       fill="none"
       stroke="#ffffff"
       stroke-linejoin="round"
       stroke-linecap="round"
       stroke-width="1.19687"
       style="stroke:#1a1a1a" />
    <path
       d="m 22.612752,26.044073 a 1.6773809,1.8145835 0 0 1 -1.677716,1.814135 1.6773809,1.8145835 0 0 1 -1.677046,-1.814859 1.6773809,1.8145835 0 0 1 1.677557,-1.814308 1.6773809,1.8145835 0 0 1 1.677205,1.814688"
       id="path3316"
       fill="none"
       stroke="#ffffff"
       stroke-linejoin="round"
       stroke-linecap="round"
       stroke-width="1.19687"
       style="stroke:#1a1a1a" />
    <path
       d="M 12.065898,8.6787549 V 19.50218"
       id="path3318"
       fill="none"
       fill-rule="evenodd"
       stroke="#ffffff"
       stroke-linecap="round"
       stroke-width="1.01188"
       style="fill:#ff2a2a;stroke:#1a1a1a" />
    <path
       id="path3320"
       d="M 16.890361,8.6787549 V 19.990338"
       fill="none"
       fill-rule="evenodd"
       stroke="#ffffff"
       stroke-linecap="round"
       stroke-width="1.01188"
       style="fill:#ff2a2a;stroke:#1a1a1a" />
    <path
       d="M 21.608891,8.6787549 V 20.722582"
       id="path3322"
       fill="none"
       fill-rule="evenodd"
       stroke="#ffffff"
       stroke-linecap="round"
       stroke-width="1.01188"
       style="fill:#ff2a2a;stroke:#1a1a1a" />
    <path
       id="path3324"
       d="M 6.1912424,17.246374 H 23.306768"
       fill="none"
       fill-rule="evenodd"
       stroke="#ffffff"
       stroke-linecap="round"
       stroke-width="1.01188"
       style="fill:#ff2a2a;stroke:#1a1a1a" />
  </g>
</svg>
