<?xml version="1.0" encoding="UTF-8" standalone="no"?>
<!-- Created with Inkscape (http://www.inkscape.org/) -->

<svg
   width="32.0px"
   height="32.0px"
   viewBox="0 0 32.0 32.0"
   version="1.1"
   id="SVGRoot"
   xmlns="http://www.w3.org/2000/svg"
   xmlns:svg="http://www.w3.org/2000/svg">
  <defs
     id="defs87964" />
  <g
     id="layer1">
    <path
       id="rect88151-7"
       style="fill:#ffffff;fill-opacity:1;stroke:none;stroke-width:0.8605;stroke-linecap:square;paint-order:fill markers stroke"
       d="M 15.18798,2.9209573 C 12.465193,2.9294721 10.147228,5.0107297 9.1779331,7.4270263 8.174317,7.6251182 7.2534321,8.1963089 6.6321497,9.0029634 4.7596524,9.4998207 3.4439495,11.4041 3.6630667,13.31699 c 0.026795,3.753689 -0.053497,7.512953 0.039931,11.263195 0.2751293,2.169617 2.5167601,3.66445 4.6479021,3.460726 4.7318782,-0.0224 9.4671102,0.04482 14.1968892,-0.03365 1.153687,-0.122974 2.247419,-0.724827 2.953108,-1.641271 1.872988,-0.499065 3.187189,-2.402646 2.969083,-4.316007 -0.02679,-3.753688 0.0535,-7.512952 -0.03993,-11.263195 -0.274214,-2.1696621 -2.514819,-3.6654445 -4.645906,-3.4607251 -0.875351,0 -1.7507,0 -2.626052,0 -0.891446,-2.4424533 -3.30474,-4.3786743 -5.970115,-4.4051016 z" />
    <rect
       style="fill:#ffc500;fill-opacity:1;stroke:#000000;stroke-width:0.845303;stroke-linecap:square;paint-order:fill markers stroke"
       id="rect88151"
       width="18.137169"
       height="14.973098"
       x="7.89293"
       y="9.2638416"
       ry="1.9483393"
       rx="2.1845014" />
    <rect
       style="fill:#ffff00;stroke:#000000;stroke-width:0.845304;stroke-linecap:square;paint-order:fill markers stroke"
       id="rect88151-6"
       width="18.137167"
       height="14.973098"
       x="5.5608802"
       y="11.132519"
       ry="1.9483393"
       rx="2.1845014" />
    <path
       style="fill:none;fill-opacity:1;stroke:#000000;stroke-width:1.18791;stroke-linecap:square;stroke-dasharray:none;paint-order:fill markers stroke"
       d="m 10.274198,12.456677 c 0.0088,-1.112423 0.01753,-2.2264 0.304078,-3.2635915 0.286544,-1.0371918 0.851052,-1.9963318 1.615317,-2.7110997 0.764264,-0.7147679 1.727137,-1.18427 2.715484,-1.1583562 0.988348,0.025914 2.000796,0.5457779 2.731612,1.2532284 0.730817,0.7074505 1.180976,1.6014624 1.394465,2.6033234 0.213489,1.0018606 0.19132,2.1119056 0.169181,3.2204016"
       id="path89422" />
  </g>
</svg>
