<?xml version="1.0" encoding="UTF-8" standalone="no"?>
<!-- Created with Inkscape (http://www.inkscape.org/) -->

<svg
   width="32.0px"
   height="32.0px"
   viewBox="0 0 32.0 32.0"
   version="1.1"
   id="SVGRoot"
   xmlns="http://www.w3.org/2000/svg"
   xmlns:svg="http://www.w3.org/2000/svg">
  <defs
     id="defs9257" />
  <g
     id="layer1">
    <path
       style="fill:#390000;stroke-width:0.9;fill-opacity:1;stroke:#ffffff;stroke-dasharray:none"
       d="m 15.986634,0.98460388 c -2.069234,0 -3.746709,1.58510482 -3.746709,3.54034592 0,1.9552288 1.677475,3.5403582 3.746709,3.5403582 2.069247,0 3.746722,-1.5851294 3.746722,-3.5403582 0,-1.9552411 -1.677475,-3.54034592 -3.746722,-3.54034592 z"
       id="path9418" />
    <path
       style="fill:#7b0000;stroke-width:0.9;fill-opacity:1;stroke:#ffffff;stroke-dasharray:none"
       d="M 11.169454,9.7470598 C 9.4428426,9.7471213 7.422679,11.769485 7.422679,14.804062 v 7.080667 h 2.5450148 v -7.600517 c 0,-1.2189 1.2881472,-1.416187 1.7915352,-1.416187 v 9.016704 h 8.454823 v -9.016704 c 0.508611,0 1.709637,0.204216 1.791536,1.416187 v 7.600517 h 2.545014 v -7.080667 c 0,-3.034577 -2.020163,-5.0577639 -3.746708,-5.0576534 z"
       id="path9416" />
    <path
       style="fill:#0000ff;stroke:#ffffff;stroke-width:0.952098;stroke-dasharray:none"
       d="m 4.561408,23.147132 c -0.9112588,0 -2.2587213,0.822017 -3.5009361,1.476373 l -0.034531,4.596836 c 1.3034649,-0.662661 2.7001249,-1.537269 3.535441,-1.537269 1.4294982,0 4.1563153,2.268045 5.6698091,2.268045 1.348049,0 4.230498,-2.268045 5.669876,-2.268045 1.42943,0 4.313932,2.268045 5.669795,2.268045 1.429498,0 4.32444,-2.268045 5.669809,-2.268045 0.842062,0 2.291172,0.888437 3.60805,1.553206 l 0.09853,-4.589384 c -1.281973,-0.679783 -2.773067,-1.555176 -3.706565,-1.499762 -1.355863,0 -4.153955,2.267962 -5.669876,2.267962 -1.261306,0 -4.240296,-2.267962 -5.669794,-2.267962 -1.429499,0 -4.405768,2.267962 -5.669877,2.267962 -1.3479818,0 -4.1562479,-2.267962 -5.6698085,-2.267962 z"
       id="path7187" />
  </g>
</svg>
