<?xml version="1.0" encoding="UTF-8" standalone="no"?>
<!-- Created with Inkscape (http://www.inkscape.org/) -->

<svg
   width="24"
   height="32"
   viewBox="0 0 24 32"
   version="1.1"
   id="SVGRoot"
   xmlns="http://www.w3.org/2000/svg"
   xmlns:svg="http://www.w3.org/2000/svg">
  <defs
     id="defs19028" />
  <g
     id="layer1">
    <path
       id="path1578-8"
       style="color:#000000;fill:#ffffff;stroke:#ffccaa;stroke-width:0;stroke-dasharray:none;stroke-opacity:1"
       d="M 11.592852,1.4856025 C 7.7577817,1.5923682 4.1615593,4.4183651 3.225275,8.2028662 2.5781071,10.637505 3.0420683,13.335679 4.4497529,15.413852 c -1.1755613,1.342188 -1.985508,3.133974 -1.6761214,4.956632 0.043089,1.51094 0.8408844,2.899484 2.0448342,3.773815 1.2339152,1.127786 2.9754289,1.274583 4.553501,1.454219 -0.9583723,0.300827 -1.8585781,0.502764 -2.8779614,0.784685 -0.6869927,0.05115 -1.2021185,0.476804 -1.6441787,0.981852 -1.0182223,0.979966 -2.0364446,1.959932 -3.0546668,2.939898 1.693082,-0.01324 3.386164,-0.02648 5.0792461,-0.03973 -0.060513,0.02683 0.9173471,-0.04571 1.2828798,-0.0581 2.8294173,-0.165389 5.8978043,-0.396962 8.1857913,-2.289445 1.377452,-0.944504 1.970287,-2.758761 1.532935,-4.365938 -0.324731,-1.959868 -2.267403,-3.03956 -4.026104,-3.441851 -0.646865,-0.174909 -1.304195,-0.30249 -1.952339,-0.471973 0.182561,-0.451531 0.905504,-0.122542 1.31503,-0.302381 3.820935,-0.451391 7.157549,-3.626571 7.714325,-7.498801 C 21.57786,8.082034 19.490742,4.1076252 16.109577,2.4642018 14.720206,1.7532654 13.147196,1.4206385 11.592852,1.4856025 Z" />
    <path
       id="path1578"
       style="color:#000000;fill:#3f64f6;stroke:#ffccaa;stroke-width:0;stroke-dasharray:none;stroke-opacity:1"
       d="M 11.957031 3.0644531 C 9.9800414 3.0644531 8.0834795 3.8293258 6.6855469 5.1914062 C 5.2875603 6.5535083 4.5019531 8.4018505 4.5019531 10.328125 C 4.5019531 12.254249 5.2877623 14.100797 6.6855469 15.462891 C 5.7469498 16.65244 4.0972214 18.112539 4.2851562 19.921875 C 4.3770362 21.905236 4.8445156 22.15752 5.8984375 23.060547 C 7.4572299 24.39616 12.23171 23.563358 12.482422 25.109375 C 12.871421 27.508146 9.7558932 27.866811 6.3378906 28.818359 C 7.2329237 28.705139 12.05729 28.783636 14.271484 27.462891 C 15.960354 26.421342 16.58996 25.851758 16.068359 23.929688 C 15.064067 21.506649 9.3349093 22.382525 9.640625 20.326172 C 9.9838817 18.754919 10.441467 18.1406 10.832031 17.507812 C 11.201673 17.562722 11.578526 17.591797 11.957031 17.591797 C 13.93402 17.591797 15.828577 16.82496 17.226562 15.462891 C 18.624494 14.100768 19.410156 12.254397 19.410156 10.328125 C 19.410156 8.4018505 18.624494 6.5535083 17.226562 5.1914062 C 15.828577 3.8293268 13.93402 3.0644531 11.957031 3.0644531 z M 6.3378906 28.818359 C 6.2454407 28.830059 6.1807545 28.841835 6.1796875 28.859375 C 6.2331174 28.844235 6.2845957 28.833189 6.3378906 28.818359 z M 11.972656 5.9960938 A 4.2529273 4.2903986 0 0 1 16.224609 10.285156 A 4.2529273 4.2903986 0 0 1 11.972656 14.576172 A 4.2529273 4.2903986 0 0 1 7.71875 10.285156 A 4.2529273 4.2903986 0 0 1 11.972656 5.9960938 z " />
  </g>
</svg>
