<?xml version="1.0" encoding="UTF-8" standalone="no"?>
<!-- Created with Inkscape (http://www.inkscape.org/) -->

<svg
   width="24"
   height="32"
   viewBox="0 0 24 32"
   version="1.1"
   id="SVGRoot"
   xmlns="http://www.w3.org/2000/svg"
   xmlns:svg="http://www.w3.org/2000/svg">
  <defs
     id="defs19028" />
  <g
     id="layer1">
    <path
       id="path1578-8"
       style="color:#000000;fill:#ffffff;stroke:#ffccaa;stroke-width:0;stroke-dasharray:none;stroke-opacity:1"
       d="M 11.592852,1.4856025 C 7.7577817,1.5923682 4.1615593,4.4183651 3.225275,8.2028662 2.5781071,10.637505 3.0420683,13.335679 4.4497529,15.413852 c -1.1755613,1.342188 -1.985508,3.133974 -1.6761214,4.956632 0.043089,1.51094 0.8408844,2.899484 2.0448342,3.773815 1.2339152,1.127786 2.9754289,1.274583 4.553501,1.454219 -0.9583723,0.300827 -1.8585781,0.502764 -2.8779614,0.784685 -0.6869927,0.05115 -1.2021185,0.476804 -1.6441787,0.981852 -1.0182223,0.979966 -2.0364446,1.959932 -3.0546668,2.939898 1.693082,-0.01324 3.386164,-0.02648 5.0792461,-0.03973 -0.060513,0.02683 0.9173471,-0.04571 1.2828798,-0.0581 2.8294173,-0.165389 5.8978043,-0.396962 8.1857913,-2.289445 1.377452,-0.944504 1.970287,-2.758761 1.532935,-4.365938 -0.324731,-1.959868 -2.267403,-3.03956 -4.026104,-3.441851 -0.646865,-0.174909 -1.304195,-0.30249 -1.952339,-0.471973 0.182561,-0.451531 0.905504,-0.122542 1.31503,-0.302381 3.820935,-0.451391 7.157549,-3.626571 7.714325,-7.498801 C 21.57786,8.082034 19.490742,4.1076252 16.109577,2.4642018 14.720206,1.7532654 13.147196,1.4206385 11.592852,1.4856025 Z" />
    <path
       style="color:#000000;fill:#3f64f6;stroke:#ffccaa;stroke-width:0;stroke-dasharray:none;stroke-opacity:1"
       d="m 11.956154,3.0649818 c -1.9769918,0 -3.8729618,0.7652552 -5.2708958,2.127337 -1.397988,1.3621034 -2.183348,3.2094028 -2.183348,5.1356792 0,1.926126 0.78524,3.773373 2.183026,5.135468 -0.938598,1.189551 -2.587091,2.649008 -2.399156,4.458346 0.09188,1.983363 0.559313,2.235854 1.613236,3.138882 1.558794,1.335614 6.3332028,0.503475 6.5839148,2.049494 0.389,2.398773 -2.7266578,2.75602 -6.1446638,3.707569 0.895034,-0.11322 5.7191888,-0.03486 7.9333858,-1.355607 1.688871,-1.04155 2.317633,-1.61001 1.796032,-3.532082 -1.004293,-2.423041 -6.7332838,-1.547912 -6.4275678,-3.604267 0.343257,-1.571254 0.8019148,-2.185397 1.1924798,-2.818185 0.369642,0.05491 0.745051,0.0835 1.123557,0.0835 1.976991,0 3.873014,-0.765266 5.271001,-2.127337 1.397933,-1.362124 2.183348,-3.209508 2.183348,-5.135782 0,-1.9262764 -0.785415,-3.7735758 -2.183348,-5.1356792 -1.397987,-1.3620808 -3.29401,-2.127336 -5.271001,-2.127336 z M 6.3382672,28.817757 c -0.09245,0.0117 -0.156891,0.02478 -0.157958,0.04232 0.05343,-0.01514 0.104663,-0.02749 0.157958,-0.04232 z"
       id="path1578" />
  </g>
</svg>
