<?xml version="1.0" encoding="UTF-8" standalone="no"?>
<svg
   width="580"
   height="580"
   viewBox="0 0 580 580"
   fill="none"
   version="1.1"
   id="svg6"
   xmlns:xlink="http://www.w3.org/1999/xlink"
   xmlns="http://www.w3.org/2000/svg"
   xmlns:svg="http://www.w3.org/2000/svg">
  <defs
     id="defs10">
    <linearGradient
       id="linearGradient9808">
      <stop
         style="stop-color:#3f64f6;stop-opacity:1;"
         offset="0"
         id="stop9804" />
      <stop
         style="stop-color:#ffffff;stop-opacity:0.49803922;"
         offset="0.99839222"
         id="stop10540" />
      <stop
         style="stop-color:#ffffff;stop-opacity:0;"
         offset="1"
         id="stop9806" />
    </linearGradient>
    <radialGradient
       xlink:href="#linearGradient9808"
       id="radialGradient9810"
       cx="211.46902"
       cy="186.83186"
       fx="211.46902"
       fy="186.83186"
       r="91.241791"
       gradientTransform="matrix(1.0956323,0,0,1.1068833,44.962567,-20.482467)"
       gradientUnits="userSpaceOnUse" />
  </defs>
  <g
     id="path2"
     style="stroke:#ffffff;stroke-width:32;stroke-dasharray:none;stroke-opacity:1"
     transform="translate(-76.601771,11.946902)">
    <path
       style="color:#000000;fill:#3f64f6;stroke:#ffffff;stroke-width:32;stroke-dasharray:none;stroke-opacity:1"
       d="m 352.27344,39.375 c -35.90997,0 -70.34826,14.266029 -95.74024,39.658203 -25.39297,25.392577 -39.6582,59.830267 -39.6582,95.740237 0,35.90719 14.26304,70.34391 39.65234,95.73633 -17.04864,22.17581 -46.99177,49.38329 -43.57812,83.11328 1.66887,36.97422 10.15932,41.68119 29.30273,58.51562 28.31384,24.89878 115.03593,9.38587 119.58985,38.20703 7.06577,44.71837 -49.52687,51.37824 -111.61133,69.11719 16.25735,-2.11069 103.88302,-0.64984 144.10156,-25.27148 30.67658,-19.41674 42.09737,-30.01409 32.62305,-65.84571 -18.24195,-45.17076 -122.303,-28.85644 -116.75,-67.1914 6.2349,-29.2916 14.56594,-40.74057 21.66015,-52.53711 6.71415,1.02374 13.53306,1.55664 20.40821,1.55664 35.90996,0 70.34921,-14.26623 95.74218,-39.65821 25.39198,-25.39297 39.65821,-59.83222 39.65821,-95.74218 0,-35.90997 -14.26623,-70.34766 -39.65821,-95.740237 C 422.62265,53.641029 388.1834,39.375 352.27344,39.375 Z M 250.23047,519.46289 c -1.67932,0.21803 -2.84976,0.46184 -2.86914,0.78906 0.97052,-0.28219 1.90109,-0.51246 2.86914,-0.78906 z"
       id="path1578" />
  </g>
  <ellipse
     style="fill:url(#radialGradient9810);fill-opacity:1;stroke:none;stroke-width:1.38347;stroke-linecap:square;paint-order:markers fill stroke"
     id="path8327"
     cx="276.65488"
     cy="186.31859"
     rx="99.967445"
     ry="100.994" />
</svg>
