<?xml version="1.0" encoding="UTF-8" standalone="no"?>
<!-- Created with Inkscape (http://www.inkscape.org/) -->

<svg
   width="32.0px"
   height="32.0px"
   viewBox="0 0 32.0 32.0"
   version="1.1"
   id="SVGRoot"
   xmlns="http://www.w3.org/2000/svg"
   xmlns:svg="http://www.w3.org/2000/svg">
  <defs
     id="defs5385" />
  <g
     id="layer1">
    <path
       d="m 16.621551,1.1538383 c -1.404793,0 -2.116012,0.8067099 -1.975535,2.4346811 0,0.3488476 0.166823,0.4724041 0.307365,0.4724041 0.140471,0.6976951 0.526753,0.9157248 0.526753,1.3808289 0,0.3488863 -0.280947,0.4942557 -1.404793,0.7268077 -0.702364,0.2325521 -1.510129,0.9011829 -1.931619,1.5989071 -0.561894,1.0465527 -1.141351,2.1075884 -1.141351,2.6890268 0,0.58139 1.562841,1.627932 2.546144,2.325657 0,0 -0.316081,1.627932 0.526826,4.651313 0.14047,2.441932 0.702429,5.000199 0.702429,6.977018 h 3.51195 c 0,-1.976819 0.561968,-4.535086 0.702437,-6.977018 0.842834,-3.023381 0.570676,-4.651313 0.570676,-4.651313 1.123847,-0.697725 2.677898,-1.744267 2.677898,-2.325657 0,-0.5814384 -0.579457,-1.6134489 -1.141417,-2.5437254 -0.421417,-0.8139419 -1.229189,-1.5189273 -1.931545,-1.6352034 -0.983384,-0.3488281 -1.4048,-0.3415571 -1.4048,-0.6904532 0,-0.4651041 0.386282,-0.6031929 0.526751,-1.4171833 0.140478,-0.116276 0.3073,-0.2398327 0.3073,-0.4723944 0.140469,-1.7442473 -0.570676,-2.543696 -1.975469,-2.543696 z M 12.407171,25.57331 c -0.702437,0 -1.4048,0.465114 -1.4048,1.162828 v 1.162828 h 11.23836 v -1.162828 c 0,-0.697714 -0.561886,-1.162828 -1.404793,-1.162828 z m -1.668242,3.488486 c -1.4048008,0 -2.5461443,0.944817 -2.5461443,2.107646 v 0.21801 H 25.050318 v -0.21801 c 0,-1.162829 -1.132562,-2.107646 -2.677899,-2.107646 z"
       fill="white"
       id="path4534"
       style="fill:#2b1100;stroke:#ffffff;stroke-width:0.6;stroke-dasharray:none" />
  </g>
</svg>
