<?xml version="1.0" encoding="UTF-8" standalone="no"?>
<!-- Created with Inkscape (http://www.inkscape.org/) -->

<svg
   width="32.0px"
   height="32.0px"
   viewBox="0 0 32.0 32.0"
   version="1.1"
   id="SVGRoot"
   xmlns="http://www.w3.org/2000/svg"
   xmlns:svg="http://www.w3.org/2000/svg">
  <defs
     id="defs45659" />
  <g
     id="layer1">
    <path
       d="m 30.318164,3.7315201 -2.89831,1.5957014 -3.714478,15.3691145 v 3.256173 H 6.7600952"
       id="path2492"
       fill="none"
       fill-rule="evenodd"
       stroke="#ffffff"
       stroke-linejoin="round"
       stroke-linecap="round"
       stroke-width="1.62884"
       style="stroke:#333333" />
    <path
       d="M 26.816996,7.9294783 H 2.011614 l 2.913471,11.0474267 18.743424,2.538738 z"
       id="path3264"
       fill="none"
       fill-rule="evenodd"
       stroke="#ffffff"
       stroke-linejoin="round"
       stroke-linecap="round"
       stroke-width="1.62884"
       style="fill:#ffff00;fill-opacity:1;stroke:#333333" />
    <path
       id="path3268"
       d="M 6.2275819,7.9955067 V 18.110806"
       fill="none"
       fill-rule="evenodd"
       stroke="#ffffff"
       stroke-linecap="round"
       stroke-width="1.08601"
       style="stroke:#333333" />
    <path
       d="M 3.7847779,12.399399 H 24.829787"
       id="path3280"
       fill="none"
       fill-rule="evenodd"
       stroke="#ffffff"
       stroke-linecap="round"
       stroke-width="1.08601"
       style="stroke:#333333" />
    <path
       d="m 8.6457171,25.943637 a 1.8576339,1.8873962 0 0 1 -1.8580046,1.88693 1.8576339,1.8873962 0 0 1 -1.8572629,-1.887683 1.8576339,1.8873962 0 0 1 1.8578285,-1.887109 1.8576339,1.8873962 0 0 1 1.8574391,1.887504"
       id="path3284"
       fill="none"
       stroke="#ffffff"
       stroke-linejoin="round"
       stroke-linecap="round"
       stroke-width="1.28455"
       style="stroke:#333333" />
    <path
       d="m 23.016075,26.057632 a 1.8576339,1.8873962 0 0 1 -1.858005,1.88693 1.8576339,1.8873962 0 0 1 -1.857263,-1.887684 1.8576339,1.8873962 0 0 1 1.857828,-1.887109 1.8576339,1.8873962 0 0 1 1.85744,1.887504"
       id="path3316"
       fill="none"
       stroke="#ffffff"
       stroke-linejoin="round"
       stroke-linecap="round"
       stroke-width="1.28455"
       style="stroke:#333333" />
    <path
       d="M 11.335848,7.9955067 V 19.253236"
       id="path3318"
       fill="none"
       fill-rule="evenodd"
       stroke="#ffffff"
       stroke-linecap="round"
       stroke-width="1.08601"
       style="fill:#ff2a2a;stroke:#333333" />
    <path
       id="path3320"
       d="M 16.678752,7.9955067 V 19.760982"
       fill="none"
       fill-rule="evenodd"
       stroke="#ffffff"
       stroke-linecap="round"
       stroke-width="1.08601"
       style="fill:#ff2a2a;stroke:#333333" />
    <path
       d="M 21.904338,7.9955067 V 20.522609"
       id="path3322"
       fill="none"
       fill-rule="evenodd"
       stroke="#ffffff"
       stroke-linecap="round"
       stroke-width="1.08601"
       style="fill:#ff2a2a;stroke:#333333" />
    <path
       id="path3324"
       d="M 4.8298943,16.906913 H 23.784671"
       fill="none"
       fill-rule="evenodd"
       stroke="#ffffff"
       stroke-linecap="round"
       stroke-width="1.08601"
       style="fill:#ff2a2a;stroke:#333333" />
  </g>
</svg>
