<?xml version="1.0" encoding="UTF-8" standalone="no"?>
<!-- Created with Inkscape (http://www.inkscape.org/) -->

<svg
   width="32"
   height="25"
   viewBox="0 0 32 25"
   version="1.1"
   id="SVGRoot"
   xmlns="http://www.w3.org/2000/svg"
   xmlns:svg="http://www.w3.org/2000/svg">
  <defs
     id="defs908" />
  <g
     id="layer1">
    <path
       id="path663-9"
       style="fill:#f9f9f9;fill-opacity:1;stroke-width:0.994754"
       d="m 26.469388,0.18457714 c -0.81603,0.00761 -1.432329,0.6318119 -2.063345,1.03285466 -1.060727,0.1995053 -2.182469,0.1908603 -3.124382,0.7811367 -1.510316,0.7264928 -3.325836,1.3486023 -4.101661,2.976267 -1.712126,2.0721692 -3.358332,4.225324 -5.111375,6.2472245 -0.932942,0.491813 -1.879804,0.908872 -2.7598918,1.296249 -0.7210644,0.312514 -1.3134905,0.580324 -1.973053,0.842034 -1.2803386,0.468388 -2.3775215,1.40544 -3.6373225,1.87697 -1.2995934,-0.01075 -2.3153341,0.931921 -3.54347578,1.2206 -0.16930941,0.776337 -0.0665664,1.752586 -0.1286482,2.605572 -0.0366427,1.795915 0.0187716,3.591441 0.0599167,5.386718 10.61114658,-0.01353 21.22229258,-0.02789 31.83344558,-0.03711 1.21e-4,-2.888021 -0.0013,-5.776042 -0.0039,-8.664063 -0.546397,0.04208 -1.268807,0.254819 -1.710437,0.195313 0.03297,-0.591212 0.321165,-0.849674 0.132351,-1.434054 -0.124583,-1.765956 -0.572383,-3.617931 -1.893037,-4.8764935 -0.96191,-0.978073 -2.249544,-1.622614 -3.602547,-1.800781 0.845701,-0.2774635 1.652698,-0.8073138 2.522169,-0.9296888 1.666672,0.146619 2.89536,-1.641367 2.619321,-3.2126521 -0.155296,-1.1179841 -0.905048,-2.0639605 -1.635547,-2.87133086 -0.493149,-0.4563427 -1.21,-0.7343302 -1.878581,-0.6347656 z M 20.872298,17.071297 c -0.386951,0.487387 -0.701403,1.255562 -1.365007,0.67152 -0.89295,-0.09517 -0.08382,-0.90308 0.004,-1.408927 0.145797,-0.450061 1.039141,0.659768 1.361059,0.737407 z" />
    <path
       style="fill:#f8b4a2;fill-opacity:1;stroke-width:0.999997"
       d="m 28.338108,14.474058 c -0.264732,-2.411214 -2.521902,-4.253492 -5.041636,-4.114887 -2.03266,0.111902 -3.614323,1.478956 -4.01115,3.269058 l -0.212709,0.06388 -0.25735,-2.344277 2.191159,-3.9203158 6.059333,-2.4419954 c 0.914383,0.5661187 1.174579,-0.7187465 0.818111,-1.2576201 L 27.297413,2.8413573 C 26.622265,1.8207344 26.144263,2.7551703 25.283494,3.317073 l -2.549171,0.3947489 c -0.690052,0.3840942 -3.825128,1.5343842 -3.758877,2.3120453 l -5.583584,6.8167358 c 0.02412,0.283298 -5.625202,2.679917 -5.9130214,2.738112 l -3.9100357,2.176236 c -1.1616636,0.947727 0.6615905,1.622427 -0.1981353,1.835626 4.7641382,0.01813 10.0456394,0.01933 15.8420674,0.05321 l 0.162804,-3.190512 0.241061,-0.0724 c 0.803653,1.680794 2.637718,2.82031 4.638411,2.710279 2.519811,-0.138758 4.347905,-2.205844 4.083093,-4.6171 z"
       id="path663" />
    <path
       style="fill:#009a00;fill-opacity:1;stroke-width:0.999996"
       d="m 26.778279,11.018118 c -1.836653,-1.5558085 -4.683983,-1.3364375 -6.359794,0.490021 -0.579332,0.631365 -0.94247,1.372218 -1.094185,2.135539 1.275371,0.317643 4.536155,0.918128 8.905883,0.183665 -0.08852,-1.054293 -0.575389,-2.066899 -1.451904,-2.809225 z"
       id="path665" />
    <path
       fill-rule="evenodd"
       clip-rule="evenodd"
       d="m 29.965694,18.271665 c -0.247398,0.0971 -1.800107,-0.151536 -2.21914,-0.266836 -0.425902,-0.124675 -0.814127,-0.705867 -1.521737,-0.673761 -0.724849,0.03234 -1.748594,0.867491 -2.737775,0.867491 -1.003156,-0.02749 -2.129865,-0.90444 -3.153543,-0.90444 -1.020226,0.0094 -1.947757,0.91811 -2.926684,0.945842 -0.99622,0.0045 -1.988937,-0.848743 -2.964515,-0.867178 -0.9893,-0.03226 -1.927099,0.75672 -2.851179,0.747346 -0.91029,-0.02297 -1.7175659,-0.862804 -2.6210375,-0.82601 -0.92748,0.0464 -1.9443056,0.968965 -2.851179,1.024349 -0.913691,0.01859 -1.7416237,-0.85796 -2.5488309,-0.867413 -0.814076,-0.01843 -1.2527609,0.520039 -1.8023868,0.667759 -0.050914,1.559869 -0.054555,3.225676 -0.013898,4.546842 9.7331852,-0.0062 20.1013752,-0.03579 28.2143052,-0.03309 z"
       fill="white"
       id="path322"
       style="fill:#0077ff;fill-opacity:1;stroke-width:0.801168" />
  </g>
</svg>
