<?xml version="1.0" encoding="UTF-8" standalone="no"?>
<!-- Created with Inkscape (http://www.inkscape.org/) -->

<svg
   width="32.0px"
   height="32.0px"
   viewBox="0 0 32.0 32.0"
   version="1.1"
   id="SVGRoot"
   sodipodi:docname="swimming_pool.svg"
   inkscape:version="1.2.2 (732a01da63, 2022-12-09)"
   xmlns:inkscape="http://www.inkscape.org/namespaces/inkscape"
   xmlns:sodipodi="http://sodipodi.sourceforge.net/DTD/sodipodi-0.dtd"
   xmlns="http://www.w3.org/2000/svg"
   xmlns:svg="http://www.w3.org/2000/svg">
  <sodipodi:namedview
     id="namedview913"
     pagecolor="#ffffff"
     bordercolor="#000000"
     borderopacity="0.25"
     inkscape:showpageshadow="2"
     inkscape:pageopacity="0.0"
     inkscape:pagecheckerboard="0"
     inkscape:deskcolor="#d1d1d1"
     inkscape:document-units="px"
     showgrid="true"
     inkscape:zoom="26.6875"
     inkscape:cx="15.981265"
     inkscape:cy="16"
     inkscape:window-width="1858"
     inkscape:window-height="1057"
     inkscape:window-x="1420"
     inkscape:window-y="-8"
     inkscape:window-maximized="1"
     inkscape:current-layer="layer1">
    <inkscape:grid
       type="xygrid"
       id="grid1036" />
  </sodipodi:namedview>
  <defs
     id="defs908" />
  <g
     inkscape:label="Layer 1"
     inkscape:groupmode="layer"
     id="layer1">
    <path
       id="path663-5"
       style="fill:#ffffff;fill-opacity:1;stroke-width:0.999995"
       d="m 26.290429,3.7625447 c -0.78579,0.011567 -1.3834,0.5944209 -1.991186,0.9757896 -1.024035,0.1899593 -2.106774,0.1828362 -3.016114,0.7410486 -1.463048,0.6897655 -3.221785,1.2800762 -3.971309,2.8260951 -1.651862,1.958257 -3.240385,3.992556 -4.931539,5.903639 -0.899723,0.465299 -1.813572,0.858074 -2.6622835,1.224742 -0.6965048,0.295777 -1.2687531,0.549243 -1.9058503,0.796937 -1.2587421,0.483314 -2.3701714,1.313197 -3.5899784,1.861475 -1.0080907,0.0067 -1.797833,0.684361 -2.5404082,1.264043 -0.5826921,0.245059 -1.09760951,0.530423 -0.89632286,1.241703 -0.0690993,2.989661 -0.0436186,5.980139 0.005429,8.969867 10.25595026,-0.02268 20.51190826,-0.04147 30.76787026,-0.0573 2.73e-4,-3.666232 -0.0024,-7.332463 -0.0019,-10.998695 -0.591175,0.207651 -1.182351,0.415301 -1.773526,0.622952 0.197335,-0.344789 0.05302,-0.961971 0.336036,-1.157174 C 29.925643,16.234577 29.754264,14.33219 28.470139,12.992094 27.523978,11.903215 26.160194,11.18811 24.724137,10.999507 25.540471,10.73785 26.319015,10.23518 27.158534,10.12146 28.768612,10.26294 29.956568,8.5685576 29.68864,7.0808635 29.554785,6.0492638 28.838769,5.1938444 28.180795,4.4299487 27.696804,3.9545309 26.971232,3.6646846 26.290429,3.7625447 Z M 20.773831,19.877942 c -0.333905,0.552552 -0.700855,0.978044 -1.310687,0.469612 -0.725223,0.02821 -0.08412,-1.262354 0.166924,-1.133615 0.381254,0.221334 0.762509,0.442668 1.143763,0.664003 z" />
    <path
       style="fill:#f8b4a2;stroke-width:0.999997;fill-opacity:1"
       d="m 28.487991,16.872184 c -0.264732,-2.411214 -2.521902,-4.253492 -5.041636,-4.114887 -2.03266,0.111902 -3.614323,1.478956 -4.01115,3.269058 l -0.212709,0.06388 -0.25735,-2.344277 2.191159,-3.9203153 6.059333,-2.4419954 C 28.130021,7.949766 28.390217,6.6649008 28.033749,6.1260272 L 27.447296,5.2394838 c -0.675148,-1.0206229 -1.15315,-0.086187 -2.013919,0.4757157 l -2.549171,0.3947489 c -0.690052,0.3840942 -3.825128,1.5343842 -3.758877,2.3120453 l -5.583584,6.8167353 c 0.02412,0.283298 -5.6252021,2.679917 -5.9130215,2.738112 l -3.9100357,2.176236 c -1.1616636,0.947727 0.6615905,1.622427 -0.1981353,1.835626 4.7641382,0.01813 10.0456395,0.01933 15.8420675,0.05321 l 0.162804,-3.190512 0.241061,-0.0724 c 0.803653,1.680794 2.637718,2.82031 4.638411,2.710279 2.519811,-0.138758 4.347905,-2.205844 4.083093,-4.6171 z"
       id="path663"
       sodipodi:nodetypes="sccccccsscccccccccccss" />
    <path
       style="fill:#009a00;stroke-width:0.999996;fill-opacity:1"
       d="m 26.928162,13.416244 c -1.836653,-1.555808 -4.683983,-1.336437 -6.359794,0.490021 -0.579332,0.631365 -0.94247,1.372218 -1.094185,2.135539 1.275371,0.317643 4.536155,0.918128 8.905883,0.183665 -0.08852,-1.054293 -0.575389,-2.066899 -1.451904,-2.809225 z"
       id="path665" />
    <path
       fill-rule="evenodd"
       clip-rule="evenodd"
       d="m 30.115577,21.21586 c -0.247398,0.151275 -1.800107,-0.236084 -2.21914,-0.415716 -0.425902,-0.194236 -0.814127,-1.099699 -1.521737,-1.04968 -0.724849,0.05039 -1.748594,1.351501 -2.737775,1.351501 -1.003156,-0.04284 -2.129865,-1.409065 -3.153543,-1.409065 -1.020226,0.0146 -1.947757,1.430362 -2.926684,1.473567 -0.99622,0.0071 -1.988937,-1.322292 -2.964515,-1.351013 -0.9893,-0.05026 -1.927099,1.178926 -2.851179,1.164322 -0.91029,-0.03578 -1.717566,-1.344199 -2.6210376,-1.286876 -0.92748,0.07229 -1.9443056,1.50959 -2.851179,1.595877 -0.913691,0.02896 -1.7416237,-1.336653 -2.5488309,-1.351379 -0.814076,-0.02872 -1.2527609,0.81019 -1.8023868,1.040328 -0.050914,2.430185 -0.054555,5.025415 -0.013898,7.083714 9.7331856,-0.0097 20.1013756,-0.05575 28.2143056,-0.05155 z"
       fill="white"
       id="path322"
       style="fill:#0000ff;stroke-width:0.999997"
       sodipodi:nodetypes="ccccccccccccccc" />
  </g>
</svg>
