<?xml version="1.0" encoding="UTF-8" standalone="no"?>
<!-- Created with Inkscape (http://www.inkscape.org/) -->

<svg
   width="27"
   height="29"
   viewBox="0 0 27 29"
   version="1.1"
   id="SVGRoot"
   xmlns="http://www.w3.org/2000/svg"
   xmlns:svg="http://www.w3.org/2000/svg">
  <defs
     id="defs632" />
  <g
     id="layer1">
    <path
       id="path12192-0"
       style="fill:#ffffff;fill-opacity:1;stroke:none;stroke-width:0.4;stroke-dasharray:none;paint-order:fill markers stroke"
       d="m 21.652194,0.6042027 c -0.805167,0.058202 -1.278651,0.7961523 -1.657056,1.382049 -1.433953,0.7455379 -2.127404,2.0201164 -2.07864,3.6987025 0.05774,0.522511 0.868621,1.0749645 1.116228,1.5449976 C 18.616159,7.6662385 18.599023,9.435987 18.592885,11.15045 17.234102,10.000078 14.754272,7.9486063 13.469431,6.9731005 12.460355,7.8555119 9.4663225,10.312741 8.4582825,11.196246 8.4539526,9.786226 8.2996115,8.3013424 8.182957,7.1535631 8.927951,5.7425469 9.5990497,4.1544611 8.3864237,3.0097926 8.001698,2.4937762 7.3077942,2.2608382 6.9229634,1.7892241 6.5166879,0.8870352 5.4099645,0.34894736 4.4287918,0.6846913 3.6978923,0.8236929 3.3528765,1.5677874 2.9362178,2.0561607 1.525834,2.8016077 0.38669211,4.2563567 0.61745749,5.8706879 0.67476581,6.3925051 0.81208761,6.9064895 1.0573507,7.3764224 0.81614451,9.0439756 0.62175016,9.490434 0.75725382,10.46497 c 0.00687,6.036082 7.067e-5,12.072166 0,18.108249 C 9.2653315,28.485937 17.773892,28.516065 26.282261,28.524827 V 8.982543 C 26.462611,8.4191609 26.247168,7.8112981 26.004531,7.3101019 26.712315,5.9090616 26.57685,4.0994972 25.385699,2.9739418 25.001806,2.4575357 24.305341,2.2257947 23.923569,1.7527507 23.539802,0.9360394 22.581919,0.36420096 21.652194,0.6042027 Z" />
    <path
       style="fill:#ffffd5;fill-opacity:1;stroke:#000000;stroke-width:0.4;stroke-dasharray:none;paint-order:fill markers stroke"
       d="M 7.0385356,27.310617 V 14.419121 L 13.46457,8.5653004 19.971946,14.455707 v 12.85491 z"
       id="path12192" />
    <path
       id="rect8119-4-0"
       style="fill:#ffffd5;fill-opacity:1;stroke:#000000;stroke-width:0.4;stroke-dasharray:none;paint-order:fill markers stroke"
       d="m 2.0403255,8.6588439 c 0.017718,2.0175711 -0.00756,12.9516721 0,18.7246471 H 6.9718864 V 8.6588439 c -0.9141945,-0.017551 -4.0734031,-0.012112 -4.9315609,0 z" />
    <path
       style="fill:#3d2923;fill-opacity:1;stroke:none;stroke-width:0.399999;paint-order:fill markers stroke"
       d="M 1.831129,8.5438007 2.3281071,7.2136474 C 1.7793299,6.5804031 1.229506,6.052179 1.2814075,5.0049113 1.2429766,4.0955886 2.4750249,3.3096218 3.459532,2.9079635 3.9332175,2.7147097 4.2228748,1.7844011 4.4524634,1.7967501 c 0.2633732,-0.00786 0.4080817,0.8775015 0.9943131,1.0953434 0.8150232,0.2922312 2.125613,1.1765746 2.1292039,2.131814 0.029829,0.901701 -0.5411559,1.7295107 -1.0099748,2.2416573 L 7.050129,8.5438007 Z"
       id="path8159" />
    <path
       id="rect8119-4-0-1"
       style="fill:#ffffd5;fill-opacity:1;stroke:#000000;stroke-width:0.4;stroke-dasharray:none;paint-order:fill markers stroke"
       d="m 20.054562,8.7323747 c 0.01772,2.0054663 -0.0076,12.8739643 0,18.6123023 h 4.931561 V 8.7323747 c -0.914195,-0.017446 -4.073404,-0.012039 -4.931561,0 z" />
    <path
       style="fill:#992200;fill-opacity:1;stroke:#dc8d00;stroke-width:0.5;stroke-dasharray:none;stroke-opacity:1;paint-order:fill markers stroke"
       d="m 20.198685,11.839882 4.554528,-7.68e-4"
       id="path25186" />
    <path
       style="fill:#992200;fill-opacity:1;stroke:#dc8d00;stroke-width:0.5;stroke-dasharray:none;stroke-opacity:1;paint-order:fill markers stroke"
       d="M 2.2484394,11.836098 6.8029678,11.83533"
       id="path25186-0" />
    <path
       style="fill:#992200;fill-opacity:1;stroke:#dc8d00;stroke-width:0.5;stroke-dasharray:none;stroke-opacity:1;paint-order:fill markers stroke"
       d="M 2.2002131,23.807076 24.786003,23.806307"
       id="path25186-08" />
    <path
       style="fill:#554400;stroke:none;stroke-width:0.4;stroke-dasharray:none;paint-order:fill markers stroke"
       d="m 8.6916538,27.190787 v -3.068635 c 0.0068,-1.090273 0.59848,-1.56754 1.288695,-1.613585 0.7176962,0.01726 1.2457262,0.382002 1.2747712,1.497608 l 0.01393,3.184612 z"
       id="path15175-4" />
    <path
       style="fill:#554400;stroke:none;stroke-width:0.4;stroke-dasharray:none;paint-order:fill markers stroke"
       d="m 12.245856,27.13655 v -3.068635 c 0.0068,-1.090272 0.59848,-1.56754 1.288695,-1.613585 0.717696,0.01726 1.245726,0.382002 1.274771,1.497608 l 0.01393,3.184612 z"
       id="path15175-4-2" />
    <path
       style="fill:#554400;stroke:none;stroke-width:0.4;stroke-dasharray:none;paint-order:fill markers stroke"
       d="m 15.853225,27.190787 v -3.068635 c 0.0068,-1.090273 0.59848,-1.56754 1.288695,-1.613585 0.717696,0.01726 1.245726,0.382002 1.274771,1.497608 l 0.01393,3.184612 z"
       id="path15175-4-0" />
    <path
       style="fill:#992200;fill-opacity:1;stroke:#dc8d00;stroke-width:0.5;stroke-dasharray:none;stroke-opacity:1;paint-order:fill markers stroke"
       d="M 2.2286136,20.80052 24.814404,20.799751"
       id="path25186-08-0" />
    <path
       style="fill:#992200;fill-opacity:1;stroke:#dc8d00;stroke-width:0.5;stroke-dasharray:none;stroke-opacity:1;paint-order:fill markers stroke"
       d="m 2.125645,17.829496 22.58579,-7.69e-4"
       id="path25186-08-5" />
    <path
       style="fill:#992200;fill-opacity:1;stroke:#dc8d00;stroke-width:0.5;stroke-dasharray:none;stroke-opacity:1;paint-order:fill markers stroke"
       d="M 2.2485777,14.696365 24.834368,14.695596"
       id="path25186-08-5-9" />
    <path
       style="fill:none;fill-opacity:1;stroke:#0000ff;stroke-width:0.8;stroke-dasharray:none;stroke-opacity:1;paint-order:fill markers stroke"
       d="m 10.497229,18.303293 3.084603,-5.540517 2.858902,5.540268 z"
       id="path19224" />
    <path
       style="fill:none;fill-opacity:1;stroke:#0000ff;stroke-width:0.8;stroke-dasharray:none;stroke-opacity:1;paint-order:fill markers stroke"
       d="m 10.510621,14.680878 3.084603,5.540518 2.858902,-5.540269 z"
       id="path19224-8" />
    <path
       style="fill:#666666;stroke:none;stroke-width:0.4;stroke-dasharray:none;paint-order:fill markers stroke"
       d="m 3.6657322,20.591942 v -2.070158 c 0.00461,-0.735517 0.405518,-1.057491 0.8731939,-1.088554 0.4862964,0.01164 0.8440789,0.257706 0.8637593,1.010314 l 0.00944,2.148398 z"
       id="path15175-4-2-7" />
    <path
       style="fill:#666666;stroke:none;stroke-width:0.4;stroke-dasharray:none;paint-order:fill markers stroke"
       d="m 21.716989,20.615026 v -2.070158 c 0.0046,-0.735517 0.405518,-1.057491 0.873194,-1.088554 0.486296,0.01164 0.844079,0.257706 0.863759,1.010314 l 0.0094,2.148398 z"
       id="path15175-4-2-7-3" />
    <path
       style="fill:#666666;stroke:none;stroke-width:0.4;stroke-dasharray:none;paint-order:fill markers stroke"
       d="m 22.017072,12.720486 v -2.070158 c 0.0023,-0.735517 0.201837,-1.057491 0.43461,-1.088554 0.242042,0.01164 0.420119,0.257706 0.429914,1.010314 l 0.0047,2.148398 z"
       id="path15175-4-2-7-7-2" />
    <path
       style="fill:#666666;stroke:none;stroke-width:0.4;stroke-dasharray:none;paint-order:fill markers stroke"
       d="m 3.8273152,12.581985 v -2.070158 c 0.0023,-0.735517 0.201837,-1.057491 0.43461,-1.088554 0.242042,0.01164 0.420119,0.257706 0.429914,1.010314 l 0.0047,2.148398 z"
       id="path15175-4-2-7-7-2-6" />
    <path
       style="fill:#3d2923;fill-opacity:1;stroke:none;stroke-width:0.399999;paint-order:fill markers stroke"
       d="m 19.923129,8.5938007 0.496978,-1.3301532 c -0.548777,-0.6332443 -1.098601,-1.1614684 -1.0467,-2.2087361 -0.03843,-0.9093227 1.193618,-1.6952895 2.178125,-2.0969478 0.473685,-0.1932538 0.763343,-1.1235625 0.992931,-1.1112135 0.263374,-0.00786 0.408082,0.8775016 0.994314,1.0953435 0.815023,0.2922312 2.125612,1.1765746 2.129203,2.131814 0.02983,0.901701 -0.541156,1.7295107 -1.009974,2.2416571 l 0.484123,1.278236 z"
       id="path8159-9" />
  </g>
</svg>
