<?xml version="1.0" encoding="UTF-8" standalone="no"?>
<!-- Created with Inkscape (http://www.inkscape.org/) -->

<svg
   width="32.0px"
   height="32.0px"
   viewBox="0 0 32.0 32.0"
   version="1.1"
   id="SVGRoot"
   xmlns="http://www.w3.org/2000/svg"
   xmlns:svg="http://www.w3.org/2000/svg">
  <defs
     id="defs2983" />
  <g
     id="layer1">
    <g
       id="g3514"
       transform="matrix(0.0605646,0,0,0.06029609,0.48071794,0.38215043)"
       style="stroke-width:25.8563">
	<path
   class="st0"
   d="m 332.139,245.212 c 0.862,-5.635 1.321,-11.408 1.369,-17.308 l -13.394,-13.397 11.284,-11.284 c -0.888,-5.084 -2.036,-10.161 -3.47,-15.217 l -17.154,17.161 -34.986,-34.99 29.964,-29.956 c -2.44,-3.706 -5.033,-7.344 -7.755,-10.925 l -31.552,31.541 -37.227,-37.227 32.088,-32.084 c -3.456,-2.847 -6.944,-5.605 -10.481,-8.202 L 219.878,114.271 184.148,78.54 204.9,57.792 c -4.674,-1.82 -9.333,-3.375 -13.973,-4.71 L 174.807,69.2 153.199,47.592 c -5.876,0.044 -11.636,0.521 -17.249,1.431 L 165.463,78.539 126.225,117.777 83.18,74.74 c -1.456,1.321 -2.905,2.67 -4.332,4.094 -1.732,1.738 -3.379,3.507 -4.964,5.29 l 43.002,43.001 -39.238,39.238 -28.826,-28.834 c -0.848,5.701 -1.288,11.512 -1.225,17.462 l 20.708,20.705 -15.231,15.231 c 1.335,4.652 2.905,9.318 4.711,13.977 l 19.864,-19.861 35.727,35.731 -30.03,30.022 c 2.605,3.551 5.319,7.058 8.173,10.514 l 31.2,-31.197 37.228,37.228 -30.661,30.661 c 3.588,2.722 7.23,5.312 10.936,7.747 l 29.065,-29.068 34.986,34.982 -16.266,16.266 c 5.081,1.446 10.154,2.605 15.194,3.492 l 10.411,-10.411 12.51,12.509 c 5.95,0.029 11.801,-0.359 17.531,-1.159 l -20.697,-20.698 39.238,-39.237 35.782,35.789 c 1.827,-1.577 3.617,-3.198 5.338,-4.915 1.409,-1.416 2.77,-2.862 4.087,-4.344 l -35.866,-35.862 39.241,-39.245 z m -75.034,-75.034 -39.238,39.245 -37.231,-37.234 39.241,-39.23 z m -82.298,-82.291 35.727,35.724 -39.238,39.237 -35.73,-35.724 z m -87.819,87.808 39.237,-39.238 35.731,35.731 -39.238,39.237 z m 45.07,45.071 39.238,-39.23 37.228,37.227 L 169.289,258 Z m 81.557,81.563 -34.986,-34.989 39.238,-39.237 34.986,34.989 z m 48.578,-48.585 -34.986,-34.982 39.238,-39.238 34.986,34.983 z"
   id="path3510"
   style="fill:#4d4d4d;stroke-width:25.8563" />

	<path
   class="st0"
   d="m 505.777,461.276 c -2.105,-2.106 -11.115,-10.917 -21.507,-21.093 -14.476,-14.168 -23.754,-23.096 -29.091,-28.431 -1.009,-1.013 -2.007,-2.025 -2.986,-3.038 -17.96,-18.496 -33.955,-43.155 -46.226,-71.3 -13.5,-30.918 -21.992,-64.418 -25.239,-99.584 l -0.014,-0.198 0.01,-0.205 C 382,216.708 379.584,195.533 373.548,174.499 363.1,138.107 342.132,103.426 312.913,74.204 293.041,54.328 271.364,37.997 248.488,25.641 231.268,16.353 213.608,9.478 195.992,5.201 168.321,-1.505 141.49,-1.725 116.229,4.541 89.871,11.049 65.355,25.069 45.337,45.085 l -0.205,0.206 C 27.053,63.367 14.206,84.351 6.939,107.66 c -5.214,16.67 -7.495,34.366 -6.79,52.606 1.023,26.339 8.118,53.134 21.09,79.642 12.733,26.023 30.558,50.588 52.965,73.001 38.896,38.886 87.11,62.812 135.773,67.382 9.277,0.865 18.727,0.998 28.086,0.382 h 0.301 c 36.677,1.775 70.76,9.816 101.314,23.94 25.335,11.717 48.563,27.726 69.037,47.58 1.02,0.99 2.04,1.996 3.056,3.016 5.337,5.333 14.266,14.607 28.437,29.083 10.165,10.396 18.985,19.406 21.094,21.512 4.179,4.182 15.422,12.377 29.506,-1.71 l 11.42,-11.416 -0.025,-0.022 1.87,-1.872 c 14.085,-14.086 5.887,-25.326 1.704,-29.508 z M 183.978,340.525 C 153.17,331.691 123.614,313.746 98.496,288.617 80.979,271.111 66.643,252.116 55.872,232.159 47.981,217.544 42.166,202.65 38.594,187.896 33.205,165.658 32.966,144.322 37.882,124.49 43.029,103.881 53.671,85.378 69.5,69.508 L 69.504,69.5 c 14.142,-14.116 30.43,-24.138 48.409,-29.781 12.909,-4.028 26.713,-5.795 41.028,-5.246 21.516,0.822 43.676,6.75 65.871,17.609 22.612,11.064 44.08,26.67 63.812,46.413 33.273,33.258 53.681,73.985 57.466,114.676 1.797,19.223 -0.154,37.572 -5.792,54.55 -5.72,17.161 -15.022,32.282 -27.653,44.924 -12.641,12.627 -27.755,21.923 -44.927,27.653 -25.614,8.518 -54.568,8.599 -83.74,0.227 z m 207.542,53.846 c -11.93,-7.924 -24.523,-14.974 -37.425,-20.939 -11.981,-5.547 -24.641,-10.338 -37.624,-14.241 l -5.294,-1.592 4.567,-3.125 c 7.641,-5.217 14.762,-11.108 21.218,-17.565 7.022,-7.022 13.445,-14.96 19.094,-23.595 l 3.092,-4.718 1.651,5.4 c 3.903,12.81 8.511,25.312 13.684,37.161 6.104,13.962 13.085,27.293 20.745,39.619 z"
   id="path3512"
   style="fill:#4d4d4d;stroke-width:25.8563" />

</g>
  </g>
</svg>
