<?xml version="1.0" encoding="UTF-8" standalone="no"?>
<!-- Created with Inkscape (http://www.inkscape.org/) -->

<svg
   width="32.0px"
   height="32.0px"
   viewBox="0 0 32.0 32.0"
   version="1.1"
   id="SVGRoot"
   xmlns="http://www.w3.org/2000/svg"
   xmlns:svg="http://www.w3.org/2000/svg">
  <defs
     id="defs1217" />
  <g
     id="layer1">
    <path
       d="m 14.062404,9.6039508 c -0.543487,9.535e-4 -1.148509,0.348854 -1.533851,0.6396252 -1.647535,1.012136 -2.8531193,1.737208 -5.6065473,2.330768 -1.0461111,0.252823 -3.1762919,-0.0549 -5.2656922,-0.172911 -1.33402007,-0.166368 -0.1906908,1.73978 -0.012304,2.514922 1.1862196,2.97235 2.5511332,5.980805 4.961733,8.472568 1.3747575,1.224154 3.2761062,2.291183 5.4080095,2.271726 1.761706,-0.117534 3.215745,-1.249359 3.628179,-2.597862 0.03562,-0.09102 0.06854,-0.183191 0.09839,-0.27553 0.04727,-0.14138 0.0929,-0.28246 0.135288,-0.424545 -0.260003,-0.324348 -0.456344,-0.682187 -0.571021,-1.057138 -0.03563,-0.09102 -0.06678,-0.183191 -0.09663,-0.27553 -0.958261,-2.865875 -0.899215,-5.881903 -0.483172,-8.807144 0.121163,-0.469479 0.268258,-0.934256 0.426949,-1.395929 -0.110276,-0.29331 -0.219561,-0.587173 -0.325049,-0.8814168 -0.211521,-0.2485051 -0.479607,-0.342099 -0.764288,-0.3416034 z"
       id="path3327"
       fill="none"
       fill-rule="evenodd"
       stroke="#ffffff"
       stroke-width="1.00582"
       style="fill:#70fc88;fill-opacity:1;stroke:#004b00;stroke-opacity:1" />
    <path
       id="path3354"
       d="m 16.221276,20.915604 c -0.958261,-2.865874 -0.897585,-5.882975 -0.481543,-8.80822 0.35302,-1.367875 0.915211,-2.6923972 1.395869,-4.0331136 0.615332,-0.7229212 1.709775,-0.1457065 2.296964,0.297374 1.647537,1.0121365 2.853971,1.7378666 5.607399,2.3314256 1.046112,0.252823 3.175529,-0.05546 5.264929,-0.173473 1.334021,-0.166364 0.191927,1.739955 0.01354,2.515097 -1.186219,2.97235 -2.552696,5.979972 -4.963298,8.471736 -1.374755,1.224154 -3.27523,2.292053 -5.407128,2.272596 -1.761707,-0.117532 -3.216161,-1.249794 -3.628594,-2.598298 -0.03562,-0.09102 -0.06828,-0.182782 -0.09813,-0.275124 z"
       fill="none"
       fill-rule="evenodd"
       stroke="#ffffff"
       stroke-width="1.00582"
       style="fill:#ffa060;fill-opacity:1" />
    <path
       d="m 17.778994,7.5598608 c -0.436208,0.089675 -0.374007,0.5445444 -0.518311,0.8097234 -0.643527,1.6459628 -1.290008,3.3208128 -1.315984,5.0607668 -0.197921,2.613949 -0.07118,5.314165 1.066492,7.786556 0.671451,1.115284 2.280105,1.920635 3.840777,1.60539 2.200525,-0.363065 3.954603,-1.687705 5.097017,-3.186881 2.141784,-2.677496 3.350742,-5.731169 4.446937,-8.763565 0.02095,-0.161259 0.10326,-0.40938 -0.01933,-0.525758 -1.056387,0.05861 -2.120139,0.170255 -3.181905,0.244604 -1.157072,0.08806 -2.34094,0.0016 -3.424371,-0.337384 C 21.836954,9.7409034 20.133722,8.8183298 18.583689,7.7777538 18.34674,7.6509265 18.0692,7.551343 17.778986,7.5598608 Z m 3.457752,4.1076572 c 0.916748,-0.02351 1.335564,1.024883 0.711582,1.504174 -0.8405,0.724885 -2.159817,1.211722 -3.40153,0.954517 -0.762582,-0.219319 -1.193863,-1.098838 -0.613188,-1.613825 0.914586,-0.635577 2.228113,-0.528089 3.303136,-0.844866 z m 3.709003,0.652277 c 0.962378,-0.02291 1.663657,0.704967 1.788613,1.409985 0.251339,0.485312 0.695975,1.030888 0.381266,1.566028 -0.230967,0.403073 -0.885538,0.477276 -1.358152,0.328949 -1.130607,-0.21015 -1.884103,-1.105403 -1.90633,-2.014465 -0.102784,-0.521465 0.203425,-1.190196 0.927688,-1.276438 0.05495,-0.0086 0.110693,-0.01318 0.166915,-0.01407 z m -3.733601,4.748689 c 1.187746,0.0155 2.273454,0.594902 2.96931,1.334072 0.442202,0.607008 0.231514,1.580671 -0.665899,1.828907 -0.616358,0.108685 -1.024167,-0.363775 -1.514522,-0.566525 -0.785164,-0.402339 -1.788184,-0.407565 -2.646024,-0.167285 -0.422074,0.10581 -0.994068,0.02894 -1.154343,-0.343008 -0.274287,-0.517452 0.11649,-1.116358 0.681715,-1.391713 0.666236,-0.411106 1.47957,-0.692266 2.329763,-0.694448 z"
       id="path3331"
       fill="#ffffff"
       fill-rule="evenodd"
       stroke="#ffffff"
       stroke-width="1.00582"
       style="fill:#7a00dc;fill-opacity:1;stroke:#3f0071;stroke-opacity:1" />
    <path
       d="m 9.7761537,22.879721 c -0.8763856,-0.0974 -1.71353,-0.513211 -2.134979,-1.144936 0.4666984,-0.414873 1.1331662,0.0054 1.6780517,0.04505 1.2708676,0.128556 2.4585786,-0.540039 3.0776546,-1.389045 0.401323,-0.30775 0.453616,-1.147043 1.151588,-1.023977 0.503389,0.222906 0.408532,0.735796 0.285565,1.108412 -0.07959,0.496828 -0.381371,0.943515 -0.780272,1.322288 -0.314248,0.336754 -0.626295,0.722096 -1.169805,0.833624 -0.695044,0.103463 -1.386667,0.366294 -2.1078033,0.248585 z m -3.105097,-5.436074 c -0.669932,-0.316395 -1.4774512,-0.510948 -1.9523436,-1.036161 -0.1059189,-0.59754 0.836228,-0.987177 1.462927,-0.753808 0.7380094,0.184748 1.4359114,0.522882 1.9029547,1.023708 0.3100001,0.450628 -0.2280789,1.162192 -0.8975759,0.930085 -0.1775457,-0.04293 -0.3429941,-0.111215 -0.5159622,-0.163824 z m 4.2728413,-1.106263 c -0.468559,-0.492346 -0.472951,-1.349372 0.255211,-1.687172 0.47824,-0.252781 1.164547,-0.426517 1.672859,-0.128168 0.266819,0.439937 -0.2031,0.843153 -0.415139,1.223779 -0.128115,0.384451 -0.443162,0.81617 -0.992202,0.854465 -0.221061,0.0044 -0.417339,-0.113093 -0.520729,-0.262904 z"
       id="path3360"
       fill="#ffffff"
       style="fill:#d45500;stroke-width:0.0502911" />
  </g>
</svg>
