<?xml version="1.0" encoding="UTF-8" standalone="no"?>
<!-- Created with Inkscape (http://www.inkscape.org/) -->

<svg
   width="32.0px"
   height="32.0px"
   viewBox="0 0 32.0 32.0"
   version="1.1"
   id="SVGRoot"
   xmlns:xlink="http://www.w3.org/1999/xlink"
   xmlns="http://www.w3.org/2000/svg"
   xmlns:svg="http://www.w3.org/2000/svg">
  <defs
     id="defs32989">
    <linearGradient
       xlink:href="#linearGradient37101"
       id="linearGradient37103"
       x1="0.13015258"
       y1="16.059042"
       x2="31.810806"
       y2="16.059042"
       gradientUnits="userSpaceOnUse"
       gradientTransform="matrix(0.88139524,0,0,0.8796997,1.923696,1.8728646)" />
    <linearGradient
       id="linearGradient37101">
      <stop
         style="stop-color:#8d92fa;stop-opacity:1;"
         offset="0"
         id="stop37099" />
      <stop
         style="stop-color:#0a14ea;stop-opacity:1;"
         offset="0.33762056"
         id="stop40033" />
      <stop
         style="stop-color:#0810b8;stop-opacity:1;"
         offset="0.87138265"
         id="stop37097" />
    </linearGradient>
  </defs>
  <g
     id="layer1">
    <rect
       style="fill:#ffffff;fill-opacity:1;stroke:none;stroke-width:1.18339;stroke-linecap:square;stroke-dasharray:none;paint-order:markers fill stroke"
       id="rect36610-9"
       width="32"
       height="32"
       x="-1.3400576e-07"
       y="0"
       ry="5.423141" />
    <rect
       style="fill:#3a3aff;fill-opacity:1;stroke:#000000;stroke-width:0.998542;stroke-linecap:square;stroke-dasharray:none;paint-order:markers fill stroke"
       id="rect36610"
       width="27.001459"
       height="27.001457"
       x="2.4992712"
       y="2.4992709"
       ry="4.5760221" />
  </g>
  <g
     id="g36510"
     transform="matrix(0.05446493,0,0,0.05094322,-0.29742569,1.4669511)"
     style="fill:#ffffff">
    <path
       style="fill:#ffffff;stroke-width:0.890716"
       d="m 461.30874,157.89981 h -85.31571 c -11.53032,9e-4 -21.37396,4.14982 -29.53005,12.44766 -8.15697,8.29873 -12.23501,18.5174 -12.23501,30.6551 v 100.7456 c 0,9.71915 4.37475,14.57782 13.12692,14.57782 8.35036,0 12.52554,-4.85867 12.52554,-14.57782 v -98.31896 h 15.51211 v 267.06263 c 0,12.1386 5.96518,18.20745 17.8973,18.20745 11.93035,0 17.89641,-6.06885 17.89641,-18.20745 V 315.71506 h 15.5121 v 154.77678 c -8.8e-4,12.1386 5.96518,18.20745 17.89642,18.20745 12.33215,0 18.49778,-6.06885 18.49778,-18.20745 V 203.42921 h 14.91162 v 98.31896 c -8.8e-4,10.11445 4.1743,15.17078 12.52554,15.17078 8.36273,0 12.54409,-5.05633 12.54409,-15.17078 V 201.59553 c 0,-11.73071 -3.87846,-21.94579 -11.63364,-30.64612 -7.75605,-8.69943 -17.80015,-13.0487 -30.13142,-13.0496 z"
       id="path32857" />
    <path
       style="fill:#ffffff;stroke-width:0.890716"
       d="m 418.9423,151.23171 c 8.7504,9e-4 16.30953,-3.23791 22.6765,-9.71465 6.36521,-6.47673 9.5487,-14.16724 9.5487,-23.07052 0,-9.29805 -3.18349,-17.08379 -9.5487,-23.357301 -6.36697,-6.272612 -13.9261,-9.409188 -22.6765,-9.409547 -8.75128,3.59e-4 -16.30688,3.136935 -22.66679,9.409547 -6.36079,6.273511 -9.54075,14.059251 -9.54075,23.357301 0,8.90328 3.17996,16.59379 9.54075,23.07052 6.35991,6.47674 13.91551,9.71555 22.66679,9.71465 z"
       id="path32855" />
    <path
       style="fill:#ffffff;stroke-width:0.890716"
       d="m 189.32938,151.82467 c 9.13895,0 16.89235,-3.23522 23.25844,-9.70567 6.3661,-6.47044 9.54958,-14.15735 9.54958,-23.06117 0,-9.31045 -3.18348,-17.20122 -9.54958,-23.672201 -6.36609,-6.470265 -14.11949,-9.705578 -23.25844,-9.705937 -8.75128,3.59e-4 -16.31041,3.235672 -22.6765,9.705937 -6.3661,6.470981 -9.5487,14.361751 -9.5487,23.672201 0,8.90382 3.1826,16.59073 9.5487,23.06117 6.36609,6.47045 13.92522,9.70567 22.6765,9.70567 z"
       id="path32853" />
    <path
       style="fill:#ffffff;stroke-width:0.890716"
       d="m 219.75222,158.51164 h -63.83137 c -9.95323,0 -18.90479,3.6431 -26.85477,10.92842 -5.9718,5.65557 -9.94687,11.92926 -11.92523,18.81927 l -27.455263,92.85475 c -0.78894,2.02505 -1.183498,3.84705 -1.18341,5.46421 -8.8e-5,9.31126 4.56974,13.96689 13.709393,13.96599 6.37219,9e-4 10.55364,-3.6422 12.54427,-10.92842 l 25.05197,-84.98276 h 13.70949 l -41.16475,151.12828 h 39.98134 v 117.74917 c -1.8e-4,10.52143 4.96986,15.7817 14.91065,15.7817 9.94078,0 14.91161,-5.26027 14.91161,-15.7817 V 355.16842 h 14.92928 v 118.95395 c 0,10.11355 4.96995,15.16988 14.91073,15.16988 9.94079,0 14.91074,-5.05633 14.91074,-15.16988 V 355.76138 h 39.96359 L 225.12308,204.6331 h 14.31025 l 25.05197,84.98276 c 1.99045,7.28622 6.16563,10.92932 12.52643,10.92842 9.15131,9e-4 13.72741,-4.65473 13.72741,-13.96599 0,-2.02504 -0.39474,-3.84615 -1.18332,-5.46421 l -27.45571,-92.85475 c -1.99045,-6.48302 -6.56037,-12.75581 -13.70887,-18.81927 -8.75216,-7.28532 -18.29821,-10.92842 -28.63902,-10.92842 z"
       id="path32851" />
  </g>
</svg>
