<?xml version="1.0" encoding="UTF-8" standalone="no"?>
<!-- Created with Inkscape (http://www.inkscape.org/) -->

<svg
   width="64.0px"
   height="64.0px"
   viewBox="0 0 64.0 64.0"
   version="1.1"
   id="SVGRoot"
   xmlns="http://www.w3.org/2000/svg"
   xmlns:svg="http://www.w3.org/2000/svg">
  <defs
     id="defs3500" />
  <g
     id="layer1">
    <path
       id="rect31542"
       style="fill:#550000;fill-opacity:1;stroke:#ffffff;stroke-width:1;stroke-linecap:square;stroke-dasharray:none;stroke-opacity:1;paint-order:markers fill stroke"
       d="M 34.921875 0.064453125 L 11.841797 15.171875 L 19.722656 15.167969 L 19.722656 23.857422 L 14.054688 23.857422 L 14.054688 31.533203 L 19.722656 31.533203 L 19.722656 63.068359 L 24.802734 63.068359 L 24.802734 50.416016 L 35.025391 46.402344 L 45.056641 50.341797 L 45.056641 63.009766 L 50.136719 63.009766 L 50.136719 31.533203 L 55.982422 31.533203 L 55.982422 23.857422 L 50.136719 23.857422 L 50.136719 15.152344 L 58.107422 15.148438 L 34.921875 0.064453125 z M 45.056641 15.154297 L 45.056641 23.857422 L 24.802734 23.857422 L 24.802734 15.166016 L 45.056641 15.154297 z M 24.802734 31.533203 L 45.056641 31.533203 L 45.056641 37.056641 L 35.023438 40.996094 L 24.802734 36.984375 L 24.802734 31.533203 z M 24.802734 42.388672 L 28.140625 43.699219 L 24.802734 45.009766 L 24.802734 42.388672 z M 45.056641 42.462891 L 45.056641 44.935547 L 41.908203 43.699219 L 45.056641 42.462891 z " />
  </g>
</svg>
