<?xml version="1.0" encoding="UTF-8" standalone="no"?>
<!-- Created with Inkscape (http://www.inkscape.org/) -->

<svg
   width="32.0px"
   height="32.0px"
   viewBox="0 0 32.0 32.0"
   version="1.1"
   id="SVGRoot"
   xmlns="http://www.w3.org/2000/svg"
   xmlns:svg="http://www.w3.org/2000/svg">
  <defs
     id="defs23674" />
  <g
     id="layer1">
    <path
       id="path29898-0"
       style="fill:#ffffff;fill-opacity:1;stroke:none;stroke-width:0.666771;stroke-linecap:square;paint-order:fill markers stroke"
       d="M 15.694516,9.1031212 C 11.486801,9.2450019 7.454467,11.673276 4.7483041,15.24044 3.110046,17.364867 2.5488967,18.79204 1.7552887,21.406328 1.2019909,23.281603 0.92846197,24.871879 0.59491687,27.2778 L 31.989967,27.341069 C 31.208582,25.509882 30.812685,22.761381 29.928116,21.305101 29.097258,19.053853 28.628899,17.516587 27.36861,15.489991 24.913351,11.367959 20.886861,9.4685165 16.474007,9.1197795 c -0.259754,-0.00319 -0.519905,-0.0234 -0.779491,-0.016663 z" />
    <path
       style="fill:#b14900;fill-opacity:1;stroke:none;stroke-width:0.695536;stroke-linecap:square;paint-order:fill markers stroke"
       d="m 3.1362418,22.379284 c 0.5009064,-1.618287 1.1846804,-4.353489 3.3590898,-6.861486 2.1744094,-2.507997 5.8385694,-4.786906 9.4823424,-4.820443 3.643773,-0.03354 7.264763,2.176779 9.427244,4.705763 2.162482,2.528985 2.865792,5.373333 3.389125,7.026542 0.523333,1.653208 0.865754,2.113264 1.035855,2.341802 C 30,25 30,25 30,25 20.666667,25 11.344479,25 6.6722395,25 2,25 2,25 2,25 2.3174963,24.499056 2.6353354,23.997571 3.1362418,22.379284 Z"
       id="path29898" />
    <rect
       style="fill:#cccccc;stroke:#54952f;stroke-width:1.26548;stroke-linecap:square;stroke-dasharray:none;stroke-opacity:1;paint-order:fill markers stroke"
       id="rect33584"
       width="6.7271733"
       height="6.6322722"
       x="12.725809"
       y="17.774084" />
    <rect
       style="fill:#000000;stroke:none;stroke-width:0.573833;stroke-linecap:square;paint-order:fill markers stroke"
       id="rect35194"
       width="28"
       height="1"
       x="1.9655172"
       y="25" />
  </g>
</svg>
