<?xml version="1.0" encoding="UTF-8" standalone="no"?>
<!-- Created with Inkscape (http://www.inkscape.org/) -->

<svg
   width="32.0px"
   height="32.0px"
   viewBox="0 0 32.0 32.0"
   version="1.1"
   id="SVGRoot"
   sodipodi:docname="water_well.svg"
   inkscape:version="1.2.2 (732a01da63, 2022-12-09)"
   xmlns:inkscape="http://www.inkscape.org/namespaces/inkscape"
   xmlns:sodipodi="http://sodipodi.sourceforge.net/DTD/sodipodi-0.dtd"
   xmlns="http://www.w3.org/2000/svg"
   xmlns:svg="http://www.w3.org/2000/svg">
  <sodipodi:namedview
     id="namedview5141"
     pagecolor="#ffffff"
     bordercolor="#000000"
     borderopacity="0.25"
     inkscape:showpageshadow="2"
     inkscape:pageopacity="0.0"
     inkscape:pagecheckerboard="0"
     inkscape:deskcolor="#d1d1d1"
     inkscape:document-units="px"
     showgrid="true"
     inkscape:zoom="26.6875"
     inkscape:cx="15.981265"
     inkscape:cy="16"
     inkscape:window-width="1858"
     inkscape:window-height="1057"
     inkscape:window-x="1420"
     inkscape:window-y="-8"
     inkscape:window-maximized="1"
     inkscape:current-layer="layer1">
    <inkscape:grid
       type="xygrid"
       id="grid5264" />
  </sodipodi:namedview>
  <defs
     id="defs5136">
    <inkscape:path-effect
       effect="bspline"
       id="path-effect10932"
       is_visible="true"
       lpeversion="1"
       weight="33.333333"
       steps="2"
       helper_size="0"
       apply_no_weight="true"
       apply_with_weight="true"
       only_selected="false" />
  </defs>
  <g
     inkscape:label="Layer 1"
     inkscape:groupmode="layer"
     id="layer1">
    <path
       class="st0"
       d="M 29.02767,8.4190228 22.119956,3.4742576 C 21.686449,3.1586523 21.024201,2.9471312 20.467753,2.9471312 c -0.01394,0 -9.238902,0 -9.252859,0 -0.556574,0 -1.2189522,0.2115211 -1.652327,0.5271264 L 2.6547285,8.4192649 C 2.0150587,8.8690523 1.9252368,9.4882694 2.055153,9.9193517 c 0.1305477,0.4329963 0.5559346,0.9170773 1.3578694,0.9766703 0.032967,0.0022 0.066211,0.0036 0.099337,0.0036 h 3.3099837 c -0.00347,0.04284 -0.007,0.08561 -0.007,0.129267 v 7.503309 c 0,0.08189 0.00827,0.162116 0.020405,0.241377 L 6.181736,18.690945 c -0.081196,-0.01074 -0.1635282,-0.01621 -0.2448549,-0.01621 -0.9527757,0 -1.6992711,0.709034 -1.6992711,1.614359 v 1.876482 c 0,0.305299 0.086525,0.595003 0.2364849,0.848616 -0.1495781,0.241861 -0.2363531,0.52461 -0.2363531,0.830862 v 1.606327 c 0,0.274116 0.072436,0.537801 0.1996873,0.774019 C 4.3098034,26.453235 4.23761,26.715358 4.23761,26.996428 v 1.426107 c 0,0.866469 0.6844556,1.612077 1.5919459,1.734384 0.00695,7.34e-4 3.1097825,0.372205 3.1162584,0.372808 0.064544,0.0067 0.1301657,0.01016 0.1948632,0.01016 0.2206261,0 0.4340206,-0.03954 0.6324382,-0.113071 0.2409273,0.136824 0.5185123,0.222202 0.8163983,0.239587 0.01031,5.95e-4 5.436925,0.192698 5.436925,0.192698 0.0101,3.44e-4 0.05427,7.34e-4 0.05427,7.34e-4 0.291793,0 0.572557,-0.06675 0.823374,-0.191854 0.228615,0.103846 0.483491,0.163795 0.753339,0.163795 h 1.31e-4 c 0.03206,0 0.06433,-7.33e-4 0.09692,-0.0022 0.01437,-7.32e-4 0.02881,-0.0015 0.04317,-0.0029 l 7.986845,-0.671145 c 0.01431,-0.0015 0.02881,-0.0029 0.04303,-0.0044 0.906726,-0.10576 1.616931,-0.865039 1.616931,-1.728515 v -1.426413 c 0,-0.278553 -0.07106,-0.538401 -0.196267,-0.765276 0.125475,-0.236344 0.196517,-0.501466 0.196517,-0.779543 v -1.606258 c 0,-0.306253 -0.0869,-0.589009 -0.236603,-0.830745 0.149951,-0.253612 0.236353,-0.543199 0.236353,-0.848248 v -1.876607 c 0,-0.904849 -0.745858,-1.61364 -1.698126,-1.61364 -0.0859,0 -0.172794,0.0059 -0.246126,0.01643 l -0.654133,0.0855 c 0.01256,-0.08046 0.02095,-0.162 0.02095,-0.244979 v -7.503672 c 0,-0.04379 -0.0035,-0.0867 -0.0069,-0.129501 h 3.310109 c 0.03324,0 0.06635,-0.0015 0.09947,-0.0036 0.801934,-0.05957 1.227188,-0.543676 1.357737,-0.9767899 0.130165,-0.4310815 0.04025,-1.0504233 -0.599702,-1.500086 z"
       id="path8421"
       style="fill:#ffffff;stroke-width:0.12334;opacity:0.5" />
    <path
       class="st1"
       d="M 21.506264,3.8835942 C 21.284363,3.7109223 20.872529,3.5759038 20.591283,3.5846625 c -3.091695,0 -6.183391,0 -9.275086,0 C 11.03495,3.5759305 10.623242,3.710805 10.401208,3.8835942 8.075501,5.642692 5.7485118,7.3324761 3.4268964,8.8269217 3.2005177,8.9675812 3.2443871,9.1148279 3.5244795,9.1562005 c 8.2740225,0.5988386 16.5850085,0.5988386 24.8588995,0 0.279965,-0.041373 0.323969,-0.1886193 0.09758,-0.3292788 C 26.158962,7.3324761 23.831973,5.642692 21.506264,3.8835942 Z"
       id="path8443"
       style="fill:#800000;stroke-width:0.12384" />
    <path
       class="st1"
       d="m 13.755194,15.281383 c -0.372313,-0.07858 -0.616322,0.179804 -0.543502,0.588752 0.265115,1.481562 0.530916,2.957407 0.796876,4.428296 0.07353,0.405628 0.439354,0.787339 0.813546,0.833907 0.928399,0.06552 1.859526,0.06552 2.787931,0 0.374184,-0.04664 0.740038,-0.428279 0.813548,-0.833907 0.26596,-1.470517 0.531752,-2.946734 0.797033,-4.428296 0.07279,-0.408948 -0.171347,-0.667342 -0.543324,-0.588752 -1.635425,0.204654 -3.287019,0.204654 -4.922108,0 z"
       id="path8445"
       style="fill:#483e37;stroke-width:0.176966" />
    <path
       class="st1"
       d="m 9.7678594,21.712117 c 0.2803576,0.03039 0.5098086,-0.237219 0.5098086,-0.594431 v -6.444814 c 0,-0.357222 0.230212,-0.649483 0.511592,-0.649483 h 10.179068 c 0.28138,0 0.5116,0.292261 0.5116,0.649483 v 6.444814 c 0,0.357212 0.22945,0.624799 0.509677,0.594431 l 1.200195,-0.14158 c 0.279973,-0.03578 0.509039,-0.357054 0.509039,-0.714265 V 10.69576 c 0,-0.35721 -0.229066,-0.620258 -0.508907,-0.58437 l -1.200327,0.141585 c -0.280227,0.0304 -0.509677,0.347311 -0.509677,0.704531 v 0.719622 c 0,0.357219 -0.23022,0.649481 -0.5116,0.649481 H 10.78926 c -0.28138,0 -0.511592,-0.292262 -0.511592,-0.649481 v -0.71979 c 0,-0.357213 -0.229324,-0.674324 -0.5098086,-0.704521 L 8.5676638,10.111062 c -0.2799739,-0.03586 -0.5090387,0.227159 -0.5090387,0.584373 v 10.160177 c 0,0.357222 0.2290648,0.678873 0.5090387,0.714593 z"
       id="path8447"
       style="fill:#502d16;stroke-width:0.144108" />
    <path
       style="fill:#666666;stroke:#502d16;stroke-width:0.0335442;stroke-linecap:square;stroke-linejoin:round;paint-order:fill markers stroke"
       d="m 6.4960764,28.642519 c 0,-0.0235 0,-0.07052 0.011064,-1.203909 0.011064,-1.133385 0.033193,-3.353033 0.1272255,-4.491118 0.094033,-1.138085 0.2599439,-1.194517 1.4103105,-1.109859 1.1503666,0.08466 3.2850812,0.310384 5.3479572,0.399733 2.062876,0.08935 4.05381,0.04232 5.773795,-0.04703 1.719986,-0.08935 3.168938,-0.221028 4.048285,-0.324492 0.879347,-0.103464 1.18904,-0.178705 1.426858,-0.183395 0.237818,-0.0047 0.403732,0.06115 0.481137,1.199239 0.07741,1.138092 0.06635,3.348339 0.04422,4.519311 -0.02212,1.170972 -0.05531,1.302653 -0.13273,1.406105 -0.07742,0.103451 -0.199086,0.178689 -0.890394,0.296261 -0.691309,0.117572 -1.95223,0.277463 -3.539491,0.380926 -1.587262,0.103463 -3.500759,0.150489 -5.39773,0.122273 -1.896971,-0.02822 -3.777292,-0.131674 -5.08802,-0.221027 C 8.8078387,29.296184 8.0667742,29.220943 7.5911555,29.15981 7.1155368,29.098677 6.9053792,29.051648 6.7671123,28.971721 6.6288455,28.891794 6.5624739,28.778919 6.5292791,28.722467 c -0.033195,-0.05645 -0.033203,-0.05645 -0.033203,-0.07995 z"
       id="path10930"
       inkscape:path-effect="#path-effect10932"
       inkscape:original-d="m 6.4960764,28.666014 c 3.93e-5,-0.04699 3.93e-5,-0.09402 0,-0.141083 0.022181,-2.219705 0.044283,-4.439354 0.066386,-6.659083 0.1659542,-0.05639 0.3318615,-0.112833 0.4977373,-0.169298 2.1348408,0.225768 4.2695553,0.451494 6.4042763,0.677194 1.991035,-0.047 3.981969,-0.09402 5.972895,-0.141081 1.449047,-0.131646 2.897999,-0.263322 4.346944,-0.39503 0.309754,-0.07522 0.619449,-0.150454 0.929114,-0.225731 0.165956,0.06587 0.331869,0.131708 0.497746,0.197514 -0.01101,2.210363 -0.0221,4.42061 -0.03318,6.630868 -0.0331,0.131708 -0.0663,0.263385 -0.09955,0.39503 -0.121642,0.07528 -0.243303,0.150519 -0.365015,0.22573 -1.260926,0.159928 -2.521847,0.319819 -3.78283,0.479681 -1.913544,0.04706 -3.827041,0.09409 -5.740618,0.141083 C 13.309614,29.578376 11.429293,29.474918 9.5489007,29.371426 8.8078359,29.296212 8.0667714,29.22097 7.3256515,29.145695 7.1155325,29.098696 6.9053739,29.051672 6.6951838,29.004612 6.6288777,28.891775 6.5624849,28.778913 6.4960842,28.666014 Z" />
  </g>
</svg>
