<?xml version="1.0" encoding="UTF-8" standalone="no"?>
<!-- Created with Inkscape (http://www.inkscape.org/) -->

<svg
   width="32"
   height="22"
   viewBox="0 0 32 22"
   version="1.1"
   id="SVGRoot"
   xmlns="http://www.w3.org/2000/svg"
   xmlns:svg="http://www.w3.org/2000/svg">
  <defs
     id="defs17493" />
  <g
     id="layer1">
    <path
       id="path11873-0"
       style="fill:#ffffff;fill-opacity:1;stroke:none;stroke-width:2.99999;stroke-linecap:square;stroke-dasharray:none;paint-order:fill markers stroke"
       d="M 5.2331066,0.83396997 C 4.0330023,0.97711007 2.5776239,1.1247314 1.9452147,2.3214719 1.2668919,3.3743623 1.6985651,4.6503064 2.2495817,5.6538054 4.3412389,10.241567 6.3568915,14.867481 8.4962284,19.431309 c 0.5140004,1.144553 1.8283366,1.626654 3.0189086,1.466191 3.389147,-0.02857 6.782884,0.03942 10.169141,-0.04986 1.109065,-0.199577 1.798162,-1.168788 2.124795,-2.176315 2.081212,-4.756056 4.244444,-9.4805296 6.274522,-14.2562726 0.45578,-1.5028571 -0.73176,-3.1525942 -2.28555,-3.2691718 -1.27015,-0.38953843 -2.798295,-0.21721753 -3.680173,0.8638697 -0.756022,1.0193606 -1.087216,2.2904751 -1.658203,3.4179691 -4.336589,0 -8.673177,0 -13.0097655,0 C 8.8167481,4.2270064 8.4855878,2.8359905 7.6136692,1.7807859 7.0018308,1.1501396 6.1129932,0.78173027 5.2331066,0.83396997 Z" />
    <path
       style="fill:#3f64f6;fill-opacity:1;stroke:none;stroke-width:2.99999;stroke-linecap:square;stroke-dasharray:none;paint-order:fill markers stroke"
       d="m 7.4343711,7.5465364 3.0610999,9.4678106 10.522535,-0.08378 3.252419,-9.3840226 z"
       id="path11873" />
    <path
       id="rect17732-4-8"
       style="fill:#552200;stroke:none;stroke-width:0.999998;stroke-linecap:square;stroke-linejoin:miter;stroke-dasharray:none;paint-order:fill markers stroke"
       d="m 5.3631155,2.9470566 c -0.056783,-6.06e-4 -0.1143487,0.00384 -0.1699219,0.013672 L 4.0994436,3.154088 C 3.6548582,3.2327354 3.4470562,3.6272739 3.6326467,4.0388535 L 10.081866,18.343541 c 0.04262,0.09452 0.103878,0.17894 0.175781,0.25586 0.05475,0.239843 0.268457,0.418309 0.52539,0.417968 l 10.376954,-0.01367 c 0.282582,-3.74e-4 0.509462,-0.215966 0.533202,-0.492188 0.03731,-0.05152 0.0701,-0.106221 0.0957,-0.164062 L 28.074053,4.1482285 C 28.254918,3.7396895 28.04696,3.3485488 27.607256,3.2693222 l -1.042968,-0.189453 c -0.439705,-0.079227 -0.940229,0.187164 -1.121095,0.595703 L 19.75374,16.527135 12.181475,16.5369 6.3318655,3.562291 C 6.1694738,3.2021588 5.7605957,2.9512983 5.3631155,2.9470566 Z" />
  </g>
</svg>
