<?xml version="1.0" encoding="UTF-8" standalone="no"?>
<!-- Created with Inkscape (http://www.inkscape.org/) -->

<svg
   width="32.0px"
   height="32.0px"
   viewBox="0 0 32.0 32.0"
   version="1.1"
   id="SVGRoot"
   xmlns="http://www.w3.org/2000/svg"
   xmlns:svg="http://www.w3.org/2000/svg">
  <defs
     id="defs5206" />
  <g
     id="layer1">
    <path
       id="path5050-8"
       style="fill:#4d4d4d;stroke-width:0.7;stroke:#ffffff;stroke-dasharray:none"
       d="M 0.5703125 15.865234 L 0.5703125 17.240234 C 0.5703125 18.346777 1.469346 19.246094 2.5742188 19.246094 L 3.5605469 19.246094 C 3.8974452 19.246094 4.1952975 19.465266 4.3007812 19.789062 C 4.4972553 20.391963 4.7427634 20.984561 5.03125 21.550781 C 5.1826197 21.847775 5.1234578 22.208153 4.8847656 22.447266 L 4.1875 23.146484 C 3.4062348 23.928992 3.4062348 25.201989 4.1875 25.984375 L 5.9726562 27.773438 C 6.7539815 28.555824 8.0254354 28.555824 8.8066406 27.773438 L 9.5058594 27.074219 C 9.744551 26.835167 10.103785 26.776137 10.400391 26.927734 C 10.965878 27.216717 11.558285 27.461493 12.160156 27.658203 C 12.483462 27.763907 12.699219 28.062983 12.699219 28.400391 L 12.699219 29.386719 C 12.699219 30.493263 13.598253 31.394531 14.703125 31.394531 L 17.228516 31.394531 C 18.333389 31.394531 19.232362 30.493202 19.232422 29.386719 L 19.232422 28.400391 C 19.232422 28.062983 19.45013 27.763847 19.773438 27.658203 C 20.375428 27.461493 20.967776 27.216657 21.533203 26.927734 C 21.829807 26.776137 22.189043 26.835224 22.427734 27.074219 L 23.126953 27.773438 C 23.908278 28.555884 25.179732 28.555824 25.960938 27.773438 L 27.746094 25.984375 C 28.527359 25.201869 28.527359 23.928872 27.746094 23.146484 L 27.046875 22.447266 C 26.808123 22.208274 26.750914 21.847835 26.902344 21.550781 C 27.19089 20.98444 27.436459 20.391843 27.632812 19.789062 C 27.738356 19.465266 28.036148 19.246094 28.373047 19.246094 L 29.359375 19.246094 C 30.464249 19.246094 31.361328 18.346777 31.361328 17.240234 L 31.361328 15.865234 L 24.513672 15.865234 A 8.5615387 8.4916487 0 0 1 24.515625 15.931641 A 8.5615387 8.4916487 0 0 1 15.955078 24.421875 A 8.5615387 8.4916487 0 0 1 7.3925781 15.931641 A 8.5615387 8.4916487 0 0 1 7.3984375 15.865234 L 0.5703125 15.865234 z " />
    <path
       d="m 15.898575,2.5582419 c 2.236526,5.4710221 6.709575,8.6624441 6.709575,13.2216341 0,3.341881 -3.086407,6.838771 -6.709575,6.838771 -3.62317,0 -6.7095748,-3.49689 -6.7095748,-6.838771 0,-4.55919 4.4730468,-7.750612 6.7095748,-13.2216341 z"
       id="path5414"
       style="fill:#0068ff;fill-opacity:1;stroke:#ffffff;stroke-width:1.20001;stroke-dasharray:none" />
  </g>
</svg>
