<?xml version="1.0" encoding="UTF-8" standalone="no"?>
<!-- Created with Inkscape (http://www.inkscape.org/) -->

<svg
   width="37"
   height="29"
   viewBox="0 0 37 29"
   version="1.1"
   id="SVGRoot"
   xmlns="http://www.w3.org/2000/svg"
   xmlns:svg="http://www.w3.org/2000/svg">
  <defs
     id="defs441" />
  <g
     id="layer1">
    <path
       id="path259-1"
       style="fill:#ffffff;stroke-width:3.125"
       class="st1"
       d="M 13.437347,0.04671853 C 11.85872,0.09854386 10.713961,1.385434 9.400047,2.1189129 6.6417651,3.9756377 3.8178874,5.7380308 1.1008381,7.6540417 c -1.28825478,1.1196002 -1.31044983,3.3518833 -0.028871,4.4882013 0.6629473,0.643458 1.5970962,0.974068 2.5047308,0.918647 0,3.794304 0,7.588608 0,11.382912 0.8215539,0.04873 1.7288587,-0.0973 2.497023,0.07267 1.9478683,2.357853 4.8889911,3.869925 7.9267801,3.783376 4.496471,-0.05101 8.275478,-3.362179 12.791938,-3.317359 1.718447,-0.05267 3.321931,0.682778 4.761989,1.570725 1.72791,0.623166 3.45582,1.246333 5.183729,1.869498 -0.430031,-0.713873 -0.860062,-1.427746 -1.290093,-2.141619 0.351763,0.14929 1.459592,1.118279 0.892329,0.271195 -1.185041,-2.183775 -2.23991,-4.447974 -3.506127,-6.581714 -1.814882,-2.688989 -5.139804,-4.521731 -8.353572,-3.763712 -0.382247,-0.06537 -1.226,0.6275 -1.169809,0.03981 -10e-7,-1.068857 0,-2.137714 0,-3.206571 1.837324,0.310814 3.84132,-1.247372 3.717412,-3.2269071 C 27.038682,8.4586543 26.003085,7.430434 24.90539,6.8473212 24.536067,6.4569202 23.662865,6.3490325 23.675277,5.7446011 23.60291,4.5251884 23.833859,3.2591949 23.531729,2.0711455 23.095722,0.62886938 21.534895,-0.1012377 20.141416,0.0694007 18.916974,-0.05600014 17.590187,0.46531716 16.987407,1.6156023 15.882593,0.92691485 14.823538,-0.07493114 13.437351,0.04671853 Z" />
    <path
       class="st1"
       d="m 22.703446,2.924848 c 0,-0.5314992 -0.517225,-0.966425 -1.149142,-0.966425 h -1.149139 c -0.631779,0 -1.149142,0.4348107 -1.149142,0.966425 v 1.5123044 l 3.447288,2.2174275 V 2.924848 Z"
       id="path259"
       style="fill:#803300;stroke-width:3.125" />
    <path
       id="rect1246"
       style="fill:#bda9a9;fill-opacity:1;stroke:none;stroke-width:0.298583;stroke-linejoin:round;stroke-dasharray:none;paint-order:fill markers stroke"
       d="M 13.964844,3.9589844 5.1933594,10.212891 h 0.1796875 v 12.93164 H 22.316406 V 10.214844 h 0.414063 z" />
    <path
       class="st1"
       d="m 12.735461,5.4350128 c 0.335096,-0.2023946 0.76967,-0.3254494 1.246047,-0.3254494 0.464976,0 0.891137,0.1166646 1.222701,0.310383 0.0096,0.00457 0.01928,0.00753 0.02893,0.013471 2.677622,1.62623 8.632068,5.6967106 8.632068,5.6967106 0.263296,0.169517 0.577759,0.259243 0.908644,0.259243 0.470542,0 0.904305,-0.180136 1.190402,-0.494397 0.501484,-0.55159 0.375672,-1.3434718 -0.27999,-1.7653828 L 14.89384,2.1883825 C 14.634208,2.0213753 14.311194,1.9293663 13.984107,1.9293663 c -0.327084,0 -0.649962,0.091894 -0.909597,0.2590162 L 2.2838141,9.1295912 c -0.6557993,0.421911 -0.7813379,1.2139068 -0.2797168,1.7654938 0.2855544,0.314149 0.7193174,0.494286 1.1899923,0.494286 0.3308848,0 0.6453481,-0.08973 0.9086482,-0.259127 0,0 5.9372092,-4.0581543 8.6205292,-5.689405 0.0041,-0.00259 0.008,-0.00371 0.01222,-0.00583 z"
       id="path261"
       style="fill:#803300;stroke-width:3.125" />
    <path
       class="st1"
       d="m 33.800539,25.371842 c -0.784016,-0.722698 -1.635466,-1.340967 -2.560954,-1.843627 -1.530396,-0.831167 -3.145894,-1.260862 -4.877059,-1.166815 -1.229942,0.06715 -2.421019,0.354782 -3.600731,0.697723 -2.175397,0.633025 -4.376144,1.082661 -6.63879,1.187573 -2.04038,0.09437 -4.050956,-0.0485 -6.020674,-0.646324 -1.4118141,-0.428556 -2.7572672,-1.021045 -4.0251499,-1.82092 0.7944614,1.477003 1.8133444,2.725547 3.1474337,3.68481 0.7594385,0.545956 1.5569732,0.991053 2.4382222,1.263947 1.873253,0.579839 3.758947,0.508656 5.60547,-0.05675 1.513964,-0.463256 2.988141,-1.074391 4.472764,-1.640122 1.873098,-0.714266 3.778914,-1.245298 5.783347,-1.324429 1.765418,-0.0702 3.448501,0.263489 5.042496,1.067585 0.453298,0.229277 0.890157,0.495038 1.39476,0.777497 -0.08295,-0.09322 -0.118738,-0.140751 -0.161135,-0.180142 z"
       id="path253"
       style="fill:#0000e0;stroke-width:3.12499;fill-opacity:1" />
    <path
       class="st1"
       d="m 21.299291,21.270995 c 3.475231,-0.587944 6.783953,-2.206903 11.843807,0.965284 0,0 -1.201523,-2.407016 -4.122539,-3.470032 -2.343599,-0.85258 -5.403166,0.108394 -7.721268,2.504748 z"
       id="path255"
       style="fill:#0000e0;stroke-width:3.12499;fill-opacity:1" />
    <path
       class="st1"
       d="m 6.9997829,19.711597 c 0.1005493,0 0.1523631,-0.01435 0.2156636,-0.03185 0.025012,-0.0069 0.060058,-0.01088 0.095983,-0.01088 0.054169,0 0.1104079,0.009 0.1380823,0.03004 0.046229,0.03508 0.3009048,0.371061 0.4113126,0.521659 0,0 0,0.02394 0.089507,0.162632 0.089355,0.138308 0.1187967,0.334966 0.06507,0.4364 -0.053583,0.101563 -0.09761,0.184499 -0.2670424,0.574841 0,0 0.069484,0.06107 0.1542764,0.135331 0.084648,0.0744 0.2935399,0.215289 0.4644552,0.312582 0,0 0.045632,0.02611 0.2476093,0.02611 0.2022677,0 0.2022677,0 0.2022677,0 -1.39e-4,0 0.08539,-0.05085 0.190052,-0.112172 0.08274,-0.04929 0.232447,-0.09109 0.3496279,-0.09109 0.0309,0 0.05978,0.0029 0.08435,0.0094 0,0 0,0 0.195495,0.127309 0.195352,0.127697 0.7306135,0.452573 0.7132425,0.489573 -0.01766,0.03702 -0.01164,0.50187 -0.01164,0.50187 0.0022,0.179061 0.09466,0.358511 0.205506,0.398751 0.110556,0.04037 0.29163,0.0969 0.402187,0.126273 0,0 0,0 0.100549,0 0.309584,0 0.416167,-0.112308 0.546447,-0.249702 0,0 0.196237,-0.207525 0.212723,-0.24233 0.0088,-0.01888 0.04123,-0.02355 0.06904,-0.02355 0.02371,0 0.04431,0.0029 0.04431,0.0029 0.200651,0.03103 0.52525,0.09509 0.72163,0.142446 0,0 0.561026,0.13585 0.561026,0.233276 0,0.09769 0.215226,0.568758 0.215226,0.568758 0.07567,0.165866 0.137789,0.301845 0.573685,0.301845 0.4356,0 0.498164,-0.135979 0.57383,-0.301845 0,0 0.215076,-0.471204 0.215076,-0.568758 0,-0.09743 0.09334,-0.126535 0.09334,-0.126535 0.191816,-0.06041 0.514066,-0.12718 0.716038,-0.148786 0,0 0.03181,0.01216 0.222733,0.01926 0.191521,0.0074 0.40763,0.09264 0.480057,0.189933 0.07302,0.09704 0.13249,0.17686 0.363024,0.411947 0,0 0,0 0.309591,0 0.101135,0 0.101135,0 0.101135,0 0.110408,-0.02899 0.291329,-0.08565 0.401886,-0.126144 0.111149,-0.0405 0.199474,-0.219689 0.197561,-0.398622 0,0 0.0029,-0.204811 -0.01473,-0.342345 -0.01721,-0.137787 -0.0097,-0.306243 0.01665,-0.375073 0.02711,-0.06883 0.403655,-0.3087 0.580311,-0.397327 8.38e-4,0 0.03739,-2.5e-4 0.215075,-0.05912 0.09142,-0.03015 0.191966,-0.04554 0.279115,-0.04554 0.08391,0 0.15575,0.01384 0.195495,0.04243 0.08112,0.0581 0.147509,0.10519 0.343596,0.217359 0,0 0,0 0.201829,0 0.20153,0 0.247757,-0.02625 0.247757,-0.02625 0.170322,-0.09729 0.379363,-0.23793 0.464449,-0.312711 0.0845,-0.0744 0.08892,-0.269889 0.0093,-0.43472 0,0 -0.223318,-0.462924 -0.296041,-0.526968 -0.07316,-0.06417 -0.03015,-0.139991 -0.03015,-0.139991 0.09024,-0.160173 0.266602,-0.407161 0.391292,-0.548702 0,0 0.03343,-0.01265 0.172533,-0.129767 0.12189,-0.103116 0.269103,-0.175181 0.351244,-0.175181 0.01121,0 0.02149,0.0017 0.02972,0.0042 0.07096,0.0233 0.128809,0.04194 0.239365,0.07129 0,0 0,0 0.101135,0 0.309586,0 0.487566,-0.181908 0.487566,-0.181908 0.132635,-0.135459 0.279115,-0.326166 0.325044,-0.423202 0.04578,-0.09781 -0.03548,-0.280108 -0.180338,-0.405609 2.85e-4,0 -0.403066,-0.350234 -0.493014,-0.383094 -0.08979,-0.03273 -0.08081,-0.127702 -0.08081,-0.127702 0.01678,-0.178542 0.06315,-0.46771 0.103044,-0.643149 0,0 0.10982,-0.485045 0.135729,-0.485045 0.0265,0 0.497432,-0.180617 0.497432,-0.180617 0.186661,-0.07168 0.339029,-0.129896 0.339029,-0.512477 0,-0.383482 -0.152659,-0.441962 -0.339474,-0.51351 0,0 -0.470194,-0.180228 -0.496399,-0.180228 -0.02593,0 -0.04166,-0.06792 -0.04166,-0.06792 -0.03987,-0.175182 -0.10261,-0.463053 -0.13823,-0.639401 0,0 0.01031,-0.02095 -0.01207,-0.177508 -0.02253,-0.156681 0.03534,-0.346482 0.128516,-0.421911 0.09334,-0.07543 0.169294,-0.137143 0.496252,-0.440931 0,0 -0.03739,-0.07956 -0.08362,-0.176859 -0.04608,-0.0973 -0.121007,-0.256433 -0.167085,-0.353986 -0.04608,-0.09703 -0.249819,-0.178803 -0.453412,-0.181003 0,0 -0.115266,-0.0012 -0.241579,-0.0012 -0.14338,0 -0.301047,0.0017 -0.321069,0.0088 -0.0029,0.0012 -0.0066,0.0017 -0.0102,0.0017 -0.0374,0 -0.08701,-0.06171 -0.08701,-0.06171 -0.117474,-0.146203 -0.303698,-0.389307 -0.413666,-0.539518 0,0 -0.0093,-0.03894 -0.102317,-0.184237 -0.09363,-0.145556 -0.125129,-0.348812 -0.06964,-0.451926 0.05521,-0.102855 0.100398,-0.187345 0.269987,-0.577556 0,0 -0.06962,-0.06093 -0.154126,-0.135204 -0.08451,-0.07466 -0.223619,-0.196784 -0.308559,-0.271179 -0.04534,-0.0397 -0.130285,-0.06016 -0.228769,-0.06016 -0.08523,0 -0.180773,0.01539 -0.268516,0.04645 0,0 -0.197115,0.06754 -0.315031,0.116573 -0.09923,0.04139 -0.218904,0.06883 -0.291039,0.06883 -0.01398,0 -0.02576,-8.19e-4 -0.03534,-0.0029 -0.06184,-0.01265 -0.444579,-0.232889 -0.611668,-0.335359 0,0 -0.0082,-0.02082 -0.150449,-0.118641 -0.142646,-0.09794 -0.254824,-0.2695 -0.249227,-0.381673 0.0052,-0.111787 0.0098,-0.203514 -0.0035,-0.6211557 0,0 -0.09083,-0.032846 -0.201238,-0.073104 -0.110408,-0.040372 -0.292071,-0.1063462 -0.40292,-0.1467151 -0.02149,-0.00782 -0.04653,-0.011527 -0.0739,-0.011527 -0.115416,0 -0.274553,0.064558 -0.391733,0.1656042 0,0 -0.151482,0.127315 -0.238042,0.2102476 -0.08597,0.082794 -0.207568,0.155641 -0.270133,0.162113 -0.0022,2.49e-4 -0.0052,3.71e-4 -0.0087,3.71e-4 -0.08657,0 -0.512006,-0.07776 -0.702203,-0.119676 0,0 -0.528641,-0.1164411 -0.528641,-0.1882494 0,-0.0718 -0.212129,-0.5234727 -0.212129,-0.5234727 -0.07759,-0.1654787 -0.141325,-0.3009406 -0.576925,-0.3009406 -0.435896,0 -0.49934,0.1353316 -0.577073,0.3009406 0,0 -0.211837,0.4515386 -0.211837,0.5234727 0,0.071812 -0.100246,0.098197 -0.100246,0.098197 -0.194913,0.051887 -0.519071,0.1154064 -0.720751,0.1417984 0,0 -0.0268,-0.0067 -0.140147,-0.0067 -0.02576,0 -0.05579,2.48e-4 -0.09097,0.0012 -0.0054,1.27e-4 -0.01089,2.53e-4 -0.01635,2.53e-4 -0.187842,0 -0.410571,-0.075303 -0.501695,-0.1710437 -0.09392,-0.098718 -0.17062,-0.1794511 -0.516128,-0.4664144 0,0 -0.09054,0.03297 -0.201235,0.073489 -0.110705,0.040371 -0.291775,0.1064822 -0.402628,0.1465906 -0.110556,0.040496 -0.200942,0.2198155 -0.200354,0.3988785 0,0 -0.0029,0.197175 0.0098,0.32578 0.01311,0.128475 -0.0022,0.282956 -0.03399,0.343245 -0.03194,0.06016 -0.4148425,0.299257 -0.5895845,0.391375 0,0 -0.03987,0.0029 -0.215813,0.0709 -0.09422,0.03646 -0.2099249,0.05486 -0.3173859,0.05486 -0.09319,0 -0.180042,-0.01384 -0.240841,-0.04218 -0.131157,-0.06087 -0.2384751,-0.110551 -0.6827608,-0.259473 0,0 -0.069332,0.06093 -0.1539846,0.13533 -0.0848,0.0744 -0.2234645,0.196271 -0.308261,0.270796 -0.084648,0.07427 -0.089507,0.270274 -0.01102,0.435367 0,0 0.2172818,0.455676 0.2808795,0.511956 0.063735,0.05602 0.018385,0.133261 0.018385,0.133261 -0.093184,0.15901 -0.2695436,0.406514 -0.3918742,0.549091 0,0 -0.034905,0.01514 -0.1703274,0.135979 -0.126307,0.112818 -0.3385853,0.197048 -0.4881553,0.197048 -0.010413,0 -0.020435,-4.2e-4 -0.030327,-0.0012 -0.1042264,-0.0092 -0.195352,-0.01707 -0.4013022,-0.01707 -0.089941,0 -0.2018264,0.0012 -0.346537,0.0051 0,0 -0.037389,0.07983 -0.083325,0.176995 -0.045925,0.09729 -0.1208587,0.256689 -0.1667892,0.353724 -0.045773,0.0973 0.035035,0.279721 0.1800418,0.405609 0,0 0.1595761,0.144261 0.2773445,0.228745 0.1176253,0.08397 0.2396609,0.203645 0.2710166,0.265876 0.03151,0.06185 -0.032985,0.459951 -0.073606,0.635131 0,0 -0.1021655,0.438727 -0.1357274,0.438727 -0.03356,0 -0.5103857,0.181133 -0.5103857,0.181133 -0.1866669,0.07078 -0.3394747,0.129121 -0.3394747,0.512215 0,0.383093 0.1528078,0.44093 0.3394736,0.51196 0,0 0.4768194,0.18126 0.5103857,0.18126 0.03369,0 0.05137,0.07284 0.05137,0.07284 0.042834,0.17479 0.1079034,0.462018 0.1448593,0.638105 0,0 -0.00976,0.02393 0.01486,0.18139 0.024579,0.157198 -0.030327,0.347385 -0.121747,0.422428 -0.091709,0.07492 -0.1664974,0.136235 -0.4930092,0.440023 0,0 0.03753,0.07944 0.083173,0.176603 0.045925,0.09717 0.1922563,0.287872 0.3248956,0.423594 1.388e-4,2.48e-4 0.1782716,0.181907 0.4878613,0.181907 z m 4.0832191,0.644705 c -0.077,0.06754 -0.183576,0.10247 -0.289861,0.10247 -0.09231,0 -0.184752,-0.02611 -0.257769,-0.07879 L 9.6728575,19.638496 c -0.132639,-0.136108 -0.123216,-0.350232 0.02075,-0.477155 l 1.6227185,-1.425902 c 0.07184,-0.06314 0.166646,-0.09484 0.261599,-0.09484 0.0948,0 0.1899,0.03171 0.261887,0.09484 l 0.851184,0.747818 c 0.143969,0.126667 0.143969,0.333545 0,0.460336 z m 4.323763,0.909284 c 0,0 -0.803631,0.178286 -1.429724,0.178286 -0.557932,0 -1.243795,-0.13507 -1.243795,-0.13507 -0.198734,-0.03945 -0.243486,-0.174925 -0.09951,-0.301457 l 1.20272,-1.056783 c 0.07213,-0.06339 0.167233,-0.09509 0.262182,-0.09509 0.09481,0 0.189761,0.03171 0.2616,0.09509 l 1.143689,1.005416 c 0.144118,0.126148 0.100246,0.265362 -0.09715,0.309608 z m -2.421342,-4.99732 0.7365,-0.647682 c 0.07199,-0.063 0.166794,-0.09471 0.26189,-0.09471 0.09495,0 0.189905,0.0317 0.261892,0.09471 l 0.851179,0.747692 c 0.144117,0.126792 0.144117,0.333673 1.43e-4,0.460593 l -0.736796,0.647552 c -0.07184,0.06313 -0.166788,0.09497 -0.261886,0.09497 -0.09496,0 -0.18976,-0.03184 -0.261891,-0.09497 l -0.851031,-0.747947 c -0.143974,-0.126667 -0.143974,-0.333416 0,-0.460208 z m 5.303899,3.364928 -0.734149,0.652465 c -0.07302,0.0555 -0.166496,0.08268 -0.259383,0.08268 -0.103348,0 -0.206984,-0.03377 -0.282649,-0.100272 l -1.507155,-1.3246 c -0.144122,-0.126663 -0.144122,-0.33354 0,-0.460464 l 0.736352,-0.64716 c 0.07228,-0.06328 0.167234,-0.09497 0.26204,-0.09497 0.0948,0 0.189607,0.03171 0.261742,0.09497 l 1.500679,1.319032 c 0.143677,0.126018 0.154133,0.341564 0.02253,0.478322 z m 0.785227,-4.286249 c 0.05713,-0.05033 0.115564,-0.07438 0.16841,-0.07438 0.08053,0 0.147509,0.05628 0.174593,0.161592 l 0.125868,0.768911 c 0.01547,0.178416 0.01473,0.470557 -0.0022,0.648713 l -0.155898,0.879269 c -0.02917,0.104805 -0.09774,0.160171 -0.179156,0.160171 -0.05372,0 -0.113207,-0.02419 -0.17018,-0.07452 l -1.12396,-0.987822 c -0.144124,-0.126662 -0.144124,-0.33367 0,-0.460333 z m -2.100863,-2.584114 c 0.07582,-0.06689 0.179454,-0.100532 0.283239,-0.100532 0.09334,0 0.186666,0.02704 0.259532,0.08216 l 0.843675,0.758303 c 0.129692,0.138179 0.117619,0.354891 -0.0265,0.481296 l -1.567811,1.378029 c -0.07199,0.06288 -0.166789,0.09471 -0.261594,0.09471 -0.09495,0 -0.189757,-0.03185 -0.261892,-0.09471 l -0.851174,-0.748338 c -0.144267,-0.126536 -0.144267,-0.333675 0,-0.45995 z m -4.36542,-0.987692 c 0,0 0.765646,-0.163795 1.368775,-0.163795 0.607248,0 1.378935,0.165995 1.378935,0.165995 0.197854,0.04243 0.24231,0.180742 0.09774,0.307408 l -1.208164,1.061696 c -0.07199,0.06313 -0.16694,0.09497 -0.261743,0.09497 -0.09495,0 -0.189755,-0.03185 -0.261743,-0.09497 L 12.510657,12.0819 c -0.144118,-0.126406 -0.100245,-0.264714 0.0976,-0.306761 z M 9.7014165,13.383207 10.443657,12.73786 c 0.07301,-0.05421 0.165909,-0.08099 0.258801,-0.08099 0.104671,0 0.20948,0.03415 0.285887,0.101178 l 1.587975,1.395631 c 0.143974,0.126532 0.143974,0.333671 0,0.460207 l -0.736649,0.647417 c -0.07214,0.06314 -0.166941,0.09471 -0.261891,0.09471 -0.09496,0 -0.189755,-0.03159 -0.261742,-0.09471 L 9.7214375,13.859722 c -0.143826,-0.126406 -0.152956,-0.340788 -0.02,-0.476509 z m -1.2863393,2.820498 0.1717961,-0.932833 c 0.030327,-0.104544 0.09966,-0.159788 0.1816583,-0.159788 0.05403,0 0.113651,0.02431 0.170916,0.07453 l 1.2315744,1.082396 c 0.143975,0.126662 0.143975,0.333545 0,0.460207 l -1.2488024,1.097146 c -0.05726,0.05046 -0.116587,0.07478 -0.1703219,0.07478 -0.081557,0 -0.1503032,-0.05602 -0.1794495,-0.160692 L 8.4140446,16.852036 C 8.3974056,16.67375 8.3978716,16.382253 8.414882,16.20371 Z"
       id="path257"
       style="fill:#501616;stroke-width:3.125" />
  </g>
</svg>
