<?xml version="1.0" encoding="UTF-8" standalone="no"?>
<!-- Created with Inkscape (http://www.inkscape.org/) -->

<svg
   width="32.0px"
   height="32.0px"
   viewBox="0 0 32.0 32.0"
   version="1.1"
   id="SVGRoot"
   sodipodi:docname="wilderness_hut.svg"
   inkscape:version="1.2.2 (732a01da63, 2022-12-09)"
   xmlns:inkscape="http://www.inkscape.org/namespaces/inkscape"
   xmlns:sodipodi="http://sodipodi.sourceforge.net/DTD/sodipodi-0.dtd"
   xmlns="http://www.w3.org/2000/svg"
   xmlns:svg="http://www.w3.org/2000/svg">
  <sodipodi:namedview
     id="namedview1634"
     pagecolor="#ffffff"
     bordercolor="#000000"
     borderopacity="0.25"
     inkscape:showpageshadow="2"
     inkscape:pageopacity="0.0"
     inkscape:pagecheckerboard="0"
     inkscape:deskcolor="#d1d1d1"
     inkscape:document-units="px"
     showgrid="true"
     inkscape:zoom="26.6875"
     inkscape:cx="8.3747073"
     inkscape:cy="16"
     inkscape:window-width="1858"
     inkscape:window-height="1057"
     inkscape:window-x="1420"
     inkscape:window-y="-8"
     inkscape:window-maximized="1"
     inkscape:current-layer="layer1">
    <inkscape:grid
       type="xygrid"
       id="grid1757" />
  </sodipodi:namedview>
  <defs
     id="defs1629" />
  <g
     inkscape:label="Layer 1"
     inkscape:groupmode="layer"
     id="layer1">
    <path
       id="rect4292-7-6-2"
       style="fill:#ffffff;fill-opacity:1;stroke:none;stroke-width:1.00157;stroke-linecap:round;stroke-linejoin:round;stroke-dasharray:none;paint-order:fill markers stroke"
       d="M 20.424375,0.53745654 C 18.779576,0.65226236 17.708527,2.349596 17.911001,3.9014483 17.951437,4.476508 17.168233,3.6826602 16.812227,3.6055678 15.963376,3.6894006 15.021296,3.44037 14.315895,4.0363751 10.164328,6.344391 5.951301,8.5588048 1.7081875,10.683446 c -0.88534597,0.540782 -1.35602969,1.647438 -1.02786645,2.645205 0.42383565,1.384208 1.93642885,2.147587 3.30404915,2.257251 0,3.378439 0,6.75688 0,10.13532 -1.7471909,0.419174 -2.5151369,2.577655 -1.7554113,4.111465 0.553308,1.246994 2.0143644,1.721143 3.2940732,1.568688 7.3762149,-0.01255 14.7542879,0.02509 22.1293419,-0.01882 1.620436,-0.109811 2.774055,-1.764977 2.490254,-3.322423 -0.113111,-1.093536 -0.946343,-2.05777 -2.011704,-2.338912 0,-3.384721 0,-6.769444 0,-10.154166 1.676241,0.04014 3.530859,-1.402488 3.313342,-3.194379 C 31.29512,11.11839 30.108717,10.485358 29.073936,10.018812 27.221384,9.0630951 25.373111,8.0994578 23.525906,7.1335188 23.460043,5.6181649 23.665976,4.0765615 23.406761,2.5784667 23.062043,1.2818723 21.771379,0.37155827 20.424375,0.53745654 Z" />
    <path
       id="rect4292-7-6"
       style="fill:#a80012;fill-opacity:1;stroke:none;stroke-width:1.00157;stroke-linecap:round;stroke-linejoin:round;stroke-dasharray:none;paint-order:fill markers stroke"
       d="M 20.818359 1.9804688 C 20.360329 1.9804688 19.992188 2.4268049 19.992188 2.9804688 L 19.992188 18 L 13.5 18 L 13.5 20 L 13.5 28 L 15.300781 28 L 15.300781 20 L 19.992188 20 L 19.992188 27.824219 C 19.992188 28.377883 20.360329 28.822266 20.818359 28.822266 L 20.964844 28.822266 C 21.422874 28.822266 21.791016 28.377883 21.791016 27.824219 L 21.791016 2.9804688 C 21.791016 2.4268049 21.422874 1.9804688 20.964844 1.9804688 L 20.818359 1.9804688 z " />
    <path
       id="path15803"
       style="fill:#a80012;fill-opacity:1;stroke-width:0.999996"
       d="M 15.962891 4.9628906 C 14.06149 6.0753737 6.0959636 10.393743 2.2128906 12.240234 C 1.5681983 12.966583 3.4351608 13.728367 3.8496094 13.574219 L 3.8515625 13.574219 L 5.609375 13.064453 L 5.609375 27.980469 L 4.3984375 27.980469 C 3.906979 27.980469 3.5117188 28.356892 3.5117188 28.822266 L 3.5117188 29.140625 C 3.5117188 29.605998 3.906979 29.980469 4.3984375 29.980469 L 27.757812 29.980469 C 28.249271 29.980469 28.644531 29.605998 28.644531 29.140625 L 28.644531 28.822266 C 28.644531 28.356892 28.249271 27.980469 27.757812 27.980469 L 26.546875 27.980469 L 26.546875 13.068359 C 27.236285 13.274505 27.921845 13.486123 28.630859 13.630859 C 29.466322 13.453359 30.70334 12.556443 29.486328 12.056641 C 25.166804 9.8301724 17.658632 5.8648588 16.070312 5.0175781 C 16.011123 5.0035381 16.01555 4.9722906 15.962891 4.9628906 z M 16.015625 10.617188 C 18.737289 11.053836 21.626419 11.823148 24.046875 12.419922 L 24.046875 27.980469 L 8.109375 27.980469 L 8.109375 12.361328 C 10.780319 11.630653 13.245215 11.046336 16.015625 10.617188 z " />
  </g>
</svg>
