<?xml version="1.0" encoding="UTF-8" standalone="no"?>
<!-- Created with Inkscape (http://www.inkscape.org/) -->

<svg
   width="32.0px"
   height="32.0px"
   viewBox="0 0 32.0 32.0"
   version="1.1"
   id="SVGRoot"
   xmlns="http://www.w3.org/2000/svg"
   xmlns:svg="http://www.w3.org/2000/svg">
  <defs
     id="defs40785" />
  <g
     id="layer1">
    <path
       id="path4162-6"
       style="opacity:0.75;fill:#ffffff;fill-opacity:1;stroke-width:0.053022"
       d="M 22.586883,2.1080578 C 21.183458,2.1736534 20.521498,3.551703 19.717454,4.4829799 18.654309,5.8213563 17.591165,7.1597318 16.528019,8.498107 16.008003,8.1342723 15.503364,8.8296126 15.210482,7.9620968 13.792623,6.2199736 12.462452,4.3970927 10.991025,2.7043153 9.9732261,1.7688246 8.2745997,1.9699693 7.3893847,2.9922724 6.482235,3.8602174 5.3753651,4.5506985 4.599054,5.5369988 3.8440357,6.6344414 4.3114254,8.213603 5.4385723,8.8724218 7.3202333,10.347456 9.2018944,11.82249 11.083554,13.297524 10.687707,13.859701 9.9568297,14.22428 9.4335161,14.711278 7.8782944,15.98063 6.2476563,17.165238 4.7396996,18.48772 c -0.8712732,1.034878 -0.609275,2.701233 0.5039656,3.459128 0.9942741,0.801861 1.8732913,1.765115 2.9404592,2.466252 0.4494305,0.244304 1.1907582,0.105275 0.824903,0.809154 -0.1583869,0.51233 0.040341,1.444688 -0.7739151,1.185605 -0.8479699,-0.260299 -0.7524574,0.414747 -0.7139614,1.033268 0,1.221137 0,2.442273 0,3.663409 5.6850411,0 11.3700851,0 17.0551271,0 -10e-7,-1.565559 0,-3.131119 0,-4.696677 -0.527567,-0.06354 -1.406032,0.279184 -1.266339,-0.556885 0.0578,-0.389531 -0.416771,-1.142577 -0.0011,-1.2818 1.193573,-0.287159 1.917636,-1.399126 2.868122,-2.092026 0.815577,-0.647357 1.744276,-1.423512 1.693788,-2.56571 0.01902,-1.113122 -0.880968,-1.874268 -1.720159,-2.461214 -1.684513,-1.340203 -3.369025,-2.680404 -5.053538,-4.020606 0.149755,-0.474183 0.868461,-0.734921 1.237463,-1.126852 C 24.00203,10.952975 25.747294,9.6908582 27.366924,8.2871238 28.245083,7.2563763 27.983122,5.5892475 26.874711,4.8273299 25.870356,4.0197044 24.99768,3.0282066 23.906145,2.3409879 23.498575,2.1490963 23.035775,2.0580471 22.586883,2.1080578 Z" />
    <path
       id="path4162"
       d="M 13.028429,11.650429 16.100179,10 l 2.904326,1.628511 c 0,0 3.328606,17.704391 2.968207,17.595818 L 10,29.213437 Z"
       opacity="0.5"
       fill="#734a08"
       fill-rule="evenodd"
       style="opacity:1;fill:#7b6500;fill-opacity:1;stroke-width:0.053022" />
    <path
       d="m 23.136687,3.1174494 c -0.176882,0.00219 -0.349001,0.076427 -0.458192,0.2079929 L 16.031299,11.768001 9.4030583,3.3254423 C 9.1758051,3.0738875 8.7923161,3.0518941 8.5508618,3.2526679 L 5.7101821,5.721835 C 5.4639945,5.9380861 5.4687488,6.308796 5.7291131,6.5162173 L 14.042799,13.091941 5.7101509,19.755933 C 5.4497557,19.963356 5.445009,20.32965 5.6912199,20.550316 l 2.7933302,2.458134 c 0.2509286,0.216251 0.6486185,0.185391 0.8522041,-0.07501 l 6.6282398,-8.473411 6.675585,8.429286 c 0.203577,0.255962 0.601274,0.291237 0.852203,0.07499 l 2.793322,-2.458135 c 0.246193,-0.216251 0.241442,-0.58696 -0.01894,-0.794381 l -8.247385,-6.61986 8.285297,-6.5757225 C 26.565471,6.3087851 26.570225,5.94249 26.324006,5.7218242 L 23.53069,3.2504274 C 23.414697,3.1577463 23.274252,3.1157584 23.136679,3.1174202 Z m -7.086433,9.6964526 0.3598,0.326599 -0.3598,0.326598 -0.359802,-0.326598 z"
       id="path4144"
       fill="#734a08"
       isolation="auto"
       color-rendering="auto"
       white-space="normal"
       solid-opacity="1"
       mix-blend-mode="normal"
       color-interpolation-filters="linearRGB"
       shape-rendering="auto"
       fill-rule="evenodd"
       image-rendering="auto"
       color-interpolation="sRGB"
       color="#000000"
       solid-color="#000000"
       style="fill:#00006a;fill-opacity:1;stroke-width:0.0504354" />
    <rect
       style="opacity:1;fill:#000000;fill-opacity:1;stroke:none;stroke-width:2.20001;stroke-linecap:round;stroke-linejoin:round;paint-order:fill markers stroke"
       id="rect42248"
       width="14"
       height="1"
       x="9"
       y="29"
       ry="0"
       rx="0" />
  </g>
</svg>
