<?xml version="1.0" encoding="UTF-8" standalone="no"?>
<!-- Created with Inkscape (http://www.inkscape.org/) -->

<svg
   width="24"
   height="32"
   viewBox="0 0 24 32"
   version="1.1"
   id="SVGRoot"
   xmlns="http://www.w3.org/2000/svg"
   xmlns:svg="http://www.w3.org/2000/svg">
  <defs
     id="defs1969" />
  <g
     id="layer1">
    <path
       id="path5048-1"
       style="color:#000000;fill:#ffffff;stroke-width:0.999992;stroke-linecap:round;stroke-linejoin:round;-inkscape-stroke:none;paint-order:fill markers stroke"
       d="M 10.035724,0.8802635 C 8.5903639,0.74883877 7.1359062,1.5807456 6.4962409,3.0099474 5.3259387,5.6603195 4.5585453,8.5246567 4.1324066,11.424727 c -0.4384404,2.812658 -0.095707,5.936354 1.6614582,8.1729 0.967401,1.277799 2.2599965,2.289644 3.7182466,2.78986 0,1.181722 0,2.363444 0,3.545167 -0.9666765,-0.09342 -2.1284157,0.05596 -2.6294836,1.095578 -0.7183417,1.367168 -0.305658,3.621393 1.2737613,3.992633 1.5027407,0.16436 3.0337289,0.02617 4.5473779,0.07176 1.062171,-0.08812 2.188487,0.207338 3.202095,-0.215057 1.695293,-0.866622 1.631602,-4.060375 -0.135902,-4.800958 -0.535763,-0.213895 -1.11009,-0.126708 -1.66774,-0.143948 0.0011,-1.15219 -0.0023,-2.309315 0.0017,-3.458429 C 17.423879,21.4899 19.82234,17.93078 19.858999,14.222449 19.923993,10.694153 18.96924,7.2423266 17.816386,3.9784317 17.341122,2.4539031 16.222555,0.99812501 14.64964,0.88580585 c -1.535377,-0.0677953 -3.077052,0.005461 -4.613909,-0.005537 z" />
    <path
       style="fill:#aa0000;stroke:#000000;stroke-width:0.4;stroke-linecap:square;stroke-linejoin:round;stroke-dasharray:none;paint-order:fill markers stroke"
       d="M 11.034442,20.263554 C 10.175231,20.189476 9.377673,19.897341 8.491458,19.332111 7.2540739,18.542902 6.4245756,17.556825 5.9244605,16.280555 5.3437593,14.798633 5.3494176,12.950233 5.9429677,10.236679 l 0.1286161,-0.5880012 5.1220972,0.00535 c 2.817156,0.00288 5.496855,0.015939 5.954888,0.028915 l 0.832787,0.023605 0.06984,0.3084582 c 0.10918,0.482242 0.312688,1.64762 0.380428,2.178496 0.08859,0.694267 0.118536,1.861265 0.06086,2.371281 -0.180068,1.592042 -0.770625,2.847583 -1.827945,3.886261 -1.054349,1.03576 -2.257399,1.654935 -3.496166,1.799377 -0.316987,0.03696 -1.755031,0.04583 -2.133913,0.01316 z"
       id="path5486" />
    <path
       style="color:#000000;fill:#000000;stroke-linecap:round;stroke-linejoin:round;-inkscape-stroke:none;paint-order:fill markers stroke"
       d="m 14.293737,1.9199127 c -1.180909,0.00625 -3.192904,0.019144 -4.3789055,0.025391 -0.593,0.00312 -1.162237,-7.837e-4 -1.664063,0.3945313 -0.501826,0.395315 -0.812216,1.0213985 -1.25,2.1328125 C 6.1251505,6.695605 4.745772,11.03153 4.946081,14.226554 c 0.2003005,3.194881 2.0749365,5.019447 3.5156255,5.910156 1.440524,0.890605 2.5870385,0.925425 3.5761705,0.931641 0.989099,0.0063 2.185667,-0.01092 3.644532,-0.91211 1.458763,-0.90113 3.302369,-2.752399 3.501953,-5.955078 C 19.383948,10.998427 18.031483,6.661183 17.176549,4.439444 16.749053,3.3284998 16.447741,2.7038537 15.949987,2.3066315 15.452233,1.9094092 14.884191,1.9167912 14.293737,1.9199127 Z m 0.0039,1.0996094 c 0.58988,-0.00312 0.785472,0.00178 0.966797,0.1464844 0.181324,0.1447023 0.475721,0.6069278 0.884765,1.6699219 0.818148,2.1261414 2.11301,6.4804886 1.9375,9.2968756 -0.175514,2.816442 -1.729824,4.315322 -2.980468,5.08789 -1.250543,0.772506 -2.078155,0.754271 -3.0625,0.748047 -0.984312,-0.0062 -1.759006,0.0021 -3.0039055,-0.767578 -1.244737,-0.769561 -2.820497,-2.242105 -2.996094,-5.042969 -0.175589,-2.800722 1.143723,-7.1569793 1.980469,-9.28125 0.418398,-1.0622003 0.718231,-1.5222243 0.908203,-1.671875 0.189971,-0.1496508 0.394692,-0.1570305 0.988281,-0.1601563 1.1871745,-0.00625 3.1971955,-0.019152 4.3769525,-0.025391 z"
       id="path5048" />
    <path
       style="fill:none;stroke:#ffffff;stroke-width:0.6;stroke-linecap:round;stroke-linejoin:round;stroke-dasharray:none;paint-order:fill markers stroke"
       d="m 12.590165,17.948477 c 0.616202,-0.637087 1.232322,-1.274089 1.713078,-2.310415 0.480757,-1.036326 0.826378,-2.472675 1.172168,-3.909725"
       id="path7057" />
    <path
       id="rect1212"
       style="fill:#000000;stroke:none;stroke-width:0.4;stroke-linecap:round;stroke-linejoin:round;stroke-dasharray:none;paint-order:fill markers stroke"
       d="M 11.300781 20.345703 L 11.300781 28.458984 L 8.2675781 28.458984 C 8.0669661 28.458984 7.90625 28.675449 7.90625 28.945312 L 7.90625 29.433594 C 7.90625 29.703458 8.0669661 29.919922 8.2675781 29.919922 L 15.675781 29.919922 C 15.876393 29.919922 16.037109 29.703458 16.037109 29.433594 L 16.037109 28.945312 C 16.037109 28.675449 15.876393 28.458984 15.675781 28.458984 L 12.574219 28.458984 L 12.574219 20.345703 L 11.300781 20.345703 z " />
  </g>
</svg>
