<?xml version="1.0" encoding="UTF-8" standalone="no"?>
<!-- Created with Inkscape (http://www.inkscape.org/) -->

<svg
   width="32"
   height="24"
   viewBox="0 0 32 24"
   version="1.1"
   id="SVGRoot"
   xmlns="http://www.w3.org/2000/svg"
   xmlns:svg="http://www.w3.org/2000/svg">
  <defs
     id="defs548" />
  <g
     id="layer1">
    <path
       id="path4-3"
       style="fill:#ffffff;stroke-width:12.5"
       d="M 11.81771,0.19200088 C 10.702662,0.17706118 9.6281707,0.62206298 8.7337255,1.2642665 7.7285212,1.3409324 6.6637733,1.101846 5.7005224,1.4009853 2.4097844,2.8092283 0.50338713,6.3399866 0.18880363,9.7916099 c -0.20512515,2.8234671 0.029083,5.6768631 0.5078125,8.4628911 0.2448279,1.463066 0.78106367,2.864974 1.66015627,4.066406 1.8443856,0.01764 3.7214291,-0.03572 5.5449219,0.02734 0.9352257,1.100116 2.5020527,0.690756 3.7695317,0.767578 1.094459,0.06493 2.40047,0.02806 3.058686,-1.000207 0.640606,-0.94352 0.539892,-2.185127 0.773753,-3.274338 0.08167,-0.596378 0.171095,-1.191625 0.237873,-1.789908 1.803938,0.714468 3.805831,0.867711 5.710938,0.53125 0.385707,1.464541 0.531385,3.003777 1.091797,4.414062 0.59126,0.88442 1.660387,1.240324 2.689843,1.119141 1.191136,-0.09455 2.459162,0.2207 3.593451,-0.227218 1.140829,-0.486523 1.562764,-1.801898 1.38681,-2.95308 0.08112,-0.530179 -0.313129,-1.300183 0.377944,-1.502125 1.173338,-0.683985 1.073801,-2.172242 1.207696,-3.349201 C 32.302852,11.677951 31.594148,8.0585763 29.700523,5.1685634 28.296573,2.9892179 25.93377,1.5954317 23.422157,1.0891274 20.398302,0.38447978 17.232455,0.44197118 14.186851,0.98106338 13.51946,0.45702308 12.661039,0.20089638 11.81771,0.19200088 Z" />
    <path
       style="fill:#333333;stroke-width:12.5"
       d="m 6.3743675,3.2149464 0.07911,-0.03171 h 3.010639 c 0.434944,-0.402198 1.8044255,-1.5009737 3.2066485,-0.895736 0.30581,0.131804 0.614406,0.413594 0.914469,0.776907 1.242439,-0.290368 6.403239,-1.3202125 11.003619,0.365192 5.02936,1.842348 5.534922,8.4110166 5.390764,9.9386656 -0.02634,0.277223 -0.301017,3.029049 -0.301017,3.029049 -0.02042,0.206329 -0.189654,0.368479 -0.400504,0.383888 -0.208329,0.01336 -0.403073,-0.120023 -0.454927,-0.32093 -0.122907,-0.477703 -0.39245,-1.423034 -0.709231,-2.311685 l 0.142017,6.449882 c 0.0026,0.114603 -0.04249,0.225492 -0.124123,0.307614 -0.08207,0.08212 -0.194309,0.128388 -0.311256,0.128388 h -3.16032 c -0.204933,0 -0.382218,-0.140041 -0.425582,-0.33638 l -1.256416,-5.681686 c -1.087139,0.427209 -3.733412,1.203775 -6.549791,0.06419 -0.789555,-0.320118 -1.632668,-0.1709 -2.118199,0.117933 -0.251736,0.150072 -0.405206,0.333052 -0.420532,0.502715 -0.193874,2.137029 -0.668349,4.948056 -0.673055,4.976397 -0.03483,0.205944 -0.216382,0.356825 -0.42941,0.356825 H 9.6992205 c -0.207456,0 -0.386442,-0.143797 -0.426845,-0.343466 -0.01511,-0.07367 -0.144022,-0.958948 -0.121164,-9.191381 -0.152123,0.155834 -0.372989,0.588508 -0.495331,1.065869 l -0.06592,0.258016 -0.264448,0.05583 c -0.222788,0.04712 -1.359295,0.25012 -1.809564,-0.391399 -0.06078,-0.08669 -0.167924,-0.137523 -0.276334,-0.166717 -0.201972,0.98285 -0.700698,3.896443 -0.376297,7.453604 l 0.04254,0.46477 h -2.408207 l -0.12713,-0.205517 c -0.04506,-0.07209 -1.097371,-1.844822 -1.237699,-8.327229 -0.144546,-6.6595826 4.062563,-8.4202356 4.241547,-8.4918996 z"
       id="path4" />
    <path
       style="fill:#ac9d93;stroke-width:12.5"
       d="m 4.0210565,19.348472 h 0.936634 c -0.315476,-4.284514 0.48044,-7.487793 0.515749,-7.626598 l 0.07523,-0.296771 0.311252,-0.02544 c 0.09483,-0.0096 0.935798,-0.05711 1.373749,0.567293 0.04929,0.07004 0.338419,0.107134 0.657291,0.07755 0.155599,-0.483934 0.4962,-1.281756 1.08592,-1.459315 0.17641,-0.05293 0.529333,-0.09335 0.901364,0.234669 0.4595845,0.404331 0.9897885,0.190919 2.5922845,-0.541855 0.337985,-0.154212 0.713847,-0.3259669 1.134335,-0.5097569 1.947752,-0.8516016 1.588478,-1.7289838 1.576548,-1.7565136 l -0.01955,-0.045415 C 14.537709,6.2631645 13.214159,3.4167104 12.320458,3.0311596 11.223915,2.5588772 9.9743355,3.8506212 9.9620145,3.8631268 L 9.8331865,3.999412 h -3.199465 c -0.519145,0.2492664 -3.752134,2.0316028 -3.630145,7.651609 0.108457,5.010628 0.76958,7.08803 1.01748,7.697451 z"
       id="path872" />
    <path
       style="fill:#ac9d93;stroke-width:12.5"
       d="m 10.027787,20.180817 h 2.313819 c 0.132617,-0.820314 0.455362,-2.896904 0.605872,-4.55546 0.04079,-0.449319 0.337985,-0.86031 0.836319,-1.156654 0.820991,-0.488117 1.959593,-0.557733 2.901796,-0.177602 3.21727,1.301775 6.296831,-0.241328 6.327438,-0.257162 0.119469,-0.06125 0.262752,-0.06462 0.386486,-0.0083 0.122863,0.05668 0.212159,0.165906 0.241069,0.295919 l 1.295947,5.859282 h 2.364365 l -0.177721,-8.075127 c -0.0038,-0.185882 0.115241,-0.353026 0.294664,-0.413039 0.179419,-0.05963 0.37756,3.85e-4 0.490624,0.15003 0.372034,0.492685 0.745367,1.415138 1.045956,2.290044 0.04123,-0.418928 0.07484,-0.755736 0.0829,-0.843234 0.0068,-0.07085 0.25683,-7.197681 -4.827866,-9.060474 -3.979924,-1.456883 -8.553006,-0.735676 -10.155067,-0.406807 0.945075,1.484412 1.709861,3.505984 1.846744,3.878091 0.05403,0.123394 0.211768,0.563152 0.003,1.130446 -0.252998,0.6889811 -0.932407,1.279237 -2.019589,1.754379 -0.415399,0.181742 -0.78699,0.351405 -1.121187,0.504379 -1.257981,0.574592 -2.096868,0.956857 -2.8172025,0.791334 -0.01263,5.577666 0.04698,7.604487 0.081634,8.299955 z"
       id="path870" />
    <ellipse
       cx="6.6972265"
       cy="7.1662793"
       id="circle2"
       style="stroke-width:12.5;fill:#333333"
       transform="matrix(-0.0053023,0.99998594,0.99998654,0.00518773,0,0)"
       rx="0.46838975"
       ry="0.86768788" />
  </g>
</svg>
