<?xml version="1.0" encoding="UTF-8" standalone="no"?>
<!-- Created with Inkscape (http://www.inkscape.org/) -->

<svg
   width="32.0px"
   height="32.0px"
   viewBox="0 0 32.0 32.0"
   version="1.1"
   id="SVGRoot"
   xmlns="http://www.w3.org/2000/svg"
   xmlns:svg="http://www.w3.org/2000/svg">
  <defs
     id="defs7385" />
  <path
     style="color:#000000;fill:#ffffff;stroke-width:1.0261;-inkscape-stroke:none"
     d="M 9.8394634,6.7518745 C 9.1699391,6.6003169 8.349709,6.7038359 7.8141904,6.7882856 7.1554752,6.8920637 6.8071804,7.2880127 6.5255609,7.4679591 5.427276,8.1697871 3.9963144,9.2410005 3.3069654,10.49817 c -0.4538083,0.827567 -0.4781667,1.743277 -0.6711199,2.334355 -0.2986,0.914682 -0.9633658,1.797236 -1.1814093,3.040324 -0.2269691,1.293981 0.095307,2.515519 0.095307,3.546035 -2.39e-5,0.306203 -0.1157427,0.757738 -0.2124551,1.260227 -0.096713,0.502488 -0.1790494,1.088644 0.061553,1.676932 0.3620977,0.885368 1.2877266,1.298133 2.1662479,1.357324 0.4392607,0.0296 0.8908114,-0.03683 1.2866439,-0.277129 0.2449833,-0.148721 0.3354998,-0.481374 0.4765349,-0.76261 0.1859474,0.0064 0.3624508,0.05072 0.5718418,-0.01821 0.1774094,-0.0584 0.3940042,-0.154177 0.542058,-0.416703 C 6.5902212,21.976193 6.5450844,21.61021 6.4143695,21.379013 6.1996072,20.999076 5.932999,20.891604 5.6558849,20.74182 5.3787707,20.592033 5.1100671,20.477759 4.8676168,20.416142 c -0.3901211,-0.09913 -0.6896012,0.07196 -0.9808673,0.250832 0.015566,-0.04063 0.029316,-0.08466 0.099278,-0.198238 0.094703,-0.153737 0.2299574,-0.334125 0.3355598,-0.5846 0.3816212,-0.905095 0.6934103,-1.792675 0.9868243,-2.708579 0.085043,-0.265444 0.1165348,-0.514469 0.1707582,-0.714063 0.054224,-0.199592 0.1329239,-0.291923 0.1111915,-0.277127 0.130995,-0.08917 0.6010018,-0.142299 1.1158858,-0.372203 h 0.00198 c 0.4470627,-0.199744 0.5963784,-0.405699 0.6651631,-0.424796 0.2578264,-0.07153 0.5673783,-0.101857 0.9173295,-0.21442 0.099926,-0.03215 0.1760725,-0.177599 0.2799642,-0.23465 0.4336315,0.636079 0.8541981,1.227498 0.9252718,1.937878 0.021204,0.211814 -0.056856,0.503848 -0.2025272,0.851615 -0.1456719,0.347768 -0.350722,0.733135 -0.4705783,1.179314 -0.1676119,0.624254 -0.1256071,1.127244 -0.2342962,1.496901 -0.1530645,0.520787 -0.5122105,1.097524 -0.7167878,1.820553 -0.1603512,0.566781 -0.078341,0.973869 -0.127076,1.108515 -0.00839,0.02307 -0.2972882,0.299801 -0.6671488,0.59876 -0.1849301,0.14948 -0.3832096,0.318238 -0.5460294,0.562348 -0.1628197,0.244111 -0.2748159,0.603079 -0.2045129,0.960848 0.081073,0.41288 0.4198116,0.669845 0.6790621,0.778793 0.2592507,0.108947 0.4965915,0.140059 0.6592065,0.169918 0.8995111,0.16522 1.8063256,0.06098 2.6010853,-0.05057 0.139485,-0.0196 0.616752,0.09627 1.068232,-0.307472 l 0.002,-0.002 c 0.228397,-0.20497 0.350294,-0.500353 0.379242,-0.750473 0.02895,-0.250121 -0.0075,-0.463717 -0.04369,-0.64933 -0.07224,-0.371228 -0.09949,-0.655486 -0.103249,-0.643263 0.03308,-0.10745 0.36265,-0.425362 0.649278,-0.89814 0.191294,-0.315485 0.304034,-0.673424 0.468592,-1.00535 0.08416,0.300516 0.07628,0.61885 0.200542,0.888025 0.129572,0.28062 0.302111,0.524894 0.430868,0.752496 0.128756,0.227602 0.182921,0.430562 0.182671,0.438956 -0.0019,0.06486 -0.188315,0.325314 -0.478519,0.714061 -0.145104,0.194374 -0.308201,0.433687 -0.369316,0.76261 -0.06112,0.328923 0.02784,0.722491 0.250181,1.043784 0.241526,0.348973 0.617084,0.552549 0.97094,0.610897 0.353854,0.05835 0.687855,0.0061 1.000723,-0.0708 0.625736,-0.153904 1.227565,-0.424633 1.487186,-0.47739 0.123078,-0.025 0.375265,-0.01932 0.681048,-0.07485 0.305783,-0.05553 0.740012,-0.255985 0.933213,-0.683719 0.233472,-0.51675 0.102191,-1.037607 -0.0417,-1.397781 -0.143888,-0.360172 -0.288085,-0.644796 -0.31372,-0.803066 -0.09154,-0.564402 0.058,-1.282446 -0.115161,-2.13814 -0.07696,-0.38025 -0.243647,-0.680271 -0.365344,-0.944664 -0.1213,-0.263528 -0.184478,-0.481039 -0.182673,-0.554258 v -0.002 c 0.0015,-0.03674 0.04187,-0.183153 0.119135,-0.364111 0.0069,-0.01613 0.01454,-0.04206 0.02184,-0.05867 l 2.021301,0.851614 0.77437,0.396477 c -8.5e-5,0.435953 -0.01526,0.905871 0.08141,1.387666 0.05266,0.261517 0.151998,0.397106 0.196572,0.483458 -0.01028,0.0087 -0.0057,0.0065 -0.08141,0.07283 -0.112129,0.09813 -0.276866,0.220388 -0.446751,0.356019 -0.169885,0.135631 -0.349007,0.277081 -0.500362,0.503686 -0.151355,0.226606 -0.241536,0.666228 -0.0556,0.987145 0.181436,0.313242 0.454854,0.454781 0.685018,0.546167 0.230165,0.09139 0.448419,0.13658 0.601625,0.17194 0.441665,0.101898 1.179877,0.219694 1.929966,0.228581 0.738522,0.0087 1.509927,-0.01311 2.045129,-0.59876 -0.05174,0.09016 -0.131941,0.135677 -0.164801,0.250832 -0.09888,0.346535 0.04669,0.828604 0.349459,1.094355 0.449966,0.39485 0.91609,0.345196 1.074189,0.388385 0.450196,0.122948 1.243901,0.263664 2.045129,0.260947 0.400613,-0.0013 0.799353,-0.03468 1.17148,-0.157783 0.372128,-0.123103 0.761581,-0.365939 0.9352,-0.803066 0.273349,-0.688152 0.288565,-1.49952 0.224368,-2.281761 0.133169,0.03002 0.270994,0.06666 0.397112,0.03439 0.354193,-0.0907 0.533319,-0.382614 0.607583,-0.602805 0.07427,-0.22019 0.09661,-0.407049 0.03177,-0.651353 -0.213216,-0.803401 -0.516795,-1.381019 -0.518233,-1.970244 -4.56e-4,-0.182539 0.169251,-0.554383 0.234297,-1.07615 0.139411,-1.118068 0.31784,-2.494588 0.172744,-3.84946 -0.145083,-1.35493 -0.643224,-2.728165 -1.860458,-3.661394 -1.003965,-0.769657 -2.062,-1.312708 -3.091518,-1.909559 C 25.160943,9.7284834 24.272806,9.125577 23.160598,8.9102422 22.274575,8.7386157 21.464233,8.9629715 20.857346,8.9365389 19.320428,8.8694357 17.773004,8.6028748 16.163477,8.4672407 15.353064,8.3988879 14.661782,8.5154184 14.052825,8.4126242 12.685341,8.1818051 11.54505,7.1378991 9.8394634,6.7518745 Z M 9.597225,7.8563438 c 1.353153,0.3062586 2.521239,1.3768819 4.274914,1.6728866 0.843703,0.1424204 1.574144,0.011944 2.200001,0.064731 1.546698,0.1303391 3.108609,0.4022222 4.737552,0.4733436 0.84504,0.03681 1.601965,-0.1495764 2.144407,-0.04451 0.835284,0.161721 1.618945,0.66566 2.456138,1.150995 1.059165,0.614039 2.068711,1.137896 2.972386,1.830669 0.92177,0.706703 1.298429,1.711256 1.423649,2.880519 0.05465,0.510372 -0.04772,1.030173 -0.07545,1.563654 -0.03936,-0.352677 -0.0097,-0.687269 -0.131047,-1.045808 7.76e-4,-0.02919 0.008,-0.03683 0.008,-0.06675 l -0.01589,0.0041 c -0.02762,-0.07767 0.0048,-0.148857 -0.02779,-0.226558 l -1.066246,0.222511 c 0,0.307219 -0.167266,0.757511 -0.146932,1.349234 0.02845,0.801203 0.254877,1.383976 0.21047,1.927763 -0.01,0.122129 -0.08805,0.334265 -0.188628,0.600783 -0.100581,0.266518 -0.230166,0.601403 -0.186644,1.017487 0.07716,0.737449 0.436495,1.219494 0.540074,1.602087 0.203842,0.753361 0.248681,2.284696 0.0039,2.90075 -0.0095,0.02391 -0.05209,0.08482 -0.248195,0.149689 -0.196101,0.06487 -0.501916,0.104069 -0.83195,0.105188 -0.660068,0.0022 -1.430593,-0.133852 -1.755237,-0.222512 -0.349135,-0.09538 -0.574717,-0.152271 -0.587725,-0.139577 0.02636,-0.042 0.05098,-0.09563 0.154874,-0.20026 0.139028,-0.140011 0.327379,-0.297783 0.506317,-0.46323 0.178938,-0.165445 0.371688,-0.299625 0.486462,-0.653377 0.127944,-0.394647 -0.0023,-0.710819 -0.111191,-0.946686 C 26.234573,23.127597 26.107772,22.934 26.051567,22.831459 25.675576,22.145105 25.442206,20.986038 24.33207,20.371689 l -1.153611,-0.637195 0.353429,1.286525 c 0.200971,0.732309 0.115601,1.628267 0.115163,2.569004 -1.76e-4,0.37888 -0.0529,0.715853 -0.09729,0.766655 -0.04969,0.05688 -0.594334,0.242217 -1.233034,0.234648 -0.6387,-0.0076 -1.342927,-0.118414 -1.697654,-0.200259 -0.145391,-0.03356 -0.286619,-0.07106 -0.399099,-0.111257 0.04266,-0.03985 0.05067,-0.05644 0.109205,-0.103166 0.142482,-0.113751 0.317596,-0.24062 0.486464,-0.388384 0.168867,-0.147764 0.357102,-0.302743 0.456679,-0.625057 0.106115,-0.3437 -0.02013,-0.632368 -0.09729,-0.790929 -0.07717,-0.158563 -0.117645,-0.256909 -0.111192,-0.224535 -0.0811,-0.40419 -0.07418,-0.994298 -0.07943,-1.52522 l -0.002,-0.345905 -1.399822,-0.716084 -3.168955,-1.337096 -0.158845,0.629102 c -0.02474,0.097 -0.10613,0.281738 -0.19657,0.493572 -0.09044,0.211836 -0.199998,0.454732 -0.210471,0.778793 v 0.002 c -0.01353,0.438979 0.152396,0.777697 0.287906,1.072104 0.135512,0.294406 0.254052,0.553976 0.281951,0.69181 0.113332,0.56004 -0.02892,1.25426 0.107219,2.093637 0.07371,0.4551 0.275062,0.785023 0.379243,1.045807 0.104182,0.260783 0.121905,0.368432 0.06354,0.497618 -0.01821,0.04033 0.02244,0.01642 -0.12112,0.04248 -0.143556,0.02607 -0.395215,0.01639 -0.702888,0.07889 -0.52607,0.106903 -1.059798,0.372129 -1.528882,0.487503 -0.234543,0.05769 -0.436658,0.07528 -0.561915,0.05461 -0.125256,-0.02065 -0.170005,-0.0433 -0.242238,-0.147668 -0.08951,-0.129344 -0.07353,-0.136935 -0.06552,-0.180032 0.0081,-0.0431 0.05593,-0.146724 0.16083,-0.287243 0.2098,-0.281038 0.683871,-0.660058 0.704875,-1.365416 0.01312,-0.441034 -0.169692,-0.75504 -0.329604,-1.037715 -0.159963,-0.282684 -0.326891,-0.538876 -0.387236,-0.669569 -0.256723,-0.556072 -0.440246,-1.398747 -0.454694,-2.010701 l -0.01192,-0.552235 h -1.014617 l -0.125091,0.392431 c -0.236561,0.744207 -0.58995,1.474176 -1.014622,2.174551 -0.12046,0.198692 -0.569837,0.522925 -0.764441,1.155039 -0.162638,0.528255 0.02028,0.918063 0.07545,1.201565 0.02758,0.141753 0.03308,0.251697 0.02779,0.297359 -0.0053,0.04566 0.0068,0.01731 -0.01,0.03236 0.04519,-0.04041 -0.107503,-0.01509 -0.488448,0.03844 -0.7677792,0.107765 -1.5657052,0.184286 -2.2496406,0.05867 -0.1768219,-0.03247 -0.346294,-0.07027 -0.430867,-0.105189 0.00249,-0.01178 -0.00821,-0.01752 0.01787,-0.05664 0.047687,-0.0715 0.1634608,-0.186854 0.3176898,-0.311517 0.308562,-0.249364 0.7959783,-0.480105 1.0186971,-1.092369 0.2081894,-0.575193 0.1031818,-1.011712 0.1528882,-1.187405 0.143714,-0.507922 0.4978558,-1.083788 0.7108312,-1.808416 0.184959,-0.629054 0.142616,-1.146791 0.244224,-1.52522 0.072819,-0.271081 0.2517983,-0.62785 0.4209383,-1.031647 0.169142,-0.403798 0.337848,-0.87341 0.283935,-1.411941 -0.121759,-1.217005 -0.7353428,-2.12591 -1.3819452,-3.001863 L 8.6798486,13.028745 8.2787652,13.845971 c -0.079977,0.162612 -0.1317633,0.187087 -0.3236466,0.248809 -0.1918833,0.06171 -0.5032766,0.09752 -0.8736472,0.200261 -0.5164202,0.143374 -0.7230425,0.436076 -0.8200369,0.479412 -0.223178,0.09966 -0.7622952,0.111023 -1.2886296,0.469299 -0.3724664,0.253564 -0.4862257,0.623124 -0.5658851,0.916344 -0.079659,0.293221 -0.1239201,0.568901 -0.1548738,0.665515 -0.2869049,0.895584 -0.5865666,1.746953 -0.951084,2.611483 -0.030952,0.07341 -0.1369224,0.235312 -0.2561375,0.428841 -0.1192153,0.19353 -0.2678803,0.427731 -0.2978344,0.772724 -0.028107,0.324227 0.00119,0.686888 0.1350183,1.045807 0.1302818,0.349421 0.3952344,0.703417 0.8041525,0.892072 -0.019429,-5.69e-4 -0.027857,0.0094 -0.047653,0.0081 -0.537876,-0.03624 -1.1027779,-0.39355 -1.2131783,-0.663491 -0.097402,-0.238155 -0.082348,-0.58538 0.00198,-1.023555 0.084334,-0.438174 0.2342537,-0.932959 0.2342965,-1.478694 0,-1.236048 -0.2838806,-2.385914 -0.1151627,-3.347796 C 2.706209,15.160292 3.3168098,14.33214 3.6901301,13.188571 3.9581752,12.367464 4.0110941,11.531258 4.2758708,11.048409 4.7571132,10.170826 6.0995147,9.0758755 7.1152727,8.426784 7.5616791,8.1415437 7.7087722,7.9504254 7.9849488,7.9069147 8.4392632,7.8352706 9.2978233,7.7885694 9.597225,7.8563438 Z M 24.703378,22.604852 c 0.115795,0.251466 0.219724,0.489199 0.377257,0.77677 0.09436,0.172145 0.198234,0.333481 0.258123,0.463229 0.05989,0.129749 0.03621,0.189421 0.06156,0.111257 0.03559,-0.109686 -0.03231,0.03457 -0.178702,0.169918 -0.146388,0.13535 -0.347495,0.301659 -0.540072,0.495595 -0.112524,0.11332 -0.192923,0.291226 -0.289893,0.440979 0.424077,-0.529181 0.365195,-1.150787 0.365344,-1.472626 1.36e-4,-0.29184 -0.06155,-0.662948 -0.05361,-0.985122 z m 5.241883,0.331745 c 0.0012,0.0046 0.0027,0.01166 0.0039,0.01619 -0.02113,-0.07963 -0.0085,-0.01642 -0.01,-0.01213 -4.8e-5,1.45e-4 0.0059,-0.0039 0.006,-0.0041 z"
     id="path9393" />
  <path
     style="color:#000000;fill:#d38d5f;stroke-width:0.3;stroke:#000000;stroke-opacity:1;stroke-dasharray:none"
     d="m 5.232077,22.093339 c 0.3244891,0.08424 1.1214899,0.0134 0.8483306,-0.460839 C 5.9288703,21.369355 5.2157299,21.038092 4.9007385,20.959515 4.4260852,20.841132 3.6286266,21.355121 4.2380614,21.684761 L 4.1054868,22.034999 C 3.5951315,21.82016 3.4496918,21.162761 3.4912297,20.692415 c 0.029261,-0.3308 0.3683156,-0.679633 0.5026393,-0.99236 0.3669751,-0.85432 0.6683986,-1.693891 0.9538182,-2.568422 0.1141024,-0.34958 0.1479409,-1.01118 0.4929455,-1.241721 0.3232958,-0.216012 0.8197725,-0.247508 1.1827752,-0.406608 0.267585,-0.117352 0.4424011,-0.358701 0.7302238,-0.437137 0.6179352,-0.16826 1.2267487,-0.124951 1.5231209,-0.716436 0.6258308,0.83219 1.1482994,1.607726 1.2521684,2.626764 0.07389,0.724486 -0.4876324,1.467303 -0.6771607,2.159844 -0.1324111,0.484064 -0.091544,0.977158 -0.2359697,1.459304 -0.1800302,0.601249 -0.5311977,1.156961 -0.7024986,1.751226 -0.1033131,0.358444 -0.011442,0.766314 -0.1378057,1.109003 -0.2273385,0.613447 -1.525312,0.980045 -1.3709788,1.750969 0.071273,0.35628 0.5428205,0.426304 0.8782294,0.486757 0.7787902,0.14041 1.6171162,0.05371 2.3856241,-0.05217 0.255963,-0.0353 0.566655,0.0077 0.766481,-0.167705 0.482337,-0.424887 -0.08762,-1.227654 0.06866,-1.725903 0.111982,-0.357039 0.495382,-0.668193 0.695601,-0.992358 0.435436,-0.704894 0.804078,-1.447454 1.053666,-2.218172 h 0.06621 c 0.01634,0.679374 0.202049,1.530797 0.497915,2.159844 0.186814,0.397139 0.667892,0.966983 0.654732,1.400924 -0.02256,0.743681 -1.301716,1.230141 -0.688195,2.100358 0.617266,0.875433 2.076077,-0.0052 2.848934,-0.159359 0.423715,-0.0845 0.991874,0.02615 1.19984,-0.425788 0.287071,-0.623675 -0.295636,-1.214837 -0.393359,-1.807069 -0.111981,-0.677701 0.03253,-1.359562 -0.108377,-2.043034 -0.103151,-0.50023 -0.565346,-1.082272 -0.549833,-1.576128 0.01144,-0.347455 0.290928,-0.758918 0.381867,-1.109053 l 2.518166,1.041658 1.060286,0.534405 c 0.005,0.496174 -0.01144,1.089023 0.08812,1.576076 0.04724,0.232617 0.295228,0.467615 0.21959,0.708089 -0.14745,0.468478 -1.449282,0.949206 -1.156277,1.445585 0.161019,0.272871 0.605528,0.366288 0.914896,0.436377 0.783384,0.177418 2.835937,0.444016 3.411861,-0.203053 0.253787,-0.285121 0.2327,-0.759576 0.232863,-1.10278 4.09e-4,-0.86496 0.103804,-1.781357 -0.132574,-2.626814 0.852761,0.463222 1.046652,1.394045 1.474046,2.159856 0.148105,0.26522 0.456525,0.685855 0.355598,0.991433 -0.155787,0.471311 -1.751931,1.207249 -1.01337,1.843574 0.204812,0.176413 0.577002,0.189578 0.840451,0.260221 0.762182,0.204316 3.075814,0.537743 3.43607,-0.352569 0.336733,-0.832099 0.250796,-2.301374 0.01651,-3.151289 -0.137969,-0.50023 -0.458192,-0.934121 -0.51418,-1.459356 -0.0515,-0.483266 0.32851,-0.972354 0.369099,-1.459317 0.0564,-0.677907 -0.181533,-1.273165 -0.205155,-1.926314 -0.01471,-0.420171 0.144835,-0.852851 0.144835,-1.284204 0.727852,1.69952 -0.03401,3.528101 0.495741,5.253603 0.07715,0.251153 0.10724,1.675625 0.678419,1.532176 0.214179,-0.05384 0.277524,-0.380883 0.234531,-0.53988 -0.187516,-0.693546 -0.527241,-1.306786 -0.529072,-2.043021 -9.32e-4,-0.366147 0.189004,-0.743436 0.235447,-1.109119 0.274303,-2.159341 0.65738,-5.16226 -1.446682,-6.745678 -0.93824,-0.706015 -1.954487,-1.221678 -2.981769,-1.806258 C 24.706051,10.573938 23.883336,10.039842 22.925496,9.8578117 22.222932,9.7242295 21.452773,9.9215758 20.738668,9.8910468 19.181596,9.8243163 17.652198,9.5647522 16.099865,9.4363485 15.39346,9.377866 14.693773,9.4977937 13.979308,9.3794118 12.444221,9.1250776 11.308868,8.1032708 9.8044806,7.7690579 9.3279314,7.6631712 8.502078,7.7356946 8.0152462,7.8110519 7.5554361,7.8821583 7.3119957,8.1658883 6.9539291,8.390466 5.9141744,9.0426483 4.5506008,10.088531 3.97489,11.11911 c -0.3534233,0.632628 -0.3913158,1.478085 -0.6180496,2.159844 -0.3304721,0.99366 -0.9582645,1.82044 -1.1440816,2.860281 -0.1946117,1.089061 0.1034765,2.233063 0.1034765,3.32729 -6.55e-5,0.822579 -0.522452,1.8288 -0.1899692,2.626763 0.4647795,1.115495 2.9320739,1.484062 3.1057451,0 z"
     id="path9391" />
  <g
     id="layer1" />
  <ellipse
     style="fill:#000000;fill-opacity:1;stroke:#000000;stroke-width:0.258836;stroke-linecap:round;stroke-dasharray:none;stroke-opacity:1;paint-order:markers fill stroke"
     id="path10195"
     cx="7.0257616"
     cy="11.690866"
     rx="0.92608565"
     ry="0.49517217" />
</svg>
