<svg width="32" height="28" xmlns="http://www.w3.org/2000/svg"><defs><linearGradient id="a" x1="3.842" x2="23.53" y1="20.99" y2="20.99" gradientTransform="matrix(.9013 0 0 .8143 .897 2.028)" gradientUnits="userSpaceOnUse"><stop stop-color="#8686ff" offset="0"/><stop stop-color="#0000c7" offset="1"/></linearGradient></defs><g fill-rule="evenodd" color="#000" paint-order="stroke markers fill"><path d="M2.27 12.26c-.585 3.941-.355 8.303 1.918 11.71 1.914 2.905 5.527 4.181 8.895 4.027 2.626.091 5.391-.444 7.464-2.153 3.615.256 7.482-1.697 8.827-5.179 1.127-2.777.771-6.315-1.337-8.536-1.123-1.14-2.874-1.467-4.379-.998-.4-1.056-.658-1.133-1.658-2.004V6.998l-2-1.481 2-2.519c.02-1.041.225-2.608-1-3L8.6.024c-1.215.051-2.204.83-2.742 1.881L4.002 4.998l2 5c-2.034.029-2.922.7-3.73 2.262z" fill="#f3f3f3" style="font-feature-settings:normal;font-variant-alternates:normal;font-variant-caps:normal;font-variant-east-asian:normal;font-variant-ligatures:normal;font-variant-numeric:normal;font-variant-position:normal;font-variation-settings:normal;inline-size:0;isolation:auto;mix-blend-mode:normal;shape-margin:0;shape-padding:0;text-decoration-color:#000;text-decoration-line:none;text-decoration-style:solid;text-indent:0;text-orientation:mixed;text-transform:none;white-space:normal"/><path d="M25.11 12.93c-1.331.011-2.502.768-3.539 1.529-2.078 2.087-5.357 7.037-2.39 8.972.99.602 2.214.466 3.309.315 1.9-.293 3.721-1.38 4.664-3.087 1.104-1.88 1.108-4.311.126-6.241-.417-.815-1.217-1.493-2.17-1.488zm0 1.979c.428.201.566.749.706 1.172.283.998.29 2.089-.128 3.052-.495 1.332-1.72 2.319-3.106 2.59-.717.134-1.473.256-2.195.095-.722-1.799 1.311-4.222 2.23-5.536.325-.5.9-.759 1.406-1.037.346-.153.705-.314 1.087-.337z" fill="#00006d" style="font-feature-settings:normal;font-variant-alternates:normal;font-variant-caps:normal;font-variant-east-asian:normal;font-variant-ligatures:normal;font-variant-numeric:normal;font-variant-position:normal;font-variation-settings:normal;inline-size:0;isolation:auto;mix-blend-mode:normal;shape-margin:0;shape-padding:0;text-decoration-color:#000;text-decoration-line:none;text-decoration-style:solid;text-indent:0;text-orientation:mixed;text-transform:none;white-space:normal"/><path d="M5 13s-2.231 12.27 7.55 12.24c.467.02.936.006 1.363 0 9.778.027 7.55-12.24 7.55-12.24l-8.231.024z" fill="url(#a)" stroke="#00006d" stroke-linejoin="round" stroke-width="2" style="font-feature-settings:normal;font-variant-alternates:normal;font-variant-caps:normal;font-variant-east-asian:normal;font-variant-ligatures:normal;font-variant-numeric:normal;font-variant-position:normal;font-variation-settings:normal;inline-size:0;isolation:auto;mix-blend-mode:normal;shape-margin:0;shape-padding:0;text-decoration-color:#000;text-decoration-line:none;text-decoration-style:solid;text-indent:0;text-orientation:mixed;text-transform:none;white-space:normal"/></g><g fill="none" stroke="#560000" stroke-linecap="round" stroke-width="1.2" paint-order="fill markers stroke"><path d="M7.211 11.39c.805-.514 1.718-.926 2.342-1.67.44-.594.046-1.365-.448-1.783-.729-.73-1.77-1.276-2.074-2.329-.2-.626.168-1.25.668-1.61.528-.438 1.106-.81 1.675-1.193M11.95 11.18c.805-.514 1.718-.926 2.342-1.67.44-.594.046-1.365-.448-1.783-.729-.73-1.77-1.276-2.074-2.329-.2-.626.168-1.25.668-1.61.528-.438 1.106-.81 1.675-1.193M17.06 11.28c.805-.514 1.718-.926 2.342-1.67.44-.594.046-1.365-.448-1.783-.729-.73-1.77-1.276-2.074-2.329-.2-.626.168-1.25.668-1.61.528-.438 1.106-.81 1.675-1.193"/></g></svg>