<?xml version="1.0" encoding="UTF-8" standalone="no"?>
<!-- Created with Inkscape (http://www.inkscape.org/) -->

<svg
   width="32.0px"
   height="32.0px"
   viewBox="0 0 32.0 32.0"
   version="1.1"
   id="SVGRoot"
   xmlns="http://www.w3.org/2000/svg"
   xmlns:svg="http://www.w3.org/2000/svg">
  <defs
     id="defs1878" />
  <g
     id="layer1">
    <path
       d="m 14.841118,7.9889972 c -2.226439,0.04086 -4.417242,0.1696595 -6.561124,0.7805182 l 0.2485,16.2390426 -0.0171,1.39e-4 c -0.791291,0.424705 -1.244029,1.152958 -1.237992,1.684459 0.017,1.497154 3.687781,2.68251 8.197031,2.646962 4.509255,-0.03556 8.148192,-1.278535 8.131194,-2.775689 -0.0053,-0.469746 -0.371682,-1.136878 -1.009236,-1.517089 L 22.433102,24.95239 22.551692,8.6570051 C 19.935325,8.0607489 17.364418,7.9426928 14.841118,7.9889972 Z"
       id="path3839"
       fill="none"
       stroke="#ffffff"
       stroke-linejoin="round"
       stroke-linecap="round"
       stroke-width="1.75778"
       style="fill:#fbe64b;fill-opacity:1;stroke:#552200;stroke-width:2;stroke-dasharray:none" />
    <path
       id="path3933"
       d="m 8.217275,24.807319 c 1.557133,1.725624 4.666005,2.195989 7.263425,2.125997 2.526412,-0.06807 5.664309,-0.601587 7.07455,-2.11443"
       fill="none"
       stroke="#ffffff"
       stroke-linejoin="round"
       stroke-linecap="round"
       stroke-width="1.50667"
       style="fill:none;stroke:#552200" />
    <path
       id="path3935"
       d="m 23.353536,10.581261 3.92267,-0.199272 c 0.684688,0.145001 1.037642,0.590656 1.064048,1.332277 l -0.950974,8.947216 c -0.02924,0.70926 -0.439687,1.002886 -1.002266,1.130617 l -2.928054,0.398362"
       fill="none"
       stroke="#ffffff"
       stroke-linejoin="round"
       stroke-linecap="round"
       stroke-width="1.42528"
       style="stroke:#552200;stroke-width:1.8;stroke-dasharray:none" />
    <path
       id="path11665-6-8"
       style="fill:#ffffff;fill-opacity:1;stroke:#aa4400;stroke-width:1;stroke-linecap:round;stroke-linejoin:round;stroke-dasharray:none;stroke-opacity:1;paint-order:fill markers stroke"
       d="M 17.755859 1.65625 A 3.9812737 4.0307307 0 0 0 14.806641 2.9863281 A 3.9812737 4.0307307 0 0 0 12.660156 2.3496094 A 3.9812737 4.0307307 0 0 0 9.1425781 4.5136719 A 3.4125202 3.4619772 0 0 0 8.3828125 4.4257812 A 3.4125202 3.4619772 0 0 0 4.9707031 7.8886719 A 3.4125202 3.4619772 0 0 0 8.3828125 11.349609 A 3.4125202 3.4619772 0 0 0 11.035156 10.056641 A 3.9812737 4.0307307 0 0 0 12.660156 10.410156 A 3.9812737 4.0307307 0 0 0 15.609375 9.0820312 A 3.9812737 4.0307307 0 0 0 17.755859 9.71875 A 3.9812737 4.0307307 0 0 0 18.658203 9.6035156 A 3.4125202 3.4619772 0 0 0 21.761719 11.623047 A 3.4125202 3.4619772 0 0 0 25.173828 8.1601562 A 3.4125202 3.4619772 0 0 0 21.761719 4.6992188 A 3.4125202 3.4619772 0 0 0 21.617188 4.7089844 A 3.9812737 4.0307307 0 0 0 17.755859 1.65625 z " />
  </g>
</svg>
