<?xml version="1.0" encoding="UTF-8" standalone="no"?>
<!-- Created with Inkscape (http://www.inkscape.org/) -->

<svg
   width="28"
   height="32"
   viewBox="0 0 28 32"
   version="1.1"
   id="SVGRoot"
   xmlns="http://www.w3.org/2000/svg"
   xmlns:svg="http://www.w3.org/2000/svg">
  <defs
     id="defs3362" />
  <g
     id="layer1">
    <path
       id="path2112-9"
       style="fill:#ffffff;fill-opacity:1;stroke-width:0.0522785"
       d="M 7.9242077,0.83290029 C 7.3900869,0.89278059 6.9400975,1.227494 6.5706921,1.5985253 5.7214286,0.75882369 4.3690118,0.76443159 3.2973064,1.068195 2.0726596,1.57891 1.5771639,2.9713053 1.6465269,4.2173256 1.4444068,7.9134995 1.1404761,11.607664 1.0021622,15.305093 c -0.011593,2.24695 0.6983161,4.694435 2.6583737,6.000464 0.5729719,0.272879 0.9426578,0.600272 0.7147783,1.274945 -0.1764551,2.773583 -0.353801,5.54711 -0.5292315,8.320758 3.0983073,0 6.1966143,0 9.2949213,0 -0.192325,-3.039779 -0.386709,-6.079428 -0.580078,-9.119141 2.032357,-0.999358 3.239861,-3.1772 3.361392,-5.395725 C 16.111536,14.044263 15.741157,11.700423 15.672863,9.3582727 15.507341,7.1844878 15.490432,4.9919896 15.231736,2.8299366 14.797408,1.5315403 13.39678,0.70324539 12.04491,0.90321279 11.499066,0.84357949 10.976289,1.3202078 10.57084,1.3851226 9.8549861,0.71676279 8.8350425,0.72052439 7.9242077,0.83290029 Z" />
    <path
       id="path5520-5"
       style="fill:#ffffff;fill-opacity:1;stroke-width:1.77508"
       d="m 24.920301,0.79188469 c -2.731254,0.1327716 -5.495469,1.22390521 -7.410156,3.20703121 -1.784081,2.0219312 -1.971677,4.8670713 -2.148438,7.4335941 -0.06373,2.259135 -0.278036,4.521668 -0.251074,6.778891 0.191776,1.628031 1.791838,2.632826 3.307715,2.828531 -0.156148,2.219862 -0.430316,4.436515 -0.517578,6.658203 0.104314,1.86762 1.950064,3.067679 3.679385,3.215139 1.998995,0.308202 4.49594,-0.446988 5.219052,-2.51592 0.394939,-1.344199 0.107879,-2.776928 0.195313,-4.158204 0,-7.841796 0,-15.6835935 0,-23.52539031 -0.691406,0.026042 -1.382813,0.052083 -2.074219,0.078125 z" />
    <path
       d="m 10.496053,20.754746 c 2.575955,-0.995898 3.516697,-2.276672 3.516697,-5.677661 L 13.34341,3.7104491 c 0,-0.2209461 -0.407127,-0.5978435 -0.672374,-0.5978434 l -0.507387,2e-7 c -0.26504,0 -0.595389,0.4559221 -0.595389,0.676936 L 11.253432,14.879354 9.9054697,14.918907 9.7079602,3.7560292 C 9.7079602,3.5350716 9.3008269,2.9999999 9.0355852,3 l -0.679215,2e-7 c -0.265108,0 -0.5569669,0.4955253 -0.5569669,0.7164827 L 7.3745382,14.997998 c -1.0273344,0.08177 -0.2228737,0.06907 -1.4972744,-0.03955 L 5.4471703,3.6723249 c 0,-0.2209576 -0.291859,-0.558297 -0.5570378,-0.558297 h -0.699431 c -0.2651773,0 -0.4802606,0.4164323 -0.4802606,0.6373898 L 3.0141965,15.077082 c 0,3.400989 0.9385597,4.68176 3.5144537,5.67766 L 5.9954851,29.110674 H 11.02901 Z"
       id="path2112"
       fill="#ffffff"
       style="fill:#a80012;fill-opacity:1;stroke-width:0.0522785" />
    <path
       d="M 25.013907,3 C 23.139815,3 20.015139,4.1437084 18.765827,5.8583126 17.724693,7.1443535 17.456146,10.01908 17.379091,11.73194 l -0.279334,6.209301 c -0.06421,1.427437 2.457034,1.465878 3.498168,1.465878 l -0.673894,8.042306 c -0.230318,1.739227 2.544937,1.746386 2.544937,1.746386 0,0 2.544939,0 2.544939,-1.746386 z"
       id="path5520"
       style="fill:#a80012;fill-opacity:1;stroke-width:1.77508" />
  </g>
</svg>
