<?xml version="1.0" encoding="UTF-8" standalone="no"?>
<!-- Created with Inkscape (http://www.inkscape.org/) -->

<svg
   width="32.0px"
   height="32.0px"
   viewBox="0 0 32.0 32.0"
   version="1.1"
   id="SVGRoot"
   xmlns="http://www.w3.org/2000/svg"
   xmlns:svg="http://www.w3.org/2000/svg">
  <defs
     id="defs3760" />
  <g
     id="g5004"
     transform="matrix(0.07340988,0,0,0.07203629,-17.920139,5.2517286)"
     stroke="#ffffff"
     stroke-linejoin="round"
     stroke-linecap="round"
     stroke-width="3.434"
     style="fill:#00ff00;fill-opacity:1;stroke:#008080">
    <path
       id="path3198"
       d="M 15.525732,3.7533589 2.817103,13.248125 h 2.541709 v 15.726418 h 7.625195 5.25775 7.450895 V 13.248125 h 2.541726 z"
       fill="none"
       fill-rule="evenodd"
       stroke="#ffffff"
       stroke-linejoin="round"
       stroke-width="0.998905"
       style="fill:#00ca00;fill-opacity:1;stroke:#000000"
       transform="matrix(13.622145,0,0,13.881892,244.11072,-72.903929)" />
    <path
       id="text2413"
       d="m 424.47661,167.17928 c 0.21028,0.10532 0.99921,0.3157 2.36679,0.63114 21.56392,4.20775 41.55535,11.88665 52.39011,23.03672 10.83446,11.15029 16.25177,25.77175 16.25193,43.86443 -1.6e-4,18.51357 -5.94342,34.55511 -17.82979,48.12465 -11.88666,13.56957 -32.14106,20.9329 -53.17904,22.09 l -8.84825,13.78964 h -4.24271 v -13.47407 c -21.45892,-2.41938 -37.92122,-9.38825 -49.38694,-20.90661 -11.46578,-11.51833 -17.93499,-27.63875 -19.40764,-48.36132 l 28.40143,-5.04915 c 2.20896,15.56825 6.67955,27.55995 13.41179,35.97515 6.73213,8.41526 15.72591,13.20143 26.98136,14.3585 v -90.41122 c -21.35373,-4.62827 -37.34267,-12.35976 -47.96686,-23.1945 -10.62427,-10.83448 -15.93638,-24.77221 -15.93636,-41.81322 -2e-5,-16.93548 5.2595,-31.478049 15.77857,-43.627756 10.51901,-12.149271 26.56054,-19.170729 48.12465,-21.064395 V 47.577696 h 13.09096 v 13.569573 c 17.88227,1.788476 35.76989,7.468756 46.07869,17.040859 10.30851,9.572546 16.77772,22.984322 19.40764,40.235362 l -29.50593,4.26021 C 458.77383,111.95446 455.24996,103.46034 449.88537,97.201308 444.52054,90.942683 433.52289,86.919151 424.47661,85.1307 Z m -13.09096,-3.47129 V 84.815128 c -11.46584,1.998833 -20.24923,6.600912 -26.35022,13.806251 -6.1011,7.205741 -9.15162,15.542081 -9.15157,25.009041 -5e-5,10.83478 3.15566,19.3815 9.46714,25.64018 6.31137,6.25898 14.98958,11.07144 26.03465,14.43739 z m 13.09096,117.55037 c 11.04489,-1.68303 23.93597,-6.49549 31.08904,-14.43739 7.15282,-7.94184 10.72929,-17.96123 10.72943,-30.05819 -1.4e-4,-10.62416 -2.70879,-19.17088 -8.12596,-25.64018 -5.41744,-6.46912 -19.17634,-11.96531 -33.69251,-16.4886 z"
       transform="scale(1.0867055,0.9202125)"
       stroke-width="3.434"
       fill="#ffffff"
       style="fill:#ffffff;fill-opacity:1;stroke:#ffffff" />
  </g>
  <g
     id="layer1">
    <path
       d="M 15.55004,8.5679242 V 26.493367"
       id="path4370"
       fill="none"
       fill-rule="evenodd"
       stroke="#ffffff"
       stroke-linejoin="round"
       stroke-linecap="round"
       stroke-width="2.30547"
       style="fill:none;fill-opacity:1;stroke:#ffffff" />
  </g>
</svg>
