<svg width="32" height="32" xmlns="http://www.w3.org/2000/svg"><defs><radialGradient id="b" cx="7" cy="9.019" r="6" gradientTransform="matrix(1.543 0 0 1.203 .45 5.053)" gradientUnits="userSpaceOnUse"><stop stop-color="#90f99a" offset="0"/><stop stop-color="#0d8314" offset="1"/></radialGradient></defs><linearGradient id="a" x1="50.17" x2="90.8" y1="63.09" y2="120.8" gradientTransform="matrix(.2487 -.00789 .0112 .1751 -1.202 9.185)" gradientUnits="userSpaceOnUse"><stop stop-color="#ff1744" offset=".281"/><stop stop-color="#b20500" offset=".654"/><stop stop-color="#eb382f" offset="1"/></linearGradient><g color="#000" paint-order="stroke markers fill"><path d="M12.25 0c-1.528.102-1.848.978-2.968 2.854C8.598 4 8.373 5.493 7.995 7c-1.698-.34-3.397-.322-4.548.319-1.527.85-2.25 1.403-2.426 2.63-1.755 3.212-1.089 7.19.728 10.22.906 1.462 2.113 2.723 3.162 4.088-.127.474-2.237-.005-3.072.612-1.544.551-2.497 2.678-1.294 3.993.667 1.638 2.517.57 3.729 1.24 2.385 1.3 5.103 1.772 7.795 1.855 4.672.317 9.274-1.314 13.27-3.61 2.86-1.691 5.25-4.318 6.102-7.58.466-1.323.586-2.691.544-4.167-.058-2.024-1.13-2.604-1.986-3.188-.422-2.136.27-4.645-.97-6.677-1.739-2.845-6.855-.872-7.373 1.73l-.992.26a5.36 5.36 0 0 0-2.454-1.616c-1.25-.432-2.7-.295-3.901-.076-.312-1.485 1.294-2.272 1.34-3.632-.008-1.242-1.196-1.92-1.905-2.787a2.01 2.01 0 0 0-1.496-.618zm-8.4 29.33c-.02.063-.307.089 0 0z" fill="#f3f3f3" style="font-feature-settings:normal;font-variant-alternates:normal;font-variant-caps:normal;font-variant-east-asian:normal;font-variant-ligatures:normal;font-variant-numeric:normal;font-variant-position:normal;font-variation-settings:normal;inline-size:0;isolation:auto;mix-blend-mode:normal;shape-margin:0;shape-padding:0;text-decoration-color:#000;text-decoration-line:none;text-decoration-style:solid;text-indent:0;text-orientation:mixed;text-transform:none;white-space:normal"/><path d="M22.7 17.04c-.546 1.15.016 2.487-.539 3.647-.664 2.117-2.572 3.558-4.608 4.263-3.715 1.532-7.807 1.721-11.77 1.531-1.218.02-2.638-.22-3.656.584-.426.576.25 1.17.703.624 1.256.276 2.513.587 3.637 1.232 2.36.97 4.968 1.07 7.488 1.071 3.355-.14 6.567-1.348 9.523-2.864 2.64-1.433 5.11-3.609 5.93-6.592.324-1.134 1.023-2.48.275-3.59-.825-1.01-2.23-.925-3.407-.953-1.187-.303-2.736-.3-3.471.85l-.101.197z" fill="url(#a)" style="font-feature-settings:normal;font-variant-alternates:normal;font-variant-caps:normal;font-variant-east-asian:normal;font-variant-ligatures:normal;font-variant-numeric:normal;font-variant-position:normal;font-variation-settings:normal;inline-size:0;isolation:auto;mix-blend-mode:normal;shape-margin:0;shape-padding:0;text-decoration-color:#000;text-decoration-line:none;text-decoration-style:solid;text-indent:0;text-orientation:mixed;text-transform:none;white-space:normal"/><path d="M24.47 15.35s1.136.347 1.394-.035.035-2.65-.175-3.898c-.317-2.413-1.76-2.4-2.078-2.796-.318-.395 1.481-1.473 2.031-1.538.549-.064 1.555.177 1.832 1.398.277 1.22.327 5.846.873 6.72.547.876.356.917.815.981.46.065.332.256.332.256s-.27-.014-.75.153c-.478.166-1.835-.038-2.215-.272-.38-.234-.972.049-1.479-.228-.507-.282-.58-.742-.58-.742z" fill="#455b02" style="font-feature-settings:normal;font-variant-alternates:normal;font-variant-caps:normal;font-variant-east-asian:normal;font-variant-ligatures:normal;font-variant-numeric:normal;font-variant-position:normal;font-variation-settings:normal;inline-size:0;isolation:auto;mix-blend-mode:normal;shape-margin:0;shape-padding:0;text-decoration-color:#000;text-decoration-line:none;text-decoration-style:solid;text-indent:0;text-orientation:mixed;text-transform:none;white-space:normal"/><path d="M3.536 9.832c-.948 1.037-1.543 2.819-1.543 4.43 0 3.222 3.086 8.859 6.172 8.859.87 0 1.543-.403 3.086-1.208 1.543.805 2.217 1.208 3.086 1.208 3.086 0 6.172-5.638 6.172-8.859 0-1.611-.503-3.392-1.543-4.43-1.577-1.574-4.629-1.611-7.716.805-3.086-2.277-6.172-2.586-7.716-.805z" fill="url(#b)" style="font-feature-settings:normal;font-variant-alternates:normal;font-variant-caps:normal;font-variant-east-asian:normal;font-variant-ligatures:normal;font-variant-numeric:normal;font-variant-position:normal;font-variation-settings:normal;inline-size:0;isolation:auto;mix-blend-mode:normal;shape-margin:0;shape-padding:0;text-decoration-color:#000;text-decoration-line:none;text-decoration-style:solid;text-indent:0;text-orientation:mixed;text-transform:none;white-space:normal"/><path d="M12.3 1.995c-.885.924-1.601 2.249-1.823 3.407-.121.633-.176 2.135-.193 2.869.321.197.642.352.965.604.34-.267.672-.45 1.013-.654.027-.636.058-1.968.144-2.416a4.82 4.82 0 0 1 1.244-2.401z" fill="#502900" style="font-feature-settings:normal;font-variant-alternates:normal;font-variant-caps:normal;font-variant-east-asian:normal;font-variant-ligatures:normal;font-variant-numeric:normal;font-variant-position:normal;font-variation-settings:normal;inline-size:0;isolation:auto;mix-blend-mode:normal;shape-margin:0;shape-padding:0;text-decoration-color:#000;text-decoration-line:none;text-decoration-style:solid;text-indent:0;text-orientation:mixed;text-transform:none;white-space:normal"/></g></svg>