<svg width="32" height="32" xmlns="http://www.w3.org/2000/svg"><defs><radialGradient id="a" cx="5.974" cy="4.034" r="2.401" gradientTransform="matrix(1.276 -.0079 .00781 1.261 1.861 2.465)" gradientUnits="userSpaceOnUse"><stop stop-color="#fffd10" offset="0"/><stop stop-color="#d01900" offset="1"/></radialGradient></defs><g paint-order="stroke markers fill"><path d="M9.652 0C8.078-.08 6.915 1.168 6.296 2.484 5.093 4.69 3.892 7.151 4.219 9.736c-.59.666-1.008 1.625-1.369 2.357-1.739-.046-3.101 1.656-2.85 3.338.01 4.689-.02 9.379.016 14.07.144 1.685 1.887 2.715 3.467 2.501 4.416-.01 8.833.018 13.25-.014 1.634-.118 2.799-1.742 2.575-3.324v-9.04c1.259.644 2.594 1.694 4.08 1.052 1.433-.567 1.892-2.154 2.729-3.31 1.865-3.043 3.769-6.064 5.61-9.12.743-1.535-.228-3.378-1.758-3.943-1.954-1.02-3.854-2.156-5.845-3.098-1.476-.527-3.023.406-3.636 1.758l-4.921 7.97c-.88-1.616-.11-3.695-1.106-5.403-.705-1.665-1.428-3.409-2.667-4.75C11.209.263 10.428 0 9.653.002z" color="#000" fill="#f3f3f3" style="font-feature-settings:normal;font-variant-alternates:normal;font-variant-caps:normal;font-variant-east-asian:normal;font-variant-ligatures:normal;font-variant-numeric:normal;font-variant-position:normal;font-variation-settings:normal;inline-size:0;isolation:auto;mix-blend-mode:normal;shape-margin:0;shape-padding:0;text-decoration-color:#000;text-decoration-line:none;text-decoration-style:solid;text-indent:0;text-orientation:mixed;text-transform:none;white-space:normal"/><path fill="#9600f1" d="M3.071 15.04h13.26v13.99H3.071z"/><path d="M9.653 11c1.753 0 2.606-.637 3.013-1.174.774-1.017.643-2.552-.395-4.691a19.503 19.503 0 0 0-1.599-2.677c-.208-.283-.596-.459-1.019-.459-.423 0-.811.175-1.019.459-.037.05-.9 1.238-1.599 2.677-1.038 2.14-1.169 3.674-.395 4.691C7.047 10.361 7.9 11 9.653 11z" color="#000" fill="url(#a)" style="font-feature-settings:normal;font-variant-alternates:normal;font-variant-caps:normal;font-variant-east-asian:normal;font-variant-ligatures:normal;font-variant-numeric:normal;font-variant-position:normal;font-variation-settings:normal;inline-size:0;isolation:auto;mix-blend-mode:normal;shape-margin:0;shape-padding:0;text-decoration-color:#000;text-decoration-line:none;text-decoration-style:solid;text-indent:0;text-orientation:mixed;text-transform:none;white-space:normal"/><path fill="#9600f1" d="M23.346 3.711L29.504 7.2l-7.213 11.137-6.159-3.489z"/><path d="M2.85 14.09h1.173l1.454-2.739a.858.858 0 0 1 .762-.442h6.815c.47 0 .85.356.85.795v2.386h2.06l6.558-10.62c.235-.38.755-.51 1.162-.291l5.891 3.181c.407.22.546.706.311 1.086l-6.803 11.02a.865.865 0 0 1-.736.398.904.904 0 0 1-.425-.107l-4.616-2.493v12.94c0 .44-.381.795-.85.795H2.845c-.47 0-.85-.356-.85-.795v-14.32c0-.439.38-.795.85-.795zm.456 10.25H6v-6.369H3.306zm9.364-12.4H6.429l-.908 2.157h7.149zm9.474 5.813l6.66-10.71-5.343-2.85-6.661 10.71zM16 29.003v-13.91H3.31v1.738h2.72c.5 0 .906.39.906.87v6.952c0 .48-.406.87-.906.87H3.31v3.476z" color="#000" style="font-feature-settings:normal;font-variant-alternates:normal;font-variant-caps:normal;font-variant-east-asian:normal;font-variant-ligatures:normal;font-variant-numeric:normal;font-variant-position:normal;font-variation-settings:normal;inline-size:0;isolation:auto;mix-blend-mode:normal;shape-margin:0;shape-padding:0;text-decoration-color:#000;text-decoration-line:none;text-decoration-style:solid;text-indent:0;text-orientation:mixed;text-transform:none;white-space:normal"/></g></svg>