<?xml version="1.0" encoding="UTF-8" standalone="no"?>
<!-- Created with Inkscape (http://www.inkscape.org/) -->

<svg
   width="32"
   height="22"
   viewBox="0 0 32 22"
   version="1.1"
   id="SVGRoot"
   xmlns="http://www.w3.org/2000/svg"
   xmlns:svg="http://www.w3.org/2000/svg">
  <defs
     id="defs1429" />
  <g
     id="layer1">
    <path
       id="path239-8"
       style="fill:#ffffff;stroke-width:1.562;stroke-dasharray:none"
       class="st0"
       d="M 14.284279,0.72839815 C 13.317079,0.78326815 12.427247,1.4414764 12.111807,2.322147 9.6379983,2.3578942 7.1572124,2.2745516 4.6876337,2.3833798 2.8882319,2.6126184 1.4962374,4.1394369 1.2793013,5.8443812 0.92020547,7.5083886 0.36095584,9.1410776 0.13142451,10.825747 c 0.0223609,2.118304 -0.0630721,4.243749 0.0418215,6.358186 0.24349258,1.978194 2.27223249,3.481992 4.31583619,3.287142 0.6051998,-0.134699 0.8152475,0.583459 1.3072228,0.797777 1.8776385,1.349619 4.771455,0.972064 6.222021,-0.797777 2.588146,0 5.176293,0 7.764439,0 1.526599,1.876692 4.643917,2.155984 6.50807,0.590678 0.376229,-0.42228 0.760443,-0.737508 1.375276,-0.590678 2.185088,0.178054 4.249549,-1.635023 4.242865,-3.751162 -0.07928,-1.409965 0.197333,-2.868148 -0.203785,-4.242795 C 31.291826,11.130286 30.030637,10.260651 28.714853,9.8041296 27.88239,9.3412496 26.771242,9.2186166 26.269138,8.3524026 24.780684,6.5224079 23.292304,4.6923575 21.803801,2.8624003 21.437796,2.6176438 20.675786,2.7380043 20.624085,2.2032905 20.153218,1.0623409 18.820271,0.56642635 17.618894,0.71759265 c -1.111251,0.007654 -2.224432,-0.0150749 -3.334615,0.0108055 z M 8.5352666,16.853172 c 0.8857707,0.02914 0.9565755,1.39268 0.076435,1.49734 -0.8469731,0.219636 -1.3309152,-1.047596 -0.5363516,-1.407297 0.1416897,-0.07003 0.3012731,-0.10088 0.4599212,-0.09005 z m 14.8819974,0 c 0.885772,0.02914 0.956577,1.39268 0.07643,1.49734 -0.846973,0.219636 -1.330916,-1.047596 -0.536352,-1.407297 0.14169,-0.07003 0.301274,-0.10088 0.459922,-0.09005 z" />
    <path
       class="st0"
       d="M 29.319374,11.58052 26.19929,10.150415 C 26.014833,10.065855 25.85262,9.9399636 25.723375,9.7816636 L 20.80309,3.5019486 20.21425,3.2903428 C 19.544664,3.2327056 19.886146,3.2088576 19.158887,3.2107508 L 4.7650315,3.2482215 C 3.7927284,3.2507526 2.941622,3.9047893 2.6849564,4.8510159 l -0.00268,0.011685 -1.228972,5.1708031 v 0 c -0.048082,0.18167 -0.073064,0.370536 -0.073064,0.559401 v 6.148516 c 0,1.199851 0.9642641,2.173938 2.1549073,2.173938 h 0.8511032 c 0.1221158,0 0.2379575,-0.05486 0.3154705,-0.148398 0.078426,-0.09533 0.1096247,-0.220353 0.088236,-0.34089 -0.037416,-0.202393 -0.058805,-0.407434 -0.058805,-0.614317 9.126e-4,-0.93362 0.3761007,-1.776348 0.9829722,-2.390664 0.6086967,-0.613395 1.4437725,-0.991184 2.3679398,-0.991184 0.9250799,0 1.7610112,0.377789 2.3687956,0.991184 0.607784,0.614316 0.982117,1.457102 0.982117,2.390664 0,0.206883 -0.02139,0.411924 -0.05795,0.614317 -0.0223,0.120537 0.0098,0.245565 0.08823,0.34089 0.07666,0.09354 0.193412,0.148398 0.315471,0.148398 h 8.15535 c 0.122116,0 0.237045,-0.05486 0.31547,-0.148398 0.07751,-0.09533 0.109625,-0.220353 0.08824,-0.34089 -0.03742,-0.202393 -0.05881,-0.407434 -0.05881,-0.614317 0,-0.93362 0.375188,-1.776348 0.982973,-2.390664 0.607784,-0.613395 1.442859,-0.991184 2.367939,-0.991184 0.924168,0 1.760099,0.377789 2.368796,0.991184 0.607784,0.614316 0.982116,1.457102 0.982972,2.390664 0,0.206883 -0.0223,0.411924 -0.0588,0.614317 -0.0223,0.120537 0.0098,0.245565 0.08824,0.34089 0.07666,0.09354 0.193412,0.148398 0.31547,0.148398 h 1.101552 c 1.190643,0 2.154907,-0.974087 2.154907,-2.173938 v -3.180376 c 5.7e-5,-0.852686 -0.493653,-1.626165 -1.26365,-1.980525 z M 3.9255068,18.086965 H 3.5351469 c -0.368971,0 -0.6789756,-0.172675 -0.9428753,-0.393964 -0.2102842,-0.176331 -0.4107932,-0.64549 -0.4384289,-1.344675 -0.011864,-0.300146 -0.010594,-0.578669 0.00915,-0.956216 0.7764008,-0.02176 1.7750782,-0.0029 2.5885182,-0.02308 l -0.5731452,1.583881 c -0.044546,0.248271 -0.1171108,0.403644 -0.1171108,0.662679 0,0.09354 -0.1428763,0.381401 -0.1357471,0.471373 z m 15.5461212,0 h -7.231239 c 0.0071,-0.09176 0.0469,-2.624392 0.0469,-2.717933 1.648887,0.0061 6.037397,0.0086 7.138243,0 5.7e-5,0.09354 0.04074,2.626177 0.0461,2.717933 z M 2.2001436,13.427901 v -2.834996 c 0,-0.118753 0.016027,-0.239233 0.048139,-0.35436 l 0.00359,-0.01261 1.010578,-4.2560628 h 1.3519433 c 0.1764718,0 0.3199194,-0.1439085 0.3199194,-0.3220095 V 4.0756373 H 17.177605 c 0,0.00541 -0.0018,0.010822 -0.0018,0.016175 v 1.5559954 c 0,0.1781011 0.143505,0.3220095 0.319064,0.3220095 h 4.231446 c 0.06685,0 0.130101,-0.021586 0.182689,-0.059348 l 3.161094,4.3730318 0.01426,0.01802 c 0.208526,0.258114 0.474147,0.464134 0.775358,0.602631 l 3.120084,1.431889 c 0.436674,0.199687 0.695859,1.059878 0.74223,1.532991 H 2.2001436 Z m 27.1709054,4.2651 c -0.242406,0.244645 -0.573961,0.393964 -0.942875,0.393964 h -0.639896 c 0.0071,-0.09176 0.01426,-0.18167 0.01426,-0.275211 -9.12e-4,-0.259035 -0.02675,-0.512659 -0.07221,-0.76093 h 1.99452 c -0.05789,0.248214 -0.180921,0.467703 -0.353799,0.642177 z m 0.392128,-0.95158 c 0,0.03506 -0.0036,0.06839 -0.0054,0.103442 H 27.686639 C 27.581463,16.399667 27.407672,15.981412 27.175076,15.60276 h 2.588044 v 1.138661 z"
       id="path239"
       style="fill:#000000;stroke-width:1.5625" />
    <path
       class="st0"
       d="m 8.0820636,14.95333 c -1.5631505,0 -2.8304512,1.279864 -2.8304512,2.858367 0,1.577582 1.2673007,2.856582 2.8304512,2.856582 1.5640631,0 2.8322194,-1.279 2.8322194,-2.856582 0,-1.578445 -1.2681563,-2.858367 -2.8322194,-2.858367 z m 0,4.027652 c -0.6398959,0 -1.1594441,-0.523482 -1.1594441,-1.169285 0,-0.647588 0.5195482,-1.171069 1.1594441,-1.171069 0.6407514,0 1.1603567,0.523481 1.1603567,1.171069 0,0.645803 -0.5196053,1.169285 -1.1603567,1.169285 z"
       id="path241"
       style="fill:#000000;stroke-width:1.5625" />
    <path
       class="st0"
       d="m 23.629953,14.95333 c -1.56315,0 -2.830451,1.279864 -2.830451,2.858367 0,1.577582 1.267301,2.856582 2.830451,2.856582 1.563151,0 2.831364,-1.279 2.831364,-2.856582 -5.7e-5,-1.578445 -1.268213,-2.858367 -2.831364,-2.858367 z m 0,4.027652 c -0.639896,0 -1.159444,-0.523482 -1.159444,-1.169285 0,-0.647588 0.519548,-1.171069 1.159444,-1.171069 0.640752,0 1.160357,0.523481 1.160357,1.171069 0,0.645803 -0.519605,1.169285 -1.160357,1.169285 z"
       id="path243"
       style="fill:#000000;stroke-width:1.5625" />
    <rect
       style="fill:#2626ff;fill-opacity:1;stroke:none;stroke-width:1;stroke-linejoin:round;stroke-dasharray:none;paint-order:fill markers stroke"
       id="rect7497"
       width="5.61516"
       height="2.0380681"
       x="13.37381"
       y="1.2138674"
       ry="0.73717356" />
    <path
       style="fill:#fff80b;fill-opacity:1;stroke:none;stroke-width:1;stroke-linejoin:round;stroke-dasharray:none;paint-order:fill markers stroke"
       d="m 27.633133,16.582147 c -0.03611,-0.13911 -0.140017,-0.4089 -0.230917,-0.599532 l -0.165272,-0.346604 h 1.253063 1.253063 v 0.599532 0.599531 h -1.022145 -1.022146 z"
       id="path10597" />
    <path
       style="fill:#fff80b;fill-opacity:1;stroke:none;stroke-width:1;stroke-linejoin:round;stroke-dasharray:none;paint-order:fill markers stroke"
       d="m 27.812202,17.781162 c -6.19e-4,-0.159693 -0.01341,-0.387306 -0.02843,-0.505807 l -0.0273,-0.215456 h 0.972904 0.972904 l -0.05566,0.157742 c -0.03061,0.08676 -0.11319,0.231593 -0.183512,0.321854 -0.298194,0.382745 -0.654699,0.532143 -1.269652,0.532065 l -0.380128,-4.9e-5 z"
       id="path10599" />
    <path
       style="fill:#fff80b;fill-opacity:1;stroke:none;stroke-width:0.999999;stroke-linejoin:round;stroke-dasharray:none;paint-order:fill markers stroke"
       d="M 2.2163869,12.08619 2.2332439,10.308076 2.7548228,8.1582656 3.2764017,6.0084553 4.0220378,5.9883633 C 4.6819656,5.9705813 4.7773816,5.9594723 4.8521272,5.8917233 4.9329142,5.8184973 4.9365802,5.7779384 4.9365802,4.95746 V 4.0997454 h 6.1078718 6.107872 V 4.901522 c 0,0.8383824 0.02061,0.961102 0.175218,1.0434201 0.06212,0.033073 0.711329,0.042661 2.339612,0.034552 l 2.253638,-0.011222 1.563782,2.1695705 c 0.86008,1.193264 1.654913,2.2601334 1.766298,2.3708194 0.255549,0.253948 0.352777,0.304764 2.228577,1.164753 0.868928,0.398374 1.597069,0.756579 1.661148,0.817193 0.222144,0.21013 0.465572,0.75693 0.530892,1.192511 l 0.02717,0.181185 H 15.949095 2.1995304 Z"
       id="path17934" />
    <path
       style="fill:#fff80b;fill-opacity:1;stroke:none;stroke-width:0.999999;stroke-linejoin:round;stroke-dasharray:none;paint-order:fill markers stroke"
       d="M 3.3345392,18.029814 C 3.070526,17.977924 2.8129166,17.838387 2.6034793,17.633814 2.2976293,17.335067 2.1662352,16.80778 2.1647238,15.873077 l -7.96e-4,-0.492246 h 1.2657761 c 0.7281732,0 1.265776,0.01544 1.265776,0.03635 0,0.01999 -0.1239957,0.377124 -0.275546,0.793621 -0.1515503,0.416497 -0.2973614,0.883845 -0.3240247,1.038551 -0.026663,0.154706 -0.084536,0.403341 -0.128605,0.552521 l -0.080126,0.271238 -0.1885537,-0.0044 c -0.1037046,-0.0024 -0.2675429,-0.01993 -0.3640851,-0.0389 z"
       id="path17936" />
    <path
       style="fill:#fff80b;fill-opacity:1;stroke:none;stroke-width:0.999999;stroke-linejoin:round;stroke-dasharray:none;paint-order:fill markers stroke"
       d="m 12.263776,17.691769 c 0.01427,-0.215483 0.02604,-0.821247 0.02615,-1.346142 l 2.08e-4,-0.954355 h 3.549887 3.549887 l 0.02643,0.729742 c 0.01454,0.401358 0.02643,1.007122 0.02643,1.346143 v 0.6164 h -3.602472 -3.602472 z"
       id="path17938" />
    <path
       id="path2018-2-1"
       style="fill:#1d1dca;fill-opacity:1;stroke:#0000ff;stroke-width:1.3;stroke-linejoin:round;stroke-dasharray:none;paint-order:fill markers stroke"
       d="M 12.85732,9.7913289 6.5774957,7.0041073 M 12.85732,6.9618142 6.5774957,9.7490339 m 3.1639589,-4.819769 v 6.8100141" />
    <path
       style="fill:#00e4e4;fill-opacity:1;stroke:#666666;stroke-width:0.7;stroke-linejoin:round;stroke-dasharray:none;paint-order:fill markers stroke"
       d="m 17.249191,11.288856 c -0.01339,-0.01381 -0.02434,-0.995463 -0.02434,-2.1814914 v -2.156423 l 2.14278,0.0097 2.067837,0.047171 1.566454,2.083236 c 0.877327,1.1667624 1.483197,2.1430264 1.472484,2.1717894 -0.01585,0.04256 -0.618136,0.05108 -3.609954,0.05108 -1.975008,0 -3.601877,-0.0113 -3.615263,-0.02506 z"
       id="path1050" />
    <rect
       style="fill:#ff0000;fill-opacity:1;stroke:none;stroke-width:0.999998;stroke-linejoin:round;stroke-dasharray:none;stroke-opacity:1;paint-order:fill markers stroke"
       id="rect18720"
       width="27.28388"
       height="1.044359"
       x="2.2383778"
       y="12.316422"
       ry="0" />
  </g>
</svg>
