<svg width="32" height="28" version="1.0" xmlns="http://www.w3.org/2000/svg"><g stroke="#f2f2f2" stroke-linecap="round"><path fill="#f2f2f2" stroke-linejoin="round" stroke-width="4" d="M5 8h22v16H5z"/><path d="M31.67 267.2l256.6-136.9 256.6 136.9-17.18 17.5-85.8-34.61-153.7-18.5-154.1 18.24-85.35 34.49z" fill="#f2f2f2" fill-rule="evenodd" stroke-width="103.1" transform="matrix(.05221 0 0 .04507 .947 -3.298)" stroke-linejoin="round"/><path d="M3 25.03h26" fill="none" stroke-width="6"/></g><path d="M31.67 267.2l256.6-136.9 256.6 136.9-17.18 17.5-85.8-34.61-153.7-18.5-154.1 18.24-85.35 34.49z" fill-rule="evenodd" stroke-width="24.28" transform="matrix(.05221 0 0 .04507 .947 -3.298)" stroke="#000" stroke-linecap="round" stroke-linejoin="round"/><path d="M2 25.03h28" stroke="#000" stroke-width="2"/><g fill="#0056cc"><path d="M9.297 17.88l1.131-3.064v8.635c0 .344.254.625.565.625.311 0 .566-.281.566-.625v-4.264h1.069v4.264c0 .344.254.625.565.625.31 0 .565-.281.565-.625v-8.423l1.103 2.862c.139.36.51.125.83-.031.32-.157.466-.575.327-.935l-1.365-3.542c-.158-.41-.517-.675-.913-.675h-3.382c-.402 0-.765.272-.92.69l-1.306 3.538c-.133.362.019.778.34.929.322.15.695.38.825.017zM12.08 12.1c.754 0 1.366-.59 1.366-1.317s-.612-1.317-1.366-1.317c-.754 0-1.366.59-1.366 1.317s.612 1.317 1.366 1.317z"/><path d="M17.22 17.88l1.131-3.064v8.635c0 .344.254.625.565.625.311 0 .566-.281.566-.625v-4.264h1.069v4.264c0 .344.254.625.565.625.31 0 .565-.281.565-.625v-8.423l1.103 2.862c.139.36.51.125.83-.031.32-.157.466-.575.327-.935l-1.365-3.542c-.158-.41-.517-.675-.913-.675H18.28c-.402 0-.765.272-.92.69l-1.306 3.538c-.133.362.019.778.34.929.322.15.69.38.825.017zM20 12.1c.754 0 1.366-.59 1.366-1.317S20.754 9.466 20 9.466s-1.366.59-1.366 1.317S19.246 12.1 20 12.1z"/></g><path d="M6 8v17M26 8v17" stroke="#000" stroke-width="2"/></svg>