<?xml version="1.0" encoding="UTF-8" standalone="no"?>
<!-- Created with Inkscape (http://www.inkscape.org/) -->

<svg
   width="32.0px"
   height="32.0px"
   viewBox="0 0 32.0 32.0"
   version="1.1"
   id="SVGRoot"
   xmlns="http://www.w3.org/2000/svg"
   xmlns:svg="http://www.w3.org/2000/svg">
  <defs
     id="defs2069" />
  <g
     id="layer1">
    <path
       id="courthouse-5"
       style="fill:#ffffff;fill-opacity:1;stroke-width:1"
       d="M 15.834658,0.79703492 C 14.337515,0.79339069 12.919681,1.7458963 12.361661,3.1129717 9.5640452,3.7653886 6.7669341,4.4199125 3.9689029,5.0706009 3.8949864,6.0652431 4.1257815,7.113368 3.8350041,8.0699471 2.7246528,11.111863 1.519333,14.138603 0.46806779,17.189954 c -0.0929722,2.149553 0.82769141,4.515724 2.89923851,5.477557 1.9105284,0.898567 4.2717787,0.898791 6.1887005,0.01772 1.1053402,-0.52627 1.9862682,-1.480361 2.4344952,-2.604897 0,1.5931 0,3.186202 0,4.779301 -1.653807,0 -3.3076158,0 -4.9614236,0 -2.1951797,2.164372 -4.3884331,4.330638 -6.58240736,6.496194 10.34387396,0 20.68774596,0 31.03161896,0 -2.193971,-2.165558 -4.387229,-4.33182 -6.582406,-6.496194 -1.653808,0 -3.307617,0 -4.961424,0 0,-1.586257 0,-3.172515 0,-4.758773 0.792913,2.114899 3.122257,3.277162 5.326551,3.22616 2.198238,0.124556 4.6078,-0.842932 5.558282,-2.908908 0.50276,-1.080479 0.74293,-2.336539 0.571178,-3.506741 -1.13426,-3.100517 -2.357887,-6.185345 -3.436305,-9.2956689 0,-0.8713844 0,-1.7427689 0,-2.6141534 C 25.156707,4.3570459 22.321121,3.7552101 19.548151,3.0812466 18.944342,1.632681 17.416322,0.71054591 15.834658,0.79703492 Z M 11.990502,9.9637405 c 0,1.9408325 0,3.8816665 0,5.8225005 -0.75305,-1.940834 -1.506101,-3.881668 -2.2591521,-5.8225005 0.7530511,0 1.5061021,0 2.2591521,0 z m 10.1463,0 c -0.734115,1.9346125 -1.468227,3.8692265 -2.202342,5.8038385 0,-1.934612 0,-3.869226 0,-5.8038385 0.734115,0 1.468227,0 2.202342,0 z M 6.6162578,15.500714 c -0.5382679,0.132376 -0.027057,-0.677384 0,0 z m 18.9689222,0 c -0.538268,0.132376 -0.02705,-0.677384 0,0 z" />
    <path
       d="m 15.981266,2.0070261 c -1.99632,0 -2.096137,2.098946 -2.096137,2.098946 L 5.6109824,6.0643108 V 7.6042157 L 2.0070266,17.399298 c 0,1.998997 0.7825746,4.197893 4.1922714,4.197893 3.4096984,0 4.192272,-2.198896 4.192272,-4.197893 L 6.6478722,7.6042157 H 13.885129 V 27.19438 H 7.5967228 L 4.8018747,29.992976 H 27.160657 L 24.365808,27.19438 H 18.077402 V 7.6042157 h 7.154811 l -3.66125,9.7950823 c 0,1.998997 0.744507,4.197893 4.192271,4.197893 3.447762,0 4.192271,-2.198896 4.192271,-4.197893 L 26.350152,7.6042157 V 6.0050174 l -8.27275,-1.8990453 c 0,0 -0.0998,-2.098946 -2.096136,-2.098946 z M 6.199298,9.5632315 9.2736306,17.399298 H 3.1249655 Z m 19.563936,0 3.074332,7.8360665 h -6.148665 z"
       id="courthouse"
       style="fill:#381a01;fill-opacity:1;stroke-width:1" />
  </g>
</svg>
