<?xml version="1.0" encoding="UTF-8" standalone="no"?>
<!-- Created with Inkscape (http://www.inkscape.org/) -->

<svg
   width="32.0px"
   height="32.0px"
   viewBox="0 0 32.0 32.0"
   version="1.1"
   id="SVGRoot"
   xmlns="http://www.w3.org/2000/svg"
   xmlns:svg="http://www.w3.org/2000/svg">
  <defs
     id="defs62117" />
  <g
     id="layer1">
    <rect
       style="opacity:1;fill:#ffffff;fill-opacity:1;stroke:none;stroke-width:1.56324;stroke-linecap:square;stroke-linejoin:round;stroke-dasharray:none;stroke-opacity:1;paint-order:markers fill stroke"
       id="rect83290"
       width="10.209457"
       height="28.8696"
       x="10.268506"
       y="1.8874626"
       ry="2.658597" />
    <path
       style="color:#000000;fill:#0f59d9;fill-opacity:1;stroke:#ffffff;stroke-width:0.961084;stroke-linecap:round;stroke-linejoin:round;stroke-opacity:1;-inkscape-stroke:none;paint-order:markers fill stroke"
       d="M 11.590214,5.9421254 C 10.703211,6.0281214 9.1223633,6.2041761 7.8900721,7.5378285 6.6574934,8.8717919 6.0517619,10.305044 5.5483928,10.739 5.0451896,11.172813 4.0294353,11.400051 2.624,11.586656 a 1.8473648,2 0 0 0 -1.6092279,2.228516 1.8473648,2 0 0 0 2.0602447,1.742188 c 1.4054364,-0.186606 3.1990619,-0.330518 4.7753658,-1.689454 1.5761377,-1.358794 2.3198484,-3.140551 2.6519794,-3.5 0.332416,-0.35976 0.529189,-0.35541 1.416192,-0.4414058 A 1.8473648,2 0 0 0 13.594533,7.7565786 1.8473648,2 0 0 0 11.590214,5.9421254 Z"
       id="path76998" />
    <path
       style="color:#000000;fill:#ffffff;stroke:none;stroke-width:1.03863;stroke-linecap:square;stroke-linejoin:round;-inkscape-stroke:none;paint-order:markers fill stroke"
       d="m 20.236057,7.925161 -2.328748,0.024261 a 0.52117047,0.51757353 0 0 0 -0.515012,0.5235871 l 0.04885,4.6273709 a 0.52117047,0.51757353 0 0 0 0.527225,0.511457 l 2.328748,-0.02628 c 1.066081,-0.01121 2.109394,-0.01441 2.709409,0.03033 0.236902,0.01767 0.233526,0.03734 0.319591,0.05458 0.0025,0.09887 0.0081,0.151341 0.0081,0.28302 v 2.312675 a 0.52117047,0.51757353 0 0 0 0.521119,0.517522 h 4.659531 a 0.52117047,0.51757353 0 0 0 0.521118,-0.517522 v -2.312675 c 0,-0.345813 0.0038,-0.810021 -0.05903,-1.362538 C 28.914358,12.039876 28.777581,11.3021 28.339827,10.535012 27.885617,9.7390322 27.12417,9.0448462 26.23706,8.6266482 25.372815,8.2192304 24.455077,8.0479369 23.431978,7.9716604 22.408035,7.8953156 21.30213,7.9139567 20.236057,7.9251662 Z m 0.01222,1.0350432 c 1.07035,-0.01125 2.15227,-0.02868 3.106354,0.04246 0.953674,0.0711 1.725283,0.2235695 2.434601,0.5579515 0.682848,0.3219055 1.312546,0.9052143 1.642743,1.4838313 0.343644,0.602175 0.455659,1.177228 0.510941,1.663752 0.05487,0.483136 0.05089,0.891915 0.05089,1.245287 v 1.795154 h -3.617294 v -1.795154 c 0,-0.325717 -0.0068,-0.563908 -0.02443,-0.76011 a 0.52117047,0.51757353 0 0 0 -0.352161,-0.442724 c -0.08067,-0.02717 -0.358606,-0.124206 -0.916029,-0.165769 -0.688442,-0.05132 -1.728638,-0.04563 -2.798975,-0.03436 l -1.807629,0.02021 -0.03665,-3.5923278 z"
       id="path77206" />
    <path
       fill-rule="evenodd"
       clip-rule="evenodd"
       d="m 26.261496,26.811 c 1.883668,0 3.410664,-1.556139 3.410664,-3.475752 0,-3.041282 -3.410664,-5.213626 -3.410664,-5.213626 0,0 -3.410662,2.172344 -3.410662,5.213626 0,1.919613 1.526995,3.475752 3.410662,3.475752 z m -1.70533,-3.528278 c 0,-1.36823 0.404227,-2.679653 1.038141,-3.889847 -0.909772,0.930158 -1.890808,2.311311 -1.890808,3.942396 0,1.296215 0.696268,2.426725 1.728439,3.024272 -0.554274,-0.887555 -0.875772,-1.943575 -0.875772,-3.076821 z"
       fill="white"
       id="path74242"
       style="fill:#5dd8ff;fill-opacity:1;stroke-width:0.215191" />
    <path
       id="rect62304"
       style="opacity:1;fill:#0f59d9;fill-opacity:1;stroke:none;stroke-width:2.38001;stroke-linecap:round;stroke-linejoin:round;paint-order:markers fill stroke"
       d="m 14.786834,2.6393906 a 3.3280148,4.3980376 0 0 0 -1.472656,0.5820312 3.3280148,4.3980376 0 0 0 -1.664063,3.7988282 3.3280148,4.3980376 0 0 0 0,0.011719 V 28.5515 h 6.65625 V 13.000719 l 2.207032,-0.02539 c 1.02492,-0.01085 2.024457,-0.01515 2.642578,0.03125 0.501991,0.03769 0.649329,0.09863 0.755859,0.134765 0.01466,0.164208 0.02148,0.382163 0.02148,0.689454 v 2.234375 h 4.470703 v -2.234375 c 0,-0.337757 0.0037,-0.759472 -0.05273,-1.259766 -0.05656,-0.501233 -0.175915,-1.135423 -0.550781,-1.796875 C 27.424184,10.11013 26.756799,9.493008 26.003631,9.1354843 25.248735,8.7771417 24.438291,8.6207408 23.489959,8.5495468 22.541025,8.4783069 21.491444,8.4957281 20.466522,8.5065781 l -2.160157,0.023437 V 7.0319687 7.02025 A 3.3280148,4.3980376 0 0 0 16.642303,3.2214218 3.3280148,4.3980376 0 0 0 14.786834,2.6393906 Z" />
  </g>
</svg>
