<svg width="32" height="27" xmlns="http://www.w3.org/2000/svg"><linearGradient id="a" x1="10.76" x2="29.77" y1="79.79" y2="60.32" gradientTransform="matrix(.2333 0 0 -.2311 1.067 28.11)" gradientUnits="userSpaceOnUse"><stop stop-color="#bbdefb" offset=".005"/><stop stop-color="#5ba9ee" offset=".621"/><stop stop-color="#1e88e5" offset="1"/></linearGradient><linearGradient id="b" x1="64" x2="64" y1="110.5" y2="43.08" gradientTransform="matrix(.2333 0 0 .2142 1.067 -.998)" gradientUnits="userSpaceOnUse"><stop stop-color="#bf0000" offset="0"/><stop stop-color="#ff4440" offset=".997"/></linearGradient><g fill="none"><path d="M4 3l25 4" stroke="#f2f2f2" stroke-linecap="round" stroke-width="6"/><path d="M30 20c0 1.092-.929 1.987-2.121 1.987H4.139c-1.192 0-2.14-.893-2.14-1.987-.04-3.68.468-6.347.807-10.01.087-.884.894-1.565 1.86-1.565L7 5l2.51 3.396 20.49.31z" stroke="#f2f2f2" stroke-width="3.851"/><path d="M12 8.675V5" stroke="#000" stroke-linecap="square" stroke-width="1.5"/><g stroke="#f2f2f2" stroke-width="5.5"><ellipse cx="7.017" cy="21.87" rx="2.416" ry="2.393"/><ellipse cx="18.24" cy="21.87" rx="2.416" ry="2.393"/><ellipse cx="24.96" cy="21.87" rx="2.416" ry="2.393"/></g></g><g stroke-width=".232"><path d="M7.878 14.86H4.474c-.385 0-.665-.303-.623-.675l.408-3.584c.042-.372.39-.675.777-.675h3.017c.385 0 .665.303.623.675l-.023 3.584c-.04.375-.387.675-.775.675z" fill="url(#a)"/><path d="M6.935 11H6.87a1.362 1.362 0 0 1-1.365-1.352V6.725c0-.744.613-1.352 1.365-1.352h.065c.751 0 1.365.608 1.365 1.352v2.921C8.3 10.39 7.686 11 6.935 11z" fill="#f10500"/><path d="M8.533 7.769H5.269a.932.932 0 0 0-.933.924v.012c0 .508.42.924.933.924h3.264a.932.932 0 0 0 .933-.924v-.012a.932.932 0 0 0-.933-.924z" fill="#504f4f"/></g><path d="M23 9V7" fill="none" stroke="#000" stroke-linecap="square" stroke-width="1.5"/><path d="M30 9.29V20c0 1.092-.929 1.987-2.121 1.987H4.139c-1.192 0-2.14-.893-2.14-1.987v-2.196l.807-7.814c.087-.885.894-1.565 1.86-1.565l24.39.009c.516 0 .94.383.94.856z" fill="url(#b)"/><g stroke-width=".232"><path d="M10.4 16.02v1.849H1.979l.159-1.849zM30 17.86H14.6l.005-1.883 15.4-.028z" fill="#fff"/><path d="M10.4 8.396v9.786h4.2V8.396zm3.733 9.013h-3.267v-.924h3.267zm0-1.849h-3.267v-.924h3.267zm0-1.849h-3.267v-.924h3.267zm0-1.849h-3.267v-.924h3.267zm0-1.849h-3.267v-.924h3.267z" fill="#787878"/><path d="M7.878 15.15H4.474c-.385 0-.665-.303-.623-.675l.408-3.584c.042-.372.39-.675.777-.675h3.017c.385 0 .665.303.623.675l-.023 3.584c-.04.372-.387.675-.775.675z" fill="#00e1f9"/></g><g fill="#6a6a6a" stroke="#000" stroke-width="1.5"><ellipse cx="7.017" cy="21.87" rx="2.416" ry="2.393"/><ellipse cx="18.24" cy="21.87" rx="2.416" ry="2.393"/><ellipse cx="24.96" cy="21.87" rx="2.416" ry="2.393"/></g><path d="M4 3l25 4" fill="none" stroke="#000" stroke-linecap="round" stroke-width="2"/></svg>