<svg width="32" height="30" xmlns="http://www.w3.org/2000/svg"><path d="M13.96 13V2.02" fill="none" stroke="#f2f2f2" stroke-width="6"/><g stroke="none" color="#000" paint-order="stroke markers fill"><path d="M4 11a2 2 0 0 0-2 2v11.27C1 24.248.001 25.287 0 26v2a2 2 0 0 0 2 2h28a2 2 0 0 0 2-2v-2c0-.714-1-1.712-2-1.73V13a2 2 0 0 0-2-2z" fill="#f2f2f2" style="font-feature-settings:normal;font-variant-alternates:normal;font-variant-caps:normal;font-variant-east-asian:normal;font-variant-ligatures:normal;font-variant-numeric:normal;font-variant-position:normal;font-variation-settings:normal;inline-size:0;isolation:auto;mix-blend-mode:normal;shape-margin:0;shape-padding:0;text-decoration-color:#000;text-decoration-line:none;text-decoration-style:solid;text-indent:0;text-orientation:mixed;text-transform:none;white-space:normal"/><path d="M28 13H4v13H2v2h28v-2h-2zM5 26V14h22v12z" style="font-feature-settings:normal;font-variant-alternates:normal;font-variant-caps:normal;font-variant-east-asian:normal;font-variant-ligatures:normal;font-variant-numeric:normal;font-variant-position:normal;font-variation-settings:normal;inline-size:0;isolation:auto;mix-blend-mode:normal;shape-margin:0;shape-padding:0;text-decoration-color:#000;text-decoration-line:none;text-decoration-style:solid;text-indent:0;text-orientation:mixed;text-transform:none;white-space:normal"/></g><path fill="#66ffe5" paint-order="stroke markers fill" d="M5 14h22v12H5z"/><g fill="#05f"><path d="M8 21h3v3H8zM21 21h3v3h-3zM8 16h3v3H8zM21 16h3v3h-3z"/></g><path paint-order="stroke markers fill" d="M14 21h4v6h-4z"/><path d="M14.5 16h3v3h-3z" fill="#05f"/><path d="M12.89 1.903v5.194h12.32L16.002 2z" fill="#f2f2f2" stroke="#f2f2f2" stroke-linejoin="round" stroke-width="3.806"/><path d="M16 2l-.008 5.097h9.216z" fill="#05f"/><path d="M14 14l-.038-11.98" fill="none" stroke="#000" stroke-width="2"/></svg>