<?xml version="1.0" encoding="UTF-8" standalone="no"?>
<!-- Created with Inkscape (http://www.inkscape.org/) -->

<svg
   width="32.0px"
   height="32.0px"
   viewBox="0 0 32.0 32.0"
   version="1.1"
   id="SVGRoot"
   xmlns="http://www.w3.org/2000/svg"
   xmlns:svg="http://www.w3.org/2000/svg">
  <defs
     id="defs14862" />
  <g
     id="layer1">
    <ellipse
       style="fill:#ffffff;fill-opacity:1;stroke:#ffffff;stroke-width:1.23059;stroke-linecap:round;stroke-linejoin:round;stroke-opacity:1;paint-order:markers fill stroke;opacity:0.5"
       id="path25765"
       cx="15.868855"
       cy="15.96253"
       rx="14.182671"
       ry="13.976582" />
    <path
       style="fill:#4a4aff;fill-opacity:1;stroke:#0000ff;stroke-width:0.0687425"
       d="m 23.466563,12.489657 c -0.0993,0.05721 -1.377802,0.765297 -3.835849,2.124184 1.228992,2.047386 2.200373,3.664368 2.914121,4.851015 h 2.229129 c 0.654415,0 1.140074,-0.268019 1.457063,-0.804133 0.296917,-0.516795 0.286989,-1.042977 -0.03001,-1.578481 z"
       id="path16123" />
    <path
       style="fill:#4a4aff;fill-opacity:1;stroke:#0000ff;stroke-width:0.0687425"
       d="M 19.363957,20.353965 V 19.83717 17.857467 l -2.76533,4.649591 2.76533,4.621495 v -2.497309 h 2.764401 c 0.535271,0 0.941444,-0.220132 1.218503,-0.660465 l 2.200105,-3.702665 c -0.297044,0.07654 -0.544704,0.114766 -0.743044,0.114766 z"
       id="path16121" />
    <path
       style="fill:#ff3333;fill-opacity:1;stroke:#ff0000;stroke-width:0.0687425"
       d="m 12.258228,5.5722104 c -0.634473,0 -1.1102,0.2677515 -1.427105,0.8032556 l -2.7644223,4.59265 c 1.049978,0.593326 2.3283523,1.301344 3.8350043,2.124187 0.891502,-1.47338 1.852623,-3.080703 2.883276,-4.8221723 L 13.685352,6.375466 C 13.368428,5.8399619 12.892698,5.5722104 12.258228,5.5722104 Z"
       id="path16119" />
    <path
       style="fill:#ff3333;fill-opacity:1;stroke:#ff0000;stroke-width:0.0687425"
       d="M 14.963729,11.714433 H 20.49346 L 23.287879,7.0648403 21.028792,8.3279493 19.630714,6.0023441 C 19.372977,5.5626189 18.976857,5.3427568 18.442145,5.3426893 h -4.400208 c 0.178333,0.1910199 0.327207,0.3822426 0.446352,0.5738029 l 2.70459,4.5347638 -0.445505,0.258432 z"
       id="path16117" />
    <path
       style="fill:#00b300;fill-opacity:1;stroke:#008000;stroke-width:0.0687425"
       d="m 7.5613887,22.306446 c -0.159096,0.248773 -0.238641,0.516525 -0.238641,0.803258 0,0.440333 0.163644,0.813456 0.490832,1.119437 0.327207,0.306052 0.718505,0.459043 1.174004,0.459043 h 5.4707493 v -4.2764 H 8.6908897 c -0.03994,0.07645 -0.188679,0.325232 -0.44635,0.746315 z"
       id="path16115" />
    <path
       style="fill:#00b300;fill-opacity:1;stroke:#008000;stroke-width:0.0687425"
       d="M 11.693021,18.574871 8.9286197,13.924468 H 3.3688685 l 2.2599972,1.263109 -1.3971682,2.324797 c -0.1191653,0.210812 -0.1787473,0.430944 -0.1787473,0.660464 0,0.229522 0.059583,0.449654 0.1787473,0.660463 l 2.1991942,3.702669 c 0.0993,-0.268023 0.1984,-0.497883 0.297623,-0.689375 l 2.735375,-4.534832 z"
       id="path14735" />
    <ellipse
       style="fill:#ff6600;fill-opacity:1;stroke:none;stroke-width:1.56614;stroke-linecap:round;stroke-linejoin:round;stroke-opacity:1;paint-order:markers fill stroke"
       id="path26611"
       cx="15.981264"
       cy="16.131145"
       rx="1.8173302"
       ry="1.704918" />
  </g>
</svg>
