<?xml version="1.0" encoding="UTF-8" standalone="no"?>
<!-- Created with Inkscape (http://www.inkscape.org/) -->

<svg
   width="32"
   height="29"
   viewBox="0 0 32 29"
   version="1.1"
   id="SVGRoot"
   xmlns="http://www.w3.org/2000/svg"
   xmlns:svg="http://www.w3.org/2000/svg">
  <defs
     id="defs4217" />
  <g
     id="layer1">
    <g
       id="g36510"
       transform="matrix(0.06259951,0,0,0.05679204,-2.5161825,-1.8070074)"
       style="fill:#a80012;fill-opacity:1;stroke-width:0.883431">
      <path
         id="path32857-9"
         style="fill:#ffffff;fill-opacity:1;stroke-width:0.786886"
         d="m 418.09325,48.635082 c -12.07331,0.0261 -24.1567,3.444264 -34.35156,9.938948 -12.29324,7.793792 -22.13383,19.573375 -27.05068,33.324707 -3.97268,11.009263 -4.93489,23.036843 -2.99523,34.562773 0.39503,2.34966 1.52383,4.48894 2.18402,6.775 -4.56157,1.51152 -9.12857,3.07492 -13.29134,5.50253 -10.39522,6.04102 -19.29853,14.64885 -25.86506,24.76139 -6.93158,10.67547 -10.94244,23.19218 -11.79373,35.90402 -0.37049,5.47175 -0.15828,10.95918 -0.2184,16.43881 0.008,30.34276 0.003,60.68988 0.0312,91.03251 0.13581,8.84922 2.28043,17.74531 6.86407,25.34604 3.57699,5.97323 8.57394,11.05264 14.50815,14.65049 5.81914,3.56111 12.48655,5.68601 19.2506,6.3623 0.007,40.4065 -0.0235,80.82127 0,121.22765 0.0866,9.27291 2.22845,18.62544 6.86407,26.68728 3.26306,5.70788 7.7215,10.71663 13.04174,14.54732 6.40652,4.64879 13.98754,7.50706 21.77783,8.66649 8.56304,1.21599 17.43011,0.80521 25.74026,-1.68515 3.00277,-0.8989 5.92368,-2.09101 8.70489,-3.54226 8.09602,4.28399 17.32739,6.06138 26.42668,5.88083 9.15759,-0.11314 18.39262,-2.2472 26.36427,-6.87816 5.01496,-2.89463 9.4857,-6.73786 13.10414,-11.28019 4.83248,-6.08417 8.08611,-13.38379 9.6097,-21.01279 1.0959,-5.11759 1.25963,-10.39508 1.18561,-15.61344 V 353.75046 c 8.1278,-0.95535 16.03013,-4.0845 22.43303,-9.25113 6.0749,-4.8273 10.72621,-11.41309 13.50974,-18.67421 2.71762,-6.9785 3.66741,-14.51321 3.52564,-21.97574 -0.008,-33.07182 0.0291,-66.14582 0,-99.21752 -0.16394,-13.27209 -3.63393,-26.54843 -10.26491,-38.03625 -6.85409,-11.87327 -16.70759,-22.13892 -28.73549,-28.71634 -5.3629,-2.96821 -11.10086,-5.15258 -17.03538,-6.60304 0.81114,-3.18552 1.99817,-6.28587 2.30882,-9.56065 1.32205,-13.5022 -1.25427,-27.491306 -7.95608,-39.343101 -5.97904,-10.628629 -14.98234,-19.513846 -25.58427,-25.51799 -9.80211,-5.544315 -21.04524,-8.314047 -32.29233,-8.219407 z" />
      <path
         id="path32851-5"
         style="fill:#ffffff;fill-opacity:1;stroke-width:0.786886"
         d="m 194.82373,53.243452 c -12.07331,0.0261 -24.1567,3.444265 -34.35156,9.938948 -12.29324,7.793792 -22.13383,19.573372 -27.05068,33.324708 -3.97267,11.009262 -4.93489,23.071232 -2.99523,34.597172 0.44104,2.62333 1.66318,5.02366 2.43363,7.56598 -4.29839,1.45445 -8.64185,2.88912 -12.57373,5.12423 -11.04812,6.25836 -20.456457,15.19863 -27.206687,25.75873 -3.731683,5.81344 -6.498804,12.17101 -8.361687,18.77739 -8.898553,29.2796 -17.798369,58.59236 -26.707478,87.86855 -2.159653,5.90225 -3.150887,12.20626 -2.745628,18.46787 0.419025,8.90164 3.207924,17.76988 8.580089,25.03652 3.815981,5.25367 8.925288,9.61613 14.726553,12.69021 1.932864,0.9993 3.897635,1.89422 5.959262,2.61371 -5.291325,18.90648 -10.55878,37.8039 -15.849765,56.71046 h 50.326121 c 0.009,27.69382 -5e-4,55.39459 0.0312,83.08823 0.12239,9.0781 2.43849,18.23609 7.42568,25.96507 3.43244,5.38693 8.10924,10.03176 13.57214,13.48121 7.33327,4.6473 16.02896,7.04765 24.74186,7.39402 8.53403,0.39046 17.21719,-0.98476 24.96026,-4.57398 2.05992,0.83868 4.18396,1.75793 6.36486,2.37297 7.9971,2.4133 16.57245,2.8225 24.83546,1.65076 7.90782,-1.15669 15.56764,-4.16129 21.90263,-8.94161 5.70179,-4.28249 10.27097,-9.95999 13.26014,-16.33565 3.39005,-7.13502 4.70602,-15.04405 4.55524,-22.86989 v -81.23113 h 50.48213 c -5.36262,-18.89896 -10.70539,-37.77716 -16.06817,-56.67607 7.7192,-2.71423 14.65261,-7.57731 19.68741,-13.8939 5.35907,-6.66943 8.47998,-14.8896 9.39129,-23.28258 0.77396,-6.80006 0.29415,-13.77784 -1.93442,-20.29059 -0.62351,-1.67594 -1.20006,-3.36882 -1.68481,-5.08984 -8.76805,-28.84662 -17.51863,-57.68537 -26.30188,-86.52731 -3.34503,-10.32455 -9.63018,-19.60053 -17.40978,-27.27192 -5.95869,-5.94472 -13.01131,-10.68435 -20.49861,-14.68489 2.25024,-5.65571 3.7616,-11.61287 4.33684,-17.67688 1.32205,-13.5022 -1.25427,-27.456911 -7.95608,-39.308709 C 246.72129,76.38661 237.71799,67.501394 227.11606,61.49725 217.31395,55.952935 206.07082,53.148812 194.82373,53.243452 Z" />
      <path
         style="fill:#a80012;fill-opacity:1;stroke-width:0.786886"
         d="m 461.30874,157.89981 h -85.31571 c -11.53032,9e-4 -21.37396,4.14982 -29.53005,12.44766 -8.15697,8.29873 -12.23501,18.5174 -12.23501,30.6551 v 100.7456 c 0,9.71915 4.37475,14.57782 13.12692,14.57782 8.35036,0 12.52554,-4.85867 12.52554,-14.57782 v -98.31896 h 15.51211 v 267.06263 c 0,12.1386 5.96518,18.20745 17.8973,18.20745 11.93035,0 17.89641,-6.06885 17.89641,-18.20745 V 315.71506 h 15.5121 v 154.77678 c -8.8e-4,12.1386 5.96518,18.20745 17.89642,18.20745 12.33215,0 18.49778,-6.06885 18.49778,-18.20745 V 203.42921 h 14.91162 v 98.31896 c -8.8e-4,10.11445 4.1743,15.17078 12.52554,15.17078 8.36273,0 12.54409,-5.05633 12.54409,-15.17078 V 201.59553 c 0,-11.73071 -3.87846,-21.94579 -11.63364,-30.64612 -7.75605,-8.69943 -17.80015,-13.0487 -30.13142,-13.0496 z"
         id="path32857" />
      <path
         style="fill:#a80012;fill-opacity:1;stroke-width:0.786886"
         d="m 418.9423,151.23171 c 8.7504,9e-4 16.30953,-3.23791 22.6765,-9.71465 6.36521,-6.47673 9.5487,-14.16724 9.5487,-23.07052 0,-9.29805 -3.18349,-17.08379 -9.5487,-23.357301 -6.36697,-6.272612 -13.9261,-9.409188 -22.6765,-9.409547 -8.75128,3.59e-4 -16.30688,3.136935 -22.66679,9.409547 -6.36079,6.273511 -9.54075,14.059251 -9.54075,23.357301 0,8.90328 3.17996,16.59379 9.54075,23.07052 6.35991,6.47674 13.91551,9.71555 22.66679,9.71465 z"
         id="path32855" />
      <path
         style="fill:#a80012;fill-opacity:1;stroke-width:0.786886"
         d="m 189.32938,151.82467 c 9.13895,0 16.89235,-3.23522 23.25844,-9.70567 6.3661,-6.47044 9.54958,-14.15735 9.54958,-23.06117 0,-9.31045 -3.18348,-17.20122 -9.54958,-23.672201 -6.36609,-6.470265 -14.11949,-9.705578 -23.25844,-9.705937 -8.75128,3.59e-4 -16.31041,3.235672 -22.6765,9.705937 -6.3661,6.470981 -9.5487,14.361751 -9.5487,23.672201 0,8.90382 3.1826,16.59073 9.5487,23.06117 6.36609,6.47045 13.92522,9.70567 22.6765,9.70567 z"
         id="path32853" />
      <path
         style="fill:#a80012;fill-opacity:1;stroke-width:0.786886"
         d="m 219.75222,158.51164 h -63.83137 c -9.95323,0 -18.90479,3.6431 -26.85477,10.92842 -5.9718,5.65557 -9.94687,11.92926 -11.92523,18.81927 l -27.455263,92.85475 c -0.78894,2.02505 -1.183498,3.84705 -1.18341,5.46421 -8.8e-5,9.31126 4.56974,13.96689 13.709393,13.96599 6.37219,9e-4 10.55364,-3.6422 12.54427,-10.92842 l 25.05197,-84.98276 h 13.70949 l -41.16475,151.12828 h 39.98134 v 117.74917 c -1.8e-4,10.52143 4.96986,15.7817 14.91065,15.7817 9.94078,0 14.91161,-5.26027 14.91161,-15.7817 V 355.16842 h 14.92928 v 118.95395 c 0,10.11355 4.96995,15.16988 14.91073,15.16988 9.94079,0 14.91074,-5.05633 14.91074,-15.16988 V 355.76138 h 39.96359 L 225.12308,204.6331 h 14.31025 l 25.05197,84.98276 c 1.99045,7.28622 6.16563,10.92932 12.52643,10.92842 9.15131,9e-4 13.72741,-4.65473 13.72741,-13.96599 0,-2.02504 -0.39474,-3.84615 -1.18332,-5.46421 l -27.45571,-92.85475 c -1.99045,-6.48302 -6.56037,-12.75581 -13.70887,-18.81927 -8.75216,-7.28532 -18.29821,-10.92842 -28.63902,-10.92842 z"
         id="path32851" />
    </g>
  </g>
</svg>
