<svg width="32" height="32" xmlns="http://www.w3.org/2000/svg"><defs><linearGradient id="a" x1="5" x2="27" y1="17" y2="27" gradientTransform="translate(0 .5)" gradientUnits="userSpaceOnUse"><stop stop-color="#0ee8ff" offset="0"/><stop stop-color="#029dff" offset="1"/></linearGradient></defs><path d="M14.89 1.903v5.194h12.32L18.002 2z" fill="#f2f2f2" stroke="#f2f2f2" stroke-linejoin="round" stroke-width="3.806"/><g fill="none" stroke="#f2f2f2" stroke-linecap="round" stroke-linejoin="round"><path d="M8 16l4-6 4-2 4 2 4 6z" stroke-width="5"/><path stroke-width="4" d="M2 16h28v2H2zM2 28h28v2H2z"/><path stroke-width="5" d="M4 16.5h24v12H4z"/></g><path d="M8 16l4-6 4-2 4 2 4 6z" stroke="#000"/><path d="M2 28h28v2H2z"/><path fill="url(#a)" stroke="#000" stroke-linecap="round" d="M4 16.5h24v12H4z"/><g fill="none"><path d="M16 28v-8" stroke="#000" stroke-width="4"/><g stroke="#323232" stroke-width="2"><path d="M11 25v-5M7 25v-5M25 25v-5M21 25v-5"/></g></g><path d="M2 16h28v2H2z"/><path d="M16 9V2" fill="none" stroke="#000" stroke-width="2"/><ellipse cx="16.21" cy="13.08" rx="4.452" ry="3.68" fill="#cefaf1"/><path d="M15.55 13.15l2.462-1.846" fill="none" stroke="#002dfb" stroke-width="1.231"/><path d="M18 2v5h9z" fill="#05f"/></svg>