<?xml version="1.0" encoding="UTF-8" standalone="no"?>
<!-- Created with Inkscape (http://www.inkscape.org/) -->

<svg
   width="128.0px"
   height="128.0px"
   viewBox="0 0 128.0 128.0"
   version="1.1"
   id="SVGRoot"
   xmlns="http://www.w3.org/2000/svg"
   xmlns:svg="http://www.w3.org/2000/svg">
  <defs
     id="defs18908" />
  <g
     id="layer1">
    <path
       style="opacity:0.5;fill:#888888;stroke:#929292;stroke-width:2.3;stroke-linecap:round;stroke-linejoin:round;stroke-dasharray:none;stroke-opacity:1;paint-order:fill markers stroke"
       d="M 47.876191,31.081617 64.535988,9.9862953"
       id="path22169-2-5" />
    <path
       style="opacity:0.5;fill:none;stroke:#929292;stroke-width:2.9;stroke-linecap:round;stroke-linejoin:round;stroke-dasharray:none;stroke-opacity:1;paint-order:fill markers stroke"
       d="m 15.587822,16.637002 c 6.49582,7.89492 12.990746,15.788753 16.637494,25.681131 3.646747,9.892378 4.446106,21.782851 5.24541,33.672499"
       id="path25037" />
    <path
       style="opacity:0.5;fill:none;stroke:#929292;stroke-width:2.8;stroke-linecap:round;stroke-linejoin:round;stroke-dasharray:none;stroke-opacity:1;paint-order:fill markers stroke"
       d="m 101.01037,11.825604 c -6.354419,8.009172 -12.707962,16.01724 -21.613701,21.660442 -8.905739,5.643201 -20.363068,8.922214 -31.819603,12.201"
       id="path25037-9" />
    <path
       style="opacity:0.5;fill:none;stroke:#929292;stroke-width:3.1;stroke-linecap:round;stroke-linejoin:round;stroke-dasharray:none;stroke-opacity:1;paint-order:fill markers stroke"
       d="m 66.239309,54.098795 c 6.67915,4.109366 13.357322,8.21813 17.106935,13.367171 3.749612,5.149042 4.571524,11.338069 5.393367,17.526574"
       id="path25037-5" />
    <path
       style="opacity:0.5;fill:none;stroke:#929292;stroke-width:3.4;stroke-linecap:round;stroke-linejoin:round;stroke-dasharray:none;stroke-opacity:1;paint-order:fill markers stroke"
       d="M 98.173384,117.86487 C 88.427131,114.77681 78.682231,111.68917 70.239082,105.37481 61.795932,99.060451 54.65412,89.520176 47.512802,79.980563"
       id="path25037-7" />
    <path
       style="opacity:0.5;fill:none;stroke:#929292;stroke-width:3.2;stroke-linecap:round;stroke-linejoin:round;stroke-dasharray:none;stroke-opacity:1;paint-order:fill markers stroke"
       d="M 104.44721,61.397182 C 103.32952,53.635178 102.212,45.874305 103.7682,39.697697 105.32439,33.52109 109.55353,28.928271 113.78231,24.335839"
       id="path25037-5-7" />
    <path
       style="opacity:0.5;fill:none;stroke:#929292;stroke-width:3.1;stroke-linecap:round;stroke-linejoin:round;stroke-dasharray:none;stroke-opacity:1;paint-order:fill markers stroke"
       d="m 119.63798,79.173374 c -4.66486,6.30373 -9.32903,12.606534 -14.77954,15.90263 -5.450509,3.296095 -11.68712,3.586355 -17.923209,3.876591"
       id="path25037-5-2" />
    <path
       style="opacity:0.5;fill:none;stroke:#929292;stroke-width:2.77886;stroke-linecap:round;stroke-linejoin:round;stroke-dasharray:none;stroke-opacity:1;paint-order:fill markers stroke"
       d="m 25.079738,65.92886 c -3.588604,6.145688 -7.176728,12.290554 -9.191382,19.991169 -2.014654,7.700614 -2.45626,16.956611 -2.897837,26.211991"
       id="path25037-5-0" />
    <path
       style="opacity:0.5;fill:none;stroke:#929292;stroke-width:1.96578;stroke-linecap:round;stroke-linejoin:round;stroke-dasharray:none;stroke-opacity:1;paint-order:fill markers stroke"
       d="m 51.609519,118.61904 c -4.547426,-2.09971 -9.094186,-4.19912 -11.833386,-7.14248 -2.739199,-2.94336 -3.671369,-6.73042 -4.603456,-10.51714"
       id="path25037-5-1" />
  </g>
</svg>
