<?xml version="1.0" encoding="UTF-8" standalone="no"?>
<!-- Created with Inkscape (http://www.inkscape.org/) -->

<svg
   width="32.0px"
   height="32.0px"
   viewBox="0 0 32.0 32.0"
   version="1.1"
   id="SVGRoot"
   sodipodi:docname="r:\Temp\ink_ext_XXXXXX.svgOB8TZ1"
   inkscape:version="1.2.2 (732a01da63, 2022-12-09)"
   xmlns:inkscape="http://www.inkscape.org/namespaces/inkscape"
   xmlns:sodipodi="http://sodipodi.sourceforge.net/DTD/sodipodi-0.dtd"
   xmlns="http://www.w3.org/2000/svg"
   xmlns:svg="http://www.w3.org/2000/svg">
  <sodipodi:namedview
     id="namedview8212"
     pagecolor="#ffffff"
     bordercolor="#000000"
     borderopacity="0.25"
     inkscape:showpageshadow="2"
     inkscape:pageopacity="0.0"
     inkscape:pagecheckerboard="0"
     inkscape:deskcolor="#d1d1d1"
     inkscape:document-units="px"
     showgrid="true"
     inkscape:zoom="26.6875"
     inkscape:cx="15.981265"
     inkscape:cy="16"
     inkscape:window-width="1858"
     inkscape:window-height="1057"
     inkscape:window-x="1420"
     inkscape:window-y="-8"
     inkscape:window-maximized="1"
     inkscape:current-layer="layer1">
    <inkscape:grid
       type="xygrid"
       id="grid8335" />
  </sodipodi:namedview>
  <defs
     id="defs8207" />
  <g
     inkscape:label="Layer 1"
     inkscape:groupmode="layer"
     id="layer1">
    <path
       id="path6358-5"
       style="fill:#ffffff;fill-opacity:1;stroke-width:0.99999"
       d="m 13.853042,1.1534163 c -1.242445,0.7002994 -2.484876,1.4006257 -3.726887,2.1017857 0.825324,1.680852 1.651594,3.361184 2.477563,5.041682 -3.9120407,7.71394 -7.8233607,15.42829 -11.73591668,23.141938 10.13809368,0 20.27618768,0 30.41428068,0 C 27.321691,23.802441 23.359648,16.167017 19.398567,8.531036 20.263243,6.772515 21.128524,5.014326 21.992102,3.255202 20.221206,2.256676 18.449614,1.2595364 16.678519,0.26141189 16.417716,0.52675819 16.150502,1.9145528 15.895633,1.1410202 15.669075,0.51575399 15.410682,-0.00101921 14.82199,0.60792799 14.499008,0.78975749 14.176025,0.97158679 13.853042,1.1534163 Z" />
    <path
       opacity="0.5"
       d="M 16.085748,5.986769 14.666073,3.204075 12.412871,4.42752 14.647033,8.806811 Z"
       fill="white"
       id="path6358"
       style="fill:#925905;fill-opacity:1;stroke-width:0.99999" />
    <path
       fill-rule="evenodd"
       clip-rule="evenodd"
       d="M 3.3543843,30.084313 H 28.817101 L 17.443929,8.964691 19.758613,4.42752 17.505413,3.204075 Z M 21.178288,27.457458 c -3.81941,-3.940276 -5.09254,-10.507407 -5.09254,-10.507407 0,0 -1.273141,6.567131 -5.092554,10.507407 z"
       fill="white"
       id="path6360"
       style="fill:#925905;fill-opacity:1;stroke-width:0.99999" />
  </g>
</svg>
