<?xml version="1.0" encoding="UTF-8" standalone="no"?>
<!-- Created with Inkscape (http://www.inkscape.org/) -->

<svg
   width="128"
   height="128"
   viewBox="0 0 128 128"
   version="1.1"
   id="svg1"
   xmlns="http://www.w3.org/2000/svg"
   xmlns:svg="http://www.w3.org/2000/svg">
  <defs
     id="defs1" />
  <g
     id="layer1">
    <path
       id="path1"
       style="fill:#d3b796;fill-opacity:1;stroke-width:0.18287;stroke-dasharray:none"
       d="m 29.457,95.226923 c -4.236284,0.197365 -11.026037,0.04153 -10.9785,4.160661 v 8.802716 l -5.462046,2.93425 c 8.558734,0.0483 25.87356,-0.0204 32.591986,0 L 40.326685,108.1903 V 99.387584 C 40.374615,94.95424 33.427488,95.550185 29.457,95.226923 Z m 16.15144,15.897627 0.141888,0.079 0.0384,-0.079 c -0.03822,-1.3e-4 -0.141352,1.2e-4 -0.180291,0 z M 29.538077,96.59891 a 9.4098614,2.0626837 0 0 1 9.409228,2.061991 9.4098614,2.0626837 0 0 1 -9.409228,2.063139 9.4098614,2.0626837 0 0 1 -9.410295,-2.063139 9.4098614,2.0626837 0 0 1 9.410295,-2.061991 z" />
    <path
       id="path1-6"
       style="fill:#d3b796;fill-opacity:1;stroke-width:0.18287;stroke-dasharray:none"
       d="m 97.598356,55.378421 c -4.236284,0.197365 -11.026037,0.04153 -10.9785,4.160661 v 8.802719 l -5.462046,2.93425 c 8.558734,0.0483 25.87355,-0.0204 32.59198,0 l -5.28176,-2.93425 v -8.802719 c 0.0479,-4.433344 -6.89919,-3.837399 -10.869674,-4.160661 z m 16.151434,15.89763 0.14189,0.079 0.0384,-0.079 c -0.0382,-1.3e-4 -0.14136,1.2e-4 -0.18029,0 z M 97.679433,56.750408 a 9.4098614,2.0626837 0 0 1 9.409217,2.061991 9.4098614,2.0626837 0 0 1 -9.409217,2.063138 9.4098614,2.0626837 0 0 1 -9.410295,-2.063138 9.4098614,2.0626837 0 0 1 9.410295,-2.061991 z" />
    <path
       id="path1-5"
       style="fill:#d3b796;fill-opacity:1;stroke-width:0.18287;stroke-dasharray:none"
       d="m 51.335876,12.748793 c -4.236284,0.197365 -11.026037,0.04153 -10.9785,4.160661 v 8.802721 l -5.462046,2.934246 c 8.558734,0.0483 25.87356,-0.0204 32.59199,0 l -5.281759,-2.934246 v -8.802721 c 0.04793,-4.433344 -6.899197,-3.837399 -10.869685,-4.160661 z m 16.151444,15.897628 0.14188,0.079 0.0384,-0.079 c -0.0382,-1.3e-4 -0.14135,1.2e-4 -0.18029,0 z M 51.416953,14.12078 a 9.4098614,2.0626837 0 0 1 9.409228,2.061991 9.4098614,2.0626837 0 0 1 -9.409228,2.063138 9.4098614,2.0626837 0 0 1 -9.410295,-2.063138 9.4098614,2.0626837 0 0 1 9.410295,-2.061991 z" />
  </g>
</svg>
