<?xml version="1.0" encoding="UTF-8" standalone="no"?>
<!-- Created with Inkscape (http://www.inkscape.org/) -->

<svg
   width="128.0px"
   height="128.0px"
   viewBox="0 0 128.0 128.0"
   version="1.1"
   id="SVGRoot"
   xmlns="http://www.w3.org/2000/svg"
   xmlns:svg="http://www.w3.org/2000/svg">
  <defs
     id="defs18908" />
  <path
     style="opacity:0.25;fill:#9e696d;fill-opacity:1;stroke:none;stroke-width:5.527;stroke-dasharray:none;stroke-opacity:1"
     d="M 9.0928962,41.967213 C 9.1395262,41.734062 9.4659381,41.31439 9.2327869,41.26776 8.9996357,41.22113 9.1395259,41.734062 9.0928962,41.967213 Z"
     id="path2" />
  <path
     style="opacity:0.25;fill:#9e696d;fill-opacity:1;stroke:none;stroke-width:5.527;stroke-dasharray:none;stroke-opacity:1"
     d="m 56.69827,42.350172 c 4.376902,3.111241 7.219586,-1.12162 14.734661,-0.507869 2.906345,1.740765 6.721152,-0.395795 7.219696,4.26723 0.498544,4.663025 -5.434104,15.802 -9.335457,22.24197 -3.901353,6.439969 -9.664624,15.288543 -15.416824,14.740432 -5.7522,-0.54811 -12.141785,-5.646371 -17.791307,-9.847892 -5.649522,-4.201521 -11.337622,-3.952027 -14.824327,-8.543511 -3.486706,-4.591485 0.160039,-11.60041 -1.367514,-18.636566 -1.339244,-6.168775 -1.610164,-15.876136 0.901586,-18.018822 2.511751,-2.142686 9.305114,4.673679 12.996007,4.843556 3.690893,0.169877 9.989759,4.194259 13.17457,5.375883 z"
     id="path4"
     transform="matrix(1.0778348,0,0,0.86590833,-12.144358,10.974086)" />
  <path
     style="opacity:0.25;fill:#9e696d;fill-opacity:1;stroke:none;stroke-width:5.527;stroke-dasharray:none;stroke-opacity:1"
     d="m 48.508657,23.819501 c 5.435543,1.749206 0.923425,16.900215 2.038036,21.560197 2.072866,6.487126 3.997617,6.757219 5.67707,15.523988 1.679452,8.766769 2.380215,5.749615 -2.987097,6.846098 -5.952472,1.216025 -0.930157,1.927085 -7.885124,-0.83885 C 38.396575,64.145 28.20126,70.141801 23.403335,63.491963 18.605411,56.842125 18.464762,56.973874 19.607252,50.818626 c 1.14249,-6.155248 1.050755,-11.991671 2.219555,-16.407562 1.1688,-4.41589 3.598194,-9.742282 6.211442,-11.14071 2.613248,-1.398429 15.034864,-1.200059 20.470408,0.549147 z"
     id="path4-9"
     transform="matrix(0.94474891,0,0,0.72005337,25.960597,-12.152833)" />
  <path
     style="opacity:0.25;fill:#9e696d;fill-opacity:1;stroke:none;stroke-width:5.527;stroke-dasharray:none;stroke-opacity:1"
     d="m 77.350213,33.053659 c 2.159237,2.671675 1.052567,4.728154 -0.05411,8.842366 -0.14576,6.12348 -0.402047,7.023408 -1.843862,11.867547 -1.441815,4.844138 -6.169108,4.9264 -10.575068,5.748171 -4.405961,0.821771 -10.148499,3.965893 -15.553595,5.089457 -5.405096,1.12356 -11.024951,8.773793 -15.619863,11.533226 -4.594913,2.759433 -6.395877,6.32602 -9.069136,0.6254 -2.673259,-5.70062 -3.565795,-18.45176 -3.175842,-27.327905 0.389954,-8.876145 2.062351,-13.876224 6.205852,-17.197247 4.1435,-3.321023 10.757647,-4.962603 17.282264,-5.4012 6.524617,-0.438597 12.959202,0.325843 18.889115,1.322626 5.929913,0.996784 11.355009,2.225888 13.514245,4.897563 z"
     id="path4-9-3"
     transform="matrix(1.2656477,0,0,-0.88378722,-26.544108,151.38473)" />
  <path
     style="opacity:0.25;fill:#9e696d;fill-opacity:1;stroke:none;stroke-width:5.527;stroke-dasharray:none;stroke-opacity:1"
     d="m 50.218195,28.583575 c 6.060318,-0.0023 10.767881,2.319173 15.475443,4.640694 1.857549,5.432347 3.71506,10.864586 4.377063,16.798365 0.662002,5.933779 0.128443,12.368623 -3.932665,16.268468 C 62.076928,70.190948 54.48874,71.555583 41.575067,71.686666 28.661395,71.81775 10.423273,70.715234 3.1486345,68.883122 -4.1260041,67.051011 -5.5668716,58.79103 -4.3008742,53.648384 -3.0348768,48.505738 1.4264902,48.063816 3.0806559,43.042904 4.7348216,38.021991 8.711323,34.120966 13.636549,33.201099 c 4.925227,-0.919867 10.310042,-0.44132 16.709222,-1.365164 6.39918,-0.923843 13.812107,-3.250013 19.872424,-3.25236 z"
     id="path4-9-3-7"
     transform="matrix(0.57268143,0,0,-0.88378722,87.527449,63.478837)" />
  <path
     style="opacity:0.25;fill:#9e696d;fill-opacity:1;stroke:none;stroke-width:5.527;stroke-dasharray:none;stroke-opacity:1"
     d="m 58.522052,100.59986 c 5.929672,-0.909613 13.626677,0.48025 18.342961,-3.681243 4.716285,-4.161496 6.451397,-13.873831 6.093849,-23.977916 -0.357548,-10.104086 -0.612426,-20.119839 -4.489537,-22.792551 -3.877112,-2.672713 -6.985413,6.068336 -13.833338,7.53998 -6.847926,1.471644 -13.044071,1.420152 -18.150695,2.801679 -5.106623,1.381526 -11.172047,-5.38151 -11.157759,2.211423 0.01429,7.592933 3.91301,12.780509 6.099363,19.837736 2.186353,7.057227 -11.548861,26.058802 3.660978,21.835052 3.301846,-0.91692 7.504507,-2.86455 13.434178,-3.77416 z"
     id="path5"
     transform="matrix(0.95584697,0,0,0.58425255,46.847186,62.39382)" />
  <path
     style="opacity:0.25;fill:#9e696d;fill-opacity:1;stroke:none;stroke-width:5.527;stroke-dasharray:none;stroke-opacity:1"
     d="m 92.225304,102.16906 c 7.14,-3.111002 -4.199237,-8.056957 -2.083883,-13.640362 2.115353,-5.583405 4.22956,-9.327878 4.920412,-14.487114 0.690852,-5.159235 3.206144,-12.632914 -6.007014,-15.406301 -9.213158,-2.773386 -25.977811,-2.871829 -35.968679,-2.114539 -9.990869,0.757291 -13.20675,2.370224 -14.708168,8.954768 -1.501417,6.584543 3.119647,18.590059 5.279521,26.103068 2.159875,7.513009 18.793676,6.031087 27.392901,7.803337 8.599225,1.772253 14.03491,5.898153 21.17491,2.787143 z"
     id="path5-5"
     transform="matrix(0.60299949,0,0,0.62152646,-22.056413,-34.379143)" />
  <path
     style="opacity:0.25;fill:#9e696d;fill-opacity:1;stroke:none;stroke-width:5.527;stroke-dasharray:none;stroke-opacity:1"
     d="m 65.032625,107.54654 c 8.299145,-0.11224 10.264033,-1.32088 14.206874,-7.780907 3.94284,-6.460031 5.114576,-16.601744 4.265685,-25.641587 -0.84889,-9.039842 -2.444261,-15.407739 -7.437054,-20.506787 -4.992793,-5.099047 -10.718497,-1.279805 -16.654197,1.929066 -5.9357,3.20887 -7.563614,3.453498 -10.227109,10.534601 -2.663495,7.081103 -7.75213,17.075464 -9.266846,23.018619 -1.514716,5.943155 -6.636333,15.287315 -2.922885,19.765295 3.713449,4.47797 19.736387,-1.20606 28.035532,-1.3183 z"
     id="path5-1"
     transform="matrix(1.207805,0,0,0.71327762,26.440988,8.8400731)" />
</svg>
