<?xml version="1.0" encoding="UTF-8" standalone="no"?>
<!-- Created with Inkscape (http://www.inkscape.org/) -->

<svg
   width="128"
   height="128"
   viewBox="0 0 128 128"
   version="1.1"
   id="svg40006"
   xmlns="http://www.w3.org/2000/svg"
   xmlns:svg="http://www.w3.org/2000/svg">
  <defs
     id="defs40003" />
  <g
     id="layer1">
    <path
       style="fill:#a46f4c;fill-opacity:1;stroke:none;stroke-width:1.5;stroke-opacity:0.733333"
       d="m 15.708263,39.933055 c 9.399724,-4.668319 18.799448,-9.336639 28.010006,-9.336592 9.210558,4.7e-5 18.231589,4.668273 27.2528,9.336592"
       id="path1-8-7"
       transform="matrix(1,0,0,0.81756666,-12.50826,-2.0807612)" />
    <path
       style="fill:#a46f4c;fill-opacity:1;stroke:none;stroke-width:1.5;stroke-opacity:0.733333"
       d="m 15.708263,39.933055 c 9.399724,-4.668319 18.799448,-9.336639 28.010006,-9.336592 9.210558,4.7e-5 18.231589,4.668273 27.2528,9.336592"
       id="path1-8-7-1"
       transform="matrix(0.9109589,0,0,0.81756666,-12.398837,59.591136)" />
    <path
       style="fill:#a46f4c;fill-opacity:1;stroke:none;stroke-width:1.5;stroke-opacity:0.733333"
       d="m 15.708263,39.933055 c 9.399724,-4.668319 18.799448,-9.336639 28.010006,-9.336592 9.210558,4.7e-5 18.231589,4.668273 27.2528,9.336592"
       id="path1-8-7-8"
       transform="matrix(1.0410959,0,0,0.81756666,52.894123,75.959732)" />
    <path
       style="fill:#a46f4c;fill-opacity:1;stroke:none;stroke-width:1.5;stroke-opacity:0.733333"
       d="m 15.708263,39.933055 c 9.399724,-4.668319 18.799448,-9.336639 28.010006,-9.336592 9.210558,4.7e-5 18.231589,4.668273 27.2528,9.336592"
       id="path1-8-7-2"
       transform="matrix(0.94178082,0,0,0.81756666,46.395516,43.410146)" />
    <path
       style="fill:#a46f4c;fill-opacity:1;stroke:none;stroke-width:1.5;stroke-opacity:0.733333"
       d="m 15.708263,39.933055 c 9.399724,-4.668319 18.799448,-9.336639 28.010006,-9.336592 9.210558,4.7e-5 18.231589,4.668273 27.2528,9.336592"
       id="path1-8-7-15"
       transform="matrix(0.95890411,0,0,0.81756666,43.799267,-19.395639)" />
    <path
       style="fill:#a46f4c;fill-opacity:1;stroke:none;stroke-width:1.5;stroke-opacity:0.733333"
       d="m 15.708263,39.933055 c 9.399724,-4.668319 18.799448,-9.336639 28.010006,-9.336592 9.210558,4.7e-5 18.231589,4.668273 27.2528,9.336592"
       id="path1-8-7-3"
       transform="matrix(0.77054795,0,0,0.69594443,6.900987,31.419783)" />
    <path
       style="fill:#a46f4c;fill-opacity:1;stroke:none;stroke-width:1.5;stroke-opacity:0.733333"
       d="m 15.708263,39.933055 c 9.399724,-4.668319 18.799448,-9.336639 28.010006,-9.336592 9.210558,4.7e-5 18.231589,4.668273 27.2528,9.336592"
       id="path1-8-7-9-7"
       transform="matrix(0.81164384,0,0,0.81756666,67.751307,9.4382453)" />
    <path
       style="fill:#a46f4c;fill-opacity:1;stroke:none;stroke-width:1.5;stroke-opacity:0.733333"
       d="m 15.708263,39.933055 c 9.399724,-4.668319 18.799448,-9.336639 28.010006,-9.336592 9.210558,4.7e-5 18.231589,4.668273 27.2528,9.336592"
       id="path1-8-7-9-8"
       transform="matrix(0.81164384,0,0,0.81756666,2.8207322,87.908492)" />
  </g>
</svg>
