<?xml version="1.0" encoding="UTF-8" standalone="no"?>
<!-- Created with Inkscape (http://www.inkscape.org/) -->

<svg
   width="32"
   height="32"
   viewBox="0 0 32 32"
   version="1.1"
   id="svg1"
   xmlns="http://www.w3.org/2000/svg"
   xmlns:svg="http://www.w3.org/2000/svg">
  <defs
     id="defs1" />
  <g
     id="layer1">
    <g
       id="g4"
       transform="matrix(0.0616155,0,0,0.06515726,0.26509241,-1.5295741)">&#10;	<path
   class="st0"
   d="m 259.122,277.312 c 6.042,-4.619 14.559,-9.533 24.351,-13.986 17.626,-8.093 39.243,-15.003 58.458,-19.751 9.607,-2.374 18.642,-4.231 26.236,-5.46 7.556,-1.247 13.819,-1.828 17.145,-1.81 h 0.092 l 6.818,0.166 4.601,-5.034 c 16.018,-17.515 31.667,-27.104 43.104,-32.37 5.709,-2.633 10.365,-4.176 13.45,-5.034 1.552,-0.425 2.697,-0.684 3.399,-0.822 0.333,-0.074 0.573,-0.112 0.684,-0.139 l 21.266,-2.984 -10.217,-18.956 C 452.139,140.813 424.371,108.776 385.959,83.954 347.566,59.16 298.365,41.802 240.185,41.82 c -6.633,0 -13.414,0.314 -20.287,0.776 l -2.494,-16.037 -18.514,2.9 2.513,16 C 140.913,60.443 95.205,91.307 63.168,127.141 46.41,145.866 33.33,165.921 23.556,185.829 13.8,205.737 7.352,225.505 3.934,243.815 L 0,264.989 l 21.1,-3.64 c 0.074,-0.009 2.623,-0.397 7.132,-0.397 11.178,0.018 34.217,2.291 62.392,18.392 l 5.82,3.316 6.338,-2.106 c 2.253,-0.748 5.782,-1.654 10.106,-2.494 13.063,-2.568 33.331,-4.629 55.058,-4.61 21.931,-0.027 45.561,2.106 65.183,7.289 l 27.935,178.485 H 38.947 V 485.44 H 510.91 V 459.224 H 287.594 Z M 369.7,109.137 c 27.177,17.506 48.351,39.335 62.798,60.48 -1.625,0.674 -3.325,1.405 -5.118,2.227 -11.011,5.062 -24.609,13.118 -38.762,25.654 -2.735,-4.305 -5.894,-9.062 -9.479,-14.19 -14.393,-20.545 -35.363,-46.753 -61.617,-71.03 C 302.095,98.033 284.839,84.454 265.994,73.118 306.79,77.256 341.45,90.929 369.7,109.137 Z M 92.73,244.619 c -0.167,0.628 -0.296,1.229 -0.444,1.839 -21.858,-10.3 -40.961,-14.005 -54.54,-15.086 3.104,-10.42 7.316,-21.339 12.711,-32.351 12.915,-26.318 32.554,-53.145 59.769,-75.695 17.126,-14.189 37.247,-26.717 60.71,-36.462 -6.78,7.889 -13.08,16.12 -18.919,24.554 -22.337,32.378 -37.893,67.547 -48.018,96.203 -5.079,14.337 -8.775,27.039 -11.269,36.998 z m 75.214,-1.136 c -15.723,0 -30.595,0.961 -43.344,2.475 -4.766,0.574 -9.238,1.22 -13.377,1.94 1.331,-5.192 2.975,-11.16 5.026,-17.755 7.095,-22.929 18.661,-53.173 35.4,-82.771 14.116,-25.008 31.963,-49.451 53.635,-68.869 l 26.79,171.205 c -20.914,-4.544 -43.234,-6.198 -64.13,-6.225 z M 250.587,246.9 223.354,72.933 c 20.933,8.065 40.702,19.972 58.679,33.83 29.358,22.596 53.986,50.198 71.649,73.422 7.686,10.115 14.06,19.4 18.938,27.039 -0.37,0.046 -0.74,0.083 -1.128,0.13 -8.998,1.136 -19.824,3.131 -31.649,5.903 -17.718,4.148 -37.542,10.004 -55.982,17.33 -9.219,3.668 -18.069,7.705 -26.198,12.158 -2.439,1.348 -4.785,2.742 -7.076,4.155 z"
   id="path1"
   style="fill:#a80012;fill-opacity:1" />
&#10;	<rect
   x="343.44601"
   y="380.82199"
   class="st0"
   width="49.403999"
   height="18.725"
   id="rect1"
   style="fill:#a80012;fill-opacity:1" />
&#10;	<rect
   x="462.59601"
   y="380.82199"
   class="st0"
   width="49.403999"
   height="18.725"
   id="rect2"
   style="fill:#a80012;fill-opacity:1" />
&#10;	<rect
   x="401.57001"
   y="309.39499"
   class="st0"
   width="49.404999"
   height="18.725"
   id="rect3"
   style="fill:#a80012;fill-opacity:1" />
&#10;	<polygon
   class="st0"
   points="143.686,380.924 143.316,399.658 192.721,400.638 193.09,381.912 "
   id="polygon3"
   style="fill:#a80012;fill-opacity:1" />
&#10;	<polygon
   class="st0"
   points="84.102,308.305 83.732,327.03 133.118,328.01 133.506,309.284 "
   id="polygon4"
   style="fill:#a80012;fill-opacity:1" />
&#10;</g>
  </g>
</svg>
