<svg width="32" height="32" viewBox="0 0 8.467 8.467" xmlns="http://www.w3.org/2000/svg"><defs><linearGradient id="b" x1="1.001" x2="2.352" y1="4.762" y2="4.762" gradientTransform="matrix(1.491 0 0 1 -.506 0)" gradientUnits="userSpaceOnUse"><stop stop-color="#c4c4c4" offset="0"/><stop stop-color="#222" offset="1"/></linearGradient><linearGradient id="c" x1="1.112" x2="2.549" y1="4.762" y2="4.762" gradientTransform="matrix(1.52 0 0 .5292 1.535 3.737)" gradientUnits="userSpaceOnUse"><stop stop-color="#cecece" offset="0"/><stop stop-color="#404040" offset="1"/></linearGradient><linearGradient id="a" x1="1.443" x2="2.778" y1="4.762" y2="4.762" gradientTransform="matrix(1.714 0 0 .675 3.269 2.58)" gradientUnits="userSpaceOnUse"><stop stop-color="#e1e1e1" offset="0"/><stop stop-color="#2f2f2f" offset="1"/></linearGradient></defs><path d="M.53 7.937v-6.35L1.322.529H2.91l.714.953h1.323l.768 1.032h1.429l.793 1.058v4.365z" fill="none" stroke="#f2f2f2" stroke-linejoin="round" stroke-width="1.058"/><g stroke="#000" stroke-width=".265"><path d="M5.424 7.937V3.651h2.381v4.286" fill="url(#a)"/><path d="M.677 7.937v-6.35H3.44v6.35" fill="url(#b)" stroke-linejoin="round"/><path d="M2.741 7.937v-3.36h2.815v3.36" fill="url(#c)"/></g><path d="M1.323 2.381v5.556" fill="none" stroke="#3c3c3c" stroke-width=".265"/><path transform="matrix(.9073 0 0 .6945 -2.193 .3)" d="M6.326 1.852l-.788 1.364H3.962l-.788-1.364.788-1.364h1.576z" fill="#a5a5a5" stroke="#000" stroke-linecap="round" stroke-linejoin="round" stroke-width=".333"/><path transform="matrix(.9073 0 0 .6945 -.142 1.249)" d="M6.326 1.852l-.788 1.364H3.962l-.788-1.364.788-1.364h1.576z" fill="#6e6e6e" stroke="#000" stroke-linecap="round" stroke-linejoin="round" stroke-width=".333"/><path d="M7.144 4.233v3.704" fill="none" stroke="#3c3c3c" stroke-width=".265"/><path transform="matrix(.9073 0 0 .6945 2.033 2.264)" d="M6.326 1.852l-.788 1.364H3.962l-.788-1.364.788-1.364h1.576z" fill="#8a8a8a" stroke="#000" stroke-linecap="round" stroke-linejoin="round" stroke-width=".333"/><path d="M4.868 5.292v2.646M3.466 5.292v2.646" fill="none" stroke="#3c3c3c" stroke-width=".265"/><path transform="matrix(.9073 0 0 .6945 -.142 3.164)" d="M6.326 1.852l-.788 1.364H3.962l-.788-1.364.788-1.364h1.576z" fill="#a2a2a2" stroke="#000" stroke-linecap="round" stroke-linejoin="round" stroke-width=".333"/></svg>