<svg xmlns="http://www.w3.org/2000/svg" xmlns:xlink="http://www.w3.org/1999/xlink" width="32" height="32"><defs><linearGradient id="a"><stop offset="0" stop-color="#ad8d00"/><stop offset="1" stop-color="#3c3100"/></linearGradient><radialGradient xlink:href="#a" id="b" cx="16.003" cy="15.976" fx="16.003" fy="15.976" r="15.307" gradientTransform="matrix(.91414 0 0 .91511 1.371 1.38)" gradientUnits="userSpaceOnUse"/></defs><path style="line-height:normal;font-variant-ligatures:normal;font-variant-position:normal;font-variant-caps:normal;font-variant-numeric:normal;font-variant-alternates:normal;font-variant-east-asian:normal;font-feature-settings:normal;font-variation-settings:normal;text-indent:0;text-align:start;text-decoration-line:none;text-decoration-style:solid;text-decoration-color:#000;text-transform:none;text-orientation:mixed;white-space:normal;shape-padding:0;shape-margin:0;inline-size:0;isolation:auto;mix-blend-mode:normal;solid-color:#000;solid-opacity:1" d="M15.833 0C6.174-.008.034 6.225 0 15.764c-.034 9.538 5.876 15.906 14.764 16.224 8.889.32 17.23-5.995 17.236-15.317C32.006 7.348 25.492.008 15.833 0zM14.43 11.638h3.023l2.53 2.747-.042 3.48-2.645 2.295-2.748.082-2.884-3.003-.002-2.772z" color="#000" font-weight="400" font-family="sans-serif" overflow="visible" fill="#f2f2f2" paint-order="stroke markers fill"/><path d="M21.098 21.297l2.709 3.249v0M8.057 7.37l2.708 3.248v0M23.921 16h3.483v0m-22.777-.06H8.11v0M16 23.91v3.141m.06-22.163V8.03m5.152 2.692l2.34-2.277M8.346 23.43l2.34-2.277M28.53 16A12.53 12.53 0 0 1 16 28.53 12.53 12.53 0 0 1 3.47 16 12.53 12.53 0 0 1 16 3.47 12.53 12.53 0 0 1 28.53 16z" fill="none" stroke="url(#b)" stroke-width="2.94" stroke-linecap="square"/></svg>