<svg xmlns="http://www.w3.org/2000/svg" xmlns:xlink="http://www.w3.org/1999/xlink" width="32" height="36"><defs><linearGradient id="a"><stop offset="0" stop-color="#5fb1d3"/><stop offset="1" stop-color="#fff"/></linearGradient><linearGradient xlink:href="#a" id="b" x1="13.348" y1="22.028" x2="11.759" y2="7.498" gradientUnits="userSpaceOnUse" gradientTransform="matrix(1.08983 0 0 1.15745 3.226 .412)"/></defs><path style="line-height:normal;font-variant-ligatures:normal;font-variant-position:normal;font-variant-caps:normal;font-variant-numeric:normal;font-variant-alternates:normal;font-variant-east-asian:normal;font-feature-settings:normal;font-variation-settings:normal;text-indent:0;text-align:start;text-decoration-line:none;text-decoration-style:solid;text-decoration-color:#000;text-transform:none;text-orientation:mixed;white-space:normal;shape-padding:0;shape-margin:0;inline-size:0;isolation:auto;mix-blend-mode:normal;solid-color:#000;solid-opacity:1" d="M15.04.005c-1.79.155-2.736 2.04-2.902 3.701.11 1.085-.185 2.395-1.48 1.85-2.27.553-2.959 3.207-3.29 5.304-.234 1.493-.23 3.07.3 4.499-2.74-.036-4.732 2.822-4.666 5.507-.033 1.991 1.015 3.902 2.55 5.055-1.724 1.286-2.419 3.972-1.13 5.834 1.692 2.513 4.78 3.343 7.527 3.882 4.542.683 9.395.519 13.62-1.508 2.033-.944 3.946-3.165 3.305-5.63-.663-2.46-3.074-3.788-5.272-4.455.509-5.747.603-11.536 1.49-17.242.26-1.768.189-3.983-1.454-5.025-1.573-1.141-3.705-.486-4.952.854-1.057.528-.679-1.965-1.853-2.169-.52-.372-1.172-.49-1.793-.457z" color="#000" font-weight="400" font-family="sans-serif" overflow="visible" fill="#f2f2f2" paint-order="stroke markers fill"/><path style="line-height:normal;font-variant-ligatures:normal;font-variant-position:normal;font-variant-caps:normal;font-variant-numeric:normal;font-variant-alternates:normal;font-variant-east-asian:normal;font-feature-settings:normal;font-variation-settings:normal;text-indent:0;text-align:start;text-decoration-line:none;text-decoration-style:solid;text-decoration-color:#000;text-transform:none;text-orientation:mixed;white-space:normal;shape-padding:0;shape-margin:0;inline-size:0;isolation:auto;mix-blend-mode:normal;solid-color:#000;solid-opacity:1" d="M16.371 25.21c-5.778 0-10.462 1.912-10.462 4.27 0 2.359 4.684 4.27 10.462 4.27s10.462-1.911 10.462-4.27c0-2.358-4.684-4.27-10.462-4.27zm.058.758c4.341 0 7.4.763 7.4 2.535 0 1.772-2.77 2.841-7.112 2.841-4.342 0-7.689-.946-7.689-2.718s3.06-2.658 7.4-2.658z" color="#000" font-weight="400" font-family="sans-serif" overflow="visible" fill="#66300d" paint-order="stroke markers fill"/><path d="M20.261 28.546c.17-1.055.51-3.166.756-6.324.245-3.16.394-7.366.755-10.843.36-3.477.932-6.224.545-7.056-.388-.831-1.736.253-2.77 1.193-1.035.94-1.756 1.734-2.328 1.692-.571-.043-.993-.925-1.286-1.995-.293-1.07-.456-2.327-.647-2.356-.19-.03-.409 1.17-.633 3.1-.225 1.93-.456 4.59-.898 5.516-.442.925-1.095.116-1.538-.99-.443-1.106-.674-2.508-1.164-2.039-.49.47-1.24 2.812-1.048 4.988.19 2.176 1.32 4.185 1.341 4.951.021.766-1.068.289-2.123 0-1.055-.29-2.076-.391-2.764.426-.688.817-1.042 2.552-.231 3.803.81 1.25 2.784 2.016 4.186 3.1 1.402 1.085 2.232 2.488 3.342 3.195 1.11.708 2.498.723 3.6.723 1.103 0 1.92-.015 2.327-.022.408-.007.408-.007.578-1.062z" fill="url(#b)" stroke="#004280" stroke-width="1.123" stroke-linecap="square" stroke-linejoin="round"/><path d="M17.355 8.783c.11 1.085.218 2.17.524 3.608.307 1.439.81 3.231 1.314 5.023m-7.228 2.385c.204.854.408 1.707.892 2.914.483 1.208 1.245 2.769 2.007 4.329m-.656-13.839c.109 1.086.217 2.17.524 3.609.306 1.438.81 3.23 1.313 5.022" fill="#00b1b1" stroke="#004280" stroke-width=".674" stroke-linecap="square" paint-order="fill markers stroke"/></svg>