<svg xmlns="http://www.w3.org/2000/svg" height="32" width="32" version="1.0"><path style="line-height:normal;font-variant-ligatures:normal;font-variant-position:normal;font-variant-caps:normal;font-variant-numeric:normal;font-variant-alternates:normal;font-variant-east-asian:normal;font-feature-settings:normal;font-variation-settings:normal;text-indent:0;text-align:start;text-decoration-line:none;text-decoration-style:solid;text-decoration-color:#000;text-transform:none;text-orientation:mixed;white-space:normal;shape-padding:0;shape-margin:0;inline-size:0;isolation:auto;mix-blend-mode:normal;solid-color:#000;solid-opacity:1" d="M7.365.041C5.748.083 5.19 1.877 4.203 2.86c-.986 1.09-.52 2.737.709 3.418 1.292 1.027 3.184 1.816 3.269 3.72.698 3.595.88 7.32.202 10.936-.324 1.218-.232 2.783-1.555 3.398-1.1 1.066-3.221 1.788-3.11 3.597.25 1.361 1.488 2.229 2.217 3.34 1.184 1.41 3.038.372 4.007-.73 1.232-1.063 2.69-1.875 3.77-3.109 2.523-6.65 2.558-14.128.665-20.94-.2-1.969-1.77-3.122-3.305-4.109-1.235-.75-2.18-2.21-3.707-2.34zm17.309 0c-1.589.245-2.563 1.713-3.865 2.517-1.572.92-2.934 2.203-3.116 4.122-1.895 6.7-1.738 13.994.605 20.562 1.025 1.448 2.74 2.18 3.983 3.416.982 1.158 3 1.98 4.045.438.745-1.18 2.27-2.17 2.057-3.734-.5-1.507-2.153-2.14-3.267-3.114-1.403-1.044-1.207-3.008-1.58-4.544A28.323 28.323 0 0 1 24.36 8.41c1.29-1.197 3.134-1.923 4.01-3.492.472-1.494-.981-2.496-1.657-3.621-.467-.67-1.163-1.308-2.038-1.256zM4 12c-2.822-.129-4.984 3.317-3.58 5.794 1.09 2.315 4.534 2.973 6.339 1.108 1.873-1.694 1.545-5.112-.709-6.326A3.95 3.95 0 0 0 4 12zm24.111 0c-2.822-.129-4.984 3.317-3.58 5.794 1.09 2.315 4.535 2.973 6.339 1.108 1.873-1.694 1.546-5.112-.708-6.326a3.95 3.95 0 0 0-2.05-.576z" color="#000" font-weight="400" font-family="sans-serif" overflow="visible" fill="#f2f2f2"/><path style="line-height:normal;font-variant-ligatures:normal;font-variant-position:normal;font-variant-caps:normal;font-variant-numeric:normal;font-variant-alternates:normal;font-variant-east-asian:normal;font-feature-settings:normal;font-variation-settings:normal;text-indent:0;text-align:start;text-decoration-line:none;text-decoration-style:solid;text-decoration-color:#000;text-transform:none;text-orientation:mixed;white-space:normal;shape-padding:0;shape-margin:0;inline-size:0;isolation:auto;mix-blend-mode:normal;solid-color:#000;solid-opacity:1" d="M7.37 2.041l-1.718 2.25L9.54 7.26c1.71 5.65 1.783 11.822.004 17.465l-3.842 3.029 1.754 2.223c1.518-1.196 3.032-2.397 4.55-3.59 2.315-6.681 2.226-14.109.005-20.801L7.37 2.04z" color="#000" font-weight="400" font-family="sans-serif" overflow="visible"/><path style="line-height:normal;font-variant-ligatures:normal;font-variant-position:normal;font-variant-caps:normal;font-variant-numeric:normal;font-variant-alternates:normal;font-variant-east-asian:normal;font-feature-settings:normal;font-variation-settings:normal;text-indent:0;text-align:start;text-decoration-line:none;text-decoration-style:solid;text-decoration-color:#000;text-transform:none;text-orientation:mixed;white-space:normal;shape-padding:0;shape-margin:0;inline-size:0;isolation:auto;mix-blend-mode:normal;solid-color:#000;solid-opacity:1" d="M6 16a2 2 0 1 1-4 0 2 2 0 0 1 4 0z" color="#000" font-weight="400" font-family="sans-serif" overflow="visible" fill="#161616" paint-order="stroke markers fill"/><path style="line-height:normal;font-variant-ligatures:normal;font-variant-position:normal;font-variant-caps:normal;font-variant-numeric:normal;font-variant-alternates:normal;font-variant-east-asian:normal;font-feature-settings:normal;font-variation-settings:normal;text-indent:0;text-align:start;text-decoration-line:none;text-decoration-style:solid;text-decoration-color:#000;text-transform:none;text-orientation:mixed;white-space:normal;shape-padding:0;shape-margin:0;inline-size:0;isolation:auto;mix-blend-mode:normal;solid-color:#000;solid-opacity:1" d="M24.74 2.041L20.1 5.586c-2.221 6.692-2.313 14.121.005 20.8l4.55 3.59 1.753-2.222-3.84-3.03c-1.779-5.642-1.705-11.814.004-17.464 1.296-.99 2.59-1.98 3.887-2.969l-1.72-2.25z" color="#000" font-weight="400" font-family="sans-serif" overflow="visible"/><path style="line-height:normal;font-variant-ligatures:normal;font-variant-position:normal;font-variant-caps:normal;font-variant-numeric:normal;font-variant-alternates:normal;font-variant-east-asian:normal;font-feature-settings:normal;font-variation-settings:normal;text-indent:0;text-align:start;text-decoration-line:none;text-decoration-style:solid;text-decoration-color:#000;text-transform:none;text-orientation:mixed;white-space:normal;shape-padding:0;shape-margin:0;inline-size:0;isolation:auto;mix-blend-mode:normal;solid-color:#000;solid-opacity:1" d="M26.11 16a2 2 0 1 0 4 0 2 2 0 0 0-4 0z" color="#000" font-weight="400" font-family="sans-serif" overflow="visible" fill="#161616" paint-order="stroke markers fill"/></svg>