<?xml version="1.0" encoding="UTF-8" standalone="no"?>
<!-- Created with Inkscape (http://www.inkscape.org/) -->

<svg
   width="32.0px"
   height="32.0px"
   viewBox="0 0 32.0 32.0"
   version="1.1"
   id="SVGRoot"
   xmlns="http://www.w3.org/2000/svg"
   xmlns:svg="http://www.w3.org/2000/svg">
  <defs
     id="defs14368" />
  <g
     id="layer1">
    <path
       id="path1578-5"
       style="color:#000000;fill:#ffffff;stroke:#ffccaa;stroke-width:0;stroke-dasharray:none;stroke-opacity:1"
       d="M 24.960511,0.34256418 23.479695,2.0886154 C 21.957829,3.9314999 20.357479,5.81669 19.385002,8.0082011 18.509849,6.2476576 17.070911,4.7578183 15.265469,3.9045087 13.845317,3.1965835 12.23707,2.8658694 10.649147,2.9323829 6.7328255,3.0429083 3.0617355,5.8615561 2.1062765,9.6353322 c -0.661793,2.4294408 -0.186691,5.1217498 1.251528,7.1956188 -1.199791,1.34082 -2.031287,3.125951 -1.713925,4.945573 0.04337,1.508368 0.860675,2.892307 2.090338,3.765808 1.262777,1.125526 3.045096,1.275272 4.660269,1.449694 -1.184153,0.346868 -2.398365,0.641586 -3.645671,0.957024 -1.121096,0.799147 -2.06005,1.854025 -3.110668,2.752156 -0.23881,0.329812 -1.49626701,1.050063 -0.489147,0.904171 1.559163,0.01651 3.118303,0.03256 4.677466,0.04907 -0.02724,0.01763 0.942888,-0.04787 1.320313,-0.06229 2.8919215,-0.165037 6.0285555,-0.395574 8.3670845,-2.284024 1.407691,-0.9424 2.013578,-2.753064 1.566798,-4.356634 -0.331904,-1.955698 -2.31816,-3.032152 -4.115711,-3.433586 -0.661123,-0.174813 -1.332579,-0.302276 -1.994801,-0.471906 0.186592,-0.450568 0.924669,-0.122564 1.343242,-0.302019 3.786948,-0.436676 7.101748,-3.431201 7.818705,-7.135216 0.621888,0.699382 1.415335,1.253425 2.292875,1.56484 3.026179,1.265066 7.103412,0.0203 8.38237,-3.097589 0.795945,-1.76901 0.132839,-3.7446774 -0.829256,-5.3079892 C 28.605774,4.4124492 26.743123,2.3950747 24.960511,0.34256418 Z" />
    <path
       style="color:#000000;fill:#3f64f6;stroke:#ffccaa;stroke-width:0;stroke-dasharray:none;stroke-opacity:1"
       d="m 10.658268,4.2261662 c -1.9769915,0 -3.8729615,0.7652552 -5.2708955,2.127337 -1.397988,1.3621034 -2.183348,3.2094028 -2.183348,5.1356788 0,1.926126 0.78524,3.773373 2.183026,5.135468 -0.938598,1.189551 -2.587091,2.649008 -2.399156,4.458346 0.09188,1.983363 0.559313,2.235854 1.613236,3.138882 1.558794,1.335614 6.3332025,0.503475 6.5839145,2.049494 0.389,2.398773 -2.7266575,2.75602 -6.1446635,3.707569 0.895034,-0.11322 5.7191885,-0.03486 7.9333855,-1.355607 1.688872,-1.04155 2.317634,-1.61001 1.796033,-3.532082 -1.004294,-2.423041 -6.7332845,-1.547912 -6.4275685,-3.604267 0.343257,-1.571254 0.801915,-2.185397 1.19248,-2.818185 0.369642,0.05491 0.7450505,0.0835 1.1235565,0.0835 1.976991,0 3.873014,-0.765266 5.271002,-2.127337 1.397933,-1.362124 2.183348,-3.209508 2.183348,-5.135782 0,-1.926276 -0.785415,-3.7735754 -2.183348,-5.1356788 -1.397988,-1.3620808 -3.294011,-2.127336 -5.271002,-2.127336 z M 5.0403815,29.978941 c -0.09245,0.0117 -0.156891,0.02478 -0.157958,0.04232 0.05343,-0.01514 0.104663,-0.02749 0.157958,-0.04232 z"
       id="path1578" />
    <path
       d="m 24.88528,2.6479809 c 0,0 -4.325201,4.9297434 -4.325201,7.1705083 0,1.9719208 1.946276,3.5852118 4.325201,3.5852118 2.378928,0 4.325323,-1.613291 4.325323,-3.5852118 0,-2.3752317 -4.325323,-7.1705083 -4.325323,-7.1705083 z"
       fill="#0f5cf0"
       id="path236"
       style="fill:#ff0000;fill-opacity:1;stroke:none;stroke-width:0.142391;stroke-dasharray:none" />
  </g>
</svg>
