<?xml version="1.0" encoding="UTF-8" standalone="no"?>
<!-- Created with Inkscape (http://www.inkscape.org/) -->

<svg
   width="32.0px"
   height="32.0px"
   viewBox="0 0 32.0 32.0"
   version="1.1"
   id="SVGRoot"
   xmlns="http://www.w3.org/2000/svg"
   xmlns:svg="http://www.w3.org/2000/svg">
  <defs
     id="defs9002" />
  <g
     id="layer1">
    <path
       id="path1578-5"
       style="color:#000000;fill:#ffffff;stroke:#ffccaa;stroke-width:0;stroke-dasharray:none;stroke-opacity:1"
       d="M 25.211089,0.15771828 23.730273,1.9037695 C 22.208407,3.746654 20.608057,5.6318441 19.63558,7.8233552 18.760427,6.0628117 17.321489,4.5729724 15.516047,3.7196628 14.095895,3.0117376 12.487648,2.6810235 10.899725,2.747537 6.9834032,2.8580624 3.3123128,5.6767102 2.3568536,9.4504863 1.6950614,11.879927 2.170163,14.572236 3.6083816,16.646105 c -1.199791,1.34082 -2.0312871,3.125951 -1.7139247,4.945573 0.043373,1.508368 0.8606747,2.892307 2.0903377,3.765808 1.2627774,1.125526 3.045096,1.275272 4.6602694,1.449694 -1.1841528,0.346868 -2.3983648,0.641586 -3.6456714,0.957024 -1.121096,0.799147 -2.0600494,1.854025 -3.1106679,2.752156 -0.2388093,0.329812 -1.49626703,1.050063 -0.4891468,0.904171 1.5591629,0.01651 3.1183035,0.03256 4.6774657,0.04907 -0.027236,0.01763 0.942888,-0.04787 1.3203136,-0.06229 2.8919218,-0.165037 6.0285558,-0.395574 8.3670848,-2.284024 1.407691,-0.9424 2.013578,-2.753064 1.566798,-4.356634 -0.331904,-1.955698 -2.31816,-3.032152 -4.115711,-3.433586 -0.661123,-0.174813 -1.332579,-0.302276 -1.994801,-0.471906 0.186592,-0.450568 0.924669,-0.122564 1.343242,-0.302019 3.786948,-0.436676 7.101748,-3.431201 7.818705,-7.135216 0.621888,0.699382 1.415335,1.253425 2.292875,1.56484 3.026179,1.265066 7.103412,0.0203 8.38237,-3.097589 0.795945,-1.76901 0.132839,-3.7446773 -0.829256,-5.3079891 C 28.856352,4.2276033 26.993701,2.2102288 25.211089,0.15771828 Z" />
    <path
       style="color:#000000;fill:#3f64f6;stroke:#ffccaa;stroke-width:0;stroke-dasharray:none;stroke-opacity:1"
       d="m 10.908846,4.0413203 c -1.9769924,0 -3.8729625,0.7652552 -5.2708959,2.127337 -1.3979878,1.3621034 -2.1833477,3.2094028 -2.1833477,5.1356787 0,1.926126 0.7852393,3.773373 2.1830251,5.135468 -0.938598,1.189551 -2.587091,2.649008 -2.3991555,4.458346 0.091878,1.983363 0.5593126,2.235854 1.6132363,3.138882 1.5587939,1.335614 6.3332027,0.503475 6.5839147,2.049494 0.389,2.398773 -2.7266583,2.75602 -6.1446642,3.707569 0.8950343,-0.11322 5.7191892,-0.03486 7.9333862,-1.355607 1.688872,-1.04155 2.317634,-1.61001 1.796033,-3.532082 -1.004294,-2.423041 -6.7332848,-1.547912 -6.4275692,-3.604267 0.343257,-1.571254 0.8019151,-2.185397 1.1924801,-2.818185 0.3696421,0.05491 0.7450511,0.0835 1.1235571,0.0835 1.976991,0 3.873014,-0.765266 5.271002,-2.127337 1.397933,-1.362124 2.183348,-3.209508 2.183348,-5.135782 0,-1.9262759 -0.785415,-3.7735753 -2.183348,-5.1356787 C 14.78186,4.8065755 12.885837,4.0413203 10.908846,4.0413203 Z M 5.2909588,29.794095 c -0.092453,0.0117 -0.156891,0.02478 -0.157958,0.04232 0.053431,-0.01514 0.1046629,-0.02749 0.157958,-0.04232 z"
       id="path1578" />
    <path
       d="m 25.135858,2.463135 c 0,0 -4.325201,4.9297434 -4.325201,7.1705083 0,1.9719207 1.946276,3.5852117 4.325201,3.5852117 2.378928,0 4.325323,-1.613291 4.325323,-3.5852117 0,-2.3752317 -4.325323,-7.1705083 -4.325323,-7.1705083 z"
       fill="#0f5cf0"
       id="path236"
       style="fill:#399300;fill-opacity:1;stroke-width:0.142391;stroke-dasharray:none;stroke:none" />
  </g>
</svg>
