<?xml version="1.0" encoding="UTF-8" standalone="no"?>
<!-- Created with Inkscape (http://www.inkscape.org/) -->

<svg
   width="28"
   height="32"
   viewBox="0 0 28 32"
   version="1.1"
   id="svg1"
   xmlns="http://www.w3.org/2000/svg"
   xmlns:svg="http://www.w3.org/2000/svg">
  <defs
     id="defs1" />
  <g
     id="layer1">
    <path
       id="path6447"
       d="m 16.415299,0.51092064 c -0.359396,0.0129107 -0.695547,0.18875549 -0.920051,0.48413753 L 11.796692,6.7705594 6.695222,3.2992088 C 5.6257453,2.2635907 4.2609713,3.6558975 5.0706348,4.9264352 l 4.5371294,5.6517028 c 0.4693508,0.711592 1.7224618,0.996394 2.2335168,0.31739 0.407835,-0.541966 0.93208,-2.2960598 2.158833,-2.2960598 1.226749,0 1.945401,1.2669741 2.30974,1.7497958 0.429145,0.569047 1.14466,1.031485 1.673633,0.564915 l 4.167898,-3.9937897 c 1.081487,-0.9658837 0.0014,-2.7717008 -1.293736,-2.1634178 l -3.626025,2.0069924 0.56192,-4.8780278 C 17.794039,1.1570703 17.107699,0.48849247 16.415346,0.51095464 Z M 7.4726914,13.538769 0.69272162,28.715667 c -0.18890212,0.198615 -0.18696461,0.596426 -0.18696461,0.993555 0,1.390388 0.94141069,1.785174 1.69634129,1.785174 H 25.797986 c 0.943639,0 1.696341,-0.395273 1.696341,-1.785174 0,-0.397229 0.002,-0.596182 -0.186963,-0.993555 L 20.763603,13.420688 c -1.226751,0 -2.888712,1.30573 -3.083265,2.581966 l -0.196802,1.290988 c -0.107782,0.707034 -0.350335,1.094183 -1.029948,1.094183 -0.679611,0 -0.982726,-0.384241 -1.069306,-1.094183 L 15.22684,16.002654 c -0.0863,-0.707614 -0.549076,-1.29098 -1.226752,-1.29098 -0.677673,0 -1.220614,0.578149 -1.226749,1.29098 l -0.03936,4.573504 c -0.0062,0.715175 -0.389697,1.290982 -1.06931,1.290982 -0.679611,0 -1.253906,-0.536525 -1.266109,-1.251622 L 10.31984,16.002643 C 10.297811,14.711847 8.6994839,13.538757 7.4726914,13.538769 Z"
       style="fill:#966313;fill-opacity:1;stroke:none;stroke-width:0.8;stroke-dasharray:none;stroke-opacity:1" />
  </g>
</svg>
