<?xml version="1.0" encoding="UTF-8" standalone="no"?>
<!-- Created with Inkscape (http://www.inkscape.org/) -->

<svg
   width="32.0px"
   height="32.0px"
   viewBox="0 0 32.0 32.0"
   version="1.1"
   id="SVGRoot"
   xmlns="http://www.w3.org/2000/svg"
   xmlns:svg="http://www.w3.org/2000/svg">
  <defs
     id="defs6463" />
  <g
     id="layer1">
    <path
       id="path1938-8"
       style="fill:#ffffff;fill-opacity:1;stroke:none;stroke-width:2.00001;stroke-dasharray:none"
       d="m 19.844839,1.0881555 c -0.556639,0.04753 -1.113281,0.095051 -1.669922,0.1425781 -2.618352,0.270862 -5.280367,0.382593 -7.839843,1.029297 -2.8118227,0.634005 -5.7709217,0.74908 -8.4589857,1.8867186 -0.3136402,1.16981 -0.4613303,2.481102 -0.7109371,3.705078 1.1020851,0.349331 2.2029261,0.785856 3.3828121,0.646485 1.203388,-0.01071 2.40596,-0.04398 3.609375,-0.03906 1.8325795,2.4954418 2.9281427,5.4857708 3.3847667,8.5351558 -2.5813887,0.44206 -5.4139907,1.152041 -7.1367197,3.28125 -0.148374,0.189508 -0.273359,0.394335 -0.380859,0.607422 l -0.845703,-1.253909 -1.341797,3.695312 c -0.97662403,2.335878 0.640896,5.087769 2.951172,5.84375 1.594114,0.578991 3.479352,0.942992 5.085937,0.228516 0.4951297,-0.25601 0.9017487,-0.697822 1.0917977,-1.216797 0.336587,0.07355 0.673424,0.140916 1.005859,0.205078 0.598955,0.09653 1.201313,0.175112 1.806641,0.240235 0.0241,0.113466 0.09204,0.229241 0.232422,0.347656 0.396354,0.900466 1.133348,1.629505 2.121094,1.830078 2.805693,0.626272 5.739428,0.493797 8.570312,0.101563 2.227974,-0.404594 4.769283,-0.999734 6.101563,-3.007813 0.822922,-1.354298 0.736167,-3.134979 -0.185547,-4.419922 -0.03374,-0.03112 -0.06395,-0.07313 -0.09375,-0.11914 0.412834,-1.794679 -0.949672,-3.431106 -2.40625,-4.308594 -1.640916,-1.053091 -3.521716,-1.669119 -5.41211,-2.097656 -0.74139,-3.84172 -2.131369,-7.6497508 -4.683593,-10.6718748 -0.581023,-0.512256 0.615769,-0.395166 0.964843,-0.521485 l 2.025391,-0.294922 C 20.622729,4.0050262 20.233347,2.5467056 19.844839,1.0881555 Z" />
    <path
       d="M 18.113931,3.6112511 17.956051,3.024913 c 0,0 -6.350149,0.5096762 -7.480419,0.969165 4.311246,2.2455032 7.21327,13.067006 7.415358,18.246829 0.0078,0.183714 -0.05442,0.369473 -0.167474,0.50503 -0.113048,0.135587 -0.276915,0.218341 -0.444093,0.226289 -0.167132,0.0073 -0.336129,-0.05815 -0.459457,-0.182413 C 16.696655,22.665623 16.621315,22.48543 16.614099,22.301716 16.288731,13.361387 12.928883,7.5973005 9.8767851,4.1567963 8.924408,4.3246721 4.4701493,4.9333496 3.2044391,5.4524789 L 3.0584244,6.2665962 c 0.01244,0.1206835 4.8494937,-0.089417 5.4617606,0.02776 0.2195975,0.042079 0.3708993,0.180514 0.4202084,0.2339157 0,0 5.1295036,5.5908201 4.3838796,15.5622631 -0.0093,0.171002 -0.08366,0.336876 -0.201295,0.449247 -0.117558,0.112355 -0.276448,0.169322 -0.431778,0.155383 -0.155344,-0.01461 -0.304609,-0.09789 -0.404129,-0.229708 -0.09952,-0.131787 -0.148348,-0.309248 -0.132176,-0.479666 0.02441,-0.326503 0.04183,-0.646942 0.0538,-0.962692 -0.930841,0.17242 -1.587021,0.388554 -1.976005,0.609715 -0.460825,0.261968 -0.5070863,0.404641 -0.5070863,0.60295 0,0.0073 -2.488e-4,0.06619 0.1366847,0.204402 0.1369958,0.138217 0.3938046,0.313968 0.7452816,0.477942 0.702939,0.328008 1.773761,0.618248 3.045458,0.795518 0.154412,0.01636 0.301173,0.103297 0.397987,0.236458 0.09688,0.133103 0.142439,0.310607 0.122846,0.479666 -0.01944,0.16906 -0.103564,0.328345 -0.22742,0.430706 -0.123933,0.102421 -0.286307,0.146355 -0.439428,0.119953 C 12.162406,24.79297 11.014767,24.496901 10.154198,24.095372 9.7238972,23.894593 9.362841,23.669269 9.0770626,23.380928 8.7912375,23.09253 8.5638339,22.697182 8.5638339,22.235779 c 0,-0.71684 0.4607629,-1.35265 1.1355253,-1.736266 0.6082858,-0.345803 1.4242738,-0.587609 2.5246098,-0.773529 -0.0047,-0.359742 -0.01711,-0.712778 -0.03685,-1.057325 -2.2565113,0.284337 -4.0135246,0.811896 -5.1844107,1.474516 -1.2695044,0.718389 -1.7931671,1.510941 -1.7931671,2.325701 0,0.429946 0.2195508,0.893351 0.7544563,1.391719 0.5349054,0.498367 1.3639708,0.988684 2.4124315,1.401828 2.096859,0.826376 5.061052,1.354578 8.334365,1.354578 3.273312,0 6.235919,-0.528202 8.332778,-1.354578 1.048461,-0.413144 1.877526,-0.903461 2.412447,-1.401828 0.534921,-0.498368 0.754472,-0.961773 0.754472,-1.391719 0,-0.284117 -0.126733,-0.615807 -0.447157,-0.996516 -0.320486,-0.380708 -0.823312,-0.78456 -1.465916,-1.15862 -1.143503,-0.665645 -2.720929,-1.243026 -4.476014,-1.621412 0.05925,0.388335 0.114137,0.787789 0.16595,1.19747 0.679241,0.209867 1.290217,0.47334 1.780898,0.787088 0.283555,0.181274 0.528919,0.378006 0.726777,0.62155 0.197921,0.243485 0.361119,0.558461 0.361119,0.937343 0,0.516207 -0.277568,0.939827 -0.617679,1.244808 -0.340172,0.304938 -0.772525,0.541776 -1.29073,0.751584 -1.036456,0.419573 -2.423503,0.715262 -4.022761,0.861354 -0.155034,0.02162 -0.317983,-0.02864 -0.439444,-0.136756 -0.121446,-0.108118 -0.200564,-0.272984 -0.213595,-0.444206 -0.01244,-0.171177 0.0409,-0.345803 0.144459,-0.474596 0.103408,-0.128719 0.255643,-0.209209 0.411812,-0.216193 1.523483,-0.139239 2.835936,-0.429771 3.718494,-0.787029 0.44131,-0.178673 0.772961,-0.378605 0.957306,-0.54388 0.175094,-0.156947 0.186445,-0.233316 0.187425,-0.248292 -0.0062,-0.01461 -0.02395,-0.04661 -0.06298,-0.09453 -0.07806,-0.09599 -0.231742,-0.232469 -0.444062,-0.368172 -0.269062,-0.17204 -0.627848,-0.345147 -1.04025,-0.499946 0.0047,0.03989 0.0078,0.07817 0.01244,0.1182 0.02224,0.171119 -0.02162,0.351794 -0.118336,0.488155 -0.09672,0.136317 -0.244726,0.226785 -0.401082,0.244888 -0.156355,0.01812 -0.319071,-0.0374 -0.439428,-0.148619 C 21.077378,21.871361 21.000996,21.705662 20.990282,21.533243 20.310652,14.479318 18.52355,10.643698 16.959839,8.5061821 16.177983,7.4374021 15.674178,6.8031559 15.053654,6.1147044 14.459487,5.4553718 14.159745,5.2398216 14.449349,4.9985567 15.841216,3.8391618 18.113962,3.6112803 18.113962,3.6112803 Z"
       fill="white"
       id="path1938"
       style="fill:#3995ff;fill-opacity:1;stroke:none;stroke-width:2.00001;stroke-dasharray:none" />
    <path
       d="m 28.755313,24.754763 c 0.378908,0.562947 0.252004,1.395985 -0.05132,1.898239 -0.404083,0.669268 -1.370564,1.320813 -3.45377,1.831512 -3.712601,0.910094 -9.32047,0.547386 -9.546552,-0.122583 -0.05349,-0.15873 4.737161,-0.133687 7.953296,-0.912958 2.956309,-0.716402 4.51663,-2.412196 5.09831,-2.694151 z"
       fill="white"
       id="path1940"
       style="fill:#3995ff;fill-opacity:1;stroke:none;stroke-width:2.00001;stroke-dasharray:none" />
    <path
       d="m 7.0780131,26.468543 c 3.9495519,1.101479 -0.36908,1.702003 -2.6552758,0.294506 -0.7090658,-0.436536 -1.6503557,-1.65823 -1.092996,-2.954278 0.8209326,1.327723 2.7816975,2.390236 3.7482718,2.659772 z"
       fill="white"
       id="path1942"
       style="fill:#3995ff;fill-opacity:1;stroke:none;stroke-width:2.00001;stroke-dasharray:none" />
  </g>
</svg>
