<?xml version="1.0" encoding="UTF-8" standalone="no"?>
<!-- Uploaded to: SVG Repo, www.svgrepo.com, Generator: SVG Repo Mixer Tools -->

<svg
   width="32"
   height="32"
   viewBox="0 0 2.4240402 2.4240402"
   version="1.1"
   id="svg3"
   xmlns="http://www.w3.org/2000/svg"
   xmlns:svg="http://www.w3.org/2000/svg"
   xmlns:rdf="http://www.w3.org/1999/02/22-rdf-syntax-ns#"
   xmlns:cc="http://creativecommons.org/ns#"
   xmlns:dc="http://purl.org/dc/elements/1.1/">
  <defs
     id="defs1" />
  <metadata
     id="metadata1">
    <rdf:RDF>
      <cc:Work
         rdf:about="">
        <dc:format>image/svg+xml</dc:format>
        <dc:type
           rdf:resource="http://purl.org/dc/dcmitype/StillImage" />
        <dc:source>http://www.ecomo.or.jp/barrierfree/pictogram/data/zukigo_panfu_jis110.pdf</dc:source>
      </cc:Work>
    </rdf:RDF>
  </metadata>
  <path
     d="m 1.4875328,0.69554736 c 0.061025,0.0265602 0.1319481,-0.001492 0.1583377,-0.0627834 0.02639,-0.0612928 -0.00165,-0.13246922 -0.062676,-0.15908454 -0.061026,-0.02656 -0.1319482,0.001546 -0.1583378,0.0627835 -0.02639,0.0612925 0.00165,0.13252438 0.062676,0.15908454"
     style="fill:#000000;fill-opacity:1;fill-rule:nonzero;stroke:none;stroke-width:0.0440786"
     id="path1" />
  <path
     d="M 1.46939,0.97848693 C 1.5458099,1.0972068 1.6618143,1.1878204 1.7987105,1.231443 L 1.8569873,1.148008 C 1.6964506,1.079316 1.5738488,0.93895054 1.5282168,0.7670001 1.5260168,0.7588831 1.5205168,0.7520912 1.5133718,0.748281 1.4314548,0.7046585 1.3374411,0.6798653 1.2384799,0.6798653 c -0.2155151,0 -0.40409098,0.11595886 -0.50690052,0.28906896 l 0.074221,0.0746551 C 0.89486591,0.91708397 1.0405587,0.83375926 1.2060435,0.83110879 L 0.94324686,1.3490032 0.54080516,1.2777161 0.47098266,1.3985894 0.96853697,1.5512134 c 0.010995,0.00343 0.0225412,0.00524 0.0351855,0.00524 0.040685,0 0.07642,-0.020376 0.098411,-0.051574 L 1.2225366,1.3318282 1.3792249,1.4226621 1.2362811,1.8656803 1.342939,1.9555766 1.5831945,1.4375716 c 0.010445,-0.021701 0.014295,-0.04666 0.0099,-0.072115 -0.00605,-0.032855 -0.02474,-0.060299 -0.05003,-0.078023 L 1.3489872,1.1507687 1.46939,0.97848693"
     style="fill:#000000;fill-opacity:1;fill-rule:nonzero;stroke:none;stroke-width:0.0440786"
     id="path2" />
  <path
     d="M 1.954849,1.8247108 0.60128145,0.46534138 C 0.76731616,0.32812339 0.98008242,0.24568215 1.2120912,0.24568215 c 0.5305413,0 0.9615717,0.43241618 0.9615717,0.96577185 0,0.2329117 -0.082467,0.4464968 -0.2188139,0.6132568 z M 1.2120912,2.1773362 c -0.53109109,0 -0.96212159,-0.432361 -0.96212159,-0.9658822 0,-0.23092384 0.0808182,-0.44285254 0.21551523,-0.60906026 L 1.8185026,1.9608796 C 1.6530177,2.0960545 1.4419007,2.1773362 1.2120912,2.1773362 m -0.0022,-2.17130242 c -0.66358895,0 -1.20182728,0.54058926 -1.20182728,1.20735282 0,0.6667084 0.53823833,1.2072977 1.20182728,1.2072977 0.6641388,0 1.2018273,-0.5405893 1.2018273,-1.2072977 0,-0.66676356 -0.5376885,-1.20735282 -1.2018273,-1.20735282"
     style="fill:#ff4b00;fill-opacity:1;fill-rule:nonzero;stroke:none;stroke-width:0.0440786"
     id="path3" />
</svg>
