<?xml version="1.0" encoding="UTF-8" standalone="no"?>
<!-- Created with Inkscape (http://www.inkscape.org/) -->

<svg
   width="32"
   height="20"
   viewBox="0 0 32 20"
   version="1.1"
   id="SVGRoot"
   xmlns="http://www.w3.org/2000/svg"
   xmlns:svg="http://www.w3.org/2000/svg">
  <defs
     id="defs10511" />
  <g
     id="layer1">
    <rect
       style="fill:#190400;fill-opacity:1;stroke:none;stroke-width:2.99999;paint-order:fill markers stroke"
       id="rect11424"
       width="31.437939"
       height="19.484777"
       x="0.29976586"
       y="0.37470731"
       ry="3.3944068" />
    <g
       aria-label="T6"
       transform="scale(1.0842575,0.92229017)"
       id="text11895"
       style="font-weight:bold;font-size:21.2244px;font-family:Arial;-inkscape-font-specification:'Arial Bold';fill:#ffffff;stroke-width:3.00001;paint-order:fill markers stroke">
      <path
         d="M 14.64957,6.5125816 H 10.410908 V 18.648212 H 7.0531415 V 6.5125816 H 2.8352067 V 3.7869873 H 14.64957 Z"
         style="font-family:'Segoe UI';-inkscape-font-specification:'Segoe UI Bold'"
         id="path6273" />
      <path
         d="m 26.453569,13.704834 q 0,1.098529 -0.383448,2.051969 -0.383449,0.953439 -1.067439,1.658156 -0.683989,0.694353 -1.627065,1.098528 -0.943077,0.393812 -2.062332,0.393812 -1.253981,0 -2.248874,-0.466356 -0.984531,-0.466357 -1.66852,-1.347252 -0.68399,-0.891259 -1.046711,-2.17633 -0.362722,-1.285071 -0.362722,-2.912137 0,-1.917243 0.466357,-3.4717645 0.476719,-1.5648849 1.347251,-2.6737769 0.880896,-1.108892 2.124513,-1.7099736 1.243617,-0.6114451 2.798139,-0.6114451 1.720337,0 2.673777,0.4041756 v 2.7359577 q -1.129619,-0.6425355 -2.466508,-0.6425355 -0.829078,0 -1.502704,0.3212678 -0.673626,0.3212677 -1.160709,0.9119859 -0.47672,0.5907182 -0.756534,1.4301597 -0.26945,0.8290781 -0.290177,1.8550619 h 0.06218 q 1.057074,-1.4612498 3.119406,-1.4612498 0.922349,0 1.66852,0.3316313 0.74617,0.3316312 1.274707,0.9430765 0.528538,0.601081 0.818715,1.450887 0.290177,0.849805 0.290177,1.886152 z m -3.202314,0.20727 q 0,-2.393963 -1.958697,-2.393963 -0.44563,0 -0.808351,0.165815 -0.362722,0.165816 -0.621809,0.466357 -0.259087,0.300541 -0.404175,0.71508 -0.134726,0.404175 -0.134726,0.901622 0,0.549264 0.145089,1.025984 0.145089,0.47672 0.404176,0.839442 0.26945,0.352358 0.632172,0.559628 0.362721,0.207269 0.808351,0.207269 0.445629,0 0.797988,-0.176179 0.362721,-0.186543 0.611445,-0.50781 0.259087,-0.331632 0.393812,-0.787625 0.134725,-0.466356 0.134725,-1.01562 z"
         style="font-family:'Segoe UI';-inkscape-font-specification:'Segoe UI Bold'"
         id="path6275" />
    </g>
  </g>
</svg>
