<?xml version="1.0" encoding="UTF-8" standalone="no"?>
<!-- Created with Inkscape (http://www.inkscape.org/) -->

<svg
   width="32"
   height="20"
   viewBox="0 0 32 20"
   version="1.1"
   id="SVGRoot"
   xmlns="http://www.w3.org/2000/svg"
   xmlns:svg="http://www.w3.org/2000/svg">
  <defs
     id="defs10511" />
  <g
     id="layer1">
    <rect
       style="fill:#0000b5;fill-opacity:1;stroke:none;stroke-width:2.99999;paint-order:fill markers stroke"
       id="rect11424"
       width="31.437939"
       height="19.484777"
       x="0.29976586"
       y="0.37470731"
       ry="3.3944068" />
    <g
       aria-label="T2"
       transform="scale(1.0842575,0.92229017)"
       id="text11895"
       style="font-weight:bold;font-size:21.2244px;font-family:Arial;-inkscape-font-specification:'Arial Bold';fill:#ffffff;stroke-width:3.00001;paint-order:fill markers stroke">
      <path
         d="M 7.4780441,18.648212 V 6.0254982 H 2.9699319 V 3.4553561 H 15.043382 V 6.0254982 H 10.545633 V 18.648212 Z"
         id="path947" />
      <path
         d="m 26.21521,15.943345 v 2.704867 H 16.007185 q 0.165816,-1.533794 0.994894,-2.901773 0.829078,-1.378342 3.274859,-3.647944 1.96906,-1.834335 2.41469,-2.4872339 0.601081,-0.9016225 0.601081,-1.782518 0,-0.9741668 -0.528537,-1.4923406 -0.518174,-0.5285373 -1.440523,-0.5285373 -0.911986,0 -1.450887,0.5492643 -0.538901,0.5492642 -0.621808,1.8239718 L 16.34918,7.890924 q 0.259087,-2.4043265 1.627066,-3.4510376 1.367979,-1.0467112 3.419947,-1.0467112 2.248875,0 3.533946,1.2125268 1.285071,1.2125267 1.285071,3.0157716 0,1.0259842 -0.373085,1.958697 -0.362722,0.9223494 -1.16071,1.9379704 -0.528537,0.673626 -1.906879,1.93797 -1.378343,1.264344 -1.751428,1.678883 -0.362722,0.414539 -0.590718,0.808351 z"
         id="path949" />
    </g>
  </g>
</svg>
