<svg width="32" height="32" xmlns="http://www.w3.org/2000/svg"><defs><radialGradient id="a" cx="15.99" cy="16.02" r="14.01" gradientTransform="matrix(1 0 0 1.14 0 -2.25)" gradientUnits="userSpaceOnUse"><stop stop-color="#ff885f" offset="0"/><stop stop-color="#992700" offset=".714"/></radialGradient></defs><g color="#000" paint-order="stroke markers fill"><path d="M8.67.143c-.168-.14-2.601.253-2.813 1.48-.862 1.078.171 2.94-.258 3.68-2.203.5-3.852 2.71-3.617 4.979-.051 1.66.913 3.215.543 4.875-.253 3.297 1.756 6.217 3.788 8.616.548.996 2.757 1.75 1.192 2.72-1.003 1.542-.029 3.63 1.522 4.377 1.217.772 2.86.905 4.104 1.126 3.272-.165 6.763.485 9.841-.93 1.324-.566 2.38-1.866 2.17-3.365.185-1.305-2.142-1.927-.378-2.7a15.78 15.78 0 0 0 4.43-6.519c.53-1.538.527-3.206.19-4.778.216-1.977 1.236-4.148.102-6.036-.529-1.326-2.403-1.743-3.12-2.398.598-1.526.766-3.77-.921-4.668-1.291-.75-2.86-.357-4.278-.514-4.165-.093-8.332-.046-12.5.055z" fill="#f2f2f2" style="font-feature-settings:normal;font-variant-alternates:normal;font-variant-caps:normal;font-variant-east-asian:normal;font-variant-ligatures:normal;font-variant-numeric:normal;font-variant-position:normal;font-variation-settings:normal;inline-size:0;isolation:auto;mix-blend-mode:normal;shape-margin:0;shape-padding:0;text-decoration-color:#000;text-decoration-line:none;text-decoration-style:solid;text-indent:0;text-orientation:mixed;text-transform:none;white-space:normal"/><path d="M13.48 29.99c-1.925-.106-3.049-.313-4.138-1.382-.978-1.325 1.071-1.961 1.972-2.365 1.15-.279-1.037-1.102-1.304-1.561-2.173-1.858-4.05-4.17-5.132-6.86-.488-1.221-.46-2.547-.242-3.806-.086-1.648-.863-3.247-.572-4.907.589-1.914 2.97-2.42 4.667-1.896.586.243 1.685 1.197 1.155-.06-1.103-.5-2.114-1.446-2.2-2.734C7.614 3.417 7 2 8.717 2.142c5.361-.13 10.25-.164 15.37.03 1.192-.033.55 2.122.262 2.903-.407.987-1.33 1.656-2.088 2.116-.3 1.391.74-.19 2.121-.153 1.384-.085 2.977.611 3.54 1.964.423 1.956-1.01 3.867-.376 5.817.46 2.855-1.255 5.46-2.953 7.561-1.171 1.45-2.62 2.626-4.058 3.782.963.45 3.293.973 2.479 2.463-1.14 1.063-2.807 1.182-4.273 1.361-1.752.024-3.505-.025-5.258.003-1.451.023 0 0 0 0zm12.41-17.57c.355-1.001.947-2.151.514-3.223-.547-1.36-2.592-1.179-3.325-.117-1.147 1.223.719 2.312 1.69 2.792.352.091.803.673 1.12.548zm-19.59.008c1.146-.673 2.569-1.122 3.301-2.304.031-1.37-1.755-2.193-2.902-1.805-1.638.341-1.259 2.262-.83 3.426.084.176.098.822.43.683z" fill="url(#a)" style="font-feature-settings:normal;font-variant-alternates:normal;font-variant-caps:normal;font-variant-east-asian:normal;font-variant-ligatures:normal;font-variant-numeric:normal;font-variant-position:normal;font-variation-settings:normal;inline-size:0;isolation:auto;mix-blend-mode:normal;shape-margin:0;shape-padding:0;text-decoration-color:#000;text-decoration-line:none;text-decoration-style:solid;text-indent:0;text-orientation:mixed;text-transform:none;white-space:normal"/></g></svg>