<svg width="32" height="30" xmlns="http://www.w3.org/2000/svg"><g fill="#f2f2f2" paint-order="stroke markers fill"><path d="M24.98-.123a2 2 0 0 0-1.684.994l-4.988 8.57a2 2 0 0 0 1.729 3.006l9.924-.002a2 2 0 0 0 1.732-2.998L26.757.88A2 2 0 0 0 24.98-.123zm.035 5.992L26.5 8.445l-2.984.002zM6.982-.123a2 2 0 0 0-1.684.994L.31 9.441a2 2 0 0 0 1.729 3.006l9.924-.002a2 2 0 0 0 1.732-2.998L8.759.88A2 2 0 0 0 6.982-.123zm.035 5.992l1.484 2.576-2.984.002z" color="#000" style="font-feature-settings:normal;font-variant-alternates:normal;font-variant-caps:normal;font-variant-east-asian:normal;font-variant-ligatures:normal;font-variant-numeric:normal;font-variant-position:normal;font-variation-settings:normal;inline-size:0;isolation:auto;mix-blend-mode:normal;shape-margin:0;shape-padding:0;text-decoration-color:#000;text-decoration-line:none;text-decoration-style:solid;text-indent:0;text-orientation:mixed;text-transform:none;white-space:normal"/><path d="M1.856 27.9l2.033-17.41h6.364l-.088 3.536 11.49.088.088-3.8 6.629.176 1.591 17.59z" stroke="#f2f2f2" stroke-linejoin="round" stroke-width="4"/></g><g stroke="#1a1a1a" stroke-linecap="square" stroke-width=".527" paint-order="fill markers stroke"><path d="M14.57 20l-.018 5.771M17.32 20.07l-.018 5.771" fill="#1a1a1a"/><path d="M15 14.56l-.055 1.666h-1.863L13 14.56h-2l.022 1.666H10v9.995h2.5V25.11c0-1.11 0-3.331 1.168-4.442 1.167-1.111 3.5-1.111 4.666 0C19.5 21.779 19.5 24 19.5 26.221H22v-9.995h-1.053L21 14.56h-2l-.039 1.666h-1.977L17 14.56z" fill="#6e5454"/></g><path d="M22 10.67v12.22h-.459l-.64 3.332h8.235l-.64-3.332H28V10.67zM4.001 10.67v12.22h-.56L2.8 26.222h8.238l-.64-3.332H10V10.67z" fill="#916f6f" stroke="#241c1c" stroke-linecap="square" stroke-width=".527" paint-order="fill markers stroke"/><path d="M23.74 17.91a55.854 55.854 0 0 1 .006-2.245c.024-.616.085-.762.164-.869a.719.719 0 0 1 .29-.228 1.88 1.88 0 0 1 .383-.12 1.482 1.482 0 0 1 1.332.335.69.69 0 0 1 .175.257c.03.077.042.145.048.713.006.567.006 1.634.006 2.167s0 .533-.332.538c-.333.004-1 .014-1.398.014-.4 0-.533-.01-.6-.014-.067-.005-.067-.005-.074-.548zM5.717 17.84c-.006-.543-.018-1.629.006-2.245.024-.616.085-.762.164-.869a.719.719 0 0 1 .29-.228 1.88 1.88 0 0 1 .383-.12 1.482 1.482 0 0 1 1.332.335.69.69 0 0 1 .175.257c.03.077.042.145.048.713.006.567.006 1.634.006 2.167 0 .533 0 .533-.332.538-.333.004-1 .014-1.398.014-.4 0-.533-.01-.6-.014-.068-.005-.068-.005-.074-.548z" fill="#fff" paint-order="fill markers stroke"/><path paint-order="fill markers stroke" d="M2 25.96h28v2H2z"/><path d="M29.96 10.44l-9.922.004 4.988-8.572zM11.96 10.44l-9.922.003 4.988-8.57z" color="#000" fill="maroon" style="font-feature-settings:normal;font-variant-alternates:normal;font-variant-caps:normal;font-variant-east-asian:normal;font-variant-ligatures:normal;font-variant-numeric:normal;font-variant-position:normal;font-variation-settings:normal;inline-size:0;isolation:auto;mix-blend-mode:normal;shape-margin:0;shape-padding:0;text-decoration-color:#000;text-decoration-line:none;text-decoration-style:solid;text-indent:0;text-orientation:mixed;text-transform:none;white-space:normal" paint-order="stroke markers fill"/></svg>