<svg width="32" height="26" xmlns="http://www.w3.org/2000/svg"><path d="M2 20a2 2 0 0 0-2 2v2a2 2 0 0 0 2 2h28a2 2 0 0 0 2-2v-2a2 2 0 0 0-2-2z" color="#000" fill="#f3f3f3" style="font-feature-settings:normal;font-variant-alternates:normal;font-variant-caps:normal;font-variant-east-asian:normal;font-variant-ligatures:normal;font-variant-numeric:normal;font-variant-position:normal;font-variation-settings:normal;inline-size:0;isolation:auto;mix-blend-mode:normal;shape-margin:0;shape-padding:0;text-decoration-color:#000;text-decoration-line:none;text-decoration-style:solid;text-indent:0;text-orientation:mixed;text-transform:none;white-space:normal" paint-order="stroke markers fill"/><rect x="4" y="2" width="24" height="20" ry="0" fill="#f3f3f3" stroke="#f3f3f3" stroke-linejoin="round" stroke-width="4" paint-order="stroke markers fill"/><g fill="#1a1a1a" stroke="#1a1a1a" stroke-linecap="square" paint-order="fill markers stroke"><path d="M14.42 10.78l-.018 6.481" stroke-width="1.5"/><path d="M23.67 15.49l-15.38.006" stroke-width=".9"/><g stroke-width="1.5"><path d="M11.02 10.78l-.018 6.481M17.67 9.931v7.366M21.03 9.962l-.018 7.252"/></g></g><path d="M10.6 2.353v3.676H7.016V2.353H4.307v19.29h4.68v-4.826c0-2.183 1.143-4.195 2.957-5.751 2.087-1.79 6.846-1.975 8.78 0 1.61 1.644 2.059 3.522 2.098 5.751.017.96 0 3.821 0 4.826h4.78V2.353h-2.667v3.676h-3.584V2.353h-3.584v3.676h-3.584V2.353z" fill="#b86400" stroke="#520" stroke-linecap="square" stroke-width=".705" paint-order="fill markers stroke"/><path d="M2 22h28v2H2z" color="#000" style="font-feature-settings:normal;font-variant-alternates:normal;font-variant-caps:normal;font-variant-east-asian:normal;font-variant-ligatures:normal;font-variant-numeric:normal;font-variant-position:normal;font-variation-settings:normal;inline-size:0;isolation:auto;mix-blend-mode:normal;shape-margin:0;shape-padding:0;text-decoration-color:#000;text-decoration-line:none;text-decoration-style:solid;text-indent:0;text-orientation:mixed;text-transform:none;white-space:normal" paint-order="stroke markers fill"/></svg>