<svg width="32" height="36" viewBox="0 0 20.48 23.04" xmlns="http://www.w3.org/2000/svg"><path d="M9.53.215L5.174 3.039c-.279.209-.693.79-.693 1.357v.973a2.046 2.046 0 0 0-1.213 1.86v9.862c0 .826.5 1.54 1.213 1.86v2.809a1.28 1.28 0 0 0 1.28 1.279h8.96a1.28 1.28 0 0 0 1.28-1.28v-2.81a2.047 2.047 0 0 0 1.21-1.858V7.23c0-.825-.5-1.538-1.21-1.859v-.973c0-.57-.419-1.151-.697-1.358L10.938.208c-.42-.284-1.058-.192-1.411.007z" color="#000" fill="#f2f2f2" style="font-feature-settings:normal;font-variant-alternates:normal;font-variant-caps:normal;font-variant-east-asian:normal;font-variant-ligatures:normal;font-variant-numeric:normal;font-variant-position:normal;font-variation-settings:normal;inline-size:0;isolation:auto;mix-blend-mode:normal;shape-margin:0;shape-padding:0;text-decoration-color:#000;text-decoration-line:none;text-decoration-style:solid;text-indent:0;text-orientation:mixed;text-transform:none;white-space:normal" paint-order="stroke markers fill"/><path d="M5.76 21.76V4.4c0-.308.298-.392.558-.558C8.32 2.564 10.24 1.284 10.24 1.284l3.925 2.558c.258.168.557.25.557.558v17.36z" color="#000" fill="#413016" style="font-feature-settings:normal;font-variant-alternates:normal;font-variant-caps:normal;font-variant-east-asian:normal;font-variant-ligatures:normal;font-variant-numeric:normal;font-variant-position:normal;font-variation-settings:normal;inline-size:0;isolation:auto;mix-blend-mode:normal;shape-margin:0;shape-padding:0;text-decoration-color:#000;text-decoration-line:none;text-decoration-style:solid;text-indent:0;text-orientation:mixed;text-transform:none;white-space:normal" paint-order="stroke markers fill"/><path fill="#c19b44" paint-order="stroke markers fill" d="M6.695 4.48h7.09v17.28h-7.09z"/><path d="M10.24 1.28c-6.824-.853-3.412-.427 0 0z" color="#000" fill="#413016" style="font-feature-settings:normal;font-variant-alternates:normal;font-variant-caps:normal;font-variant-east-asian:normal;font-variant-ligatures:normal;font-variant-numeric:normal;font-variant-position:normal;font-variation-settings:normal;inline-size:0;isolation:auto;mix-blend-mode:normal;shape-margin:0;shape-padding:0;text-decoration-color:#000;text-decoration-line:none;text-decoration-style:solid;text-indent:0;text-orientation:mixed;text-transform:none;white-space:normal" paint-order="stroke markers fill"/><path d="M5.308 6.704a.525.525 0 0 0-.525.525v9.863c0 .29.235.526.525.526h9.863c.29 0 .525-.235.525-.526V7.23a.525.525 0 0 0-.525-.525z" color="#000" fill="#7c532d" stroke="#000" stroke-width=".606" style="font-feature-settings:normal;font-variant-alternates:normal;font-variant-caps:normal;font-variant-east-asian:normal;font-variant-ligatures:normal;font-variant-numeric:normal;font-variant-position:normal;font-variation-settings:normal;inline-size:0;isolation:auto;mix-blend-mode:normal;shape-margin:0;shape-padding:0;text-decoration-color:#000;text-decoration-line:none;text-decoration-style:solid;text-indent:0;text-orientation:mixed;text-transform:none;white-space:normal"/><circle cx="10.24" cy="12.16" r="3.84" fill="#f7face"/><path d="M9.664 12.42l2.56-1.92" fill="none" stroke="#000" stroke-width="1.28"/></svg>