<svg width="32" height="29" xmlns="http://www.w3.org/2000/svg"><defs><radialGradient id="b" cx="8.421" cy="33.53" r="9.347" gradientTransform="matrix(.2769 -.00277 .00528 1.9 18.64 -42.39)" gradientUnits="userSpaceOnUse"><stop stop-color="#aeaeae" offset="0"/><stop stop-color="#474d79" offset="1"/></radialGradient><radialGradient id="a" cx="14.32" cy="18.17" r="3.579" gradientTransform="matrix(.5492 .00745 -.0283 2.179 15.1 -27.05)" gradientUnits="userSpaceOnUse"><stop stop-color="#aeaeae" offset="0"/><stop stop-color="#044897" offset="1"/></radialGradient></defs><g color="#000" paint-order="stroke markers fill"><path d="M24.98.123c-1.402.14-2.64.92-3.958 1.383L12.23 5.105c.01-1.258.149-2.741-1.004-3.589C9.773.378 7.16.726 6.424 2.564c-.4 1.308-.147 2.709-.218 4.063.053.581.077 1.143-.638 1.208-1.37.619-2.85 1.029-4.123 1.824-1.975 1.535-.8 5.121 1.64 5.33 1.126.121 2.099-.553 3.122-.907v8.793c-1.557.034-3.126-.07-4.676.057-1.158.25-1.685 1.505-1.531 2.59.001 1.105-.193 2.499.927 3.166.977.565 2.156.226 3.228.319 8.693-.01 17.39.019 26.08-.015 1.227-.115 1.94-1.404 1.764-2.548-.024-1.096.228-2.462-.831-3.183-.76-.138-.679-.72-.642-1.348-.034-1.512.072-3.035-.056-4.54-.237-1.147-1.47-1.686-2.547-1.529-.108-1.273.607-3.35.776-4.902.749-1.843-.808-4.143-2.876-3.647.068.017-.047-.843 0-1.244 1.751-.466 2.614-2.64 1.705-4.195C27.125.838 26.073.128 24.98.124zm-7.219 9.229c-.052 1.94.633 3.836.88 5.757.559 1.052-.554.645-1.206.767-1.16.171-1.81 1.391-1.645 2.486v4.514h-3.56v-11.26z" fill="#f2f2f2" style="font-feature-settings:normal;font-variant-alternates:normal;font-variant-caps:normal;font-variant-east-asian:normal;font-variant-ligatures:normal;font-variant-numeric:normal;font-variant-position:normal;font-variation-settings:normal;inline-size:0;isolation:auto;mix-blend-mode:normal;shape-margin:0;shape-padding:0;text-decoration-color:#000;text-decoration-line:none;text-decoration-style:solid;text-indent:0;text-orientation:mixed;text-transform:none;white-space:normal"/><path d="M22.88 4.285h.946v6.651h-.946z" fill="#a89402" style="font-feature-settings:normal;font-variant-alternates:normal;font-variant-caps:normal;font-variant-east-asian:normal;font-variant-ligatures:normal;font-variant-numeric:normal;font-variant-position:normal;font-variation-settings:normal;inline-size:0;isolation:auto;mix-blend-mode:normal;shape-margin:0;shape-padding:0;text-decoration-color:#000;text-decoration-line:none;text-decoration-style:solid;text-indent:0;text-orientation:mixed;text-transform:none;white-space:normal"/><path d="M20.37 9.255c-.442-.091-.731.208-.645.682.315 1.715.63 3.424.946 5.127.087.47.52.911.965.965 1.1.076 2.206.076 3.307 0 .444-.054.878-.496.965-.965.315-1.702.63-3.411.945-5.127.087-.474-.203-.773-.644-.682-1.94.237-3.9.237-5.84 0z" fill="url(#a)" style="font-feature-settings:normal;font-variant-alternates:normal;font-variant-caps:normal;font-variant-east-asian:normal;font-variant-ligatures:normal;font-variant-numeric:normal;font-variant-position:normal;font-variation-settings:normal;inline-size:0;isolation:auto;mix-blend-mode:normal;shape-margin:0;shape-padding:0;text-decoration-color:#000;text-decoration-line:none;text-decoration-style:solid;text-indent:0;text-orientation:mixed;text-transform:none;white-space:normal"/><path d="M24.96 2.123c-1.062.287-2.059.814-3.094 1.2-3.878 1.588-7.756 3.175-11.63 4.763-.01-1.541.02-3.083-.015-4.623-.175-.733-1.15-.662-1.69-.455-.54.463-.24 1.25-.318 1.873v4.035c-1.81.753-3.64 1.467-5.438 2.243-.672.466-.223 1.633.448 1.84.732-.015 1.378-.478 2.07-.702l2.92-1.196c.01 4.762-.02 9.526.015 14.29.174.734 1.149.662 1.69.455.54-.462.24-1.25.319-1.873v-13.7c5.107-2.103 10.23-4.167 15.33-6.294.722-.449.147-1.842-.6-1.857z" fill="#5b1803" style="font-feature-settings:normal;font-variant-alternates:normal;font-variant-caps:normal;font-variant-east-asian:normal;font-variant-ligatures:normal;font-variant-numeric:normal;font-variant-position:normal;font-variation-settings:normal;inline-size:0;isolation:auto;mix-blend-mode:normal;shape-margin:0;shape-padding:0;text-decoration-color:#000;text-decoration-line:none;text-decoration-style:solid;text-indent:0;text-orientation:mixed;text-transform:none;white-space:normal"/><path d="M17.79 17.84h10.73v7.152H17.79z" fill="url(#b)" style="font-feature-settings:normal;font-variant-alternates:normal;font-variant-caps:normal;font-variant-east-asian:normal;font-variant-ligatures:normal;font-variant-numeric:normal;font-variant-position:normal;font-variation-settings:normal;inline-size:0;isolation:auto;mix-blend-mode:normal;shape-margin:0;shape-padding:0;text-decoration-color:#000;text-decoration-line:none;text-decoration-style:solid;text-indent:0;text-orientation:mixed;text-transform:none;white-space:normal"/><path d="M2 24.92v2.044h28V24.92z" style="font-feature-settings:normal;font-variant-alternates:normal;font-variant-caps:normal;font-variant-east-asian:normal;font-variant-ligatures:normal;font-variant-numeric:normal;font-variant-position:normal;font-variation-settings:normal;inline-size:0;isolation:auto;mix-blend-mode:normal;shape-margin:0;shape-padding:0;text-decoration-color:#000;text-decoration-line:none;text-decoration-style:solid;text-indent:0;text-orientation:mixed;text-transform:none;white-space:normal"/></g></svg>