<svg width="32" height="32" xmlns="http://www.w3.org/2000/svg"><defs><radialGradient id="b" cx="17" cy="9.19" r="11" gradientTransform="matrix(1.455 0 0 1.636 -8.731 -7.538)" gradientUnits="userSpaceOnUse"><stop stop-color="#6b4217" offset="0"/><stop stop-color="#f7e8d8" offset="1"/></radialGradient><radialGradient id="a" cx="15" cy="21.02" r="8" gradientTransform="matrix(1.001 -.00012 .00038 3.066 .978 -43.55)" gradientUnits="userSpaceOnUse"><stop stop-color="#8c6944" offset="0"/><stop stop-color="#bf9e7b" offset="1"/></radialGradient></defs><path d="M8 28V14l-3.442-2-.082-10h23.01v10l-3.481 2v14h-13" fill="#f2f2f2" stroke="#f3f3f3" stroke-linejoin="round" stroke-width="4"/><path d="M2 26a2 2 0 0 0-2 2v2a2 2 0 0 0 2 2h28a2 2 0 0 0 2-2v-2a2 2 0 0 0-2-2z" color="#000" fill="#f3f3f3" style="font-feature-settings:normal;font-variant-alternates:normal;font-variant-caps:normal;font-variant-east-asian:normal;font-variant-ligatures:normal;font-variant-numeric:normal;font-variant-position:normal;font-variation-settings:normal;inline-size:0;isolation:auto;mix-blend-mode:normal;shape-margin:0;shape-padding:0;text-decoration-color:#000;text-decoration-line:none;text-decoration-style:solid;text-indent:0;text-orientation:mixed;text-transform:none;white-space:normal" paint-order="stroke markers fill"/><rect x="8.545" y="14.44" width="14.91" height="14.46" ry="0" fill="url(#a)" stroke="#2d190f" stroke-linecap="square" paint-order="markers fill stroke"/><path d="M2 29h28" stroke="#000" stroke-linejoin="round" stroke-width="2" paint-order="markers fill stroke"/><rect x="14" y="20" width="4" height="8" ry="0" fill="#fff" paint-order="stroke markers fill"/><path d="M5 11.5h22v-9h-5v4h-4v-4h-4v4h-4v-4H5z" fill="url(#b)" stroke="#2d190f"/></svg>