<svg width="32" height="24" xmlns="http://www.w3.org/2000/svg"><defs><radialGradient id="a" cx="16" cy="17" r="14" gradientTransform="matrix(1.143 0 0 1.286 -2.286 -4.857)" gradientUnits="userSpaceOnUse"><stop stop-color="#0e6300" offset="0"/><stop stop-color="#4dd935" offset="1"/></radialGradient></defs><path d="M12 0c-1.939.35-3.839.934-5.762 1.38-1.106.33-2.29.453-3.335.948C1.748 3.03 2.031 4.465 2 5.6c.007 2.675-.016 5.382.014 8.034-.655 2.03-1.39 4.037-1.992 6.08-.014.954-.097 1.93.065 2.872C.375 23.653 1.537 24.14 2.56 24c9.226-.009 18.45.02 27.68-.014 1.194-.104 1.936-1.339 1.763-2.466-.001-.957.093-1.944-.33-2.836l-1.734-5.202c.142-1.804.028-3.63.065-5.442-.037-1.512.076-3.037-.064-4.54-.235-1.127-1.396-1.49-2.383-1.673-2.437-.6-4.866-1.236-7.31-1.812C17.5-.02 14.752.01 12.004 0z" color="#000" fill="#f2f2f2" style="font-feature-settings:normal;font-variant-alternates:normal;font-variant-caps:normal;font-variant-east-asian:normal;font-variant-ligatures:normal;font-variant-numeric:normal;font-variant-position:normal;font-variation-settings:normal;inline-size:0;isolation:auto;mix-blend-mode:normal;shape-margin:0;shape-padding:0;text-decoration-color:#000;text-decoration-line:none;text-decoration-style:solid;text-indent:0;text-orientation:mixed;text-transform:none;white-space:normal" paint-order="stroke markers fill"/><path d="M4 14h24l2 6H2z" color="#000" fill="url(#a)" style="font-feature-settings:normal;font-variant-alternates:normal;font-variant-caps:normal;font-variant-east-asian:normal;font-variant-ligatures:normal;font-variant-numeric:normal;font-variant-position:normal;font-variation-settings:normal;inline-size:0;isolation:auto;mix-blend-mode:normal;shape-margin:0;shape-padding:0;text-decoration-color:#000;text-decoration-line:none;text-decoration-style:solid;text-indent:0;text-orientation:mixed;text-transform:none;white-space:normal" paint-order="stroke markers fill"/><path fill="#971818" paint-order="fill markers stroke" d="M4 6h2v8H4z"/><path fill="#ffce13" paint-order="fill markers stroke" d="M4 4h2v2H4zM8 4h2v2.1H8z"/><path fill="#ebba75" paint-order="fill markers stroke" d="M6 8h20v5.98H6z"/><path fill="#ffdb7d" paint-order="fill markers stroke" d="M6 6h20v2H6z"/><g fill="#971818" paint-order="fill markers stroke"><path d="M8 6h2v8H8zM14 6h4v2h-4zM12 4h2v10h-2zM22 6h2v8h-2zM18 4h2v10h-2zM26 6h2v8h-2z"/></g><g fill="#ffce13" paint-order="fill markers stroke"><path d="M12 2h2v2h-2zM18 2h2v2h-2zM22 4h2v2h-2zM26 4h2v2h-2z"/></g><path d="M2 20h28v2H2z" color="#000" fill="#390000" style="font-feature-settings:normal;font-variant-alternates:normal;font-variant-caps:normal;font-variant-east-asian:normal;font-variant-ligatures:normal;font-variant-numeric:normal;font-variant-position:normal;font-variation-settings:normal;inline-size:0;isolation:auto;mix-blend-mode:normal;shape-margin:0;shape-padding:0;text-decoration-color:#000;text-decoration-line:none;text-decoration-style:solid;text-indent:0;text-orientation:mixed;text-transform:none;white-space:normal" paint-order="stroke markers fill"/></svg>