<svg width="32" height="32" version="1.0" xmlns="http://www.w3.org/2000/svg" xmlns:xlink="http://www.w3.org/1999/xlink"><defs><linearGradient id="a"><stop stop-color="#614a4a" offset="0"/><stop stop-color="#deddc3" offset="1"/></linearGradient><radialGradient id="b" cx="25.61" cy="30.51" r="16" gradientTransform="matrix(.7867 .7513 .6875 -.75 -25.12 20.64)" gradientUnits="userSpaceOnUse"><stop stop-color="#9d8e85" offset="0"/><stop stop-color="#e7e7c9" offset="1"/></radialGradient><linearGradient id="c" x1="13" x2="13" y1="8.336" y2="2" gradientTransform="matrix(1 0 0 .879 -3.51 4.492)" gradientUnits="userSpaceOnUse" xlink:href="#a"/><linearGradient id="d" x1="13" x2="13" y1="8.336" y2="2" gradientTransform="matrix(1 0 0 .7649 2.638 2.726)" gradientUnits="userSpaceOnUse" xlink:href="#a"/><linearGradient id="e" x1="13" x2="13" y1="8.336" y2="2" gradientTransform="matrix(1 0 0 .879 12.64 5.231)" gradientUnits="userSpaceOnUse" xlink:href="#a"/><linearGradient id="f" x1="13" x2="13" y1="8.336" y2="2" gradientTransform="matrix(-.9429 -.3331 -.2928 .8288 31.94 5.725)" gradientUnits="userSpaceOnUse" xlink:href="#a"/></defs><g stroke-linejoin="round"><path class="cls-1" d="M16.11 14.21c7.897 0 11.07 9.526 11.09 14.51H4.7C5.939 23.379 7 14.21 16.11 14.21z" fill="none" stroke="#f2f2f2" stroke-width="5"/><path d="M2 28h28v2H2z" color="#000" fill="none" stroke="#f2f2f2" stroke-width="4" style="font-feature-settings:normal;font-variant-alternates:normal;font-variant-caps:normal;font-variant-east-asian:normal;font-variant-ligatures:normal;font-variant-numeric:normal;font-variant-position:normal;font-variation-settings:normal;inline-size:0;isolation:auto;mix-blend-mode:normal;shape-margin:0;shape-padding:0;text-decoration-color:#000;text-decoration-line:none;text-decoration-style:solid;text-indent:0;text-orientation:mixed;text-transform:none;white-space:normal" paint-order="stroke markers fill"/><path class="cls-1" d="M16.11 14.21c7.897 0 11.07 9.526 11.09 14.51H4.7C5.939 23.379 7 14.21 16.11 14.21z" fill="url(#b)" stroke="#000" stroke-width="1.5"/></g><g fill="none" stroke-linecap="round"><path d="M8 13c.467-.49.07-1.064-.281-1.475-.35-.366-.475-1.088.133-1.264.642-.249.291-.998.01-1.403-.264-.339-.716-.848-.16-1.16.33-.301.754-.537.784-1.039" stroke="url(#c)" stroke-width="2"/><path d="M16 28v-4" stroke="#404040" stroke-width="4"/><g stroke-width="2"><path d="M14.15 11c.467-.427.07-.926-.281-1.284-.35-.318-.475-1.817.133-1.97.642-.217.291-1.739.01-2.091-.264-.295-1.565-1.118-1.01-1.39.33-.262.755-.467.785-.904" stroke="url(#d)"/><path d="M24.15 13.74c.467-.49.07-1.064-.281-1.475-.35-.366-.475-1.088.133-1.264.642-.249.291-.998.01-1.403-.264-.339-.716-.848-.16-1.16.33-.301.754-.537.784-1.039" stroke="url(#e)"/><path d="M17.92 10.86c-.277-.618.288-1.027.756-1.297.452-.228 1.143-1.811.629-2.179-.522-.449.39-1.981.791-2.269.362-.232 1.904-.69 1.484-1.169-.212-.394-.533-.758-.394-1.241" stroke="url(#f)"/></g></g><path d="M2 28h28v2H2z" color="#000" style="font-feature-settings:normal;font-variant-alternates:normal;font-variant-caps:normal;font-variant-east-asian:normal;font-variant-ligatures:normal;font-variant-numeric:normal;font-variant-position:normal;font-variation-settings:normal;inline-size:0;isolation:auto;mix-blend-mode:normal;shape-margin:0;shape-padding:0;text-decoration-color:#000;text-decoration-line:none;text-decoration-style:solid;text-indent:0;text-orientation:mixed;text-transform:none;white-space:normal" paint-order="stroke markers fill"/></svg>