<?xml version="1.0" encoding="UTF-8" standalone="no"?>
<!-- Created with Inkscape (http://www.inkscape.org/) -->

<svg
   width="32.0px"
   height="32.0px"
   viewBox="0 0 32.0 32.0"
   version="1.1"
   id="SVGRoot"
   xmlns="http://www.w3.org/2000/svg"
   xmlns:svg="http://www.w3.org/2000/svg">
  <defs
     id="defs26795" />
  <g
     id="layer1">
    <path
       d="m 20.225749,27.696604 -2.797936,-2.340172 3.782552,-3.566052 c -1.409999,-1.460143 -2.829766,-2.913799 -4.251981,-4.36498 0.324526,-0.288846 0.648558,-0.577658 0.97275,-0.866852 1.386541,1.488431 2.77663,2.974737 4.174029,4.452313 0.291476,0.19813 1.94735,-1.318854 2.147175,-1.60432 l 4.587532,-2.307825 c -0.252491,0.172222 -2.319607,4.968539 -2.645414,5.239914 -0.503283,0.421026 -1.091412,0.921441 -1.704861,1.450681 l 0.971059,0.902431 -0.747358,0.603235 -0.942251,-0.883021 c -1.323837,1.157639 -2.676031,2.387448 -3.545296,3.284648 z M 12.897899,13.281985 C 12.668037,13.046828 12.437747,12.812223 12.20816,12.576862 L 5.5242934,5.7536516 6.8139546,4.6312736 13.319877,11.60974 c 0.214617,0.229242 0.427907,0.459491 0.642289,0.688952 -0.354807,0.327718 -0.709121,0.655909 -1.064267,0.983293 z"
       id="path3604"
       fill="#ffffff"
       stroke="#ffffff"
       stroke-linejoin="round"
       stroke-linecap="round"
       stroke-width="1.05953"
       style="fill:#483e37;stroke:#483e37" />
    <path
       d="M 5.7467746,23.72516 C 4.2037604,22.231398 3.1673657,20.326734 1.8722601,18.634409 l 2.8646131,-1.993924 3.100124,4.263819 c 0.3725071,0.186929 0.6148504,-0.273173 0.8399876,-0.478497 3.1227602,-2.955047 6.2092162,-5.952032 9.3179022,-8.923536 l 6.900864,-6.6236744 1.222613,1.18891 -7.069418,6.4597684 c -3.171709,2.910211 -6.369707,5.798733 -9.5244409,8.722686 -0.219356,0.210951 -0.7059598,0.433524 -0.5171237,0.792465 l 4.4088546,3.038163 -2.142917,2.695727 C 9.3623285,26.497637 7.4194692,25.289043 5.7467746,23.72516 Z"
       id="path3621"
       fill="#ffffff"
       stroke="#ffffff"
       stroke-linejoin="round"
       stroke-linecap="round"
       stroke-width="1.09162"
       style="fill:#483e37;stroke:#483e37;stroke-width:1.05991;stroke-dasharray:none" />
  </g>
</svg>
