<?xml version="1.0" encoding="UTF-8" standalone="no"?>
<svg
   width="32"
   height="32"
   version="1.2"
   id="svg2"
   xmlns="http://www.w3.org/2000/svg"
   xmlns:svg="http://www.w3.org/2000/svg">
  <defs
     id="defs2" />
  <g
     color="#000"
     paint-order="stroke markers fill"
     id="g2">
    <path
       d="M22.67 23.21l2.701-2.947-3.183-2.501-1.326 1.44.253 2.791zM24.01 23.86l-.012 5.66h4.088l1.917-1.92v-3.729zM21.2 29.26l-1.821-5.649-4.329 1.195-.844 3.372 4.968 1.641zM15 5.081C10.309 2.536 7.849 2.457 3.59 2l-.157.737c5.294 1.139 6.632 2.289 10.26 4.332L14.2 9.29 2.19 27.61c-.12.223-.193.458-.193.726-.012.904.76 1.652 1.736 1.663a1.823 1.823 0 0 0 1.53-.77l11.82-17.9 4.812 2.846 2.472-3.773-9.37-5.325"
       style="font-feature-settings:normal;font-variant-alternates:normal;font-variant-caps:normal;font-variant-east-asian:normal;font-variant-ligatures:normal;font-variant-numeric:normal;font-variant-position:normal;font-variation-settings:normal;inline-size:0;isolation:auto;mix-blend-mode:normal;shape-margin:0;shape-padding:0;text-decoration-color:#000;text-decoration-line:none;text-decoration-style:solid;text-indent:0;text-orientation:mixed;text-transform:none;white-space:normal;stroke:none;fill:#000000;fill-opacity:1"
       id="path2" />
  </g>
</svg>
