<svg width="32" height="32" version="1.2" xmlns="http://www.w3.org/2000/svg"><g color="#000" paint-order="stroke markers fill"><path d="M3.568 0C1.799-.004.952 2.375 1.725 3.755 2.702 5.21 4.73 4.77 6.147 5.509a25.38 25.38 0 0 1 5.748 2.865c.09 1.682-1.811 3.049-2.496 4.599-3.043 4.704-6.213 9.335-9.167 14.09-.965 2.306 1.102 5.102 3.581 4.948 1.817.026 3.123-1.416 3.923-2.89 3.323-5.033 6.646-10.07 9.969-15.1 1.011.715 2.856 1.462 3.354 2.143-.88.793-1.967 1.64-2.247 2.835-.21 1.098.925 3.139-.992 3.003-1.39.578-3.052.572-4.282 1.488-.876 1.094-.8 2.609-1.279 3.883-.563 1.383.586 2.629 1.913 2.855 1.743.414 3.359 1.318 5.151 1.51 1.257-.001 2.529-1.183 3.665-.564 1.627.544 3.447.177 5.153.238 1.559-.037 2.283-1.671 3.407-2.498.966-1.418.37-3.263.526-4.878.132-1.459-1.4-2.293-2.686-2.11-.942.034-1.885.003-2.828.011 1.144-.805 1.195-2.684-.13-3.354-.925-1.029-2.936-1.842-3.323-2.85 1.188-1.303 2.037-2.922 3.005-4.406.774-1.208-.263-2.668-1.464-3.064-3.31-1.847-6.56-3.803-9.911-5.569C11.26.983 7.412.248 3.567-.002z" fill="#f2f2f2" style="font-feature-settings:normal;font-variant-alternates:normal;font-variant-caps:normal;font-variant-east-asian:normal;font-variant-ligatures:normal;font-variant-numeric:normal;font-variant-position:normal;font-variation-settings:normal;inline-size:0;isolation:auto;mix-blend-mode:normal;shape-margin:0;shape-padding:0;text-decoration-color:#000;text-decoration-line:none;text-decoration-style:solid;text-indent:0;text-orientation:mixed;text-transform:none;white-space:normal"/><path d="M22.67 23.21l2.701-2.947-3.183-2.501-1.326 1.44.253 2.791zM24.01 23.86l-.012 5.66h4.088l1.917-1.92v-3.729zM21.2 29.26l-1.821-5.649-4.329 1.195-.844 3.372 4.968 1.641zM15 5.081C10.309 2.536 7.849 2.457 3.59 2l-.157.737c5.294 1.139 6.632 2.289 10.26 4.332L14.2 9.29 2.19 27.61c-.12.223-.193.458-.193.726-.012.904.76 1.652 1.736 1.663a1.823 1.823 0 0 0 1.53-.77l11.82-17.9 4.812 2.846 2.472-3.773-9.37-5.325" style="font-feature-settings:normal;font-variant-alternates:normal;font-variant-caps:normal;font-variant-east-asian:normal;font-variant-ligatures:normal;font-variant-numeric:normal;font-variant-position:normal;font-variation-settings:normal;inline-size:0;isolation:auto;mix-blend-mode:normal;shape-margin:0;shape-padding:0;text-decoration-color:#000;text-decoration-line:none;text-decoration-style:solid;text-indent:0;text-orientation:mixed;text-transform:none;white-space:normal"/></g></svg>