<svg width="32" height="28" xmlns="http://www.w3.org/2000/svg"><defs><linearGradient id="a" x1="9" x2="23" y1="9" y2="8" gradientTransform="translate(0 -.4)" gradientUnits="userSpaceOnUse"><stop stop-color="#512222" offset="0"/><stop stop-color="#ebebeb" offset="1"/></linearGradient><linearGradient id="b" x1="5" x2="26" y1="24" y2="15" gradientTransform="translate(0 -2.4)" gradientUnits="userSpaceOnUse"><stop stop-color="#8b8b8b" offset="0"/><stop stop-color="#e1e1e1" offset="1"/></linearGradient></defs><g color="#000"><path d="M15.67.373l-.856.453-3.585 1.908-1.408 2.53H8.469l-.483-1.556-3.219-2.645L1.9 3.924.996 6.971v5.527l-.785 10.6a2 2 0 0 0-.215.899v2a2 2 0 0 0 2 2h28a2 2 0 0 0 2-2v-2a2 2 0 0 0-.215-.9l-.785-10.6v-5.54l-1.01-3.252-3.22-2.645L23.9 3.921l-.397 1.338h-1.357l-1.605-2.758z" fill="#f2f2f2" style="font-feature-settings:normal;font-variant-alternates:normal;font-variant-caps:normal;font-variant-east-asian:normal;font-variant-ligatures:normal;font-variant-numeric:normal;font-variant-position:normal;font-variation-settings:normal;inline-size:0;isolation:auto;mix-blend-mode:normal;shape-margin:0;shape-padding:0;text-decoration-color:#000;text-decoration-line:none;text-decoration-style:solid;text-indent:0;text-orientation:mixed;text-transform:none;white-space:normal" paint-order="stroke markers fill"/><path d="M2 24h28v2H2z" style="font-feature-settings:normal;font-variant-alternates:normal;font-variant-caps:normal;font-variant-east-asian:normal;font-variant-ligatures:normal;font-variant-numeric:normal;font-variant-position:normal;font-variation-settings:normal;inline-size:0;isolation:auto;mix-blend-mode:normal;shape-margin:0;shape-padding:0;text-decoration-color:#000;text-decoration-line:none;text-decoration-style:solid;text-indent:0;text-orientation:mixed;text-transform:none;white-space:normal" paint-order="stroke markers fill"/><path d="M15.76 2.593l-3.064 1.631-1.693 3.04h-4l-.742-2.39-1.355-1.113L3.68 4.984l-.678 2.281v4.336h26V7.265l-.742-2.39-1.355-1.113-1.225 1.223-.678 2.281h-4l-1.855-3.189z" fill="url(#a)" stroke="#222" stroke-linecap="square" style="font-feature-settings:normal;font-variant-alternates:normal;font-variant-caps:normal;font-variant-east-asian:normal;font-variant-ligatures:normal;font-variant-numeric:normal;font-variant-position:normal;font-variation-settings:normal;inline-size:0;isolation:auto;mix-blend-mode:normal;shape-margin:0;shape-padding:0;text-decoration-color:#000;text-decoration-line:none;text-decoration-style:solid;text-indent:0;text-orientation:mixed;text-transform:none;white-space:normal"/></g><path d="M15.98 8.552l-4.618 3H3.953v12h24.05v-12h-7.411z" fill="url(#b)" stroke="#222" stroke-linecap="square" paint-order="fill markers stroke"/><path fill="#4c4c4c" paint-order="fill markers stroke" d="M14 18h4v5h-4z"/><path fill="#fff" paint-order="fill markers stroke" d="M24 18.6h2v2h-2z"/><path fill="#9d9d9d" paint-order="fill markers stroke" d="M20 18.6h2v2h-2z"/><g fill="#3a3a3a" stroke-linecap="square" stroke-width="1.666" paint-order="fill markers stroke"><path d="M10 18.6h2v2h-2zM6 14.6h2v2H6zM10 14.6h2v2h-2zM6 18.6h2v2H6z"/></g><path fill="#fff" paint-order="fill markers stroke" d="M24 14.6h2v2h-2zM20 14.6h2v2h-2z"/><path fill="#767676" paint-order="fill markers stroke" d="M14 13h4v2.6h-4z"/></svg>