<?xml version="1.0" encoding="UTF-8" standalone="no"?>
<!-- Created with Inkscape (http://www.inkscape.org/) -->

<svg
   width="32.0px"
   height="32.0px"
   viewBox="0 0 32.0 32.0"
   version="1.1"
   id="SVGRoot"
   sodipodi:docname="ruins_church.svg"
   inkscape:version="1.2.2 (732a01da63, 2022-12-09)"
   xmlns:inkscape="http://www.inkscape.org/namespaces/inkscape"
   xmlns:sodipodi="http://sodipodi.sourceforge.net/DTD/sodipodi-0.dtd"
   xmlns="http://www.w3.org/2000/svg"
   xmlns:svg="http://www.w3.org/2000/svg">
  <sodipodi:namedview
     id="namedview38995"
     pagecolor="#ffffff"
     bordercolor="#000000"
     borderopacity="0.25"
     inkscape:showpageshadow="2"
     inkscape:pageopacity="0.0"
     inkscape:pagecheckerboard="0"
     inkscape:deskcolor="#d1d1d1"
     inkscape:document-units="px"
     showgrid="true"
     inkscape:zoom="19.461567"
     inkscape:cx="16.930805"
     inkscape:cy="17.675863"
     inkscape:window-width="1304"
     inkscape:window-height="745"
     inkscape:window-x="54"
     inkscape:window-y="-8"
     inkscape:window-maximized="1"
     inkscape:current-layer="layer1">
    <inkscape:grid
       type="xygrid"
       id="grid39118" />
  </sodipodi:namedview>
  <defs
     id="defs38990">
    <inkscape:path-effect
       effect="bspline"
       id="path-effect53601"
       is_visible="true"
       lpeversion="1"
       weight="33.333333"
       steps="2"
       helper_size="0"
       apply_no_weight="true"
       apply_with_weight="true"
       only_selected="false" />
    <inkscape:path-effect
       effect="bspline"
       id="path-effect53541"
       is_visible="true"
       lpeversion="1"
       weight="33.333333"
       steps="2"
       helper_size="0"
       apply_no_weight="true"
       apply_with_weight="true"
       only_selected="false" />
    <inkscape:path-effect
       effect="bspline"
       id="path-effect53474"
       is_visible="true"
       lpeversion="1"
       weight="33.333333"
       steps="2"
       helper_size="0"
       apply_no_weight="true"
       apply_with_weight="true"
       only_selected="false" />
    <inkscape:path-effect
       effect="bspline"
       id="path-effect53470"
       is_visible="true"
       lpeversion="1"
       weight="33.333333"
       steps="2"
       helper_size="0"
       apply_no_weight="true"
       apply_with_weight="true"
       only_selected="false" />
    <inkscape:path-effect
       effect="bspline"
       id="path-effect53466"
       is_visible="true"
       lpeversion="1"
       weight="33.333333"
       steps="2"
       helper_size="0"
       apply_no_weight="true"
       apply_with_weight="true"
       only_selected="false" />
    <inkscape:path-effect
       effect="bspline"
       id="path-effect53462"
       is_visible="true"
       lpeversion="1"
       weight="33.333333"
       steps="2"
       helper_size="0"
       apply_no_weight="true"
       apply_with_weight="true"
       only_selected="false" />
    <inkscape:path-effect
       effect="bspline"
       id="path-effect53458"
       is_visible="true"
       lpeversion="1"
       weight="33.333333"
       steps="2"
       helper_size="0"
       apply_no_weight="true"
       apply_with_weight="true"
       only_selected="false" />
  </defs>
  <g
     inkscape:label="Layer 1"
     inkscape:groupmode="layer"
     id="layer1">
    <path
       id="rect39947-4"
       style="fill:#ffffff;fill-opacity:1;stroke:none;stroke-width:0.671839;stroke-linecap:square;stroke-dasharray:none;paint-order:fill markers stroke"
       d="M 17.751277,0.29943244 C 16.511876,0.31105324 15.272476,0.32284474 14.03308,0.33503934 14.10706,1.0746453 13.86359,1.4729565 13.081121,1.2917604 12.323883,1.0700653 12.455197,2.0358116 12.20452,2.4910728 11.902143,3.4440606 11.599775,4.3970512 11.297402,5.3500401 10.793524,5.483453 9.8695457,5.0410615 9.6898607,5.6157005 9.6643147,6.351016 8.7725321,5.9126957 8.2924693,6.0322005 7.6945988,6.0423359 6.8643709,5.8202351 7.1404473,6.7038658 c -0.015016,4.5662072 0.030022,9.1924382 -0.0225,13.7211602 -0.6400123,0 -1.2800246,0 -1.9200368,0 0,2.238885 0,4.477769 0,6.716653 -0.7465631,-0.145976 -1.1343854,0.0666 -0.937518,0.863569 0,1.311347 0,2.622694 0,3.93404 8.0001545,0 16.0003065,0 24.0004605,0 0,-1.599203 0,-3.198406 0,-4.797609 -0.745289,0.137206 -1.163698,-0.05229 -0.960019,-0.86357 0,-4.509752 0,-9.019505 0,-13.529257 -0.745288,0.137206 -1.163698,-0.05229 -0.960018,-0.86357 0.06292,-0.670583 0.09284,-1.308187 -0.768015,-1.055474 -0.59787,-0.01013 -1.428098,0.211966 -1.152022,-0.671665 0,-2.0149947 0,-4.0299903 0,-6.0449861 -0.656261,0 -1.312525,0 -1.968788,0 -0.01688,-0.6165677 -0.03375,-1.2331355 -0.05062,-1.8497032 -0.903768,0.00183 -1.807535,0.00351 -2.711303,0.00562 5.31e-4,-0.6627947 0.0012,-1.32558942 0.0019,-1.98838419 -0.646887,0.006246 -1.293774,0.0124939 -1.940661,0.0187404 z" />
    <path
       id="rect39947"
       style="fill:#ac9393;fill-opacity:1;stroke:#1a1a1a;stroke-width:0.674313;stroke-linecap:square;stroke-dasharray:none;paint-order:fill markers stroke"
       d="m 20.646751,6.1189619 -0.04831,-1.8598969 -2.763704,0.00658 0.0026,-1.9882029 -1.985062,0.017993 -0.08641,0.9290501 -1.70348,0.034801 -1.294945,4.1153531 -1.509125,-0.00944 -0.209965,0.6873204 H 9.1286552 V 9.9860826 29.321685 H 22.566434 V 10.004965 9.9860826 6.1189619 Z"
       sodipodi:nodetypes="cccccccccccccccccc" />
    <path
       style="fill:#333333;fill-opacity:1;stroke:none;stroke-width:1.11637;stroke-linecap:square;stroke-dasharray:none;paint-order:fill markers stroke"
       d="M 25.447729,29.117386 V 14.724559 H 24.48771 v -1.919044 h -1.920036 v -1.919043 h -1.920037 v 18.230914 z"
       id="path45139"
       sodipodi:nodetypes="ccccccccc" />
    <path
       style="fill:#333333;fill-opacity:1;stroke:none;stroke-width:0.699936;stroke-linecap:square;stroke-dasharray:none;paint-order:fill markers stroke"
       d="M 10.064666,29.117386 V 23.360255 H 9.1046465 v -0.959522 0 H 7.1846097 v 6.716653 z"
       id="path45139-6"
       sodipodi:nodetypes="cccccccc" />
    <path
       style="fill:#f2f2f2;fill-opacity:1;stroke:#333333;stroke-width:0.390846;stroke-linecap:square;stroke-dasharray:none;paint-order:fill markers stroke"
       d="M 15.535463,12.020556 V 9.5724296 l 0.748789,-0.816042 0.748789,0.816042 v 2.4481264 z"
       id="path45141-1"
       sodipodi:nodetypes="cccccc" />
    <path
       style="fill:#ffffff;fill-opacity:1;stroke:#1a1a1a;stroke-width:0.479885;stroke-linecap:square;stroke-dasharray:none;paint-order:fill markers stroke"
       d="m 13.508929,28.58873 c -0.01825,-0.792908 -0.05476,-2.379707 0.0875,-3.334043 0.14226,-0.954336 0.463304,-1.275214 0.844377,-1.534538 0.381074,-0.259325 0.821703,-0.456881 1.32119,-0.542329 0.499487,-0.08545 1.05721,-0.05902 1.460123,0.05905 0.402914,0.118071 0.650947,0.326954 0.812382,0.563663 0.161435,0.236709 0.236975,0.500962 0.296652,1.042632 0.05968,0.541669 0.103818,1.361932 0.112815,2.152752 0.009,0.790819 -0.01698,1.555421 -0.09153,1.940504 -0.07454,0.385082 -0.197983,0.39057 -0.97665,0.401541 -0.778666,0.01097 -2.205896,0.0273 -2.956265,0.03548 -0.750369,0.0082 -0.820884,0.0082 -0.856621,0.0082 -0.03574,10e-7 -0.03573,6e-6 -0.05398,-0.792903 z"
       id="path53599"
       inkscape:path-effect="#path-effect53601"
       inkscape:original-d="m 13.527175,29.381639 c -0.03555,-1.585839 -0.07207,-3.172638 -0.109541,-4.760398 0.322017,-0.31993 0.64306,-0.640808 0.96315,-0.96265 0.441617,-0.196609 0.882246,-0.394166 1.321943,-0.592694 0.558715,0.02738 1.116437,0.05382 1.673232,0.07928 0.249002,0.209851 0.497035,0.418734 0.744111,0.626662 0.0765,0.265221 0.152043,0.529474 0.226623,0.792771 0.04504,0.820175 0.08919,1.640437 0.132251,2.457599 -0.02499,0.76456 -0.05097,1.529162 -0.07794,2.29382 -0.123062,0.0064 -0.246498,0.01197 -0.371578,0.01652 -1.432287,0.01736 -2.859517,0.03368 -4.290716,0.04908 -0.06955,9.6e-4 -0.140065,9.6e-4 -0.211538,5e-6 z"
       sodipodi:nodetypes="cccccccccccc" />
    <rect
       style="fill:#000000;fill-opacity:1;stroke:none;stroke-width:0.824765;stroke-linecap:butt;stroke-linejoin:round;stroke-dasharray:none;stroke-opacity:1;paint-order:markers fill stroke"
       id="rect16759"
       width="1.1015575"
       height="8.2855902"
       x="15.760108"
       y="13.601404"
       ry="0"
       rx="0" />
    <path
       style="fill:#ffffff;fill-opacity:1;stroke:#000000;stroke-width:0.84399;stroke-linecap:butt;stroke-linejoin:round;stroke-dasharray:none;paint-order:markers fill stroke"
       d="m 13.037541,16.740952 c 2.199722,-0.02027 4.397785,-0.04054 6.594188,-0.06081"
       id="path8960" />
    <rect
       style="fill:#000000;fill-opacity:1;stroke:none;stroke-width:0.93214;stroke-linecap:butt;stroke-linejoin:round;stroke-dasharray:none;paint-order:markers fill stroke"
       id="rect11899"
       width="20.160387"
       height="0.95952183"
       x="6.2473598"
       y="29.117386" />
  </g>
</svg>
