<svg width="32" height="20" xmlns="http://www.w3.org/2000/svg"><path d="M15.96-.04C11.152.049 6.817 3.187 4.35 7.176c-1.342 2.087-1.871 4.527-2.654 6.844-1.212.125-1.894 1.383-1.729 2.509.175 2.15.11 3.062 2.089 3.49l28.12-.011c1.243-.086 1.967-1.368 1.796-2.518-.02-1.1.218-2.477-.895-3.154-1.342-.22-1.181-1.81-1.63-2.842-1.105-4.068-3.718-7.764-7.414-9.86C20.198.574 18.095-.064 15.966-.04z" color="#000" fill="#f1f1f1" style="font-feature-settings:normal;font-variant-alternates:normal;font-variant-caps:normal;font-variant-east-asian:normal;font-variant-ligatures:normal;font-variant-numeric:normal;font-variant-position:normal;font-variation-settings:normal;inline-size:0;isolation:auto;mix-blend-mode:normal;shape-margin:0;shape-padding:0;text-decoration-color:#000;text-decoration-line:none;text-decoration-style:solid;text-indent:0;text-orientation:mixed;text-transform:none;white-space:normal" paint-order="stroke markers fill"/><path d="M4 13.43c.467-1.588 1.105-4.273 3.134-6.735 2.028-2.462 5.447-4.699 8.846-4.732 3.399-.033 6.777 2.137 8.794 4.619 2.017 2.482 2.673 5.274 3.162 6.897.225.915.625 1.741 1.125 2.523H2.941c.296-.492.593-.984 1.06-2.572z" color="#000" fill="#b14900" style="font-feature-settings:normal;font-variant-alternates:normal;font-variant-caps:normal;font-variant-east-asian:normal;font-variant-ligatures:normal;font-variant-numeric:normal;font-variant-position:normal;font-variation-settings:normal;inline-size:0;isolation:auto;mix-blend-mode:normal;shape-margin:0;shape-padding:0;text-decoration-color:#000;text-decoration-line:none;text-decoration-style:solid;text-indent:0;text-orientation:mixed;text-transform:none;white-space:normal" paint-order="stroke markers fill"/><path fill="#ccc" stroke="#54952f" stroke-linecap="square" stroke-width="1.265" paint-order="fill markers stroke" d="M11 8h10.18v7.406H11z"/><path d="M1.966 16h28v2.018h-28z" color="#000" style="font-feature-settings:normal;font-variant-alternates:normal;font-variant-caps:normal;font-variant-east-asian:normal;font-variant-ligatures:normal;font-variant-numeric:normal;font-variant-position:normal;font-variation-settings:normal;inline-size:0;isolation:auto;mix-blend-mode:normal;shape-margin:0;shape-padding:0;text-decoration-color:#000;text-decoration-line:none;text-decoration-style:solid;text-indent:0;text-orientation:mixed;text-transform:none;white-space:normal" paint-order="stroke markers fill"/></svg>