<?xml version="1.0" encoding="UTF-8" standalone="no"?>
<!-- Created with Inkscape (http://www.inkscape.org/) -->

<svg
   width="32.0px"
   height="32.0px"
   viewBox="0 0 32.0 32.0"
   version="1.1"
   id="SVGRoot"
   xmlns="http://www.w3.org/2000/svg"
   xmlns:svg="http://www.w3.org/2000/svg">
  <defs
     id="defs5136" />
  <g
     id="layer1">
    <path
       class="st0"
       d="M 29.02767,8.4190228 22.119956,3.4742576 C 21.686449,3.1586523 21.024201,2.9471312 20.467753,2.9471312 c -0.01394,0 -9.238902,0 -9.252859,0 -0.556574,0 -1.2189522,0.2115211 -1.652327,0.5271264 L 2.6547285,8.4192649 C 2.0150587,8.8690523 1.9252368,9.4882694 2.055153,9.9193517 c 0.1305477,0.4329963 0.5559346,0.9170773 1.3578694,0.9766703 0.032967,0.0022 0.066211,0.0036 0.099337,0.0036 h 3.3099837 c -0.00347,0.04284 -0.007,0.08561 -0.007,0.129267 v 7.503309 c 0,0.08189 0.00827,0.162116 0.020405,0.241377 L 6.181736,18.690945 c -0.081196,-0.01074 -0.1635282,-0.01621 -0.2448549,-0.01621 -0.9527757,0 -1.6992711,0.709034 -1.6992711,1.614359 v 1.876482 c 0,0.305299 0.086525,0.595003 0.2364849,0.848616 -0.1495781,0.241861 -0.2363531,0.52461 -0.2363531,0.830862 v 1.606327 c 0,0.274116 0.072436,0.537801 0.1996873,0.774019 C 4.3098034,26.453235 4.23761,26.715358 4.23761,26.996428 v 1.426107 c 0,0.866469 0.6844556,1.612077 1.5919459,1.734384 0.00695,7.34e-4 3.1097825,0.372205 3.1162584,0.372808 0.064544,0.0067 0.1301657,0.01016 0.1948632,0.01016 0.2206261,0 0.4340206,-0.03954 0.6324382,-0.113071 0.2409273,0.136824 0.5185123,0.222202 0.8163983,0.239587 0.01031,5.95e-4 5.436925,0.192698 5.436925,0.192698 0.0101,3.44e-4 0.05427,7.34e-4 0.05427,7.34e-4 0.291793,0 0.572557,-0.06675 0.823374,-0.191854 0.228615,0.103846 0.483491,0.163795 0.753339,0.163795 h 1.31e-4 c 0.03206,0 0.06433,-7.33e-4 0.09692,-0.0022 0.01437,-7.32e-4 0.02881,-0.0015 0.04317,-0.0029 l 7.986845,-0.671145 c 0.01431,-0.0015 0.02881,-0.0029 0.04303,-0.0044 0.906726,-0.10576 1.616931,-0.865039 1.616931,-1.728515 v -1.426413 c 0,-0.278553 -0.07106,-0.538401 -0.196267,-0.765276 0.125475,-0.236344 0.196517,-0.501466 0.196517,-0.779543 v -1.606258 c 0,-0.306253 -0.0869,-0.589009 -0.236603,-0.830745 0.149951,-0.253612 0.236353,-0.543199 0.236353,-0.848248 v -1.876607 c 0,-0.904849 -0.745858,-1.61364 -1.698126,-1.61364 -0.0859,0 -0.172794,0.0059 -0.246126,0.01643 l -0.654133,0.0855 c 0.01256,-0.08046 0.02095,-0.162 0.02095,-0.244979 v -7.503672 c 0,-0.04379 -0.0035,-0.0867 -0.0069,-0.129501 h 3.310109 c 0.03324,0 0.06635,-0.0015 0.09947,-0.0036 0.801934,-0.05957 1.227188,-0.543676 1.357737,-0.9767899 0.130165,-0.4310815 0.04025,-1.0504233 -0.599702,-1.500086 z"
       id="path8421"
       style="fill:#ffffff;stroke-width:0.12334;opacity:0.5" />
    <path
       class="st1"
       d="m 12.922063,14.833605 c -0.441667,-0.08904 -0.731129,0.203727 -0.644745,0.667086 0.314501,1.678685 0.629815,3.350893 0.945317,5.017486 0.08723,0.459597 0.521196,0.892095 0.965092,0.944859 1.10134,0.07424 2.205916,0.07424 3.307263,0 0.443886,-0.05285 0.877891,-0.485262 0.965094,-0.944859 0.315503,-1.666171 0.630806,-3.338801 0.945504,-5.017486 0.08635,-0.463359 -0.203266,-0.756133 -0.644534,-0.667086 -1.94007,0.231883 -3.89932,0.231883 -5.838991,0 z"
       id="path8445"
       style="fill:#483e37;stroke-width:0.176966" />
    <path
       class="st1"
       d="m 9.7678594,22.348671 c 0.2803576,0.03618 0.5098086,-0.282404 0.5098086,-0.707655 v -7.672385 c 0,-0.425263 0.230212,-0.773192 0.511592,-0.773192 h 10.179068 c 0.28138,0 0.5116,0.347929 0.5116,0.773192 v 7.672385 c 0,0.425251 0.22945,0.743807 0.509677,0.707655 L 23.1898,22.180123 c 0.279973,-0.04259 0.509039,-0.425063 0.509039,-0.850313 V 9.2339827 c 0,-0.4252494 -0.229066,-0.7384012 -0.508907,-0.6956775 l -1.200327,0.1685533 c -0.280227,0.03619 -0.509677,0.4134648 -0.509677,0.838726 v 0.8566915 c 0,0.42526 -0.23022,0.77319 -0.5116,0.77319 H 10.78926 c -0.28138,0 -0.511592,-0.34793 -0.511592,-0.77319 V 9.5453845 c 0,-0.4252529 -0.229324,-0.8027653 -0.5098086,-0.8387141 L 8.5676638,8.5379147 C 8.2876899,8.4952244 8.0586251,8.8083417 8.0586251,9.2335957 V 21.329024 c 0,0.425264 0.2290648,0.808181 0.5090387,0.850704 z"
       id="path8447"
       style="fill:#774321;fill-opacity:1;stroke-width:0.144108" />
    <path
       style="fill:#7c7c7c;fill-opacity:1;stroke:#502d16;stroke-width:0.0335442;stroke-linecap:square;stroke-linejoin:round;paint-order:fill markers stroke"
       d="m 6.4960764,28.775688 c 0,-0.02027 0,-0.06086 0.011064,-1.038988 0.011064,-0.978123 0.033193,-2.893703 0.1272269,-3.875883 0.094034,-0.98218 0.2599468,-1.030882 1.4103109,-0.957821 1.1503641,0.07306 3.2850784,0.267866 5.3479554,0.344975 2.062876,0.07711 4.05381,0.03653 5.773796,-0.04059 1.719985,-0.07711 3.168938,-0.190749 4.048285,-0.28004 0.879347,-0.08929 1.189042,-0.154224 1.426858,-0.158271 0.237817,-0.004 0.40373,0.05277 0.481136,1.034956 0.07741,0.982186 0.06635,2.889653 0.04422,3.900211 -0.02212,1.010558 -0.05531,1.124202 -0.132729,1.213483 -0.07742,0.08928 -0.199083,0.154211 -0.890393,0.255678 -0.69131,0.101467 -1.952231,0.239455 -3.539494,0.328745 -1.587262,0.08929 -3.500759,0.129874 -5.39773,0.105523 -1.896972,-0.02435 -3.777293,-0.113637 -5.088021,-0.190748 -1.310728,-0.07711 -2.0517925,-0.142047 -2.5274114,-0.194805 -0.4756189,-0.05276 -0.6857768,-0.09334 -0.8240417,-0.162321 -0.138265,-0.06898 -0.2046381,-0.16639 -0.2378334,-0.21511 -0.033195,-0.04872 -0.033203,-0.04872 -0.033203,-0.069 z"
       id="path10930" />
    <path
       class="st1"
       d="M 21.506264,3.8835942 C 21.284363,3.7109223 20.872529,3.5759038 20.591283,3.5846625 c -3.091695,0 -6.183391,0 -9.275086,0 C 11.03495,3.5759305 10.623242,3.710805 10.401208,3.8835942 8.075501,5.642692 5.7485118,7.3324761 3.4268964,8.8269217 3.2005177,8.9675812 3.2443871,9.1148279 3.5244795,9.1562005 c 8.2740225,0.5988386 16.5850085,0.5988386 24.8588995,0 0.279965,-0.041373 0.323969,-0.1886193 0.09758,-0.3292788 C 26.158962,7.3324761 23.831973,5.642692 21.506264,3.8835942 Z"
       id="path8443"
       style="fill:#c70000;stroke-width:0.12384;fill-opacity:1" />
  </g>
</svg>
