<svg width="32" height="32" xmlns="http://www.w3.org/2000/svg"><path d="M11-.07C9.511-.118 8.565 1.15 7.51 1.99 5.304 3.92 3.072 5.824.883 7.77-.648 9.233.056 12.142 2 13v8a2 2 0 0 0-2 2v7a2 2 0 0 0 2 2h28a2 2 0 0 0 2-2V19.19c-.066-5.61-4.813-10.52-10.21-9.998.254-1.338-.92-1.657-2.002-2.822-.054-1.396.145-2.823-.195-4.19C19.217.878 17.925-.112 16.546.06c-1.026-.112-2.063.372-2.605 1.26-.93-.57-1.754-1.448-2.936-1.39z" fill="#f3f3f3" paint-order="stroke markers fill"/><path d="M2 23h28v7H2z" color="#000" fill="#4bf6e9" style="font-feature-settings:normal;font-variant-alternates:normal;font-variant-caps:normal;font-variant-east-asian:normal;font-variant-ligatures:normal;font-variant-numeric:normal;font-variant-position:normal;font-variation-settings:normal;inline-size:0;isolation:auto;mix-blend-mode:normal;shape-margin:0;shape-padding:0;text-decoration-color:#000;text-decoration-line:none;text-decoration-style:solid;text-indent:0;text-orientation:mixed;text-transform:none;white-space:normal" paint-order="stroke markers fill"/><path d="M11.1 4c-2.179 1.983-5.403 4.388-7.099 6.193v12.81h14v-12.8c-.702-1.301-4.962-4.537-6.901-6.195z" color="#000" fill="#b6b0b0" style="font-feature-settings:normal;font-variant-alternates:normal;font-variant-caps:normal;font-variant-east-asian:normal;font-variant-ligatures:normal;font-variant-numeric:normal;font-variant-position:normal;font-variation-settings:normal;inline-size:0;isolation:auto;mix-blend-mode:normal;shape-margin:0;shape-padding:0;text-decoration-color:#000;text-decoration-line:none;text-decoration-style:solid;text-indent:0;text-orientation:mixed;text-transform:none;white-space:normal" paint-order="stroke markers fill"/><path d="M29.8 27c-2.206-2.075-5.289-3.44-8.354-2.921-2.37.37-4.619 1.297-7.011 1.572-3.667.551-7.555.27-10.9-1.429-.495-.133-1.922-1.335-1.15-.272 1.586 2.727 4.508 4.807 7.739 4.806 2.886.057 5.488-1.37 8.144-2.293 3.117-1.155 6.724-1.709 9.847-.274.546.186 1.608.937 1.75.88L29.8 27z" fill="#0000e0"/><path d="M18.16 30c2.559-.71 5.148-1.801 7.86-1.37 1.41.189 2.763.685 4.023 1.335-1.326-1.897-3.563-3.311-5.924-3.281-2.366.097-4.496 1.528-5.959 3.316z" fill="#0000e0"/><path d="M14.71 22.49c.657-.221 1.223.875.925 1.399-.508.565.609 1.237 1.083.824.509-.255 1.348.36 1.33.87-.24.818 1.025 1.145 1.356.44.364-.329 1.453-.046 1.577.482.08 1.002 1.466.856 1.475-.101.222-.64 1.496-.578 1.765.071.265.335 1.037.163 1.14-.264-.229-.804.356-1.538 1.204-1.458.4.52 1.44.243 1.392-.432-.46-.599-.408-1.272.289-1.678.535-.031 1.498-.067 1.42-.898-.434-.48-1-.834-.614-1.57.023-.71 1.591-.801.747-1.694-.833-.048-.959-1.078-.692-1.678.937-.393.164-1.56-.656-1.253-.53-.21-1.078-1.135-.633-1.702.232-.784-.945-.892-1.46-.517-.679-.236-1.256-.81-1.05-1.587-.6-.487-1.12-.062-1.587.334-.712-.035-1.395-.244-1.505-1.031-.686-.648-1.222.234-1.404.803-.74.324-1.529.124-1.986-.545-.798.063-.857.763-.828 1.4-.536.623-1.38.664-2.046.234-.595.331-.624.974-.193 1.472-.059.625-.772 1.281-1.464 1.084-.836-.039-.656 1.202.029 1.426a1.184 1.184 0 0 1-.857 1.651c-.422.67.316 1.046.802 1.24.297.706.14 1.453-.43 1.884.157.36.424.804.871.794zm4.083.701c-.454.34-.775-.24-1.093-.484-.366-.218-.574-.714-.128-.977.531-.481 1.016-1.022 1.576-1.466.453-.084.686.423 1.01.658.402.231.416.724.007.96l-1.372 1.31zm4.324.989c-.912.223-1.89.28-2.793-.003-.138-.337.377-.538.56-.794.31-.243.533-.64.925-.737.444.14.711.591 1.071.878.14.173.7.497.237.656zm-2.421-5.434c.335-.265.58-.69.998-.807.445.139.712.59 1.072.876.401.37-.155.704-.397.96-.253.364-.748.522-1.024.09-.248-.29-.653-.488-.757-.869l.027-.133zM26 22.405c-.333.261-.57.697-.994.799-.444-.12-.704-.57-1.059-.85-.273-.32-.709-.541-.839-.95.133-.409.568-.633.845-.954.447-.315.75.28 1.064.516.342.35.736.656 1.043 1.036a.38.38 0 0 1-.06.402zm.785-4.66c.439-.267.365.48.44.74.12.62-.035 1.24-.129 1.852-.266.427-.599-.225-.856-.39-.238-.282-.63-.472-.725-.842.144-.422.595-.658.884-.991l.386-.37zm-2.1-2.81c.456-.339.766.252 1.076.502.36.227.559.725.115.987-.513.465-.98.987-1.521 1.414-.453.084-.686-.423-1.01-.658-.402-.231-.417-.724-.007-.959l1.346-1.287zm-4.366-1.074c.939-.229 1.945-.248 2.867.054.139.34-.377.54-.561.798-.31.245-.537.642-.93.742-.444-.14-.712-.59-1.072-.877-.14-.194-.781-.533-.304-.717zm-2.907 1.748c.336-.259.578-.69 1.001-.79.447.12.707.571 1.062.852.292.302.637.56.893.892.086.434-.421.636-.655.932-.294.446-.771.164-1.024-.167-.44-.445-.935-.843-1.34-1.32a.376.376 0 0 1 .063-.4zm-1.286 3.067c.092-.378.075-.793.243-1.144.352-.092.552.373.821.552.262.306.683.517.8.912-.144.422-.595.658-.884.991-.245.163-.568.784-.822.358-.084-.554-.224-1.105-.158-1.67z" color="#000" fill="#501616" style="font-feature-settings:normal;font-variant-alternates:normal;font-variant-caps:normal;font-variant-east-asian:normal;font-variant-ligatures:normal;font-variant-numeric:normal;font-variant-position:normal;font-variation-settings:normal;inline-size:0;isolation:auto;mix-blend-mode:normal;shape-margin:0;shape-padding:0;text-decoration-color:#000;text-decoration-line:none;text-decoration-style:solid;text-indent:0;text-orientation:mixed;text-transform:none;white-space:normal" paint-order="stroke markers fill"/><path d="M11 1.93c-.24 0-.476.09-.667.255L2.43 9.056c-.48.418-.572 1.202-.204 1.748.209.311.526.49.871.49.242 0 .474-.088.667-.256 0 0 4.348-3.817 6.313-5.432l.01-.006c.245-.2.563-.323.912-.323.34 0 .653.116.896.308.007.004.013.007.02.013 1.96 1.61 6.323 5.44 6.323 5.44.193.168.423.256.665.256.345 0 .663-.179.873-.49.367-.546.274-1.33-.206-1.748l-1.786-1.7V3.57c0-.776-.379-1.41-.842-1.41H16.1c-.463 0-.793.636-.841 1.41v1.593l-3.592-2.977a1.02 1.02 0 0 0-.667-.255z" color="#000" fill="#981200" style="font-feature-settings:normal;font-variant-alternates:normal;font-variant-caps:normal;font-variant-east-asian:normal;font-variant-ligatures:normal;font-variant-numeric:normal;font-variant-position:normal;font-variation-settings:normal;inline-size:0;isolation:auto;mix-blend-mode:normal;shape-margin:0;shape-padding:0;text-decoration-color:#000;text-decoration-line:none;text-decoration-style:solid;text-indent:0;text-orientation:mixed;text-transform:none;white-space:normal" paint-order="stroke markers fill"/><path fill="#483825" paint-order="stroke markers fill" d="M6 12h4v3.997H6z"/></svg>