<svg xmlns="http://www.w3.org/2000/svg" xmlns:xlink="http://www.w3.org/1999/xlink" height="32" width="32"><defs><linearGradient id="a"><stop offset="0" stop-color="#d0004b"/><stop offset="1" stop-color="#580020"/></linearGradient><linearGradient xlink:href="#a" id="b" x1="1" y1="7.25" x2="10" y2="7.25" gradientUnits="userSpaceOnUse" gradientTransform="matrix(3 0 0 3.05556 -.5 -1.056)"/></defs><path d="M7.5 12.694c-1.657 0-3 1.368-3 3.056v10.694c0 1.688 1.343 3.056 3 3.056h17c1.657 0 3-1.368 3-3.056V15.75c0-1.688-1.343-3.056-3-3.056z" fill="#f2f2f2" stroke="#f2f2f2" stroke-width="5" stroke-linejoin="round"/><path d="M17.5 12.694V8.417a3.045 3.045 0 0 0 1.29-1.59L28 5.057c.828 0 1.5-.685 1.5-1.528C29.5 2.684 28.828 2 28 2l-9.75 1.864a2.962 2.962 0 0 0-4.234-.271 3.06 3.06 0 0 0-.836 1.249L4 6.583c-.828 0-1.5.684-1.5 1.528S3.172 9.64 4 9.64l9.75-1.864c.214.254.467.471.75.642v4.277z" stroke-width="4" fill="none" stroke="#f2f2f2"/><path d="M12 21v0-6M19 21v-6" fill="none" stroke="#4d4d4d"/><path d="M7.5 12.694c-1.657 0-3 1.368-3 3.056v10.694c0 1.688 1.343 3.056 3 3.056h17c1.657 0 3-1.368 3-3.056V15.75c0-1.688-1.343-3.056-3-3.056zm17.077 8.417H7V15h17.577z" fill="url(#b)" stroke="#000" stroke-linejoin="round"/><path d="M17.5 12.694V8.417a3.045 3.045 0 0 0 1.29-1.59L28 5.057c.828 0 1.5-.685 1.5-1.528C29.5 2.684 28.828 2 28 2l-9.75 1.864a2.962 2.962 0 0 0-4.234-.271 3.06 3.06 0 0 0-.836 1.249L4 6.583c-.828 0-1.5.684-1.5 1.528S3.172 9.64 4 9.64l9.75-1.864c.214.254.467.471.75.642v4.277z"/></svg>