<?xml version="1.0" encoding="UTF-8" standalone="no"?>
<!-- Created with Inkscape (http://www.inkscape.org/) -->

<svg
   width="32.0px"
   height="32.0px"
   viewBox="0 0 32.0 32.0"
   version="1.1"
   id="SVGRoot"
   xmlns="http://www.w3.org/2000/svg"
   xmlns:svg="http://www.w3.org/2000/svg">
  <defs
     id="defs337" />
  <g
     id="layer1">
    <path
       id="airport-8"
       style="fill:#ffffff;fill-opacity:1;stroke:none;stroke-width:0.5;stroke-dasharray:none"
       d="M 15.830172,0.2366322 C 13.911697,0.2614916 12.539795,1.9881756 12.247347,3.7322984 11.82793,5.973802 12.099693,8.2703392 12.021578,10.535863 8.0651434,12.448851 4.1092174,14.36286 0.15243732,16.275158 c 0,1.79273 0,3.585459 0,5.378189 C 4.1085484,21.14487 8.0652114,20.640553 12.021578,20.134008 c 0,0.689561 0,1.379122 0,2.068683 -1.979197,1.331697 -3.9580326,2.663916 -5.9374996,3.995225 0,1.861878 0,3.723755 0,5.585633 3.310918,-0.895446 6.6223826,-1.788934 9.9335936,-2.683332 3.298815,0.820221 6.597359,1.641503 9.896484,2.460521 0,-1.766478 0,-3.532957 0,-5.299436 -1.986173,-1.354089 -3.971304,-2.709655 -5.957031,-4.064374 -0.01497,-0.685719 -0.02995,-1.371438 -0.04492,-2.057158 3.978529,0.503137 7.956752,1.008623 11.935547,1.509735 0,-1.791449 0,-3.582898 0,-5.374347 -3.956782,-1.912295 -7.912705,-3.826309 -11.869141,-5.739295 -0.08186,-2.2875444 0.204127,-4.6096 -0.241027,-6.8704794 -0.340785,-1.8610591 -1.848706,-3.580367 -3.90741,-3.4287514 z" />
    <path
       d="m 30,18.968148 v 1.827108 L 18,18 v 5.622899 l 5.826963,4.120125 v 1.772875 L 15.911887,27.513274 7.9959248,29.688212 V 27.685587 L 14,23.622899 V 18 L 2,20.795256 V 18.850067 L 14,11.184246 V 6.1162121 C 14,4.1710249 14.373162,2.2258375 15.911889,2.2258375 17.450597,2.2258375 18,4.1710249 18,6.1162121 v 4.9499529 z"
       id="airport"
       style="fill:#0000ff;fill-opacity:1;stroke:#1a1a1a;stroke-width:0.5;stroke-dasharray:none" />
  </g>
</svg>
