<svg width="32" height="32" xmlns="http://www.w3.org/2000/svg"><defs><linearGradient id="a" x1="15.94" x2="15.9" y1="27.88" y2="-.126" gradientTransform="matrix(.9928 0 0 .9819 .116 .141)" gradientUnits="userSpaceOnUse"><stop stop-color="#ffa200" offset="0"/><stop stop-color="#fcff2d" offset="1"/></linearGradient></defs><path d="M17.76 10.28c1.535-.545 2.125-2.082 2.125-3.811 0-2.193-1.769-3.971-3.952-3.971s-3.952 1.778-3.952 3.971c0 1.729.527 3.134 2.062 3.679v15.89c-3.171-.617-4.444-2.731-5.685-5.315l1.38-.371c.569-.154.906-.74.754-1.313-1.34-1.968-3.185-3.783-4.794-5.608a1.013 1.013 0 0 0-1.762.51c-.402 2.45-1.295 4.863-1.397 7.34.155.581.425.789 1.003.633l1.69-.24c1.723 4.543 5.467 7.857 10.7 7.824 5.172-.35 8.915-3.165 10.58-7.867l1.65.593c.577.156 1.157-.062 1.31-.642-.233-2.575-.99-5.12-1.547-7.65a1.005 1.005 0 1 0-1.759-.49c-1.564 1.896-3.375 3.811-4.761 5.767a1.08 1.08 0 0 0 .76 1.322l1.283.346c-1.016 2.711-3.534 4.882-5.693 5.225z" clip-rule="evenodd" fill="#f2f2f2" fill-rule="evenodd" stroke="#f2f2f2" stroke-width="5"/><path d="M17.76 10.2c1.537-.54 2.128-2.059 2.128-3.77 0-2.169-1.772-3.928-3.957-3.928-2.186 0-3.957 1.759-3.957 3.928 0 1.71.527 3.1 2.064 3.639v15.72c-3.159-.604-4.445-2.689-5.693-5.257l1.382-.367c.57-.152.907-.733.755-1.298-1.343-1.95-3.19-3.743-4.8-5.547a1.02 1.02 0 0 0-1.764.503c-.403 2.424-1.297 4.809-1.4 7.261.156.574.427.78 1.005.626l1.694-.238c.275.81.921 2.182 1.65 3.266a10.87 10.87 0 0 0 9.065 4.772c4.492 0 7.494-2.658 9-4.902.684-1.017 1.318-2.388 1.597-3.177l1.652.586c.578.154 1.158-.062 1.313-.635-.234-2.548-.993-5.065-1.55-7.566a1.012 1.012 0 1 0-1.761-.485c-1.567 1.875-3.379 3.767-4.769 5.704-.154.57.187 1.155.761 1.308l1.286.342c-1.025 2.698-3.553 4.831-5.701 5.17zm-.51-3.77c0 .723-.59 1.309-1.32 1.309a1.314 1.314 0 0 1-1.318-1.309c0-.723.59-1.309 1.319-1.309s1.319.586 1.319 1.309z" clip-rule="evenodd" fill="url(#a)" fill-rule="evenodd" stroke="#000" stroke-width=".995"/></svg>