<?xml version="1.0" encoding="UTF-8" standalone="no"?>
<!-- Created with Inkscape (http://www.inkscape.org/) -->

<svg
   width="23"
   height="32"
   viewBox="0 0 23 32"
   version="1.1"
   id="SVGRoot"
   xmlns="http://www.w3.org/2000/svg"
   xmlns:svg="http://www.w3.org/2000/svg">
  <defs
     id="defs1025" />
  <path
     id="path3578-9"
     style="fill:#ffffff;fill-opacity:1;stroke:none;stroke-width:0.6;stroke-dasharray:none"
     d="m 11.967021,0.42705003 c -0.497314,-0.005998 -0.995552,-0.00189 -1.492188,0.0117188 C 7.9485471,0.56776819 5.2102571,0.82461439 3.1994431,2.5305657 1.9421651,3.4126838 0.84244109,4.6409615 0.60959909,6.2122063 c -0.382213,2.1686755 -0.142748,4.3892387 -0.212891,6.5800787 0.02789,3.52053 -0.047286,7.045114 0.058594,10.5625 0.99271651,1.711583 2.16304381,1.915265 4.33925851,2.380507 l -2.8700004,4.503096 2.507675,1.315547 1.9691024,-1.944874 c 3.462237,0.01816 7.0368944,0.074 10.4991314,0.09216 l 2.233204,1.949356 1.927674,-1.621533 -2.832022,-4.327316 c 2.655499,-0.33565 3.945099,-0.842419 4.616602,-3.938739 -0.03296,-4.914432 0.04832,-9.831893 -0.07617,-14.7441411 C 22.694633,5.4709071 21.998224,3.9719374 20.744365,3.0325188 19.512775,1.9499087 18.094808,0.98444469 16.420146,0.80986259 14.949635,0.55795199 13.458962,0.44504313 11.967021,0.42705003 Z" />
  <path
     d="M 11.47953,5.0238601 C 9.8029878,4.9911902 6.4801931,4.9532212 3.6267249,5.2871789 2.0881371,5.7818934 2.3389458,7.8025726 2.347484,9.9500981 c -0.035117,0.7996629 -9e-7,12.5072509 0,13.2677109 10e-7,0.76046 0.5050145,1.88602 3.1638074,1.990208 2.6587933,0.104188 9.5947966,0.128919 12.1059496,0 2.511153,-0.12892 3.167892,-1.288597 3.165741,-2.049055 -0.0022,-0.760458 -0.0083,-12.625917 -0.03512,-13.3559782 C 20.720386,7.7904165 20.861024,5.9887662 19.274461,5.3178054 16.26236,4.9454707 13.755725,5.0682151 11.47953,5.0238601 Z"
     id="path3578"
     fill="#ffffff"
     style="fill:#259425;fill-opacity:1;stroke:#000000;stroke-width:0.6;stroke-dasharray:none" />
  <circle
     style="fill:#ffff00;fill-opacity:1;stroke:none;stroke-width:0.364068;stroke-linecap:square;stroke-dasharray:none;stroke-opacity:1;paint-order:markers fill stroke"
     id="path13963-7"
     cx="16.610359"
     cy="21.361826"
     r="1.5" />
  <rect
     style="fill:#d2ffd8;fill-opacity:1;stroke-width:1.3536;stroke-linecap:square;paint-order:markers fill stroke"
     id="rect6231"
     width="11.263033"
     height="1.6078664"
     x="6.0554729"
     y="7.4736934"
     ry="0.37516853" />
  <ellipse
     style="fill:#ffff00;fill-opacity:1;stroke:none;stroke-width:0.364068;stroke-linecap:square;stroke-dasharray:none;stroke-opacity:1;paint-order:markers fill stroke"
     id="path13963"
     cx="6.5808992"
     cy="21.361633"
     rx="1.5"
     ry="1.4998074" />
  <path
     id="path5606"
     style="fill:#333333;stroke:#000000;stroke-width:1.2;stroke-linecap:round;stroke-linejoin:round;stroke-dasharray:none;paint-order:fill markers stroke"
     d="m 15.837122,25.978159 3.222657,4.389028 z M 7.0129034,26.078658 3.6769659,30.53353 Z m 8.9921876,0.299764 -9.1796876,0.03292 z M 5.6261847,28.511424 17.5422,28.566874 Z" />
  <g
     id="layer1" />
  <rect
     style="fill:#e6e6e6;fill-opacity:1;stroke:#4d4d4d;stroke-width:0.6;stroke-dasharray:none;stroke-opacity:1;paint-order:fill markers stroke"
     id="rect1651"
     width="15.100703"
     height="7.3067913"
     x="3.9344268"
     y="10.229507"
     ry="1.2399403" />
  <path
     style="fill:none;stroke:#000000;stroke-width:0.999988;stroke-linecap:round;stroke-linejoin:round;stroke-dasharray:none;paint-order:normal"
     d="M 6.0449336,2.5031471 C 6.0202942,2.0646404 5.9103735,1.6985154 7.0779161,1.3771703 7.8988105,1.1512339 10.058676,1.0208309 11.951831,1.0418115 c 1.97839,-0.0637673 3.271821,0.094965 4.093348,0.3570699 1.071502,0.3418589 0.899296,0.6098742 0.90541,1.0574907"
     id="path7976" />
  <path
     style="fill:#259425;fill-opacity:1;stroke:#000000;stroke-width:0.8;stroke-linecap:round;stroke-linejoin:round;stroke-dasharray:none;stroke-opacity:1;paint-order:normal"
     d="M 9.5,4.848278 8.1059733,1.3246661"
     id="path22781" />
  <path
     style="fill:#259425;fill-opacity:1;stroke:#000000;stroke-width:0.8;stroke-linecap:round;stroke-linejoin:round;stroke-dasharray:none;stroke-opacity:1;paint-order:normal"
     d="M 13.5,4.7687981 15,1.1921995"
     id="path22783" />
</svg>
