<svg xmlns="http://www.w3.org/2000/svg" width="32" height="34"><path fill="#f2f2f2" stroke="#f2f2f2" stroke-width="4" stroke-linecap="round" stroke-linejoin="round" d="M4 2h22v30H4z"/><path d="M5.98 4.793C4.338 5.586 4.515 8 4.525 9.605c-.04 1.395 0 12.907 0 13.692 0 .785.575 1.946 3.6 2.054 3.025.107 10.916.133 13.773 0 2.857-.133 3.604-1.33 3.602-2.115-.003-.785.106-12.69.037-14.236.008-1.453-.17-3.065-1.753-4.175C18 2 12 2 5.98 4.793z" fill="#0093de" stroke="#000"/><ellipse cx="20.753" cy="21.174" rx="1.707" ry="1.548" fill="#fff704" paint-order="markers fill stroke"/><ellipse cx="9.342" cy="21.174" rx="1.707" ry="1.548" fill="#fff704" paint-order="markers fill stroke"/><path d="M19.873 26.145l3.666 4.942zm-10.04.103l-3.795 5.01zm10.23.722l-10.443.034zM8.256 29.172l13.558.057z" fill="#333" stroke="#000" stroke-width="1.5" stroke-linecap="round" stroke-linejoin="round" paint-order="fill markers stroke"/><rect width="16" height="9.529" x="7" y="7" ry="1.625" fill="#ccc" stroke="#252525" paint-order="fill markers stroke"/><path d="M18 17V7" fill="none" stroke="#252525"/></svg>