<svg width="32" height="36" xmlns="http://www.w3.org/2000/svg"><g fill="none" stroke="#f2f2f2" stroke-linejoin="round"><path d="M6.077 2.607c-.925 2.423-1.938 6.72-2.882 8.937.02 2.247-.009 14.43 0 20.86h5.764v-20.86C7.938 9.171 6.92 5.068 6.077 2.607z" stroke-width="5" paint-order="fill markers stroke"/><path d="M15.26 7.38v2.041h-2.076v1.6h2.076v3.215h1.537v-3.215h2.1v-1.6h-2.1V7.38z" stroke-width="4" paint-order="fill markers stroke"/><path d="M9 32.3V19.41l6.973-5.854 7.062 5.89v12.85z" stroke-width="5" paint-order="fill markers stroke"/><path d="M25.92 2.607c-.925 2.423-1.938 6.72-2.882 8.937.02 2.247-.009 14.43 0 20.86h5.764v-20.86c-1.021-2.373-2.039-6.476-2.882-8.937z" stroke-width="5" paint-order="fill markers stroke"/><path stroke-linecap="round" stroke-width="4" d="M2 32h28v2H2z"/></g><path d="M15.26 7.38v2.041h-2.076v1.6h2.076v3.215h1.537v-3.215h2.1v-1.6h-2.1V7.38z" fill="#003e03" paint-order="fill markers stroke"/><g fill="#ecbf00" stroke="#000" stroke-width=".75" paint-order="fill markers stroke"><path d="M9 32.3V19.41l6.973-5.854 7.062 5.89v12.85zM6.084 2.587c-.925 2.425-1.938 6.724-2.882 8.942.02 2.249-.009 14.44 0 20.87h5.764v-20.87c-1.021-2.375-2.039-6.48-2.882-8.942zM25.93 2.588c-.925 2.425-1.938 6.724-2.882 8.942.02 2.249-.009 14.44 0 20.87h5.764V11.53c-1.021-2.375-2.039-6.48-2.882-8.942z"/></g><ellipse cx="16" cy="19.18" rx="2.658" ry="2.565" fill="#ffffe5" stroke="#000" stroke-linejoin="round" stroke-width=".444" paint-order="markers fill stroke"/><g stroke-width=".4" paint-order="fill markers stroke"><path d="M11.71 32.21v-4.421c.023-2.004 2.008-4.336 4.325-4.421 2.408.032 4.227 2.37 4.325 4.421v4.421z" fill="#816363" stroke="#502d16"/><path d="M13.16 32.2v-4.021c.015-1.682 1.337-3.129 2.879-3.2 1.604.027 2.783 1.514 2.848 3.235l.031 3.986z" fill="#c8b7b7" stroke="#502d16"/><path d="M3.039 11.67h5.989M22.89 11.71h5.989" fill="#fff" stroke="#000"/></g><path fill="#271b00" d="M2 32h28v2H2z"/><path d="M25.18 17.97v-3c.004-.91.352-.962.731-1 .395.014.716.07.732 1v3zm-19.87-.003v-3c.004-.91.352-.961.731-1 .395.015.716.07.732 1v3zm19.92 12.05v-3c.004-.91.352-.961.731-1 .395.015.716.07.732 1v3zm-.059-6.045v-3c.004-.91.353-.961.732-1 .394.015.715.07.731 1v3zm-19.87-.002v-3c.004-.91.353-.962.732-1 .394.014.715.07.731 1v3zm-.095 6.125v-3c.004-.91.353-.962.732-1 .394.014.715.07.731 1v3z" paint-order="fill markers stroke"/></svg>