<?xml version="1.0" encoding="UTF-8" standalone="no"?>
<!-- Created with Inkscape (http://www.inkscape.org/) -->

<svg
   width="27"
   height="30"
   viewBox="0 0 27 30"
   version="1.1"
   id="SVGRoot"
   xmlns="http://www.w3.org/2000/svg"
   xmlns:svg="http://www.w3.org/2000/svg">
  <defs
     id="defs248" />
  <g
     id="layer1"
     transform="matrix(0.91591383,0,0,1,-0.89116619,-0.59953162)"
     style="stroke-width:1.0449">
    <path
       id="path570-2"
       style="fill:#ffffff;stroke:none;stroke-width:0.835916;stroke-linecap:round;stroke-linejoin:bevel;stroke-dasharray:none;paint-order:fill markers stroke"
       d="M 11.666725,0.83727385 C 7.9417021,3.4048189 4.8375244,5.7429474 1.5399788,8.109025 c -0.183829,0.4631527 -0.090476,3.237574 -0.00944,3.788634 l 1.0916237,0.0401 c 0.2802004,5.331274 0.065684,13.596663 0.065683,18.346578 5.4459303,-0.01727 18.5353135,0.03034 26.8159675,0.03034 -0.13391,-3.863841 -0.07732,-7.558905 -0.07732,-11.658587 -0.417863,-0.778168 -0.645718,-1.712181 -1.492143,-2.13884 l -5.54323,-4.555736 c 1.316213,-0.076 1.407145,-0.118906 2.460865,-0.08905 L 24.979508,8.0843154 13.992897,0.83335769 c -0.775391,0.001303 -1.550782,0.002607 -2.326172,0.00392 z" />
    <path
       style="fill:#ffffff;stroke:#000000;stroke-width:0.835916;stroke-linecap:round;stroke-linejoin:bevel;stroke-dasharray:none;paint-order:fill markers stroke"
       d="M 4.7679133,28.301618 V 8.3551824 l 7.9454727,-5.249062 7.945473,5.249062 v 5.2490616 l 6.810406,5.249062 v 9.448312 z"
       id="path570" />
    <path
       style="fill:#000000;fill-opacity:1;stroke:#000000;stroke-width:1.10521;stroke-linecap:butt;stroke-linejoin:round;stroke-dasharray:none;stroke-opacity:1;paint-order:markers fill stroke"
       d="m 3.3758608,28.445558 c 8.5499102,0 17.0987052,0 25.6463972,0"
       id="path18442" />
    <path
       style="fill:none;fill-opacity:1;stroke:#000000;stroke-width:1.29209;stroke-linecap:round;stroke-linejoin:round;stroke-dasharray:none;paint-order:markers fill stroke"
       d="M 2.6320396,10.03997 12.872551,2.7053742 23.222584,10.086687"
       id="path2157" />
    <path
       style="fill:#000000;stroke:#5d5d5d;stroke-width:0.78315;stroke-linejoin:round;stroke-dasharray:none;stroke-opacity:1;paint-order:markers fill stroke"
       d="m 20.764978,27.919059 0.0488,-13.703181"
       id="path5403-9-1" />
    <path
       id="path5403-4-4-7"
       style="fill:#ffaaaa;stroke:#ffcab4;stroke-width:1.26992;stroke-linejoin:round;stroke-dasharray:none;stroke-opacity:1;paint-order:markers fill stroke"
       d="M 19.246538,15.749218 6.0088218,15.731906 M 12.609517,26.8172 12.645851,9.5873168" />
    <path
       id="path5403-4-4"
       style="fill:#ff00ff;stroke:#7b0000;stroke-width:1.26493;stroke-linejoin:round;stroke-dasharray:none;stroke-opacity:1;paint-order:markers fill stroke"
       d="M 17.773934,15.751608 7.4810544,15.72953 m 5.1237996,9.240778 0.04565,-13.536123" />
  </g>
</svg>
