<svg width="32" height="34" xmlns="http://www.w3.org/2000/svg"><path d="M4 30v-6.5l5-4V16l-2.623-.091L16 8.3l9.773 7.653L23 16v3.9l4.9 3.7V30z" fill="none" stroke="#f2f2f2" stroke-linejoin="round" stroke-width="4" paint-order="stroke markers fill"/><path d="M15.29 0c-1.287 0-1.97 1.012-2 2.041-1.195.228-2.131 1.033-2.16 2v1.6c.052 1.359 1.028 1.971 2.16 2v1.215a2 2 0 0 0 2 2h1.6a2 2 0 0 0 2-2V7.641c1.113-.083 2.156-1.027 2.186-2v-1.6c-.475-1.278-1.033-1.971-2.186-2C18.774 1 17.891.031 16.89 0z" color="#000" fill="#f2f2f2" style="font-feature-settings:normal;font-variant-alternates:normal;font-variant-caps:normal;font-variant-east-asian:normal;font-variant-ligatures:normal;font-variant-numeric:normal;font-variant-position:normal;font-variation-settings:normal;inline-size:0;isolation:auto;mix-blend-mode:normal;shape-margin:0;shape-padding:0;text-decoration-color:#000;text-decoration-line:none;text-decoration-style:solid;text-indent:0;text-orientation:mixed;text-transform:none;white-space:normal" paint-order="stroke markers fill"/><path d="M2 28a2 2 0 0 0-2 2v2a2 2 0 0 0 2 2h28a2 2 0 0 0 2-2v-2a2 2 0 0 0-2-2z" color="#000" fill="#f3f3f3" style="font-feature-settings:normal;font-variant-alternates:normal;font-variant-caps:normal;font-variant-east-asian:normal;font-variant-ligatures:normal;font-variant-numeric:normal;font-variant-position:normal;font-variation-settings:normal;inline-size:0;isolation:auto;mix-blend-mode:normal;shape-margin:0;shape-padding:0;text-decoration-color:#000;text-decoration-line:none;text-decoration-style:solid;text-indent:0;text-orientation:mixed;text-transform:none;white-space:normal" paint-order="stroke markers fill"/><path d="M4.4 31.24l5.163-.06V19.74l-5.163 4z" fill="#f3f300" stroke="#000" stroke-linejoin="round" paint-order="fill markers stroke"/><path d="M15.29 2.001v2.041h-2.16v1.6h2.16v3.215h1.6V5.642h2.186v-1.6H16.89V2.001z" fill="#130" paint-order="fill markers stroke"/><path d="M28.05 31.24h-5.5L20.998 20l6 4z" fill="#fff" paint-order="fill markers stroke"/><g stroke-linejoin="round"><path d="M27.36 31.24l-5.363-.06V19.74l5.363 4z" fill="#f3f300" stroke="#000" paint-order="fill markers stroke"/><path d="M25.1 15.7l-9.024-6.857-9.35 6.803 2.83.048-.005 15.44h13l.01-15.45z" fill="#ffd500" stroke="#060606" stroke-linecap="round" stroke-width="1.25" paint-order="markers fill stroke"/><g paint-order="markers fill stroke"><path d="M13.55 30.69c0-1.776 0-3.554.227-4.684.228-1.13.882-1.611 1.418-1.877a2.168 2.168 0 0 1 1.795-.066c.642.25 1.107.797 1.44 1.95.331 1.153.331 2.912.331 4.67" fill="#67564a" stroke="#520" stroke-width=".709"/><path d="M2 31h28" stroke="#000" stroke-width="2"/><circle cx="16.1" cy="17.97" r="2.625" fill="#fff" stroke="#000" stroke-width=".75"/></g></g></svg>