<svg width="32" height="28" xmlns="http://www.w3.org/2000/svg"><path d="M4 23.95v-8.802l5-2.327v-4.35l7-6.475 7 6.475v4.35l5 2.327v8.802z" fill="none" stroke="#f2f2f2" stroke-linejoin="round" stroke-width="4" paint-order="stroke markers fill"/><path d="M2 21.93a2 2.024 0 0 0-2 2.023v2.023a2 2.024 0 0 0 2 2.023h28a2 2.024 0 0 0 2-2.023v-2.023a2 2.024 0 0 0-2-2.023z" color="#000" fill="#f3f3f3" style="font-feature-settings:normal;font-variant-alternates:normal;font-variant-caps:normal;font-variant-east-asian:normal;font-variant-ligatures:normal;font-variant-numeric:normal;font-variant-position:normal;font-variation-settings:normal;inline-size:0;isolation:auto;mix-blend-mode:normal;shape-margin:0;shape-padding:0;text-decoration-color:#000;text-decoration-line:none;text-decoration-style:solid;text-indent:0;text-orientation:mixed;text-transform:none;white-space:normal" paint-order="stroke markers fill"/><path d="M4 25.21l5.563-.06V13.58L4 15.601z" fill="#c6c09f" paint-order="fill markers stroke"/><path d="M4.553 25.71V15.59" fill="#520" stroke="#000" paint-order="fill markers stroke"/><path d="M28.05 25.21h-5.5l-1.552-11.37 6 4.047z" fill="#fff" paint-order="fill markers stroke"/><path d="M27.56 25.21l-5.563-.06V13.58l5.563 2.022z" fill="#c6c09f" paint-order="fill markers stroke"/><path d="M27.36 25.41V15.29" fill="#520" stroke="#222" paint-order="fill markers stroke"/><rect x="9.552" y="8.677" width="13" height="16.43" ry="0" fill="#e3e0cf" stroke="#000" stroke-linecap="square" stroke-linejoin="round" stroke-width="1.024" paint-order="markers fill stroke"/><path d="M9.552 8.677l6.525-6.127 6.475 6.127" fill="#757357" stroke="#222" stroke-linecap="round" stroke-linejoin="round" stroke-width="1.114" paint-order="markers fill stroke"/><g stroke-linejoin="round" paint-order="markers fill stroke"><path d="M4.6 15.64l4.826-2.209" fill="#e3dbdb" stroke="#000" stroke-linecap="round" stroke-width="1.111"/><path d="M2 24.96h28" stroke="#000" stroke-width="2"/><path d="M22.63 13.35l4.673 2.323" fill="#e3dbdb" stroke="#222" stroke-linecap="round" stroke-width="1.117"/></g><path fill="#43412f" d="M14 10.8h4v4.047h-4zM14 18.36h4v5.597h-4z"/></svg>