<svg width="32" height="38" viewBox="0 0 8.467 10.05" xmlns="http://www.w3.org/2000/svg"><defs><radialGradient id="b" cx="15" cy="21.5" r="5" gradientTransform="matrix(.2646 0 0 1.569 .28 -27.86)" gradientUnits="userSpaceOnUse"><stop stop-color="#4f4e38" offset="0"/><stop stop-color="#aeac8d" offset="1"/></radialGradient><radialGradient id="a" cx="15" cy="6.246" r="5" gradientTransform="matrix(.2646 0 0 .6834 .28 -.943)" gradientUnits="userSpaceOnUse"><stop stop-color="#4f4e38" offset="0"/><stop stop-color="#deda9e" offset="1"/></radialGradient><radialGradient id="c" cx="15" cy="26.5" r="12" gradientTransform="matrix(-.2126 0 0 -.3734 7.439 16.76)" gradientUnits="userSpaceOnUse"><stop stop-color="#5d2a53" offset="0"/><stop stop-color="#a06189" offset="1"/></radialGradient></defs><g color="#000"><path d="M4.212 0c-.377-.012-.63.31-.75.64-.401.856-.812 1.76-1.206 2.619-.058.425-.014.861-.028 1.292-.009.235.018.479-.013.71-.191.056-.413.008-.616.024-.393.003-.895-.067-1.114.355-.145.342-.06.727-.083 1.09-.018.451.428.668.732.894.332.239.748.351 1.092.535.018.412-.027.91.025 1.319.12.44.6.615 1.009.57h2.268c.315-.031.769-.225.713-.619.01-.404-.018-.895.014-1.294.6-.222 1.213-.503 1.665-.981.225-.35.126-.777.148-1.17.024-.462-.441-.76-.855-.699-.315-.008-.638.018-.948-.013-.054-.196-.008-.423-.023-.63-.003-.428.002-.858.003-1.283-.202-.527-.476-1.027-.707-1.543-.245-.494-.454-1.062-.722-1.542a.713.713 0 0 0-.603-.272z" fill="#f2f2f2" style="font-feature-settings:normal;font-variant-alternates:normal;font-variant-caps:normal;font-variant-east-asian:normal;font-variant-ligatures:normal;font-variant-numeric:normal;font-variant-position:normal;font-variation-settings:normal;inline-size:0;isolation:auto;mix-blend-mode:normal;shape-margin:0;shape-padding:0;text-decoration-color:#000;text-decoration-line:none;text-decoration-style:solid;text-indent:0;text-orientation:mixed;text-transform:none;white-space:normal" paint-order="stroke markers fill"/><path d="M2.926 3.501h2.646L4.249.656z" fill="url(#a)" stroke="#000" stroke-linejoin="round" stroke-width=".265" style="font-feature-settings:normal;font-variant-alternates:normal;font-variant-caps:normal;font-variant-east-asian:normal;font-variant-ligatures:normal;font-variant-numeric:normal;font-variant-position:normal;font-variation-settings:normal;inline-size:0;isolation:auto;mix-blend-mode:normal;shape-margin:0;shape-padding:0;text-decoration-color:#000;text-decoration-line:none;text-decoration-style:solid;text-indent:0;text-orientation:mixed;text-transform:none;white-space:normal"/><path d="M2.926 9.509V3.501h2.646v6.008" fill="url(#b)" stroke="#000" stroke-linejoin="round" stroke-width=".265" style="font-feature-settings:normal;font-variant-alternates:normal;font-variant-caps:normal;font-variant-east-asian:normal;font-variant-ligatures:normal;font-variant-numeric:normal;font-variant-position:normal;font-variation-settings:normal;inline-size:0;isolation:auto;mix-blend-mode:normal;shape-margin:0;shape-padding:0;text-decoration-color:#000;text-decoration-line:none;text-decoration-style:solid;text-indent:0;text-orientation:mixed;text-transform:none;white-space:normal"/></g><path d="M4.249 5.886V4.758l.53-.498.528.498v1.128z"/><path d="M1.074 5.991v.748c1.016.753 2.12 1.002 3.253.996 1.201-.093 2.372-.325 3.097-1.05V5.99z" color="#000" fill="url(#c)" stroke="#000" stroke-linejoin="round" stroke-width=".265" style="font-feature-settings:normal;font-variant-alternates:normal;font-variant-caps:normal;font-variant-east-asian:normal;font-variant-ligatures:normal;font-variant-numeric:normal;font-variant-position:normal;font-variation-settings:normal;inline-size:0;isolation:auto;mix-blend-mode:normal;shape-margin:0;shape-padding:0;text-decoration-color:#000;text-decoration-line:none;text-decoration-style:solid;text-indent:0;text-orientation:mixed;text-transform:none;white-space:normal"/><path fill="#ffd34e" stroke="#000" stroke-linecap="round" stroke-width=".131" d="M2.646 3.424h3.207v.662H2.646z"/></svg>