<svg xmlns="http://www.w3.org/2000/svg" width="32" height="32"><path d="M7.922 15.266l6.096-.025.087 13.546-9.7-.113.089-9.589C4.53 17.2 6 15.273 7.922 15.265z" fill="none" stroke="#f2f2f2" stroke-width="5" stroke-linecap="square" paint-order="fill markers stroke"/><path d="M18.455 9.897c1.252-.089 2.229-.107 3.489-.007 2.908.234 5.352 2.083 5.374 5.015l.105 13.671-14.404.051.04-13.757c.008-2.992 2.591-4.77 5.396-4.973z" fill="none" stroke="#f2f2f2" stroke-width="5" stroke-linecap="square" paint-order="fill markers stroke"/><path d="M20.054 2.95v5.963" fill="none" stroke="#f2f2f2" stroke-width="6" stroke-linecap="round" paint-order="fill markers stroke"/><path d="M22.056 4.938l-4.017.008" fill="none" stroke="#f2f2f2" stroke-width="6" stroke-linecap="round" paint-order="fill markers stroke" stroke-linejoin="round"/><path fill="none" stroke="#f2f2f2" stroke-width="4" stroke-linecap="round" stroke-linejoin="round" d="M2 28h28v2H2z"/><path d="M7.922 15.266l6.096-.025.087 13.546-9.7-.113.089-9.589C4.53 17.2 6 15.273 7.922 15.265z" fill="#cdcdcd" stroke="#003000" stroke-width="1.2" stroke-linecap="square" paint-order="fill markers stroke"/><path d="M20.054 2.95v5.963" fill="#0f0" stroke="#003000" stroke-width="2" stroke-linecap="square" paint-order="fill markers stroke"/><path d="M18.455 9.897c1.252-.089 2.229-.107 3.489-.007 2.908.234 5.352 2.083 5.374 5.015l.105 13.671-14.404.051.04-13.757c.008-2.992 2.591-4.77 5.396-4.973z" fill="#e5e5e5" stroke="#003000" stroke-width="1.2" stroke-linecap="square" paint-order="fill markers stroke"/><path fill="#00ca00" stroke="#003000" stroke-linecap="square" paint-order="fill markers stroke" d="M17.496 20.53H23v8.67h-5.504z"/><path d="M22.056 4.938l-4.017.008" fill="#0f0" stroke="#003000" stroke-width="2" stroke-linecap="square" paint-order="fill markers stroke"/><circle cx="20.226" cy="14.58" r="2" fill="#00ca00" stroke="#003000" stroke-linecap="round" paint-order="fill markers stroke"/><path fill="#003000" paint-order="fill markers stroke" d="M7 20h4v4H7z"/><path fill="#271b00" d="M2 28h28v2H2z"/></svg>