<svg width="32" height="36" xmlns="http://www.w3.org/2000/svg"><defs><radialGradient id="a" cx="23" cy="17.43" r="9.83" gradientTransform="matrix(1 0 0 1.607 -3 -8.802)" gradientUnits="userSpaceOnUse"><stop stop-color="#02ff6c" offset="0"/><stop stop-color="#008a3a" offset="1"/></radialGradient></defs><path d="M6.016-.146c-1.11-.06-2.003.972-2.062 1.987C2.609 3.583.936 5.436 1.178 7.815c-1.147 1.264-1.695 3.54-.177 4.856.25 1.306-1.574 2.01-.93 3.463.317 1.02 1.22 1.675.93 2.828v11.31c-1.15.597-1.024 1.99-1 3.082-.173 1.112.394 2.402 1.597 2.607 3.444.095 6.9.013 10.35.04 6.096-.009 12.2.02 18.29-.014 1.243-.107 1.951-1.413 1.762-2.565.006-1.09.185-2.477-.938-3.115-.754-.22-1.207-.38-.99-1.269v-4.995c2.184-2.214 2.354-6.06.232-8.38-1.476-1.758-3.564-2.809-5.536-3.903 1.252-1.312 2.124-3.19 1.92-5.023-.275-1.283-1.64-1.953-2.834-1.74l-.09-.274C25.17 3.507 24.62.881 22.73.53c-2.52-1.223-5.75-.648-7.605 1.477-2.497 2.635-2.495 7.202.14 9.745-1.351.438-2.864 2.14-4.004 2.008-.963-1.017.652-1.894.721-2.955.252-1.787-1.689-2.611-1.267-4.401-.314-1.817-1.652-3.179-2.72-4.576C8.001.77 7.074-.154 6.015-.145z" color="#000" fill="#f2f2f2" style="font-feature-settings:normal;font-variant-alternates:normal;font-variant-caps:normal;font-variant-east-asian:normal;font-variant-ligatures:normal;font-variant-numeric:normal;font-variant-position:normal;font-variation-settings:normal;inline-size:0;isolation:auto;mix-blend-mode:normal;shape-margin:0;shape-padding:0;text-decoration-color:#000;text-decoration-line:none;text-decoration-style:solid;text-indent:0;text-orientation:mixed;text-transform:none;white-space:normal"/><path d="M6 33V10" fill="none" stroke="#674700" stroke-width="6"/><path fill="#ffd983" stroke="#000" stroke-linecap="round" stroke-linejoin="round" stroke-width=".5" d="M12 23h16.07v10H12z"/><path d="M20 9.926c0 3.405-9.837 4.585-9.837 9.694 0 1.702 1.085 3.483 2.177 3.483h15.29c1.093 0 2.192-1.78 2.192-3.483 0-5.11-9.823-6.32-9.823-9.694z" fill="url(#a)" stroke="#000" stroke-width=".5"/><path d="M22.41 28c0-1.714-1.451-2.857-2.296-2.857S17.818 26.286 17.818 28v4h4.592zm-6.122 1.333c0-1.143-.967-1.905-1.531-1.905-.563 0-1.531.762-1.531 1.905V32h3.061zm10.71 0c0-1.143-.967-1.905-1.531-1.905-.563 0-1.531.762-1.531 1.905V32h3.061z" fill="#662113"/><path d="M5.995 1.826c0 1.837-2.832 2.918-2.832 5.675 0 .919.312 2 .627 2h4.402c.314 0 .631-1.081.631-2 0-2.757-2.828-3.838-2.828-5.675z" fill="#271b00"/><path d="M10 15.5a1 1 0 0 1-1 1H3a1 1 0 0 1 0-2h6a1 1 0 0 1 1 1zm0-5a1 1 0 0 1-1 1H3a1 1 0 0 1 0-2h6a1 1 0 0 1 1 1z" fill="#ffac33"/><path fill="#271b00" d="M2 32h28v2H2z"/><path d="M19.78 1.876c-1.868.06-3.565 1.389-4.188 3.133-.774 1.967-.174 4.392 1.482 5.723 1.363 1.168 3.432 1.405 5.017.556 1.538-.766 2.553-2.407 2.644-4.11-.053-.232-.344-.164-.519-.218-.37.05-.222.608-.43.847-.537 1.26-1.9 2.16-3.285 1.992-1.42-.145-2.622-1.322-2.87-2.717-.318-1.584.568-3.38 2.13-3.919.796-.293 1.696-.224 2.459.129.34-.064.501-.733.077-.822-.792-.47-1.698-.552-2.517-.595z" fill="#d80000"/></svg>