<?xml version="1.0" encoding="UTF-8" standalone="no"?>
<!-- Created with Inkscape (http://www.inkscape.org/) -->

<svg
   width="32.0px"
   height="32.0px"
   viewBox="0 0 32.0 32.0"
   version="1.1"
   id="SVGRoot"
   xmlns="http://www.w3.org/2000/svg"
   xmlns:svg="http://www.w3.org/2000/svg">
  <defs
     id="defs16829" />
  <g
     id="layer1">
    <path
       id="path19659-9"
       style="fill:#ffffff;stroke:none;stroke-width:0.5;stroke-linecap:round;stroke-linejoin:round;stroke-dasharray:none;paint-order:fill markers stroke"
       d="m 14.187036,1.5684067 c -1.000502,3.5072762 -2.000229,7.0147911 -3.000433,10.5221593 0.127879,0.675512 0.0502,1.472435 0.417782,2.032555 -2.7270649,1.91664 -4.0508471,5.437561 -3.9195551,8.772001 0.2602277,0.875847 -0.7092568,0.317965 -1.128094,0.744597 -0.547469,0.257719 -1.2082566,0.406012 -1.2621482,1.140363 -0.046631,0.719009 -0.6738666,0.87735 -1.2134987,1.120286 -0.724006,0.131123 -0.6850336,0.999027 -0.9709722,1.553179 0.058346,0.992273 -0.207914,2.057276 0.3621819,2.93489 0.1086197,0.721854 0.7211281,0.88568 1.3059786,1.080135 0.9303156,0.246349 1.9401773,0.03842 2.9016151,0.107037 6.4494136,0 12.8988286,0 19.3482436,0 0.480482,-0.322408 1.233509,-0.381626 1.534225,-0.877628 0.325901,-0.711035 0.501297,-1.450256 0.410361,-2.23935 C 29.10781,27.624113 28.76117,26.897528 28.409328,26.172109 28.157837,25.516121 27.011211,25.851448 26.867166,25.076467 26.582548,24.549522 26.522936,23.773395 25.815252,23.71497 25.429649,23.300251 24.494545,23.6494 24.373571,23.230556 24.485408,19.918661 23.351185,16.426916 20.816654,14.288491 20.097243,14.04091 20.706176,13.425539 20.650395,12.85317 20.928899,11.80387 20.30537,10.812612 20.127114,9.7927041 19.389041,7.0728737 18.650965,4.3530432 17.912892,1.633213 17.482741,1.2508423 17.225978,0.49109555 16.6816,0.35733654 16.091791,0.45168849 15.291027,0.04398036 14.939857,0.70628419 14.688918,0.99365838 14.437976,1.2810325 14.187036,1.5684067 Z" />
    <path
       style="fill:none;stroke:#000000;stroke-width:0.7;stroke-linecap:round;stroke-linejoin:round;stroke-dasharray:none;paint-order:fill markers stroke"
       d="m 9.5772182,24.886099 c -0.099836,-1.59262 -0.1997577,-3.186617 0.017669,-4.567355 0.2174264,-1.380737 0.7521662,-2.546573 1.4629332,-3.515865 0.710767,-0.969293 1.596919,-1.740778 2.894595,-2.152255 1.297676,-0.411478 3.005528,-0.462911 4.278487,-0.07647 1.272959,0.386444 2.110791,1.209377 2.792486,2.198711 0.681694,0.989333 1.207424,2.143839 1.440815,3.532756 0.233392,1.388917 0.174565,3.011044 0.115784,4.631909"
       id="path19659" />
    <path
       style="fill:none;stroke:#000000;stroke-width:0.7;stroke-linecap:round;stroke-linejoin:round;stroke-dasharray:none;paint-order:fill markers stroke"
       d="M 14.448624,14.435534 13.023566,12.056786 16.097337,1.6305521 19.023566,12.056786 17.558695,14.333129"
       id="path22571" />
    <rect
       style="fill:#ffffff;stroke:#000000;stroke-width:0.7;stroke-linecap:round;stroke-linejoin:round;stroke-dasharray:none;paint-order:fill markers stroke"
       id="rect26279"
       width="18.6"
       height="2.3"
       x="6.8499999"
       y="25.256786" />
    <rect
       style="fill:#ffffff;stroke:#000000;stroke-width:0.7;stroke-linecap:round;stroke-linejoin:round;stroke-dasharray:none;paint-order:fill markers stroke"
       id="rect26279-2"
       width="22.6"
       height="2.1000001"
       x="4.8499999"
       y="27.549999" />
  </g>
</svg>
