<svg width="32" height="32" xmlns="http://www.w3.org/2000/svg"><path d="M4 12.83l12.06-9.114L28 12.83M7.13 29.05l16.24-18.22m-14.78.061l15.96 18.17" fill="none" stroke="#f2f2f2" stroke-linecap="round" stroke-width="6" paint-order="fill markers stroke"/><g color="#000" paint-order="stroke markers fill"><path d="M12.14 9.871c-2.399.937-3.846 3.532-3.958 6.03.101.961.361 1.9-.527 2.594-.808 1.214-1.54 2.729-1.048 4.21.251.857.987 1.548 1.87 1.715-.17 1.866 1.455 3.446 3.224 3.699 1.455.215 2.937.106 4.403.14 1.719-.088 3.65-.163 5.02-1.34.673-.558.668-1.469 1.632-1.515 1.096-.55 1.676-1.828 1.43-3.02-.053-.755-.91-1.502.208-1.76 1.26-.93 1.119-3.023-.14-3.896-.42-.284-1.485-1.189-1.475-2.352-.388-2.307-2.295-4.278-4.566-4.798-2.027-.176-4.305-.18-6.073.294z" fill="#f2f2f2" style="font-feature-settings:normal;font-variant-alternates:normal;font-variant-caps:normal;font-variant-east-asian:normal;font-variant-ligatures:normal;font-variant-numeric:normal;font-variant-position:normal;font-variation-settings:normal;inline-size:0;isolation:auto;mix-blend-mode:normal;shape-margin:0;shape-padding:0;text-decoration-color:#000;text-decoration-line:none;text-decoration-style:solid;text-indent:0;text-orientation:mixed;text-transform:none;white-space:normal"/><path d="M9.227 22.5c-.97.167-.858-1.141-.569-1.734.362-1.15 1.508-1.854 1.735-3.058.064-.926-.351-1.85-.07-2.772.32-1.467 1.611-3.162 3.031-3.31 2.314-.19 5.007-.571 6.597 1.284.757.786.854 1.927 1.04 2.961.163 1.107 1.124 1.738 1.911 2.356.803.42.172 1.362-.557 1.068-.706-.01-1.697-.759-2.21.02-.17.824.73 1.207 1.168 1.718.532.582 1.054 1.4.877 2.24-.471.955-1.511.006-2.058-.376-.331-.413-1.461-.83-1.152.117.221.762 1.109 1.24 1.061 2.087-.312.647-1.105.765-1.717.933-1.709.334-3.458.18-5.185.209-.908-.035-2.056-.096-2.539-1.044-.451-.926.231-1.848.708-2.59.481-.375.399-1.73-.367-1.092-.554.301-1.074.953-1.706.982z" fill="#f7b300" style="font-feature-settings:normal;font-variant-alternates:normal;font-variant-caps:normal;font-variant-east-asian:normal;font-variant-ligatures:normal;font-variant-numeric:normal;font-variant-position:normal;font-variation-settings:normal;inline-size:0;isolation:auto;mix-blend-mode:normal;shape-margin:0;shape-padding:0;text-decoration-color:#000;text-decoration-line:none;text-decoration-style:solid;text-indent:0;text-orientation:mixed;text-transform:none;white-space:normal"/></g><path d="M22.39 9.697L9.74 9.69l6.337-4.884z" fill="#9b4949" paint-order="fill markers stroke"/><path d="M4 12.83l12.06-9.114L28 12.83M7.13 29.05l16.24-18.22m-14.78.061l15.96 18.17" fill="none" stroke="#441b00" stroke-linecap="round" stroke-width="2" paint-order="fill markers stroke"/></svg>