<svg width="32" height="32" xmlns="http://www.w3.org/2000/svg"><path d="M7.047 0a2.001 2.001 0 0 0-2.016 1.65l-.348 1.953a2 2 0 0 0 1.58 2.311l.723.144-.018 1.145a2 2 0 0 0 1.996 2.031l2.266.002a2 2 0 0 0 1.996-1.854l5.678 1.234-.033 3.365-5.605-.017c-.265-.965-1.016-2.112-1.963-2.143l-2.266-.006a2 2 0 0 0-2.004 1.988l-.047 7.816-2.904 9.793a2 2 0 0 0 1.924 2.568l2.162-.006a1.999 1.999 0 0 0 1.9-1.39l2.77-8.653 1.162.002v8.064a2 2 0 0 0 2 2h4c1 0 1.97-1.015 2-2.066.257 1.248 1 2.066 2.115 2.062l2.004.004a2 2 0 0 0 1.928-2.547l-2.94-10.33.054-9.186a2 2 0 0 0 2.281-1.541l.46-2.092A2 2 0 0 0 26.35 3.91C19.91 2.726 13 1 7.05 0z" color="#000" fill="#f2f2f2" style="font-feature-settings:normal;font-variant-alternates:normal;font-variant-caps:normal;font-variant-east-asian:normal;font-variant-ligatures:normal;font-variant-numeric:normal;font-variant-position:normal;font-variation-settings:normal;inline-size:0;isolation:auto;mix-blend-mode:normal;shape-margin:0;shape-padding:0;text-decoration-color:#000;text-decoration-line:none;text-decoration-style:solid;text-indent:0;text-orientation:mixed;text-transform:none;white-space:normal" paint-order="stroke markers fill"/><path d="M7 2l-.347 1.953 2.358.469-.042 2.812 2.264.003.037-2.326 9.642 2.094-.049 10.98-9.614-.027.05-6.138-2.265-.006-.048 8.103L6 29.977l2.163-.006 3.215-10.05 9.527.021 3.214 10.04 2.004.005-3.02-10.61.07-11.9 2.316.465.46-2.092z" color="#000" style="font-feature-settings:normal;font-variant-alternates:normal;font-variant-caps:normal;font-variant-east-asian:normal;font-variant-ligatures:normal;font-variant-numeric:normal;font-variant-position:normal;font-variation-settings:normal;inline-size:0;isolation:auto;mix-blend-mode:normal;shape-margin:0;shape-padding:0;text-decoration-color:#000;text-decoration-line:none;text-decoration-style:solid;text-indent:0;text-orientation:mixed;text-transform:none;white-space:normal" paint-order="stroke markers fill"/><path fill="#4c4c4c" paint-order="markers fill stroke" d="M11.003 17.999l9.9.07.008-4.049-9.9-.07z"/><path d="M16 18h4v12h-4z" color="#000" fill="#a8a8a8" style="font-feature-settings:normal;font-variant-alternates:normal;font-variant-caps:normal;font-variant-east-asian:normal;font-variant-ligatures:normal;font-variant-numeric:normal;font-variant-position:normal;font-variation-settings:normal;inline-size:0;isolation:auto;mix-blend-mode:normal;shape-margin:0;shape-padding:0;text-decoration-color:#000;text-decoration-line:none;text-decoration-style:solid;text-indent:0;text-orientation:mixed;text-transform:none;white-space:normal" paint-order="stroke markers fill"/><g fill="#4c4c4c" stroke="#000" stroke-width="2"><path d="M16 21h4M16 25h4M16 29h4"/></g></svg>