<svg width="32" height="34" fill="none" xmlns="http://www.w3.org/2000/svg"><g color="#000" paint-order="stroke markers fill"><path d="M22 0c-1.618 0-2.379.3-2.998 2.018C19-.371 14.105-.887 12.746 1.305c-.787 1.093-.897 2.604-.256 3.792-2.63.632-4.172 3.663-3.429 6.208.102 1.486 1.478 2.488 2.046 3.577L11 17c-1 0-2 1-2.107 3.287L9 26c-1.198.09-1.664-.344-2.543.728-.417.897-.514 1.424-1.575 1.613-1.22.796-.81 2.35-.882 3.572C3.902 33.25 5.25 34.21 6.5 34c6.567-.006 13.14.014 19.71-.01 1.271-.087 1.972-1.408 1.795-2.572-.012-1.074.199-2.412-.881-3.076-1.52-.034-1.05-1.907-2.523-2.252-.85-.172-.731-.056-1.595-.09-.011-1.753.039-4.248 0-6 0-2-1-3-2-3l.029-5.945c1.098-1.379 2.172-2.787 3.319-4.116.732-1.517.605-3.107.442-4.662-.648-1.51-1.18-2.278-2.79-2.278z" fill="#f3f3f3" style="font-feature-settings:normal;font-variant-alternates:normal;font-variant-caps:normal;font-variant-east-asian:normal;font-variant-ligatures:normal;font-variant-numeric:normal;font-variant-position:normal;font-variation-settings:normal;inline-size:0;isolation:auto;mix-blend-mode:normal;shape-margin:0;shape-padding:0;text-decoration-color:#000;text-decoration-line:none;text-decoration-style:solid;text-indent:0;text-orientation:mixed;text-transform:none;white-space:normal"/><path d="M15.86 5.73c-1.216.066-2.205-1.404-1.669-2.584.477-1.274 2.271-1.533 3.067-.46.838.951.317 2.654-.86 2.96a1.768 1.768 0 0 1-.538.084zm2.431 1.567l2.708-2.449c.007-1.412-.04-.708 0-2.118.226-1.086 1.995-.852 1.857.284 0 1.503.048.889.016 2.39-.096.655-.633 1.075-.967 1.602l-2.875 3.85V20h-1.974v-4.644h-1.974V20h-1.974v-6.05c-1.202-.254-1.946-1.561-2.146-2.766-.275-1.281.148-2.724 1.205-3.466.465-.427 1.078-.455 1.659-.425 1.685.008 2.935.038 4.466.003z" fill="#10117a" style="font-feature-settings:normal;font-variant-alternates:normal;font-variant-caps:normal;font-variant-east-asian:normal;font-variant-ligatures:normal;font-variant-numeric:normal;font-variant-position:normal;font-variation-settings:normal;inline-size:0;isolation:auto;mix-blend-mode:normal;shape-margin:0;shape-padding:0;text-decoration-color:#000;text-decoration-line:none;text-decoration-style:solid;text-indent:0;text-orientation:mixed;text-transform:none;white-space:normal"/><path d="M6 30h20v2H6z" fill="#000" style="font-feature-settings:normal;font-variant-alternates:normal;font-variant-caps:normal;font-variant-east-asian:normal;font-variant-ligatures:normal;font-variant-numeric:normal;font-variant-position:normal;font-variation-settings:normal;inline-size:0;isolation:auto;mix-blend-mode:normal;shape-margin:0;shape-padding:0;text-decoration-color:#000;text-decoration-line:none;text-decoration-style:solid;text-indent:0;text-orientation:mixed;text-transform:none;white-space:normal"/><path d="M8 28h16v2H8z" fill="#8e8e8e" style="font-feature-settings:normal;font-variant-alternates:normal;font-variant-caps:normal;font-variant-east-asian:normal;font-variant-ligatures:normal;font-variant-numeric:normal;font-variant-position:normal;font-variation-settings:normal;inline-size:0;isolation:auto;mix-blend-mode:normal;shape-margin:0;shape-padding:0;text-decoration-color:#000;text-decoration-line:none;text-decoration-style:solid;text-indent:0;text-orientation:mixed;text-transform:none;white-space:normal"/><path d="M11 20h10v8H11z" fill="#887b2f" style="font-feature-settings:normal;font-variant-alternates:normal;font-variant-caps:normal;font-variant-east-asian:normal;font-variant-ligatures:normal;font-variant-numeric:normal;font-variant-position:normal;font-variation-settings:normal;inline-size:0;isolation:auto;mix-blend-mode:normal;shape-margin:0;shape-padding:0;text-decoration-color:#000;text-decoration-line:none;text-decoration-style:solid;text-indent:0;text-orientation:mixed;text-transform:none;white-space:normal"/></g></svg>