<svg width="32" height="32" xmlns="http://www.w3.org/2000/svg"><g color="#000" paint-order="stroke markers fill"><path d="M16 0C7.187 0 0 7.187 0 16c0 8.813 7.187 16 16 16 8.813 0 16-7.187 16-16 0-8.813-7.187-16-16-16z" fill="#f2f2f2" style="font-feature-settings:normal;font-variant-alternates:normal;font-variant-caps:normal;font-variant-east-asian:normal;font-variant-ligatures:normal;font-variant-numeric:normal;font-variant-position:normal;font-variation-settings:normal;inline-size:0;isolation:auto;mix-blend-mode:normal;shape-margin:0;shape-padding:0;text-decoration-color:#000;text-decoration-line:none;text-decoration-style:solid;text-indent:0;text-orientation:mixed;text-transform:none;white-space:normal"/><path d="M16 2c7.731 0 14 6.268 14 14s-6.268 14-14 14S2 23.732 2 16C2 8.269 8.268 2 16 2z" fill="#ab0f0f" style="font-feature-settings:normal;font-variant-alternates:normal;font-variant-caps:normal;font-variant-east-asian:normal;font-variant-ligatures:normal;font-variant-numeric:normal;font-variant-position:normal;font-variation-settings:normal;inline-size:0;isolation:auto;mix-blend-mode:normal;shape-margin:0;shape-padding:0;text-decoration-color:#000;text-decoration-line:none;text-decoration-style:solid;text-indent:0;text-orientation:mixed;text-transform:none;white-space:normal"/></g><g fill="#bcdcdc"><path d="M16.028 11.057a4.962 4.962 0 1 1 0 9.924 4.962 4.962 0 0 1 0-9.924zM8.606 23.44a2.335 2.335 0 0 0-3.302 0l-.678.677a14.048 14.048 0 0 0 3.3 3.302l.68-.68c.91-.91.91-2.387 0-3.3zm-3.077-7.428a2.335 2.335 0 0 0-2.334-2.334h-.957c-.129.761-.21 1.537-.21 2.334s.081 1.573.21 2.334h.957a2.335 2.335 0 0 0 2.334-2.334zm21.227 7.427a2.335 2.335 0 0 0-3.301 3.3l.679.68a14.048 14.048 0 0 0 3.3-3.302zm-.224-7.427a2.335 2.335 0 0 0 2.334 2.334h.957c.128-.76.21-1.537.21-2.334s-.082-1.573-.21-2.334h-.957a2.335 2.335 0 0 0-2.334 2.334zM16.03 5.51a2.335 2.335 0 0 0 2.334-2.334v-.957c-.76-.128-1.537-.21-2.334-.21s-1.574.082-2.334.21v.957A2.335 2.335 0 0 0 16.03 5.51zm2.334 24.297v-.957a2.335 2.335 0 0 0-4.668 0v.957c.76.129 1.537.21 2.334.21s1.574-.081 2.334-.21zM5.304 8.59c.912.91 2.39.91 3.302 0 .91-.911.91-2.39 0-3.301l-.68-.68a14.075 14.075 0 0 0-3.3 3.302zm18.159 0c.911.91 2.39.91 3.301 0l.68-.679a14.075 14.075 0 0 0-3.302-3.301l-.679.679a2.337 2.337 0 0 0 0 3.301z"/></g><g color="#000" paint-order="stroke markers fill"><path d="M16 10.7c3.026 0 5.481 2.371 5.481 5.295 0 2.925-2.454 5.295-5.481 5.295s-5.481-2.371-5.481-5.295S12.973 10.7 16 10.7z" fill="#fff" stroke="#fff" stroke-width="3" style="font-feature-settings:normal;font-variant-alternates:normal;font-variant-caps:normal;font-variant-east-asian:normal;font-variant-ligatures:normal;font-variant-numeric:normal;font-variant-position:normal;font-variation-settings:normal;inline-size:0;isolation:auto;mix-blend-mode:normal;shape-margin:0;shape-padding:0;text-decoration-color:#000;text-decoration-line:none;text-decoration-style:solid;text-indent:0;text-orientation:mixed;text-transform:none;white-space:normal"/><path d="M16 7.293c-4.835 0-8.902 3.872-8.902 8.707 0 4.835 4.068 8.707 8.902 8.707s8.902-3.872 8.902-8.707c0-4.835-4.067-8.707-8.902-8.707z" fill="#fff" style="font-feature-settings:normal;font-variant-alternates:normal;font-variant-caps:normal;font-variant-east-asian:normal;font-variant-ligatures:normal;font-variant-numeric:normal;font-variant-position:normal;font-variation-settings:normal;inline-size:0;isolation:auto;mix-blend-mode:normal;shape-margin:0;shape-padding:0;text-decoration-color:#000;text-decoration-line:none;text-decoration-style:solid;text-indent:0;text-orientation:mixed;text-transform:none;white-space:normal"/><path d="M16 9.205c-3.81 0-6.98 3.032-6.98 6.795 0 3.764 3.171 6.795 6.98 6.795s6.98-3.031 6.98-6.795c0-3.763-3.171-6.795-6.98-6.795zm0 3c2.243 0 3.98 1.71 3.98 3.795 0 2.086-1.737 3.795-3.98 3.795S12.02 18.086 12.02 16c0-2.084 1.738-3.795 3.98-3.795z" style="font-feature-settings:normal;font-variant-alternates:normal;font-variant-caps:normal;font-variant-east-asian:normal;font-variant-ligatures:normal;font-variant-numeric:normal;font-variant-position:normal;font-variation-settings:normal;inline-size:0;isolation:auto;mix-blend-mode:normal;shape-margin:0;shape-padding:0;text-decoration-color:#000;text-decoration-line:none;text-decoration-style:solid;text-indent:0;text-orientation:mixed;text-transform:none;white-space:normal"/></g></svg>