<svg width="32" height="28" xmlns="http://www.w3.org/2000/svg"><defs><linearGradient id="a" x1="30.83" x2="73.66" y1="166.7" y2="166.7" gradientTransform="matrix(.1167 0 0 .1232 .4 -2.532)" gradientUnits="userSpaceOnUse"><stop stop-color="#009fdb" offset="0"/><stop offset="1"/></linearGradient><linearGradient id="b" x1="10.12" x2="28.37" y1="20.42" y2="20.42" gradientTransform="translate(0 -1)" gradientUnits="userSpaceOnUse"><stop stop-color="gray" offset="0"/><stop stop-color="#1a1a1a" offset="1"/></linearGradient></defs><path d="M2.502 10.99c1.416.127 2.621.99 3.924 1.501l1.649.754C6.173 11.37 6.041 8.427 6.364 5.933 6.77 3.166 9.188 1.016 11.914.64c3.175-.52 7.008.227 8.797 3.156.69.561.444 2.958 1.456 1.572 2.52-1.998 6.613-1.418 8.366 1.315 1.797 2.478 1.023 6.271-1.545 7.9 1.138.505.696 1.864.785 2.843-.009 2.553.019 5.108-.014 7.66-.12 1.626-1.783 2.647-3.312 2.433-4.984-.01-9.97.019-14.95-.014-1.623-.112-2.67-1.758-2.452-3.29v-2.492c-1.726.991-3.606 1.703-5.4 2.57-1.327.719-3.073-.235-3.149-1.74a937.383 937.383 0 0 1 0-9.597c.089-1.017.946-1.98 2.01-1.966z" fill="#f3f3f3" stroke="#f3f3f3" stroke-linejoin="round" stroke-width=".968" paint-order="stroke markers fill"/><path d="M2 22.31c0 .586.619.81 1.375.496l3.693-1.738c.756-.314 1.375-1.05 1.375-1.635v-3.436c0-.586-.619-1.322-1.375-1.636l-3.693-1.737C2.619 12.31 2 12.534 2 13.119z" fill="url(#a)"/><path d="M13.48 2c3.232 0 5.852 2.741 5.852 6.121 0 3.38-2.62 6.122-5.852 6.122s-5.852-2.741-5.852-6.122S10.248 2 13.48 2zm1.783 5.222c.807-.443 1.751-1.169 2.007-1.437.427-.447.143-.873-.284-1.32-.427-.447-.835-.744-1.262-.297-.256.267-.951 1.255-1.374 2.099.202.08.392.204.555.375.162.17.281.369.358.58zM13.48 9.424c.688 0 1.246-.584 1.246-1.303 0-.72-.558-1.303-1.246-1.303s-1.246.583-1.246 1.303.558 1.303 1.246 1.303z" fill="#404040"/><path d="M25.6 6c2.269 0 4.109 1.855 4.109 4.143s-1.84 4.143-4.109 4.143-4.109-1.855-4.109-4.143S23.331 6 25.6 6zm1.573 6.788c.32.323.626.108.947-.215.32-.323.533-.632.213-.954-.192-.194-.9-.72-1.506-1.04a1.19 1.19 0 0 1-.685.691c.317.61.839 1.324 1.031 1.518zM25.6 11.033c.487 0 .882-.398.882-.89s-.395-.889-.882-.889a.886.886 0 0 0-.882.89c0 .49.395.889.882.889z" fill="#181818"/><path d="M13.62 16.21c2.454 0 4.676-1 6.277-2.61h.55a6.495 6.495 0 0 0 5.244 2.652c.953 0 1.859-.207 2.676-.575v9.085c0 .813-.67 1.478-1.49 1.478h-14.97c-.82 0-1.49-.665-1.49-1.478v-9.273c1.075.463 1.959.721 3.203.721z" fill="url(#b)"/></svg>