<svg width="32" height="32" xmlns="http://www.w3.org/2000/svg"><defs><linearGradient id="b" x1="16" x2="16" y1="24" y2="7" gradientUnits="userSpaceOnUse"><stop stop-color="#0058ff" offset="0"/><stop stop-color="#0092e6" offset="1"/></linearGradient><radialGradient id="a" cx="16" cy="26.97" r="14" gradientTransform="matrix(1 0 0 1.667 0 -17.98)" gradientUnits="userSpaceOnUse"><stop stop-color="#483825" offset="0"/><stop stop-color="#867d00" offset="1"/></radialGradient></defs><g color="#000" paint-order="stroke markers fill"><path d="M9.777 0C5.452-.022 1.922 3.541.709 7.485.142 9.483-.372 11.711.343 13.733c.702 1.982 3.356 2.979 5.084 1.669 1.44-.922 1.73-2.718 1.757-4.295.21-1.475 1.296-3.412 3.035-3.051 1.615.562 2.242 2.474 2.227 4.046C8 12.564 4.6 17 5.625 21.894c-.162.237-.934.052-1.378.107-1.3-.03-3.015-.105-3.59 1.339-.957 1.92-.841 4.36.41 6.114 1.124 1.16 2.91.42 3.827 1.797.89.57 1.887.857 2.941.75h17.58c1.74-.412 2.941-1.962 4.82-2.059 1.457-.753 1.692-2.658 1.756-4.132-.253-1.544-.869-3.681-2.76-3.772-.973-.072-1.95-.023-2.926-.037 1.695-5-2.697-9.807-6.745-10.23.064-1.571.874-3.628 2.663-3.771 1.87.166 2.667 2.362 2.666 4-.15 2.267 2.055 4.549 4.367 3.894 2.04-.52 3.02-2.822 2.718-4.78-.21-4.56-2.875-9.382-7.44-10.77-3.023-.97-6.402.183-8.534 2.448C14.376 1.124 12.138-.013 9.777.005z" fill="#f2f2f2" style="font-feature-settings:normal;font-variant-alternates:normal;font-variant-caps:normal;font-variant-east-asian:normal;font-variant-ligatures:normal;font-variant-numeric:normal;font-variant-position:normal;font-variation-settings:normal;inline-size:0;isolation:auto;mix-blend-mode:normal;shape-margin:0;shape-padding:0;text-decoration-color:#000;text-decoration-line:none;text-decoration-style:solid;text-indent:0;text-orientation:mixed;text-transform:none;white-space:normal"/><path d="M3.376 24C2.541 24 2 25.127 2 26.02c0 .892.675 2.311 1.51 2.311h1.179c.773 1.233.82.875 2.15 1.669h18.58c1.407-1.112 1.123-.436 1.896-1.669h1.177c.835 0 1.512-1.419 1.512-2.311 0-.892-.812-2.02-1.647-2.02H3.374z" fill="url(#a)" style="font-feature-settings:normal;font-variant-alternates:normal;font-variant-caps:normal;font-variant-east-asian:normal;font-variant-ligatures:normal;font-variant-numeric:normal;font-variant-position:normal;font-variation-settings:normal;inline-size:0;isolation:auto;mix-blend-mode:normal;shape-margin:0;shape-padding:0;text-decoration-color:#000;text-decoration-line:none;text-decoration-style:solid;text-indent:0;text-orientation:mixed;text-transform:none;white-space:normal"/><path d="M17.56 24v-4c0-1.103.698-2 1.556-2 .858 0 2.556.897 2.556 2 0 1.105.697 2 1.556 2 .86 0 1.556-.895 1.556-2 0-3.308-3.093-6-5.667-6-.545 0-1.069.122-1.556.344V12c0-3.308 2.093-6 4.667-6 2.573 0 4.667 2.692 4.667 6 0 1.105.697 2 1.556 2 .86 0 1.556-.895 1.556-2 0-5.514-3.489-10-7.778-10-2.542 0-4.802 1.576-6.222 4.007C14.587 3.576 12.326 2 9.785 2 5.496 2 2.007 6.486 2.007 12c0 1.105.697 2 1.556 2 .86 0 1.556-.895 1.556-2 0-3.308 2.093-6 4.667-6 2.573 0 4.667 2.692 4.667 6v2.344A3.731 3.731 0 0 0 12.897 14c-2.573 0-5.667 2.692-5.667 6 0 1.105.697 2 1.556 2 .86 0 1.556-.895 1.556-2 0-1.103 1.698-2 2.556-2 .858 0 1.556.897 1.556 2v4z" fill="url(#b)" style="font-feature-settings:normal;font-variant-alternates:normal;font-variant-caps:normal;font-variant-east-asian:normal;font-variant-ligatures:normal;font-variant-numeric:normal;font-variant-position:normal;font-variation-settings:normal;inline-size:0;isolation:auto;mix-blend-mode:normal;shape-margin:0;shape-padding:0;text-decoration-color:#000;text-decoration-line:none;text-decoration-style:solid;text-indent:0;text-orientation:mixed;text-transform:none;white-space:normal"/></g></svg>