<svg width="32" height="32" xmlns="http://www.w3.org/2000/svg"><path d="M4.205 0C2.537-.026 1.851 1.843 2.034 3.249c-.01 1.969 1.598 3.243 2.558 4.77.997 1.377 2.185 2.601 1.729 4.383.574 1.159.024 1.753-1.148 1.099-2.509-.34-5.182 1.635-5.178 4.261-.155 2.692 1.932 4.8 3.769 6.483 4.117 3.495 9.786 4.422 15.03 3.999.95 1.184 1.595 2.719 2.876 3.574 1.338.53 2.657-.372 3.814-.947 1.183-.647 1.088-2.28.241-3.163-1.696-1.382 1.531-1.51 2.276-2.52 3.072-1.882 4.837-5.865 3.617-9.346-1.447-4.336-5.503-7.293-9.786-8.47-3.557-1.072-7.444-1.754-11.1-.782-1.464-1.357-1.546-3.386-2.957-4.732C6.691 1.127 5.555.097 4.206 0z" color="#000" fill="#f2f2f2" style="font-feature-settings:normal;font-variant-alternates:normal;font-variant-caps:normal;font-variant-east-asian:normal;font-variant-ligatures:normal;font-variant-numeric:normal;font-variant-position:normal;font-variation-settings:normal;inline-size:0;isolation:auto;mix-blend-mode:normal;shape-margin:0;shape-padding:0;text-decoration-color:#000;text-decoration-line:none;text-decoration-style:solid;text-indent:0;text-orientation:mixed;text-transform:none;white-space:normal" paint-order="stroke markers fill"/><path d="M13.8 8.103c-1.566.039-3.351.243-4.393 1.551-1.541 1.124-1.313 3.282-.18 4.6.89 2.289-2.224 2.06-3.514 1.373-1.6-.645-3.843.518-3.609 2.393-.035 1.741 1.388 3.035 2.48 4.223 3.572 3.437 8.794 4.363 13.58 4.062 3.865-.143 7.891-1.522 10.53-4.457 1.894-2.347 1.266-5.823-.493-8.06-1.746-2.312-4.351-3.776-7.11-4.536-2.357-.765-4.807-1.188-7.29-1.148z" color="#000" fill="#7c6304" style="font-feature-settings:normal;font-variant-alternates:normal;font-variant-caps:normal;font-variant-east-asian:normal;font-variant-ligatures:normal;font-variant-numeric:normal;font-variant-position:normal;font-variation-settings:normal;inline-size:0;isolation:auto;mix-blend-mode:normal;shape-margin:0;shape-padding:0;text-decoration-color:#000;text-decoration-line:none;text-decoration-style:solid;text-indent:0;text-orientation:mixed;text-transform:none;white-space:normal" paint-order="stroke markers fill"/><path d="M8.366 22.4c-1.757-.075-3.487-1.389-2.859-3.309.316-2.28 3.172-2.158 4.908-2.114 2.107-.025 2.332 2.281 1.194 3.579-.45 1.12-2.083 1.957-3.243 1.844z" fill="#0ff" paint-order="fill markers stroke"/><path d="M16.2 24.54c-2.156-.136-2.404-2.667-1.552-4.166 1.491-.473 2.871-2.31 4.605-.983 1.261.92 3.103 2.623 1.702 4.233-1.108 1.426-3.191 1.106-4.754.917z" fill="red" paint-order="fill markers stroke"/><path d="M27.27 16.55c-.66 1.456-1.809 3.328-3.663 3.083-1.774-.356-2.887-2.276-3.011-3.973-.319-1.758 1.527-2.486 2.948-2.012a5.53 5.53 0 0 1 3.857 2.502l-.023.161-.107.24z" fill="#ff0" paint-order="fill markers stroke"/><path d="M19.29 12.02c-1.427.857-1.782 3.461-4.726 2.984-1.514 1.143-1.569.318-2.56-1-1.396-1.454-1.435-4.531.89-4.122 2.034.775 4.239-.044 6.232.634.442.278.956 1.314.164 1.504z" fill="#0f0" paint-order="fill markers stroke"/><g color="#000" paint-order="stroke markers fill"><path d="M5.468 5.478c-1.198-.46-1.767-3.012-.964-3.352 1.004.625 3.07 1.579 2.392 2.906l-1.427.446z" clip-rule="evenodd" fill="red" fill-rule="evenodd" style="font-feature-settings:normal;font-variant-alternates:normal;font-variant-caps:normal;font-variant-east-asian:normal;font-variant-ligatures:normal;font-variant-numeric:normal;font-variant-position:normal;font-variation-settings:normal;inline-size:0;isolation:auto;mix-blend-mode:normal;shape-margin:0;shape-padding:0;text-decoration-color:#000;text-decoration-line:none;text-decoration-style:solid;text-indent:0;text-orientation:mixed;text-transform:none;white-space:normal"/><path d="M15.22 16.38l-2.201.08c-2.497-3.567-4.995-7.132-7.492-10.7.564-.186 1.129-.37 1.693-.555l8 11.17zM24.28 29.27c-.567.25-1.134.502-1.7.753l-2.702-3.83 1.863-.41 2.539 3.486z" fill="#483737" style="font-feature-settings:normal;font-variant-alternates:normal;font-variant-caps:normal;font-variant-east-asian:normal;font-variant-ligatures:normal;font-variant-numeric:normal;font-variant-position:normal;font-variation-settings:normal;inline-size:0;isolation:auto;mix-blend-mode:normal;shape-margin:0;shape-padding:0;text-decoration-color:#000;text-decoration-line:none;text-decoration-style:solid;text-indent:0;text-orientation:mixed;text-transform:none;white-space:normal"/></g></svg>