<svg width="32" height="28" xmlns="http://www.w3.org/2000/svg"><defs><linearGradient id="a" x1="3.545" x2="14.73" y1="13.41" y2="13.41" gradientUnits="userSpaceOnUse"><stop stop-color="#fdf441" offset="0"/><stop stop-color="#85671b" offset="1"/></linearGradient></defs><path d="M0 0h24v24H0z" fill="none"/><path d="M9 0C6.215 0 3.103.576.713 2.588A2 2 0 0 0 0 4.117v20.68c.134 1.73 1.162 2.524 2.637 2.705 2.134-.423 4.187-1.589 6.363-1.623 2.178 0 4.413.554 5.713 1.648a2 2 0 0 0 2.432.11c1.18-.824 4.257-1.759 5.855-1.759 2.475-.15 4.27 1.167 6.363 1.553 1.758-.169 2.601-1.19 2.637-2.707V4.114a2 2 0 0 0-.72-1.537C28.901.734 25.821.033 23-.003c-2.317 0-4.834.453-7 1.744C13.834.451 11.317-.003 9-.003z" color="#000" fill="#f2f2f2" style="font-feature-settings:normal;font-variant-alternates:normal;font-variant-caps:normal;font-variant-east-asian:normal;font-variant-ligatures:normal;font-variant-numeric:normal;font-variant-position:normal;font-variation-settings:normal;inline-size:0;isolation:auto;mix-blend-mode:normal;shape-margin:0;shape-padding:0;text-decoration-color:#000;text-decoration-line:none;text-decoration-style:solid;text-indent:0;text-orientation:mixed;text-transform:none;white-space:normal" paint-order="stroke markers fill"/><path d="M27.45 2.706C26.037 2.212 24.485 2 22.995 2c-2.482 0-5.155.565-7 2.118C14.15 2.565 11.477 2 8.995 2s-5.155.565-7 2.118v20.68c0 .353.318.706.636.706 2.045-.712 4.308-1.597 6.364-1.624 2.482 0 5.155.565 7 2.118 1.718-1.2 4.836-2.118 7-2.118 2.337.198 4.613.658 6.364 1.553.319 0 .637-.353.637-.706V4.117c-.764-.635-1.591-1.059-2.545-1.412zM3.74 22.566V5.526c1.4-.494 1.914-1.206 5.255-1.206s3.984 1.079 5.727 1.898v16.44c-1.744-.819-4.022-1.098-5.727-1.098-1.527 0-3.855.512-5.255 1.006zm24.51 0c-1.4-.494-3.727-1.206-5.255-1.206-1.705 0-3.984.479-5.727 1.298V6.218c1.631-1.285 2.326-1.898 5.727-1.898 1.527 0 3.855.712 5.255 1.206z" color="#000" style="font-feature-settings:normal;font-variant-alternates:normal;font-variant-caps:normal;font-variant-east-asian:normal;font-variant-ligatures:normal;font-variant-numeric:normal;font-variant-position:normal;font-variation-settings:normal;inline-size:0;isolation:auto;mix-blend-mode:normal;shape-margin:0;shape-padding:0;text-decoration-color:#000;text-decoration-line:none;text-decoration-style:solid;text-indent:0;text-orientation:mixed;text-transform:none;white-space:normal" paint-order="stroke markers fill"/><path d="M14.73 6.221c-1.616-1.003-2.962-1.959-5.671-1.963-2.942-.005-3.911.593-5.311 1.271v17.04c1.4-.494 3.897-.94 5.424-.94 1.705 0 3.814.313 5.558 1.131z" fill="url(#a)"/><path d="M23 9.876c1.12 0 2.002.143 2.982.413V7.876c-1.005-.238-1.887-.381-2.982-.381-1.629 0-1.931.054-3.255.546v2.492c1.26-.556 1.575-.657 3.255-.657z" fill="#c90000"/><path d="M23 14.03c1.12 0 2.002.127 2.982.367v-2.146c-1.005-.212-1.887-.339-2.982-.339-1.629 0-1.931.026-3.255.464v2.216c1.26-.48 1.575-.563 3.255-.563zM23 18.2c1.12 0 2.002.127 2.982.367v-2.146c-1.005-.212-1.887-.339-2.982-.339-1.629 0-1.931.026-3.255.464v2.216c1.26-.494 1.575-.563 3.255-.563z" fill="#323232"/></svg>