<svg width="32" height="32" xmlns="http://www.w3.org/2000/svg"><defs><linearGradient id="a" x1="6.522" x2="6.561" y1="1.971" y2="20.42" gradientTransform="matrix(1.029 0 0 1.082 3.233 2.087)" gradientUnits="userSpaceOnUse"><stop stop-color="#009a06" offset="0"/><stop stop-color="#15c7ed" offset="1"/></linearGradient></defs><g color="#000"><path d="M4.193 0C1.676-.016-.304 2.51 0 4.946c.028 3.888-.06 7.778.051 11.66.182 3.531 2.007 7.163 5.343 8.668 1.854.91 3.945 1.2 5.993 1.154 1.592 3.664 5.671 5.621 9.53 5.567 3.981.155 8.19-1.86 9.865-5.609 1.62-3.206 1.143-6.85 1.218-10.31-.025-2.362.053-4.727-.044-7.086-.204-2.154-2.09-4.321-4.406-3.951-2.031.174-3.871 1.208-5.901 1.404.03-1.812.109-3.857-1.315-5.214C18.807-.449 16.28.035 14.484.967c-2.008.983-4.41 1.066-6.438.089C6.818.53 5.562-.034 4.194-.005z" fill="#f3f3f3" style="font-feature-settings:normal;font-variant-alternates:normal;font-variant-caps:normal;font-variant-east-asian:normal;font-variant-ligatures:normal;font-variant-numeric:normal;font-variant-position:normal;font-variation-settings:normal;inline-size:0;isolation:auto;mix-blend-mode:normal;shape-margin:0;shape-padding:0;text-decoration-color:#000;text-decoration-line:none;text-decoration-style:solid;text-indent:0;text-orientation:mixed;text-transform:none;white-space:normal" paint-order="stroke markers fill"/><path d="M12.68 11.39c-.012-1.771-.11-2.948 1.123-3.645.557-.315 1.727-.107 3.336.39l1.997.617V4.57c0-.886-.546-1.925-1.385-1.925-1.677 0-3.215 1.662-6.848 1.662-2.795 0-5.03-1.771-6.707-1.771-.839 0-1.677.885-1.677 1.77v10.92c0 4.132 1.601 8.659 8.309 8.659h2.214l-.315-5.312z" fill="url(#a)" stroke="#000" style="font-feature-settings:normal;font-variant-alternates:normal;font-variant-caps:normal;font-variant-east-asian:normal;font-variant-ligatures:normal;font-variant-numeric:normal;font-variant-position:normal;font-variation-settings:normal;inline-size:0;isolation:auto;mix-blend-mode:normal;shape-margin:0;shape-padding:0;text-decoration-color:#000;text-decoration-line:none;text-decoration-style:solid;text-indent:0;text-orientation:mixed;text-transform:none;white-space:normal"/><path d="M7.362 7.807c1.147 0 2.077.982 2.077 2.193s-.93 2.193-2.077 2.193S5.285 11.211 5.285 10s.93-2.193 2.077-2.193zm5.262 10.77l-6.755-.023s.838-3.324 5.031-3.324c.839 0 1.118.002 1.677.297" fill="#fff" style="font-feature-settings:normal;font-variant-alternates:normal;font-variant-caps:normal;font-variant-east-asian:normal;font-variant-ligatures:normal;font-variant-numeric:normal;font-variant-position:normal;font-variation-settings:normal;inline-size:0;isolation:auto;mix-blend-mode:normal;shape-margin:0;shape-padding:0;text-decoration-color:#000;text-decoration-line:none;text-decoration-style:solid;text-indent:0;text-orientation:mixed;text-transform:none;white-space:normal"/><path d="M14.25 7.562c-.839 0-1.536 1.239-1.536 2.125v10.92c0 4.131 1.676 8.852 8.384 8.852s8.385-5.016 8.385-8.853V9.686c0-.885-.546-2.125-1.385-2.125-1.677 0-4.408 1.462-6.924 1.462s-5.247-1.462-6.924-1.462z" fill="#44086d" stroke="#000" style="font-feature-settings:normal;font-variant-alternates:normal;font-variant-caps:normal;font-variant-east-asian:normal;font-variant-ligatures:normal;font-variant-numeric:normal;font-variant-position:normal;font-variation-settings:normal;inline-size:0;isolation:auto;mix-blend-mode:normal;shape-margin:0;shape-padding:0;text-decoration-color:#000;text-decoration-line:none;text-decoration-style:solid;text-indent:0;text-orientation:mixed;text-transform:none;white-space:normal"/><path d="M17.72 13.41c1.147 0 2.077.982 2.077 2.193s-.93 2.193-2.077 2.193-2.077-.982-2.077-2.193.93-2.193 2.077-2.193zm6.924 0c1.147 0 2.077.982 2.077 2.193s-.93 2.193-2.077 2.193c-1.147 0-2.077-.982-2.077-2.193s.93-2.193 2.077-2.193zm-8.569 8.967h10.34s-.838 3.541-5.031 3.541-5.312-3.541-5.312-3.541z" fill="#fff" style="font-feature-settings:normal;font-variant-alternates:normal;font-variant-caps:normal;font-variant-east-asian:normal;font-variant-ligatures:normal;font-variant-numeric:normal;font-variant-position:normal;font-variation-settings:normal;inline-size:0;isolation:auto;mix-blend-mode:normal;shape-margin:0;shape-padding:0;text-decoration-color:#000;text-decoration-line:none;text-decoration-style:solid;text-indent:0;text-orientation:mixed;text-transform:none;white-space:normal"/></g></svg>