<?xml version="1.0" encoding="UTF-8" standalone="no"?>
<!-- Created with Inkscape (http://www.inkscape.org/) -->

<svg
   width="32"
   height="32"
   viewBox="0 0 32 32"
   version="1.1"
   id="SVGRoot"
   sodipodi:docname="basic_hut.svg"
   inkscape:version="1.2.2 (732a01da63, 2022-12-09)"
   xmlns:inkscape="http://www.inkscape.org/namespaces/inkscape"
   xmlns:sodipodi="http://sodipodi.sourceforge.net/DTD/sodipodi-0.dtd"
   xmlns="http://www.w3.org/2000/svg"
   xmlns:svg="http://www.w3.org/2000/svg">
  <sodipodi:namedview
     id="namedview1186"
     pagecolor="#ffffff"
     bordercolor="#000000"
     borderopacity="0.25"
     inkscape:showpageshadow="2"
     inkscape:pageopacity="0.0"
     inkscape:pagecheckerboard="0"
     inkscape:deskcolor="#d1d1d1"
     inkscape:document-units="px"
     showgrid="true"
     inkscape:zoom="20.237486"
     inkscape:cx="2.7918488"
     inkscape:cy="11.365048"
     inkscape:window-width="1858"
     inkscape:window-height="1057"
     inkscape:window-x="1420"
     inkscape:window-y="-8"
     inkscape:window-maximized="1"
     inkscape:current-layer="layer1">
    <inkscape:grid
       type="xygrid"
       id="grid1309"
       originx="0"
       originy="0" />
  </sodipodi:namedview>
  <defs
     id="defs1181" />
  <g
     inkscape:label="Layer 1"
     inkscape:groupmode="layer"
     id="layer1">
    <path
       id="path15803-1"
       style="fill:#ffffff;fill-opacity:1;stroke-width:0.999992"
       d="M 22.403468,0.64241206 C 20.749651,0.70560185 19.551894,2.3915059 19.779103,3.9869546 19.6494,4.3497042 20.095602,5.6693972 19.439596,5.1576245 18.237711,4.5284834 17.049231,3.8731761 15.829433,3.2789858 11.091336,5.9708286 6.290663,8.5578025 1.3954219,10.952092 0.72964245,11.700226 0.38328137,12.796281 0.85534326,13.735091 1.4207579,14.911081 2.748666,15.566186 4.0029167,15.67877 c -0.017535,3.370448 0.03505,6.793892 -0.026241,10.131278 -1.404967,0.403218 -2.1373294,1.969904 -1.8571414,3.351916 0.2191505,1.487296 1.7599563,2.473383 3.210565,2.274277 7.3678767,-0.0126 14.7382457,0.02518 22.1045657,-0.01886 1.575455,-0.09793 2.728257,-1.708148 2.468869,-3.239306 -0.06573,-1.083897 -0.869566,-2.072198 -1.906415,-2.375547 0,-3.350176 0,-6.700353 0,-10.050528 1.508691,-0.166775 3.241618,-1.262051 3.287775,-2.944445 0.0357,-1.161433 -0.896831,-2.038801 -1.911055,-2.431487 C 28.108876,9.7148844 26.843914,9.0536981 25.578952,8.3925117 25.533812,6.5485386 25.671325,4.6880935 25.506293,2.8545309 25.213447,1.4512133 23.819126,0.46896361 22.403468,0.64241206 Z" />
    <path
       id="rect4292-7"
       style="fill:#a80012;fill-opacity:1;stroke:none;stroke-width:1.00157;stroke-linecap:round;stroke-linejoin:round;stroke-dasharray:none;paint-order:fill markers stroke"
       d="M 9.4941406 22 L 9.4941406 24 L 11.533203 24 L 11.533203 28 L 13.033203 28 L 13.033203 24 L 18.896484 24 L 18.896484 28 L 20.396484 28 L 20.396484 24 L 22.554688 24 L 22.554688 22 L 9.4941406 22 z " />
    <path
       id="path15803"
       style="fill:#a80012;fill-opacity:1;stroke-width:0.999996"
       d="M 22.875 1.9628906 C 22.354877 1.9628906 21.9375 2.4036736 21.9375 2.9511719 L 21.9375 8.1738281 C 19.215802 6.7426365 16.812068 5.472517 15.992188 5.0351562 C 15.932998 5.0211163 15.935471 4.9898687 15.882812 4.9804688 C 13.981411 6.0929518 6.0178388 10.413274 2.1347656 12.259766 C 1.4900738 12.986114 3.3570361 13.747898 3.7714844 13.59375 L 3.7734375 13.59375 L 5.5 13.09375 L 5.5 28 L 4.3828125 28 C 3.8939747 28 3.5 28.374471 3.5 28.839844 L 3.5 29.160156 C 3.5 29.625529 3.8939747 30 4.3828125 30 L 27.617188 30 C 28.106025 30 28.5 29.625529 28.5 29.160156 L 28.5 28.839844 C 28.5 28.374471 28.106025 28 27.617188 28 L 26.5 28 L 26.5 13.095703 C 27.178892 13.298914 27.854413 13.505884 28.552734 13.648438 C 29.388197 13.470937 30.625215 12.575974 29.408203 12.076172 C 27.853987 11.275062 25.894918 10.249853 23.939453 9.2246094 C 23.966803 9.13166 23.980469 9.0323434 23.980469 8.9296875 L 23.980469 2.9511719 C 23.980469 2.4036736 23.561139 1.9628906 23.041016 1.9628906 L 22.875 1.9628906 z M 15.9375 10.634766 C 18.671124 11.073332 21.573329 11.84756 24 12.445312 L 24 28 L 8 28 L 8 12.388672 C 10.682891 11.653995 13.156465 11.06556 15.9375 10.634766 z " />
  </g>
</svg>
