<svg width="32" height="32" xmlns="http://www.w3.org/2000/svg"><path fill="none" stroke="#f2f2f2" stroke-linecap="round" stroke-linejoin="round" stroke-width="4" paint-order="stroke markers fill" d="M6 2h20v18H6z"/><g color="#000" paint-order="stroke markers fill"><path d="M9 16.69a2 2 0 0 0-2 2v7.309H3a2 2 0 0 0-2 2v2a2 2 0 0 0 2 2h26a2 2 0 0 0 2-2v-2a2 2 0 0 0-2-2h-3.975V18.69a2 2 0 0 0-2-2h-2.049a2 2 0 0 0-2 2v7.309h-5.928V18.69a2 2 0 0 0-2-2H8.999z" fill="#f2f2f2" style="font-feature-settings:normal;font-variant-alternates:normal;font-variant-caps:normal;font-variant-east-asian:normal;font-variant-ligatures:normal;font-variant-numeric:normal;font-variant-position:normal;font-variation-settings:normal;inline-size:0;isolation:auto;mix-blend-mode:normal;shape-margin:0;shape-padding:0;text-decoration-color:#000;text-decoration-line:none;text-decoration-style:solid;text-indent:0;text-orientation:mixed;text-transform:none;white-space:normal"/><path d="M9 18.69h2.049V29H9zM20.98 18.69h2.049V29H20.98z" fill="#3d3d3d" style="font-feature-settings:normal;font-variant-alternates:normal;font-variant-caps:normal;font-variant-east-asian:normal;font-variant-ligatures:normal;font-variant-numeric:normal;font-variant-position:normal;font-variation-settings:normal;inline-size:0;isolation:auto;mix-blend-mode:normal;shape-margin:0;shape-padding:0;text-decoration-color:#000;text-decoration-line:none;text-decoration-style:solid;text-indent:0;text-orientation:mixed;text-transform:none;white-space:normal"/><path d="M3 28h26v2H3z" style="font-feature-settings:normal;font-variant-alternates:normal;font-variant-caps:normal;font-variant-east-asian:normal;font-variant-ligatures:normal;font-variant-numeric:normal;font-variant-position:normal;font-variation-settings:normal;inline-size:0;isolation:auto;mix-blend-mode:normal;shape-margin:0;shape-padding:0;text-decoration-color:#000;text-decoration-line:none;text-decoration-style:solid;text-indent:0;text-orientation:mixed;text-transform:none;white-space:normal"/></g><g paint-order="markers fill stroke"><path fill="#e5e5e5" stroke="#3d3d3d" stroke-linecap="square" stroke-width="1.5" d="M6.75 2.75h18.5v16.5H6.75z"/><path d="M9.732 15.24h12.57" stroke="#000" stroke-linecap="square" stroke-width="1.5"/><path fill="#da5700" d="M19 6h4v6h-4z"/><path d="M9.79 6.735h6.829M9.774 10.77h6.829" stroke="#000" stroke-linecap="square" stroke-width="1.5"/></g></svg>