<svg width="32" height="32" xmlns="http://www.w3.org/2000/svg"><path d="M12.95 15v11H9.999a2 2 0 0 0-2 2v2a2 2 0 0 0 2 2h12a2 2 0 0 0 2-2v-2a2 2 0 0 0-2-2h-3V15z" color="#000" fill="#f2f2f2" style="font-feature-settings:normal;font-variant-alternates:normal;font-variant-caps:normal;font-variant-east-asian:normal;font-variant-ligatures:normal;font-variant-numeric:normal;font-variant-position:normal;font-variation-settings:normal;inline-size:0;isolation:auto;mix-blend-mode:normal;shape-margin:0;shape-padding:0;text-decoration-color:#000;text-decoration-line:none;text-decoration-style:solid;text-indent:0;text-orientation:mixed;text-transform:none;white-space:normal" paint-order="stroke markers fill"/><path fill="none" stroke="#f2f2f2" stroke-linecap="round" stroke-linejoin="round" stroke-width="4" paint-order="stroke markers fill" d="M4 2h24v14H4z"/><path fill="#f97c29" stroke="#000" stroke-linecap="square" stroke-width="1.5" paint-order="markers fill stroke" d="M4.748 2.662h22.5v12.5h-22.5z"/><g stroke="#ecec00" stroke-linecap="square" stroke-width="1.827" paint-order="markers fill stroke"><path d="M8.868 6.871h8.538M21.03 6.871h1.998M8.968 10.9h4.394M17.13 10.89h5.93"/></g><path d="M10 28h12v2H10zM14.95 15h2.049v13H14.95z" color="#000" style="font-feature-settings:normal;font-variant-alternates:normal;font-variant-caps:normal;font-variant-east-asian:normal;font-variant-ligatures:normal;font-variant-numeric:normal;font-variant-position:normal;font-variation-settings:normal;inline-size:0;isolation:auto;mix-blend-mode:normal;shape-margin:0;shape-padding:0;text-decoration-color:#000;text-decoration-line:none;text-decoration-style:solid;text-indent:0;text-orientation:mixed;text-transform:none;white-space:normal" paint-order="stroke markers fill"/></svg>