<?xml version="1.0" encoding="UTF-8" standalone="no"?>
<!-- Created with Inkscape (http://www.inkscape.org/) -->

<svg
   width="32"
   height="64"
   viewBox="0 0 32 64"
   version="1.1"
   id="SVGRoot"
   xmlns="http://www.w3.org/2000/svg"
   xmlns:svg="http://www.w3.org/2000/svg">
  <defs
     id="defs3141" />
  <g
     id="layer1"
     transform="translate(0,32)">
    <rect
       style="fill:#c7282d;fill-opacity:1;stroke:#808080;stroke-width:2.999;stroke-linecap:square;stroke-dasharray:none;stroke-opacity:1;paint-order:markers fill stroke"
       id="rect605"
       width="29.000999"
       height="29.000999"
       x="1.4995"
       y="1.4995" />
    <path
       id="path3051"
       d="M 22.756325,27.247054 C 18.953639,27.077555 14.079146,26.454989 11.659723,25.829867 6.0848761,24.389445 3.9330173,22.212978 5.0234712,19.117626 5.9712664,16.427211 8.647225,14.284673 12.404398,13.207942 c 2.400073,-0.687813 4.184125,-0.578565 2.111884,0.129319 -2.770569,0.946442 -4.302388,2.177805 -5.1473374,4.13771 -0.7015909,1.627399 -0.6789099,2.347118 0.101289,3.214199 0.5585624,0.620794 3.0858684,2.173936 3.2401784,1.991288 0.03121,-0.03697 -0.08543,-0.697777 -0.259202,-1.468489 -0.268935,-1.192847 -0.234073,-1.616384 0.234332,-2.846907 0.621208,-1.632005 3.267333,-4.859983 5.123574,-6.250239 0.679446,-0.508883 1.463057,-1.430113 1.74136,-2.047179 L 20.056477,8.9457032 19.16445,7.9982537 C 18.209673,6.9841646 15.89943,5.8393701 13.547289,5.2147873 11.261624,4.6078624 12.792675,4.5220309 15.615923,5.0988206 c 3.365957,0.6876656 5.525046,1.6732491 6.418122,2.9297451 1.255171,1.7659414 1.023724,2.4723103 -1.864051,5.6890003 -2.386549,2.658342 -2.597548,2.998634 -2.731499,4.405595 -0.32617,3.425811 2.45746,6.291204 7.352616,7.568673 1.993905,0.520299 2.779656,0.92858 2.476959,1.286937 -0.19943,0.236057 -2.356586,0.36437 -4.511745,0.268283 z"
       style="fill:#ffffff;fill-opacity:1;stroke-width:0.91287" />
  </g>
</svg>
