<svg width="32" height="32" xmlns="http://www.w3.org/2000/svg"><g paint-order="stroke markers fill"><path d="M15.96 0c-.552 0-1.957 1-3.27 1.792L2.66 7.527c-1.383 1.08-.238 2.661.348 3.604.039 2.417-.021 4.841.081 7.254.215 1.274 1.578 1.752 2.72 1.597-1.64 1.55-3.369 3.014-4.95 4.619C-.882 26.641.141 30.32 2.79 31c1.211.318 2.804.092 3.3-1.138C5.916 31.223 7 32 8.555 32c1.25-.106 2.784.376 3.711-.728.581-.641.441-1.534.457-2.325l3.303-1.27 3.205 1.232c-.077 1.091.019 2.456 1.222 2.903 1.171.3 2.415.108 3.618.147 1.31-.09 1.98-1.46 1.796-2.643v-9.335c1.051.045 2.358.063 2.893-1.047.448-1.156.168-2.444.259-3.661l.03-4.56c1.264-.59.484-2.183 1.66-2.77 1.97-1.697 1.583-5.231-.74-6.428-1.718-1.032-3.959-.421-5.225 1.043-.423.299-.82.93-1.258 1.034L16.823.185a2 2 0 0 0-.863-.188z" color="#000" fill="#f3f3f3" style="font-feature-settings:normal;font-variant-alternates:normal;font-variant-caps:normal;font-variant-east-asian:normal;font-variant-ligatures:normal;font-variant-numeric:normal;font-variant-position:normal;font-variation-settings:normal;inline-size:0;isolation:auto;mix-blend-mode:normal;shape-margin:0;shape-padding:0;text-decoration-color:#000;text-decoration-line:none;text-decoration-style:solid;text-indent:0;text-orientation:mixed;text-transform:none;white-space:normal"/><path d="M15.97 2L4 9.012l4.088-.002V12H5.046v5.983h3.042v12.02h2.635v-2.426l5.303-2.039 5.204 2.001v2.434h2.635v-11.99h3.134V12h-3.134V9.002L28 9zm5.257 7.003V12h-10.51V9.009zm-10.51 8.98h10.51v1.805l-5.205 3.001-5.302-3.038zm0 4.514l2.749 1.166-2.749 1.166zm10.51.038v2.256l-2.651-1.128z" color="#000" fill="#523e3e" style="font-feature-settings:normal;font-variant-alternates:normal;font-variant-caps:normal;font-variant-east-asian:normal;font-variant-ligatures:normal;font-variant-numeric:normal;font-variant-position:normal;font-variation-settings:normal;inline-size:0;isolation:auto;mix-blend-mode:normal;shape-margin:0;shape-padding:0;text-decoration-color:#000;text-decoration-line:none;text-decoration-style:solid;text-indent:0;text-orientation:mixed;text-transform:none;white-space:normal"/><path fill="#937b4d" d="M6.5 13.5h19.12v3.062H6.5z"/><path fill="#523e3e" d="M8 13h2.723v4.983H8zM21.2 13h2.723v4.983H21.2z"/></g><path d="M3.977 27.1L27.997 5" fill="none" stroke="#dc0000" stroke-linecap="round" stroke-width="4"/></svg>