<svg width="32" height="36" xmlns="http://www.w3.org/2000/svg"><g paint-order="stroke markers fill"><path d="M15.96 0c-.391.003-.773.12-1.098.338L2.892 8.35c-1.643 1.1-.864 3.662 1.113 3.662L4 12.298A2 2 0 0 0 3.05 14v6.982a2 2 0 0 0 2 2h1.04v11.02a2 2 0 0 0 2 2h2.636a2 2 0 0 0 2-2V31.95l3.303-1.27 3.205 1.232v2.061a2 2 0 0 0 2 2h2.635a2 2 0 0 0 2-2v-10.99h1.135a2 2 0 0 0 2-2V14a2 2 0 0 0-.999-1.733L28.004 12c1.98 0 2.757-2.57 1.107-3.666l-12.03-8A2 2 0 0 0 15.958 0z" color="#000" fill="#f2f2f2" style="font-feature-settings:normal;font-variant-alternates:normal;font-variant-caps:normal;font-variant-east-asian:normal;font-variant-ligatures:normal;font-variant-numeric:normal;font-variant-position:normal;font-variation-settings:normal;inline-size:0;isolation:auto;mix-blend-mode:normal;shape-margin:0;shape-padding:0;text-decoration-color:#000;text-decoration-line:none;text-decoration-style:solid;text-indent:0;text-orientation:mixed;text-transform:none;white-space:normal"/><path d="M15.97 2L4 10.012l4.088-.002V14H5.046v6.983h3.042v13.02h2.635v-3.426l5.303-2.039 5.204 2.001v3.434h2.635v-12.99h3.134V14h-3.134v-3.998L28 10zm5.257 8.003V14h-10.51v-3.991zm-10.51 10.98h10.51v1.805l-5.205 2.001-5.302-2.038zm0 4.514l2.749 1.166-2.749 1.166zm10.51.038v2.256l-2.651-1.128z" color="#000" fill="#500" style="font-feature-settings:normal;font-variant-alternates:normal;font-variant-caps:normal;font-variant-east-asian:normal;font-variant-ligatures:normal;font-variant-numeric:normal;font-variant-position:normal;font-variation-settings:normal;inline-size:0;isolation:auto;mix-blend-mode:normal;shape-margin:0;shape-padding:0;text-decoration-color:#000;text-decoration-line:none;text-decoration-style:solid;text-indent:0;text-orientation:mixed;text-transform:none;white-space:normal"/><path fill="#a17f3f" d="M6.5 15.5h18.95v4.023H6.5z"/><path fill="#500" d="M8 15h2.723v4.983H8zM21.2 15h2.723v4.983H21.2z"/></g></svg>