<?xml version="1.0" encoding="UTF-8" standalone="no"?>
<!-- Created with Inkscape (http://www.inkscape.org/) -->

<svg
   width="32.0px"
   height="32.0px"
   viewBox="0 0 32.0 32.0"
   version="1.1"
   id="SVGRoot"
   xmlns="http://www.w3.org/2000/svg"
   xmlns:svg="http://www.w3.org/2000/svg">
  <defs
     id="defs4436" />
  <g
     id="layer1">
    <rect
       style="fill:#ffffff;stroke:#808080;stroke-width:2.999;stroke-linecap:square;stroke-dasharray:none;stroke-opacity:1;paint-order:markers fill stroke"
       id="rect605"
       width="29.000999"
       height="29.000999"
       x="1.4995"
       y="1.4995" />
    <path
       id="path17644"
       style="fill:#0000f8;fill-opacity:1;stroke:none;stroke-width:3.02362;stroke-linecap:round;stroke-linejoin:round;paint-order:fill markers stroke"
       d="M 16 5.5 A 10.5 10.5 0 0 0 5.5 16 A 10.5 10.5 0 0 0 16 26.5 A 10.5 10.5 0 0 0 26.5 16 A 10.5 10.5 0 0 0 16 5.5 z M 16 10.5 A 5.5 5.5 0 0 1 21.5 16 A 5.5 5.5 0 0 1 16 21.5 A 5.5 5.5 0 0 1 10.5 16 A 5.5 5.5 0 0 1 16 10.5 z " />
  </g>
</svg>
