<?xml version="1.0" encoding="UTF-8" standalone="no"?>
<!-- Created with Inkscape (http://www.inkscape.org/) -->

<svg
   width="36"
   height="96"
   viewBox="0 0 36 96"
   version="1.1"
   id="SVGRoot"
   xmlns="http://www.w3.org/2000/svg"
   xmlns:svg="http://www.w3.org/2000/svg">
  <defs
     id="defs418" />
  <g
     id="layer1"
     transform="matrix(1.1276934,0,0,1.0753976,-0.04662965,62.866365)">
    <rect
       style="fill:#ffffff;stroke:#808080;stroke-width:2.89553;stroke-linecap:square;stroke-dasharray:none;stroke-opacity:1;paint-order:markers fill stroke"
       id="rect605"
       width="29.088926"
       height="26.978661"
       x="1.5440969"
       y="2.5019193" />
    <path
       fill-rule="evenodd"
       clip-rule="evenodd"
       d="M 10.396652,8.2788683 C 7.8161528,8.4937756 5.6163525,9.6461162 4.8125888,11.501594 c -0.3384183,0.800782 -0.1903501,3.261751 -0.1903501,4.336043 0.021141,0.800782 0,6.230545 0.042282,6.719059 0.084605,0.703041 0.4653455,1.015462 1.1422025,1.034965 2.2632436,0.117589 1.9882686,-0.331924 1.9882686,-2.46093 v -6.738372 c 0,-0.68371 -0.1057719,-1.582138 0.2115119,-2.070386 0.5287885,-0.820379 1.9459668,-1.23056 3.2362173,-0.996074 0.57109,0.09801 1.121041,0.390602 1.417175,0.742162 0.465327,0.54685 0.465327,0.917854 0.486488,1.777428 0,0.82021 -0.19037,1.113317 -0.782622,1.406273 -0.486489,0.253744 -1.205646,0.370986 -1.607528,0.6249 -0.380741,0.195292 -0.7826225,0.859403 -0.697998,1.523516 0.105772,0.761757 0.549931,0.879 1.290248,0.937451 2.305549,0.176415 1.861343,-0.05881 1.861343,2.558692 -0.02114,2.265525 -0.21151,2.714842 1.713295,2.734345 2.009429,0.01969 1.522942,-1.328073 1.501781,-4.003836 0,-1.367249 -0.169209,-1.074311 2.072894,-1.308627 0.697997,-0.07841 1.07878,-0.332132 1.0999,-1.093889 0.02111,-1.601566 -1.586488,-1.542944 -2.390171,-2.011765 -0.655716,-0.351558 -0.698019,-0.644496 -0.698019,-1.542924 0,-0.918025 0.0423,-1.113336 0.528808,-1.640589 0.338418,-0.371175 0.888368,-0.644686 1.522844,-0.722734 1.290393,-0.195292 2.749747,0.292938 3.151652,1.171938 0.380782,0.839807 -0.126927,7.539136 0.169168,8.8087 0.52883,2.343726 3.997696,3.437578 5.52062,1.777582 0.697998,-0.781431 0.380781,-2.61752 -1.395996,-2.031494 -0.78248,0.253912 -1.015213,-0.390621 -1.015213,-1.113355 0,-0.761664 0.02111,-1.523421 0.02111,-2.28518 0,-1.503918 0,-3.007819 0.02113,-4.511737 0,-0.781355 0,-1.289012 -0.338337,-1.9141 C 24.399198,10.642189 24.060658,10.290631 23.701201,9.9586704 21.987786,8.454752 17.715153,7.2241727 15.515373,9.3139657 14.986585,9.8218104 14.35203,9.3531839 13.950148,9.0602425 13.019455,8.3961297 11.813811,8.1618145 10.396652,8.2788683 Z"
       fill="#0023ff"
       id="path21906"
       style="fill:#f80000;fill-opacity:1;stroke-width:1.97042" />
  </g>
</svg>
