<?xml version="1.0" encoding="UTF-8" standalone="no"?>
<!-- Created with Inkscape (http://www.inkscape.org/) -->

<svg
   width="32"
   height="64"
   viewBox="0 0 32 64"
   version="1.1"
   id="SVGRoot"
   xmlns="http://www.w3.org/2000/svg"
   xmlns:svg="http://www.w3.org/2000/svg">
  <defs
     id="defs418" />
  <g
     id="layer1"
     transform="translate(-0.03731239,31.96271)">
    <rect
       style="fill:#ffffff;stroke:#808080;stroke-width:2.999;stroke-linecap:square;stroke-dasharray:none;stroke-opacity:1;paint-order:markers fill stroke"
       id="rect605"
       width="28.985458"
       height="29.0445"
       x="1.5368124"
       y="1.5367901" />
    <path
       d="m 15.481434,7.2473997 c -2.345861,0 -4.595635,0.9810879 -6.254411,2.7274423 -1.6587757,1.746355 -2.5906632,4.114911 -2.5906632,6.584627 0.00162,1.596492 0.3930751,3.165747 1.1367837,4.557125 0.7437233,1.391223 1.8146996,2.55787 3.1101195,3.387886 l 1.658452,-3.022232 C 11.750169,20.95891 11.09755,20.233034 10.644874,19.372133 10.192198,18.511155 9.9542498,17.543475 9.9532628,16.559469 c 0,-1.543568 0.5824332,-3.023924 1.6191642,-4.115391 1.036731,-1.091469 2.442847,-1.704653 3.909007,-1.704653 1.466174,0 2.872276,0.613184 3.909021,1.704653 1.036791,1.091467 1.619091,2.571823 1.619091,4.115391 -0.0031,0.469297 -0.06015,0.936468 -0.169826,1.391347 l -1.66995,-0.95787 v 7.456903 l 6.181823,-3.907344 -1.540517,-0.885112 c 0.33744,-0.99439 0.511687,-2.041982 0.515373,-3.097924 0,-2.469716 -0.931828,-4.838272 -2.590574,-6.584627 -1.658747,-1.7463544 -3.90858,-2.7274423 -6.254441,-2.7274423 z"
       fill="#0023ff"
       id="path2"
       style="fill:#f80000;fill-opacity:1;stroke-width:1.5126" />
  </g>
</svg>
