<?xml version="1.0" encoding="UTF-8" standalone="no"?>
<!-- Created with Inkscape (http://www.inkscape.org/) -->

<svg
   width="32"
   height="32"
   viewBox="0 0 32 32"
   version="1.1"
   id="svg1"
   xmlns="http://www.w3.org/2000/svg"
   xmlns:svg="http://www.w3.org/2000/svg">
  <defs
     id="defs1" />
  <g
     id="layer1">
    <g
       id="layer1-5"
       transform="translate(3.2428097,0.51323255)">
      <rect
         style="fill:#ffffff;stroke:#808080;stroke-width:2.999;stroke-linecap:square;stroke-dasharray:none;stroke-opacity:1;paint-order:markers fill stroke"
         id="rect605"
         width="28.985458"
         height="29.0445"
         x="-1.7433096"
         y="0.98626751" />
      <path
         style="fill:none;fill-opacity:1;stroke:#ba000e;stroke-width:1.37082;stroke-dasharray:none;stroke-opacity:1"
         d="M 6.3158494,10.445745 C 6.4389555,10.338112 6.5132857,10.273125 6.816204,10.078696 7.1191223,9.8842662 7.5133742,9.6519269 8.0305067,9.4480343 8.5476393,9.2441417 9.0520105,9.1302494 9.5937403,9.1344001 c 0.5417297,0.00415 1.0945197,0.1293508 1.6072067,0.331124 0.512687,0.2017732 0.263673,0.050142 0.945528,0.4908308 0.681856,0.4406881 0.627918,0.3969331 0.726949,0.4772691"
         id="path5-5"
         transform="matrix(1.1418069,0,0,0.98100631,1.7216914,3.8283918)" />
      <path
         style="fill:none;stroke:#ba000e;stroke-width:2.49996;stroke-dasharray:none;stroke-opacity:1"
         d="m 15.228734,29.628461 c 0.615227,-1.945033 1.230454,-3.890065 1.884806,-5.500871 0.654352,-1.610805 1.347828,-2.887382 2.305965,-3.993872 0.958138,-1.10649 2.180935,-2.042892 3.409512,-2.690419 1.228576,-0.647527 2.462931,-1.00618 3.089145,-0.658912 0.626214,0.347267 0.644288,1.400453 0.483389,2.748217 -0.160899,1.347763 -0.506564,3.0181 -1.389136,4.5966 -0.882572,1.578499 -2.429808,3.246384 -4.059988,4.276407 -1.63018,1.030023 -3.762593,1.670949 -5.693839,1.658028 -1.931245,-0.01292 -4.155191,-0.67472 -5.8295435,-1.659617 C 7.7546917,27.419125 6.2619686,25.893883 5.4399303,24.367573 4.617892,22.841264 4.2706761,20.977376 4.1478455,19.570964 4.0250148,18.164553 4.1080624,17.090574 4.7211754,16.81937 c 0.6131131,-0.271203 1.7569939,0.251289 2.9272518,0.871232 1.170258,0.619943 2.3668938,1.337338 3.3727248,2.322233 1.005831,0.984896 1.820859,2.237294 2.477933,3.884482 0.657075,1.647188 1.156194,3.689158 1.655318,5.731145"
         id="path1"
         transform="matrix(0.99429677,0,0,0.8614881,-2.3541427,-1.1744387)" />
      <path
         style="fill:none;fill-opacity:1;stroke:#ba000e;stroke-width:2.2847;stroke-dasharray:none;stroke-opacity:1"
         d="M 5.4684871,10.691302 C 5.6273182,10.425345 5.7825009,10.165497 6.1181509,9.8109431 6.4538009,9.4563893 6.9033217,9.0702821 7.5100897,8.623469 8.1168577,8.1766559 8.7593972,7.7653469 9.4120271,7.4957703 10.064657,7.2261937 10.881266,7.0360821 11.769742,7.0132157 c 0.888475,-0.022866 1.693804,0.10898 2.484847,0.380261 0.791043,0.2712811 1.470014,0.6576319 2.066538,1.0791807 0.596524,0.4215489 1.089748,0.8648567 1.400893,1.2241031 0.311146,0.3592465 0.43933,0.6341165 0.567321,0.9085735"
         id="path5"
         transform="matrix(1.172869,0,0,0.80626916,-1.3868604,3.3244642)" />
    </g>
  </g>
</svg>
