<?xml version="1.0" encoding="UTF-8" standalone="no"?>
<!-- Created with Inkscape (http://www.inkscape.org/) -->

<svg
   width="32"
   height="64"
   viewBox="0 0 32 64"
   version="1.1"
   id="SVGRoot"
   xmlns="http://www.w3.org/2000/svg"
   xmlns:svg="http://www.w3.org/2000/svg">
  <defs
     id="defs418" />
  <g
     id="layer1">
    <rect
       style="fill:#ffffff;stroke:#808080;stroke-width:2.999;stroke-linecap:square;stroke-dasharray:none;stroke-opacity:1;paint-order:markers fill stroke"
       id="rect605"
       width="28.985458"
       height="29.0445"
       x="1.4995"
       y="33.4995" />
    <path
       fill-rule="evenodd"
       clip-rule="evenodd"
       d="m 15.95958,38.969996 c -2.356034,0 -4.496302,0.765709 -5.942114,2.355084 -1.4457966,1.589204 -2.0632804,3.790094 -2.0632804,6.178814 v 5.12778 h -3.053812 v 4.312393 h 7.2260004 v -9.440173 c 0,-1.646817 0.391016,-2.632801 0.928978,-3.224118 0.537946,-0.591314 1.35573,-0.997369 2.904228,-0.997369 1.472065,0 2.201796,0.376384 2.724955,0.970288 0.523156,0.594076 0.931865,1.63783 0.984436,3.321906 v 9.369466 h 7.18122 v -4.312393 h -3.009034 v -5.161433 l -0.0032,-0.03447 c -0.0736,-2.351644 -0.669225,-4.501112 -2.066737,-6.087901 -1.397684,-1.586619 -3.505239,-2.378564 -5.811758,-2.378564 z"
       fill="#0023ff"
       id="path152334"
       style="fill:#f8c800;fill-opacity:1;stroke-width:1.69668" />
  </g>
</svg>
